<svg width="166" height="232" viewBox="0 0 166 232" fill="none" xmlns="http://www.w3.org/2000/svg">
<rect x="4" y="4" width="158" height="224" rx="5" fill="#FFF8F8" stroke="#F7575C" stroke-width="7"/>
<path d="M64.7005 21.344C64.3085 21.32 64.0205 21.376 63.8365 21.512C63.6605 21.648 63.5405 21.892 63.4765 22.244L63.4645 22.304H64.5685L64.2685 24.008H63.1645L62.2885 29H60.2245L61.1005 24.008H60.3565L60.6565 22.304H61.4005L61.4365 22.112C61.5885 21.288 61.9365 20.664 62.4805 20.24C63.0325 19.808 63.7645 19.592 64.6765 19.592C64.8205 19.592 64.9285 19.596 65.0005 19.604L64.7005 21.344ZM64.7767 25.64C64.8967 24.952 65.1327 24.348 65.4847 23.828C65.8367 23.308 66.2607 22.908 66.7567 22.628C67.2527 22.348 67.7767 22.208 68.3287 22.208C68.8007 22.208 69.1967 22.304 69.5167 22.496C69.8367 22.688 70.0687 22.94 70.2127 23.252L70.3807 22.304H72.4327L71.2447 29H69.1927L69.3727 28.052C69.1167 28.364 68.7927 28.616 68.4007 28.808C68.0087 29 67.5767 29.096 67.1047 29.096C66.6327 29.096 66.2127 28.988 65.8447 28.772C65.4847 28.556 65.2047 28.252 65.0047 27.86C64.8047 27.46 64.7047 26.992 64.7047 26.456C64.7047 26.2 64.7287 25.928 64.7767 25.64ZM69.7927 25.652C69.8167 25.508 69.8287 25.376 69.8287 25.256C69.8287 24.864 69.7127 24.556 69.4807 24.332C69.2567 24.108 68.9687 23.996 68.6167 23.996C68.2087 23.996 67.8367 24.144 67.5007 24.44C67.1647 24.728 66.9527 25.128 66.8647 25.64C66.8407 25.784 66.8287 25.916 66.8287 26.036C66.8287 26.428 66.9407 26.74 67.1647 26.972C67.3967 27.196 67.6847 27.308 68.0287 27.308C68.4367 27.308 68.8087 27.16 69.1447 26.864C69.4807 26.568 69.6967 26.164 69.7927 25.652ZM75.9813 23.516C76.2933 23.116 76.6493 22.804 77.0493 22.58C77.4573 22.348 77.8813 22.232 78.3213 22.232L77.9373 24.404H77.3733C76.8613 24.404 76.4573 24.516 76.1613 24.74C75.8653 24.956 75.6693 25.34 75.5733 25.892L75.0213 29H72.9693L74.1453 22.304H76.1973L75.9813 23.516ZM83.0221 21.344C82.6301 21.32 82.3421 21.376 82.1581 21.512C81.9821 21.648 81.8621 21.892 81.7981 22.244L81.7861 22.304H82.8901L82.5901 24.008H81.4861L80.6101 29H78.5461L79.4221 24.008H78.6781L78.9781 22.304H79.7221L79.7581 22.112C79.9101 21.288 80.2581 20.664 80.8021 20.24C81.3541 19.808 82.0861 19.592 82.9981 19.592C83.1421 19.592 83.2501 19.596 83.3221 19.604L83.0221 21.344ZM83.0983 25.64C83.2183 24.952 83.4543 24.348 83.8063 23.828C84.1583 23.308 84.5823 22.908 85.0783 22.628C85.5743 22.348 86.0983 22.208 86.6503 22.208C87.1223 22.208 87.5183 22.304 87.8383 22.496C88.1583 22.688 88.3903 22.94 88.5343 23.252L88.7023 22.304H90.7543L89.5663 29H87.5143L87.6943 28.052C87.4383 28.364 87.1143 28.616 86.7223 28.808C86.3303 29 85.8983 29.096 85.4263 29.096C84.9543 29.096 84.5343 28.988 84.1663 28.772C83.8063 28.556 83.5263 28.252 83.3263 27.86C83.1263 27.46 83.0263 26.992 83.0263 26.456C83.0263 26.2 83.0503 25.928 83.0983 25.64ZM88.1143 25.652C88.1383 25.508 88.1503 25.376 88.1503 25.256C88.1503 24.864 88.0343 24.556 87.8023 24.332C87.5783 24.108 87.2903 23.996 86.9383 23.996C86.5303 23.996 86.1583 24.144 85.8223 24.44C85.4863 24.728 85.2743 25.128 85.1863 25.64C85.1623 25.784 85.1503 25.916 85.1503 26.036C85.1503 26.428 85.2623 26.74 85.4863 26.972C85.7183 27.196 86.0063 27.308 86.3503 27.308C86.7583 27.308 87.1303 27.16 87.4663 26.864C87.8023 26.568 88.0183 26.164 88.1143 25.652ZM94.9148 20.12L93.3428 29H91.2908L92.8628 20.12H94.9148ZM98.6939 20.12L97.1219 29H95.0699L96.6419 20.12H98.6939ZM103.025 22.208C103.889 22.208 104.573 22.444 105.077 22.916C105.589 23.38 105.845 24.016 105.845 24.824C105.845 25.088 105.825 25.324 105.785 25.532C105.753 25.716 105.705 25.912 105.641 26.12H100.997C100.989 26.168 100.985 26.244 100.985 26.348C100.985 26.7 101.081 26.968 101.273 27.152C101.465 27.336 101.721 27.428 102.041 27.428C102.553 27.428 102.945 27.212 103.217 26.78H105.401C105.113 27.46 104.645 28.016 103.997 28.448C103.349 28.88 102.621 29.096 101.813 29.096C100.949 29.096 100.257 28.856 99.737 28.376C99.225 27.896 98.969 27.244 98.969 26.42C98.969 26.172 98.993 25.916 99.041 25.652C99.161 24.956 99.409 24.348 99.785 23.828C100.161 23.308 100.629 22.908 101.189 22.628C101.749 22.348 102.361 22.208 103.025 22.208ZM103.769 25.076C103.785 24.964 103.793 24.888 103.793 24.848C103.793 24.528 103.693 24.284 103.493 24.116C103.293 23.94 103.029 23.852 102.701 23.852C102.349 23.852 102.037 23.96 101.765 24.176C101.501 24.384 101.309 24.684 101.189 25.076H103.769Z" fill="#3CAA90"/>
<path d="M45.1258 44.792H43.0258L44.3698 41.576H45.7498L45.1258 44.792ZM47.8498 44.792H45.7618L47.1058 41.576H48.4738L47.8498 44.792ZM52.098 44.252C52.29 43.94 52.566 43.688 52.926 43.496C53.286 43.304 53.698 43.208 54.162 43.208C54.714 43.208 55.214 43.348 55.662 43.628C56.11 43.908 56.462 44.308 56.718 44.828C56.982 45.348 57.114 45.952 57.114 46.64C57.114 47.328 56.982 47.936 56.718 48.464C56.462 48.984 56.11 49.388 55.662 49.676C55.214 49.956 54.714 50.096 54.162 50.096C53.69 50.096 53.278 50.004 52.926 49.82C52.574 49.628 52.298 49.376 52.098 49.064V50H50.046V41.12H52.098V44.252ZM55.026 46.64C55.026 46.128 54.882 45.728 54.594 45.44C54.314 45.144 53.966 44.996 53.55 44.996C53.142 44.996 52.794 45.144 52.506 45.44C52.226 45.736 52.086 46.14 52.086 46.652C52.086 47.164 52.226 47.568 52.506 47.864C52.794 48.16 53.142 48.308 53.55 48.308C53.958 48.308 54.306 48.16 54.594 47.864C54.882 47.56 55.026 47.152 55.026 46.64ZM65.0425 43.304V50H62.9905V49.088C62.7825 49.384 62.4985 49.624 62.1385 49.808C61.7865 49.984 61.3945 50.072 60.9625 50.072C60.4505 50.072 59.9985 49.96 59.6065 49.736C59.2145 49.504 58.9105 49.172 58.6945 48.74C58.4785 48.308 58.3705 47.8 58.3705 47.216V43.304H60.4105V46.94C60.4105 47.388 60.5265 47.736 60.7585 47.984C60.9905 48.232 61.3025 48.356 61.6945 48.356C62.0945 48.356 62.4105 48.232 62.6425 47.984C62.8745 47.736 62.9905 47.388 62.9905 46.94V43.304H65.0425ZM70.4884 48.26V50H69.4444C68.7004 50 68.1204 49.82 67.7044 49.46C67.2884 49.092 67.0804 48.496 67.0804 47.672V45.008H66.2644V43.304H67.0804V41.672H69.1324V43.304H70.4764V45.008H69.1324V47.696C69.1324 47.896 69.1804 48.04 69.2764 48.128C69.3724 48.216 69.5324 48.26 69.7564 48.26H70.4884ZM75.6034 48.26V50H74.5594C73.8154 50 73.2354 49.82 72.8194 49.46C72.4034 49.092 72.1954 48.496 72.1954 47.672V45.008H71.3794V43.304H72.1954V41.672H74.2474V43.304H75.5914V45.008H74.2474V47.696C74.2474 47.896 74.2954 48.04 74.3914 48.128C74.4874 48.216 74.6474 48.26 74.8714 48.26H75.6034ZM83.2984 46.544C83.2984 46.736 83.2864 46.936 83.2624 47.144H78.6184C78.6504 47.56 78.7824 47.88 79.0144 48.104C79.2544 48.32 79.5464 48.428 79.8904 48.428C80.4024 48.428 80.7584 48.212 80.9584 47.78H83.1424C83.0304 48.22 82.8264 48.616 82.5304 48.968C82.2424 49.32 81.8784 49.596 81.4384 49.796C80.9984 49.996 80.5064 50.096 79.9624 50.096C79.3064 50.096 78.7224 49.956 78.2104 49.676C77.6984 49.396 77.2984 48.996 77.0104 48.476C76.7224 47.956 76.5784 47.348 76.5784 46.652C76.5784 45.956 76.7184 45.348 76.9984 44.828C77.2864 44.308 77.6864 43.908 78.1984 43.628C78.7104 43.348 79.2984 43.208 79.9624 43.208C80.6104 43.208 81.1864 43.344 81.6904 43.616C82.1944 43.888 82.5864 44.276 82.8664 44.78C83.1544 45.284 83.2984 45.872 83.2984 46.544ZM81.1984 46.004C81.1984 45.652 81.0784 45.372 80.8384 45.164C80.5984 44.956 80.2984 44.852 79.9384 44.852C79.5944 44.852 79.3024 44.952 79.0624 45.152C78.8304 45.352 78.6864 45.636 78.6304 46.004H81.1984ZM86.673 44.42C86.913 44.052 87.213 43.764 87.573 43.556C87.933 43.34 88.333 43.232 88.773 43.232V45.404H88.209C87.697 45.404 87.313 45.516 87.057 45.74C86.801 45.956 86.673 46.34 86.673 46.892V50H84.621V43.304H86.673V44.42ZM93.3538 45.008H92.2498V50H90.1978V45.008H89.4538V43.304H90.1978V43.112C90.1978 42.288 90.4338 41.664 90.9058 41.24C91.3778 40.808 92.0698 40.592 92.9818 40.592C93.1338 40.592 93.2458 40.596 93.3178 40.604V42.344C92.9258 42.32 92.6498 42.376 92.4898 42.512C92.3298 42.648 92.2498 42.892 92.2498 43.244V43.304H93.3538V45.008ZM96.61 41.12V50H94.558V41.12H96.61ZM99.369 42.608C99.009 42.608 98.713 42.504 98.481 42.296C98.257 42.08 98.145 41.816 98.145 41.504C98.145 41.184 98.257 40.92 98.481 40.712C98.713 40.496 99.009 40.388 99.369 40.388C99.721 40.388 100.009 40.496 100.233 40.712C100.465 40.92 100.581 41.184 100.581 41.504C100.581 41.816 100.465 42.08 100.233 42.296C100.009 42.504 99.721 42.608 99.369 42.608ZM100.389 43.304V50H98.337V43.304H100.389ZM108.428 46.544C108.428 46.736 108.416 46.936 108.392 47.144H103.748C103.78 47.56 103.912 47.88 104.144 48.104C104.384 48.32 104.676 48.428 105.02 48.428C105.532 48.428 105.888 48.212 106.088 47.78H108.272C108.16 48.22 107.956 48.616 107.66 48.968C107.372 49.32 107.008 49.596 106.568 49.796C106.128 49.996 105.636 50.096 105.092 50.096C104.436 50.096 103.852 49.956 103.34 49.676C102.828 49.396 102.428 48.996 102.14 48.476C101.852 47.956 101.708 47.348 101.708 46.652C101.708 45.956 101.848 45.348 102.128 44.828C102.416 44.308 102.816 43.908 103.328 43.628C103.84 43.348 104.428 43.208 105.092 43.208C105.74 43.208 106.316 43.344 106.82 43.616C107.324 43.888 107.716 44.276 107.996 44.78C108.284 45.284 108.428 45.872 108.428 46.544ZM106.328 46.004C106.328 45.652 106.208 45.372 105.968 45.164C105.728 44.956 105.428 44.852 105.068 44.852C104.724 44.852 104.432 44.952 104.192 45.152C103.96 45.352 103.816 45.636 103.76 46.004H106.328ZM112.475 50.096C111.891 50.096 111.371 49.996 110.915 49.796C110.459 49.596 110.099 49.324 109.835 48.98C109.571 48.628 109.423 48.236 109.391 47.804H111.419C111.443 48.036 111.551 48.224 111.743 48.368C111.935 48.512 112.171 48.584 112.451 48.584C112.707 48.584 112.903 48.536 113.039 48.44C113.183 48.336 113.255 48.204 113.255 48.044C113.255 47.852 113.155 47.712 112.955 47.624C112.755 47.528 112.431 47.424 111.983 47.312C111.503 47.2 111.103 47.084 110.783 46.964C110.463 46.836 110.187 46.64 109.955 46.376C109.723 46.104 109.607 45.74 109.607 45.284C109.607 44.9 109.711 44.552 109.919 44.24C110.135 43.92 110.447 43.668 110.855 43.484C111.271 43.3 111.763 43.208 112.331 43.208C113.171 43.208 113.831 43.416 114.311 43.832C114.799 44.248 115.079 44.8 115.151 45.488H113.255C113.223 45.256 113.119 45.072 112.943 44.936C112.775 44.8 112.551 44.732 112.271 44.732C112.031 44.732 111.847 44.78 111.719 44.876C111.591 44.964 111.527 45.088 111.527 45.248C111.527 45.44 111.627 45.584 111.827 45.68C112.035 45.776 112.355 45.872 112.787 45.968C113.283 46.096 113.687 46.224 113.999 46.352C114.311 46.472 114.583 46.672 114.815 46.952C115.055 47.224 115.179 47.592 115.187 48.056C115.187 48.448 115.075 48.8 114.851 49.112C114.635 49.416 114.319 49.656 113.903 49.832C113.495 50.008 113.019 50.096 112.475 50.096ZM117.15 41.576H119.25L117.906 44.792H116.526L117.15 41.576ZM119.874 41.576H121.974L120.63 44.792H119.25L119.874 41.576Z" fill="#393A32"/>
<rect x="24" y="169" width="118" height="40" rx="2" fill="#3CAA90" fill-opacity="0.1"/>
<path d="M54.9632 187.344H53.4911V194H50.7551V187.344H49.7631V185.072H50.7551V184.816C50.7551 183.717 51.0698 182.885 51.6992 182.32C52.3285 181.744 53.2512 181.456 54.4672 181.456C54.6698 181.456 54.8192 181.461 54.9152 181.472V183.792C54.3925 183.76 54.0245 183.835 53.8112 184.016C53.5978 184.197 53.4911 184.523 53.4911 184.992V185.072H54.9632V187.344ZM56.6648 189.52C56.6648 188.603 56.8354 187.797 57.1768 187.104C57.5288 186.411 58.0034 185.877 58.6008 185.504C59.1981 185.131 59.8648 184.944 60.6008 184.944C61.2301 184.944 61.7794 185.072 62.2488 185.328C62.7288 185.584 63.0968 185.92 63.3528 186.336V185.072H66.0888V194H63.3528V192.736C63.0861 193.152 62.7128 193.488 62.2328 193.744C61.7634 194 61.2141 194.128 60.5848 194.128C59.8594 194.128 59.1981 193.941 58.6008 193.568C58.0034 193.184 57.5288 192.645 57.1768 191.952C56.8354 191.248 56.6648 190.437 56.6648 189.52ZM63.3528 189.536C63.3528 188.853 63.1608 188.315 62.7768 187.92C62.4034 187.525 61.9448 187.328 61.4008 187.328C60.8568 187.328 60.3928 187.525 60.0088 187.92C59.6354 188.304 59.4488 188.837 59.4488 189.52C59.4488 190.203 59.6354 190.747 60.0088 191.152C60.3928 191.547 60.8568 191.744 61.4008 191.744C61.9448 191.744 62.4034 191.547 62.7768 191.152C63.1608 190.757 63.3528 190.219 63.3528 189.536ZM71.7642 186.56C72.0842 186.069 72.4842 185.685 72.9642 185.408C73.4442 185.12 73.9775 184.976 74.5642 184.976V187.872H73.8122C73.1295 187.872 72.6175 188.021 72.2762 188.32C71.9348 188.608 71.7642 189.12 71.7642 189.856V194H69.0282V185.072H71.7642V186.56ZM81.3119 187.344H79.8399V194H77.1039V187.344H76.1119V185.072H77.1039V184.816C77.1039 183.717 77.4186 182.885 78.0479 182.32C78.6772 181.744 79.5999 181.456 80.8159 181.456C81.0186 181.456 81.1679 181.461 81.2639 181.472V183.792C80.7412 183.76 80.3732 183.835 80.1599 184.016C79.9466 184.197 79.8399 184.523 79.8399 184.992V185.072H81.3119V187.344ZM83.0135 189.52C83.0135 188.603 83.1842 187.797 83.5255 187.104C83.8775 186.411 84.3522 185.877 84.9495 185.504C85.5469 185.131 86.2135 184.944 86.9495 184.944C87.5789 184.944 88.1282 185.072 88.5975 185.328C89.0775 185.584 89.4455 185.92 89.7015 186.336V185.072H92.4375V194H89.7015V192.736C89.4349 193.152 89.0615 193.488 88.5815 193.744C88.1122 194 87.5629 194.128 86.9335 194.128C86.2082 194.128 85.5469 193.941 84.9495 193.568C84.3522 193.184 83.8775 192.645 83.5255 191.952C83.1842 191.248 83.0135 190.437 83.0135 189.52ZM89.7015 189.536C89.7015 188.853 89.5095 188.315 89.1255 187.92C88.7522 187.525 88.2935 187.328 87.7495 187.328C87.2055 187.328 86.7415 187.525 86.3575 187.92C85.9842 188.304 85.7975 188.837 85.7975 189.52C85.7975 190.203 85.9842 190.747 86.3575 191.152C86.7415 191.547 87.2055 191.744 87.7495 191.744C88.2935 191.744 88.7522 191.547 89.1255 191.152C89.5095 190.757 89.7015 190.219 89.7015 189.536ZM98.1129 182.16V194H95.3769V182.16H98.1129ZM103.792 182.16V194H101.056V182.16H103.792ZM115.15 189.392C115.15 189.648 115.134 189.915 115.102 190.192H108.91C108.953 190.747 109.129 191.173 109.438 191.472C109.758 191.76 110.148 191.904 110.606 191.904C111.289 191.904 111.764 191.616 112.03 191.04H114.942C114.793 191.627 114.521 192.155 114.126 192.624C113.742 193.093 113.257 193.461 112.67 193.728C112.084 193.995 111.428 194.128 110.702 194.128C109.828 194.128 109.049 193.941 108.366 193.568C107.684 193.195 107.15 192.661 106.766 191.968C106.382 191.275 106.19 190.464 106.19 189.536C106.19 188.608 106.377 187.797 106.75 187.104C107.134 186.411 107.668 185.877 108.35 185.504C109.033 185.131 109.817 184.944 110.702 184.944C111.566 184.944 112.334 185.125 113.006 185.488C113.678 185.851 114.201 186.368 114.574 187.04C114.958 187.712 115.15 188.496 115.15 189.392ZM112.35 188.672C112.35 188.203 112.19 187.829 111.87 187.552C111.55 187.275 111.15 187.136 110.67 187.136C110.212 187.136 109.822 187.269 109.502 187.536C109.193 187.803 109.001 188.181 108.926 188.672H112.35Z" fill="#393A32"/>
<path d="M127.909 115.368C129.113 114.203 130.345 112.428 130.345 110.044C130.345 107.61 128.803 105.798 127.109 104.612C128.434 102.947 129.364 100.708 128.39 98.346C127.542 96.2887 125.662 95.0256 123.932 94.2678C124.504 93.4914 124.879 92.5881 125.026 91.635C125.159 90.6219 125.03 89.0989 123.655 87.5956C121.56 85.3055 118.953 84.6747 117.116 84.5516L116.911 79.9432C116.889 79.4512 116.686 78.9845 116.342 78.6327C115.997 78.2809 115.535 78.0686 115.043 78.0366C110.546 77.743 105.838 79.2208 101.432 82.309C97.4365 85.1108 94.1456 88.9366 92.1659 93.0815C88.8128 100.102 85.15 104.039 82.1132 103.899C80.89 103.84 79.5089 101.888 77.7603 99.4165C76.2737 97.3153 74.4235 94.7001 71.8237 91.9942C61.6243 81.3792 49.3037 80.4614 48.7843 80.4276C48.6939 80.4216 48.6033 80.4219 48.5131 80.4284C47.9624 80.4672 43.0714 80.895 40.9327 83.8842C39.3112 86.1504 40.7263 88.4958 41.6628 90.0477C41.9119 90.442 42.1386 90.85 42.342 91.2698C41.9734 91.5567 41.4376 91.7641 40.8357 91.9971C39.5158 92.5081 37.7081 93.2081 36.7306 95.3049C35.7151 97.4833 36.5351 100.004 37.3397 101.653C35.9709 102.739 34.1501 104.518 33.4983 106.68C32.7312 109.225 34.1107 111.688 35.2677 113.191C34.306 114.468 33.138 116.454 33.0076 118.682C32.8492 121.389 35.2016 123.557 37.1327 124.868C36.123 126.257 35.1126 128.223 35.3526 130.331C35.764 133.944 38.8931 136.352 39.2486 136.615C39.4774 136.784 39.7396 136.903 40.0178 136.962C43.6005 137.628 47.2545 137.825 50.8881 137.55C58.9644 136.953 65.5358 134.005 69.8918 129.023C78.8958 118.725 80.4509 118.586 82.6032 118.394L82.8294 118.374C84.329 118.239 90.3603 121.495 97.4984 129.653C102.643 135.532 113.111 137.675 120.357 137.675C122.421 137.675 124.224 137.501 125.568 137.19C126.348 137.01 128.722 136.46 129.245 134.52C129.889 132.132 128.579 129.504 127.345 127.697C129.008 126.704 130.946 125.05 131.348 122.607C131.803 119.848 129.669 117.105 127.909 115.368ZM127.402 121.956C127.163 123.402 124.723 124.682 123.584 125.073C123.268 125.18 122.984 125.364 122.757 125.609C122.53 125.854 122.369 126.151 122.286 126.475C122.204 126.798 122.203 127.137 122.285 127.46C122.367 127.784 122.528 128.081 122.754 128.327C123.926 129.597 125.367 131.806 125.421 133.083C124.137 133.61 120.003 134.044 114.628 133.235C108.276 132.279 103.129 130.014 100.509 127.019C97.2193 123.259 93.7647 120.051 90.5185 117.742C87.3722 115.503 84.8064 114.372 82.8813 114.372C82.7386 114.372 82.5992 114.378 82.4634 114.39L82.2477 114.41C78.7608 114.721 76.4935 115.395 66.8805 126.39C58.8221 135.607 44.1049 133.612 41.318 133.136C40.73 132.605 39.4921 131.329 39.3269 129.878C39.1719 128.517 40.7771 126.577 41.5744 125.855C41.8194 125.636 42.0067 125.36 42.1194 125.051C42.2322 124.742 42.2671 124.41 42.221 124.084C42.1749 123.759 42.0492 123.449 41.8551 123.184C41.661 122.919 41.4044 122.705 41.1081 122.563C39.2047 121.647 36.9481 119.815 37.0008 118.916C37.1043 117.146 38.7106 115.199 39.3164 114.603C39.5106 114.414 39.6644 114.188 39.7686 113.938C39.8727 113.687 39.9249 113.419 39.9222 113.148C39.9194 112.877 39.8616 112.61 39.7524 112.362C39.6431 112.114 39.4847 111.891 39.2866 111.706C38.436 110.913 36.9883 108.962 37.3282 107.834C37.8266 106.181 40.2173 104.429 41.012 103.948C41.248 103.806 41.4523 103.617 41.612 103.393C41.7717 103.169 41.8834 102.914 41.9401 102.645C41.9968 102.376 41.9974 102.097 41.9417 101.828C41.886 101.558 41.7752 101.303 41.6164 101.078C40.8372 99.9758 39.94 97.8874 40.3561 96.9948C40.6277 96.412 41.0995 96.1844 42.28 95.7274C43.3237 95.3233 44.6227 94.8204 45.6303 93.6321C47.3055 91.6567 45.9171 89.3559 45.0876 87.9811C44.7825 87.4756 44.2236 86.5493 44.2044 86.1862C45.0175 85.0936 47.4584 84.5475 48.6556 84.4305C49.9415 84.554 60.3406 85.8165 68.9394 94.7657C71.3314 97.2551 73.0121 99.6307 74.4949 101.727C76.8727 105.088 78.7507 107.742 81.9212 107.894C82.0474 107.9 82.1728 107.904 82.2985 107.904C87.0903 107.903 91.6229 103.499 95.7753 94.8053C98.7248 88.6299 105.766 82.5194 113 82.0315L113.208 86.6993C113.221 86.9857 113.295 87.266 113.426 87.5212C113.556 87.7765 113.74 88.0006 113.965 88.1785C114.19 88.3565 114.45 88.484 114.729 88.5524C115.007 88.6209 115.297 88.6286 115.579 88.5753C115.609 88.5696 118.662 88.0637 120.704 90.2956C121.108 90.7374 121.075 90.9969 121.06 91.1079C120.957 91.9182 119.781 93.0262 119.026 93.5159C118.683 93.7346 118.415 94.0529 118.257 94.4282C118.099 94.8036 118.06 95.2181 118.144 95.6164C118.228 96.0147 118.432 96.3778 118.728 96.6572C119.024 96.9365 119.399 97.1189 119.801 97.1799C121.117 97.3795 124.045 98.2997 124.692 99.8706C125.244 101.209 123.151 103.041 122.566 103.455C122.264 103.666 122.025 103.958 121.878 104.296C121.73 104.635 121.679 105.008 121.731 105.374C121.782 105.74 121.933 106.084 122.168 106.37C122.403 106.655 122.712 106.869 123.062 106.99C123.913 107.284 126.345 108.478 126.345 110.044C126.345 112.134 123.85 113.459 123.836 113.467C123.533 113.62 123.274 113.847 123.083 114.128C122.893 114.409 122.777 114.733 122.746 115.071C122.715 115.409 122.771 115.749 122.908 116.06C123.046 116.37 123.259 116.64 123.53 116.845C125.508 118.345 127.584 120.849 127.402 121.956Z" fill="#393A32"/>
<path d="M103.03 118.218C99.2818 115.011 95.3203 112.73 91.2054 111.391C94.9267 110.16 97.4725 108.222 100.104 106.216C100.547 105.879 100.995 105.537 101.456 105.194C101.881 104.877 102.163 104.404 102.239 103.88C102.316 103.355 102.181 102.822 101.864 102.397C101.548 101.971 101.075 101.689 100.551 101.612C100.026 101.535 99.4926 101.67 99.0672 101.986C98.5942 102.338 98.134 102.689 97.6796 103.035C93.5123 106.211 90.2207 108.72 81.8075 108.72C72.7109 108.72 65.4371 102.415 65.3103 102.304C64.9136 101.953 64.394 101.774 63.8655 101.806C63.3369 101.838 62.8426 102.078 62.4908 102.474C62.139 102.87 61.9585 103.389 61.9889 103.917C62.0193 104.446 62.2581 104.941 62.6529 105.294C65.8757 107.98 69.5752 110.036 73.5583 111.354C73.2494 111.451 72.9407 111.552 72.6325 111.659C70.3212 112.455 68.1148 113.529 66.0615 114.855C63.1162 116.782 62.9486 117.635 62.8586 118.094C62.7677 118.556 62.8433 119.036 63.072 119.449C63.3006 119.861 63.6677 120.18 64.1083 120.348C64.5489 120.516 65.0347 120.523 65.48 120.368C65.9253 120.212 66.3014 119.905 66.542 119.499C67.2137 118.836 71.3024 115.673 77.6174 114.445C85.646 112.884 93.3212 115.176 100.43 121.257C100.629 121.428 100.86 121.558 101.11 121.639C101.36 121.72 101.623 121.752 101.885 121.731C102.147 121.711 102.402 121.639 102.636 121.52C102.87 121.401 103.079 121.237 103.25 121.038C103.42 120.838 103.55 120.607 103.631 120.357C103.713 120.107 103.744 119.844 103.724 119.582C103.703 119.32 103.632 119.065 103.513 118.831C103.394 118.597 103.23 118.389 103.03 118.218L103.03 118.218Z" fill="#393A32"/>
</svg>
