<svg width="158" height="224" viewBox="0 0 158 224" fill="none" xmlns="http://www.w3.org/2000/svg">
<rect width="158" height="224" rx="5" fill="#FFD300"/>
<mask id="path-2-inside-1" fill="white">
<rect x="9" y="9" width="140" height="207" rx="2"/>
</mask>
<rect x="9" y="9" width="140" height="207" rx="2" fill="white" stroke="#2179B9" stroke-width="14" mask="url(#path-2-inside-1)"/>
<path d="M40.7474 34.616H49.2794V37.352H44.6174V39.854H48.9374V42.122H44.6174V47H40.7474V34.616ZM55.5022 47.144C54.7222 47.144 53.9902 46.94 53.3062 46.532C52.6342 46.112 52.0942 45.548 51.6862 44.84C51.2782 44.12 51.0742 43.322 51.0742 42.446C51.0742 41.582 51.2782 40.802 51.6862 40.106C52.0942 39.398 52.6402 38.846 53.3242 38.45C54.0082 38.054 54.7342 37.856 55.5022 37.856C56.1262 37.856 56.7022 38.03 57.2302 38.378C57.7702 38.726 58.1782 39.248 58.4542 39.944V37.856H62.2342V47H58.4542V45.326C57.8542 46.538 56.8702 47.144 55.5022 47.144ZM56.6722 44.3C57.1522 44.3 57.5602 44.132 57.8962 43.796C58.2442 43.448 58.4302 43.04 58.4542 42.572V42.428C58.4302 41.948 58.2382 41.54 57.8782 41.204C57.5302 40.868 57.1282 40.7 56.6722 40.7C56.1682 40.7 55.7362 40.88 55.3762 41.24C55.0282 41.588 54.8542 42.008 54.8542 42.5C54.8542 43.004 55.0342 43.43 55.3942 43.778C55.7542 44.126 56.1802 44.3 56.6722 44.3ZM65.1374 38.108H68.9354V39.944C69.2114 39.236 69.5834 38.714 70.0514 38.378C70.5314 38.03 71.0894 37.856 71.7254 37.856L72.2474 40.79C71.1074 40.79 70.2674 40.916 69.7274 41.168C69.1994 41.408 68.9354 41.792 68.9354 42.32V47H65.1374V38.108ZM74.9346 40.214H73.8006V37.982H74.9346V37.226C74.9346 35.894 75.2526 34.886 75.8886 34.202C76.5366 33.518 77.4366 33.176 78.5886 33.176C79.5126 33.176 80.3706 33.41 81.1626 33.878L81.0366 36.308C80.3406 36.032 79.7586 35.894 79.2906 35.894C78.9306 35.894 78.6546 35.984 78.4626 36.164C78.2706 36.332 78.1746 36.578 78.1746 36.902C78.1746 37.214 78.2766 37.574 78.4806 37.982H81.0006V40.214H78.7326V47H74.9346V40.214ZM86.92 47.144C86.14 47.144 85.408 46.94 84.724 46.532C84.052 46.112 83.512 45.548 83.104 44.84C82.696 44.12 82.492 43.322 82.492 42.446C82.492 41.582 82.696 40.802 83.104 40.106C83.512 39.398 84.058 38.846 84.742 38.45C85.426 38.054 86.152 37.856 86.92 37.856C87.544 37.856 88.12 38.03 88.648 38.378C89.188 38.726 89.596 39.248 89.872 39.944V37.856H93.652V47H89.872V45.326C89.272 46.538 88.288 47.144 86.92 47.144ZM88.09 44.3C88.57 44.3 88.978 44.132 89.314 43.796C89.662 43.448 89.848 43.04 89.872 42.572V42.428C89.848 41.948 89.656 41.54 89.296 41.204C88.948 40.868 88.546 40.7 88.09 40.7C87.586 40.7 87.154 40.88 86.794 41.24C86.446 41.588 86.272 42.008 86.272 42.5C86.272 43.004 86.452 43.43 86.812 43.778C87.172 44.126 87.598 44.3 88.09 44.3ZM99.7232 47.144C98.7032 47.144 97.9112 46.826 97.3472 46.19C96.7952 45.542 96.5192 44.66 96.5192 43.544V35.138L100.317 34.58V43.274C100.317 43.61 100.395 43.856 100.551 44.012C100.719 44.156 101.007 44.228 101.415 44.228C101.715 44.228 102.009 44.156 102.297 44.012L102.423 46.532C101.619 46.94 100.719 47.144 99.7232 47.144ZM107.606 47.144C106.586 47.144 105.794 46.826 105.23 46.19C104.678 45.542 104.402 44.66 104.402 43.544V35.138L108.2 34.58V43.274C108.2 43.61 108.278 43.856 108.434 44.012C108.602 44.156 108.89 44.228 109.298 44.228C109.598 44.228 109.892 44.156 110.18 44.012L110.306 46.532C109.502 46.94 108.602 47.144 107.606 47.144ZM116.983 47.144C115.987 47.144 115.099 46.946 114.319 46.55C113.551 46.142 112.951 45.59 112.519 44.894C112.087 44.186 111.871 43.388 111.871 42.5C111.871 41.588 112.093 40.778 112.537 40.07C112.981 39.362 113.581 38.816 114.337 38.432C115.093 38.048 115.933 37.856 116.857 37.856C117.745 37.856 118.501 38.054 119.125 38.45C119.761 38.834 120.235 39.362 120.547 40.034C120.859 40.694 121.015 41.438 121.015 42.266C121.015 42.482 121.003 42.638 120.979 42.734L115.579 43.436C115.723 43.856 115.957 44.162 116.281 44.354C116.605 44.534 117.031 44.624 117.559 44.624C118.375 44.624 119.257 44.414 120.205 43.994L120.655 46.406C119.539 46.898 118.315 47.144 116.983 47.144ZM118.225 41.168C118.033 40.412 117.577 40.034 116.857 40.034C116.425 40.034 116.083 40.196 115.831 40.52C115.579 40.844 115.447 41.264 115.435 41.78L118.225 41.168Z" fill="#393A32"/>
<path d="M57.2394 164.476H56.4834V162.988H57.2394V162.484C57.2394 161.596 57.4514 160.924 57.8754 160.468C58.3074 160.012 58.9074 159.784 59.6754 159.784C60.2914 159.784 60.8634 159.94 61.3914 160.252L61.3074 161.872C60.8434 161.688 60.4554 161.596 60.1434 161.596C59.9034 161.596 59.7194 161.656 59.5914 161.776C59.4634 161.888 59.3994 162.052 59.3994 162.268C59.3994 162.476 59.4674 162.716 59.6034 162.988H61.2834V164.476H59.7714V169H57.2394V164.476ZM64.7497 169.096C64.2297 169.096 63.7417 168.96 63.2857 168.688C62.8377 168.408 62.4777 168.032 62.2057 167.56C61.9337 167.08 61.7977 166.548 61.7977 165.964C61.7977 165.388 61.9337 164.868 62.2057 164.404C62.4777 163.932 62.8417 163.564 63.2977 163.3C63.7537 163.036 64.2377 162.904 64.7497 162.904C65.1657 162.904 65.5497 163.02 65.9017 163.252C66.2617 163.484 66.5337 163.832 66.7177 164.296V162.904H69.2377V169H66.7177V167.884C66.3177 168.692 65.6617 169.096 64.7497 169.096ZM65.5297 167.2C65.8497 167.2 66.1217 167.088 66.3457 166.864C66.5777 166.632 66.7017 166.36 66.7177 166.048V165.952C66.7017 165.632 66.5737 165.36 66.3337 165.136C66.1017 164.912 65.8337 164.8 65.5297 164.8C65.1937 164.8 64.9057 164.92 64.6657 165.16C64.4337 165.392 64.3177 165.672 64.3177 166C64.3177 166.336 64.4377 166.62 64.6777 166.852C64.9177 167.084 65.2017 167.2 65.5297 167.2ZM70.6931 163.072H73.2251V164.296C73.4091 163.824 73.6571 163.476 73.9691 163.252C74.2891 163.02 74.6611 162.904 75.0851 162.904L75.4331 164.86C74.6731 164.86 74.1131 164.944 73.7531 165.112C73.4011 165.272 73.2251 165.528 73.2251 165.88V169H70.6931V163.072ZM76.7446 164.476H75.9886V162.988H76.7446V162.484C76.7446 161.596 76.9566 160.924 77.3806 160.468C77.8126 160.012 78.4126 159.784 79.1806 159.784C79.7966 159.784 80.3686 159.94 80.8966 160.252L80.8126 161.872C80.3486 161.688 79.9606 161.596 79.6486 161.596C79.4086 161.596 79.2246 161.656 79.0966 161.776C78.9686 161.888 78.9046 162.052 78.9046 162.268C78.9046 162.476 78.9726 162.716 79.1086 162.988H80.7886V164.476H79.2766V169H76.7446V164.476ZM84.2548 169.096C83.7348 169.096 83.2468 168.96 82.7908 168.688C82.3428 168.408 81.9828 168.032 81.7108 167.56C81.4388 167.08 81.3028 166.548 81.3028 165.964C81.3028 165.388 81.4388 164.868 81.7108 164.404C81.9828 163.932 82.3468 163.564 82.8028 163.3C83.2588 163.036 83.7428 162.904 84.2548 162.904C84.6708 162.904 85.0548 163.02 85.4068 163.252C85.7668 163.484 86.0388 163.832 86.2228 164.296V162.904H88.7428V169H86.2228V167.884C85.8228 168.692 85.1668 169.096 84.2548 169.096ZM85.0348 167.2C85.3548 167.2 85.6268 167.088 85.8508 166.864C86.0828 166.632 86.2068 166.36 86.2228 166.048V165.952C86.2068 165.632 86.0788 165.36 85.8388 165.136C85.6068 164.912 85.3388 164.8 85.0348 164.8C84.6988 164.8 84.4108 164.92 84.1708 165.16C83.9388 165.392 83.8228 165.672 83.8228 166C83.8228 166.336 83.9428 166.62 84.1828 166.852C84.4228 167.084 84.7068 167.2 85.0348 167.2ZM92.3103 169.096C91.6303 169.096 91.1023 168.884 90.7263 168.46C90.3583 168.028 90.1743 167.44 90.1743 166.696V161.092L92.7063 160.72V166.516C92.7063 166.74 92.7583 166.904 92.8623 167.008C92.9743 167.104 93.1663 167.152 93.4383 167.152C93.6383 167.152 93.8343 167.104 94.0263 167.008L94.1103 168.688C93.5743 168.96 92.9743 169.096 92.3103 169.096ZM97.0854 169.096C96.4054 169.096 95.8774 168.884 95.5014 168.46C95.1334 168.028 94.9494 167.44 94.9494 166.696V161.092L97.4814 160.72V166.516C97.4814 166.74 97.5334 166.904 97.6374 167.008C97.7494 167.104 97.9414 167.152 98.2134 167.152C98.4134 167.152 98.6094 167.104 98.8014 167.008L98.8854 168.688C98.3494 168.96 97.7494 169.096 97.0854 169.096ZM102.857 169.096C102.193 169.096 101.601 168.964 101.081 168.7C100.569 168.428 100.169 168.06 99.8806 167.596C99.5926 167.124 99.4486 166.592 99.4486 166C99.4486 165.392 99.5966 164.852 99.8926 164.38C100.189 163.908 100.589 163.544 101.093 163.288C101.597 163.032 102.157 162.904 102.773 162.904C103.365 162.904 103.869 163.036 104.285 163.3C104.709 163.556 105.025 163.908 105.233 164.356C105.441 164.796 105.545 165.292 105.545 165.844C105.545 165.988 105.537 166.092 105.521 166.156L101.921 166.624C102.017 166.904 102.173 167.108 102.389 167.236C102.605 167.356 102.889 167.416 103.241 167.416C103.785 167.416 104.373 167.276 105.005 166.996L105.305 168.604C104.561 168.932 103.745 169.096 102.857 169.096ZM103.685 165.112C103.557 164.608 103.253 164.356 102.773 164.356C102.485 164.356 102.257 164.464 102.089 164.68C101.921 164.896 101.833 165.176 101.825 165.52L103.685 165.112Z" fill="#2179B9"/>
<path d="M40.9485 184.672C40.9485 183.752 41.0005 183.092 41.1045 182.692C41.2165 182.284 41.4365 182.004 41.7645 181.852C42.1005 181.7 42.6485 181.624 43.4085 181.624V183.028C43.0005 183.028 42.7325 183.036 42.6045 183.052C42.4765 183.068 42.3925 183.116 42.3525 183.196C42.3125 183.276 42.2925 183.428 42.2925 183.652H43.4085V185.896H40.9485V184.672ZM44.0685 184.672C44.0685 183.752 44.1205 183.092 44.2245 182.692C44.3365 182.284 44.5565 182.004 44.8845 181.852C45.2205 181.7 45.7685 181.624 46.5285 181.624V183.028C46.1205 183.028 45.8525 183.036 45.7245 183.052C45.5965 183.068 45.5125 183.116 45.4725 183.196C45.4325 183.276 45.4125 183.428 45.4125 183.652H46.5285V185.896H44.0685V184.672ZM52.4288 190.096C51.5088 190.096 50.8568 189.692 50.4728 188.884V190H47.9288V182.092L50.4728 181.72V185.116C50.6728 184.692 50.9328 184.384 51.2528 184.192C51.5728 184 51.9608 183.904 52.4168 183.904C52.9528 183.904 53.4448 184.04 53.8928 184.312C54.3488 184.576 54.7048 184.944 54.9608 185.416C55.2248 185.888 55.3568 186.416 55.3568 187C55.3568 187.576 55.2208 188.1 54.9488 188.572C54.6848 189.044 54.3248 189.416 53.8688 189.688C53.4208 189.96 52.9408 190.096 52.4288 190.096ZM51.6608 188.2C51.9888 188.2 52.2688 188.08 52.5008 187.84C52.7328 187.6 52.8488 187.32 52.8488 187C52.8488 186.664 52.7288 186.38 52.4888 186.148C52.2568 185.916 51.9808 185.8 51.6608 185.8C51.3328 185.8 51.0528 185.916 50.8208 186.148C50.5888 186.372 50.4728 186.64 50.4728 186.952V187C50.4728 187.336 50.5888 187.62 50.8208 187.852C51.0608 188.084 51.3408 188.2 51.6608 188.2ZM59.704 190.096C59.072 190.096 58.508 189.984 58.012 189.76C57.524 189.536 57.144 189.22 56.872 188.812C56.6 188.404 56.464 187.94 56.464 187.42V183.988H58.936V187.384C58.936 187.648 59.008 187.856 59.152 188.008C59.304 188.152 59.492 188.224 59.716 188.224C59.932 188.224 60.108 188.152 60.244 188.008C60.388 187.856 60.46 187.648 60.46 187.384V183.988H62.884V187.42C62.884 187.948 62.748 188.416 62.476 188.824C62.212 189.224 61.84 189.536 61.36 189.76C60.88 189.984 60.328 190.096 59.704 190.096ZM66.9151 190.096C66.2111 190.096 65.6631 189.896 65.2711 189.496C64.8791 189.088 64.6831 188.528 64.6831 187.816V185.476H63.9151V183.988H64.8631L65.9791 181.72H67.1911V183.988H68.5831V185.476H67.1911V187.516C67.1911 187.716 67.2551 187.872 67.3831 187.984C67.5111 188.096 67.6911 188.152 67.9231 188.152C68.1391 188.152 68.3351 188.104 68.5111 188.008L68.6071 189.688C68.4071 189.808 68.1471 189.908 67.8271 189.988C67.5151 190.06 67.2111 190.096 66.9151 190.096ZM72.37 190.096C71.666 190.096 71.118 189.896 70.726 189.496C70.334 189.088 70.138 188.528 70.138 187.816V185.476H69.37V183.988H70.318L71.434 181.72H72.646V183.988H74.038V185.476H72.646V187.516C72.646 187.716 72.71 187.872 72.838 187.984C72.966 188.096 73.146 188.152 73.378 188.152C73.594 188.152 73.79 188.104 73.966 188.008L74.062 189.688C73.862 189.808 73.602 189.908 73.282 189.988C72.97 190.06 72.666 190.096 72.37 190.096ZM78.1876 190.096C77.5236 190.096 76.9316 189.964 76.4116 189.7C75.8996 189.428 75.4996 189.06 75.2116 188.596C74.9236 188.124 74.7796 187.592 74.7796 187C74.7796 186.392 74.9276 185.852 75.2236 185.38C75.5196 184.908 75.9196 184.544 76.4236 184.288C76.9276 184.032 77.4876 183.904 78.1036 183.904C78.6956 183.904 79.1996 184.036 79.6156 184.3C80.0396 184.556 80.3556 184.908 80.5636 185.356C80.7716 185.796 80.8756 186.292 80.8756 186.844C80.8756 186.988 80.8676 187.092 80.8516 187.156L77.2516 187.624C77.3476 187.904 77.5036 188.108 77.7196 188.236C77.9356 188.356 78.2196 188.416 78.5716 188.416C79.1156 188.416 79.7036 188.276 80.3356 187.996L80.6356 189.604C79.8916 189.932 79.0756 190.096 78.1876 190.096ZM79.0156 186.112C78.8876 185.608 78.5836 185.356 78.1036 185.356C77.8156 185.356 77.5876 185.464 77.4196 185.68C77.2516 185.896 77.1636 186.176 77.1556 186.52L79.0156 186.112ZM81.9876 184.072H84.5196V185.296C84.7036 184.824 84.9516 184.476 85.2636 184.252C85.5836 184.02 85.9556 183.904 86.3796 183.904L86.7276 185.86C85.9676 185.86 85.4076 185.944 85.0476 186.112C84.6956 186.272 84.5196 186.528 84.5196 186.88V190H81.9876V184.072ZM94.807 190.192C94.151 190.192 93.635 189.976 93.259 189.544C92.883 189.112 92.695 188.524 92.695 187.78V182.92C92.383 182.776 92.011 182.704 91.579 182.704C90.907 182.704 90.571 183.024 90.571 183.664V183.988H92.083V185.476H90.571V190H88.039V185.476H87.283V183.988H88.039V183.58C88.039 182.676 88.335 182.024 88.927 181.624C89.519 181.216 90.391 181.012 91.543 181.012C92.743 181.012 93.971 181.244 95.227 181.708V187.612C95.227 188.036 95.415 188.248 95.791 188.248C95.967 188.248 96.139 188.2 96.307 188.104L96.451 189.772C95.931 190.052 95.383 190.192 94.807 190.192ZM99.4272 190.096C98.7552 190.096 98.2312 189.88 97.8552 189.448C97.4792 189.016 97.2912 188.428 97.2912 187.684V183.988H99.8352V187.576C99.8352 187.76 99.8832 187.904 99.9792 188.008C100.083 188.104 100.215 188.152 100.375 188.152C100.535 188.152 100.699 188.104 100.867 188.008L100.999 189.676C100.823 189.812 100.591 189.916 100.303 189.988C100.023 190.06 99.7312 190.096 99.4272 190.096ZM98.5632 183.088C98.1872 183.088 97.8672 182.972 97.6032 182.74C97.3472 182.5 97.2192 182.208 97.2192 181.864C97.2192 181.52 97.3552 181.232 97.6272 181C97.8992 180.768 98.2112 180.652 98.5632 180.652C98.9312 180.652 99.2472 180.772 99.5112 181.012C99.7832 181.252 99.9192 181.536 99.9192 181.864C99.9192 182.216 99.7832 182.508 99.5112 182.74C99.2392 182.972 98.9232 183.088 98.5632 183.088ZM105.046 190.096C104.382 190.096 103.79 189.964 103.27 189.7C102.758 189.428 102.358 189.06 102.07 188.596C101.782 188.124 101.638 187.592 101.638 187C101.638 186.392 101.786 185.852 102.082 185.38C102.378 184.908 102.778 184.544 103.282 184.288C103.786 184.032 104.346 183.904 104.962 183.904C105.554 183.904 106.058 184.036 106.474 184.3C106.898 184.556 107.214 184.908 107.422 185.356C107.63 185.796 107.734 186.292 107.734 186.844C107.734 186.988 107.726 187.092 107.71 187.156L104.11 187.624C104.206 187.904 104.362 188.108 104.578 188.236C104.794 188.356 105.078 188.416 105.43 188.416C105.974 188.416 106.562 188.276 107.194 187.996L107.494 189.604C106.75 189.932 105.934 190.096 105.046 190.096ZM105.874 186.112C105.746 185.608 105.442 185.356 104.962 185.356C104.674 185.356 104.446 185.464 104.278 185.68C104.11 185.896 104.022 186.176 104.014 186.52L105.874 186.112ZM110.922 190.096C110.082 190.096 109.346 189.972 108.714 189.724L108.99 188.296C109.566 188.504 110.126 188.608 110.67 188.608C111.07 188.608 111.27 188.496 111.27 188.272C111.27 188.16 111.21 188.068 111.09 187.996C110.978 187.924 110.762 187.86 110.442 187.804C109.778 187.676 109.298 187.46 109.002 187.156C108.714 186.852 108.57 186.42 108.57 185.86C108.602 185.228 108.854 184.744 109.326 184.408C109.798 184.072 110.442 183.904 111.258 183.904C111.674 183.904 112.03 183.932 112.326 183.988C112.63 184.036 112.906 184.12 113.154 184.24L112.902 185.668C112.67 185.58 112.414 185.512 112.134 185.464C111.862 185.416 111.634 185.392 111.45 185.392C111.178 185.392 110.99 185.42 110.886 185.476C110.782 185.532 110.73 185.608 110.73 185.704C110.73 185.88 110.93 186.004 111.33 186.076C112.058 186.204 112.602 186.428 112.962 186.748C113.322 187.068 113.502 187.504 113.502 188.056C113.502 188.688 113.278 189.188 112.83 189.556C112.39 189.916 111.754 190.096 110.922 190.096ZM114.475 184.612C114.883 184.612 115.151 184.604 115.279 184.588C115.407 184.572 115.491 184.524 115.531 184.444C115.571 184.364 115.591 184.212 115.591 183.988H114.475V181.744H116.935V182.968C116.935 183.888 116.879 184.552 116.767 184.96C116.663 185.36 116.443 185.636 116.107 185.788C115.779 185.94 115.235 186.016 114.475 186.016V184.612ZM117.595 184.612C118.003 184.612 118.271 184.604 118.399 184.588C118.527 184.572 118.611 184.524 118.651 184.444C118.691 184.364 118.711 184.212 118.711 183.988H117.595V181.744H120.055V182.968C120.055 183.888 119.999 184.552 119.887 184.96C119.783 185.36 119.563 185.636 119.227 185.788C118.899 185.94 118.355 186.016 117.595 186.016V184.612Z" fill="#393A32"/>
<rect x="48" y="59.9014" width="65.45" height="0.897773" fill="#082D74"/>
<rect x="59.7808" y="59" width="13.9627" height="3.1422" fill="#3F8D43"/>
<rect x="73.7454" y="59" width="13.9627" height="3.1422" fill="white"/>
<rect x="87.7046" y="59" width="13.9627" height="3.1422" fill="#D12C29"/>
<path d="M123.548 114.863C124.671 113.776 125.82 112.12 125.82 109.896C125.82 107.626 124.382 105.935 122.801 104.828C124.037 103.275 124.905 101.186 123.996 98.9822C123.205 97.0629 121.451 95.8844 119.837 95.1774C120.37 94.4531 120.72 93.6103 120.857 92.7211C120.982 91.7759 120.861 90.3549 119.578 88.9524C117.624 86.8158 115.191 86.2273 113.478 86.1125L113.287 81.813C113.266 81.3539 113.077 80.9185 112.755 80.5903C112.434 80.262 112.002 80.064 111.544 80.0341C107.348 79.7602 102.955 81.1389 98.8455 84.0202C95.1174 86.6342 92.047 90.2035 90.2001 94.0706C87.0717 100.621 83.6544 104.294 80.8211 104.163C79.68 104.108 78.3914 102.287 76.7601 99.9809C75.3731 98.0206 73.6469 95.5807 71.2214 93.0562C61.7056 83.1527 50.2109 82.2964 49.7262 82.2649C49.642 82.2593 49.5575 82.2595 49.4732 82.2656C48.9595 82.3019 44.3963 82.7009 42.401 85.4898C40.8882 87.6041 42.2084 89.7922 43.0821 91.2402C43.3145 91.6081 43.5261 91.9887 43.7158 92.3803C43.3719 92.648 42.872 92.8415 42.3105 93.0589C41.079 93.5356 39.3925 94.1887 38.4806 96.145C37.5331 98.1773 38.2982 100.529 39.0488 102.067C37.7717 103.081 36.073 104.741 35.4649 106.758C34.7492 109.132 36.0363 111.43 37.1157 112.832C36.2185 114.024 35.1287 115.876 35.0071 117.955C34.8593 120.481 37.0541 122.503 38.8557 123.727C37.9137 125.022 36.971 126.857 37.1949 128.823C37.5788 132.194 40.4981 134.441 40.8298 134.686C41.0432 134.844 41.2879 134.954 41.5474 135.01C44.89 135.631 48.299 135.815 51.689 135.558C59.2241 135.002 65.355 132.251 69.4189 127.603C77.8194 117.995 79.2703 117.866 81.2783 117.686L81.4893 117.667C82.8884 117.542 88.5155 120.579 95.1751 128.19C99.9745 133.675 109.741 135.675 116.502 135.675C118.427 135.675 120.11 135.513 121.363 135.223C122.091 135.054 124.306 134.541 124.794 132.731C125.395 130.504 124.173 128.052 123.022 126.366C124.573 125.439 126.38 123.896 126.756 121.617C127.181 119.043 125.189 116.484 123.548 114.863ZM123.074 121.01C122.852 122.359 120.575 123.553 119.512 123.918C119.218 124.018 118.952 124.19 118.741 124.418C118.529 124.646 118.378 124.924 118.301 125.225C118.224 125.527 118.224 125.843 118.3 126.145C118.377 126.447 118.527 126.725 118.738 126.953C119.831 128.138 121.176 130.2 121.226 131.391C120.028 131.883 116.172 132.287 111.157 131.532C105.23 130.641 100.429 128.527 97.9837 125.733C94.9147 122.226 91.6917 119.233 88.6631 117.078C85.7277 114.99 83.3339 113.934 81.5378 113.934C81.4046 113.934 81.2746 113.94 81.1479 113.951L80.9467 113.969C77.6935 114.26 75.5782 114.889 66.6095 125.147C59.0912 133.745 45.3605 131.885 42.7604 131.44C42.2118 130.945 41.0569 129.754 40.9028 128.401C40.7582 127.131 42.2558 125.321 42.9997 124.647C43.2283 124.443 43.4029 124.185 43.5082 123.897C43.6134 123.609 43.6459 123.299 43.6029 122.995C43.5599 122.692 43.4426 122.403 43.2615 122.155C43.0804 121.908 42.8411 121.709 42.5646 121.576C40.7888 120.721 38.6835 119.013 38.7326 118.173C38.8292 116.522 40.3279 114.706 40.893 114.149C41.0742 113.973 41.2177 113.762 41.3149 113.529C41.412 113.295 41.4608 113.045 41.4582 112.792C41.4556 112.539 41.4017 112.29 41.2997 112.059C41.1978 111.827 41.05 111.619 40.8652 111.447C40.0716 110.706 38.7209 108.887 39.0381 107.835C39.5031 106.292 41.7335 104.657 42.475 104.208C42.6952 104.076 42.8857 103.9 43.0347 103.691C43.1837 103.482 43.2879 103.244 43.3409 102.993C43.3938 102.742 43.3943 102.482 43.3423 102.231C43.2904 101.979 43.187 101.741 43.0389 101.531C42.3119 100.503 41.4749 98.5543 41.863 97.7216C42.1165 97.1778 42.5566 96.9655 43.658 96.5392C44.6317 96.1621 45.8436 95.6929 46.7837 94.5843C48.3466 92.7413 47.0513 90.5947 46.2774 89.3121C45.9927 88.8405 45.4713 87.9762 45.4534 87.6375C46.212 86.6181 48.4893 86.1086 49.6062 85.9995C50.8059 86.1147 60.508 87.2925 68.5304 95.6419C70.762 97.9645 72.3301 100.181 73.7136 102.136C75.9319 105.272 77.6841 107.748 80.6421 107.891C80.7598 107.896 80.8768 107.899 80.994 107.899C85.4646 107.899 89.6934 103.79 93.5675 95.6789C96.3193 89.9174 102.888 84.2165 109.638 83.7613L109.832 88.1162C109.844 88.3834 109.913 88.6449 110.035 88.883C110.157 89.1212 110.328 89.3303 110.538 89.4963C110.748 89.6623 110.991 89.7812 111.251 89.8451C111.51 89.9089 111.781 89.9162 112.044 89.8664C112.072 89.8611 114.92 89.3892 116.825 91.4714C117.202 91.8836 117.171 92.1258 117.158 92.2293C117.061 92.9853 115.965 94.019 115.26 94.4759C114.94 94.6799 114.689 94.9769 114.542 95.3271C114.395 95.6772 114.358 96.064 114.437 96.4356C114.516 96.8071 114.706 97.1459 114.982 97.4066C115.258 97.6672 115.607 97.8374 115.983 97.8943C117.211 98.0805 119.942 98.939 120.546 100.405C121.061 101.653 119.108 103.363 118.563 103.748C118.28 103.946 118.058 104.218 117.92 104.534C117.783 104.85 117.735 105.198 117.783 105.539C117.831 105.88 117.972 106.202 118.191 106.468C118.411 106.734 118.699 106.934 119.025 107.047C119.82 107.321 122.088 108.435 122.088 109.896C122.088 111.846 119.76 113.082 119.747 113.089C119.465 113.232 119.223 113.444 119.045 113.706C118.867 113.968 118.759 114.271 118.73 114.586C118.702 114.902 118.754 115.219 118.882 115.509C119.01 115.798 119.209 116.05 119.462 116.242C121.307 117.641 123.244 119.977 123.074 121.01Z" fill="#1A1A1A"/>
<path d="M100.336 117.522C96.839 114.53 93.143 112.402 89.3039 111.153C92.7759 110.005 95.151 108.196 97.6063 106.325C98.0194 106.01 98.4378 105.691 98.8679 105.371C99.2642 105.075 99.5268 104.634 99.5982 104.145C99.6695 103.656 99.5436 103.158 99.2483 102.761C98.9529 102.365 98.5121 102.101 98.0228 102.03C97.5335 101.958 97.0357 102.083 96.6388 102.378C96.1975 102.707 95.7681 103.034 95.3442 103.357C91.4562 106.32 88.3852 108.661 80.536 108.661C72.0491 108.661 65.2629 102.779 65.1446 102.675C64.7745 102.348 64.2897 102.181 63.7966 102.21C63.3035 102.24 62.8422 102.464 62.514 102.833C62.1858 103.203 62.0174 103.687 62.0458 104.18C62.0742 104.673 62.2969 105.135 62.6653 105.464C65.6721 107.97 69.1236 109.888 72.8397 111.118C72.5515 111.208 72.2635 111.303 71.976 111.403C69.8196 112.146 67.7611 113.147 65.8454 114.385C63.0975 116.183 62.9412 116.979 62.8572 117.406C62.7724 117.838 62.843 118.286 63.0563 118.67C63.2696 119.055 63.612 119.352 64.0231 119.509C64.4342 119.666 64.8874 119.673 65.3029 119.528C65.7183 119.383 66.0693 119.096 66.2937 118.718C66.9204 118.099 70.7351 115.148 76.6267 114.002C84.1172 112.545 91.2779 114.684 97.9098 120.358C98.096 120.517 98.3118 120.638 98.5448 120.714C98.7778 120.79 99.0234 120.819 99.2677 120.8C99.512 120.781 99.7502 120.714 99.9686 120.603C100.187 120.492 100.381 120.339 100.541 120.153C100.7 119.967 100.821 119.751 100.897 119.518C100.973 119.285 101.002 119.039 100.983 118.795C100.964 118.551 100.897 118.313 100.786 118.094C100.675 117.876 100.522 117.681 100.336 117.522L100.336 117.522Z" fill="#1A1A1A"/>
</svg>
