<svg width="158" height="224" viewBox="0 0 158 224" fill="none" xmlns="http://www.w3.org/2000/svg">
<rect width="158" height="224" rx="5" fill="#FFD300"/>
<mask id="path-2-inside-1" fill="white">
<rect x="9" y="9" width="140" height="207" rx="2"/>
</mask>
<rect x="9" y="9" width="140" height="207" rx="2" fill="white" stroke="#2179B9" stroke-width="14" mask="url(#path-2-inside-1)"/>
<path d="M57.2394 167.476H56.4834V165.988H57.2394V165.484C57.2394 164.596 57.4514 163.924 57.8754 163.468C58.3074 163.012 58.9074 162.784 59.6754 162.784C60.2914 162.784 60.8634 162.94 61.3914 163.252L61.3074 164.872C60.8434 164.688 60.4554 164.596 60.1434 164.596C59.9034 164.596 59.7194 164.656 59.5914 164.776C59.4634 164.888 59.3994 165.052 59.3994 165.268C59.3994 165.476 59.4674 165.716 59.6034 165.988H61.2834V167.476H59.7714V172H57.2394V167.476ZM64.7497 172.096C64.2297 172.096 63.7417 171.96 63.2857 171.688C62.8377 171.408 62.4777 171.032 62.2057 170.56C61.9337 170.08 61.7977 169.548 61.7977 168.964C61.7977 168.388 61.9337 167.868 62.2057 167.404C62.4777 166.932 62.8417 166.564 63.2977 166.3C63.7537 166.036 64.2377 165.904 64.7497 165.904C65.1657 165.904 65.5497 166.02 65.9017 166.252C66.2617 166.484 66.5337 166.832 66.7177 167.296V165.904H69.2377V172H66.7177V170.884C66.3177 171.692 65.6617 172.096 64.7497 172.096ZM65.5297 170.2C65.8497 170.2 66.1217 170.088 66.3457 169.864C66.5777 169.632 66.7017 169.36 66.7177 169.048V168.952C66.7017 168.632 66.5737 168.36 66.3337 168.136C66.1017 167.912 65.8337 167.8 65.5297 167.8C65.1937 167.8 64.9057 167.92 64.6657 168.16C64.4337 168.392 64.3177 168.672 64.3177 169C64.3177 169.336 64.4377 169.62 64.6777 169.852C64.9177 170.084 65.2017 170.2 65.5297 170.2ZM70.6931 166.072H73.2251V167.296C73.4091 166.824 73.6571 166.476 73.9691 166.252C74.2891 166.02 74.6611 165.904 75.0851 165.904L75.4331 167.86C74.6731 167.86 74.1131 167.944 73.7531 168.112C73.4011 168.272 73.2251 168.528 73.2251 168.88V172H70.6931V166.072ZM76.7446 167.476H75.9886V165.988H76.7446V165.484C76.7446 164.596 76.9566 163.924 77.3806 163.468C77.8126 163.012 78.4126 162.784 79.1806 162.784C79.7966 162.784 80.3686 162.94 80.8966 163.252L80.8126 164.872C80.3486 164.688 79.9606 164.596 79.6486 164.596C79.4086 164.596 79.2246 164.656 79.0966 164.776C78.9686 164.888 78.9046 165.052 78.9046 165.268C78.9046 165.476 78.9726 165.716 79.1086 165.988H80.7886V167.476H79.2766V172H76.7446V167.476ZM84.2548 172.096C83.7348 172.096 83.2468 171.96 82.7908 171.688C82.3428 171.408 81.9828 171.032 81.7108 170.56C81.4388 170.08 81.3028 169.548 81.3028 168.964C81.3028 168.388 81.4388 167.868 81.7108 167.404C81.9828 166.932 82.3468 166.564 82.8028 166.3C83.2588 166.036 83.7428 165.904 84.2548 165.904C84.6708 165.904 85.0548 166.02 85.4068 166.252C85.7668 166.484 86.0388 166.832 86.2228 167.296V165.904H88.7428V172H86.2228V170.884C85.8228 171.692 85.1668 172.096 84.2548 172.096ZM85.0348 170.2C85.3548 170.2 85.6268 170.088 85.8508 169.864C86.0828 169.632 86.2068 169.36 86.2228 169.048V168.952C86.2068 168.632 86.0788 168.36 85.8388 168.136C85.6068 167.912 85.3388 167.8 85.0348 167.8C84.6988 167.8 84.4108 167.92 84.1708 168.16C83.9388 168.392 83.8228 168.672 83.8228 169C83.8228 169.336 83.9428 169.62 84.1828 169.852C84.4228 170.084 84.7068 170.2 85.0348 170.2ZM92.3103 172.096C91.6303 172.096 91.1023 171.884 90.7263 171.46C90.3583 171.028 90.1743 170.44 90.1743 169.696V164.092L92.7063 163.72V169.516C92.7063 169.74 92.7583 169.904 92.8623 170.008C92.9743 170.104 93.1663 170.152 93.4383 170.152C93.6383 170.152 93.8343 170.104 94.0263 170.008L94.1103 171.688C93.5743 171.96 92.9743 172.096 92.3103 172.096ZM97.0854 172.096C96.4054 172.096 95.8774 171.884 95.5014 171.46C95.1334 171.028 94.9494 170.44 94.9494 169.696V164.092L97.4814 163.72V169.516C97.4814 169.74 97.5334 169.904 97.6374 170.008C97.7494 170.104 97.9414 170.152 98.2134 170.152C98.4134 170.152 98.6094 170.104 98.8014 170.008L98.8854 171.688C98.3494 171.96 97.7494 172.096 97.0854 172.096ZM102.857 172.096C102.193 172.096 101.601 171.964 101.081 171.7C100.569 171.428 100.169 171.06 99.8806 170.596C99.5926 170.124 99.4486 169.592 99.4486 169C99.4486 168.392 99.5966 167.852 99.8926 167.38C100.189 166.908 100.589 166.544 101.093 166.288C101.597 166.032 102.157 165.904 102.773 165.904C103.365 165.904 103.869 166.036 104.285 166.3C104.709 166.556 105.025 166.908 105.233 167.356C105.441 167.796 105.545 168.292 105.545 168.844C105.545 168.988 105.537 169.092 105.521 169.156L101.921 169.624C102.017 169.904 102.173 170.108 102.389 170.236C102.605 170.356 102.889 170.416 103.241 170.416C103.785 170.416 104.373 170.276 105.005 169.996L105.305 171.604C104.561 171.932 103.745 172.096 102.857 172.096ZM103.685 168.112C103.557 167.608 103.253 167.356 102.773 167.356C102.485 167.356 102.257 167.464 102.089 167.68C101.921 167.896 101.833 168.176 101.825 168.52L103.685 168.112Z" fill="#2179B9"/>
<path d="M40.9485 187.672C40.9485 186.752 41.0005 186.092 41.1045 185.692C41.2165 185.284 41.4365 185.004 41.7645 184.852C42.1005 184.7 42.6485 184.624 43.4085 184.624V186.028C43.0005 186.028 42.7325 186.036 42.6045 186.052C42.4765 186.068 42.3925 186.116 42.3525 186.196C42.3125 186.276 42.2925 186.428 42.2925 186.652H43.4085V188.896H40.9485V187.672ZM44.0685 187.672C44.0685 186.752 44.1205 186.092 44.2245 185.692C44.3365 185.284 44.5565 185.004 44.8845 184.852C45.2205 184.7 45.7685 184.624 46.5285 184.624V186.028C46.1205 186.028 45.8525 186.036 45.7245 186.052C45.5965 186.068 45.5125 186.116 45.4725 186.196C45.4325 186.276 45.4125 186.428 45.4125 186.652H46.5285V188.896H44.0685V187.672ZM52.4288 193.096C51.5088 193.096 50.8568 192.692 50.4728 191.884V193H47.9288V185.092L50.4728 184.72V188.116C50.6728 187.692 50.9328 187.384 51.2528 187.192C51.5728 187 51.9608 186.904 52.4168 186.904C52.9528 186.904 53.4448 187.04 53.8928 187.312C54.3488 187.576 54.7048 187.944 54.9608 188.416C55.2248 188.888 55.3568 189.416 55.3568 190C55.3568 190.576 55.2208 191.1 54.9488 191.572C54.6848 192.044 54.3248 192.416 53.8688 192.688C53.4208 192.96 52.9408 193.096 52.4288 193.096ZM51.6608 191.2C51.9888 191.2 52.2688 191.08 52.5008 190.84C52.7328 190.6 52.8488 190.32 52.8488 190C52.8488 189.664 52.7288 189.38 52.4888 189.148C52.2568 188.916 51.9808 188.8 51.6608 188.8C51.3328 188.8 51.0528 188.916 50.8208 189.148C50.5888 189.372 50.4728 189.64 50.4728 189.952V190C50.4728 190.336 50.5888 190.62 50.8208 190.852C51.0608 191.084 51.3408 191.2 51.6608 191.2ZM59.704 193.096C59.072 193.096 58.508 192.984 58.012 192.76C57.524 192.536 57.144 192.22 56.872 191.812C56.6 191.404 56.464 190.94 56.464 190.42V186.988H58.936V190.384C58.936 190.648 59.008 190.856 59.152 191.008C59.304 191.152 59.492 191.224 59.716 191.224C59.932 191.224 60.108 191.152 60.244 191.008C60.388 190.856 60.46 190.648 60.46 190.384V186.988H62.884V190.42C62.884 190.948 62.748 191.416 62.476 191.824C62.212 192.224 61.84 192.536 61.36 192.76C60.88 192.984 60.328 193.096 59.704 193.096ZM66.9151 193.096C66.2111 193.096 65.6631 192.896 65.2711 192.496C64.8791 192.088 64.6831 191.528 64.6831 190.816V188.476H63.9151V186.988H64.8631L65.9791 184.72H67.1911V186.988H68.5831V188.476H67.1911V190.516C67.1911 190.716 67.2551 190.872 67.3831 190.984C67.5111 191.096 67.6911 191.152 67.9231 191.152C68.1391 191.152 68.3351 191.104 68.5111 191.008L68.6071 192.688C68.4071 192.808 68.1471 192.908 67.8271 192.988C67.5151 193.06 67.2111 193.096 66.9151 193.096ZM72.37 193.096C71.666 193.096 71.118 192.896 70.726 192.496C70.334 192.088 70.138 191.528 70.138 190.816V188.476H69.37V186.988H70.318L71.434 184.72H72.646V186.988H74.038V188.476H72.646V190.516C72.646 190.716 72.71 190.872 72.838 190.984C72.966 191.096 73.146 191.152 73.378 191.152C73.594 191.152 73.79 191.104 73.966 191.008L74.062 192.688C73.862 192.808 73.602 192.908 73.282 192.988C72.97 193.06 72.666 193.096 72.37 193.096ZM78.1876 193.096C77.5236 193.096 76.9316 192.964 76.4116 192.7C75.8996 192.428 75.4996 192.06 75.2116 191.596C74.9236 191.124 74.7796 190.592 74.7796 190C74.7796 189.392 74.9276 188.852 75.2236 188.38C75.5196 187.908 75.9196 187.544 76.4236 187.288C76.9276 187.032 77.4876 186.904 78.1036 186.904C78.6956 186.904 79.1996 187.036 79.6156 187.3C80.0396 187.556 80.3556 187.908 80.5636 188.356C80.7716 188.796 80.8756 189.292 80.8756 189.844C80.8756 189.988 80.8676 190.092 80.8516 190.156L77.2516 190.624C77.3476 190.904 77.5036 191.108 77.7196 191.236C77.9356 191.356 78.2196 191.416 78.5716 191.416C79.1156 191.416 79.7036 191.276 80.3356 190.996L80.6356 192.604C79.8916 192.932 79.0756 193.096 78.1876 193.096ZM79.0156 189.112C78.8876 188.608 78.5836 188.356 78.1036 188.356C77.8156 188.356 77.5876 188.464 77.4196 188.68C77.2516 188.896 77.1636 189.176 77.1556 189.52L79.0156 189.112ZM81.9876 187.072H84.5196V188.296C84.7036 187.824 84.9516 187.476 85.2636 187.252C85.5836 187.02 85.9556 186.904 86.3796 186.904L86.7276 188.86C85.9676 188.86 85.4076 188.944 85.0476 189.112C84.6956 189.272 84.5196 189.528 84.5196 189.88V193H81.9876V187.072ZM94.807 193.192C94.151 193.192 93.635 192.976 93.259 192.544C92.883 192.112 92.695 191.524 92.695 190.78V185.92C92.383 185.776 92.011 185.704 91.579 185.704C90.907 185.704 90.571 186.024 90.571 186.664V186.988H92.083V188.476H90.571V193H88.039V188.476H87.283V186.988H88.039V186.58C88.039 185.676 88.335 185.024 88.927 184.624C89.519 184.216 90.391 184.012 91.543 184.012C92.743 184.012 93.971 184.244 95.227 184.708V190.612C95.227 191.036 95.415 191.248 95.791 191.248C95.967 191.248 96.139 191.2 96.307 191.104L96.451 192.772C95.931 193.052 95.383 193.192 94.807 193.192ZM99.4272 193.096C98.7552 193.096 98.2312 192.88 97.8552 192.448C97.4792 192.016 97.2912 191.428 97.2912 190.684V186.988H99.8352V190.576C99.8352 190.76 99.8832 190.904 99.9792 191.008C100.083 191.104 100.215 191.152 100.375 191.152C100.535 191.152 100.699 191.104 100.867 191.008L100.999 192.676C100.823 192.812 100.591 192.916 100.303 192.988C100.023 193.06 99.7312 193.096 99.4272 193.096ZM98.5632 186.088C98.1872 186.088 97.8672 185.972 97.6032 185.74C97.3472 185.5 97.2192 185.208 97.2192 184.864C97.2192 184.52 97.3552 184.232 97.6272 184C97.8992 183.768 98.2112 183.652 98.5632 183.652C98.9312 183.652 99.2472 183.772 99.5112 184.012C99.7832 184.252 99.9192 184.536 99.9192 184.864C99.9192 185.216 99.7832 185.508 99.5112 185.74C99.2392 185.972 98.9232 186.088 98.5632 186.088ZM105.046 193.096C104.382 193.096 103.79 192.964 103.27 192.7C102.758 192.428 102.358 192.06 102.07 191.596C101.782 191.124 101.638 190.592 101.638 190C101.638 189.392 101.786 188.852 102.082 188.38C102.378 187.908 102.778 187.544 103.282 187.288C103.786 187.032 104.346 186.904 104.962 186.904C105.554 186.904 106.058 187.036 106.474 187.3C106.898 187.556 107.214 187.908 107.422 188.356C107.63 188.796 107.734 189.292 107.734 189.844C107.734 189.988 107.726 190.092 107.71 190.156L104.11 190.624C104.206 190.904 104.362 191.108 104.578 191.236C104.794 191.356 105.078 191.416 105.43 191.416C105.974 191.416 106.562 191.276 107.194 190.996L107.494 192.604C106.75 192.932 105.934 193.096 105.046 193.096ZM105.874 189.112C105.746 188.608 105.442 188.356 104.962 188.356C104.674 188.356 104.446 188.464 104.278 188.68C104.11 188.896 104.022 189.176 104.014 189.52L105.874 189.112ZM110.922 193.096C110.082 193.096 109.346 192.972 108.714 192.724L108.99 191.296C109.566 191.504 110.126 191.608 110.67 191.608C111.07 191.608 111.27 191.496 111.27 191.272C111.27 191.16 111.21 191.068 111.09 190.996C110.978 190.924 110.762 190.86 110.442 190.804C109.778 190.676 109.298 190.46 109.002 190.156C108.714 189.852 108.57 189.42 108.57 188.86C108.602 188.228 108.854 187.744 109.326 187.408C109.798 187.072 110.442 186.904 111.258 186.904C111.674 186.904 112.03 186.932 112.326 186.988C112.63 187.036 112.906 187.12 113.154 187.24L112.902 188.668C112.67 188.58 112.414 188.512 112.134 188.464C111.862 188.416 111.634 188.392 111.45 188.392C111.178 188.392 110.99 188.42 110.886 188.476C110.782 188.532 110.73 188.608 110.73 188.704C110.73 188.88 110.93 189.004 111.33 189.076C112.058 189.204 112.602 189.428 112.962 189.748C113.322 190.068 113.502 190.504 113.502 191.056C113.502 191.688 113.278 192.188 112.83 192.556C112.39 192.916 111.754 193.096 110.922 193.096ZM114.475 187.612C114.883 187.612 115.151 187.604 115.279 187.588C115.407 187.572 115.491 187.524 115.531 187.444C115.571 187.364 115.591 187.212 115.591 186.988H114.475V184.744H116.935V185.968C116.935 186.888 116.879 187.552 116.767 187.96C116.663 188.36 116.443 188.636 116.107 188.788C115.779 188.94 115.235 189.016 114.475 189.016V187.612ZM117.595 187.612C118.003 187.612 118.271 187.604 118.399 187.588C118.527 187.572 118.611 187.524 118.651 187.444C118.691 187.364 118.711 187.212 118.711 186.988H117.595V184.744H120.055V185.968C120.055 186.888 119.999 187.552 119.887 187.96C119.783 188.36 119.563 188.636 119.227 188.788C118.899 188.94 118.355 189.016 117.595 189.016V187.612Z" fill="#393A32"/>
<path d="M39.502 121.616H48.034V124.352H43.372V126.854H47.692V129.122H43.372V134H39.502V121.616ZM54.2568 134.144C53.4768 134.144 52.7448 133.94 52.0608 133.532C51.3888 133.112 50.8488 132.548 50.4408 131.84C50.0328 131.12 49.8288 130.322 49.8288 129.446C49.8288 128.582 50.0328 127.802 50.4408 127.106C50.8488 126.398 51.3948 125.846 52.0788 125.45C52.7628 125.054 53.4888 124.856 54.2568 124.856C54.8808 124.856 55.4568 125.03 55.9848 125.378C56.5248 125.726 56.9328 126.248 57.2088 126.944V124.856H60.9888V134H57.2088V132.326C56.6088 133.538 55.6248 134.144 54.2568 134.144ZM55.4268 131.3C55.9068 131.3 56.3148 131.132 56.6508 130.796C56.9988 130.448 57.1848 130.04 57.2088 129.572V129.428C57.1848 128.948 56.9928 128.54 56.6328 128.204C56.2848 127.868 55.8828 127.7 55.4268 127.7C54.9228 127.7 54.4908 127.88 54.1308 128.24C53.7828 128.588 53.6088 129.008 53.6088 129.5C53.6088 130.004 53.7888 130.43 54.1488 130.778C54.5088 131.126 54.9348 131.3 55.4268 131.3ZM63.892 125.108H67.69V126.944C67.966 126.236 68.338 125.714 68.806 125.378C69.286 125.03 69.844 124.856 70.48 124.856L71.002 127.79C69.862 127.79 69.022 127.916 68.482 128.168C67.954 128.408 67.69 128.792 67.69 129.32V134H63.892V125.108ZM73.6892 127.214H72.5552V124.982H73.6892V124.226C73.6892 122.894 74.0072 121.886 74.6432 121.202C75.2912 120.518 76.1912 120.176 77.3432 120.176C78.2672 120.176 79.1252 120.41 79.9172 120.878L79.7912 123.308C79.0952 123.032 78.5132 122.894 78.0452 122.894C77.6852 122.894 77.4092 122.984 77.2172 123.164C77.0252 123.332 76.9292 123.578 76.9292 123.902C76.9292 124.214 77.0312 124.574 77.2352 124.982H79.7552V127.214H77.4872V134H73.6892V127.214ZM85.6746 134.144C84.8946 134.144 84.1626 133.94 83.4786 133.532C82.8066 133.112 82.2666 132.548 81.8586 131.84C81.4506 131.12 81.2466 130.322 81.2466 129.446C81.2466 128.582 81.4506 127.802 81.8586 127.106C82.2666 126.398 82.8126 125.846 83.4966 125.45C84.1806 125.054 84.9066 124.856 85.6746 124.856C86.2986 124.856 86.8746 125.03 87.4026 125.378C87.9426 125.726 88.3506 126.248 88.6266 126.944V124.856H92.4066V134H88.6266V132.326C88.0266 133.538 87.0426 134.144 85.6746 134.144ZM86.8446 131.3C87.3246 131.3 87.7326 131.132 88.0686 130.796C88.4166 130.448 88.6026 130.04 88.6266 129.572V129.428C88.6026 128.948 88.4106 128.54 88.0506 128.204C87.7026 127.868 87.3006 127.7 86.8446 127.7C86.3406 127.7 85.9086 127.88 85.5486 128.24C85.2006 128.588 85.0266 129.008 85.0266 129.5C85.0266 130.004 85.2066 130.43 85.5666 130.778C85.9266 131.126 86.3526 131.3 86.8446 131.3ZM98.4778 134.144C97.4578 134.144 96.6658 133.826 96.1018 133.19C95.5498 132.542 95.2738 131.66 95.2738 130.544V122.138L99.0718 121.58V130.274C99.0718 130.61 99.1498 130.856 99.3058 131.012C99.4738 131.156 99.7618 131.228 100.17 131.228C100.47 131.228 100.764 131.156 101.052 131.012L101.178 133.532C100.374 133.94 99.4738 134.144 98.4778 134.144ZM106.36 134.144C105.34 134.144 104.548 133.826 103.984 133.19C103.432 132.542 103.156 131.66 103.156 130.544V122.138L106.954 121.58V130.274C106.954 130.61 107.032 130.856 107.188 131.012C107.356 131.156 107.644 131.228 108.052 131.228C108.352 131.228 108.646 131.156 108.934 131.012L109.06 133.532C108.256 133.94 107.356 134.144 106.36 134.144ZM115.737 134.144C114.741 134.144 113.853 133.946 113.073 133.55C112.305 133.142 111.705 132.59 111.273 131.894C110.841 131.186 110.625 130.388 110.625 129.5C110.625 128.588 110.847 127.778 111.291 127.07C111.735 126.362 112.335 125.816 113.091 125.432C113.847 125.048 114.687 124.856 115.611 124.856C116.499 124.856 117.255 125.054 117.879 125.45C118.515 125.834 118.989 126.362 119.301 127.034C119.613 127.694 119.769 128.438 119.769 129.266C119.769 129.482 119.757 129.638 119.733 129.734L114.333 130.436C114.477 130.856 114.711 131.162 115.035 131.354C115.359 131.534 115.785 131.624 116.313 131.624C117.129 131.624 118.011 131.414 118.959 130.994L119.409 133.406C118.293 133.898 117.069 134.144 115.737 134.144ZM116.979 128.168C116.787 127.412 116.331 127.034 115.611 127.034C115.179 127.034 114.837 127.196 114.585 127.52C114.333 127.844 114.201 128.264 114.189 128.78L116.979 128.168Z" fill="#393A32"/>
<rect x="46" y="145.901" width="65.45" height="0.897773" fill="#082D74"/>
<rect x="57.7808" y="145" width="13.9627" height="3.1422" fill="#3F8D43"/>
<rect x="71.7454" y="145" width="13.9627" height="3.1422" fill="white"/>
<rect x="85.7046" y="145" width="13.9627" height="3.1422" fill="#D12C29"/>
<path d="M119.834 74.7949C120.922 73.7407 122.036 72.1354 122.036 69.9798C122.036 67.7789 120.642 66.1402 119.11 65.0672C120.308 63.5614 121.149 61.5364 120.269 59.4004C119.502 57.5399 117.801 56.3976 116.236 55.7122C116.754 55.0101 117.093 54.1931 117.226 53.3312C117.347 52.415 117.23 51.0375 115.986 49.678C114.091 47.6069 111.734 47.0364 110.073 46.9251L109.887 42.7574C109.867 42.3124 109.684 41.8904 109.372 41.5722C109.06 41.254 108.642 41.062 108.198 41.0331C104.13 40.7676 99.8724 42.104 95.8886 44.897C92.2747 47.4308 89.2985 50.8908 87.5081 54.6393C84.4756 60.9885 81.1631 64.5491 78.4167 64.4225C77.3105 64.3693 76.0614 62.6038 74.4801 60.3685C73.1356 58.4683 71.4624 56.1031 69.1112 53.656C59.8871 44.056 48.7446 43.226 48.2749 43.1955C48.1932 43.19 48.1113 43.1903 48.0296 43.1962C47.5316 43.2313 43.1083 43.6181 41.1741 46.3216C39.7077 48.3711 40.9875 50.4921 41.8344 51.8956C42.0597 52.2523 42.2647 52.6212 42.4486 53.0009C42.1153 53.2603 41.6307 53.4479 41.0864 53.6586C39.8927 54.1207 38.2579 54.7538 37.3739 56.6501C36.4555 58.6202 37.1971 60.8996 37.9247 62.391C36.6868 63.3736 35.0401 64.9822 34.4507 66.9376C33.7569 69.2391 35.0045 71.4669 36.0508 72.8256C35.1811 73.9811 34.1248 75.7764 34.0069 77.7918C33.8636 80.24 35.9911 82.2005 37.7375 83.3866C36.8244 84.6423 35.9106 86.4207 36.1276 88.3266C36.4997 91.5943 39.3296 93.7724 39.6511 94.01C39.858 94.163 40.0952 94.27 40.3468 94.3239C43.5868 94.9259 46.8914 95.1045 50.1775 94.8552C57.4816 94.3159 63.4246 91.6494 67.364 87.1438C75.507 77.8305 76.9133 77.7051 78.8599 77.5313L79.0644 77.5129C80.4206 77.3912 85.8752 80.3356 92.3307 87.7133C96.9829 93.03 106.451 94.9689 113.004 94.9689C114.87 94.9689 116.501 94.8116 117.716 94.5302C118.421 94.3668 120.568 93.8694 121.042 92.115C121.624 89.9559 120.439 87.5787 119.324 85.9448C120.827 85.0463 122.579 83.5509 122.944 81.3415C123.355 78.8458 121.425 76.3659 119.834 74.7949ZM119.375 80.753C119.159 82.0606 116.952 83.2179 115.922 83.5719C115.636 83.6686 115.379 83.8352 115.174 84.0565C114.969 84.2778 114.823 84.5469 114.748 84.8393C114.673 85.1316 114.673 85.438 114.747 85.7305C114.821 86.023 114.967 86.2924 115.172 86.5141C116.231 87.6628 117.535 89.6609 117.583 90.8161C116.422 91.2923 112.684 91.6844 107.823 90.953C102.077 90.0889 97.4232 88.0397 95.0532 85.3312C92.0783 81.9313 88.9541 79.0302 86.0183 76.9415C83.1729 74.9171 80.8524 73.8937 79.1114 73.8937C78.9823 73.8937 78.8563 73.8993 78.7334 73.9106L78.5384 73.9281C75.3849 74.2095 73.3344 74.8194 64.6406 84.7628C57.3528 93.098 44.043 91.2942 41.5225 90.8636C40.9908 90.3831 39.8713 89.2292 39.7219 87.9171C39.5817 86.6863 41.0334 84.932 41.7545 84.279C41.9761 84.0807 42.1454 83.8308 42.2474 83.5514C42.3494 83.2721 42.3809 82.9719 42.3392 82.6774C42.2975 82.383 42.1839 82.1033 42.0083 81.8633C41.8328 81.6233 41.6007 81.4302 41.3328 81.3012C39.6113 80.4728 37.5706 78.8169 37.6182 78.0031C37.7118 76.4026 39.1645 74.6419 39.7124 74.1025C39.888 73.9317 40.0271 73.7271 40.1213 73.501C40.2155 73.2748 40.2627 73.032 40.2602 72.787C40.2577 72.5421 40.2055 72.3002 40.1067 72.0761C40.0079 71.852 39.8646 71.6502 39.6854 71.4831C38.9162 70.7653 37.6069 69.0014 37.9143 67.9815C38.3651 66.4861 40.5271 64.9017 41.2459 64.4665C41.4593 64.3384 41.644 64.1676 41.7884 63.9649C41.9329 63.7622 42.0339 63.5318 42.0852 63.2882C42.1365 63.0446 42.137 62.7931 42.0866 62.5493C42.0363 62.3055 41.9361 62.0748 41.7925 61.8715C41.0878 60.8744 40.2764 58.9856 40.6526 58.1784C40.8983 57.6513 41.325 57.4455 42.3926 57.0322C43.3365 56.6668 44.5112 56.2119 45.4225 55.1373C46.9375 53.3508 45.6819 51.27 44.9317 50.0267C44.6558 49.5695 44.1504 48.7317 44.133 48.4034C44.8683 47.4153 47.0758 46.9214 48.1585 46.8156C49.3215 46.9272 58.7262 48.069 66.5026 56.1625C68.6659 58.4139 70.1859 60.5623 71.527 62.4579C73.6773 65.4973 75.3758 67.8979 78.2431 68.0357C78.3572 68.0412 78.4706 68.044 78.5843 68.044C82.9178 68.0437 87.017 64.0611 90.7724 56.1983C93.4398 50.6134 99.8074 45.0872 106.35 44.646L106.538 48.8674C106.55 49.1264 106.617 49.3799 106.735 49.6108C106.853 49.8416 107.02 50.0443 107.223 50.2052C107.426 50.3661 107.662 50.4814 107.913 50.5433C108.165 50.6052 108.427 50.6123 108.682 50.564C108.709 50.5589 111.471 50.1014 113.317 52.1198C113.683 52.5193 113.652 52.7541 113.64 52.8544C113.546 53.5873 112.483 54.5893 111.8 55.0322C111.49 55.23 111.247 55.5178 111.104 55.8573C110.962 56.1967 110.926 56.5716 111.002 56.9318C111.078 57.292 111.263 57.6204 111.53 57.873C111.798 58.1257 112.137 58.2907 112.501 58.3458C113.691 58.5264 116.339 59.3585 116.924 60.7792C117.423 61.9897 115.53 63.6469 115.001 64.0204C114.728 64.2119 114.512 64.4754 114.379 64.7818C114.245 65.0881 114.199 65.4254 114.246 65.7563C114.292 66.0872 114.429 66.3988 114.641 66.6567C114.854 66.9146 115.134 67.1087 115.45 67.2175C116.22 67.4839 118.418 68.5632 118.418 69.9798C118.418 71.8696 116.163 73.0682 116.15 73.0751C115.876 73.2135 115.642 73.4193 115.469 73.6732C115.297 73.927 115.192 74.2206 115.164 74.5262C115.136 74.8318 115.187 75.1394 115.311 75.4201C115.435 75.7008 115.628 75.9454 115.873 76.1308C117.662 77.487 119.54 79.752 119.375 80.753Z" fill="#1A1A1A"/>
<path d="M97.3331 77.3717C93.9434 74.4717 90.3607 72.4086 86.6392 71.1982C90.0047 70.0849 92.3071 68.332 94.6872 66.518C95.0876 66.2128 95.4932 65.9037 95.91 65.5933C96.2942 65.3066 96.5488 64.879 96.618 64.4047C96.6871 63.9303 96.5651 63.4479 96.2788 63.0634C95.9924 62.6789 95.5652 62.4238 95.0909 62.3542C94.6166 62.2845 94.134 62.406 93.7492 62.6919C93.3215 63.0105 92.9053 63.3276 92.4943 63.641C88.7256 66.5134 85.7487 68.7821 78.14 68.7821C69.9133 68.7821 63.3351 63.0803 63.2204 62.9798C62.8617 62.6626 62.3918 62.5006 61.9137 62.5294C61.4357 62.5582 60.9886 62.7753 60.6705 63.1332C60.3523 63.4912 60.1891 63.9606 60.2166 64.4387C60.2441 64.9168 60.4601 65.3645 60.8171 65.6836C63.7317 68.113 67.0775 69.9721 70.6797 71.164C70.4003 71.2517 70.1212 71.343 69.8424 71.44C67.7521 72.1602 65.7567 73.131 63.8998 74.3309C61.2361 76.0736 61.0846 76.845 61.0031 77.2594C60.921 77.6779 60.9893 78.112 61.1961 78.485C61.4029 78.858 61.7348 79.146 62.1333 79.298C62.5318 79.4501 62.9711 79.4565 63.3739 79.3161C63.7766 79.1757 64.1168 78.8975 64.3343 78.5306C64.9418 77.9308 68.6395 75.0702 74.3506 73.9595C81.6115 72.5476 88.5527 74.6205 94.9814 80.1205C95.1619 80.2749 95.371 80.3923 95.5968 80.4659C95.8227 80.5395 96.0608 80.5679 96.2976 80.5494C96.5344 80.531 96.7653 80.4661 96.977 80.3584C97.1888 80.2508 97.3772 80.1025 97.5316 79.922C97.6861 79.7415 97.8034 79.5324 97.877 79.3065C97.9506 79.0807 97.979 78.8426 97.9605 78.6057C97.9421 78.3689 97.8772 78.1381 97.7696 77.9263C97.6619 77.7146 97.5136 77.5262 97.3331 77.3717L97.3331 77.3717Z" fill="#1A1A1A"/>
</svg>
