<svg width="1214" height="491" viewBox="0 0 1214 491" fill="none" xmlns="http://www.w3.org/2000/svg">
<path d="M378.948 215.937C362.365 202.022 357.959 180.563 369.134 167.245C385.654 147.558 380.474 116.57 357.601 97.3768C354.17 94.4979 349.939 94.8948 347.024 98.3691C344.109 101.843 344.453 106.079 347.884 108.958C364.467 122.872 368.873 144.331 357.698 157.649C341.178 177.336 346.358 208.325 369.231 227.518C385.814 241.432 390.22 262.891 379.045 276.209C362.525 295.896 367.705 326.885 390.578 346.077C407.161 359.992 411.568 381.451 400.393 394.769C397.477 398.243 397.821 402.478 401.252 405.357C404.683 408.236 408.914 407.839 411.829 404.365C428.349 384.678 423.169 353.689 400.296 334.497C383.713 320.582 379.307 299.123 390.482 285.805C407.087 267.177 401.822 235.13 378.948 215.937Z" fill="#E0D6D6" fill-opacity="0.1"/>
<path d="M210.136 236.576C188.492 218.415 182.741 190.408 197.326 173.025C218.887 147.33 212.127 106.885 182.274 81.8353C177.796 78.0778 172.274 78.5958 168.469 83.1303C164.664 87.6648 165.113 93.1928 169.591 96.9502C191.234 115.111 196.985 143.118 182.4 160.501C160.839 186.196 167.599 226.641 197.453 251.691C219.096 269.852 224.847 297.859 210.262 315.241C188.701 340.936 195.461 381.381 225.315 406.431C246.958 424.592 252.709 452.599 238.124 469.982C234.319 474.516 234.768 480.044 239.246 483.802C243.724 487.559 249.246 487.041 253.05 482.507C274.611 456.811 267.851 416.366 237.998 391.316C216.354 373.155 210.603 345.148 225.188 327.766C246.749 302.071 239.989 261.626 210.136 236.576Z" fill="#F7575C" fill-opacity="0.1"/>
<path d="M304.862 333.052C288.75 319.532 284.468 298.683 295.326 285.743C311.377 266.614 306.344 236.505 284.12 217.857C268.008 204.337 263.727 183.488 274.585 170.548C290.636 151.419 285.603 121.31 263.379 102.662C260.045 99.8649 255.935 100.25 253.102 103.626C250.27 107.002 250.604 111.117 253.937 113.914C270.05 127.434 274.331 148.284 263.473 161.224C247.422 180.352 252.455 210.461 274.679 229.109C290.791 242.629 295.072 263.479 284.214 276.419C268.164 295.547 273.196 325.656 295.42 344.304C311.533 357.824 315.814 378.673 304.956 391.613C302.123 394.989 302.458 399.104 305.791 401.901C309.125 404.699 313.235 404.313 316.068 400.937C331.647 382.371 327.086 351.7 304.862 333.052Z" fill="#6FA976" fill-opacity="0.1"/>
<path d="M496.036 61.9204C491.851 64.5872 490.816 69.1208 493.449 73.2544C506.178 93.2335 503.716 117.079 487.671 127.302C463.951 142.413 459.161 176.46 476.718 204.017C489.446 223.996 486.984 247.842 470.939 258.065C447.22 273.176 442.429 307.223 459.986 334.78C472.715 354.759 470.253 378.605 454.207 388.828C450.021 391.494 448.987 396.028 451.62 400.161C454.254 404.295 458.8 405.273 462.986 402.606C486.705 387.495 491.495 353.448 473.939 325.891C461.21 305.912 463.672 282.066 479.717 271.843C503.437 256.732 508.227 222.685 490.67 195.128C477.941 175.149 480.404 151.303 496.449 141.081C520.168 125.969 524.959 91.9226 507.402 64.3652C505.207 60.9205 500.222 59.2537 496.036 61.9204Z" fill="#6FA976" fill-opacity="0.1"/>
<path d="M381.299 277.215C365.627 284.092 348.929 279.818 343.475 267.389C335.413 249.015 311.717 242.012 290.101 251.497C286.858 252.92 285.645 256.03 287.068 259.272C288.491 262.515 291.601 263.728 294.843 262.305C310.515 255.428 327.213 259.702 332.667 272.131C340.73 290.505 364.425 297.508 386.042 288.023C401.714 281.146 418.412 285.419 423.866 297.849C431.928 316.223 455.624 323.226 477.24 313.741C492.912 306.864 509.61 311.137 515.064 323.567C516.487 326.809 519.597 328.022 522.84 326.599C526.082 325.177 527.295 322.066 525.873 318.824C517.81 300.45 494.114 293.447 472.498 302.932C456.826 309.809 440.128 305.536 434.674 293.106C426.611 274.732 402.916 267.729 381.299 277.215Z" fill="#F7575C" fill-opacity="0.1"/>
<path d="M747.746 219.211C727.576 198.305 724.555 169.204 741.135 153.207C765.646 129.559 762.854 87.7113 735.032 58.8752C730.859 54.5498 725.193 54.4483 720.868 58.6215C716.543 62.7947 716.441 68.4604 720.614 72.7858C740.785 93.6919 743.806 122.792 727.225 138.789C702.714 162.437 705.507 204.285 733.328 233.121C753.498 254.028 756.519 283.128 739.939 299.125C715.428 322.773 718.221 364.621 746.042 393.457C766.212 414.363 769.233 443.463 752.652 459.461C748.327 463.634 748.225 469.299 752.398 473.625C756.572 477.95 762.237 478.052 766.563 473.879C791.073 450.231 788.281 408.383 760.46 379.546C740.289 358.64 737.268 329.54 753.849 313.543C778.334 291.311 775.567 248.047 747.746 219.211Z" fill="#E0D6D6" fill-opacity="0.1"/>
<path d="M589.271 109.461C575.378 111.472 563.11 104.444 561.515 93.4256C559.157 77.1371 541.954 66.4218 522.791 69.1964C519.916 69.6126 518.277 71.8063 518.694 74.6807C519.11 77.5552 521.304 79.194 524.178 78.7778C538.071 76.7663 550.338 83.7942 551.934 94.8128C554.292 111.101 571.495 121.817 590.658 119.042C604.551 117.031 616.818 124.058 618.414 135.077C620.772 151.366 637.975 162.081 657.138 159.306C671.031 157.295 683.298 164.323 684.894 175.341C685.31 178.216 687.503 179.855 690.378 179.438C693.252 179.022 694.891 176.829 694.475 173.954C692.117 157.666 674.914 146.95 655.751 149.725C641.858 151.736 629.59 144.709 627.995 133.69C626.185 117.811 608.434 106.686 589.271 109.461Z" fill="#37A3BB" fill-opacity="0.05"/>
<path d="M575.461 272.441C559.034 259.776 553.867 239.536 563.911 226.508C578.759 207.248 572.423 177.98 549.765 160.512C546.367 157.891 542.354 158.41 539.734 161.809C537.114 165.208 537.633 169.22 541.031 171.841C557.458 184.505 562.626 204.745 552.582 217.774C537.734 237.033 544.069 266.302 566.727 283.77C583.154 296.434 588.322 316.675 578.278 329.703C563.43 348.962 569.765 378.231 592.423 395.699C608.85 408.364 614.018 428.604 603.974 441.632C601.354 445.031 601.873 449.044 605.271 451.664C608.67 454.284 612.683 453.765 615.303 450.367C630.151 431.107 623.816 401.838 601.157 384.37C584.73 371.706 579.563 351.466 589.607 338.437C604.455 319.178 598.119 289.909 575.461 272.441Z" fill="#F7575C" fill-opacity="0.1"/>
<path d="M943.128 220.874C921.434 209.168 911.494 186.417 920.779 169.211C934.504 143.776 921.464 110.66 891.54 94.5134C887.052 92.0913 882.445 93.4689 880.023 97.9575C877.601 102.446 878.978 107.053 883.467 109.475C905.161 121.182 915.101 143.932 905.817 161.138C892.092 186.573 905.131 219.689 935.055 235.836C956.749 247.543 966.689 270.293 957.405 287.499C943.68 312.934 956.719 346.05 986.643 362.197C1008.34 373.903 1018.28 396.653 1008.99 413.859C1006.57 418.348 1007.95 422.955 1012.44 425.377C1016.93 427.799 1021.53 426.422 1023.95 421.933C1037.68 396.498 1024.64 363.382 994.716 347.235C973.022 335.528 963.082 312.778 972.366 295.572C986.091 270.137 973.052 237.021 943.128 220.874Z" fill="#F7575C" fill-opacity="0.1"/>
<path d="M1001.13 69.977C992.182 73.9012 982.654 71.4627 979.541 64.3699C974.941 53.885 961.419 49.8888 949.084 55.3015C947.233 56.1134 946.541 57.8882 947.353 59.7385C948.165 61.5888 949.94 62.281 951.79 61.4691C960.733 57.5449 970.261 59.9835 973.374 67.0763C977.975 77.5612 991.496 81.5573 1003.83 76.1446C1012.77 72.2204 1022.3 74.659 1025.42 81.7517C1030.02 92.2367 1043.54 96.2328 1055.87 90.8201C1064.82 86.8959 1074.34 89.3345 1077.46 96.4272C1078.27 98.2775 1080.04 98.9698 1081.89 98.1579C1083.74 97.346 1084.44 95.5712 1083.62 93.7209C1079.02 83.236 1065.5 79.2398 1053.17 84.6525C1044.22 88.5767 1034.7 86.1382 1031.58 79.0454C1026.98 68.5605 1013.46 64.5643 1001.13 69.977Z" fill="#F7575C" fill-opacity="0.1"/>
<path d="M363.92 83.3997C359.547 92.1321 350.659 96.3434 343.733 92.8751C333.495 87.7481 320.54 93.3124 314.508 105.357C313.603 107.164 314.205 108.971 316.011 109.876C317.818 110.781 319.626 110.18 320.53 108.373C324.903 99.6405 333.792 95.4292 340.717 98.8975C350.955 104.024 363.911 98.4602 369.943 86.4156C374.316 77.6832 383.204 73.4719 390.13 76.9402C400.367 82.0672 413.323 76.5029 419.355 64.4583C423.728 55.7259 432.616 51.5146 439.542 54.9829C441.348 55.8876 443.156 55.2863 444.061 53.4796C444.966 51.673 444.364 49.8653 442.558 48.9605C432.32 43.8335 419.364 49.3978 413.332 61.4424C408.959 70.1748 400.071 74.3861 393.145 70.9178C382.908 65.7908 369.952 71.3551 363.92 83.3997Z" fill="#F7575C" fill-opacity="0.1"/>
<path d="M641.938 75.4884C639.624 80.1079 634.922 82.3358 631.258 80.501C625.842 77.7887 618.989 80.7323 615.798 87.1041C615.319 88.0599 615.637 89.0162 616.593 89.4948C617.549 89.9734 618.505 89.6553 618.984 88.6996C621.297 84.08 625.999 81.8521 629.663 83.6869C635.079 86.3992 641.933 83.4556 645.123 77.0838C647.437 72.4643 652.139 70.2364 655.803 72.0711C661.219 74.7834 668.072 71.8398 671.263 65.468C673.577 60.8485 678.279 58.6206 681.943 60.4554C682.898 60.934 683.855 60.6159 684.333 59.6602C684.812 58.7044 684.494 57.7481 683.538 57.2695C678.122 54.5572 671.268 57.5008 668.077 63.8726C665.764 68.4921 661.062 70.72 657.398 68.8852C651.982 66.173 645.129 69.1166 641.938 75.4884Z" fill="#F7575C" fill-opacity="0.1"/>
<path d="M895.015 284.902C893.124 288.677 889.281 290.498 886.287 288.999C881.861 286.782 876.26 289.188 873.652 294.395C873.261 295.176 873.521 295.958 874.302 296.349C875.083 296.74 875.864 296.48 876.256 295.699C878.146 291.924 881.989 290.103 884.983 291.602C889.41 293.819 895.011 291.413 897.619 286.206C899.509 282.431 903.352 280.61 906.346 282.109C910.772 284.326 916.374 281.92 918.981 276.713C920.872 272.938 924.715 271.117 927.709 272.616C928.49 273.008 929.272 272.748 929.663 271.966C930.054 271.185 929.794 270.404 929.013 270.013C924.587 267.796 918.986 270.202 916.378 275.409C914.487 279.184 910.644 281.005 907.65 279.506C903.224 277.289 897.623 279.695 895.015 284.902Z" fill="#F7575C" fill-opacity="0.1"/>
<path d="M967.436 337.858C968.595 321.722 979.53 309.643 992.328 310.562C1011.25 311.921 1027.55 295.195 1029.15 272.937C1029.39 269.599 1027.32 267.213 1023.98 266.974C1020.64 266.734 1018.26 268.8 1018.02 272.138C1016.86 288.275 1005.92 300.353 993.127 299.434C974.208 298.075 957.906 314.802 956.307 337.059C955.148 353.195 944.213 365.274 931.416 364.354C912.497 362.996 896.195 379.722 894.596 401.979C893.437 418.116 882.502 430.194 869.704 429.275C866.366 429.035 863.98 431.101 863.74 434.44C863.501 437.778 865.566 440.164 868.905 440.404C887.824 441.762 904.126 425.036 905.725 402.779C906.884 386.642 917.818 374.564 930.616 375.483C949.535 376.842 965.837 360.115 967.436 337.858Z" fill="#37A3BB" fill-opacity="0.05"/>
<path d="M690.086 302.698C676.827 298.154 669.131 286.32 672.735 275.804C678.063 260.259 667.662 242.9 649.374 236.632C636.115 232.088 628.419 220.255 632.023 209.739C637.351 194.193 626.951 176.835 608.662 170.567C605.919 169.627 603.463 170.829 602.523 173.572C601.583 176.315 602.785 178.771 605.528 179.711C618.787 184.255 626.483 196.089 622.879 206.605C617.551 222.15 627.952 239.509 646.24 245.777C659.499 250.321 667.195 262.154 663.591 272.67C658.263 288.216 668.664 305.574 686.952 311.842C700.211 316.386 707.907 328.22 704.303 338.736C703.363 341.479 704.565 343.935 707.308 344.875C710.051 345.815 712.507 344.613 713.447 341.87C718.618 326.781 708.374 308.965 690.086 302.698Z" fill="#6FA976" fill-opacity="0.1"/>
<path d="M787.226 62.968C784.255 66.5486 784.857 71.0793 788.733 74.2949C807.463 89.837 813.404 112.905 802.014 126.631C785.178 146.921 792.475 180.183 818.31 201.621C837.04 217.163 842.981 240.231 831.592 253.956C814.755 274.246 822.052 307.509 847.887 328.946C866.617 344.488 872.558 367.556 861.169 381.282C858.197 384.863 858.8 389.393 862.675 392.609C866.55 395.824 871.115 395.581 874.086 392.001C890.922 371.711 883.625 338.448 857.791 317.011C839.061 301.469 833.119 278.401 844.509 264.675C861.345 244.385 854.048 211.122 828.214 189.685C809.484 174.143 803.542 151.075 814.932 137.349C831.768 117.059 824.471 83.7969 798.636 62.3596C795.407 59.68 790.197 59.3874 787.226 62.968Z" fill="#6FA976" fill-opacity="0.1"/>
<path d="M1021.51 136.158C999.897 123.142 990.834 99.4051 1001.16 82.2637C1016.42 56.9244 1004.68 22.4403 974.873 4.4882C970.402 1.79539 965.625 2.98128 962.932 7.45293C960.24 11.9246 961.426 16.7009 965.897 19.3937C987.51 32.409 996.573 56.1464 986.251 73.2877C970.991 98.627 982.722 133.111 1012.53 151.063C1034.15 164.079 1043.21 187.816 1032.89 204.957C1017.63 230.297 1029.36 264.781 1059.17 282.733C1080.78 295.748 1089.85 319.485 1079.52 336.627C1076.83 341.098 1078.02 345.875 1082.49 348.568C1086.96 351.26 1091.74 350.074 1094.43 345.603C1109.69 320.263 1097.96 285.779 1068.15 267.827C1046.53 254.812 1037.47 231.075 1047.79 213.933C1063.35 189.788 1051.32 154.11 1021.51 136.158Z" fill="#E0D6D6" fill-opacity="0.1"/>
<path d="M616.416 374.617C629.855 382.71 646.864 378.582 654.979 365.106C666.975 345.185 691.33 338.296 709.867 349.458C723.305 357.551 740.315 353.423 748.43 339.947C760.426 320.027 784.781 313.137 803.317 324.3C806.098 325.974 806.54 329.434 804.423 332.949C802.306 336.465 799.041 337.692 796.261 336.018C782.822 327.925 765.813 332.053 757.698 345.529C745.702 365.449 721.346 372.339 702.81 361.176C689.371 353.083 672.362 357.211 664.247 370.687C652.251 390.608 627.895 397.497 609.359 386.335C595.921 378.242 578.911 382.37 570.796 395.846C568.679 399.361 565.414 400.589 562.634 398.914C559.853 397.24 559.411 393.78 561.528 390.265C573.171 370.93 597.88 363.454 616.416 374.617Z" fill="#6FA976" fill-opacity="0.1"/>
<path d="M793.416 162.617C806.855 170.71 823.864 166.582 831.979 153.106C843.975 133.185 868.33 126.296 886.867 137.458C900.305 145.551 917.315 141.423 925.43 127.947C937.426 108.027 961.781 101.137 980.317 112.3C983.098 113.974 983.54 117.434 981.423 120.949C979.306 124.465 976.041 125.692 973.261 124.018C959.822 115.925 942.813 120.053 934.698 133.529C922.702 153.449 898.346 160.339 879.81 149.176C866.371 141.083 849.362 145.211 841.247 158.687C829.251 178.608 804.895 185.497 786.359 174.335C772.921 166.242 755.911 170.37 747.796 183.846C745.679 187.361 742.414 188.589 739.634 186.914C736.853 185.24 736.411 181.78 738.528 178.265C750.171 158.93 774.88 151.454 793.416 162.617Z" fill="#37A3BB" fill-opacity="0.05"/>
<path d="M284.744 105.889C292.759 121.229 306.682 129.442 316.349 124.391C330.641 116.923 350.834 127.92 361.889 149.079C369.905 164.419 383.827 172.631 393.495 167.58C407.787 160.113 427.98 171.11 439.035 192.268C440.694 195.442 440.118 198.436 437.596 199.754C435.074 201.072 432.287 199.834 430.629 196.661C422.613 181.321 408.691 173.108 399.023 178.159C384.732 185.627 364.538 174.63 353.483 153.471C345.468 138.131 331.545 129.918 321.877 134.97C307.586 142.437 287.392 131.44 276.337 110.282C268.322 94.9418 254.399 86.7289 244.731 91.7803C242.209 93.0981 239.422 91.8607 237.764 88.687C236.106 85.5132 236.681 82.5188 239.203 81.2011C253.074 73.9534 273.688 84.7306 284.744 105.889Z" fill="#37A3BB" fill-opacity="0.05"/>
</svg>
