<svg width="158" height="224" viewBox="0 0 158 224" fill="none" xmlns="http://www.w3.org/2000/svg">
<rect width="158" height="224" rx="5" fill="#FFD300"/>
<mask id="path-2-inside-1" fill="white">
<rect x="9" y="9" width="140" height="207" rx="2"/>
</mask>
<rect x="9" y="9" width="140" height="207" rx="2" fill="white" stroke="#2179B9" stroke-width="14" mask="url(#path-2-inside-1)"/>
<path d="M47.9283 47.288C46.7163 47.288 45.6243 47 44.6523 46.424C43.6803 45.836 42.9183 45.038 42.3663 44.03C41.8143 43.022 41.5383 41.912 41.5383 40.7C41.5383 39.536 41.8143 38.468 42.3663 37.496C42.9303 36.524 43.7103 35.756 44.7063 35.192C45.7023 34.628 46.8363 34.346 48.1083 34.346C48.8043 34.346 49.4763 34.424 50.1243 34.58C50.7843 34.736 51.3783 34.958 51.9063 35.246L50.7183 38.036C49.9023 37.7 49.1403 37.532 48.4323 37.532C47.5083 37.532 46.7943 37.832 46.2903 38.432C45.7863 39.02 45.5343 39.794 45.5343 40.754C45.5343 41.378 45.6483 41.942 45.8763 42.446C46.1043 42.938 46.4223 43.328 46.8303 43.616C47.2503 43.904 47.7243 44.048 48.2523 44.048C48.5403 44.048 48.7803 44.024 48.9723 43.976V41.078L52.0863 40.718V46.352C50.7303 46.976 49.3443 47.288 47.9283 47.288ZM59.5055 47.144C58.5095 47.144 57.6215 46.946 56.8415 46.55C56.0735 46.142 55.4735 45.59 55.0415 44.894C54.6095 44.186 54.3935 43.388 54.3935 42.5C54.3935 41.588 54.6155 40.778 55.0595 40.07C55.5035 39.362 56.1035 38.816 56.8595 38.432C57.6155 38.048 58.4555 37.856 59.3795 37.856C60.2675 37.856 61.0235 38.054 61.6475 38.45C62.2835 38.834 62.7575 39.362 63.0695 40.034C63.3815 40.694 63.5375 41.438 63.5375 42.266C63.5375 42.482 63.5255 42.638 63.5015 42.734L58.1015 43.436C58.2455 43.856 58.4795 44.162 58.8035 44.354C59.1275 44.534 59.5535 44.624 60.0815 44.624C60.8975 44.624 61.7795 44.414 62.7275 43.994L63.1775 46.406C62.0615 46.898 60.8375 47.144 59.5055 47.144ZM60.7475 41.168C60.5555 40.412 60.0995 40.034 59.3795 40.034C58.9475 40.034 58.6055 40.196 58.3535 40.52C58.1015 40.844 57.9695 41.264 57.9575 41.78L60.7475 41.168ZM65.9255 38.108H69.5435V39.944C69.9515 39.236 70.4135 38.714 70.9295 38.378C71.4575 38.03 72.0815 37.856 72.8015 37.856C73.5095 37.856 74.1215 38.036 74.6375 38.396C75.1655 38.744 75.5615 39.218 75.8255 39.818C76.5935 38.51 77.7095 37.856 79.1735 37.856C79.8695 37.856 80.4755 38.042 80.9915 38.414C81.5195 38.786 81.9275 39.326 82.2155 40.034C82.5035 40.73 82.6475 41.552 82.6475 42.5V47H78.8495V42.5C78.8495 41.888 78.7415 41.426 78.5255 41.114C78.3215 40.802 78.0335 40.646 77.6615 40.646C77.2535 40.646 76.8995 40.82 76.5995 41.168C76.3115 41.516 76.1675 41.936 76.1675 42.428V47H72.4055V42.5C72.4055 41.888 72.2975 41.426 72.0815 41.114C71.8775 40.802 71.5835 40.646 71.1995 40.646C70.7915 40.646 70.4435 40.82 70.1555 41.168C69.8675 41.516 69.7235 41.936 69.7235 42.428V47H65.9255V38.108ZM90.1421 47.144C89.1461 47.144 88.2581 46.946 87.4781 46.55C86.7101 46.142 86.1101 45.59 85.6781 44.894C85.2461 44.186 85.0301 43.388 85.0301 42.5C85.0301 41.588 85.2521 40.778 85.6961 40.07C86.1401 39.362 86.7401 38.816 87.4961 38.432C88.2521 38.048 89.0921 37.856 90.0161 37.856C90.9041 37.856 91.6601 38.054 92.2841 38.45C92.9201 38.834 93.3941 39.362 93.7061 40.034C94.0181 40.694 94.1741 41.438 94.1741 42.266C94.1741 42.482 94.1621 42.638 94.1381 42.734L88.7381 43.436C88.8821 43.856 89.1161 44.162 89.4401 44.354C89.7641 44.534 90.1901 44.624 90.7181 44.624C91.5341 44.624 92.4161 44.414 93.3641 43.994L93.8141 46.406C92.6981 46.898 91.4741 47.144 90.1421 47.144ZM91.3841 41.168C91.1921 40.412 90.7361 40.034 90.0161 40.034C89.5841 40.034 89.2421 40.196 88.9901 40.52C88.7381 40.844 88.6061 41.264 88.5941 41.78L91.3841 41.168ZM99.73 47.144C98.71 47.144 97.918 46.826 97.354 46.19C96.802 45.542 96.526 44.66 96.526 43.544V35.138L100.324 34.58V43.274C100.324 43.61 100.402 43.856 100.558 44.012C100.726 44.156 101.014 44.228 101.422 44.228C101.722 44.228 102.016 44.156 102.304 44.012L102.43 46.532C101.626 46.94 100.726 47.144 99.73 47.144ZM107.613 47.144C106.593 47.144 105.801 46.826 105.237 46.19C104.685 45.542 104.409 44.66 104.409 43.544V35.138L108.207 34.58V43.274C108.207 43.61 108.285 43.856 108.441 44.012C108.609 44.156 108.897 44.228 109.305 44.228C109.605 44.228 109.899 44.156 110.187 44.012L110.313 46.532C109.509 46.94 108.609 47.144 107.613 47.144ZM115.496 47.144C114.488 47.144 113.702 46.82 113.138 46.172C112.574 45.524 112.292 44.642 112.292 43.526V37.982H116.108V43.364C116.108 43.64 116.18 43.856 116.324 44.012C116.48 44.156 116.678 44.228 116.918 44.228C117.158 44.228 117.404 44.156 117.656 44.012L117.854 46.514C117.59 46.718 117.242 46.874 116.81 46.982C116.39 47.09 115.952 47.144 115.496 47.144ZM114.2 36.632C113.636 36.632 113.156 36.458 112.76 36.11C112.376 35.75 112.184 35.312 112.184 34.796C112.184 34.28 112.388 33.848 112.796 33.5C113.204 33.152 113.672 32.978 114.2 32.978C114.752 32.978 115.226 33.158 115.622 33.518C116.03 33.878 116.234 34.304 116.234 34.796C116.234 35.324 116.03 35.762 115.622 36.11C115.214 36.458 114.74 36.632 114.2 36.632Z" fill="#393A32"/>
<path d="M60.0514 171.748C59.6114 171.748 59.1914 171.704 58.7914 171.616L58.9834 169.84C59.2954 169.888 59.5834 169.912 59.8474 169.912C60.3434 169.912 60.7194 169.764 60.9754 169.468C61.2314 169.18 61.3834 168.692 61.4314 168.004C60.9594 168.668 60.2394 169 59.2714 169C58.7434 169 58.2554 168.864 57.8074 168.592C57.3674 168.32 57.0154 167.952 56.7514 167.488C56.4954 167.024 56.3674 166.516 56.3674 165.964C56.3674 165.404 56.4954 164.892 56.7514 164.428C57.0074 163.956 57.3554 163.584 57.7954 163.312C58.2434 163.04 58.7314 162.904 59.2594 162.904C59.7474 162.904 60.1714 163.032 60.5314 163.288C60.8994 163.536 61.1394 163.872 61.2514 164.296V162.904H63.7834V167.476C63.7834 168.876 63.4634 169.936 62.8234 170.656C62.1914 171.384 61.2674 171.748 60.0514 171.748ZM60.0514 167.2C60.3714 167.2 60.6474 167.088 60.8794 166.864C61.1114 166.632 61.2354 166.36 61.2514 166.048V165.952C61.2354 165.648 61.1074 165.38 60.8674 165.148C60.6354 164.916 60.3634 164.8 60.0514 164.8C59.7234 164.8 59.4434 164.92 59.2114 165.16C58.9794 165.392 58.8634 165.672 58.8634 166C58.8634 166.328 58.9794 166.612 59.2114 166.852C59.4434 167.084 59.7234 167.2 60.0514 167.2ZM68.3471 169.096C67.6831 169.096 67.0911 168.964 66.5711 168.7C66.0591 168.428 65.6591 168.06 65.3711 167.596C65.0831 167.124 64.9391 166.592 64.9391 166C64.9391 165.392 65.0871 164.852 65.3831 164.38C65.6791 163.908 66.0791 163.544 66.5831 163.288C67.0871 163.032 67.6471 162.904 68.2631 162.904C68.8551 162.904 69.3591 163.036 69.7751 163.3C70.1991 163.556 70.5151 163.908 70.7231 164.356C70.9311 164.796 71.0351 165.292 71.0351 165.844C71.0351 165.988 71.0271 166.092 71.0111 166.156L67.4111 166.624C67.5071 166.904 67.6631 167.108 67.8791 167.236C68.0951 167.356 68.3791 167.416 68.7311 167.416C69.2751 167.416 69.8631 167.276 70.4951 166.996L70.7951 168.604C70.0511 168.932 69.2351 169.096 68.3471 169.096ZM69.1751 165.112C69.0471 164.608 68.7431 164.356 68.2631 164.356C67.9751 164.356 67.7471 164.464 67.5791 164.68C67.4111 164.896 67.3231 165.176 67.3151 165.52L69.1751 165.112ZM72.1471 163.072H74.5591V164.296C74.8311 163.824 75.1391 163.476 75.4831 163.252C75.8351 163.02 76.2511 162.904 76.7311 162.904C77.2031 162.904 77.6111 163.024 77.9551 163.264C78.3071 163.496 78.5711 163.812 78.7471 164.212C79.2591 163.34 80.0031 162.904 80.9791 162.904C81.4431 162.904 81.8471 163.028 82.1911 163.276C82.5431 163.524 82.8151 163.884 83.0071 164.356C83.1991 164.82 83.2951 165.368 83.2951 166V169H80.7631V166C80.7631 165.592 80.6911 165.284 80.5471 165.076C80.4111 164.868 80.2191 164.764 79.9711 164.764C79.6991 164.764 79.4631 164.88 79.2631 165.112C79.0711 165.344 78.9751 165.624 78.9751 165.952V169H76.4671V166C76.4671 165.592 76.3951 165.284 76.2511 165.076C76.1151 164.868 75.9191 164.764 75.6631 164.764C75.3911 164.764 75.1591 164.88 74.9671 165.112C74.7751 165.344 74.6791 165.624 74.6791 165.952V169H72.1471V163.072ZM87.8115 169.096C87.1475 169.096 86.5555 168.964 86.0355 168.7C85.5235 168.428 85.1235 168.06 84.8355 167.596C84.5475 167.124 84.4035 166.592 84.4035 166C84.4035 165.392 84.5515 164.852 84.8475 164.38C85.1435 163.908 85.5435 163.544 86.0475 163.288C86.5515 163.032 87.1115 162.904 87.7275 162.904C88.3195 162.904 88.8235 163.036 89.2395 163.3C89.6635 163.556 89.9795 163.908 90.1875 164.356C90.3955 164.796 90.4995 165.292 90.4995 165.844C90.4995 165.988 90.4915 166.092 90.4755 166.156L86.8755 166.624C86.9715 166.904 87.1275 167.108 87.3435 167.236C87.5595 167.356 87.8435 167.416 88.1955 167.416C88.7395 167.416 89.3275 167.276 89.9595 166.996L90.2595 168.604C89.5155 168.932 88.6995 169.096 87.8115 169.096ZM88.6395 165.112C88.5115 164.608 88.2075 164.356 87.7275 164.356C87.4395 164.356 87.2115 164.464 87.0435 164.68C86.8755 164.896 86.7875 165.176 86.7795 165.52L88.6395 165.112ZM93.7235 169.096C93.0435 169.096 92.5155 168.884 92.1395 168.46C91.7715 168.028 91.5875 167.44 91.5875 166.696V161.092L94.1195 160.72V166.516C94.1195 166.74 94.1715 166.904 94.2755 167.008C94.3875 167.104 94.5795 167.152 94.8515 167.152C95.0515 167.152 95.2475 167.104 95.4395 167.008L95.5235 168.688C94.9875 168.96 94.3875 169.096 93.7235 169.096ZM98.4986 169.096C97.8186 169.096 97.2906 168.884 96.9146 168.46C96.5466 168.028 96.3626 167.44 96.3626 166.696V161.092L98.8946 160.72V166.516C98.8946 166.74 98.9466 166.904 99.0506 167.008C99.1626 167.104 99.3546 167.152 99.6266 167.152C99.8266 167.152 100.023 167.104 100.215 167.008L100.299 168.688C99.7626 168.96 99.1626 169.096 98.4986 169.096ZM103.274 169.096C102.602 169.096 102.078 168.88 101.702 168.448C101.326 168.016 101.138 167.428 101.138 166.684V162.988H103.682V166.576C103.682 166.76 103.73 166.904 103.826 167.008C103.93 167.104 104.062 167.152 104.222 167.152C104.382 167.152 104.546 167.104 104.714 167.008L104.846 168.676C104.67 168.812 104.438 168.916 104.15 168.988C103.87 169.06 103.578 169.096 103.274 169.096ZM102.41 162.088C102.034 162.088 101.714 161.972 101.45 161.74C101.194 161.5 101.066 161.208 101.066 160.864C101.066 160.52 101.202 160.232 101.474 160C101.746 159.768 102.058 159.652 102.41 159.652C102.778 159.652 103.094 159.772 103.358 160.012C103.63 160.252 103.766 160.536 103.766 160.864C103.766 161.216 103.63 161.508 103.358 161.74C103.086 161.972 102.77 162.088 102.41 162.088Z" fill="#2179B9"/>
<path d="M56.0231 184.672C56.0231 183.752 56.0751 183.092 56.1791 182.692C56.2911 182.284 56.5111 182.004 56.8391 181.852C57.1751 181.7 57.7231 181.624 58.4831 181.624V183.028C58.0751 183.028 57.8071 183.036 57.6791 183.052C57.5511 183.068 57.4671 183.116 57.4271 183.196C57.3871 183.276 57.3671 183.428 57.3671 183.652H58.4831V185.896H56.0231V184.672ZM59.1431 184.672C59.1431 183.752 59.1951 183.092 59.2991 182.692C59.4111 182.284 59.6311 182.004 59.9591 181.852C60.2951 181.7 60.8431 181.624 61.6031 181.624V183.028C61.1951 183.028 60.9271 183.036 60.7991 183.052C60.6711 183.068 60.5871 183.116 60.5471 183.196C60.5071 183.276 60.4871 183.428 60.4871 183.652H61.6031V185.896H59.1431V184.672ZM65.6074 190.096C64.9034 190.096 64.3554 189.896 63.9634 189.496C63.5714 189.088 63.3754 188.528 63.3754 187.816V185.476H62.6074V183.988H63.5554L64.6714 181.72H65.8834V183.988H67.2754V185.476H65.8834V187.516C65.8834 187.716 65.9474 187.872 66.0754 187.984C66.2034 188.096 66.3834 188.152 66.6154 188.152C66.8314 188.152 67.0274 188.104 67.2034 188.008L67.2994 189.688C67.0994 189.808 66.8394 189.908 66.5194 189.988C66.2074 190.06 65.9034 190.096 65.6074 190.096ZM68.0742 183.988H70.5222L71.2062 187.888L72.0342 183.988H74.0982L74.9382 187.984L75.6222 183.988H77.5902L76.3422 190H73.4742L72.8022 186.82L72.1662 190H69.3942L68.0742 183.988ZM80.7823 190.096C80.1103 190.096 79.5863 189.88 79.2103 189.448C78.8343 189.016 78.6463 188.428 78.6463 187.684V183.988H81.1903V187.576C81.1903 187.76 81.2383 187.904 81.3343 188.008C81.4383 188.104 81.5703 188.152 81.7303 188.152C81.8903 188.152 82.0543 188.104 82.2223 188.008L82.3543 189.676C82.1783 189.812 81.9463 189.916 81.6583 189.988C81.3783 190.06 81.0863 190.096 80.7823 190.096ZM79.9183 183.088C79.5423 183.088 79.2223 182.972 78.9583 182.74C78.7023 182.5 78.5743 182.208 78.5743 181.864C78.5743 181.52 78.7103 181.232 78.9823 181C79.2543 180.768 79.5663 180.652 79.9183 180.652C80.2863 180.652 80.6023 180.772 80.8663 181.012C81.1383 181.252 81.2743 181.536 81.2743 181.864C81.2743 182.216 81.1383 182.508 80.8663 182.74C80.5943 182.972 80.2783 183.088 79.9183 183.088ZM83.2931 184.072H85.7051V185.296C86.1691 184.368 86.9051 183.904 87.9131 183.904C88.6811 183.904 89.2811 184.18 89.7131 184.732C90.1531 185.276 90.3731 186.032 90.3731 187V190H87.8531V186.748C87.8531 186.404 87.7771 186.14 87.6251 185.956C87.4811 185.772 87.2771 185.68 87.0131 185.68C86.8211 185.68 86.6331 185.744 86.4491 185.872C86.2651 185.992 86.1131 186.168 85.9931 186.4C85.8811 186.632 85.8251 186.896 85.8251 187.192V190H83.2931V184.072ZM93.8474 190.096C93.0074 190.096 92.2714 189.972 91.6394 189.724L91.9154 188.296C92.4914 188.504 93.0514 188.608 93.5954 188.608C93.9954 188.608 94.1954 188.496 94.1954 188.272C94.1954 188.16 94.1354 188.068 94.0154 187.996C93.9034 187.924 93.6874 187.86 93.3674 187.804C92.7034 187.676 92.2234 187.46 91.9274 187.156C91.6394 186.852 91.4954 186.42 91.4954 185.86C91.5274 185.228 91.7794 184.744 92.2514 184.408C92.7234 184.072 93.3674 183.904 94.1834 183.904C94.5994 183.904 94.9554 183.932 95.2514 183.988C95.5554 184.036 95.8314 184.12 96.0794 184.24L95.8274 185.668C95.5954 185.58 95.3394 185.512 95.0594 185.464C94.7874 185.416 94.5594 185.392 94.3754 185.392C94.1034 185.392 93.9154 185.42 93.8114 185.476C93.7074 185.532 93.6554 185.608 93.6554 185.704C93.6554 185.88 93.8554 186.004 94.2554 186.076C94.9834 186.204 95.5274 186.428 95.8874 186.748C96.2474 187.068 96.4274 187.504 96.4274 188.056C96.4274 188.688 96.2034 189.188 95.7554 189.556C95.3154 189.916 94.6794 190.096 93.8474 190.096ZM97.4006 184.612C97.8086 184.612 98.0766 184.604 98.2046 184.588C98.3326 184.572 98.4166 184.524 98.4566 184.444C98.4966 184.364 98.5166 184.212 98.5166 183.988H97.4006V181.744H99.8606V182.968C99.8606 183.888 99.8046 184.552 99.6926 184.96C99.5886 185.36 99.3686 185.636 99.0326 185.788C98.7046 185.94 98.1606 186.016 97.4006 186.016V184.612ZM100.521 184.612C100.929 184.612 101.197 184.604 101.325 184.588C101.453 184.572 101.537 184.524 101.577 184.444C101.617 184.364 101.637 184.212 101.637 183.988H100.521V181.744H102.981V182.968C102.981 183.888 102.925 184.552 102.813 184.96C102.709 185.36 102.489 185.636 102.153 185.788C101.825 185.94 101.281 186.016 100.521 186.016V184.612Z" fill="#393A32"/>
<rect x="46" y="59.9014" width="65.45" height="0.897773" fill="#082D74"/>
<rect x="57.7808" y="59" width="13.9627" height="3.1422" fill="#3F8D43"/>
<rect x="71.7454" y="59" width="13.9627" height="3.1422" fill="white"/>
<rect x="85.7046" y="59" width="13.9627" height="3.1422" fill="#D12C29"/>
<path d="M109.828 130.843C111.168 132.319 111.939 134.224 112 136.217C111.969 137.931 111.417 139.596 110.418 140.99C109.419 142.384 108.02 143.441 106.406 144.022C102.811 145.29 99.5522 143.397 98.4564 142.762C92.6891 139.389 91.9778 132.189 91.9009 131.228" stroke="#1A1A1A" stroke-width="4" stroke-linecap="round" stroke-linejoin="round"/>
<path d="M63.5447 100.392C63.99 104.441 65.7962 108.22 68.668 111.109C70.6874 112.936 73.0406 114.356 75.5984 115.291C81.3658 117.761 82.6731 116.454 88.0944 118.713C93.0543 120.789 92.4679 122.106 96.9473 123.423C99.4657 124.163 101.311 124.249 104.637 125.681C107.165 126.768 108.482 127.306 109.203 128.652C110.923 131.679 109.203 137.207 105.685 138.264C104.76 138.535 103.776 138.536 102.851 138.265C101.926 137.994 101.098 137.463 100.465 136.736C99.6964 135.678 100.09 134.813 99.7829 133.852C98.6102 129.853 89.4689 131.324 83.8554 126.941C82.0194 125.441 79.7894 122.73 78.732 117.223" stroke="#1A1A1A" stroke-width="4" stroke-linecap="round" stroke-linejoin="round"/>
<path d="M85.4316 109.283C84.1821 103.631 81.7598 100.546 79.8662 98.8057C77.2805 96.4219 72.5032 94.7974 63.0447 91.635C58.0463 89.9624 54.0861 88.809 52.2982 85.1755C51.7821 84.1083 51.4878 82.9474 51.4331 81.7632" stroke="#1A1A1A" stroke-width="4" stroke-linecap="round" stroke-linejoin="round"/>
<path d="M69.7445 93.3553C68.9344 90.5049 67.6998 87.7927 66.0823 85.3099C64.5539 82.9837 61.4299 78.2064 55.8933 76.5339C54.242 75.8568 52.3971 75.8226 50.7219 76.4378C48.7321 77.3509 47.7517 79.3791 47.1173 80.696C46.4631 81.8783 46.0821 83.1921 46.0023 84.5409C45.9254 87.4246 47.819 89.645 49.5972 91.6155C51.7054 93.9309 54.2332 95.8259 57.0467 97.2002C61.9778 99.6514 63.1794 98.4402 67.7452 100.872C71.369 102.795 70.9076 103.756 74.7141 105.755C77.5977 107.283 78.559 107.12 84.2686 108.985C90.3244 110.907 93.3618 111.926 95.4573 113.656C97.1298 115.031 99.6579 117.751 101.071 123.096" stroke="#1A1A1A" stroke-width="4" stroke-linecap="round" stroke-linejoin="round"/>
</svg>
