<svg width="166" height="232" viewBox="0 0 166 232" fill="none" xmlns="http://www.w3.org/2000/svg">
<rect x="4" y="4" width="158" height="224" rx="5" fill="#FFF8F8" stroke="#F7575C" stroke-width="7"/>
<path d="M63.029 22.208C63.501 22.208 63.901 22.304 64.229 22.496C64.557 22.688 64.785 22.94 64.913 23.252L65.081 22.304H67.133L65.957 28.988C65.845 29.604 65.621 30.16 65.285 30.656C64.957 31.16 64.513 31.56 63.953 31.856C63.401 32.152 62.757 32.3 62.021 32.3C61.029 32.3 60.265 32.064 59.729 31.592C59.193 31.128 58.953 30.496 59.009 29.696H61.037C61.061 29.952 61.177 30.152 61.385 30.296C61.601 30.448 61.885 30.524 62.237 30.524C62.661 30.524 63.021 30.4 63.317 30.152C63.613 29.912 63.809 29.524 63.905 28.988L64.073 28.04C63.817 28.352 63.493 28.608 63.101 28.808C62.717 29 62.289 29.096 61.817 29.096C61.345 29.096 60.925 28.988 60.557 28.772C60.197 28.556 59.913 28.248 59.705 27.848C59.505 27.448 59.405 26.98 59.405 26.444C59.405 26.196 59.429 25.928 59.477 25.64C59.597 24.952 59.833 24.348 60.185 23.828C60.537 23.308 60.961 22.908 61.457 22.628C61.953 22.348 62.477 22.208 63.029 22.208ZM64.493 25.652C64.517 25.508 64.529 25.376 64.529 25.256C64.529 24.864 64.413 24.556 64.181 24.332C63.957 24.108 63.669 23.996 63.317 23.996C62.909 23.996 62.537 24.144 62.201 24.44C61.865 24.728 61.653 25.128 61.565 25.64C61.541 25.784 61.529 25.916 61.529 26.036C61.529 26.428 61.641 26.74 61.865 26.972C62.097 27.196 62.385 27.308 62.729 27.308C63.137 27.308 63.509 27.16 63.845 26.864C64.181 26.568 64.397 26.164 64.493 25.652ZM71.8456 22.208C72.7096 22.208 73.3936 22.444 73.8976 22.916C74.4096 23.38 74.6656 24.016 74.6656 24.824C74.6656 25.088 74.6456 25.324 74.6056 25.532C74.5736 25.716 74.5256 25.912 74.4616 26.12H69.8176C69.8096 26.168 69.8056 26.244 69.8056 26.348C69.8056 26.7 69.9016 26.968 70.0936 27.152C70.2856 27.336 70.5416 27.428 70.8616 27.428C71.3736 27.428 71.7656 27.212 72.0376 26.78H74.2216C73.9336 27.46 73.4656 28.016 72.8176 28.448C72.1696 28.88 71.4416 29.096 70.6336 29.096C69.7696 29.096 69.0776 28.856 68.5576 28.376C68.0456 27.896 67.7896 27.244 67.7896 26.42C67.7896 26.172 67.8136 25.916 67.8616 25.652C67.9816 24.956 68.2296 24.348 68.6056 23.828C68.9816 23.308 69.4496 22.908 70.0096 22.628C70.5696 22.348 71.1816 22.208 71.8456 22.208ZM72.5896 25.076C72.6056 24.964 72.6136 24.888 72.6136 24.848C72.6136 24.528 72.5136 24.284 72.3136 24.116C72.1136 23.94 71.8496 23.852 71.5216 23.852C71.1696 23.852 70.8576 23.96 70.5856 24.176C70.3216 24.384 70.1296 24.684 70.0096 25.076H72.5896ZM85.0481 22.232C85.7681 22.232 86.3281 22.424 86.7281 22.808C87.1361 23.184 87.3401 23.712 87.3401 24.392C87.3401 24.6 87.3161 24.832 87.2681 25.088L86.5721 29H84.5321L85.1801 25.364C85.1961 25.284 85.2041 25.176 85.2041 25.04C85.2041 24.704 85.1081 24.448 84.9161 24.272C84.7321 24.096 84.4721 24.008 84.1361 24.008C83.7361 24.008 83.4001 24.128 83.1281 24.368C82.8561 24.6 82.6841 24.932 82.6121 25.364L81.9641 29H79.9241L80.5721 25.364C80.5881 25.284 80.5961 25.176 80.5961 25.04C80.5961 24.704 80.5001 24.448 80.3081 24.272C80.1241 24.096 79.8641 24.008 79.5281 24.008C79.1281 24.008 78.7921 24.128 78.5201 24.368C78.2481 24.6 78.0761 24.932 78.0041 25.364V25.304L77.3561 29H75.3041L76.4801 22.304H78.5321L78.3881 23.156C78.6441 22.868 78.9521 22.644 79.3121 22.484C79.6801 22.316 80.0761 22.232 80.5001 22.232C81.0121 22.232 81.4441 22.34 81.7961 22.556C82.1561 22.772 82.4121 23.084 82.5641 23.492C82.8601 23.116 83.2281 22.812 83.6681 22.58C84.1081 22.348 84.5681 22.232 85.0481 22.232ZM92.4232 22.208C93.2872 22.208 93.9712 22.444 94.4752 22.916C94.9872 23.38 95.2432 24.016 95.2432 24.824C95.2432 25.088 95.2232 25.324 95.1832 25.532C95.1512 25.716 95.1032 25.912 95.0392 26.12H90.3952C90.3872 26.168 90.3832 26.244 90.3832 26.348C90.3832 26.7 90.4792 26.968 90.6712 27.152C90.8632 27.336 91.1192 27.428 91.4392 27.428C91.9512 27.428 92.3432 27.212 92.6152 26.78H94.7992C94.5112 27.46 94.0432 28.016 93.3952 28.448C92.7472 28.88 92.0192 29.096 91.2112 29.096C90.3472 29.096 89.6552 28.856 89.1352 28.376C88.6232 27.896 88.3672 27.244 88.3672 26.42C88.3672 26.172 88.3912 25.916 88.4392 25.652C88.5592 24.956 88.8072 24.348 89.1832 23.828C89.5592 23.308 90.0272 22.908 90.5872 22.628C91.1472 22.348 91.7592 22.208 92.4232 22.208ZM93.1672 25.076C93.1832 24.964 93.1912 24.888 93.1912 24.848C93.1912 24.528 93.0912 24.284 92.8912 24.116C92.6912 23.94 92.4272 23.852 92.0992 23.852C91.7472 23.852 91.4352 23.96 91.1632 24.176C90.8992 24.384 90.7072 24.684 90.5872 25.076H93.1672ZM99.5058 20.12L97.9338 29H95.8818L97.4538 20.12H99.5058ZM103.285 20.12L101.713 29H99.6608L101.233 20.12H103.285ZM105.78 21.608C105.46 21.608 105.204 21.524 105.012 21.356C104.828 21.18 104.736 20.96 104.736 20.696C104.736 20.336 104.876 20.028 105.156 19.772C105.436 19.516 105.776 19.388 106.176 19.388C106.496 19.388 106.748 19.476 106.932 19.652C107.116 19.82 107.208 20.04 107.208 20.312C107.208 20.664 107.068 20.968 106.788 21.224C106.508 21.48 106.172 21.608 105.78 21.608ZM106.668 22.304L105.492 29H103.44L104.616 22.304H106.668Z" fill="#3CAA90"/>
<path d="M61.0508 44.792H58.9508L60.2948 41.576H61.6748L61.0508 44.792ZM63.7748 44.792H61.6868L63.0308 41.576H64.3988L63.7748 44.792ZM69.703 48.26V50H68.659C67.915 50 67.335 49.82 66.919 49.46C66.503 49.092 66.295 48.496 66.295 47.672V45.008H65.479V43.304H66.295V41.672H68.347V43.304H69.691V45.008H68.347V47.696C68.347 47.896 68.395 48.04 68.491 48.128C68.587 48.216 68.747 48.26 68.971 48.26H69.703ZM80.698 43.304L78.886 50H76.618L75.562 45.656L74.47 50H72.214L70.39 43.304H72.442L73.39 48.092L74.518 43.304H76.69L77.83 48.068L78.766 43.304H80.698ZM82.7526 42.608C82.3926 42.608 82.0966 42.504 81.8646 42.296C81.6406 42.08 81.5286 41.816 81.5286 41.504C81.5286 41.184 81.6406 40.92 81.8646 40.712C82.0966 40.496 82.3926 40.388 82.7526 40.388C83.1046 40.388 83.3926 40.496 83.6166 40.712C83.8486 40.92 83.9646 41.184 83.9646 41.504C83.9646 41.816 83.8486 42.08 83.6166 42.296C83.3926 42.504 83.1046 42.608 82.7526 42.608ZM83.7726 43.304V50H81.7206V43.304H83.7726ZM89.5796 43.232C90.3636 43.232 90.9876 43.488 91.4516 44C91.9236 44.504 92.1596 45.2 92.1596 46.088V50H90.1196V46.364C90.1196 45.916 90.0036 45.568 89.7716 45.32C89.5396 45.072 89.2276 44.948 88.8356 44.948C88.4436 44.948 88.1316 45.072 87.8996 45.32C87.6676 45.568 87.5516 45.916 87.5516 46.364V50H85.4996V43.304H87.5516V44.192C87.7596 43.896 88.0396 43.664 88.3916 43.496C88.7436 43.32 89.1396 43.232 89.5796 43.232ZM96.5496 50.096C95.9656 50.096 95.4456 49.996 94.9896 49.796C94.5336 49.596 94.1736 49.324 93.9096 48.98C93.6456 48.628 93.4976 48.236 93.4656 47.804H95.4936C95.5176 48.036 95.6256 48.224 95.8176 48.368C96.0096 48.512 96.2456 48.584 96.5256 48.584C96.7816 48.584 96.9776 48.536 97.1136 48.44C97.2576 48.336 97.3296 48.204 97.3296 48.044C97.3296 47.852 97.2296 47.712 97.0296 47.624C96.8296 47.528 96.5056 47.424 96.0576 47.312C95.5776 47.2 95.1776 47.084 94.8576 46.964C94.5376 46.836 94.2616 46.64 94.0296 46.376C93.7976 46.104 93.6816 45.74 93.6816 45.284C93.6816 44.9 93.7856 44.552 93.9936 44.24C94.2096 43.92 94.5216 43.668 94.9296 43.484C95.3456 43.3 95.8376 43.208 96.4056 43.208C97.2456 43.208 97.9056 43.416 98.3856 43.832C98.8736 44.248 99.1536 44.8 99.2256 45.488H97.3296C97.2976 45.256 97.1936 45.072 97.0176 44.936C96.8496 44.8 96.6256 44.732 96.3456 44.732C96.1056 44.732 95.9216 44.78 95.7936 44.876C95.6656 44.964 95.6016 45.088 95.6016 45.248C95.6016 45.44 95.7016 45.584 95.9016 45.68C96.1096 45.776 96.4296 45.872 96.8616 45.968C97.3576 46.096 97.7616 46.224 98.0736 46.352C98.3856 46.472 98.6576 46.672 98.8896 46.952C99.1296 47.224 99.2536 47.592 99.2616 48.056C99.2616 48.448 99.1496 48.8 98.9256 49.112C98.7096 49.416 98.3936 49.656 97.9776 49.832C97.5696 50.008 97.0936 50.096 96.5496 50.096ZM101.225 41.576H103.325L101.981 44.792H100.601L101.225 41.576ZM103.949 41.576H106.049L104.705 44.792H103.325L103.949 41.576Z" fill="#393A32"/>
<rect x="24" y="169" width="118" height="40" rx="2" fill="#3CAA90" fill-opacity="0.1"/>
<path d="M53.2145 184.944C53.8439 184.944 54.3932 185.072 54.8625 185.328C55.3425 185.584 55.7105 185.92 55.9665 186.336V185.072H58.7025V193.984C58.7025 194.805 58.5372 195.547 58.2065 196.208C57.8865 196.88 57.3905 197.413 56.7185 197.808C56.0572 198.203 55.2305 198.4 54.2385 198.4C52.9159 198.4 51.8439 198.085 51.0225 197.456C50.2012 196.837 49.7319 195.995 49.6145 194.928H52.3185C52.4039 195.269 52.6065 195.536 52.9265 195.728C53.2465 195.931 53.6412 196.032 54.1105 196.032C54.6759 196.032 55.1239 195.867 55.4545 195.536C55.7959 195.216 55.9665 194.699 55.9665 193.984V192.72C55.6999 193.136 55.3319 193.477 54.8625 193.744C54.3932 194 53.8439 194.128 53.2145 194.128C52.4785 194.128 51.8119 193.941 51.2145 193.568C50.6172 193.184 50.1425 192.645 49.7905 191.952C49.4492 191.248 49.2785 190.437 49.2785 189.52C49.2785 188.603 49.4492 187.797 49.7905 187.104C50.1425 186.411 50.6172 185.877 51.2145 185.504C51.8119 185.131 52.4785 184.944 53.2145 184.944ZM55.9665 189.536C55.9665 188.853 55.7745 188.315 55.3905 187.92C55.0172 187.525 54.5585 187.328 54.0145 187.328C53.4705 187.328 53.0065 187.525 52.6225 187.92C52.2492 188.304 52.0625 188.837 52.0625 189.52C52.0625 190.203 52.2492 190.747 52.6225 191.152C53.0065 191.547 53.4705 191.744 54.0145 191.744C54.5585 191.744 55.0172 191.547 55.3905 191.152C55.7745 190.757 55.9665 190.219 55.9665 189.536ZM70.0579 189.392C70.0579 189.648 70.0419 189.915 70.0099 190.192H63.8179C63.8606 190.747 64.0366 191.173 64.3459 191.472C64.6659 191.76 65.0552 191.904 65.5139 191.904C66.1966 191.904 66.6712 191.616 66.9379 191.04H69.8499C69.7006 191.627 69.4286 192.155 69.0339 192.624C68.6499 193.093 68.1646 193.461 67.5779 193.728C66.9912 193.995 66.3352 194.128 65.6099 194.128C64.7352 194.128 63.9566 193.941 63.2739 193.568C62.5912 193.195 62.0579 192.661 61.6739 191.968C61.2899 191.275 61.0979 190.464 61.0979 189.536C61.0979 188.608 61.2846 187.797 61.6579 187.104C62.0419 186.411 62.5752 185.877 63.2579 185.504C63.9406 185.131 64.7246 184.944 65.6099 184.944C66.4739 184.944 67.2419 185.125 67.9139 185.488C68.5859 185.851 69.1086 186.368 69.4819 187.04C69.8659 187.712 70.0579 188.496 70.0579 189.392ZM67.2579 188.672C67.2579 188.203 67.0979 187.829 66.7779 187.552C66.4579 187.275 66.0579 187.136 65.5779 187.136C65.1192 187.136 64.7299 187.269 64.4099 187.536C64.1006 187.803 63.9086 188.181 63.8339 188.672H67.2579ZM83.8533 184.976C84.9626 184.976 85.8426 185.312 86.4933 185.984C87.1546 186.656 87.4853 187.589 87.4853 188.784V194H84.7653V189.152C84.7653 188.576 84.6106 188.133 84.3013 187.824C84.0026 187.504 83.5866 187.344 83.0533 187.344C82.5199 187.344 82.0986 187.504 81.7893 187.824C81.4906 188.133 81.3413 188.576 81.3413 189.152V194H78.6213V189.152C78.6213 188.576 78.4666 188.133 78.1573 187.824C77.8586 187.504 77.4426 187.344 76.9093 187.344C76.3759 187.344 75.9546 187.504 75.6453 187.824C75.3466 188.133 75.1973 188.576 75.1973 189.152V194H72.4613V185.072H75.1973V186.192C75.4746 185.819 75.8373 185.525 76.2853 185.312C76.7333 185.088 77.2399 184.976 77.8053 184.976C78.4773 184.976 79.0746 185.12 79.5973 185.408C80.1306 185.696 80.5466 186.107 80.8453 186.64C81.1546 186.149 81.5759 185.749 82.1093 185.44C82.6426 185.131 83.2239 184.976 83.8533 184.976ZM98.7748 189.392C98.7748 189.648 98.7588 189.915 98.7268 190.192H92.5348C92.5774 190.747 92.7534 191.173 93.0628 191.472C93.3828 191.76 93.7721 191.904 94.2308 191.904C94.9134 191.904 95.3881 191.616 95.6548 191.04H98.5668C98.4174 191.627 98.1454 192.155 97.7508 192.624C97.3668 193.093 96.8814 193.461 96.2948 193.728C95.7081 193.995 95.0521 194.128 94.3268 194.128C93.4521 194.128 92.6734 193.941 91.9908 193.568C91.3081 193.195 90.7748 192.661 90.3908 191.968C90.0068 191.275 89.8148 190.464 89.8148 189.536C89.8148 188.608 90.0014 187.797 90.3748 187.104C90.7588 186.411 91.2921 185.877 91.9748 185.504C92.6574 185.131 93.4414 184.944 94.3268 184.944C95.1908 184.944 95.9588 185.125 96.6308 185.488C97.3028 185.851 97.8254 186.368 98.1988 187.04C98.5828 187.712 98.7748 188.496 98.7748 189.392ZM95.9748 188.672C95.9748 188.203 95.8148 187.829 95.4948 187.552C95.1748 187.275 94.7748 187.136 94.2948 187.136C93.8361 187.136 93.4468 187.269 93.1268 187.536C92.8174 187.803 92.6254 188.181 92.5508 188.672H95.9748ZM103.914 182.16V194H101.178V182.16H103.914ZM109.593 182.16V194H106.857V182.16H109.593ZM113.912 184.144C113.432 184.144 113.037 184.005 112.728 183.728C112.429 183.44 112.28 183.088 112.28 182.672C112.28 182.245 112.429 181.893 112.728 181.616C113.037 181.328 113.432 181.184 113.912 181.184C114.381 181.184 114.765 181.328 115.064 181.616C115.373 181.893 115.528 182.245 115.528 182.672C115.528 183.088 115.373 183.44 115.064 183.728C114.765 184.005 114.381 184.144 113.912 184.144ZM115.272 185.072V194H112.536V185.072H115.272Z" fill="#393A32"/>
<path d="M108.859 138.324C109.845 140.149 110.147 142.265 109.711 144.293C109.252 146.017 108.279 147.56 106.922 148.719C105.565 149.877 103.887 150.595 102.113 150.779C98.1652 151.163 95.347 148.437 94.3987 147.522C89.4164 142.675 90.4956 135.226 90.6579 134.236" stroke="#393A32" stroke-width="4" stroke-linecap="round" stroke-linejoin="round"/>
<path d="M69.719 96.0142C69.1577 100.215 70.0385 104.482 72.2174 108.117C73.8006 110.467 75.8228 112.488 78.1727 114.071C83.3806 118.005 85.0272 117.012 89.9384 120.646C94.4292 123.982 93.5083 125.165 97.7033 127.614C100.062 128.99 101.904 129.538 104.906 131.815C107.187 133.543 108.383 134.415 108.775 135.954C109.757 139.442 106.639 144.594 102.822 144.784C101.82 144.827 100.827 144.582 99.9601 144.077C99.0934 143.573 98.3897 142.83 97.9325 141.937C97.4199 140.677 98.0339 139.902 97.9632 138.854C97.7772 134.523 88.178 133.726 83.603 127.898C82.1232 125.925 80.5478 122.631 80.855 116.804" stroke="#393A32" stroke-width="4" stroke-linecap="round" stroke-linejoin="round"/>
<path d="M89.6036 110.458C89.7528 104.438 88.0768 100.717 86.5987 98.4875C84.5825 95.4344 80.1633 92.601 71.4005 87.0457C66.77 84.1086 63.0584 81.9549 62.1599 77.839C61.9051 76.6323 61.8977 75.3864 62.1382 74.1768" stroke="#393A32" stroke-width="4" stroke-linecap="round" stroke-linejoin="round"/>
<path d="M77.7372 90.4561C77.6306 87.3751 77.0609 84.3277 76.0472 81.4163C75.0845 78.6854 73.1222 73.0807 67.9481 70.0092C66.4495 68.9132 64.5948 68.418 62.7493 68.621C60.5118 69.0465 59.0153 70.85 58.0458 72.0216C57.0899 73.0523 56.3771 74.284 55.9597 75.6263C55.1621 78.5194 56.5202 81.2347 57.8241 83.6688C59.3751 86.5335 61.4549 89.0784 63.9533 91.1689C68.3214 94.8755 69.8373 93.9523 73.8413 97.5483C77.0211 100.395 76.3151 101.25 79.6602 104.22C82.191 106.483 83.2026 106.558 88.5034 109.867C94.1393 113.321 96.9526 115.108 98.6369 117.379C99.9828 119.184 101.857 122.563 101.95 128.313" stroke="#393A32" stroke-width="4" stroke-linecap="round" stroke-linejoin="round"/>
</svg>
