<svg width="158" height="224" viewBox="0 0 158 224" fill="none" xmlns="http://www.w3.org/2000/svg">
<rect width="158" height="224" rx="5" fill="#FFD300"/>
<mask id="path-2-inside-1" fill="white">
<rect x="9" y="9" width="140" height="207" rx="2"/>
</mask>
<rect x="9" y="9" width="140" height="207" rx="2" fill="white" stroke="#2179B9" stroke-width="14" mask="url(#path-2-inside-1)"/>
<path d="M60.5514 174.748C60.1114 174.748 59.6914 174.704 59.2914 174.616L59.4834 172.84C59.7954 172.888 60.0834 172.912 60.3474 172.912C60.8434 172.912 61.2194 172.764 61.4754 172.468C61.7314 172.18 61.8834 171.692 61.9314 171.004C61.4594 171.668 60.7394 172 59.7714 172C59.2434 172 58.7554 171.864 58.3074 171.592C57.8674 171.32 57.5154 170.952 57.2514 170.488C56.9954 170.024 56.8674 169.516 56.8674 168.964C56.8674 168.404 56.9954 167.892 57.2514 167.428C57.5074 166.956 57.8554 166.584 58.2954 166.312C58.7434 166.04 59.2314 165.904 59.7594 165.904C60.2474 165.904 60.6714 166.032 61.0314 166.288C61.3994 166.536 61.6394 166.872 61.7514 167.296V165.904H64.2834V170.476C64.2834 171.876 63.9634 172.936 63.3234 173.656C62.6914 174.384 61.7674 174.748 60.5514 174.748ZM60.5514 170.2C60.8714 170.2 61.1474 170.088 61.3794 169.864C61.6114 169.632 61.7354 169.36 61.7514 169.048V168.952C61.7354 168.648 61.6074 168.38 61.3674 168.148C61.1354 167.916 60.8634 167.8 60.5514 167.8C60.2234 167.8 59.9434 167.92 59.7114 168.16C59.4794 168.392 59.3634 168.672 59.3634 169C59.3634 169.328 59.4794 169.612 59.7114 169.852C59.9434 170.084 60.2234 170.2 60.5514 170.2ZM68.8471 172.096C68.1831 172.096 67.5911 171.964 67.0711 171.7C66.5591 171.428 66.1591 171.06 65.8711 170.596C65.5831 170.124 65.4391 169.592 65.4391 169C65.4391 168.392 65.5871 167.852 65.8831 167.38C66.1791 166.908 66.5791 166.544 67.0831 166.288C67.5871 166.032 68.1471 165.904 68.7631 165.904C69.3551 165.904 69.8591 166.036 70.2751 166.3C70.6991 166.556 71.0151 166.908 71.2231 167.356C71.4311 167.796 71.5351 168.292 71.5351 168.844C71.5351 168.988 71.5271 169.092 71.5111 169.156L67.9111 169.624C68.0071 169.904 68.1631 170.108 68.3791 170.236C68.5951 170.356 68.8791 170.416 69.2311 170.416C69.7751 170.416 70.3631 170.276 70.9951 169.996L71.2951 171.604C70.5511 171.932 69.7351 172.096 68.8471 172.096ZM69.6751 168.112C69.5471 167.608 69.2431 167.356 68.7631 167.356C68.4751 167.356 68.2471 167.464 68.0791 167.68C67.9111 167.896 67.8231 168.176 67.8151 168.52L69.6751 168.112ZM72.6471 166.072H75.0591V167.296C75.3311 166.824 75.6391 166.476 75.9831 166.252C76.3351 166.02 76.7511 165.904 77.2311 165.904C77.7031 165.904 78.1111 166.024 78.4551 166.264C78.8071 166.496 79.0711 166.812 79.2471 167.212C79.7591 166.34 80.5031 165.904 81.4791 165.904C81.9431 165.904 82.3471 166.028 82.6911 166.276C83.0431 166.524 83.3151 166.884 83.5071 167.356C83.6991 167.82 83.7951 168.368 83.7951 169V172H81.2631V169C81.2631 168.592 81.1911 168.284 81.0471 168.076C80.9111 167.868 80.7191 167.764 80.4711 167.764C80.1991 167.764 79.9631 167.88 79.7631 168.112C79.5711 168.344 79.4751 168.624 79.4751 168.952V172H76.9671V169C76.9671 168.592 76.8951 168.284 76.7511 168.076C76.6151 167.868 76.4191 167.764 76.1631 167.764C75.8911 167.764 75.6591 167.88 75.4671 168.112C75.2751 168.344 75.1791 168.624 75.1791 168.952V172H72.6471V166.072ZM88.3115 172.096C87.6475 172.096 87.0555 171.964 86.5355 171.7C86.0235 171.428 85.6235 171.06 85.3355 170.596C85.0475 170.124 84.9035 169.592 84.9035 169C84.9035 168.392 85.0515 167.852 85.3475 167.38C85.6435 166.908 86.0435 166.544 86.5475 166.288C87.0515 166.032 87.6115 165.904 88.2275 165.904C88.8195 165.904 89.3235 166.036 89.7395 166.3C90.1635 166.556 90.4795 166.908 90.6875 167.356C90.8955 167.796 90.9995 168.292 90.9995 168.844C90.9995 168.988 90.9915 169.092 90.9755 169.156L87.3755 169.624C87.4715 169.904 87.6275 170.108 87.8435 170.236C88.0595 170.356 88.3435 170.416 88.6955 170.416C89.2395 170.416 89.8275 170.276 90.4595 169.996L90.7595 171.604C90.0155 171.932 89.1995 172.096 88.3115 172.096ZM89.1395 168.112C89.0115 167.608 88.7075 167.356 88.2275 167.356C87.9395 167.356 87.7115 167.464 87.5435 167.68C87.3755 167.896 87.2875 168.176 87.2795 168.52L89.1395 168.112ZM94.2235 172.096C93.5435 172.096 93.0155 171.884 92.6395 171.46C92.2715 171.028 92.0875 170.44 92.0875 169.696V164.092L94.6195 163.72V169.516C94.6195 169.74 94.6715 169.904 94.7755 170.008C94.8875 170.104 95.0795 170.152 95.3515 170.152C95.5515 170.152 95.7475 170.104 95.9395 170.008L96.0235 171.688C95.4875 171.96 94.8875 172.096 94.2235 172.096ZM98.9986 172.096C98.3186 172.096 97.7906 171.884 97.4146 171.46C97.0466 171.028 96.8626 170.44 96.8626 169.696V164.092L99.3946 163.72V169.516C99.3946 169.74 99.4466 169.904 99.5506 170.008C99.6626 170.104 99.8546 170.152 100.127 170.152C100.327 170.152 100.523 170.104 100.715 170.008L100.799 171.688C100.263 171.96 99.6626 172.096 98.9986 172.096ZM103.774 172.096C103.102 172.096 102.578 171.88 102.202 171.448C101.826 171.016 101.638 170.428 101.638 169.684V165.988H104.182V169.576C104.182 169.76 104.23 169.904 104.326 170.008C104.43 170.104 104.562 170.152 104.722 170.152C104.882 170.152 105.046 170.104 105.214 170.008L105.346 171.676C105.17 171.812 104.938 171.916 104.65 171.988C104.37 172.06 104.078 172.096 103.774 172.096ZM102.91 165.088C102.534 165.088 102.214 164.972 101.95 164.74C101.694 164.5 101.566 164.208 101.566 163.864C101.566 163.52 101.702 163.232 101.974 163C102.246 162.768 102.558 162.652 102.91 162.652C103.278 162.652 103.594 162.772 103.858 163.012C104.13 163.252 104.266 163.536 104.266 163.864C104.266 164.216 104.13 164.508 103.858 164.74C103.586 164.972 103.27 165.088 102.91 165.088Z" fill="#2179B9"/>
<path d="M57.0231 187.672C57.0231 186.752 57.0751 186.092 57.1791 185.692C57.2911 185.284 57.5111 185.004 57.8391 184.852C58.1751 184.7 58.7231 184.624 59.4831 184.624V186.028C59.0751 186.028 58.8071 186.036 58.6791 186.052C58.5511 186.068 58.4671 186.116 58.4271 186.196C58.3871 186.276 58.3671 186.428 58.3671 186.652H59.4831V188.896H57.0231V187.672ZM60.1431 187.672C60.1431 186.752 60.1951 186.092 60.2991 185.692C60.4111 185.284 60.6311 185.004 60.9591 184.852C61.2951 184.7 61.8431 184.624 62.6031 184.624V186.028C62.1951 186.028 61.9271 186.036 61.7991 186.052C61.6711 186.068 61.5871 186.116 61.5471 186.196C61.5071 186.276 61.4871 186.428 61.4871 186.652H62.6031V188.896H60.1431V187.672ZM66.6074 193.096C65.9034 193.096 65.3554 192.896 64.9634 192.496C64.5714 192.088 64.3754 191.528 64.3754 190.816V188.476H63.6074V186.988H64.5554L65.6714 184.72H66.8834V186.988H68.2754V188.476H66.8834V190.516C66.8834 190.716 66.9474 190.872 67.0754 190.984C67.2034 191.096 67.3834 191.152 67.6154 191.152C67.8314 191.152 68.0274 191.104 68.2034 191.008L68.2994 192.688C68.0994 192.808 67.8394 192.908 67.5194 192.988C67.2074 193.06 66.9034 193.096 66.6074 193.096ZM69.0742 186.988H71.5222L72.2062 190.888L73.0342 186.988H75.0982L75.9382 190.984L76.6222 186.988H78.5902L77.3422 193H74.4742L73.8022 189.82L73.1662 193H70.3942L69.0742 186.988ZM81.7823 193.096C81.1103 193.096 80.5863 192.88 80.2103 192.448C79.8343 192.016 79.6463 191.428 79.6463 190.684V186.988H82.1903V190.576C82.1903 190.76 82.2383 190.904 82.3343 191.008C82.4383 191.104 82.5703 191.152 82.7303 191.152C82.8903 191.152 83.0543 191.104 83.2223 191.008L83.3543 192.676C83.1783 192.812 82.9463 192.916 82.6583 192.988C82.3783 193.06 82.0863 193.096 81.7823 193.096ZM80.9183 186.088C80.5423 186.088 80.2223 185.972 79.9583 185.74C79.7023 185.5 79.5743 185.208 79.5743 184.864C79.5743 184.52 79.7103 184.232 79.9823 184C80.2543 183.768 80.5663 183.652 80.9183 183.652C81.2863 183.652 81.6023 183.772 81.8663 184.012C82.1383 184.252 82.2743 184.536 82.2743 184.864C82.2743 185.216 82.1383 185.508 81.8663 185.74C81.5943 185.972 81.2783 186.088 80.9183 186.088ZM84.2931 187.072H86.7051V188.296C87.1691 187.368 87.9051 186.904 88.9131 186.904C89.6811 186.904 90.2811 187.18 90.7131 187.732C91.1531 188.276 91.3731 189.032 91.3731 190V193H88.8531V189.748C88.8531 189.404 88.7771 189.14 88.6251 188.956C88.4811 188.772 88.2771 188.68 88.0131 188.68C87.8211 188.68 87.6331 188.744 87.4491 188.872C87.2651 188.992 87.1131 189.168 86.9931 189.4C86.8811 189.632 86.8251 189.896 86.8251 190.192V193H84.2931V187.072ZM94.8474 193.096C94.0074 193.096 93.2714 192.972 92.6394 192.724L92.9154 191.296C93.4914 191.504 94.0514 191.608 94.5954 191.608C94.9954 191.608 95.1954 191.496 95.1954 191.272C95.1954 191.16 95.1354 191.068 95.0154 190.996C94.9034 190.924 94.6874 190.86 94.3674 190.804C93.7034 190.676 93.2234 190.46 92.9274 190.156C92.6394 189.852 92.4954 189.42 92.4954 188.86C92.5274 188.228 92.7794 187.744 93.2514 187.408C93.7234 187.072 94.3674 186.904 95.1834 186.904C95.5994 186.904 95.9554 186.932 96.2514 186.988C96.5554 187.036 96.8314 187.12 97.0794 187.24L96.8274 188.668C96.5954 188.58 96.3394 188.512 96.0594 188.464C95.7874 188.416 95.5594 188.392 95.3754 188.392C95.1034 188.392 94.9154 188.42 94.8114 188.476C94.7074 188.532 94.6554 188.608 94.6554 188.704C94.6554 188.88 94.8554 189.004 95.2554 189.076C95.9834 189.204 96.5274 189.428 96.8874 189.748C97.2474 190.068 97.4274 190.504 97.4274 191.056C97.4274 191.688 97.2034 192.188 96.7554 192.556C96.3154 192.916 95.6794 193.096 94.8474 193.096ZM98.4006 187.612C98.8086 187.612 99.0766 187.604 99.2046 187.588C99.3326 187.572 99.4166 187.524 99.4566 187.444C99.4966 187.364 99.5166 187.212 99.5166 186.988H98.4006V184.744H100.861V185.968C100.861 186.888 100.805 187.552 100.693 187.96C100.589 188.36 100.369 188.636 100.033 188.788C99.7046 188.94 99.1606 189.016 98.4006 189.016V187.612ZM101.521 187.612C101.929 187.612 102.197 187.604 102.325 187.588C102.453 187.572 102.537 187.524 102.577 187.444C102.617 187.364 102.637 187.212 102.637 186.988H101.521V184.744H103.981V185.968C103.981 186.888 103.925 187.552 103.813 187.96C103.709 188.36 103.489 188.636 103.153 188.788C102.825 188.94 102.281 189.016 101.521 189.016V187.612Z" fill="#393A32"/>
<path d="M47.6829 134.288C46.4709 134.288 45.3789 134 44.4069 133.424C43.4349 132.836 42.6729 132.038 42.1209 131.03C41.5689 130.022 41.2929 128.912 41.2929 127.7C41.2929 126.536 41.5689 125.468 42.1209 124.496C42.6849 123.524 43.4649 122.756 44.4609 122.192C45.4569 121.628 46.5909 121.346 47.8629 121.346C48.5589 121.346 49.2309 121.424 49.8789 121.58C50.5389 121.736 51.1329 121.958 51.6609 122.246L50.4729 125.036C49.6569 124.7 48.8949 124.532 48.1869 124.532C47.2629 124.532 46.5489 124.832 46.0449 125.432C45.5409 126.02 45.2889 126.794 45.2889 127.754C45.2889 128.378 45.4029 128.942 45.6309 129.446C45.8589 129.938 46.1769 130.328 46.5849 130.616C47.0049 130.904 47.4789 131.048 48.0069 131.048C48.2949 131.048 48.5349 131.024 48.7269 130.976V128.078L51.8409 127.718V133.352C50.4849 133.976 49.0989 134.288 47.6829 134.288ZM59.2601 134.144C58.2641 134.144 57.3761 133.946 56.5961 133.55C55.8281 133.142 55.2281 132.59 54.7961 131.894C54.3641 131.186 54.1481 130.388 54.1481 129.5C54.1481 128.588 54.3701 127.778 54.8141 127.07C55.2581 126.362 55.8581 125.816 56.6141 125.432C57.3701 125.048 58.2101 124.856 59.1341 124.856C60.0221 124.856 60.7781 125.054 61.4021 125.45C62.0381 125.834 62.5121 126.362 62.8241 127.034C63.1361 127.694 63.2921 128.438 63.2921 129.266C63.2921 129.482 63.2801 129.638 63.2561 129.734L57.8561 130.436C58.0001 130.856 58.2341 131.162 58.5581 131.354C58.8821 131.534 59.3081 131.624 59.8361 131.624C60.6521 131.624 61.5341 131.414 62.4821 130.994L62.9321 133.406C61.8161 133.898 60.5921 134.144 59.2601 134.144ZM60.5021 128.168C60.3101 127.412 59.8541 127.034 59.1341 127.034C58.7021 127.034 58.3601 127.196 58.1081 127.52C57.8561 127.844 57.7241 128.264 57.7121 128.78L60.5021 128.168ZM65.6801 125.108H69.2981V126.944C69.7061 126.236 70.1681 125.714 70.6841 125.378C71.2121 125.03 71.8361 124.856 72.5561 124.856C73.2641 124.856 73.8761 125.036 74.3921 125.396C74.9201 125.744 75.3161 126.218 75.5801 126.818C76.3481 125.51 77.4641 124.856 78.9281 124.856C79.6241 124.856 80.2301 125.042 80.7461 125.414C81.2741 125.786 81.6821 126.326 81.9701 127.034C82.2581 127.73 82.4021 128.552 82.4021 129.5V134H78.6041V129.5C78.6041 128.888 78.4961 128.426 78.2801 128.114C78.0761 127.802 77.7881 127.646 77.4161 127.646C77.0081 127.646 76.6541 127.82 76.3541 128.168C76.0661 128.516 75.9221 128.936 75.9221 129.428V134H72.1601V129.5C72.1601 128.888 72.0521 128.426 71.8361 128.114C71.6321 127.802 71.3381 127.646 70.9541 127.646C70.5461 127.646 70.1981 127.82 69.9101 128.168C69.6221 128.516 69.4781 128.936 69.4781 129.428V134H65.6801V125.108ZM89.8967 134.144C88.9007 134.144 88.0127 133.946 87.2327 133.55C86.4647 133.142 85.8647 132.59 85.4327 131.894C85.0007 131.186 84.7847 130.388 84.7847 129.5C84.7847 128.588 85.0067 127.778 85.4507 127.07C85.8947 126.362 86.4947 125.816 87.2507 125.432C88.0067 125.048 88.8467 124.856 89.7707 124.856C90.6587 124.856 91.4147 125.054 92.0387 125.45C92.6747 125.834 93.1487 126.362 93.4607 127.034C93.7727 127.694 93.9287 128.438 93.9287 129.266C93.9287 129.482 93.9167 129.638 93.8927 129.734L88.4927 130.436C88.6367 130.856 88.8707 131.162 89.1947 131.354C89.5187 131.534 89.9447 131.624 90.4727 131.624C91.2887 131.624 92.1707 131.414 93.1187 130.994L93.5687 133.406C92.4527 133.898 91.2287 134.144 89.8967 134.144ZM91.1387 128.168C90.9467 127.412 90.4907 127.034 89.7707 127.034C89.3387 127.034 88.9967 127.196 88.7447 127.52C88.4927 127.844 88.3607 128.264 88.3487 128.78L91.1387 128.168ZM99.4846 134.144C98.4646 134.144 97.6726 133.826 97.1086 133.19C96.5566 132.542 96.2806 131.66 96.2806 130.544V122.138L100.079 121.58V130.274C100.079 130.61 100.157 130.856 100.313 131.012C100.481 131.156 100.769 131.228 101.177 131.228C101.477 131.228 101.771 131.156 102.059 131.012L102.185 133.532C101.381 133.94 100.481 134.144 99.4846 134.144ZM107.367 134.144C106.347 134.144 105.555 133.826 104.991 133.19C104.439 132.542 104.163 131.66 104.163 130.544V122.138L107.961 121.58V130.274C107.961 130.61 108.039 130.856 108.195 131.012C108.363 131.156 108.651 131.228 109.059 131.228C109.359 131.228 109.653 131.156 109.941 131.012L110.067 133.532C109.263 133.94 108.363 134.144 107.367 134.144ZM115.25 134.144C114.242 134.144 113.456 133.82 112.892 133.172C112.328 132.524 112.046 131.642 112.046 130.526V124.982H115.862V130.364C115.862 130.64 115.934 130.856 116.078 131.012C116.234 131.156 116.432 131.228 116.672 131.228C116.912 131.228 117.158 131.156 117.41 131.012L117.608 133.514C117.344 133.718 116.996 133.874 116.564 133.982C116.144 134.09 115.706 134.144 115.25 134.144ZM113.954 123.632C113.39 123.632 112.91 123.458 112.514 123.11C112.13 122.75 111.938 122.312 111.938 121.796C111.938 121.28 112.142 120.848 112.55 120.5C112.958 120.152 113.426 119.978 113.954 119.978C114.506 119.978 114.98 120.158 115.376 120.518C115.784 120.878 115.988 121.304 115.988 121.796C115.988 122.324 115.784 122.762 115.376 123.11C114.968 123.458 114.494 123.632 113.954 123.632Z" fill="#393A32"/>
<rect x="46" y="145.901" width="65.45" height="0.897773" fill="#082D74"/>
<rect x="57.7808" y="145" width="13.9627" height="3.1422" fill="#3F8D43"/>
<rect x="71.7454" y="145" width="13.9627" height="3.1422" fill="white"/>
<rect x="85.7046" y="145" width="13.9627" height="3.1422" fill="#D12C29"/>
<path d="M108.828 88.6045C110.168 90.0798 110.939 91.9851 111 93.9777C110.969 95.6925 110.417 97.3572 109.418 98.7511C108.419 100.145 107.02 101.202 105.406 101.783C101.811 103.052 98.5522 101.158 97.4564 100.524C91.6891 97.1498 90.9778 89.9502 90.9009 88.989" stroke="#1A1A1A" stroke-width="4" stroke-linecap="round" stroke-linejoin="round"/>
<path d="M62.5447 58.1528C62.99 62.2023 64.7962 65.9809 67.668 68.8705C69.6874 70.6975 72.0406 72.1173 74.5984 73.0518C80.3658 75.5222 81.6731 74.2149 87.0944 76.4738C92.0543 78.55 91.4679 79.8669 95.9473 81.1838C98.4657 81.9239 100.311 82.0104 103.637 83.4427C106.165 84.5289 107.482 85.0671 108.203 86.4129C109.923 89.4407 108.203 94.9678 104.685 96.0251C103.76 96.2966 102.776 96.2969 101.851 96.0259C100.926 95.755 100.098 95.2243 99.4653 94.4968C98.6964 93.4394 99.0905 92.5743 98.7829 91.6131C97.6102 87.6144 88.4689 89.0851 82.8554 84.7019C81.0194 83.2024 78.7894 80.4917 77.732 74.9839" stroke="#1A1A1A" stroke-width="4" stroke-linecap="round" stroke-linejoin="round"/>
<path d="M84.4316 67.0443C83.1821 61.3923 80.7598 58.3068 78.8662 56.5669C76.2805 54.1831 71.5032 52.5586 62.0447 49.3962C57.0463 47.7237 53.0861 46.5702 51.2982 42.9368C50.7821 41.8695 50.4878 40.7087 50.4331 39.5244" stroke="#1A1A1A" stroke-width="4" stroke-linecap="round" stroke-linejoin="round"/>
<path d="M68.7445 51.1166C67.9344 48.2662 66.6998 45.554 65.0823 43.0711C63.5539 40.7449 60.4299 35.9677 54.8933 34.2951C53.242 33.6181 51.3971 33.5838 49.7219 34.199C47.7321 35.1122 46.7517 37.1403 46.1173 38.4572C45.4631 39.6395 45.0821 40.9533 45.0023 42.3021C44.9254 45.1858 46.819 47.4062 48.5972 49.3767C50.7054 51.6921 53.2332 53.5871 56.0467 54.9615C60.9778 57.4126 62.1794 56.2014 66.7452 58.6333C70.369 60.5558 69.9076 61.517 73.7141 63.5164C76.5977 65.0447 77.559 64.8813 83.2686 66.7461C89.3244 68.6685 92.3618 69.6874 94.4573 71.4176C96.1298 72.7922 98.6579 75.5125 100.071 80.8569" stroke="#1A1A1A" stroke-width="4" stroke-linecap="round" stroke-linejoin="round"/>
</svg>
