<svg width="166" height="232" viewBox="0 0 166 232" fill="none" xmlns="http://www.w3.org/2000/svg">
<rect x="4" y="4" width="158" height="224" rx="5" fill="#FFF8F8" stroke="#F7575C" stroke-width="7"/>
<path d="M66.8057 23.516C67.1177 23.116 67.4737 22.804 67.8737 22.58C68.2817 22.348 68.7057 22.232 69.1457 22.232L68.7617 24.404H68.1977C67.6857 24.404 67.2817 24.516 66.9857 24.74C66.6897 24.956 66.4937 25.34 66.3977 25.892L65.8457 29H63.7937L64.9697 22.304H67.0217L66.8057 23.516ZM71.5065 21.608C71.1865 21.608 70.9305 21.524 70.7385 21.356C70.5545 21.18 70.4625 20.96 70.4625 20.696C70.4625 20.336 70.6025 20.028 70.8825 19.772C71.1625 19.516 71.5025 19.388 71.9025 19.388C72.2225 19.388 72.4745 19.476 72.6585 19.652C72.8425 19.82 72.9345 20.04 72.9345 20.312C72.9345 20.664 72.7945 20.968 72.5145 21.224C72.2345 21.48 71.8985 21.608 71.5065 21.608ZM72.3945 22.304L71.2185 29H69.1665L70.3425 22.304H72.3945ZM76.6896 22.208C77.1616 22.208 77.5616 22.304 77.8896 22.496C78.2176 22.688 78.4456 22.94 78.5736 23.252L78.7416 22.304H80.7936L79.6176 28.988C79.5056 29.604 79.2816 30.16 78.9456 30.656C78.6176 31.16 78.1736 31.56 77.6136 31.856C77.0616 32.152 76.4176 32.3 75.6816 32.3C74.6896 32.3 73.9256 32.064 73.3896 31.592C72.8536 31.128 72.6136 30.496 72.6696 29.696H74.6976C74.7216 29.952 74.8376 30.152 75.0456 30.296C75.2616 30.448 75.5456 30.524 75.8976 30.524C76.3216 30.524 76.6816 30.4 76.9776 30.152C77.2736 29.912 77.4696 29.524 77.5656 28.988L77.7336 28.04C77.4776 28.352 77.1536 28.608 76.7616 28.808C76.3776 29 75.9496 29.096 75.4776 29.096C75.0056 29.096 74.5856 28.988 74.2176 28.772C73.8576 28.556 73.5736 28.248 73.3656 27.848C73.1656 27.448 73.0656 26.98 73.0656 26.444C73.0656 26.196 73.0896 25.928 73.1376 25.64C73.2576 24.952 73.4936 24.348 73.8456 23.828C74.1976 23.308 74.6216 22.908 75.1176 22.628C75.6136 22.348 76.1376 22.208 76.6896 22.208ZM78.1536 25.652C78.1776 25.508 78.1896 25.376 78.1896 25.256C78.1896 24.864 78.0736 24.556 77.8416 24.332C77.6176 24.108 77.3296 23.996 76.9776 23.996C76.5696 23.996 76.1976 24.144 75.8616 24.44C75.5256 24.728 75.3136 25.128 75.2256 25.64C75.2016 25.784 75.1896 25.916 75.1896 26.036C75.1896 26.428 75.3016 26.74 75.5256 26.972C75.7576 27.196 76.0456 27.308 76.3896 27.308C76.7976 27.308 77.1696 27.16 77.5056 26.864C77.8416 26.568 78.0576 26.164 78.1536 25.652ZM81.5221 25.64C81.6421 24.952 81.8781 24.348 82.2301 23.828C82.5821 23.308 83.0061 22.908 83.5021 22.628C83.9981 22.348 84.5221 22.208 85.0741 22.208C85.5461 22.208 85.9421 22.304 86.2621 22.496C86.5821 22.688 86.8141 22.94 86.9581 23.252L87.1261 22.304H89.1781L87.9901 29H85.9381L86.1181 28.052C85.8621 28.364 85.5381 28.616 85.1461 28.808C84.7541 29 84.3221 29.096 83.8501 29.096C83.3781 29.096 82.9581 28.988 82.5901 28.772C82.2301 28.556 81.9501 28.252 81.7501 27.86C81.5501 27.46 81.4501 26.992 81.4501 26.456C81.4501 26.2 81.4741 25.928 81.5221 25.64ZM86.5381 25.652C86.5621 25.508 86.5741 25.376 86.5741 25.256C86.5741 24.864 86.4581 24.556 86.2261 24.332C86.0021 24.108 85.7141 23.996 85.3621 23.996C84.9541 23.996 84.5821 24.144 84.2461 24.44C83.9101 24.728 83.6981 25.128 83.6101 25.64C83.5861 25.784 83.5741 25.916 83.5741 26.036C83.5741 26.428 83.6861 26.74 83.9101 26.972C84.1421 27.196 84.4301 27.308 84.7741 27.308C85.1821 27.308 85.5541 27.16 85.8901 26.864C86.2261 26.568 86.4421 26.164 86.5381 25.652ZM92.4987 26.696C92.4907 26.736 92.4867 26.788 92.4867 26.852C92.4867 26.996 92.5267 27.1 92.6067 27.164C92.6947 27.228 92.8347 27.26 93.0267 27.26H93.7587L93.4467 29H92.4027C91.0587 29 90.3867 28.436 90.3867 27.308C90.3867 27.14 90.4067 26.928 90.4467 26.672L90.9267 24.008H90.1107L90.4107 22.304H91.2267L91.5147 20.672H93.5667L93.2787 22.304H94.6227L94.3227 24.008H92.9787L92.4987 26.696ZM97.8897 29.096C97.3137 29.096 96.8017 28.98 96.3537 28.748C95.9057 28.516 95.5577 28.188 95.3097 27.764C95.0697 27.34 94.9497 26.848 94.9497 26.288C94.9497 25.528 95.1297 24.836 95.4897 24.212C95.8497 23.588 96.3457 23.1 96.9777 22.748C97.6097 22.388 98.3137 22.208 99.0897 22.208C99.6657 22.208 100.178 22.328 100.626 22.568C101.082 22.8 101.434 23.128 101.682 23.552C101.93 23.976 102.054 24.468 102.054 25.028C102.054 25.796 101.87 26.492 101.502 27.116C101.142 27.732 100.642 28.216 100.002 28.568C99.3697 28.92 98.6657 29.096 97.8897 29.096ZM98.1777 27.332C98.5137 27.332 98.8137 27.232 99.0777 27.032C99.3497 26.824 99.5577 26.56 99.7017 26.24C99.8537 25.912 99.9297 25.572 99.9297 25.22C99.9297 24.82 99.8217 24.512 99.6057 24.296C99.3897 24.08 99.1177 23.972 98.7897 23.972C98.4457 23.972 98.1417 24.076 97.8777 24.284C97.6217 24.484 97.4217 24.748 97.2777 25.076C97.1337 25.404 97.0617 25.748 97.0617 26.108C97.0617 26.5 97.1657 26.804 97.3737 27.02C97.5817 27.228 97.8497 27.332 98.1777 27.332Z" fill="#3CAA90"/>
<path d="M38.2881 44.792H36.1881L37.5321 41.576H38.9121L38.2881 44.792ZM41.0121 44.792H38.9241L40.2681 41.576H41.6361L41.0121 44.792ZM45.2603 44.42C45.5003 44.052 45.8003 43.764 46.1603 43.556C46.5203 43.34 46.9203 43.232 47.3603 43.232V45.404H46.7963C46.2843 45.404 45.9003 45.516 45.6443 45.74C45.3883 45.956 45.2603 46.34 45.2603 46.892V50H43.2083V43.304H45.2603V44.42ZM49.6131 42.608C49.2531 42.608 48.9571 42.504 48.7251 42.296C48.5011 42.08 48.3891 41.816 48.3891 41.504C48.3891 41.184 48.5011 40.92 48.7251 40.712C48.9571 40.496 49.2531 40.388 49.6131 40.388C49.9651 40.388 50.2531 40.496 50.4771 40.712C50.7091 40.92 50.8251 41.184 50.8251 41.504C50.8251 41.816 50.7091 42.08 50.4771 42.296C50.2531 42.504 49.9651 42.608 49.6131 42.608ZM50.6331 43.304V50H48.5811V43.304H50.6331ZM51.9522 46.64C51.9522 45.952 52.0802 45.348 52.3362 44.828C52.6002 44.308 52.9562 43.908 53.4042 43.628C53.8522 43.348 54.3522 43.208 54.9042 43.208C55.3442 43.208 55.7442 43.3 56.1042 43.484C56.4722 43.668 56.7602 43.916 56.9682 44.228V41.12H59.0202V50H56.9682V49.04C56.7762 49.36 56.5002 49.616 56.1402 49.808C55.7882 50 55.3762 50.096 54.9042 50.096C54.3522 50.096 53.8522 49.956 53.4042 49.676C52.9562 49.388 52.6002 48.984 52.3362 48.464C52.0802 47.936 51.9522 47.328 51.9522 46.64ZM56.9682 46.652C56.9682 46.14 56.8242 45.736 56.5362 45.44C56.2562 45.144 55.9122 44.996 55.5042 44.996C55.0962 44.996 54.7482 45.144 54.4602 45.44C54.1802 45.728 54.0402 46.128 54.0402 46.64C54.0402 47.152 54.1802 47.56 54.4602 47.864C54.7482 48.16 55.0962 48.308 55.5042 48.308C55.9122 48.308 56.2562 48.16 56.5362 47.864C56.8242 47.568 56.9682 47.164 56.9682 46.652ZM63.2887 43.208C63.7607 43.208 64.1727 43.304 64.5247 43.496C64.8847 43.688 65.1607 43.94 65.3527 44.252V43.304H67.4047V49.988C67.4047 50.604 67.2807 51.16 67.0327 51.656C66.7927 52.16 66.4207 52.56 65.9167 52.856C65.4207 53.152 64.8007 53.3 64.0567 53.3C63.0647 53.3 62.2607 53.064 61.6447 52.592C61.0287 52.128 60.6767 51.496 60.5887 50.696H62.6167C62.6807 50.952 62.8327 51.152 63.0727 51.296C63.3127 51.448 63.6087 51.524 63.9607 51.524C64.3847 51.524 64.7207 51.4 64.9687 51.152C65.2247 50.912 65.3527 50.524 65.3527 49.988V49.04C65.1527 49.352 64.8767 49.608 64.5247 49.808C64.1727 50 63.7607 50.096 63.2887 50.096C62.7367 50.096 62.2367 49.956 61.7887 49.676C61.3407 49.388 60.9847 48.984 60.7207 48.464C60.4647 47.936 60.3367 47.328 60.3367 46.64C60.3367 45.952 60.4647 45.348 60.7207 44.828C60.9847 44.308 61.3407 43.908 61.7887 43.628C62.2367 43.348 62.7367 43.208 63.2887 43.208ZM65.3527 46.652C65.3527 46.14 65.2087 45.736 64.9207 45.44C64.6407 45.144 64.2967 44.996 63.8887 44.996C63.4807 44.996 63.1327 45.144 62.8447 45.44C62.5647 45.728 62.4247 46.128 62.4247 46.64C62.4247 47.152 62.5647 47.56 62.8447 47.864C63.1327 48.16 63.4807 48.308 63.8887 48.308C64.2967 48.308 64.6407 48.16 64.9207 47.864C65.2087 47.568 65.3527 47.164 65.3527 46.652ZM75.4412 46.544C75.4412 46.736 75.4292 46.936 75.4052 47.144H70.7612C70.7932 47.56 70.9252 47.88 71.1572 48.104C71.3972 48.32 71.6892 48.428 72.0332 48.428C72.5452 48.428 72.9012 48.212 73.1012 47.78H75.2852C75.1732 48.22 74.9692 48.616 74.6732 48.968C74.3852 49.32 74.0212 49.596 73.5812 49.796C73.1412 49.996 72.6492 50.096 72.1052 50.096C71.4492 50.096 70.8652 49.956 70.3532 49.676C69.8412 49.396 69.4412 48.996 69.1532 48.476C68.8652 47.956 68.7212 47.348 68.7212 46.652C68.7212 45.956 68.8612 45.348 69.1412 44.828C69.4292 44.308 69.8292 43.908 70.3412 43.628C70.8532 43.348 71.4412 43.208 72.1052 43.208C72.7532 43.208 73.3292 43.344 73.8332 43.616C74.3372 43.888 74.7292 44.276 75.0092 44.78C75.2972 45.284 75.4412 45.872 75.4412 46.544ZM73.3412 46.004C73.3412 45.652 73.2212 45.372 72.9812 45.164C72.7412 44.956 72.4412 44.852 72.0812 44.852C71.7372 44.852 71.4452 44.952 71.2052 45.152C70.9732 45.352 70.8292 45.636 70.7732 46.004H73.3412ZM76.3558 46.64C76.3558 45.952 76.4838 45.348 76.7398 44.828C77.0038 44.308 77.3598 43.908 77.8078 43.628C78.2558 43.348 78.7558 43.208 79.3078 43.208C79.7478 43.208 80.1478 43.3 80.5078 43.484C80.8758 43.668 81.1638 43.916 81.3718 44.228V41.12H83.4238V50H81.3718V49.04C81.1798 49.36 80.9038 49.616 80.5438 49.808C80.1918 50 79.7798 50.096 79.3078 50.096C78.7558 50.096 78.2558 49.956 77.8078 49.676C77.3598 49.388 77.0038 48.984 76.7398 48.464C76.4838 47.936 76.3558 47.328 76.3558 46.64ZM81.3718 46.652C81.3718 46.14 81.2278 45.736 80.9398 45.44C80.6598 45.144 80.3158 44.996 79.9078 44.996C79.4998 44.996 79.1518 45.144 78.8638 45.44C78.5838 45.728 78.4438 46.128 78.4438 46.64C78.4438 47.152 78.5838 47.56 78.8638 47.864C79.1518 48.16 79.4998 48.308 79.9078 48.308C80.3158 48.308 80.6598 48.16 80.9398 47.864C81.2278 47.568 81.3718 47.164 81.3718 46.652ZM87.3563 48.104L86.0243 51.548H84.7163L85.4123 48.104H87.3563ZM93.6686 41.12V50H91.6166V41.12H93.6686ZM96.4276 42.608C96.0676 42.608 95.7716 42.504 95.5396 42.296C95.3156 42.08 95.2036 41.816 95.2036 41.504C95.2036 41.184 95.3156 40.92 95.5396 40.712C95.7716 40.496 96.0676 40.388 96.4276 40.388C96.7796 40.388 97.0676 40.496 97.2916 40.712C97.5236 40.92 97.6396 41.184 97.6396 41.504C97.6396 41.816 97.5236 42.08 97.2916 42.296C97.0676 42.504 96.7796 42.608 96.4276 42.608ZM97.4476 43.304V50H95.3956V43.304H97.4476ZM103.255 43.232C104.039 43.232 104.663 43.488 105.127 44C105.599 44.504 105.835 45.2 105.835 46.088V50H103.795V46.364C103.795 45.916 103.679 45.568 103.447 45.32C103.215 45.072 102.903 44.948 102.511 44.948C102.119 44.948 101.807 45.072 101.575 45.32C101.343 45.568 101.227 45.916 101.227 46.364V50H99.1747V43.304H101.227V44.192C101.435 43.896 101.715 43.664 102.067 43.496C102.419 43.32 102.815 43.232 103.255 43.232ZM113.813 46.544C113.813 46.736 113.801 46.936 113.777 47.144H109.133C109.165 47.56 109.297 47.88 109.529 48.104C109.769 48.32 110.061 48.428 110.405 48.428C110.917 48.428 111.273 48.212 111.473 47.78H113.657C113.545 48.22 113.341 48.616 113.045 48.968C112.757 49.32 112.393 49.596 111.953 49.796C111.513 49.996 111.021 50.096 110.477 50.096C109.821 50.096 109.237 49.956 108.725 49.676C108.213 49.396 107.813 48.996 107.525 48.476C107.237 47.956 107.093 47.348 107.093 46.652C107.093 45.956 107.233 45.348 107.513 44.828C107.801 44.308 108.201 43.908 108.713 43.628C109.225 43.348 109.813 43.208 110.477 43.208C111.125 43.208 111.701 43.344 112.205 43.616C112.709 43.888 113.101 44.276 113.381 44.78C113.669 45.284 113.813 45.872 113.813 46.544ZM111.713 46.004C111.713 45.652 111.593 45.372 111.353 45.164C111.113 44.956 110.813 44.852 110.453 44.852C110.109 44.852 109.817 44.952 109.577 45.152C109.345 45.352 109.201 45.636 109.145 46.004H111.713ZM114.727 46.64C114.727 45.952 114.855 45.348 115.111 44.828C115.375 44.308 115.731 43.908 116.179 43.628C116.627 43.348 117.127 43.208 117.679 43.208C118.119 43.208 118.519 43.3 118.879 43.484C119.247 43.668 119.535 43.916 119.743 44.228V41.12H121.795V50H119.743V49.04C119.551 49.36 119.275 49.616 118.915 49.808C118.563 50 118.151 50.096 117.679 50.096C117.127 50.096 116.627 49.956 116.179 49.676C115.731 49.388 115.375 48.984 115.111 48.464C114.855 47.936 114.727 47.328 114.727 46.64ZM119.743 46.652C119.743 46.14 119.599 45.736 119.311 45.44C119.031 45.144 118.687 44.996 118.279 44.996C117.871 44.996 117.523 45.144 117.235 45.44C116.955 45.728 116.815 46.128 116.815 46.64C116.815 47.152 116.955 47.56 117.235 47.864C117.523 48.16 117.871 48.308 118.279 48.308C118.687 48.308 119.031 48.16 119.311 47.864C119.599 47.568 119.743 47.164 119.743 46.652ZM123.988 41.576H126.088L124.744 44.792H123.364L123.988 41.576ZM126.712 41.576H128.812L127.468 44.792H126.088L126.712 41.576Z" fill="#393A32"/>
<rect x="24" y="169" width="118" height="40" rx="2" fill="#3CAA90" fill-opacity="0.1"/>
<path d="M50.1801 186.56C50.5001 186.069 50.9001 185.685 51.3801 185.408C51.8601 185.12 52.3934 184.976 52.9801 184.976V187.872H52.2281C51.5454 187.872 51.0334 188.021 50.6921 188.32C50.3508 188.608 50.1801 189.12 50.1801 189.856V194H47.4441V185.072H50.1801V186.56ZM56.6238 184.144C56.1438 184.144 55.7492 184.005 55.4398 183.728C55.1412 183.44 54.9918 183.088 54.9918 182.672C54.9918 182.245 55.1412 181.893 55.4398 181.616C55.7492 181.328 56.1438 181.184 56.6238 181.184C57.0932 181.184 57.4772 181.328 57.7758 181.616C58.0852 181.893 58.2398 182.245 58.2398 182.672C58.2398 183.088 58.0852 183.44 57.7758 183.728C57.4772 184.005 57.0932 184.144 56.6238 184.144ZM57.9838 185.072V194H55.2478V185.072H57.9838ZM64.3186 184.944C64.9479 184.944 65.4973 185.072 65.9666 185.328C66.4466 185.584 66.8146 185.92 67.0706 186.336V185.072H69.8066V193.984C69.8066 194.805 69.6413 195.547 69.3106 196.208C68.9906 196.88 68.4946 197.413 67.8226 197.808C67.1613 198.203 66.3346 198.4 65.3426 198.4C64.0199 198.4 62.9479 198.085 62.1266 197.456C61.3053 196.837 60.8359 195.995 60.7186 194.928H63.4226C63.5079 195.269 63.7106 195.536 64.0306 195.728C64.3506 195.931 64.7453 196.032 65.2146 196.032C65.7799 196.032 66.2279 195.867 66.5586 195.536C66.8999 195.216 67.0706 194.699 67.0706 193.984V192.72C66.8039 193.136 66.4359 193.477 65.9666 193.744C65.4973 194 64.9479 194.128 64.3186 194.128C63.5826 194.128 62.9159 193.941 62.3186 193.568C61.7213 193.184 61.2466 192.645 60.8946 191.952C60.5533 191.248 60.3826 190.437 60.3826 189.52C60.3826 188.603 60.5533 187.797 60.8946 187.104C61.2466 186.411 61.7213 185.877 62.3186 185.504C62.9159 185.131 63.5826 184.944 64.3186 184.944ZM67.0706 189.536C67.0706 188.853 66.8786 188.315 66.4946 187.92C66.1213 187.525 65.6626 187.328 65.1186 187.328C64.5746 187.328 64.1106 187.525 63.7266 187.92C63.3533 188.304 63.1666 188.837 63.1666 189.52C63.1666 190.203 63.3533 190.747 63.7266 191.152C64.1106 191.547 64.5746 191.744 65.1186 191.744C65.6626 191.744 66.1213 191.547 66.4946 191.152C66.8786 190.757 67.0706 190.219 67.0706 189.536ZM72.202 189.52C72.202 188.603 72.3726 187.797 72.714 187.104C73.066 186.411 73.5406 185.877 74.138 185.504C74.7353 185.131 75.402 184.944 76.138 184.944C76.7673 184.944 77.3166 185.072 77.786 185.328C78.266 185.584 78.634 185.92 78.89 186.336V185.072H81.626V194H78.89V192.736C78.6233 193.152 78.25 193.488 77.77 193.744C77.3006 194 76.7513 194.128 76.122 194.128C75.3966 194.128 74.7353 193.941 74.138 193.568C73.5406 193.184 73.066 192.645 72.714 191.952C72.3726 191.248 72.202 190.437 72.202 189.52ZM78.89 189.536C78.89 188.853 78.698 188.315 78.314 187.92C77.9406 187.525 77.482 187.328 76.938 187.328C76.394 187.328 75.93 187.525 75.546 187.92C75.1726 188.304 74.986 188.837 74.986 189.52C74.986 190.203 75.1726 190.747 75.546 191.152C75.93 191.547 76.394 191.744 76.938 191.744C77.482 191.744 77.9406 191.547 78.314 191.152C78.698 190.757 78.89 190.219 78.89 189.536ZM89.5413 191.68V194H88.1493C87.1573 194 86.384 193.76 85.8293 193.28C85.2747 192.789 84.9973 191.995 84.9973 190.896V187.344H83.9093V185.072H84.9973V182.896H87.7333V185.072H89.5253V187.344H87.7333V190.928C87.7333 191.195 87.7973 191.387 87.9253 191.504C88.0533 191.621 88.2667 191.68 88.5653 191.68H89.5413ZM96.0893 194.128C95.2147 194.128 94.4253 193.941 93.7213 193.568C93.028 193.195 92.4787 192.661 92.0733 191.968C91.6787 191.275 91.4813 190.464 91.4813 189.536C91.4813 188.619 91.684 187.813 92.0893 187.12C92.4947 186.416 93.0493 185.877 93.7533 185.504C94.4573 185.131 95.2467 184.944 96.1213 184.944C96.996 184.944 97.7853 185.131 98.4893 185.504C99.1933 185.877 99.748 186.416 100.153 187.12C100.559 187.813 100.761 188.619 100.761 189.536C100.761 190.453 100.553 191.264 100.137 191.968C99.732 192.661 99.172 193.195 98.4573 193.568C97.7533 193.941 96.964 194.128 96.0893 194.128ZM96.0893 191.76C96.612 191.76 97.0547 191.568 97.4173 191.184C97.7907 190.8 97.9773 190.251 97.9773 189.536C97.9773 188.821 97.796 188.272 97.4333 187.888C97.0813 187.504 96.644 187.312 96.1213 187.312C95.588 187.312 95.1453 187.504 94.7933 187.888C94.4413 188.261 94.2653 188.811 94.2653 189.536C94.2653 190.251 94.436 190.8 94.7773 191.184C95.1293 191.568 95.5667 191.76 96.0893 191.76ZM108.613 184.976C109.658 184.976 110.49 185.317 111.109 186C111.738 186.672 112.053 187.6 112.053 188.784V194H109.333V189.152C109.333 188.555 109.178 188.091 108.869 187.76C108.559 187.429 108.143 187.264 107.621 187.264C107.098 187.264 106.682 187.429 106.373 187.76C106.063 188.091 105.909 188.555 105.909 189.152V194H103.173V185.072H105.909V186.256C106.186 185.861 106.559 185.552 107.029 185.328C107.498 185.093 108.026 184.976 108.613 184.976ZM116.29 184.144C115.81 184.144 115.415 184.005 115.106 183.728C114.807 183.44 114.658 183.088 114.658 182.672C114.658 182.245 114.807 181.893 115.106 181.616C115.415 181.328 115.81 181.184 116.29 181.184C116.759 181.184 117.143 181.328 117.442 181.616C117.751 181.893 117.906 182.245 117.906 182.672C117.906 183.088 117.751 183.44 117.442 183.728C117.143 184.005 116.759 184.144 116.29 184.144ZM117.65 185.072V194H114.914V185.072H117.65Z" fill="#393A32"/>
<path d="M81.6459 70.2853C76.5617 70.268 71.7419 71.2446 68.0763 73.0327C63.8998 75.0704 61.5928 77.9781 61.5808 81.2201C61.5804 81.3306 61.5832 81.4406 61.5881 81.5503C61.5837 81.6064 61.5791 81.6625 61.5789 81.7197L61.333 146.115C61.3206 149.357 63.6053 152.28 67.766 154.346C71.4187 156.16 76.2301 157.168 81.3144 157.186C85.6575 157.2 89.8064 156.491 93.2094 155.169C93.79 154.943 94.3497 154.699 94.884 154.439C99.0605 152.401 101.367 149.493 101.38 146.251L101.627 81.356C101.64 78.1141 99.3551 75.1909 95.1943 73.1247C91.5416 71.311 86.7301 70.3026 81.6459 70.2853ZM70.058 77.093C70.4888 76.8827 70.9398 76.6862 71.4108 76.5032C74.2783 75.389 77.8445 74.7909 81.6287 74.8036C86.034 74.8186 90.1369 75.6595 93.1817 77.1715C95.6449 78.3947 97.1123 79.9532 97.107 81.3407C97.0965 84.0486 91.1844 87.8052 81.5792 87.7726C71.9741 87.7398 66.0908 83.943 66.1011 81.2354C66.1064 79.8478 67.5857 78.2993 70.058 77.093V77.093ZM88.78 151.83C87.1889 152.213 85.5687 152.463 83.9362 152.576L84.1665 92.2105C85.794 92.1081 87.4124 91.8926 89.01 91.5654L88.78 151.83ZM74.5772 151.942L74.8073 91.6535C76.4051 91.9574 78.0217 92.1522 79.6461 92.2368L79.4157 152.606C77.7877 152.514 76.1696 152.292 74.5772 151.942V151.942ZM65.8533 146.13L66.0739 88.3362C66.6964 88.7483 67.3443 89.1208 68.0138 89.4514C68.7546 89.8168 69.5151 90.1412 70.2916 90.4232L70.0626 150.434C69.968 150.389 69.8713 150.345 69.7786 150.299C67.3155 149.077 65.848 147.518 65.8533 146.13ZM96.8592 146.236C96.8543 147.546 95.5344 148.999 93.3067 150.172L93.5354 90.2414C94.0877 90.0245 94.6216 89.7925 95.1316 89.5435C95.8037 89.2165 96.4544 88.8472 97.0799 88.4379L96.8592 146.236Z" fill="#393A32"/>
</svg>
