<svg width="158" height="224" viewBox="0 0 158 224" fill="none" xmlns="http://www.w3.org/2000/svg">
<rect width="158" height="224" rx="5" fill="#FFD300"/>
<mask id="path-2-inside-1" fill="white">
<rect x="9" y="9" width="140" height="207" rx="2"/>
</mask>
<rect x="9" y="9" width="140" height="207" rx="2" fill="white" stroke="#2179B9" stroke-width="14" mask="url(#path-2-inside-1)"/>
<path d="M61.4707 166.072H64.0027V167.296C64.1867 166.824 64.4347 166.476 64.7467 166.252C65.0667 166.02 65.4387 165.904 65.8627 165.904L66.2107 167.86C65.4507 167.86 64.8907 167.944 64.5307 168.112C64.1787 168.272 64.0027 168.528 64.0027 168.88V172H61.4707V166.072ZM69.1782 172.096C68.5062 172.096 67.9822 171.88 67.6062 171.448C67.2302 171.016 67.0422 170.428 67.0422 169.684V165.988H69.5862V169.576C69.5862 169.76 69.6342 169.904 69.7302 170.008C69.8342 170.104 69.9662 170.152 70.1262 170.152C70.2862 170.152 70.4502 170.104 70.6182 170.008L70.7502 171.676C70.5742 171.812 70.3422 171.916 70.0542 171.988C69.7742 172.06 69.4822 172.096 69.1782 172.096ZM68.3142 165.088C67.9382 165.088 67.6182 164.972 67.3542 164.74C67.0982 164.5 66.9702 164.208 66.9702 163.864C66.9702 163.52 67.1062 163.232 67.3782 163C67.6502 162.768 67.9622 162.652 68.3142 162.652C68.6822 162.652 68.9982 162.772 69.2622 163.012C69.5342 163.252 69.6702 163.536 69.6702 163.864C69.6702 164.216 69.5342 164.508 69.2622 164.74C68.9902 164.972 68.6742 165.088 68.3142 165.088ZM75.085 174.748C74.645 174.748 74.225 174.704 73.825 174.616L74.017 172.84C74.329 172.888 74.617 172.912 74.881 172.912C75.377 172.912 75.753 172.764 76.009 172.468C76.265 172.18 76.417 171.692 76.465 171.004C75.993 171.668 75.273 172 74.305 172C73.777 172 73.289 171.864 72.841 171.592C72.401 171.32 72.049 170.952 71.785 170.488C71.529 170.024 71.401 169.516 71.401 168.964C71.401 168.404 71.529 167.892 71.785 167.428C72.041 166.956 72.389 166.584 72.829 166.312C73.277 166.04 73.765 165.904 74.293 165.904C74.781 165.904 75.205 166.032 75.565 166.288C75.933 166.536 76.173 166.872 76.285 167.296V165.904H78.817V170.476C78.817 171.876 78.497 172.936 77.857 173.656C77.225 174.384 76.301 174.748 75.085 174.748ZM75.085 170.2C75.405 170.2 75.681 170.088 75.913 169.864C76.145 169.632 76.269 169.36 76.285 169.048V168.952C76.269 168.648 76.141 168.38 75.901 168.148C75.669 167.916 75.397 167.8 75.085 167.8C74.757 167.8 74.477 167.92 74.245 168.16C74.013 168.392 73.897 168.672 73.897 169C73.897 169.328 74.013 169.612 74.245 169.852C74.477 170.084 74.757 170.2 75.085 170.2ZM82.9247 172.096C82.4047 172.096 81.9167 171.96 81.4607 171.688C81.0127 171.408 80.6527 171.032 80.3807 170.56C80.1087 170.08 79.9727 169.548 79.9727 168.964C79.9727 168.388 80.1087 167.868 80.3807 167.404C80.6527 166.932 81.0167 166.564 81.4727 166.3C81.9287 166.036 82.4127 165.904 82.9247 165.904C83.3407 165.904 83.7247 166.02 84.0767 166.252C84.4367 166.484 84.7087 166.832 84.8927 167.296V165.904H87.4127V172H84.8927V170.884C84.4927 171.692 83.8367 172.096 82.9247 172.096ZM83.7047 170.2C84.0247 170.2 84.2967 170.088 84.5207 169.864C84.7527 169.632 84.8767 169.36 84.8927 169.048V168.952C84.8767 168.632 84.7487 168.36 84.5087 168.136C84.2767 167.912 84.0087 167.8 83.7047 167.8C83.3687 167.8 83.0807 167.92 82.8407 168.16C82.6087 168.392 82.4927 168.672 82.4927 169C82.4927 169.336 82.6127 169.62 82.8527 169.852C83.0927 170.084 83.3767 170.2 83.7047 170.2ZM91.4962 172.096C90.7922 172.096 90.2442 171.896 89.8522 171.496C89.4602 171.088 89.2642 170.528 89.2642 169.816V167.476H88.4962V165.988H89.4442L90.5602 163.72H91.7722V165.988H93.1642V167.476H91.7722V169.516C91.7722 169.716 91.8362 169.872 91.9642 169.984C92.0922 170.096 92.2722 170.152 92.5042 170.152C92.7202 170.152 92.9162 170.104 93.0922 170.008L93.1882 171.688C92.9882 171.808 92.7282 171.908 92.4082 171.988C92.0962 172.06 91.7922 172.096 91.4962 172.096ZM97.3619 172.096C96.6899 172.096 96.0899 171.964 95.5619 171.7C95.0419 171.436 94.6339 171.072 94.3379 170.608C94.0499 170.136 93.9059 169.596 93.9059 168.988C93.9059 168.38 94.0539 167.844 94.3499 167.38C94.6459 166.908 95.0539 166.544 95.5739 166.288C96.1019 166.032 96.7019 165.904 97.3739 165.904C98.0539 165.904 98.6539 166.036 99.1739 166.3C99.7019 166.556 100.11 166.916 100.398 167.38C100.686 167.844 100.83 168.38 100.83 168.988C100.83 169.604 100.682 170.148 100.386 170.62C100.098 171.084 99.6899 171.448 99.1619 171.712C98.6419 171.968 98.0419 172.096 97.3619 172.096ZM97.3859 170.296C97.7139 170.296 97.9819 170.176 98.1899 169.936C98.4059 169.688 98.5139 169.372 98.5139 168.988C98.5139 168.604 98.4059 168.292 98.1899 168.052C97.9819 167.804 97.7139 167.68 97.3859 167.68C97.0579 167.68 96.7859 167.804 96.5699 168.052C96.3619 168.292 96.2579 168.604 96.2579 168.988C96.2579 169.372 96.3619 169.688 96.5699 169.936C96.7859 170.176 97.0579 170.296 97.3859 170.296Z" fill="#2179B9"/>
<path d="M32.9772 187.672C32.9772 186.752 33.0292 186.092 33.1332 185.692C33.2452 185.284 33.4652 185.004 33.7932 184.852C34.1292 184.7 34.6772 184.624 35.4372 184.624V186.028C35.0292 186.028 34.7612 186.036 34.6332 186.052C34.5052 186.068 34.4212 186.116 34.3812 186.196C34.3412 186.276 34.3212 186.428 34.3212 186.652H35.4372V188.896H32.9772V187.672ZM36.0972 187.672C36.0972 186.752 36.1492 186.092 36.2532 185.692C36.3652 185.284 36.5852 185.004 36.9132 184.852C37.2492 184.7 37.7972 184.624 38.5572 184.624V186.028C38.1492 186.028 37.8812 186.036 37.7532 186.052C37.6252 186.068 37.5412 186.116 37.5012 186.196C37.4612 186.276 37.4412 186.428 37.4412 186.652H38.5572V188.896H36.0972V187.672ZM39.9334 187.072H42.4654V188.296C42.6494 187.824 42.8974 187.476 43.2094 187.252C43.5294 187.02 43.9014 186.904 44.3254 186.904L44.6734 188.86C43.9134 188.86 43.3534 188.944 42.9934 189.112C42.6414 189.272 42.4654 189.528 42.4654 189.88V193H39.9334V187.072ZM47.6409 193.096C46.9689 193.096 46.4449 192.88 46.0689 192.448C45.6929 192.016 45.5049 191.428 45.5049 190.684V186.988H48.0489V190.576C48.0489 190.76 48.0969 190.904 48.1929 191.008C48.2969 191.104 48.4289 191.152 48.5889 191.152C48.7489 191.152 48.9129 191.104 49.0809 191.008L49.2129 192.676C49.0369 192.812 48.8049 192.916 48.5169 192.988C48.2369 193.06 47.9449 193.096 47.6409 193.096ZM46.7769 186.088C46.4009 186.088 46.0809 185.972 45.8169 185.74C45.5609 185.5 45.4329 185.208 45.4329 184.864C45.4329 184.52 45.5689 184.232 45.8409 184C46.1129 183.768 46.4249 183.652 46.7769 183.652C47.1449 183.652 47.4609 183.772 47.7249 184.012C47.9969 184.252 48.1329 184.536 48.1329 184.864C48.1329 185.216 47.9969 185.508 47.7249 185.74C47.4529 185.972 47.1369 186.088 46.7769 186.088ZM52.7797 193.096C52.2357 193.096 51.7397 192.952 51.2917 192.664C50.8517 192.376 50.5037 191.996 50.2477 191.524C49.9917 191.044 49.8637 190.536 49.8637 190C49.8637 189.432 49.9957 188.912 50.2597 188.44C50.5317 187.96 50.8917 187.584 51.3397 187.312C51.7957 187.04 52.2797 186.904 52.7917 186.904C53.2557 186.904 53.6477 187 53.9677 187.192C54.2957 187.384 54.5597 187.692 54.7597 188.116V185.092L57.2917 184.72V193H54.7597V191.884C54.3837 192.692 53.7237 193.096 52.7797 193.096ZM53.5717 191.2C53.9077 191.2 54.1877 191.08 54.4117 190.84C54.6437 190.6 54.7597 190.32 54.7597 190V189.952C54.7597 189.64 54.6397 189.372 54.3997 189.148C54.1597 188.916 53.8837 188.8 53.5717 188.8C53.2357 188.8 52.9517 188.92 52.7197 189.16C52.4957 189.392 52.3837 189.672 52.3837 190C52.3837 190.336 52.4997 190.62 52.7317 190.852C52.9717 191.084 53.2517 191.2 53.5717 191.2ZM62.1549 195.748C61.7149 195.748 61.2949 195.704 60.8949 195.616L61.0869 193.84C61.3989 193.888 61.6869 193.912 61.9509 193.912C62.4469 193.912 62.8229 193.764 63.0789 193.468C63.3349 193.18 63.4869 192.692 63.5349 192.004C63.0629 192.668 62.3429 193 61.3749 193C60.8469 193 60.3589 192.864 59.9109 192.592C59.4709 192.32 59.1189 191.952 58.8549 191.488C58.5989 191.024 58.4709 190.516 58.4709 189.964C58.4709 189.404 58.5989 188.892 58.8549 188.428C59.1109 187.956 59.4589 187.584 59.8989 187.312C60.3469 187.04 60.8349 186.904 61.3629 186.904C61.8509 186.904 62.2749 187.032 62.6349 187.288C63.0029 187.536 63.2429 187.872 63.3549 188.296V186.904H65.8869V191.476C65.8869 192.876 65.5669 193.936 64.9269 194.656C64.2949 195.384 63.3709 195.748 62.1549 195.748ZM62.1549 191.2C62.4749 191.2 62.7509 191.088 62.9829 190.864C63.2149 190.632 63.3389 190.36 63.3549 190.048V189.952C63.3389 189.648 63.2109 189.38 62.9709 189.148C62.7389 188.916 62.4669 188.8 62.1549 188.8C61.8269 188.8 61.5469 188.92 61.3149 189.16C61.0829 189.392 60.9669 189.672 60.9669 190C60.9669 190.328 61.0829 190.612 61.3149 190.852C61.5469 191.084 61.8269 191.2 62.1549 191.2ZM70.4507 193.096C69.7867 193.096 69.1947 192.964 68.6747 192.7C68.1627 192.428 67.7627 192.06 67.4747 191.596C67.1867 191.124 67.0427 190.592 67.0427 190C67.0427 189.392 67.1907 188.852 67.4867 188.38C67.7827 187.908 68.1827 187.544 68.6867 187.288C69.1907 187.032 69.7507 186.904 70.3667 186.904C70.9587 186.904 71.4627 187.036 71.8787 187.3C72.3027 187.556 72.6187 187.908 72.8267 188.356C73.0347 188.796 73.1387 189.292 73.1387 189.844C73.1387 189.988 73.1307 190.092 73.1147 190.156L69.5147 190.624C69.6107 190.904 69.7667 191.108 69.9827 191.236C70.1987 191.356 70.4827 191.416 70.8347 191.416C71.3787 191.416 71.9667 191.276 72.5987 190.996L72.8987 192.604C72.1547 192.932 71.3387 193.096 70.4507 193.096ZM71.2787 189.112C71.1507 188.608 70.8467 188.356 70.3667 188.356C70.0787 188.356 69.8507 188.464 69.6827 188.68C69.5147 188.896 69.4267 189.176 69.4187 189.52L71.2787 189.112ZM76.8786 193.096C76.3346 193.096 75.8386 192.952 75.3906 192.664C74.9506 192.376 74.6026 191.996 74.3466 191.524C74.0906 191.044 73.9626 190.536 73.9626 190C73.9626 189.432 74.0946 188.912 74.3586 188.44C74.6306 187.96 74.9906 187.584 75.4386 187.312C75.8946 187.04 76.3786 186.904 76.8906 186.904C77.3546 186.904 77.7466 187 78.0666 187.192C78.3946 187.384 78.6586 187.692 78.8586 188.116V185.092L81.3906 184.72V193H78.8586V191.884C78.4826 192.692 77.8226 193.096 76.8786 193.096ZM77.6706 191.2C78.0066 191.2 78.2866 191.08 78.5106 190.84C78.7426 190.6 78.8586 190.32 78.8586 190V189.952C78.8586 189.64 78.7386 189.372 78.4986 189.148C78.2586 188.916 77.9826 188.8 77.6706 188.8C77.3346 188.8 77.0506 188.92 76.8186 189.16C76.5946 189.392 76.4826 189.672 76.4826 190C76.4826 190.336 76.5986 190.62 76.8306 190.852C77.0706 191.084 77.3506 191.2 77.6706 191.2ZM82.7978 193.624C83.2058 193.624 83.4738 193.616 83.6018 193.6C83.7298 193.584 83.8138 193.536 83.8538 193.456C83.8938 193.376 83.9138 193.224 83.9138 193H82.7978V190.756H85.2578V191.98C85.2578 192.9 85.2018 193.56 85.0898 193.96C84.9858 194.368 84.7658 194.648 84.4298 194.8C84.1018 194.952 83.5578 195.028 82.7978 195.028V193.624ZM91.2272 193.096C90.5472 193.096 90.0192 192.884 89.6432 192.46C89.2752 192.028 89.0912 191.44 89.0912 190.696V185.092L91.6232 184.72V190.516C91.6232 190.74 91.6752 190.904 91.7792 191.008C91.8912 191.104 92.0832 191.152 92.3552 191.152C92.5552 191.152 92.7512 191.104 92.9432 191.008L93.0272 192.688C92.4912 192.96 91.8912 193.096 91.2272 193.096ZM96.0023 193.096C95.3303 193.096 94.8063 192.88 94.4303 192.448C94.0543 192.016 93.8663 191.428 93.8663 190.684V186.988H96.4103V190.576C96.4103 190.76 96.4583 190.904 96.5543 191.008C96.6583 191.104 96.7903 191.152 96.9503 191.152C97.1103 191.152 97.2743 191.104 97.4423 191.008L97.5743 192.676C97.3983 192.812 97.1663 192.916 96.8783 192.988C96.5983 193.06 96.3063 193.096 96.0023 193.096ZM95.1383 186.088C94.7623 186.088 94.4423 185.972 94.1783 185.74C93.9223 185.5 93.7943 185.208 93.7943 184.864C93.7943 184.52 93.9303 184.232 94.2023 184C94.4743 183.768 94.7863 183.652 95.1383 183.652C95.5063 183.652 95.8223 183.772 96.0863 184.012C96.3583 184.252 96.4943 184.536 96.4943 184.864C96.4943 185.216 96.3583 185.508 96.0863 185.74C95.8143 185.972 95.4983 186.088 95.1383 186.088ZM98.5131 187.072H100.925V188.296C101.389 187.368 102.125 186.904 103.133 186.904C103.901 186.904 104.501 187.18 104.933 187.732C105.373 188.276 105.593 189.032 105.593 190V193H103.073V189.748C103.073 189.404 102.997 189.14 102.845 188.956C102.701 188.772 102.497 188.68 102.233 188.68C102.041 188.68 101.853 188.744 101.669 188.872C101.485 188.992 101.333 189.168 101.213 189.4C101.101 189.632 101.045 189.896 101.045 190.192V193H98.5131V187.072ZM110.099 193.096C109.435 193.096 108.843 192.964 108.323 192.7C107.811 192.428 107.411 192.06 107.123 191.596C106.835 191.124 106.691 190.592 106.691 190C106.691 189.392 106.839 188.852 107.135 188.38C107.431 187.908 107.831 187.544 108.335 187.288C108.839 187.032 109.399 186.904 110.015 186.904C110.607 186.904 111.111 187.036 111.527 187.3C111.951 187.556 112.267 187.908 112.475 188.356C112.683 188.796 112.787 189.292 112.787 189.844C112.787 189.988 112.779 190.092 112.763 190.156L109.163 190.624C109.259 190.904 109.415 191.108 109.631 191.236C109.847 191.356 110.131 191.416 110.483 191.416C111.027 191.416 111.615 191.276 112.247 190.996L112.547 192.604C111.803 192.932 110.987 193.096 110.099 193.096ZM110.927 189.112C110.799 188.608 110.495 188.356 110.015 188.356C109.727 188.356 109.499 188.464 109.331 188.68C109.163 188.896 109.075 189.176 109.067 189.52L110.927 189.112ZM116.527 193.096C115.983 193.096 115.487 192.952 115.039 192.664C114.599 192.376 114.251 191.996 113.995 191.524C113.739 191.044 113.611 190.536 113.611 190C113.611 189.432 113.743 188.912 114.007 188.44C114.279 187.96 114.639 187.584 115.087 187.312C115.543 187.04 116.027 186.904 116.539 186.904C117.003 186.904 117.395 187 117.715 187.192C118.043 187.384 118.307 187.692 118.507 188.116V185.092L121.039 184.72V193H118.507V191.884C118.131 192.692 117.471 193.096 116.527 193.096ZM117.319 191.2C117.655 191.2 117.935 191.08 118.159 190.84C118.391 190.6 118.507 190.32 118.507 190V189.952C118.507 189.64 118.387 189.372 118.147 189.148C117.907 188.916 117.631 188.8 117.319 188.8C116.983 188.8 116.699 188.92 116.467 189.16C116.243 189.392 116.131 189.672 116.131 190C116.131 190.336 116.247 190.62 116.479 190.852C116.719 191.084 116.999 191.2 117.319 191.2ZM122.447 187.612C122.855 187.612 123.123 187.604 123.251 187.588C123.379 187.572 123.463 187.524 123.503 187.444C123.543 187.364 123.563 187.212 123.563 186.988H122.447V184.744H124.907V185.968C124.907 186.888 124.851 187.552 124.739 187.96C124.635 188.36 124.415 188.636 124.079 188.788C123.751 188.94 123.207 189.016 122.447 189.016V187.612ZM125.567 187.612C125.975 187.612 126.243 187.604 126.371 187.588C126.499 187.572 126.583 187.524 126.623 187.444C126.663 187.364 126.683 187.212 126.683 186.988H125.567V184.744H128.027V185.968C128.027 186.888 127.971 187.552 127.859 187.96C127.755 188.36 127.535 188.636 127.199 188.788C126.871 188.94 126.327 189.016 125.567 189.016V187.612Z" fill="#393A32"/>
<path d="M44.7407 134.288C42.4847 134.288 41.1047 133.244 40.6007 131.156L40.1507 129.302H39.3047V134H35.3627V121.616H40.8167C41.8487 121.616 42.7547 121.772 43.5347 122.084C44.3267 122.384 44.9387 122.81 45.3707 123.362C45.8027 123.914 46.0187 124.55 46.0187 125.27C46.0187 126.074 45.8207 126.752 45.4247 127.304C45.0407 127.844 44.4407 128.288 43.6247 128.636C43.7087 129.092 43.8047 129.506 43.9127 129.878C44.0567 130.334 44.2547 130.652 44.5067 130.832C44.7587 131.012 45.1247 131.102 45.6047 131.102C45.7727 131.102 46.0367 131.078 46.3967 131.03V133.964C45.8327 134.18 45.2807 134.288 44.7407 134.288ZM39.9887 126.782C40.8767 126.782 41.5007 126.686 41.8607 126.494C42.2327 126.29 42.4187 125.948 42.4187 125.468C42.4187 125.06 42.2687 124.766 41.9687 124.586C41.6687 124.394 41.1947 124.298 40.5467 124.298H39.3047V126.782H39.9887ZM51.909 134.144C50.901 134.144 50.115 133.82 49.551 133.172C48.987 132.524 48.705 131.642 48.705 130.526V124.982H52.521V130.364C52.521 130.64 52.593 130.856 52.737 131.012C52.893 131.156 53.091 131.228 53.331 131.228C53.571 131.228 53.817 131.156 54.069 131.012L54.267 133.514C54.003 133.718 53.655 133.874 53.223 133.982C52.803 134.09 52.365 134.144 51.909 134.144ZM50.613 123.632C50.049 123.632 49.569 123.458 49.173 123.11C48.789 122.75 48.597 122.312 48.597 121.796C48.597 121.28 48.801 120.848 49.209 120.5C49.617 120.152 50.085 119.978 50.613 119.978C51.165 119.978 51.639 120.158 52.035 120.518C52.443 120.878 52.647 121.304 52.647 121.796C52.647 122.324 52.443 122.762 52.035 123.11C51.627 123.458 51.153 123.632 50.613 123.632ZM61.4892 138.122C60.8292 138.122 60.1992 138.056 59.5992 137.924L59.8872 135.26C60.3552 135.332 60.7872 135.368 61.1832 135.368C61.9272 135.368 62.4912 135.146 62.8752 134.702C63.2592 134.27 63.4872 133.538 63.5592 132.506C62.8512 133.502 61.7712 134 60.3192 134C59.5272 134 58.7952 133.796 58.1232 133.388C57.4632 132.98 56.9352 132.428 56.5392 131.732C56.1552 131.036 55.9632 130.274 55.9632 129.446C55.9632 128.606 56.1552 127.838 56.5392 127.142C56.9232 126.434 57.4452 125.876 58.1052 125.468C58.7772 125.06 59.5092 124.856 60.3012 124.856C61.0332 124.856 61.6692 125.048 62.2092 125.432C62.7612 125.804 63.1212 126.308 63.2892 126.944V124.856H67.0872V131.714C67.0872 133.814 66.6072 135.404 65.6472 136.484C64.6992 137.576 63.3132 138.122 61.4892 138.122ZM61.4892 131.3C61.9692 131.3 62.3832 131.132 62.7312 130.796C63.0792 130.448 63.2652 130.04 63.2892 129.572V129.428C63.2652 128.972 63.0732 128.57 62.7132 128.222C62.3652 127.874 61.9572 127.7 61.4892 127.7C60.9972 127.7 60.5772 127.88 60.2292 128.24C59.8812 128.588 59.7072 129.008 59.7072 129.5C59.7072 129.992 59.8812 130.418 60.2292 130.778C60.5772 131.126 60.9972 131.3 61.4892 131.3ZM73.9689 134.144C73.1889 134.144 72.4569 133.94 71.7729 133.532C71.1009 133.112 70.5609 132.548 70.1529 131.84C69.7449 131.12 69.5409 130.322 69.5409 129.446C69.5409 128.582 69.7449 127.802 70.1529 127.106C70.5609 126.398 71.1069 125.846 71.7909 125.45C72.4749 125.054 73.2009 124.856 73.9689 124.856C74.5929 124.856 75.1689 125.03 75.6969 125.378C76.2369 125.726 76.6449 126.248 76.9209 126.944V124.856H80.7009V134H76.9209V132.326C76.3209 133.538 75.3369 134.144 73.9689 134.144ZM75.1389 131.3C75.6189 131.3 76.0269 131.132 76.3629 130.796C76.7109 130.448 76.8969 130.04 76.9209 129.572V129.428C76.8969 128.948 76.7049 128.54 76.3449 128.204C75.9969 127.868 75.5949 127.7 75.1389 127.7C74.6349 127.7 74.2029 127.88 73.8429 128.24C73.4949 128.588 73.3209 129.008 73.3209 129.5C73.3209 130.004 73.5009 130.43 73.8609 130.778C74.2209 131.126 74.6469 131.3 75.1389 131.3ZM87.5461 134.144C86.4901 134.144 85.6681 133.844 85.0801 133.244C84.4921 132.632 84.1981 131.792 84.1981 130.724V127.214H83.0461V124.982H84.4681L86.1421 121.58H87.9601V124.982H90.0481V127.214H87.9601V130.274C87.9601 130.574 88.0561 130.808 88.2481 130.976C88.4401 131.144 88.7101 131.228 89.0581 131.228C89.3821 131.228 89.6761 131.156 89.9401 131.012L90.0841 133.532C89.7841 133.712 89.3941 133.862 88.9141 133.982C88.4461 134.09 87.9901 134.144 87.5461 134.144ZM97.0646 134.144C96.0565 134.144 95.1565 133.946 94.3645 133.55C93.5845 133.154 92.9725 132.608 92.5285 131.912C92.0965 131.204 91.8805 130.394 91.8805 129.482C91.8805 128.57 92.1025 127.766 92.5465 127.07C92.9905 126.362 93.6025 125.816 94.3825 125.432C95.1745 125.048 96.0745 124.856 97.0825 124.856C98.1025 124.856 99.0025 125.054 99.7825 125.45C100.575 125.834 101.187 126.374 101.619 127.07C102.051 127.766 102.267 128.57 102.267 129.482C102.267 130.406 102.045 131.222 101.601 131.93C101.169 132.626 100.557 133.172 99.7646 133.568C98.9846 133.952 98.0846 134.144 97.0646 134.144ZM97.1006 131.444C97.5925 131.444 97.9945 131.264 98.3066 130.904C98.6305 130.532 98.7925 130.058 98.7925 129.482C98.7925 128.906 98.6305 128.438 98.3066 128.078C97.9945 127.706 97.5925 127.52 97.1006 127.52C96.6086 127.52 96.2005 127.706 95.8765 128.078C95.5645 128.438 95.4085 128.906 95.4085 129.482C95.4085 130.058 95.5645 130.532 95.8765 130.904C96.2005 131.264 96.6086 131.444 97.1006 131.444ZM104.696 125.108H108.314V126.944C109.01 125.552 110.114 124.856 111.626 124.856C112.778 124.856 113.678 125.27 114.326 126.098C114.986 126.914 115.316 128.048 115.316 129.5V134H111.536V129.122C111.536 128.606 111.422 128.21 111.194 127.934C110.978 127.658 110.672 127.52 110.276 127.52C109.988 127.52 109.706 127.616 109.43 127.808C109.154 127.988 108.926 128.252 108.746 128.6C108.578 128.948 108.494 129.344 108.494 129.788V134H104.696V125.108ZM121.301 134.144C120.293 134.144 119.507 133.82 118.943 133.172C118.379 132.524 118.097 131.642 118.097 130.526V124.982H121.913V130.364C121.913 130.64 121.985 130.856 122.129 131.012C122.285 131.156 122.483 131.228 122.723 131.228C122.963 131.228 123.209 131.156 123.461 131.012L123.659 133.514C123.395 133.718 123.047 133.874 122.615 133.982C122.195 134.09 121.757 134.144 121.301 134.144ZM120.005 123.632C119.441 123.632 118.961 123.458 118.565 123.11C118.181 122.75 117.989 122.312 117.989 121.796C117.989 121.28 118.193 120.848 118.601 120.5C119.009 120.152 119.477 119.978 120.005 119.978C120.557 119.978 121.031 120.158 121.427 120.518C121.835 120.878 122.039 121.304 122.039 121.796C122.039 122.324 121.835 122.762 121.427 123.11C121.019 123.458 120.545 123.632 120.005 123.632Z" fill="#393A32"/>
<rect x="46" y="145.901" width="65.45" height="0.897773" fill="#082D74"/>
<rect x="57.7808" y="145" width="13.9627" height="3.1422" fill="#3F8D43"/>
<rect x="71.7454" y="145" width="13.9627" height="3.1422" fill="white"/>
<rect x="85.7046" y="145" width="13.9627" height="3.1422" fill="#D12C29"/>
<path d="M37.6374 44.5436C34.2629 46.9068 31.5276 49.8045 29.9357 52.7005C28.122 56.0004 27.9525 59.0032 29.4587 61.1554C29.5101 61.2288 29.5633 61.3003 29.6178 61.3707C29.6411 61.4099 29.6643 61.4492 29.6908 61.4871L59.6041 104.24C61.1101 106.393 63.9882 107.261 67.7081 106.686C70.9738 106.181 74.6306 104.601 78.0051 102.238C80.8878 100.219 83.3035 97.8119 84.9391 95.3469C85.2182 94.9263 85.4749 94.5036 85.707 94.0814C87.5205 90.7814 87.6899 87.7788 86.184 85.6265L56.0384 42.5415C54.5325 40.3891 51.6545 39.5206 47.9344 40.0958C44.6687 40.6009 41.0119 42.1804 37.6374 44.5436ZM33.1442 54.4634C33.3313 54.123 33.5381 53.7822 33.7645 53.441C35.1428 51.364 37.2248 49.3024 39.7363 47.5433C42.6602 45.4958 45.7697 44.1363 48.4919 43.7153C50.6941 43.3748 52.3936 43.7214 53.0382 44.6426C54.296 46.4405 52.1359 51.6891 45.7608 56.1537C39.3856 60.6181 33.7167 60.8519 32.4589 59.0543C31.8144 58.1331 32.0706 56.4169 33.1442 54.4634V54.4634ZM80.4469 95.205C79.5722 96.2017 78.6161 97.1238 77.5884 97.9618L49.5467 57.8837C50.5765 57.0559 51.5474 56.1573 52.4524 55.1945L80.4469 95.205ZM71.0952 101.913L43.0894 61.8863C44.2893 61.3412 45.4508 60.7151 46.5658 60.0124L74.6089 100.092C73.4882 100.792 72.3132 101.401 71.0952 101.913V101.913ZM62.6043 102.139L35.7574 63.7687C36.3621 63.7508 36.9651 63.6949 37.5627 63.6011C38.2239 63.497 38.879 63.3567 39.5248 63.1807L67.4014 103.023C67.3179 103.037 67.2335 103.054 67.1507 103.066C64.9486 103.407 63.2489 103.06 62.6043 102.139ZM83.1837 87.7276C83.7923 88.5973 83.597 90.1758 82.67 91.9933L54.8305 52.2042C55.0949 51.8026 55.34 51.3996 55.5614 50.9966C55.8537 50.4661 56.1121 49.9177 56.335 49.3545L83.1837 87.7276Z" fill="#393A32"/>
<path d="M123.776 85.5228C126.495 82.74 128.53 79.5729 129.506 76.6072C130.618 73.228 130.259 70.412 128.495 68.6781C128.434 68.619 128.373 68.5619 128.31 68.5062C128.282 68.4739 128.254 68.4415 128.223 68.4109L93.1755 33.968C91.411 32.2339 88.5967 31.9311 85.251 33.1153C82.3138 34.155 79.1991 36.2599 76.4805 39.0428C74.1581 41.42 72.335 44.0765 71.244 46.6497C71.0579 47.0888 70.8928 47.526 70.7505 47.9583C69.6383 51.3376 69.9976 54.1535 71.762 55.8874L107.081 90.5976C108.846 92.3317 111.66 92.6344 115.006 91.4503C117.943 90.4106 121.058 88.3056 123.776 85.5228ZM126.232 75.5323C126.117 75.8809 125.984 76.2332 125.833 76.5894C124.914 78.7577 123.34 81.0348 121.317 83.1062C118.962 85.5174 116.316 87.3225 113.867 88.189C111.887 88.8901 110.253 88.8656 109.498 88.1234C108.025 86.675 109.123 81.4269 114.259 76.1694C119.395 70.9122 124.604 69.7041 126.078 71.1523C126.833 71.8945 126.89 73.5318 126.232 75.5323V75.5323ZM75.4282 45.9961C76.0668 44.9183 76.7937 43.8954 77.6013 42.9382L110.456 75.2259C109.644 76.1742 108.9 77.1778 108.227 78.2295L75.4282 45.9961ZM82.9348 38.1365L115.747 70.3829C114.73 71.0985 113.762 71.8825 112.85 72.7295L79.9941 40.4401C80.9116 39.5949 81.895 38.8246 82.9348 38.1365V38.1365ZM90.7584 36.4422L122.213 67.3543C121.656 67.4766 121.107 67.6339 120.57 67.8254C119.976 68.0376 119.393 68.2824 118.825 68.5586L86.1645 36.461C86.2394 36.4329 86.3147 36.4029 86.3892 36.3765C88.3698 35.6755 90.0032 35.7 90.7584 36.4422ZM74.179 53.4132C73.4661 52.7125 73.3756 51.2136 73.9216 49.365L106.539 81.42C106.363 81.8389 106.206 82.2557 106.07 82.6684C105.89 83.2117 105.745 83.7658 105.636 84.3274L74.179 53.4132Z" fill="#393A32"/>
<path d="M37.6374 44.5436C34.2629 46.9068 31.5276 49.8045 29.9357 52.7005C28.122 56.0004 27.9525 59.0032 29.4587 61.1554C29.5101 61.2288 29.5633 61.3003 29.6178 61.3707C29.6411 61.4099 29.6643 61.4492 29.6908 61.4871L59.6041 104.24C61.1101 106.393 63.9882 107.261 67.7081 106.686C70.9738 106.181 74.6306 104.601 78.0051 102.238C80.8878 100.219 83.3035 97.8119 84.9391 95.3469C85.2182 94.9263 85.4749 94.5036 85.707 94.0814C87.5205 90.7814 87.6899 87.7788 86.184 85.6265L56.0384 42.5415C54.5325 40.3891 51.6545 39.5206 47.9344 40.0958C44.6687 40.6009 41.0119 42.1804 37.6374 44.5436ZM33.1442 54.4634C33.3313 54.123 33.5381 53.7822 33.7645 53.441C35.1428 51.364 37.2248 49.3024 39.7363 47.5433C42.6602 45.4958 45.7697 44.1363 48.4919 43.7153C50.6941 43.3748 52.3936 43.7214 53.0382 44.6426C54.296 46.4405 52.1359 51.6891 45.7608 56.1537C39.3856 60.6181 33.7167 60.8519 32.4589 59.0543C31.8144 58.1331 32.0706 56.4169 33.1442 54.4634V54.4634ZM80.4469 95.205C79.5722 96.2017 78.6161 97.1238 77.5884 97.9618L49.5467 57.8837C50.5765 57.0559 51.5474 56.1573 52.4524 55.1945L80.4469 95.205ZM71.0952 101.913L43.0894 61.8863C44.2893 61.3412 45.4508 60.7151 46.5658 60.0124L74.6089 100.092C73.4882 100.792 72.3132 101.401 71.0952 101.913V101.913ZM62.6043 102.139L35.7574 63.7687C36.3621 63.7508 36.9651 63.6949 37.5627 63.6011C38.2239 63.497 38.879 63.3567 39.5248 63.1807L67.4014 103.023C67.3179 103.037 67.2335 103.054 67.1507 103.066C64.9486 103.407 63.2489 103.06 62.6043 102.139ZM83.1837 87.7276C83.7923 88.5973 83.597 90.1758 82.67 91.9933L54.8305 52.2042C55.0949 51.8026 55.34 51.3996 55.5614 50.9966C55.8537 50.4661 56.1121 49.9177 56.335 49.3545L83.1837 87.7276Z" fill="#393A32"/>
</svg>
