<svg width="158" height="224" viewBox="0 0 158 224" fill="none" xmlns="http://www.w3.org/2000/svg">
<rect width="158" height="224" rx="5" fill="#FFD300"/>
<mask id="path-2-inside-1" fill="white">
<rect x="9" y="9" width="140" height="207" rx="2"/>
</mask>
<rect x="9" y="9" width="140" height="207" rx="2" fill="white" stroke="#2179B9" stroke-width="14" mask="url(#path-2-inside-1)"/>
<path d="M45.2407 47.288C42.9847 47.288 41.6047 46.244 41.1007 44.156L40.6507 42.302H39.8047V47H35.8627V34.616H41.3167C42.3487 34.616 43.2547 34.772 44.0347 35.084C44.8267 35.384 45.4387 35.81 45.8707 36.362C46.3027 36.914 46.5187 37.55 46.5187 38.27C46.5187 39.074 46.3207 39.752 45.9247 40.304C45.5407 40.844 44.9407 41.288 44.1247 41.636C44.2087 42.092 44.3047 42.506 44.4127 42.878C44.5567 43.334 44.7547 43.652 45.0067 43.832C45.2587 44.012 45.6247 44.102 46.1047 44.102C46.2727 44.102 46.5367 44.078 46.8967 44.03V46.964C46.3327 47.18 45.7807 47.288 45.2407 47.288ZM40.4887 39.782C41.3767 39.782 42.0007 39.686 42.3607 39.494C42.7327 39.29 42.9187 38.948 42.9187 38.468C42.9187 38.06 42.7687 37.766 42.4687 37.586C42.1687 37.394 41.6947 37.298 41.0467 37.298H39.8047V39.782H40.4887ZM52.409 47.144C51.401 47.144 50.615 46.82 50.051 46.172C49.487 45.524 49.205 44.642 49.205 43.526V37.982H53.021V43.364C53.021 43.64 53.093 43.856 53.237 44.012C53.393 44.156 53.591 44.228 53.831 44.228C54.071 44.228 54.317 44.156 54.569 44.012L54.767 46.514C54.503 46.718 54.155 46.874 53.723 46.982C53.303 47.09 52.865 47.144 52.409 47.144ZM51.113 36.632C50.549 36.632 50.069 36.458 49.673 36.11C49.289 35.75 49.097 35.312 49.097 34.796C49.097 34.28 49.301 33.848 49.709 33.5C50.117 33.152 50.585 32.978 51.113 32.978C51.665 32.978 52.139 33.158 52.535 33.518C52.943 33.878 53.147 34.304 53.147 34.796C53.147 35.324 52.943 35.762 52.535 36.11C52.127 36.458 51.653 36.632 51.113 36.632ZM61.9892 51.122C61.3292 51.122 60.6992 51.056 60.0992 50.924L60.3872 48.26C60.8552 48.332 61.2872 48.368 61.6832 48.368C62.4272 48.368 62.9912 48.146 63.3752 47.702C63.7592 47.27 63.9872 46.538 64.0592 45.506C63.3512 46.502 62.2712 47 60.8192 47C60.0272 47 59.2952 46.796 58.6232 46.388C57.9632 45.98 57.4352 45.428 57.0392 44.732C56.6552 44.036 56.4632 43.274 56.4632 42.446C56.4632 41.606 56.6552 40.838 57.0392 40.142C57.4232 39.434 57.9452 38.876 58.6052 38.468C59.2772 38.06 60.0092 37.856 60.8012 37.856C61.5332 37.856 62.1692 38.048 62.7092 38.432C63.2612 38.804 63.6212 39.308 63.7892 39.944V37.856H67.5872V44.714C67.5872 46.814 67.1072 48.404 66.1472 49.484C65.1992 50.576 63.8132 51.122 61.9892 51.122ZM61.9892 44.3C62.4692 44.3 62.8832 44.132 63.2312 43.796C63.5792 43.448 63.7652 43.04 63.7892 42.572V42.428C63.7652 41.972 63.5732 41.57 63.2132 41.222C62.8652 40.874 62.4572 40.7 61.9892 40.7C61.4972 40.7 61.0772 40.88 60.7292 41.24C60.3812 41.588 60.2072 42.008 60.2072 42.5C60.2072 42.992 60.3812 43.418 60.7292 43.778C61.0772 44.126 61.4972 44.3 61.9892 44.3ZM74.4689 47.144C73.6889 47.144 72.9569 46.94 72.2729 46.532C71.6009 46.112 71.0609 45.548 70.6529 44.84C70.2449 44.12 70.0409 43.322 70.0409 42.446C70.0409 41.582 70.2449 40.802 70.6529 40.106C71.0609 39.398 71.6069 38.846 72.2909 38.45C72.9749 38.054 73.7009 37.856 74.4689 37.856C75.0929 37.856 75.6689 38.03 76.1969 38.378C76.7369 38.726 77.1449 39.248 77.4209 39.944V37.856H81.2009V47H77.4209V45.326C76.8209 46.538 75.8369 47.144 74.4689 47.144ZM75.6389 44.3C76.1189 44.3 76.5269 44.132 76.8629 43.796C77.2109 43.448 77.3969 43.04 77.4209 42.572V42.428C77.3969 41.948 77.2049 41.54 76.8449 41.204C76.4969 40.868 76.0949 40.7 75.6389 40.7C75.1349 40.7 74.7029 40.88 74.3429 41.24C73.9949 41.588 73.8209 42.008 73.8209 42.5C73.8209 43.004 74.0009 43.43 74.3609 43.778C74.7209 44.126 75.1469 44.3 75.6389 44.3ZM88.0461 47.144C86.9901 47.144 86.1681 46.844 85.5801 46.244C84.9921 45.632 84.6981 44.792 84.6981 43.724V40.214H83.5461V37.982H84.9681L86.6421 34.58H88.4601V37.982H90.5481V40.214H88.4601V43.274C88.4601 43.574 88.5561 43.808 88.7481 43.976C88.9401 44.144 89.2101 44.228 89.5581 44.228C89.8821 44.228 90.1761 44.156 90.4401 44.012L90.5841 46.532C90.2841 46.712 89.8941 46.862 89.4141 46.982C88.9461 47.09 88.4901 47.144 88.0461 47.144ZM97.5646 47.144C96.5565 47.144 95.6565 46.946 94.8645 46.55C94.0845 46.154 93.4725 45.608 93.0285 44.912C92.5965 44.204 92.3805 43.394 92.3805 42.482C92.3805 41.57 92.6025 40.766 93.0465 40.07C93.4905 39.362 94.1025 38.816 94.8825 38.432C95.6745 38.048 96.5745 37.856 97.5825 37.856C98.6025 37.856 99.5025 38.054 100.283 38.45C101.075 38.834 101.687 39.374 102.119 40.07C102.551 40.766 102.767 41.57 102.767 42.482C102.767 43.406 102.545 44.222 102.101 44.93C101.669 45.626 101.057 46.172 100.265 46.568C99.4846 46.952 98.5846 47.144 97.5646 47.144ZM97.6006 44.444C98.0925 44.444 98.4945 44.264 98.8066 43.904C99.1305 43.532 99.2925 43.058 99.2925 42.482C99.2925 41.906 99.1305 41.438 98.8066 41.078C98.4945 40.706 98.0925 40.52 97.6006 40.52C97.1086 40.52 96.7005 40.706 96.3765 41.078C96.0645 41.438 95.9085 41.906 95.9085 42.482C95.9085 43.058 96.0645 43.532 96.3765 43.904C96.7005 44.264 97.1086 44.444 97.6006 44.444ZM105.196 38.108H108.814V39.944C109.51 38.552 110.614 37.856 112.126 37.856C113.278 37.856 114.178 38.27 114.826 39.098C115.486 39.914 115.816 41.048 115.816 42.5V47H112.036V42.122C112.036 41.606 111.922 41.21 111.694 40.934C111.478 40.658 111.172 40.52 110.776 40.52C110.488 40.52 110.206 40.616 109.93 40.808C109.654 40.988 109.426 41.252 109.246 41.6C109.078 41.948 108.994 42.344 108.994 42.788V47H105.196V38.108ZM121.801 47.144C120.793 47.144 120.007 46.82 119.443 46.172C118.879 45.524 118.597 44.642 118.597 43.526V37.982H122.413V43.364C122.413 43.64 122.485 43.856 122.629 44.012C122.785 44.156 122.983 44.228 123.223 44.228C123.463 44.228 123.709 44.156 123.961 44.012L124.159 46.514C123.895 46.718 123.547 46.874 123.115 46.982C122.695 47.09 122.257 47.144 121.801 47.144ZM120.505 36.632C119.941 36.632 119.461 36.458 119.065 36.11C118.681 35.75 118.489 35.312 118.489 34.796C118.489 34.28 118.693 33.848 119.101 33.5C119.509 33.152 119.977 32.978 120.505 32.978C121.057 32.978 121.531 33.158 121.927 33.518C122.335 33.878 122.539 34.304 122.539 34.796C122.539 35.324 122.335 35.762 121.927 36.11C121.519 36.458 121.045 36.632 120.505 36.632Z" fill="#393A32"/>
<path d="M60.9707 163.072H63.5027V164.296C63.6867 163.824 63.9347 163.476 64.2467 163.252C64.5667 163.02 64.9387 162.904 65.3627 162.904L65.7107 164.86C64.9507 164.86 64.3907 164.944 64.0307 165.112C63.6787 165.272 63.5027 165.528 63.5027 165.88V169H60.9707V163.072ZM68.6782 169.096C68.0062 169.096 67.4822 168.88 67.1062 168.448C66.7302 168.016 66.5422 167.428 66.5422 166.684V162.988H69.0862V166.576C69.0862 166.76 69.1342 166.904 69.2302 167.008C69.3342 167.104 69.4662 167.152 69.6262 167.152C69.7862 167.152 69.9502 167.104 70.1182 167.008L70.2502 168.676C70.0742 168.812 69.8422 168.916 69.5542 168.988C69.2742 169.06 68.9822 169.096 68.6782 169.096ZM67.8142 162.088C67.4382 162.088 67.1182 161.972 66.8542 161.74C66.5982 161.5 66.4702 161.208 66.4702 160.864C66.4702 160.52 66.6062 160.232 66.8782 160C67.1502 159.768 67.4622 159.652 67.8142 159.652C68.1822 159.652 68.4982 159.772 68.7622 160.012C69.0342 160.252 69.1702 160.536 69.1702 160.864C69.1702 161.216 69.0342 161.508 68.7622 161.74C68.4902 161.972 68.1742 162.088 67.8142 162.088ZM74.585 171.748C74.145 171.748 73.725 171.704 73.325 171.616L73.517 169.84C73.829 169.888 74.117 169.912 74.381 169.912C74.877 169.912 75.253 169.764 75.509 169.468C75.765 169.18 75.917 168.692 75.965 168.004C75.493 168.668 74.773 169 73.805 169C73.277 169 72.789 168.864 72.341 168.592C71.901 168.32 71.549 167.952 71.285 167.488C71.029 167.024 70.901 166.516 70.901 165.964C70.901 165.404 71.029 164.892 71.285 164.428C71.541 163.956 71.889 163.584 72.329 163.312C72.777 163.04 73.265 162.904 73.793 162.904C74.281 162.904 74.705 163.032 75.065 163.288C75.433 163.536 75.673 163.872 75.785 164.296V162.904H78.317V167.476C78.317 168.876 77.997 169.936 77.357 170.656C76.725 171.384 75.801 171.748 74.585 171.748ZM74.585 167.2C74.905 167.2 75.181 167.088 75.413 166.864C75.645 166.632 75.769 166.36 75.785 166.048V165.952C75.769 165.648 75.641 165.38 75.401 165.148C75.169 164.916 74.897 164.8 74.585 164.8C74.257 164.8 73.977 164.92 73.745 165.16C73.513 165.392 73.397 165.672 73.397 166C73.397 166.328 73.513 166.612 73.745 166.852C73.977 167.084 74.257 167.2 74.585 167.2ZM82.4247 169.096C81.9047 169.096 81.4167 168.96 80.9607 168.688C80.5127 168.408 80.1527 168.032 79.8807 167.56C79.6087 167.08 79.4727 166.548 79.4727 165.964C79.4727 165.388 79.6087 164.868 79.8807 164.404C80.1527 163.932 80.5167 163.564 80.9727 163.3C81.4287 163.036 81.9127 162.904 82.4247 162.904C82.8407 162.904 83.2247 163.02 83.5767 163.252C83.9367 163.484 84.2087 163.832 84.3927 164.296V162.904H86.9127V169H84.3927V167.884C83.9927 168.692 83.3367 169.096 82.4247 169.096ZM83.2047 167.2C83.5247 167.2 83.7967 167.088 84.0207 166.864C84.2527 166.632 84.3767 166.36 84.3927 166.048V165.952C84.3767 165.632 84.2487 165.36 84.0087 165.136C83.7767 164.912 83.5087 164.8 83.2047 164.8C82.8687 164.8 82.5807 164.92 82.3407 165.16C82.1087 165.392 81.9927 165.672 81.9927 166C81.9927 166.336 82.1127 166.62 82.3527 166.852C82.5927 167.084 82.8767 167.2 83.2047 167.2ZM90.9962 169.096C90.2922 169.096 89.7442 168.896 89.3522 168.496C88.9602 168.088 88.7642 167.528 88.7642 166.816V164.476H87.9962V162.988H88.9442L90.0602 160.72H91.2722V162.988H92.6642V164.476H91.2722V166.516C91.2722 166.716 91.3362 166.872 91.4642 166.984C91.5922 167.096 91.7722 167.152 92.0042 167.152C92.2202 167.152 92.4162 167.104 92.5922 167.008L92.6882 168.688C92.4882 168.808 92.2282 168.908 91.9082 168.988C91.5962 169.06 91.2922 169.096 90.9962 169.096ZM96.8619 169.096C96.1899 169.096 95.5899 168.964 95.0619 168.7C94.5419 168.436 94.1339 168.072 93.8379 167.608C93.5499 167.136 93.4059 166.596 93.4059 165.988C93.4059 165.38 93.5539 164.844 93.8499 164.38C94.1459 163.908 94.5539 163.544 95.0739 163.288C95.6019 163.032 96.2019 162.904 96.8739 162.904C97.5539 162.904 98.1539 163.036 98.6739 163.3C99.2019 163.556 99.6099 163.916 99.8979 164.38C100.186 164.844 100.33 165.38 100.33 165.988C100.33 166.604 100.182 167.148 99.8859 167.62C99.5979 168.084 99.1899 168.448 98.6619 168.712C98.1419 168.968 97.5419 169.096 96.8619 169.096ZM96.8859 167.296C97.2139 167.296 97.4819 167.176 97.6899 166.936C97.9059 166.688 98.0139 166.372 98.0139 165.988C98.0139 165.604 97.9059 165.292 97.6899 165.052C97.4819 164.804 97.2139 164.68 96.8859 164.68C96.5579 164.68 96.2859 164.804 96.0699 165.052C95.8619 165.292 95.7579 165.604 95.7579 165.988C95.7579 166.372 95.8619 166.688 96.0699 166.936C96.2859 167.176 96.5579 167.296 96.8859 167.296Z" fill="#2179B9"/>
<path d="M31.9772 184.672C31.9772 183.752 32.0292 183.092 32.1332 182.692C32.2452 182.284 32.4652 182.004 32.7932 181.852C33.1292 181.7 33.6772 181.624 34.4372 181.624V183.028C34.0292 183.028 33.7612 183.036 33.6332 183.052C33.5052 183.068 33.4212 183.116 33.3812 183.196C33.3412 183.276 33.3212 183.428 33.3212 183.652H34.4372V185.896H31.9772V184.672ZM35.0972 184.672C35.0972 183.752 35.1492 183.092 35.2532 182.692C35.3652 182.284 35.5852 182.004 35.9132 181.852C36.2492 181.7 36.7972 181.624 37.5572 181.624V183.028C37.1492 183.028 36.8812 183.036 36.7532 183.052C36.6252 183.068 36.5412 183.116 36.5012 183.196C36.4612 183.276 36.4412 183.428 36.4412 183.652H37.5572V185.896H35.0972V184.672ZM38.9334 184.072H41.4654V185.296C41.6494 184.824 41.8974 184.476 42.2094 184.252C42.5294 184.02 42.9014 183.904 43.3254 183.904L43.6734 185.86C42.9134 185.86 42.3534 185.944 41.9934 186.112C41.6414 186.272 41.4654 186.528 41.4654 186.88V190H38.9334V184.072ZM46.6409 190.096C45.9689 190.096 45.4449 189.88 45.0689 189.448C44.6929 189.016 44.5049 188.428 44.5049 187.684V183.988H47.0489V187.576C47.0489 187.76 47.0969 187.904 47.1929 188.008C47.2969 188.104 47.4289 188.152 47.5889 188.152C47.7489 188.152 47.9129 188.104 48.0809 188.008L48.2129 189.676C48.0369 189.812 47.8049 189.916 47.5169 189.988C47.2369 190.06 46.9449 190.096 46.6409 190.096ZM45.7769 183.088C45.4009 183.088 45.0809 182.972 44.8169 182.74C44.5609 182.5 44.4329 182.208 44.4329 181.864C44.4329 181.52 44.5689 181.232 44.8409 181C45.1129 180.768 45.4249 180.652 45.7769 180.652C46.1449 180.652 46.4609 180.772 46.7249 181.012C46.9969 181.252 47.1329 181.536 47.1329 181.864C47.1329 182.216 46.9969 182.508 46.7249 182.74C46.4529 182.972 46.1369 183.088 45.7769 183.088ZM51.7797 190.096C51.2357 190.096 50.7397 189.952 50.2917 189.664C49.8517 189.376 49.5037 188.996 49.2477 188.524C48.9917 188.044 48.8637 187.536 48.8637 187C48.8637 186.432 48.9957 185.912 49.2597 185.44C49.5317 184.96 49.8917 184.584 50.3397 184.312C50.7957 184.04 51.2797 183.904 51.7917 183.904C52.2557 183.904 52.6477 184 52.9677 184.192C53.2957 184.384 53.5597 184.692 53.7597 185.116V182.092L56.2917 181.72V190H53.7597V188.884C53.3837 189.692 52.7237 190.096 51.7797 190.096ZM52.5717 188.2C52.9077 188.2 53.1877 188.08 53.4117 187.84C53.6437 187.6 53.7597 187.32 53.7597 187V186.952C53.7597 186.64 53.6397 186.372 53.3997 186.148C53.1597 185.916 52.8837 185.8 52.5717 185.8C52.2357 185.8 51.9517 185.92 51.7197 186.16C51.4957 186.392 51.3837 186.672 51.3837 187C51.3837 187.336 51.4997 187.62 51.7317 187.852C51.9717 188.084 52.2517 188.2 52.5717 188.2ZM61.1549 192.748C60.7149 192.748 60.2949 192.704 59.8949 192.616L60.0869 190.84C60.3989 190.888 60.6869 190.912 60.9509 190.912C61.4469 190.912 61.8229 190.764 62.0789 190.468C62.3349 190.18 62.4869 189.692 62.5349 189.004C62.0629 189.668 61.3429 190 60.3749 190C59.8469 190 59.3589 189.864 58.9109 189.592C58.4709 189.32 58.1189 188.952 57.8549 188.488C57.5989 188.024 57.4709 187.516 57.4709 186.964C57.4709 186.404 57.5989 185.892 57.8549 185.428C58.1109 184.956 58.4589 184.584 58.8989 184.312C59.3469 184.04 59.8349 183.904 60.3629 183.904C60.8509 183.904 61.2749 184.032 61.6349 184.288C62.0029 184.536 62.2429 184.872 62.3549 185.296V183.904H64.8869V188.476C64.8869 189.876 64.5669 190.936 63.9269 191.656C63.2949 192.384 62.3709 192.748 61.1549 192.748ZM61.1549 188.2C61.4749 188.2 61.7509 188.088 61.9829 187.864C62.2149 187.632 62.3389 187.36 62.3549 187.048V186.952C62.3389 186.648 62.2109 186.38 61.9709 186.148C61.7389 185.916 61.4669 185.8 61.1549 185.8C60.8269 185.8 60.5469 185.92 60.3149 186.16C60.0829 186.392 59.9669 186.672 59.9669 187C59.9669 187.328 60.0829 187.612 60.3149 187.852C60.5469 188.084 60.8269 188.2 61.1549 188.2ZM69.4507 190.096C68.7867 190.096 68.1947 189.964 67.6747 189.7C67.1627 189.428 66.7627 189.06 66.4747 188.596C66.1867 188.124 66.0427 187.592 66.0427 187C66.0427 186.392 66.1907 185.852 66.4867 185.38C66.7827 184.908 67.1827 184.544 67.6867 184.288C68.1907 184.032 68.7507 183.904 69.3667 183.904C69.9587 183.904 70.4627 184.036 70.8787 184.3C71.3027 184.556 71.6187 184.908 71.8267 185.356C72.0347 185.796 72.1387 186.292 72.1387 186.844C72.1387 186.988 72.1307 187.092 72.1147 187.156L68.5147 187.624C68.6107 187.904 68.7667 188.108 68.9827 188.236C69.1987 188.356 69.4827 188.416 69.8347 188.416C70.3787 188.416 70.9667 188.276 71.5987 187.996L71.8987 189.604C71.1547 189.932 70.3387 190.096 69.4507 190.096ZM70.2787 186.112C70.1507 185.608 69.8467 185.356 69.3667 185.356C69.0787 185.356 68.8507 185.464 68.6827 185.68C68.5147 185.896 68.4267 186.176 68.4187 186.52L70.2787 186.112ZM75.8786 190.096C75.3346 190.096 74.8386 189.952 74.3906 189.664C73.9506 189.376 73.6026 188.996 73.3466 188.524C73.0906 188.044 72.9626 187.536 72.9626 187C72.9626 186.432 73.0946 185.912 73.3586 185.44C73.6306 184.96 73.9906 184.584 74.4386 184.312C74.8946 184.04 75.3786 183.904 75.8906 183.904C76.3546 183.904 76.7466 184 77.0666 184.192C77.3946 184.384 77.6586 184.692 77.8586 185.116V182.092L80.3906 181.72V190H77.8586V188.884C77.4826 189.692 76.8226 190.096 75.8786 190.096ZM76.6706 188.2C77.0066 188.2 77.2866 188.08 77.5106 187.84C77.7426 187.6 77.8586 187.32 77.8586 187V186.952C77.8586 186.64 77.7386 186.372 77.4986 186.148C77.2586 185.916 76.9826 185.8 76.6706 185.8C76.3346 185.8 76.0506 185.92 75.8186 186.16C75.5946 186.392 75.4826 186.672 75.4826 187C75.4826 187.336 75.5986 187.62 75.8306 187.852C76.0706 188.084 76.3506 188.2 76.6706 188.2ZM81.7978 190.624C82.2058 190.624 82.4738 190.616 82.6018 190.6C82.7298 190.584 82.8138 190.536 82.8538 190.456C82.8938 190.376 82.9138 190.224 82.9138 190H81.7978V187.756H84.2578V188.98C84.2578 189.9 84.2018 190.56 84.0898 190.96C83.9858 191.368 83.7658 191.648 83.4298 191.8C83.1018 191.952 82.5578 192.028 81.7978 192.028V190.624ZM90.2272 190.096C89.5472 190.096 89.0192 189.884 88.6432 189.46C88.2752 189.028 88.0912 188.44 88.0912 187.696V182.092L90.6232 181.72V187.516C90.6232 187.74 90.6752 187.904 90.7792 188.008C90.8912 188.104 91.0832 188.152 91.3552 188.152C91.5552 188.152 91.7512 188.104 91.9432 188.008L92.0272 189.688C91.4912 189.96 90.8912 190.096 90.2272 190.096ZM95.0023 190.096C94.3303 190.096 93.8063 189.88 93.4303 189.448C93.0543 189.016 92.8663 188.428 92.8663 187.684V183.988H95.4103V187.576C95.4103 187.76 95.4583 187.904 95.5543 188.008C95.6583 188.104 95.7903 188.152 95.9503 188.152C96.1103 188.152 96.2743 188.104 96.4423 188.008L96.5743 189.676C96.3983 189.812 96.1663 189.916 95.8783 189.988C95.5983 190.06 95.3063 190.096 95.0023 190.096ZM94.1383 183.088C93.7623 183.088 93.4423 182.972 93.1783 182.74C92.9223 182.5 92.7943 182.208 92.7943 181.864C92.7943 181.52 92.9303 181.232 93.2023 181C93.4743 180.768 93.7863 180.652 94.1383 180.652C94.5063 180.652 94.8223 180.772 95.0863 181.012C95.3583 181.252 95.4943 181.536 95.4943 181.864C95.4943 182.216 95.3583 182.508 95.0863 182.74C94.8143 182.972 94.4983 183.088 94.1383 183.088ZM97.5131 184.072H99.9251V185.296C100.389 184.368 101.125 183.904 102.133 183.904C102.901 183.904 103.501 184.18 103.933 184.732C104.373 185.276 104.593 186.032 104.593 187V190H102.073V186.748C102.073 186.404 101.997 186.14 101.845 185.956C101.701 185.772 101.497 185.68 101.233 185.68C101.041 185.68 100.853 185.744 100.669 185.872C100.485 185.992 100.333 186.168 100.213 186.4C100.101 186.632 100.045 186.896 100.045 187.192V190H97.5131V184.072ZM109.099 190.096C108.435 190.096 107.843 189.964 107.323 189.7C106.811 189.428 106.411 189.06 106.123 188.596C105.835 188.124 105.691 187.592 105.691 187C105.691 186.392 105.839 185.852 106.135 185.38C106.431 184.908 106.831 184.544 107.335 184.288C107.839 184.032 108.399 183.904 109.015 183.904C109.607 183.904 110.111 184.036 110.527 184.3C110.951 184.556 111.267 184.908 111.475 185.356C111.683 185.796 111.787 186.292 111.787 186.844C111.787 186.988 111.779 187.092 111.763 187.156L108.163 187.624C108.259 187.904 108.415 188.108 108.631 188.236C108.847 188.356 109.131 188.416 109.483 188.416C110.027 188.416 110.615 188.276 111.247 187.996L111.547 189.604C110.803 189.932 109.987 190.096 109.099 190.096ZM109.927 186.112C109.799 185.608 109.495 185.356 109.015 185.356C108.727 185.356 108.499 185.464 108.331 185.68C108.163 185.896 108.075 186.176 108.067 186.52L109.927 186.112ZM115.527 190.096C114.983 190.096 114.487 189.952 114.039 189.664C113.599 189.376 113.251 188.996 112.995 188.524C112.739 188.044 112.611 187.536 112.611 187C112.611 186.432 112.743 185.912 113.007 185.44C113.279 184.96 113.639 184.584 114.087 184.312C114.543 184.04 115.027 183.904 115.539 183.904C116.003 183.904 116.395 184 116.715 184.192C117.043 184.384 117.307 184.692 117.507 185.116V182.092L120.039 181.72V190H117.507V188.884C117.131 189.692 116.471 190.096 115.527 190.096ZM116.319 188.2C116.655 188.2 116.935 188.08 117.159 187.84C117.391 187.6 117.507 187.32 117.507 187V186.952C117.507 186.64 117.387 186.372 117.147 186.148C116.907 185.916 116.631 185.8 116.319 185.8C115.983 185.8 115.699 185.92 115.467 186.16C115.243 186.392 115.131 186.672 115.131 187C115.131 187.336 115.247 187.62 115.479 187.852C115.719 188.084 115.999 188.2 116.319 188.2ZM121.447 184.612C121.855 184.612 122.123 184.604 122.251 184.588C122.379 184.572 122.463 184.524 122.503 184.444C122.543 184.364 122.563 184.212 122.563 183.988H121.447V181.744H123.907V182.968C123.907 183.888 123.851 184.552 123.739 184.96C123.635 185.36 123.415 185.636 123.079 185.788C122.751 185.94 122.207 186.016 121.447 186.016V184.612ZM124.567 184.612C124.975 184.612 125.243 184.604 125.371 184.588C125.499 184.572 125.583 184.524 125.623 184.444C125.663 184.364 125.683 184.212 125.683 183.988H124.567V181.744H127.027V182.968C127.027 183.888 126.971 184.552 126.859 184.96C126.755 185.36 126.535 185.636 126.199 185.788C125.871 185.94 125.327 186.016 124.567 186.016V184.612Z" fill="#393A32"/>
<rect x="46" y="59.9014" width="65.45" height="0.897773" fill="#082D74"/>
<rect x="57.7808" y="59" width="13.9627" height="3.1422" fill="#3F8D43"/>
<rect x="71.7454" y="59" width="13.9627" height="3.1422" fill="white"/>
<rect x="85.7046" y="59" width="13.9627" height="3.1422" fill="#D12C29"/>
<path d="M41.5142 86.265C38.3071 88.5882 35.7076 91.437 34.1946 94.2841C32.4709 97.5284 32.3098 100.48 33.7413 102.596C33.7901 102.668 33.8407 102.739 33.8925 102.808C33.9146 102.847 33.9367 102.885 33.9619 102.922L62.391 144.954C63.8222 147.07 66.5575 147.924 70.0928 147.358C73.1965 146.862 76.6718 145.309 79.8789 142.986C82.6186 141.001 84.9143 138.634 86.4689 136.211C86.7341 135.797 86.9781 135.382 87.1986 134.967C88.9222 131.722 89.0831 128.77 87.6519 126.654L59.0021 84.2967C57.571 82.1806 54.8357 81.3267 51.3003 81.8922C48.1966 82.3888 44.7212 83.9417 41.5142 86.265ZM37.2439 96.0173C37.4217 95.6826 37.6182 95.3476 37.8334 95.0122C39.1433 92.9702 41.122 90.9434 43.5089 89.214C46.2878 87.201 49.2429 85.8645 51.8301 85.4507C53.923 85.1159 55.5382 85.4566 56.1508 86.3623C57.3462 88.1298 55.2933 93.2899 49.2345 97.6791C43.1756 102.068 37.788 102.298 36.5927 100.531C35.9801 99.625 36.2236 97.9378 37.2439 96.0173V96.0173ZM82.1995 136.071C81.3683 137.051 80.4596 137.958 79.4829 138.781L52.8325 99.3799C53.8112 98.566 54.734 97.6826 55.5941 96.736L82.1995 136.071ZM73.3119 142.666L46.6957 103.315C47.836 102.779 48.9399 102.164 49.9996 101.473L76.6512 140.876C75.5861 141.564 74.4694 142.163 73.3119 142.666V142.666ZM65.2423 142.888L39.7275 105.166C40.3021 105.148 40.8752 105.093 41.4432 105.001C42.0716 104.898 42.6941 104.76 43.3079 104.587L69.8013 143.757C69.7219 143.771 69.6418 143.787 69.563 143.8C67.4702 144.135 65.8549 143.794 65.2423 142.888ZM84.8006 128.72C85.3789 129.575 85.1933 131.127 84.3123 132.914L57.8541 93.7962C58.1054 93.4014 58.3384 93.0052 58.5488 92.609C58.8266 92.0875 59.0721 91.5483 59.2841 90.9947L84.8006 128.72Z" fill="#393A32"/>
<path d="M129.836 118.065C131.902 114.893 133.263 111.47 133.669 108.43C134.131 104.965 133.314 102.305 131.368 100.94C131.301 100.894 131.234 100.85 131.166 100.807C131.134 100.78 131.102 100.754 131.068 100.73L92.4153 73.618C90.4693 72.2529 87.7865 72.4578 84.8611 74.1946C82.2929 75.7194 79.7408 78.3059 77.6749 81.4779C75.9101 84.1875 74.6598 87.0789 74.0798 89.7604C73.9808 90.2179 73.9012 90.6699 73.8421 91.1132C73.38 94.5779 74.1971 97.2376 76.143 98.6024L115.096 125.925C117.042 127.29 119.724 127.085 122.65 125.348C125.218 123.823 127.77 121.237 129.836 118.065ZM130.424 107.969C130.377 108.326 130.313 108.691 130.232 109.062C129.743 111.321 128.662 113.802 127.124 116.163C125.334 118.911 123.169 121.125 121.028 122.396C119.296 123.424 117.765 123.689 116.932 123.105C115.307 121.965 115.437 116.695 119.339 110.702C123.242 104.71 127.906 102.621 129.531 103.761C130.364 104.345 130.698 105.918 130.424 107.969V107.969ZM77.8798 88.3884C78.2925 87.2331 78.7972 86.1154 79.3887 85.0469L115.623 110.462C115.026 111.523 114.502 112.625 114.053 113.761L77.8798 88.3884ZM83.5541 79.4601L119.742 104.843C118.913 105.715 118.142 106.644 117.435 107.625L81.1986 82.2079C81.9119 81.2282 82.6996 80.3094 83.5541 79.4601V79.4601ZM90.5786 76.4381L125.269 100.771C124.769 100.988 124.283 101.237 123.814 101.517C123.294 101.827 122.791 102.167 122.308 102.535L86.2871 77.2686C86.3522 77.2282 86.4175 77.1859 86.4827 77.1472C88.2144 76.119 89.7457 75.8539 90.5786 76.4381ZM77.9798 95.7822C77.1935 95.2307 76.8527 93.7971 77.0471 91.9128L113.02 117.145C112.927 117.581 112.851 118.012 112.795 118.435C112.72 118.993 112.679 119.554 112.672 120.117L77.9798 95.7822Z" fill="#393A32"/>
<path d="M41.5142 86.265C38.3071 88.5882 35.7076 91.437 34.1946 94.2841C32.4709 97.5284 32.3098 100.48 33.7413 102.596C33.7901 102.668 33.8407 102.739 33.8925 102.808C33.9146 102.847 33.9367 102.885 33.9619 102.922L62.391 144.954C63.8222 147.07 66.5575 147.924 70.0928 147.358C73.1965 146.862 76.6718 145.309 79.8789 142.986C82.6186 141.001 84.9143 138.634 86.4689 136.211C86.7341 135.797 86.9781 135.382 87.1986 134.967C88.9222 131.722 89.0831 128.77 87.6519 126.654L59.0021 84.2967C57.571 82.1806 54.8357 81.3267 51.3003 81.8922C48.1966 82.3888 44.7212 83.9417 41.5142 86.265ZM37.2439 96.0173C37.4217 95.6826 37.6182 95.3476 37.8334 95.0122C39.1433 92.9702 41.122 90.9434 43.5089 89.214C46.2878 87.201 49.2429 85.8645 51.8301 85.4507C53.923 85.1159 55.5382 85.4566 56.1508 86.3623C57.3462 88.1298 55.2933 93.2899 49.2345 97.6791C43.1756 102.068 37.788 102.298 36.5927 100.531C35.9801 99.625 36.2236 97.9378 37.2439 96.0173V96.0173ZM82.1995 136.071C81.3683 137.051 80.4596 137.958 79.4829 138.781L52.8325 99.3799C53.8112 98.566 54.734 97.6826 55.5941 96.736L82.1995 136.071ZM73.3119 142.666L46.6957 103.315C47.836 102.779 48.9399 102.164 49.9996 101.473L76.6512 140.876C75.5861 141.564 74.4694 142.163 73.3119 142.666V142.666ZM65.2423 142.888L39.7275 105.166C40.3021 105.148 40.8752 105.093 41.4432 105.001C42.0716 104.898 42.6941 104.76 43.3079 104.587L69.8013 143.757C69.7219 143.771 69.6418 143.787 69.563 143.8C67.4702 144.135 65.8549 143.794 65.2423 142.888ZM84.8006 128.72C85.3789 129.575 85.1933 131.127 84.3123 132.914L57.8541 93.7962C58.1054 93.4014 58.3384 93.0052 58.5488 92.609C58.8266 92.0875 59.0721 91.5483 59.2841 90.9947L84.8006 128.72Z" fill="#393A32"/>
<path d="M129.836 118.065C131.902 114.893 133.263 111.47 133.669 108.43C134.131 104.965 133.314 102.305 131.368 100.94C131.301 100.894 131.234 100.85 131.166 100.807C131.134 100.78 131.102 100.754 131.068 100.73L92.4153 73.618C90.4693 72.2529 87.7865 72.4578 84.8611 74.1946C82.2929 75.7194 79.7408 78.3059 77.6749 81.4779C75.9101 84.1875 74.6598 87.0789 74.0798 89.7604C73.9808 90.2179 73.9012 90.6699 73.8421 91.1132C73.38 94.5779 74.1971 97.2376 76.143 98.6024L115.096 125.925C117.042 127.29 119.724 127.085 122.65 125.348C125.218 123.823 127.77 121.237 129.836 118.065ZM130.424 107.969C130.377 108.326 130.313 108.691 130.232 109.062C129.743 111.321 128.662 113.802 127.124 116.163C125.334 118.911 123.169 121.125 121.028 122.396C119.296 123.424 117.765 123.689 116.932 123.105C115.307 121.965 115.437 116.695 119.339 110.702C123.242 104.71 127.906 102.621 129.531 103.761C130.364 104.345 130.698 105.918 130.424 107.969V107.969ZM77.8798 88.3884C78.2925 87.2331 78.7972 86.1154 79.3887 85.0469L115.623 110.462C115.026 111.523 114.502 112.625 114.053 113.761L77.8798 88.3884ZM83.5541 79.4601L119.742 104.843C118.913 105.715 118.142 106.644 117.435 107.625L81.1986 82.2079C81.9119 81.2282 82.6996 80.3094 83.5541 79.4601V79.4601ZM90.5786 76.4381L125.269 100.771C124.769 100.988 124.283 101.237 123.814 101.517C123.294 101.827 122.791 102.167 122.308 102.535L86.2871 77.2686C86.3522 77.2282 86.4175 77.1859 86.4827 77.1472C88.2144 76.119 89.7457 75.8539 90.5786 76.4381ZM77.9798 95.7822C77.1935 95.2307 76.8527 93.7971 77.0471 91.9128L113.02 117.145C112.927 117.581 112.851 118.012 112.795 118.435C112.72 118.993 112.679 119.554 112.672 120.117L77.9798 95.7822Z" fill="#393A32"/>
</svg>
