<svg width="158" height="224" viewBox="0 0 158 224" fill="none" xmlns="http://www.w3.org/2000/svg">
<rect width="158" height="224" rx="5" fill="#FFD300"/>
<mask id="path-2-inside-1" fill="white">
<rect x="9" y="9" width="140" height="207" rx="2"/>
</mask>
<rect x="9" y="9" width="140" height="207" rx="2" fill="white" stroke="#2179B9" stroke-width="14" mask="url(#path-2-inside-1)"/>
<g opacity="0.6">
<path d="M66.1589 83.0321L66.1514 83.0319H66.1438C61.5938 83.0319 58.2125 87.5429 58.2125 92.9569C58.2125 100.012 53.4676 105.507 47.6563 105.507C47.2261 105.507 46.9065 105.366 46.6957 105.155C46.4849 104.944 46.3438 104.625 46.3438 104.194C46.3438 103.764 46.4849 103.445 46.6957 103.234C46.9065 103.023 47.2261 102.882 47.6563 102.882C52.2063 102.882 55.5875 98.3709 55.5875 92.9569C55.5875 85.9015 60.3325 80.4069 66.1438 80.4069C70.6938 80.4069 74.075 75.8959 74.075 70.4819C74.075 63.4265 78.82 57.9319 84.6313 57.9319C89.1814 57.9319 92.5626 53.4208 92.5626 48.0068C92.5626 47.5767 92.7038 47.2571 92.9146 47.0463C93.1254 46.8355 93.445 46.6943 93.8751 46.6943C94.3052 46.6943 94.6248 46.8355 94.8356 47.0463C95.0464 47.2571 95.1876 47.5767 95.1876 48.0068C95.1876 55.0623 90.4426 60.5569 84.6313 60.5569C80.0813 60.5569 76.7001 65.0679 76.7001 70.4819C76.7001 77.5474 71.7696 83.2021 66.1589 83.0321Z" fill="white" fill-opacity="0.7" stroke="#FEF7BA"/>
<path d="M63.7876 35.3625C59.2375 35.3625 55.8563 39.8736 55.8563 45.2875C55.8563 52.343 51.1114 57.8376 45.3 57.8376C40.75 57.8376 37.3688 62.3486 37.3688 67.7626C37.3688 74.818 32.6238 80.3126 26.8125 80.3126C26.3824 80.3126 26.0628 80.1714 25.852 79.9606C25.6412 79.7498 25.5 79.4302 25.5 79.0001C25.5 78.57 25.6412 78.2504 25.852 78.0396C26.0628 77.8288 26.3824 77.6876 26.8125 77.6876C31.3625 77.6876 34.7438 73.1766 34.7438 67.7626C34.7438 60.7072 39.4887 55.2126 45.3 55.2126C49.8501 55.2126 53.2313 50.7015 53.2313 45.2875C53.2313 38.2321 57.9762 32.7375 63.7876 32.7375C68.3376 32.7375 71.7188 28.2265 71.7188 22.8125C71.7188 22.3824 71.86 22.0628 72.0708 21.852C72.2816 21.6412 72.6012 21.5 73.0313 21.5C73.4615 21.5 73.781 21.6412 73.9918 21.852C74.2026 22.0628 74.3438 22.3824 74.3438 22.8125C74.3438 29.8679 69.5989 35.3625 63.7876 35.3625Z" fill="white" fill-opacity="0.7" stroke="#FEF7BA"/>
<path d="M62.6999 60.5563C58.1499 60.5563 54.7687 65.0674 54.7687 70.4813C54.7687 77.5311 49.8473 83.0314 44.2124 83.0314C43.7823 83.0314 43.4627 82.8902 43.2519 82.6794C43.0411 82.4686 42.8999 82.149 42.8999 81.7189C42.8999 81.2887 43.0411 80.9691 43.2519 80.7583C43.4627 80.5475 43.7823 80.4063 44.2124 80.4063C48.7624 80.4063 52.1437 75.8953 52.1437 70.4813C52.1437 63.4259 56.8886 57.9313 62.6999 57.9313C67.25 57.9313 70.6312 53.4203 70.6312 48.0063C70.6312 40.9509 75.3761 35.4563 81.1875 35.4563C85.7375 35.4563 89.1187 30.9452 89.1187 25.5313C89.1187 25.1011 89.2599 24.7815 89.4707 24.5707C89.6815 24.3599 90.0011 24.2188 90.4312 24.2188C90.8614 24.2188 91.1809 24.3599 91.3917 24.5707C91.6025 24.7815 91.7437 25.1011 91.7437 25.5313C91.7437 32.5867 86.9988 38.0813 81.1875 38.0813C76.6374 38.0813 73.2562 42.5923 73.2562 48.0063C73.2562 55.0617 68.5113 60.5563 62.6999 60.5563Z" fill="white" fill-opacity="0.7" stroke="#FEF7BA"/>
<path d="M108.875 49.4561C108.875 49.0259 109.016 48.7063 109.227 48.4955C109.438 48.2847 109.757 48.1436 110.188 48.1436C110.967 48.1436 111.5 48.7929 111.5 49.4561C111.5 56.5115 106.755 62.0061 100.944 62.0061C96.3938 62.0061 93.0126 66.5171 93.0126 71.9311C93.0126 78.9865 88.2676 84.4811 82.4563 84.4811C77.9063 84.4811 74.525 88.9922 74.525 94.4061C74.525 101.462 69.7801 106.956 63.9688 106.956C63.5386 106.956 63.219 106.815 63.0082 106.604C62.7974 106.393 62.6562 106.074 62.6562 105.644C62.6562 105.214 62.7974 104.894 63.0082 104.683C63.219 104.472 63.5386 104.331 63.9688 104.331C68.5188 104.331 71.9 99.8201 71.9 94.4061C71.9 87.3507 76.645 81.8561 82.4563 81.8561C87.0063 81.8561 90.3875 77.3451 90.3875 71.9311C90.3875 64.8757 95.1325 59.3811 100.944 59.3811C105.494 59.3811 108.875 54.87 108.875 49.4561Z" fill="white" fill-opacity="0.7" stroke="#FEF7BA"/>
</g>
<path d="M99.0001 168.188C99.0001 162.751 102.375 158.438 106.688 158.438C113.063 158.438 118.125 152.438 118.125 144.938C118.125 143.813 117.375 143.063 116.25 143.063C115.125 143.063 114.375 143.813 114.375 144.938C114.375 150.376 111 154.688 106.688 154.688C100.313 154.688 95.25 160.688 95.25 168.188C95.25 173.626 91.875 177.938 87.5625 177.938C81.1875 177.938 76.125 183.938 76.125 191.438C76.125 196.876 72.75 201.188 68.4375 201.188C67.3125 201.188 66.5625 201.938 66.5625 203.063C66.5625 204.188 67.3125 204.938 68.4375 204.938C74.8125 204.938 79.875 198.938 79.875 191.438C79.875 186.001 83.25 181.688 87.5625 181.688C93.75 181.876 99.0001 175.688 99.0001 168.188Z" fill="white"/>
<path d="M87.5777 181.188L87.5701 181.188H87.5625C82.8688 181.188 79.375 185.843 79.375 191.438C79.375 198.743 74.4613 204.438 68.4375 204.438C67.9886 204.438 67.6534 204.291 67.4317 204.069C67.2099 203.847 67.0625 203.512 67.0625 203.063C67.0625 202.614 67.2099 202.279 67.4317 202.057C67.6534 201.836 67.9886 201.688 68.4375 201.688C73.1313 201.688 76.625 197.033 76.625 191.438C76.625 184.133 81.5387 178.438 87.5625 178.438C92.2563 178.438 95.75 173.783 95.75 168.188C95.75 160.883 100.664 155.188 106.688 155.188C111.381 155.188 114.875 150.533 114.875 144.938C114.875 144.489 115.023 144.154 115.244 143.932C115.466 143.71 115.801 143.563 116.25 143.563C116.699 143.563 117.034 143.71 117.256 143.932C117.478 144.154 117.625 144.489 117.625 144.938C117.625 152.243 112.711 157.938 106.688 157.938C101.994 157.938 98.5001 162.593 98.5001 168.188C98.5001 175.504 93.3946 181.365 87.5777 181.188Z" stroke="#FEF7BA" stroke-opacity="0.6"/>
<path d="M77.4376 142.125C77.4376 136.688 80.8126 132.375 85.1251 132.375C91.5001 132.375 96.5626 126.375 96.5626 118.875C96.5626 117.75 95.8126 117 94.6876 117C93.5626 117 92.8126 117.75 92.8126 118.875C92.8126 124.313 89.4376 128.625 85.1251 128.625C78.7501 128.625 73.6875 134.625 73.6875 142.125C73.6875 147.563 70.3125 151.875 66 151.875C59.625 151.875 54.5625 157.875 54.5625 165.375C54.5625 170.813 51.1875 175.125 46.875 175.125C45.75 175.125 45 175.875 45 177C45 178.125 45.75 178.875 46.875 178.875C53.25 178.875 58.3125 172.875 58.3125 165.375C58.3125 159.938 61.6875 155.625 66 155.625C72.375 155.625 77.4376 149.625 77.4376 142.125Z" fill="white"/>
<path d="M85.1251 131.875C80.4313 131.875 76.9376 136.53 76.9376 142.125C76.9376 149.43 72.0239 155.125 66 155.125C61.3063 155.125 57.8125 159.78 57.8125 165.375C57.8125 172.681 52.8988 178.375 46.875 178.375C46.4261 178.375 46.0909 178.228 45.8692 178.006C45.6474 177.784 45.5 177.449 45.5 177C45.5 176.551 45.6474 176.216 45.8692 175.994C46.0909 175.773 46.4261 175.625 46.875 175.625C51.5688 175.625 55.0625 170.97 55.0625 165.375C55.0625 158.07 59.9762 152.375 66 152.375C70.6938 152.375 74.1875 147.72 74.1875 142.125C74.1875 134.82 79.1012 129.125 85.1251 129.125C89.8188 129.125 93.3126 124.47 93.3126 118.875C93.3126 118.426 93.46 118.091 93.6818 117.869C93.9035 117.647 94.2387 117.5 94.6876 117.5C95.1365 117.5 95.4717 117.647 95.6934 117.869C95.9151 118.091 96.0626 118.426 96.0626 118.875C96.0626 126.18 91.1489 131.875 85.1251 131.875Z" stroke="#FEF7BA" stroke-opacity="0.6"/>
<path d="M76.3125 168.188C76.3125 162.75 79.6875 158.438 84 158.438C90.375 158.438 95.4376 152.438 95.4376 144.938C95.4376 139.5 98.8126 135.188 103.125 135.188C109.5 135.188 114.563 129.188 114.563 121.688C114.563 120.563 113.813 119.812 112.688 119.812C111.563 119.812 110.813 120.563 110.813 121.688C110.813 127.125 107.438 131.438 103.125 131.438C96.7501 131.438 91.6875 137.438 91.6875 144.938C91.6875 150.375 88.3125 154.688 84 154.688C77.625 154.688 72.5625 160.688 72.5625 168.188C72.5625 173.625 69.1875 177.938 64.875 177.938C63.75 177.938 63 178.688 63 179.813C63 180.938 63.75 181.688 64.875 181.688C71.0625 181.688 76.3125 175.688 76.3125 168.188Z" fill="white"/>
<path d="M84 157.938C79.3063 157.938 75.8125 162.592 75.8125 168.188C75.8125 175.487 70.7162 181.188 64.875 181.188C64.4261 181.188 64.0909 181.04 63.8692 180.818C63.6474 180.597 63.5 180.261 63.5 179.813C63.5 179.364 63.6474 179.029 63.8692 178.807C64.0909 178.585 64.4261 178.438 64.875 178.438C69.5688 178.438 73.0625 173.783 73.0625 168.188C73.0625 160.882 77.9762 155.188 84 155.188C88.6938 155.188 92.1875 150.533 92.1875 144.938C92.1875 137.632 97.1012 131.938 103.125 131.938C107.819 131.938 111.313 127.283 111.313 121.688C111.313 121.239 111.46 120.903 111.682 120.682C111.903 120.46 112.239 120.312 112.688 120.312C113.136 120.312 113.472 120.46 113.693 120.682C113.915 120.903 114.063 121.239 114.063 121.688C114.063 128.993 109.149 134.688 103.125 134.688C98.4313 134.688 94.9376 139.342 94.9376 144.938C94.9376 152.243 90.0239 157.938 84 157.938Z" stroke="#FEF7BA" stroke-opacity="0.6"/>
<path d="M133.125 144.562C132 144.562 131.25 145.313 131.25 146.438C131.25 151.875 127.875 156.188 123.563 156.188C117.188 156.188 112.125 162.188 112.125 169.688C112.125 175.125 108.75 179.438 104.438 179.438C98.0625 179.438 93 185.438 93 192.938C93 198.375 89.625 202.688 85.3125 202.688C84.1875 202.688 83.4375 203.438 83.4375 204.563C83.4375 205.688 84.1875 206.438 85.3125 206.438C91.6875 206.438 96.75 200.438 96.75 192.938C96.75 187.5 100.125 183.188 104.438 183.188C110.813 183.188 115.875 177.188 115.875 169.688C115.875 164.25 119.25 159.938 123.563 159.938C129.938 159.938 135 153.938 135 146.438C135 145.5 134.25 144.562 133.125 144.562Z" fill="white"/>
<path d="M131.75 146.438C131.75 145.989 131.898 145.653 132.119 145.432C132.341 145.21 132.676 145.062 133.125 145.062C133.942 145.062 134.5 145.743 134.5 146.438C134.5 153.743 129.586 159.438 123.563 159.438C118.869 159.438 115.375 164.092 115.375 169.688C115.375 176.993 110.461 182.688 104.438 182.688C99.7438 182.688 96.25 187.342 96.25 192.938C96.25 200.243 91.3363 205.938 85.3125 205.938C84.8636 205.938 84.5284 205.79 84.3067 205.568C84.0849 205.347 83.9375 205.011 83.9375 204.563C83.9375 204.114 84.0849 203.779 84.3067 203.557C84.5284 203.335 84.8636 203.188 85.3125 203.188C90.0063 203.188 93.5 198.533 93.5 192.938C93.5 185.632 98.4137 179.938 104.438 179.938C109.131 179.938 112.625 175.283 112.625 169.688C112.625 162.382 117.539 156.688 123.563 156.688C128.256 156.688 131.75 152.033 131.75 146.438Z" stroke="#FEF7BA" stroke-opacity="0.6"/>
<path d="M109.102 147.567L110.076 149.346C110.251 149.666 110.588 149.866 110.953 149.866C111.318 149.866 111.655 149.667 111.83 149.346L112.805 147.566C113.683 145.96 114.997 144.645 116.605 143.765L118.385 142.792C118.706 142.616 118.906 142.28 118.906 141.914C118.906 141.549 118.707 141.212 118.385 141.037L116.606 140.063C114.998 139.182 113.683 137.868 112.804 136.26L111.83 134.481C111.48 133.84 110.426 133.84 110.076 134.481L109.101 136.261C108.223 137.867 106.909 139.182 105.301 140.063L103.521 141.037C103.2 141.212 103 141.549 103 141.914C103 142.28 103.199 142.616 103.521 142.792L105.3 143.764C106.909 144.646 108.223 145.96 109.102 147.567ZM106.261 141.818C108.205 140.754 109.794 139.164 110.856 137.222L110.953 137.045L111.049 137.221C112.111 139.163 113.7 140.753 115.646 141.818L115.821 141.915L115.645 142.011C113.701 143.075 112.112 144.665 111.05 146.607L110.953 146.784L110.857 146.608C109.795 144.666 108.206 143.076 106.26 142.01L106.085 141.915L106.261 141.818Z" fill="#FFD300"/>
<path d="M130.22 203.406L130.893 204.639C131.015 204.861 131.248 205 131.5 205C131.752 205 131.985 204.862 132.106 204.639L132.781 203.405C133.388 202.292 134.297 201.38 135.409 200.77L136.64 200.095C136.862 199.973 137 199.74 137 199.487C137 199.234 136.862 199 136.64 198.879L135.409 198.203C134.297 197.593 133.388 196.682 132.78 195.567L132.106 194.333C131.864 193.889 131.136 193.889 130.893 194.333L130.219 195.567C129.612 196.681 128.703 197.593 127.591 198.203L126.36 198.879C126.138 199 126 199.234 126 199.487C126 199.74 126.138 199.973 126.36 200.095L127.591 200.769C128.703 201.381 129.612 202.292 130.22 203.406ZM128.255 199.42C129.6 198.682 130.698 197.58 131.433 196.234L131.5 196.111L131.566 196.233C132.301 197.579 133.4 198.682 134.746 199.42L134.867 199.487L134.745 199.554C133.4 200.292 132.302 201.394 131.567 202.74L131.5 202.863L131.434 202.741C130.699 201.395 129.6 200.292 128.254 199.553L128.133 199.487L128.255 199.42Z" fill="#D12C29"/>
<path d="M130.836 108.406L131.449 109.639C131.559 109.861 131.771 110 132 110C132.229 110 132.441 109.862 132.551 109.639L133.164 108.405C133.716 107.292 134.542 106.38 135.553 105.77L136.672 105.095C136.874 104.973 137 104.74 137 104.487C137 104.234 136.875 104 136.672 103.879L135.554 103.203C134.543 102.593 133.716 101.682 133.164 100.567L132.551 99.3333C132.331 98.8889 131.669 98.8889 131.449 99.3333L130.836 100.567C130.284 101.681 129.458 102.593 128.447 103.203L127.328 103.879C127.126 104 127 104.234 127 104.487C127 104.74 127.125 104.973 127.328 105.095L128.446 105.769C129.458 106.381 130.284 107.292 130.836 108.406ZM129.05 104.42C130.272 103.682 131.271 102.58 131.939 101.234L132 101.111L132.06 101.233C132.728 102.579 133.727 103.682 134.95 104.42L135.06 104.487L134.95 104.554C133.728 105.292 132.729 106.394 132.061 107.74L132 107.863L131.94 107.741C131.272 106.395 130.273 105.292 129.05 104.553L128.94 104.487L129.05 104.42Z" fill="#025EA1"/>
<path d="M26.8363 202.406L27.4486 203.639C27.5587 203.861 27.7705 204 28 204C28.2295 204 28.4413 203.862 28.5514 203.639L29.1643 202.405C29.7163 201.292 30.5424 200.38 31.5534 199.77L32.6725 199.095C32.8743 198.973 33 198.74 33 198.487C33 198.234 32.8749 198 32.6725 197.879L31.554 197.203C30.5431 196.593 29.7163 195.682 29.1637 194.567L28.5514 193.333C28.3313 192.889 27.6687 192.889 27.4486 193.333L26.8357 194.567C26.2837 195.681 25.4576 196.593 24.4466 197.203L23.3275 197.879C23.1257 198 23 198.234 23 198.487C23 198.74 23.1251 198.973 23.3275 199.095L24.446 199.769C25.4576 200.381 26.2837 201.292 26.8363 202.406ZM25.0502 198.42C26.2723 197.682 27.2713 196.58 27.939 195.234L28 195.111L28.0604 195.233C28.728 196.579 29.727 197.682 30.9505 198.42L31.0605 198.487L30.9498 198.554C29.7276 199.292 28.7287 200.394 28.061 201.74L28 201.863L27.9396 201.741C27.272 200.395 26.273 199.292 25.0495 198.553L24.9395 198.487L25.0502 198.42Z" fill="#025EA1"/>
<path d="M34.6035 36.2612L35.3384 37.6067C35.4704 37.8487 35.7246 38 36 38C36.2754 38 36.5296 37.8495 36.6616 37.6067L37.3972 36.2604C38.0596 35.0457 39.0509 34.0511 40.264 33.3855L41.6069 32.6496C41.8491 32.5165 42 32.2624 42 31.9855C42 31.7095 41.8499 31.4546 41.6069 31.3222L40.2648 30.5855C39.0517 29.9192 38.0596 28.9254 37.3965 27.7092L36.6616 26.3636C36.3976 25.8788 35.6024 25.8788 35.3384 26.3636L34.6028 27.7099C33.9404 28.9246 32.9491 29.9192 31.7359 30.5855L30.3931 31.3222C30.1509 31.4546 30 31.7095 30 31.9855C30 32.2624 30.1501 32.5165 30.3931 32.6496L31.7352 33.3848C32.9491 34.0519 33.9404 35.0457 34.6035 36.2612ZM32.4602 31.9129C33.9268 31.1082 35.1256 29.9056 35.9268 28.4368L36 28.3029L36.0724 28.436C36.8736 29.9048 38.0724 31.1074 39.5405 31.9129L39.6726 31.9863L39.5398 32.0589C38.0732 32.8637 36.8744 34.0662 36.0732 35.5351L36 35.6689L35.9276 35.5358C35.1264 34.067 33.9276 32.8644 32.4594 32.0581L32.3274 31.9863L32.4602 31.9129Z" fill="#3F8D43"/>
<path d="M84.472 93.944C85.025 93.944 85.472 93.497 85.472 92.944V91.472H86.944C87.497 91.472 87.944 91.025 87.944 90.472C87.944 89.919 87.497 89.472 86.944 89.472H85.472V88C85.472 87.447 85.025 87 84.472 87C83.919 87 83.472 87.447 83.472 88V89.472H82C81.447 89.472 81 89.919 81 90.472C81 91.025 81.447 91.472 82 91.472H83.472V92.944C83.472 93.497 83.92 93.944 84.472 93.944Z" fill="#D12C29"/>
<path d="M25.472 127.944C26.025 127.944 26.472 127.497 26.472 126.944V125.472H27.944C28.497 125.472 28.944 125.025 28.944 124.472C28.944 123.919 28.497 123.472 27.944 123.472H26.472V122C26.472 121.447 26.025 121 25.472 121C24.919 121 24.472 121.447 24.472 122V123.472H23C22.447 123.472 22 123.919 22 124.472C22 125.025 22.447 125.472 23 125.472H24.472V126.944C24.472 127.497 24.92 127.944 25.472 127.944Z" fill="#3F8D43"/>
<path d="M114.483 85.0418L133.556 75.4356C134.441 74.9901 134.939 74.1485 135.161 73.1361C135.383 72.1306 135.347 70.9063 135.133 69.5789C134.703 66.9194 133.534 63.7096 132.018 60.7004C130.503 57.6913 128.62 54.8404 126.739 52.9121C125.8 51.9497 124.837 51.1923 123.898 50.7714C122.952 50.3476 121.979 50.2463 121.095 50.6918L102.021 60.298C101.136 60.7435 100.639 61.5851 100.416 62.5975C100.195 63.603 100.23 64.8273 100.445 66.1546C100.874 68.8142 102.044 72.024 103.559 75.0331C105.075 78.0423 106.957 80.8932 108.839 82.8215C109.778 83.7839 110.74 84.5413 111.68 84.9622C112.626 85.386 113.598 85.4873 114.483 85.0418ZM122.099 52.7884C122.533 52.6811 123.075 52.7813 123.731 53.1473C124.407 53.5247 125.147 54.1543 125.913 54.988C127.443 56.6528 129.004 59.0529 130.289 61.6048C131.575 64.157 132.567 66.8256 132.98 69.0178C133.187 70.1158 133.243 71.0662 133.135 71.8112C133.03 72.5382 132.779 73.0074 132.426 73.2683C132.092 73.4215 131.641 73.3913 131.028 73.0607C130.398 72.7208 129.682 72.1046 128.922 71.2588C127.408 69.5727 125.813 67.0789 124.479 64.43C123.145 61.7811 122.091 59.0149 121.638 56.7944C121.41 55.6806 121.341 54.7385 121.443 54.0297C121.542 53.3476 121.782 52.968 122.099 52.7884Z" fill="#FEF7BA" stroke="#FEF7BA"/>
<path d="M109.102 35.5668L110.076 37.3457C110.251 37.6657 110.588 37.8658 110.953 37.8658C111.318 37.8658 111.655 37.6667 111.83 37.3457L112.805 35.5658C113.683 33.9598 114.997 32.6448 116.605 31.7648L118.385 30.7918C118.706 30.6158 118.906 30.2798 118.906 29.9138C118.906 29.5488 118.707 29.2117 118.385 29.0367L116.606 28.0628C114.998 27.1818 113.683 25.8678 112.804 24.2598L111.83 22.4807C111.48 21.8397 110.426 21.8397 110.076 22.4807L109.101 24.2608C108.223 25.8668 106.909 27.1818 105.301 28.0628L103.521 29.0367C103.2 29.2117 103 29.5488 103 29.9138C103 30.2798 103.199 30.6158 103.521 30.7918L105.3 31.7638C106.909 32.6458 108.223 33.9598 109.102 35.5668ZM106.261 29.8177C108.205 28.7537 109.794 27.1638 110.856 25.2218L110.953 25.0448L111.049 25.2208C112.111 27.1628 113.7 28.7527 115.646 29.8177L115.821 29.9148L115.645 30.0108C113.701 31.0748 112.112 32.6647 111.05 34.6067L110.953 34.7837L110.857 34.6078C109.795 32.6658 108.206 31.0758 106.26 30.0098L106.085 29.9148L106.261 29.8177Z" fill="#D12C29"/>
<path d="M53.3268 83.943L86.5066 67.2326C89.2465 65.8527 90.1182 62.708 89.8828 59.1241C89.6458 55.5133 88.2842 51.2656 86.315 47.3556C84.3458 43.4456 81.7434 39.8227 78.9834 37.4826C76.244 35.1599 73.1984 33.9881 70.4585 35.368L37.2788 52.0784C34.5389 53.4583 33.6672 56.603 33.9025 60.1869C34.1396 63.7976 35.5011 68.0454 37.4703 71.9554C39.4395 75.8654 42.0419 79.4882 44.8019 81.8284C47.5414 84.1511 50.587 85.3229 53.3268 83.943ZM71.65 37.8116C73.4798 37.2135 75.6688 38.1246 77.913 40.1773C80.1446 42.2184 82.2944 45.2725 83.9623 48.5842C85.6304 51.8963 86.7949 55.4234 87.089 58.3951C87.3852 61.3887 86.7873 63.6307 85.1901 64.677C84.4014 65.0654 83.5111 65.064 82.5246 64.7015C81.5185 64.3318 80.4372 63.5933 79.3355 62.5559C77.1337 60.4828 74.944 57.3049 73.2125 53.867C71.4811 50.4291 70.2314 46.7778 69.8765 43.7744C69.6989 42.2717 69.7493 40.9632 70.0512 39.9348C70.3463 38.9296 70.8727 38.2148 71.65 37.8116Z" fill="#2179B9" stroke="#2179B9"/>
<path d="M87.3382 196.03L117.88 194.662C119.187 194.603 120.276 193.937 121.15 192.895C122.017 191.861 122.691 190.438 123.197 188.79C124.21 185.493 124.588 181.174 124.397 176.906C124.206 172.639 123.443 168.371 122.139 165.177C121.488 163.582 120.689 162.224 119.733 161.272C118.769 160.312 117.625 159.747 116.318 159.805L85.7762 161.174C84.4691 161.232 83.38 161.898 82.5063 162.94C81.639 163.974 80.9649 165.398 80.4587 167.045C79.4456 170.342 79.0678 174.661 79.2591 178.929C79.4503 183.197 80.213 187.465 81.5169 190.658C82.1684 192.254 82.9671 193.611 83.9234 194.564C84.8868 195.523 86.0311 196.089 87.3382 196.03ZM116.397 162.484C117.128 162.587 117.828 163.03 118.484 163.814C119.154 164.614 119.75 165.737 120.256 167.101C121.266 169.829 121.878 173.424 122.04 177.05C122.203 180.677 121.914 184.292 121.151 187.06C120.769 188.444 120.275 189.59 119.681 190.417C119.097 191.229 118.442 191.7 117.722 191.834C117.066 191.852 116.428 191.523 115.808 190.804C115.174 190.069 114.601 188.972 114.112 187.598C113.135 184.854 112.534 181.133 112.365 177.369C112.197 173.605 112.462 169.846 113.19 167.025C113.554 165.612 114.026 164.469 114.592 163.68C115.143 162.913 115.746 162.528 116.397 162.484Z" fill="#2179B9" stroke="#2179B9"/>
<path d="M38.1164 107.672H34.8274V104.176H46.7644V107.672H43.4754V120H38.1164V107.672ZM57.9918 120.368C56.4738 120.368 55.1168 120.077 53.9208 119.494C52.7401 118.911 51.8201 118.099 51.1608 117.056C50.5014 115.998 50.1718 114.794 50.1718 113.445V104.176H55.3698V113.445C55.3698 114.365 55.5921 115.055 56.0368 115.515C56.4814 115.975 57.1331 116.205 57.9918 116.205C58.8504 116.205 59.5021 115.975 59.9468 115.515C60.3914 115.04 60.6138 114.35 60.6138 113.445V104.176H65.8118V113.445C65.8118 114.794 65.4821 115.998 64.8228 117.056C64.1634 118.099 63.2358 118.911 62.0398 119.494C60.8591 120.077 59.5098 120.368 57.9918 120.368ZM70.0403 104.176H80.9423V107.672H74.9853V110.869H80.5054V113.767H74.9853V120H70.0403V104.176ZM92.2195 120.368C90.5635 120.368 89.0915 120.015 87.8035 119.31C86.5309 118.605 85.5342 117.631 84.8135 116.389C84.1082 115.132 83.7555 113.706 83.7555 112.111C83.7555 110.501 84.1082 109.067 84.8135 107.81C85.5342 106.553 86.5309 105.579 87.8035 104.889C89.0915 104.184 90.5635 103.831 92.2195 103.831C93.8755 103.831 95.3399 104.184 96.6125 104.889C97.9005 105.579 98.8972 106.553 99.6025 107.81C100.323 109.052 100.684 110.486 100.684 112.111C100.684 113.706 100.323 115.132 99.6025 116.389C98.8972 117.631 97.9005 118.605 96.6125 119.31C95.3245 120.015 93.8602 120.368 92.2195 120.368ZM92.2195 116.182C93.1855 116.182 93.9752 115.806 94.5885 115.055C95.2172 114.304 95.5315 113.315 95.5315 112.088C95.5315 111.275 95.3859 110.555 95.0945 109.926C94.8185 109.282 94.4275 108.784 93.9215 108.431C93.4155 108.063 92.8405 107.879 92.1965 107.879C91.5679 107.879 91.0005 108.063 90.4945 108.431C89.9885 108.784 89.5975 109.282 89.3215 109.926C89.0455 110.555 88.9075 111.275 88.9075 112.088C88.9075 113.315 89.2142 114.304 89.8275 115.055C90.4409 115.806 91.2382 116.182 92.2195 116.182ZM104.268 104.176H109.236V116.504H114.733V120H104.268V104.176ZM118.024 104.176H123.337V120H118.024V104.176Z" fill="#393A32"/>
<path d="M48.3582 186.896L67.6019 166.725C68.4465 165.84 68.7089 164.662 68.5737 163.373C68.4395 162.093 67.9112 160.661 67.1204 159.177C65.5369 156.206 62.8357 152.91 59.7931 150.007C56.7505 147.104 53.3311 144.561 50.289 143.119C48.7699 142.399 47.3142 141.939 46.029 141.865C44.7353 141.79 43.5712 142.108 42.7266 142.993L23.483 163.164C22.6384 164.049 22.3759 165.227 22.5111 166.516C22.6454 167.796 23.1736 169.228 23.9644 170.712C25.5479 173.683 28.2492 176.979 31.2918 179.882C34.3343 182.784 37.7538 185.328 40.7958 186.77C42.315 187.49 43.7706 187.95 45.0559 188.024C46.3495 188.099 47.5136 187.781 48.3582 186.896ZM44.6167 144.858C45.1497 144.488 45.8969 144.361 46.8648 144.503C47.854 144.649 49.0166 145.07 50.2853 145.721C52.8203 147.02 55.6848 149.185 58.2733 151.655C60.8619 154.124 63.1449 156.87 64.5344 159.314C65.23 160.538 65.6875 161.661 65.8598 162.619C66.0291 163.561 65.9152 164.288 65.5495 164.813C65.1523 165.211 64.53 165.382 63.6284 165.262C62.7079 165.14 61.5789 164.723 60.3139 164.055C57.7895 162.723 54.846 160.462 52.1598 157.899C49.4736 155.337 47.0764 152.503 45.6272 150.044C44.901 148.811 44.4309 147.703 44.2657 146.79C44.1051 145.9 44.2433 145.273 44.6167 144.858Z" fill="#FEF7BA" stroke="#FEF7BA"/>
</svg>
