<svg width="166" height="232" viewBox="0 0 166 232" fill="none" xmlns="http://www.w3.org/2000/svg">
<rect x="4" y="4" width="158" height="224" rx="5" fill="#FFF8F8" stroke="#F7575C" stroke-width="7"/>
<path d="M69.314 26.696C69.306 26.736 69.302 26.788 69.302 26.852C69.302 26.996 69.342 27.1 69.422 27.164C69.51 27.228 69.65 27.26 69.842 27.26H70.574L70.262 29H69.218C67.874 29 67.202 28.436 67.202 27.308C67.202 27.14 67.222 26.928 67.262 26.672L67.742 24.008H66.926L67.226 22.304H68.042L68.33 20.672H70.382L70.094 22.304H71.438L71.138 24.008H69.794L69.314 26.696ZM79.433 22.304L78.257 29H76.205L76.361 28.088C76.097 28.384 75.773 28.624 75.389 28.808C75.013 28.984 74.609 29.072 74.177 29.072C73.505 29.072 72.977 28.884 72.593 28.508C72.209 28.124 72.017 27.592 72.017 26.912C72.017 26.656 72.037 26.424 72.077 26.216L72.773 22.304H74.813L74.177 25.94C74.153 26.068 74.141 26.192 74.141 26.312C74.141 26.648 74.233 26.908 74.417 27.092C74.609 27.268 74.873 27.356 75.209 27.356C75.593 27.356 75.917 27.244 76.181 27.02C76.453 26.788 76.633 26.46 76.721 26.036L77.381 22.304H79.433ZM84.651 21.344C84.259 21.32 83.971 21.376 83.787 21.512C83.611 21.648 83.491 21.892 83.427 22.244L83.415 22.304H84.519L84.219 24.008H83.115L82.239 29H80.175L81.051 24.008H80.307L80.607 22.304H81.351L81.387 22.112C81.539 21.288 81.887 20.664 82.431 20.24C82.983 19.808 83.715 19.592 84.627 19.592C84.771 19.592 84.879 19.596 84.951 19.604L84.651 21.344ZM87.5952 29.096C87.0192 29.096 86.5072 28.98 86.0592 28.748C85.6112 28.516 85.2632 28.188 85.0152 27.764C84.7752 27.34 84.6552 26.848 84.6552 26.288C84.6552 25.528 84.8352 24.836 85.1952 24.212C85.5552 23.588 86.0512 23.1 86.6832 22.748C87.3152 22.388 88.0192 22.208 88.7952 22.208C89.3712 22.208 89.8832 22.328 90.3312 22.568C90.7872 22.8 91.1392 23.128 91.3872 23.552C91.6352 23.976 91.7592 24.468 91.7592 25.028C91.7592 25.796 91.5752 26.492 91.2072 27.116C90.8472 27.732 90.3472 28.216 89.7072 28.568C89.0752 28.92 88.3712 29.096 87.5952 29.096ZM87.8832 27.332C88.2192 27.332 88.5192 27.232 88.7832 27.032C89.0552 26.824 89.2632 26.56 89.4072 26.24C89.5592 25.912 89.6352 25.572 89.6352 25.22C89.6352 24.82 89.5272 24.512 89.3112 24.296C89.0952 24.08 88.8232 23.972 88.4952 23.972C88.1512 23.972 87.8472 24.076 87.5832 24.284C87.3272 24.484 87.1272 24.748 86.9832 25.076C86.8392 25.404 86.7672 25.748 86.7672 26.108C86.7672 26.5 86.8712 26.804 87.0792 27.02C87.2872 27.228 87.5552 27.332 87.8832 27.332ZM96.0398 20.12L94.4678 29H92.4158L93.9878 20.12H96.0398ZM98.5349 21.608C98.2149 21.608 97.9589 21.524 97.7669 21.356C97.5829 21.18 97.4909 20.96 97.4909 20.696C97.4909 20.336 97.6309 20.028 97.9109 19.772C98.1909 19.516 98.5309 19.388 98.9309 19.388C99.2509 19.388 99.5029 19.476 99.6869 19.652C99.8709 19.82 99.9629 20.04 99.9629 20.312C99.9629 20.664 99.8229 20.968 99.5429 21.224C99.2629 21.48 98.9269 21.608 98.5349 21.608ZM99.4229 22.304L98.2469 29H96.1949L97.3709 22.304H99.4229Z" fill="#3CAA90"/>
<path d="M67.1591 44.792H65.0591L66.4031 41.576H67.7831L67.1591 44.792ZM69.8831 44.792H67.7951L69.1391 41.576H70.5071L69.8831 44.792ZM75.8113 48.26V50H74.7673C74.0233 50 73.4433 49.82 73.0273 49.46C72.6113 49.092 72.4033 48.496 72.4033 47.672V45.008H71.5873V43.304H72.4033V41.672H74.4553V43.304H75.7993V45.008H74.4553V47.696C74.4553 47.896 74.5033 48.04 74.5993 48.128C74.6953 48.216 74.8553 48.26 75.0793 48.26H75.8113ZM83.8063 43.304V50H81.7543V49.088C81.5463 49.384 81.2623 49.624 80.9023 49.808C80.5503 49.984 80.1583 50.072 79.7263 50.072C79.2143 50.072 78.7623 49.96 78.3703 49.736C77.9783 49.504 77.6743 49.172 77.4583 48.74C77.2423 48.308 77.1343 47.8 77.1343 47.216V43.304H79.1743V46.94C79.1743 47.388 79.2903 47.736 79.5223 47.984C79.7543 48.232 80.0663 48.356 80.4583 48.356C80.8583 48.356 81.1743 48.232 81.4063 47.984C81.6383 47.736 81.7543 47.388 81.7543 46.94V43.304H83.8063ZM88.8803 45.008H87.7763V50H85.7243V45.008H84.9803V43.304H85.7243V43.112C85.7243 42.288 85.9603 41.664 86.4323 41.24C86.9043 40.808 87.5963 40.592 88.5083 40.592C88.6603 40.592 88.7723 40.596 88.8443 40.604V42.344C88.4523 42.32 88.1763 42.376 88.0163 42.512C87.8563 42.648 87.7763 42.892 87.7763 43.244V43.304H88.8803V45.008ZM93.4445 45.008H92.3405V50H90.2885V45.008H89.5445V43.304H90.2885V43.112C90.2885 42.288 90.5245 41.664 90.9965 41.24C91.4685 40.808 92.1605 40.592 93.0725 40.592C93.2245 40.592 93.3365 40.596 93.4085 40.604V42.344C93.0165 42.32 92.7405 42.376 92.5805 42.512C92.4205 42.648 92.3405 42.892 92.3405 43.244V43.304H93.4445V45.008ZM95.1167 41.576H97.2167L95.8727 44.792H94.4927L95.1167 41.576ZM97.8407 41.576H99.9407L98.5967 44.792H97.2167L97.8407 41.576Z" fill="#393A32"/>
<rect x="24" y="169" width="118" height="40" rx="2" fill="#3CAA90" fill-opacity="0.1"/>
<path d="M64.7785 191.68V194H63.3865C62.3945 194 61.6212 193.76 61.0665 193.28C60.5119 192.789 60.2345 191.995 60.2345 190.896V187.344H59.1465V185.072H60.2345V182.896H62.9705V185.072H64.7625V187.344H62.9705V190.928C62.9705 191.195 63.0345 191.387 63.1625 191.504C63.2905 191.621 63.5039 191.68 63.8025 191.68H64.7785ZM76.0785 185.072V194H73.3425V192.784C73.0652 193.179 72.6865 193.499 72.2065 193.744C71.7372 193.979 71.2145 194.096 70.6385 194.096C69.9559 194.096 69.3532 193.947 68.8305 193.648C68.3079 193.339 67.9025 192.896 67.6145 192.32C67.3265 191.744 67.1825 191.067 67.1825 190.288V185.072H69.9025V189.92C69.9025 190.517 70.0572 190.981 70.3665 191.312C70.6759 191.643 71.0919 191.808 71.6145 191.808C72.1479 191.808 72.5692 191.643 72.8785 191.312C73.1879 190.981 73.3425 190.517 73.3425 189.92V185.072H76.0785ZM83.4838 187.344H82.0118V194H79.2758V187.344H78.2838V185.072H79.2758V184.816C79.2758 183.717 79.5904 182.885 80.2198 182.32C80.8491 181.744 81.7718 181.456 82.9878 181.456C83.1904 181.456 83.3398 181.461 83.4358 181.472V183.792C82.9131 183.76 82.5451 183.835 82.3318 184.016C82.1184 184.197 82.0118 184.523 82.0118 184.992V185.072H83.4838V187.344ZM89.7934 194.128C88.9187 194.128 88.1294 193.941 87.4254 193.568C86.7321 193.195 86.1827 192.661 85.7774 191.968C85.3827 191.275 85.1854 190.464 85.1854 189.536C85.1854 188.619 85.3881 187.813 85.7934 187.12C86.1987 186.416 86.7534 185.877 87.4574 185.504C88.1614 185.131 88.9507 184.944 89.8254 184.944C90.7001 184.944 91.4894 185.131 92.1934 185.504C92.8974 185.877 93.4521 186.416 93.8574 187.12C94.2627 187.813 94.4654 188.619 94.4654 189.536C94.4654 190.453 94.2574 191.264 93.8414 191.968C93.4361 192.661 92.8761 193.195 92.1614 193.568C91.4574 193.941 90.6681 194.128 89.7934 194.128ZM89.7934 191.76C90.3161 191.76 90.7587 191.568 91.1214 191.184C91.4947 190.8 91.6814 190.251 91.6814 189.536C91.6814 188.821 91.5001 188.272 91.1374 187.888C90.7854 187.504 90.3481 187.312 89.8254 187.312C89.2921 187.312 88.8494 187.504 88.4974 187.888C88.1454 188.261 87.9694 188.811 87.9694 189.536C87.9694 190.251 88.1401 190.8 88.4814 191.184C88.8334 191.568 89.2707 191.76 89.7934 191.76ZM99.6129 182.16V194H96.8769V182.16H99.6129ZM103.932 184.144C103.452 184.144 103.057 184.005 102.748 183.728C102.449 183.44 102.3 183.088 102.3 182.672C102.3 182.245 102.449 181.893 102.748 181.616C103.057 181.328 103.452 181.184 103.932 181.184C104.401 181.184 104.785 181.328 105.084 181.616C105.393 181.893 105.548 182.245 105.548 182.672C105.548 183.088 105.393 183.44 105.084 183.728C104.785 184.005 104.401 184.144 103.932 184.144ZM105.292 185.072V194H102.556V185.072H105.292Z" fill="#393A32"/>
<path d="M77.7908 80.7646L40.7521 63.5951C37.8598 62.2544 34.663 63.6015 31.7312 66.3001C28.7878 69.0094 26.0333 73.1445 23.9742 77.5864C21.9151 82.0284 20.5396 86.8027 20.3743 90.7997C20.2096 94.7811 21.2474 98.0912 24.1398 99.432L61.1784 116.601C64.0707 117.942 67.2675 116.595 70.1994 113.896C73.1428 111.187 75.8972 107.052 77.9563 102.61C80.0154 98.1681 81.391 93.3938 81.5563 89.3968C81.7209 85.4154 80.6831 82.1053 77.7908 80.7646ZM44.1013 68.0223L76.6939 83.1308C77.6715 83.584 78.3282 84.4422 78.7036 85.6285C79.0806 86.8196 79.1685 88.3281 79.0095 90.0417C78.6916 93.4677 77.3935 97.6489 75.5631 101.598C73.7327 105.546 71.3808 109.239 68.9718 111.695C67.7668 112.924 66.5589 113.832 65.4063 114.314C64.2583 114.794 63.1791 114.848 62.2014 114.395L29.6206 99.2916C31.5731 98.5315 33.5532 96.7944 35.3965 94.5213C37.4364 92.0055 39.3343 88.8011 40.8668 85.4395C42.3993 82.0779 43.5707 78.5496 44.1521 75.3833C44.676 72.5296 44.7272 69.9362 44.1013 68.0223ZM28.3676 97.1447C27.2261 97.6222 26.1524 97.6777 25.1791 97.2326C23.2624 95.9704 22.5742 93.2598 22.8442 89.819C23.1134 86.3889 24.3305 82.3284 26.0953 78.5213C27.8602 74.714 30.1629 71.1815 32.5874 68.7997C35.0214 66.4086 37.5043 65.2443 39.6675 65.9671C40.6384 66.4217 41.2911 67.2777 41.665 68.4591C42.0419 69.6502 42.1298 71.1586 41.9708 72.8723C41.653 76.2983 40.3548 80.4794 38.5244 84.4281C36.694 88.3767 34.3422 92.0694 31.9331 94.526C30.7281 95.7548 29.5202 96.6626 28.3676 97.1447Z" fill="#393A32" stroke="#393A32" stroke-width="0.5"/>
<path d="M147.749 131.65L122.936 103.175C120.991 100.942 117.77 100.878 114.272 102.054C110.758 103.236 106.867 105.694 103.448 108.673C100.029 111.652 97.0617 115.17 95.4108 118.489C93.767 121.794 93.3894 124.993 95.3349 127.225L120.147 155.701C122.093 157.934 125.313 157.998 128.812 156.821C132.325 155.64 136.217 153.182 139.636 150.203C143.055 147.224 146.022 143.706 147.673 140.387C149.317 137.082 149.694 133.883 147.749 131.65ZM124.094 108.236L145.9 133.261C146.551 134.008 146.781 134.975 146.651 136.116C146.52 137.261 146.025 138.567 145.244 139.954C143.683 142.727 141.009 145.77 137.971 148.417C134.934 151.063 131.554 153.296 128.593 154.463C127.112 155.047 125.751 155.358 124.598 155.331C123.451 155.304 122.524 154.944 121.873 154.197L100.076 129.181C102.009 129.263 104.325 128.541 106.724 127.323C109.4 125.965 112.215 123.971 114.781 121.707C117.346 119.443 119.67 116.901 121.358 114.443C122.868 112.244 123.889 110.085 124.094 108.236ZM99.7856 126.855C98.6449 126.829 97.7226 126.472 97.0726 125.735C95.9367 123.955 96.3746 121.413 97.9014 118.609C99.4231 115.814 101.984 112.842 104.912 110.291C107.84 107.739 111.118 105.623 114.064 104.525C117.022 103.422 119.55 103.378 121.097 104.796C121.741 105.541 121.968 106.504 121.838 107.64C121.707 108.785 121.213 110.091 120.432 111.478C118.871 114.251 116.196 117.294 113.159 119.941C110.122 122.587 106.741 124.82 103.78 125.987C102.299 126.571 100.938 126.882 99.7856 126.855Z" fill="#393A32" stroke="#393A32" stroke-width="0.5"/>
<path d="M107.586 58.1381L87.3349 77.5392C85.7176 79.0886 85.7948 81.5145 86.7923 84.0746C87.7954 86.6494 89.7607 89.4565 92.0938 91.8917C94.4269 94.327 97.1472 96.4107 99.6767 97.5232C102.192 98.6294 104.612 98.8104 106.229 97.261L126.48 77.8599C128.097 76.3105 128.02 73.8846 127.023 71.3245C126.019 68.7497 124.054 65.9426 121.721 63.5074C119.388 61.0721 116.668 58.9884 114.138 57.8759C111.623 56.7697 109.203 56.5887 107.586 58.1381ZM91.2409 76.4965L108.934 59.5457C109.449 59.0526 110.139 58.851 110.976 58.9069C111.818 58.9632 112.795 59.2802 113.847 59.8087C115.951 60.8652 118.295 62.7369 120.362 64.8935C122.428 67.0501 124.197 69.473 125.163 71.6194C125.646 72.6932 125.921 73.6829 125.941 74.5269C125.961 75.3659 125.73 76.0465 125.215 76.5396L107.531 93.4816C107.484 92.0611 106.87 90.413 105.914 88.732C104.81 86.7893 103.229 84.7667 101.457 82.9403C99.6845 81.1138 97.714 79.4759 95.826 78.3066C94.198 77.2982 92.6047 76.6216 91.2409 76.4965ZM105.69 93.9279C105.71 94.7599 105.483 95.436 104.977 95.9281C103.727 96.808 101.859 96.5859 99.7322 95.5549C97.6146 94.5286 95.327 92.739 93.3355 90.6603C91.3439 88.5815 89.6648 86.2306 88.7511 84.0935C87.8323 81.9444 87.7232 80.1046 88.6932 78.9374C89.2069 78.4511 89.8932 78.2524 90.7253 78.308C91.5678 78.3642 92.5448 78.6812 93.5969 79.2097C95.7 80.2662 98.0448 82.1379 100.111 84.2945C102.177 86.4511 103.947 88.874 104.912 91.0204C105.395 92.0942 105.67 93.0839 105.69 93.9279Z" fill="#393A32" stroke="#393A32" stroke-width="0.5"/>
<path d="M59.7253 163.342L88.3146 148.684C90.5792 147.523 91.2751 144.827 90.9999 141.657C90.7233 138.47 89.4619 134.698 87.6743 131.212C85.8867 127.725 83.5602 124.5 81.1338 122.415C78.7204 120.341 76.1255 119.333 73.861 120.494L45.2717 135.153C43.0071 136.314 42.3112 139.009 42.5864 142.179C42.863 145.366 44.1244 149.138 45.912 152.625C47.6996 156.111 50.0261 159.337 52.4525 161.422C54.8659 163.495 57.4608 164.503 59.7253 163.342ZM83.7836 148.551L58.7282 161.398C57.9915 161.775 57.1551 161.764 56.2417 161.416C55.3237 161.066 54.3433 160.38 53.3506 159.435C51.3661 157.548 49.3795 154.674 47.7935 151.581C46.2075 148.488 45.0336 145.197 44.6591 142.484C44.4718 141.127 44.4869 139.93 44.7385 138.981C44.9888 138.036 45.468 137.35 46.2047 136.972L71.2488 124.131C70.8165 125.726 70.9569 127.789 71.4788 130.015C72.0702 132.538 73.1613 135.313 74.5266 137.935C75.8919 140.557 77.5362 143.037 79.2395 144.97C80.7377 146.669 82.3032 147.97 83.7836 148.551ZM73.3278 124.322C73.5762 123.384 74.0502 122.702 74.7778 122.322C76.4593 121.762 78.4644 122.652 80.4833 124.519C82.4936 126.379 84.4436 129.142 85.9726 132.124C87.5016 135.106 88.5989 138.286 88.9192 140.972C89.2413 143.671 88.7697 145.769 87.3053 146.745C86.5716 147.117 85.7394 147.104 84.831 146.757C83.913 146.407 82.9326 145.721 81.9399 144.777C79.9554 142.889 77.9688 140.016 76.3828 136.922C74.7968 133.829 73.6229 130.539 73.2485 127.826C73.0611 126.468 73.0762 125.272 73.3278 124.322Z" fill="#393A32" stroke="#393A32" stroke-width="0.5"/>
</svg>
