<svg width="240" height="195" viewBox="0 0 240 195" fill="none" xmlns="http://www.w3.org/2000/svg">
<path d="M215.354 75.8788C216.782 72.6419 217.78 68.1911 215.886 63.5285C213.951 58.7681 209.496 56.449 205.239 55.4747C206.508 51.1643 206.547 46.0455 202.765 42.1993C199.471 38.8493 194.789 37.8731 190.802 37.7658C191.304 35.7926 191.32 33.7273 190.849 31.7465C190.305 29.6585 188.842 26.7819 184.957 24.9344C179.039 22.12 173.438 22.9583 169.748 24.1772L165.683 15.3259C165.249 14.3808 164.482 13.6291 163.528 13.2149C162.574 12.8006 161.501 12.753 160.514 13.081C151.483 16.0816 143.448 22.7144 137.286 32.2568C131.696 40.9135 128.3 51.0128 127.722 60.6942C126.743 77.0923 122.708 87.705 116.656 89.8448C114.217 90.7021 109.963 87.9813 104.578 84.5362C100 81.6077 94.3024 77.9627 87.0662 74.7362C58.6778 62.0791 33.848 70.0768 32.8051 70.4235C32.6237 70.4836 32.4467 70.5561 32.2753 70.6406C31.229 71.1544 22.0016 75.8786 20.1942 83.4258C18.8237 89.1476 23.456 92.6104 26.5213 94.9019C27.322 95.4752 28.0898 96.0931 28.8212 96.7525C28.3283 97.6067 27.445 98.4384 26.4529 99.3725C24.2772 101.421 21.2975 104.227 21.0522 109.106C20.7971 114.174 24.4046 118.453 27.2892 121.039C25.4752 124.252 23.3273 129.179 23.771 133.926C24.2933 139.514 28.9496 143.236 32.4068 145.255C31.5414 148.519 30.8344 153.33 32.3507 157.793C34.1925 163.214 40.5172 165.585 45.337 166.615C44.4656 170.134 44.052 174.784 46.1966 178.715C49.8734 185.456 57.9085 187.68 58.8127 187.911C59.3946 188.06 60.0017 188.083 60.5933 187.979C68.1304 186.433 75.4349 183.915 82.3234 180.488C97.6477 172.902 108.158 161.911 112.719 148.704C122.147 121.403 125.078 119.896 129.136 117.809L129.562 117.589C132.388 116.134 146.774 117.709 167.221 127.992C181.956 135.403 204.138 131.276 218.312 125.517C222.349 123.876 225.738 122.103 228.118 120.426C229.501 119.453 233.707 116.49 233.189 112.28C232.552 107.097 227.9 102.997 224.051 100.444C226.513 97.1784 228.989 92.4042 227.835 87.3053C226.532 81.5456 220.176 77.8783 215.354 75.8788ZM219.597 89.1693C220.28 92.1871 216.524 96.6299 214.608 98.3007C214.074 98.761 213.665 99.3473 213.416 100.006C213.167 100.665 213.087 101.376 213.182 102.074C213.278 102.772 213.546 103.435 213.964 104.002C214.381 104.57 214.933 105.024 215.57 105.324C218.871 106.878 223.447 110.053 224.567 112.51C222.475 114.56 214.733 118.694 203.576 121.384C190.39 124.564 178.523 124.223 171.016 120.447C161.593 115.708 152.286 112.179 144.1 110.242C136.167 108.364 130.248 108.19 126.483 109.72C126.203 109.833 125.936 109.956 125.68 110.089L125.274 110.298C118.7 113.678 114.801 116.799 104.736 145.947C96.2988 170.381 65.9252 178.177 60.0952 179.461C58.5228 178.889 55.0871 177.377 53.611 174.67C52.2259 172.132 53.8241 167.061 54.8097 165.015C55.1147 164.391 55.2613 163.702 55.2364 163.008C55.2115 162.314 55.0159 161.637 54.6669 161.037C54.3179 160.437 53.8263 159.932 53.2356 159.567C52.6449 159.202 51.9734 158.988 51.2805 158.945C46.8291 158.666 40.9597 156.878 40.3474 155.076C39.1433 151.532 40.738 146.447 41.4488 144.799C41.6786 144.275 41.7997 143.71 41.8046 143.138C41.8096 142.566 41.6983 142 41.4776 141.472C41.2569 140.944 40.9313 140.467 40.5206 140.069C40.1099 139.671 39.6227 139.361 39.0884 139.157C36.7937 138.28 32.4115 135.616 32.1801 133.14C31.8408 129.509 35.1246 124.182 36.2966 122.609C36.6458 122.144 36.8952 121.613 37.0294 121.047C37.1636 120.482 37.1797 119.895 37.0766 119.323C36.9735 118.751 36.7534 118.206 36.4302 117.723C36.107 117.24 35.6876 116.829 35.1982 116.516C32.7977 114.979 29.3827 111.606 29.487 109.53C29.5552 108.174 30.2972 107.354 32.2431 105.521C33.9635 103.901 36.1046 101.885 37.1311 98.7597C38.8379 93.5642 34.2933 90.1672 31.578 88.1372C30.5794 87.391 28.7499 86.0231 28.4237 85.3282C29.1457 82.5447 33.4863 79.5364 35.7351 78.356C38.3486 77.5753 59.6938 71.7792 83.6271 82.4501C90.2848 85.4185 95.4607 88.7294 100.027 91.651C107.35 96.335 113.133 100.035 119.456 97.8127C119.708 97.7242 119.955 97.6307 120.201 97.5308C129.574 93.7212 134.94 81.5045 136.152 61.1973C137.013 46.7732 145.929 29.2241 159.693 22.5194L163.81 31.4846C164.063 32.0347 164.431 32.524 164.889 32.9195C165.347 33.3149 165.885 33.6072 166.466 33.7766C167.047 33.9459 167.658 33.9883 168.257 33.9009C168.856 33.8135 169.429 33.5983 169.938 33.27C169.992 33.2351 175.562 29.8187 181.33 32.5617C182.472 33.1045 182.613 33.6387 182.674 33.867C183.115 35.5346 181.697 38.6361 180.609 40.1941C180.111 40.8948 179.839 41.7308 179.829 42.5903C179.819 43.4498 180.071 44.2919 180.553 45.004C181.034 45.7162 181.721 46.2645 182.523 46.5756C183.324 46.8868 184.201 46.9461 185.037 46.7455C187.77 46.0898 194.228 45.5628 196.743 48.1209C198.886 50.3005 196.248 55.5487 195.433 56.8214C195.009 57.4762 194.774 58.2356 194.755 59.0154C194.736 59.7953 194.933 60.5653 195.324 61.2402C195.715 61.9152 196.285 62.4688 196.971 62.8399C197.658 63.2109 198.433 63.385 199.212 63.3427C201.112 63.2419 206.816 63.6438 208.061 66.7078C209.722 70.7954 205.896 75.3708 205.875 75.3969C205.404 75.937 205.078 76.5879 204.928 77.2885C204.778 77.9891 204.809 78.7163 205.018 79.4017C205.227 80.087 205.606 80.708 206.121 81.2062C206.636 81.7044 207.269 82.0634 207.961 82.2493C213.023 83.6103 219.075 86.8591 219.597 89.1693Z" fill="#E0D6D6"/>
<path d="M168.952 101.228C159.072 97.9348 149.51 96.6213 140.396 97.2739C146.697 91.9081 150.137 86.0933 153.69 80.0778C154.288 79.0656 154.894 78.0406 155.523 77.003C156.101 76.0451 156.276 74.8966 156.009 73.8098C155.742 72.723 155.054 71.7868 154.097 71.2069C153.139 70.6269 151.991 70.4507 150.904 70.7169C149.817 70.9831 148.88 71.6699 148.299 72.6265C147.654 73.6917 147.032 74.7433 146.419 75.7822C140.792 85.3074 136.347 92.8308 119.89 99.518C102.096 106.748 82.8565 100.197 82.5202 100.081C81.4655 99.7099 80.3067 99.7725 79.2981 100.255C78.2895 100.737 77.5133 101.6 77.1397 102.654C76.7662 103.707 76.8257 104.866 77.3054 105.876C77.785 106.886 78.6456 107.665 79.6983 108.041C88.1375 110.734 97.0082 111.815 105.847 111.227C105.32 111.662 104.796 112.105 104.279 112.559C100.391 115.954 96.9278 119.808 93.966 124.035C89.7363 130.146 90.0864 131.947 90.2745 132.915C90.4646 133.893 90.994 134.771 91.7691 135.396C92.5442 136.021 93.5152 136.353 94.5107 136.331C95.5062 136.31 96.4622 135.938 97.2098 135.28C97.9575 134.622 98.4487 133.722 98.5969 132.737C99.3835 130.906 104.867 121.468 116.244 114.047C130.708 104.612 147.543 102.994 166.282 109.241C166.808 109.416 167.363 109.486 167.916 109.447C168.47 109.407 169.01 109.259 169.506 109.011C170.002 108.763 170.444 108.42 170.807 108.001C171.171 107.582 171.448 107.096 171.623 106.57C171.799 106.044 171.869 105.488 171.829 104.935C171.79 104.382 171.642 103.842 171.394 103.346C171.146 102.85 170.803 102.407 170.384 102.044C169.965 101.681 169.479 101.404 168.952 101.228L168.952 101.228Z" fill="#E0D6D6"/>
</svg>
