<svg width="62" height="62" viewBox="0 0 62 62" fill="none" xmlns="http://www.w3.org/2000/svg">
<path d="M31 0C13.9065 0 0 13.9065 0 31C0 48.0935 13.9065 62 31 62C48.0935 62 62 48.0935 62 31C62 13.9065 48.0935 0 31 0ZM31 60.1212C14.9422 60.1212 1.87879 47.0573 1.87879 31C1.87879 14.9427 14.9422 1.87879 31 1.87879C47.0578 1.87879 60.1212 14.9427 60.1212 31C60.1212 47.0573 47.0578 60.1212 31 60.1212Z" fill="white"/>
<path d="M31 6.35107C17.4081 6.35107 6.35095 17.4087 6.35095 31.0001C6.35095 44.5915 17.4081 55.6491 31 55.6491C44.5918 55.6491 55.649 44.5915 55.649 31.0001C55.649 17.4087 44.5918 6.35107 31 6.35107ZM31 53.7703C18.4447 53.7703 8.22974 43.5558 8.22974 31.0001C8.22974 18.4444 18.4447 8.22986 31 8.22986C43.5552 8.22986 53.7702 18.4444 53.7702 31.0001C53.7702 43.5558 43.5552 53.7703 31 53.7703Z" fill="white"/>
<path d="M41.4747 30.2075L25.2903 19.9347C25.0004 19.7508 24.6344 19.7402 24.3344 19.9044C24.0335 20.0696 23.8473 20.3851 23.8473 20.7278V41.2734C23.8473 41.616 24.0335 41.9316 24.3344 42.0967C24.4757 42.1742 24.6307 42.2128 24.7867 42.2128C24.9619 42.2128 25.1371 42.1637 25.2903 42.0664L41.4747 31.7936C41.7462 31.6212 41.9104 31.3221 41.9104 31.0006C41.9104 30.679 41.7462 30.38 41.4747 30.2075ZM25.7261 39.5643V22.4369L39.2179 31.0006L25.7261 39.5643Z" fill="white"/>
</svg>
