<svg width="158" height="224" viewBox="0 0 158 224" fill="none" xmlns="http://www.w3.org/2000/svg">
<rect width="158" height="224" rx="5" fill="#FF4242"/>
<circle cx="79" cy="87" r="52" fill="#E0D6D6"/>
<circle cx="79" cy="87" r="44" fill="#4B8174"/>
<circle cx="78.5" cy="86.5" r="33.5" fill="#E0D6D6"/>
<rect x="9" y="176" width="139" height="38" rx="5" fill="#E0D6D6"/>
<path d="M91.8806 62.4822C89.9294 62.4822 89.8589 64.4589 89.8573 64.6827C89.8573 64.9481 89.645 65.1639 89.3796 65.1683C89.3764 65.1687 89.3732 65.1687 89.3709 65.1687C89.1094 65.1687 88.8939 64.9603 88.8844 64.6981C88.8765 64.4711 88.7497 62.4822 86.785 62.4822C86.5164 62.4822 86.2986 62.2644 86.2986 61.9954C86.2986 61.7265 86.5164 61.5086 86.785 61.5086C88.7482 61.5086 88.8765 59.6778 88.8844 59.469C88.8931 59.2068 89.1086 59 89.3709 59C89.3724 59 89.374 59 89.3764 59C89.641 59.0028 89.8549 59.2187 89.8573 59.4837C89.8597 59.6908 89.9318 61.5086 91.8806 61.5086C92.1492 61.5086 92.3671 61.7265 92.3671 61.9954C92.3671 62.2644 92.1492 62.4822 91.8806 62.4822Z" fill="#1A1A1A"/>
<path d="M72.7459 62.4822C70.7946 62.4822 70.7241 64.4589 70.7225 64.6827C70.7225 64.9481 70.5102 65.1639 70.2448 65.1683C70.2416 65.1687 70.2385 65.1687 70.2361 65.1687C69.9746 65.1687 69.7592 64.9603 69.7497 64.6981C69.7417 64.4711 69.615 62.4822 67.6502 62.4822C67.3817 62.4822 67.1638 62.2644 67.1638 61.9954C67.1638 61.7265 67.3817 61.5086 67.6502 61.5086C69.6134 61.5086 69.7417 59.6778 69.7497 59.469C69.7584 59.2068 69.9739 59 70.2361 59C70.2377 59 70.2393 59 70.2416 59C70.5062 59.0028 70.7201 59.2187 70.7225 59.4837C70.7249 59.6908 70.797 61.5086 72.7459 61.5086C73.0144 61.5086 73.2323 61.7265 73.2323 61.9954C73.2323 62.2644 73.0144 62.4822 72.7459 62.4822Z" fill="#1A1A1A"/>
<path d="M104.513 77.8245C102.562 77.8245 102.492 79.8011 102.49 80.0249C102.49 80.2903 102.278 80.5062 102.012 80.5106C102.009 80.511 102.006 80.511 102.004 80.511C101.742 80.511 101.527 80.3026 101.517 80.0404C101.509 79.8134 101.383 77.8245 99.4178 77.8245C99.1493 77.8245 98.9314 77.6067 98.9314 77.3377C98.9314 77.0687 99.1493 76.8509 99.4178 76.8509C101.381 76.8509 101.509 75.02 101.517 74.8113C101.526 74.5491 101.741 74.3423 102.004 74.3423C102.005 74.3423 102.007 74.3423 102.009 74.3423C102.274 74.3451 102.488 74.5609 102.49 74.8259C102.492 75.0331 102.565 76.8509 104.513 76.8509C104.782 76.8509 105 77.0687 105 77.3377C105 77.6067 104.782 77.8245 104.513 77.8245Z" fill="#1A1A1A"/>
<path d="M57.582 77.8245C55.6308 77.8245 55.5603 79.8011 55.5587 80.0249C55.5587 80.2903 55.3464 80.5062 55.081 80.5106C55.0778 80.511 55.0746 80.511 55.0723 80.511C54.8108 80.511 54.5953 80.3026 54.5858 80.0404C54.5779 79.8134 54.4512 77.8245 52.4864 77.8245C52.2179 77.8245 52 77.6067 52 77.3377C52 77.0687 52.2179 76.8509 52.4864 76.8509C54.4496 76.8509 54.5779 75.02 54.5858 74.8113C54.5946 74.5491 54.81 74.3423 55.0723 74.3423C55.0739 74.3423 55.0754 74.3423 55.0778 74.3423C55.3424 74.3451 55.5563 74.5609 55.5587 74.8259C55.5611 75.0331 55.6332 76.8509 57.582 76.8509C57.8506 76.8509 58.0685 77.0687 58.0685 77.3377C58.0685 77.6067 57.8506 77.8245 57.582 77.8245Z" fill="#1A1A1A"/>
<path d="M104.513 94.7532C102.562 94.7532 102.492 96.7298 102.49 96.9536C102.49 97.219 102.278 97.4349 102.012 97.4392C102.009 97.4396 102.006 97.4396 102.004 97.4396C101.742 97.4396 101.527 97.2313 101.517 96.969C101.509 96.7421 101.383 94.7532 99.4178 94.7532C99.1493 94.7532 98.9314 94.5353 98.9314 94.2664C98.9314 93.9974 99.1493 93.7795 99.4178 93.7795C101.381 93.7795 101.509 91.9487 101.517 91.7399C101.526 91.4777 101.741 91.2709 102.004 91.2709C102.005 91.2709 102.007 91.2709 102.009 91.2709C102.274 91.2737 102.488 91.4896 102.49 91.7546C102.492 91.9618 102.565 93.7795 104.513 93.7795C104.782 93.7795 105 93.9974 105 94.2664C105 94.5353 104.782 94.7532 104.513 94.7532Z" fill="#1A1A1A"/>
<path d="M57.582 95.1538C55.6308 95.1538 55.5603 97.1304 55.5587 97.3542C55.5587 97.6196 55.3464 97.8355 55.081 97.8399C55.0778 97.8403 55.0746 97.8403 55.0723 97.8403C54.8108 97.8403 54.5953 97.6319 54.5858 97.3697C54.5779 97.1427 54.4512 95.1538 52.4864 95.1538C52.2179 95.1538 52 94.936 52 94.667C52 94.398 52.2179 94.1802 52.4864 94.1802C54.4496 94.1802 54.5779 92.3493 54.5858 92.1406C54.5946 91.8783 54.81 91.6716 55.0723 91.6716C55.0739 91.6716 55.0754 91.6716 55.0778 91.6716C55.3424 91.6743 55.5563 91.8902 55.5587 92.1552C55.5611 92.3624 55.6332 94.1802 57.582 94.1802C57.8506 94.1802 58.0685 94.398 58.0685 94.667C58.0685 94.936 57.8506 95.1538 57.582 95.1538Z" fill="#1A1A1A"/>
<path d="M90.345 110.316C88.3937 110.316 88.3232 112.292 88.3216 112.516C88.3216 112.781 88.1093 112.997 87.8439 113.002C87.8408 113.002 87.8376 113.002 87.8352 113.002C87.5738 113.002 87.3583 112.794 87.3488 112.531C87.3409 112.304 87.2141 110.316 85.2494 110.316C84.9808 110.316 84.7629 110.098 84.7629 109.829C84.7629 109.56 84.9808 109.342 85.2494 109.342C87.2125 109.342 87.3409 107.511 87.3488 107.302C87.3575 107.04 87.573 106.833 87.8352 106.833C87.8368 106.833 87.8384 106.833 87.8408 106.833C88.1054 106.836 88.3193 107.052 88.3216 107.317C88.324 107.524 88.3961 109.342 90.345 109.342C90.6136 109.342 90.8314 109.56 90.8314 109.829C90.8314 110.098 90.6136 110.316 90.345 110.316Z" fill="#1A1A1A"/>
<path d="M73.354 110.316C71.4028 110.316 71.3323 112.292 71.3307 112.516C71.3307 112.781 71.1184 112.997 70.853 113.002C70.8498 113.002 70.8466 113.002 70.8442 113.002C70.5828 113.002 70.3673 112.794 70.3578 112.531C70.3499 112.304 70.2231 110.316 68.2584 110.316C67.9898 110.316 67.772 110.098 67.772 109.829C67.772 109.56 67.9898 109.342 68.2584 109.342C70.2215 109.342 70.3499 107.511 70.3578 107.302C70.3665 107.04 70.582 106.833 70.8442 106.833C70.8458 106.833 70.8474 106.833 70.8498 106.833C71.1144 106.836 71.3283 107.052 71.3307 107.317C71.333 107.524 71.4051 109.342 73.354 109.342C73.6226 109.342 73.8405 109.56 73.8405 109.829C73.8405 110.098 73.6226 110.316 73.354 110.316Z" fill="#1A1A1A"/>
<path d="M79.3418 92.1016C75.7896 92.1016 72.9016 89.2115 72.9016 85.6603C72.9016 82.1091 75.7896 79.219 79.3418 79.219C82.8941 79.219 85.7821 82.1091 85.7821 85.6603C85.7821 89.2115 82.8941 92.1016 79.3418 92.1016ZM79.3418 81.8442C77.2378 81.8442 75.5247 83.5563 75.5247 85.6603C75.5247 87.7643 77.2378 89.4764 79.3418 89.4764C81.4459 89.4764 83.159 87.7643 83.159 85.6603C83.159 83.5563 81.4459 81.8442 79.3418 81.8442Z" fill="#1A1A1A"/>
<path d="M93.7023 74.8123C91.7201 74.8123 90.1202 73.2604 90.0604 71.2792C90.0304 70.3063 90.3829 69.3803 91.0493 68.6711C91.7158 67.963 92.6194 67.5561 93.5913 67.5262C93.5934 67.5262 93.5955 67.5262 93.5955 67.5262C95.6889 67.5262 97.2867 69.078 97.3465 71.0582C97.4063 73.0661 95.8234 74.7493 93.8156 74.8112L93.7023 74.8123ZM93.7066 69.7124C93.2709 69.7253 92.9099 69.8876 92.6429 70.1706C92.3758 70.4537 92.2349 70.8243 92.2477 71.213C92.2712 72.0044 92.9099 72.625 93.7023 72.625V73.7186L93.7472 72.6239C94.5504 72.6004 95.1848 71.9275 95.1591 71.1244C95.1356 70.333 94.497 69.7124 93.7066 69.7124Z" fill="#1A1A1A"/>
<path d="M93.7025 104.569C91.7202 104.569 90.1203 103.017 90.0605 101.036C90.0007 99.0289 91.5835 97.3446 93.5914 97.2816C93.5935 97.2816 93.5935 97.2816 93.5957 97.2816C95.689 97.2816 97.2868 98.8334 97.3466 100.814C97.4064 102.82 95.8236 104.505 93.8157 104.568L93.7025 104.569ZM93.7046 99.4678C92.8566 99.4934 92.2222 100.166 92.2478 100.969C92.2713 101.761 92.91 102.381 93.7025 102.381V103.475L93.7473 102.38C94.5505 102.356 95.1849 101.683 95.1593 100.88C95.1358 100.088 94.4971 99.4678 93.7046 99.4678Z" fill="#1A1A1A"/>
<path d="M64.024 104.569C62.0417 104.569 60.4418 103.017 60.382 101.036C60.3222 99.0289 61.905 97.3446 63.9129 97.2816C63.9151 97.2816 63.9151 97.2816 63.9172 97.2816C66.0105 97.2816 67.6083 98.8334 67.6681 100.814C67.7279 102.82 66.1451 104.505 64.1372 104.568L64.024 104.569ZM64.0261 99.4678C63.1781 99.4934 62.5437 100.166 62.5693 100.969C62.5928 101.761 63.2315 102.381 64.024 102.381V103.475L64.0689 102.38C64.872 102.356 65.5064 101.683 65.4808 100.88C65.4573 100.088 64.8186 99.4678 64.0261 99.4678Z" fill="#1A1A1A"/>
<path d="M64.0239 74.8123C62.0416 74.8123 60.4417 73.2604 60.3819 71.2792C60.352 70.3063 60.7044 69.3803 61.3709 68.6711C62.0373 67.963 62.9409 67.5561 63.9128 67.5262C63.9149 67.5262 63.9171 67.5262 63.9171 67.5262C66.0104 67.5262 67.6082 69.078 67.668 71.0582C67.7278 73.0661 66.145 74.7493 64.1371 74.8112L64.0239 74.8123ZM64.0281 69.7124C63.5924 69.7253 63.2314 69.8876 62.9644 70.1706C62.6974 70.4537 62.5564 70.8243 62.5692 71.213C62.5927 72.0044 63.2314 72.625 64.0239 72.625V73.7186L64.0687 72.6239C64.8719 72.6004 65.5063 71.9275 65.4807 71.1244C65.4572 70.333 64.8185 69.7124 64.0281 69.7124Z" fill="#1A1A1A"/>
<path d="M86.0404 80.0553C85.7606 80.0553 85.4808 79.9484 85.2672 79.7348C84.84 79.3076 84.84 78.6155 85.2672 78.1883L88.3367 75.1188C88.7639 74.6916 89.456 74.6916 89.8832 75.1188C90.3104 75.546 90.3104 76.2381 89.8832 76.6653L86.8137 79.7348C86.6001 79.9484 86.3203 80.0553 86.0404 80.0553Z" fill="#1A1A1A"/>
<path d="M89.3319 96.9835C89.0521 96.9835 88.7722 96.8767 88.5586 96.6631L85.4891 93.5936C85.0619 93.1664 85.0619 92.4743 85.4891 92.0471C85.9163 91.6199 86.6084 91.6199 87.0356 92.0471L90.1051 95.1166C90.5324 95.5438 90.5324 96.2359 90.1051 96.6631C89.8915 96.8767 89.6117 96.9835 89.3319 96.9835Z" fill="#1A1A1A"/>
<path d="M72.564 80.0553C72.2842 80.0553 72.0044 79.9484 71.7907 79.7348L68.7191 76.6653C68.2919 76.2392 68.2919 75.546 68.7191 75.1188C69.1463 74.6916 69.8384 74.6916 70.2656 75.1188L73.3373 78.1883C73.7645 78.6145 73.7645 79.3076 73.3373 79.7348C73.1237 79.9484 72.8438 80.0553 72.564 80.0553Z" fill="#1A1A1A"/>
<path d="M69.2702 96.9835C68.9904 96.9835 68.7105 96.8767 68.4969 96.6631C68.0697 96.2359 68.0697 95.5428 68.4969 95.1166L71.5686 92.0471C71.9958 91.6199 72.6879 91.6199 73.1151 92.0471C73.5423 92.4743 73.5423 93.1675 73.1151 93.5936L70.0434 96.6631C69.8298 96.8767 69.55 96.9835 69.2702 96.9835Z" fill="#1A1A1A"/>
<path d="M81.7934 66.8245C81.8018 66.6081 81.8025 66.4845 81.8025 66.4845C81.8025 63.9149 80.7007 61.8319 79.3417 61.8319C77.9826 61.8319 76.8809 63.9149 76.8809 66.4845C76.8809 66.4845 76.881 66.6591 76.8935 66.9597L76.8936 66.9603C76.953 68.3879 77.2966 72.7179 79.2862 75.4047C81.3167 72.7601 81.7088 68.5205 81.7844 67.0268C81.7885 66.9599 81.7908 66.8922 81.7934 66.8245Z" fill="#1A1A1A"/>
<path d="M81.7934 103.336C81.8018 103.553 81.8025 103.676 81.8025 103.676C81.8025 106.246 80.7007 108.329 79.3417 108.329C77.9826 108.329 76.8809 106.246 76.8809 103.676C76.8809 103.676 76.881 103.502 76.8935 103.201L76.8936 103.2C76.953 101.773 77.2966 97.4427 79.2862 94.7559C81.3167 97.4006 81.7088 101.64 81.7844 103.134C81.7885 103.201 81.7908 103.269 81.7934 103.336Z" fill="#1A1A1A"/>
<path d="M60.9126 83.2087C60.6962 83.2002 60.5726 83.1996 60.5726 83.1996C58.003 83.1996 55.92 84.3013 55.92 85.6604C55.92 87.0195 58.003 88.1212 60.5726 88.1212C60.5726 88.1212 60.7472 88.121 61.0478 88.1085L61.0485 88.1085C62.476 88.0491 66.806 87.7054 69.4929 85.7159C66.8482 83.6854 62.6086 83.2933 61.1149 83.2177C61.048 83.2136 60.9803 83.2113 60.9126 83.2087Z" fill="#1A1A1A"/>
<path d="M96.9734 83.2087C97.1897 83.2002 97.3133 83.1996 97.3133 83.1996C99.8829 83.1996 101.966 84.3013 101.966 85.6604C101.966 87.0195 99.8829 88.1212 97.3133 88.1212C97.3133 88.1212 97.1387 88.121 96.8381 88.1085C96.8381 88.1085 96.8377 88.1085 96.8375 88.1085C95.4099 88.0491 91.0799 87.7054 88.3931 85.7159C91.0377 83.6854 95.2773 83.2933 96.7711 83.2177C96.8379 83.2136 96.9057 83.2113 96.9734 83.2087Z" fill="#1A1A1A"/>
</svg>
