<svg width="59" height="59" viewBox="0 0 59 59" fill="none" xmlns="http://www.w3.org/2000/svg">
<path d="M29.5 0C13.2344 0 0 13.2337 0 29.5C0 45.7663 13.2344 59 29.5 59C45.7663 59 59 45.7656 59 29.5C59 13.2344 45.7663 0 29.5 0ZM29.5 54.183C15.8894 54.183 4.81637 43.1093 4.81637 29.5C4.81637 15.8907 15.8894 4.81702 29.5 4.81702C43.1106 4.81702 54.183 15.8894 54.183 29.5C54.183 43.1106 43.1106 54.183 29.5 54.183Z" fill="#025EA1"/>
<path d="M40.4214 27.0209L26.1041 18.4312C23.8333 17.0683 21.9741 18.1204 21.9741 20.7695V38.2283C21.9741 40.8774 23.8333 41.9289 26.1041 40.5653L40.4214 31.9756C42.6929 30.6133 42.6929 28.3845 40.4214 27.0209Z" fill="#FFD300" stroke="#025EA1" stroke-width="3.5"/>
</svg>
