<svg width="50" height="50" viewBox="0 0 50 50" fill="none" xmlns="http://www.w3.org/2000/svg">
<path d="M25 0C11.2149 0 0 11.2143 0 25C0 38.7857 11.2143 50 25 50C38.7857 50 50 38.7857 50 25C50 11.2143 38.7857 0 25 0ZM25 48.4834C12.0517 48.4834 1.5166 37.9484 1.5166 25C1.5166 12.0517 12.0517 1.5166 25 1.5166C37.9484 1.5166 48.4834 12.0517 48.4834 25C48.4834 37.9484 37.9484 48.4834 25 48.4834Z" fill="white"/>
<path d="M25.0001 5.12305C14.0403 5.12305 5.12317 14.0402 5.12317 25C5.12317 35.9598 14.0403 44.877 25.0001 44.877C35.96 44.877 44.8771 35.9598 44.8771 25C44.8771 14.0402 35.96 5.12305 25.0001 5.12305ZM25.0001 43.3631C14.875 43.3631 6.63712 35.1252 6.63712 25C6.63712 14.8749 14.875 6.63699 25.0001 6.63699C35.1253 6.63699 43.3632 14.8749 43.3632 25C43.3632 35.1252 35.1253 43.3631 25.0001 43.3631Z" fill="white"/>
<path d="M31.7674 16.0347C30.3485 16.0347 29.1926 17.1905 29.1926 18.6094V31.3902C29.1926 32.8091 30.3485 33.965 31.7674 33.965C33.1863 33.965 34.3422 32.8091 34.3422 31.3902V18.6094C34.3422 17.1905 33.1863 16.0347 31.7674 16.0347ZM32.8259 31.39C32.8259 31.9741 32.3515 32.4484 31.7674 32.4484C31.1832 32.4484 30.7089 31.9741 30.7089 31.39L30.7068 18.6092C30.7068 18.025 31.1812 17.5507 31.7653 17.5507C32.3495 17.5507 32.8238 18.025 32.8238 18.6092L32.8259 31.39Z" fill="white"/>
<path d="M27.409 24.3349L16.2731 16.8447C16.0391 16.6873 15.7408 16.6728 15.4943 16.8053C15.2478 16.9379 15.0924 17.1948 15.0924 17.4744V32.4548C15.0924 32.7344 15.2478 32.9913 15.4943 33.1238C15.6061 33.1839 15.7283 33.2129 15.8505 33.2129C15.9976 33.2129 16.1447 33.1694 16.2731 33.0845L27.409 25.5922C27.6182 25.4513 27.7425 25.2152 27.7425 24.9645C27.7425 24.7118 27.6182 24.4757 27.409 24.3348L27.409 24.3349ZM16.6067 31.0318V18.8953L25.6278 24.9622L16.6067 31.0318Z" fill="white"/>
</svg>
