<svg width="267" height="175" viewBox="0 0 267 175" fill="none" xmlns="http://www.w3.org/2000/svg">
<path d="M49.1591 24.4808C41.8311 29.6126 35.8912 35.9052 32.4341 42.1941C28.4955 49.3602 28.1275 55.8809 31.3984 60.5547C31.5099 60.714 31.6255 60.8694 31.7438 61.0222C31.7944 61.1073 31.8447 61.1926 31.9024 61.2751L96.8617 154.117C100.132 158.792 106.382 160.678 114.46 159.428C121.552 158.331 129.493 154.901 136.821 149.769C143.081 145.386 148.327 140.157 151.879 134.804C152.485 133.891 153.042 132.973 153.546 132.056C157.485 124.89 157.852 118.37 154.582 113.696L89.1184 20.1331C85.8483 15.4589 79.5983 13.5729 71.5199 14.822C64.4282 15.9189 56.4871 19.3489 49.1591 24.4808ZM39.4018 46.0224C39.808 45.2832 40.257 44.5431 40.7487 43.8022C43.7417 39.2919 48.263 34.8148 53.7169 30.9949C60.0665 26.5485 66.8189 23.5962 72.7305 22.6821C77.5128 21.9426 81.2035 22.6952 82.6032 24.6958C85.3346 28.5999 80.6438 39.9979 66.7996 49.6931C52.9553 59.3878 40.6449 59.8956 37.9136 55.992C36.5139 53.9915 37.0703 50.2646 39.4018 46.0224ZM142.123 134.496C140.224 136.661 138.148 138.663 135.916 140.483L75.021 53.45C77.2573 51.6522 79.3658 49.7008 81.3311 47.61L142.123 134.496ZM121.816 149.063L60.9986 62.1418C63.6043 60.9582 66.1265 59.5986 68.5478 58.0727L129.446 145.11C127.012 146.629 124.46 147.951 121.816 149.063ZM103.377 149.554L45.0766 66.2297C46.3896 66.1909 47.699 66.0693 48.9969 65.8657C50.4328 65.6397 51.8552 65.3349 53.2577 64.9528L113.794 151.473C113.613 151.505 113.43 151.54 113.25 151.568C108.468 152.308 104.777 151.555 103.377 149.554ZM148.067 118.258C149.388 120.147 148.964 123.575 146.951 127.522L86.4953 41.1163C87.0694 40.2443 87.6018 39.3692 88.0825 38.494C88.7172 37.342 89.2783 36.151 89.7626 34.9281L148.067 118.258Z" fill="#E0D6D6"/>
<path d="M245.126 106.169C249.846 99.163 252.956 91.6028 253.883 84.8863C254.94 77.2332 253.072 71.358 248.626 68.3435C248.474 68.2407 248.32 68.1428 248.165 68.0481C248.092 67.9902 248.019 67.9319 247.94 67.8788L159.621 7.99186C155.174 4.97664 149.044 5.42917 142.36 9.26558C136.491 12.6337 130.66 18.3468 125.94 25.3533C121.907 31.3385 119.05 37.7252 117.725 43.6483C117.499 44.659 117.317 45.6574 117.182 46.6364C116.126 54.2896 117.993 60.1644 122.439 63.1792L211.445 123.531C215.891 126.546 222.021 126.094 228.706 122.257C234.574 118.889 240.405 113.176 245.126 106.169ZM246.47 83.8688C246.361 84.6583 246.214 85.4629 246.031 86.2828C244.914 91.2737 242.442 96.7525 238.929 101.968C234.839 108.038 229.892 112.928 225 115.735C221.043 118.006 217.545 118.592 215.641 117.302C211.928 114.783 212.224 103.143 221.142 89.9065C230.06 76.6701 240.715 72.0549 244.429 74.5729C246.332 75.8633 247.095 79.3384 246.47 83.8688ZM126.408 40.6178C127.351 38.0659 128.504 35.5971 129.855 33.2368L212.649 89.3765C211.286 91.719 210.088 94.1537 209.062 96.6629L126.408 40.6178ZM139.373 20.8964L222.061 76.9642C220.167 78.8902 218.406 80.943 216.789 83.1084L133.991 26.9659C135.621 24.8019 137.421 22.7723 139.373 20.8964ZM155.424 14.2212L234.69 67.9691C233.548 68.4478 232.438 68.9983 231.365 69.6172C230.178 70.3026 229.029 71.053 227.924 71.8648L145.618 16.0557C145.767 15.9664 145.916 15.873 146.065 15.7875C150.022 13.5163 153.521 12.9308 155.424 14.2212ZM126.636 56.9499C124.84 55.7316 124.061 52.565 124.505 48.4028L206.702 104.138C206.49 105.101 206.316 106.053 206.187 106.988C206.016 108.219 205.922 109.459 205.907 110.701L126.636 56.9499Z" fill="#E0D6D6"/>
</svg>
