<svg width="114" height="114" viewBox="0 0 114 114" fill="none" xmlns="http://www.w3.org/2000/svg">
<path d="M56.5757 11.9282C31.8553 11.9282 11.7439 32.0397 11.7439 56.76C11.7439 81.4804 31.8553 101.592 56.5757 101.592C81.2962 101.592 101.408 81.4804 101.408 56.76C101.408 32.0397 81.2962 11.9282 56.5757 11.9282ZM72.6198 55.2652C72.2558 52.2035 71.0048 49.315 69.0208 46.955L86.6372 30.1384C92.8164 37.0876 96.3819 45.9722 96.7208 55.2652H72.6198ZM56.8505 68.3775C54.6297 68.3775 52.4588 67.719 50.6122 66.4852C48.7657 65.2514 47.3265 63.4977 46.4766 61.446C45.6268 59.3942 45.4044 57.1365 45.8376 54.9584C46.2709 52.7802 47.3403 50.7795 48.9106 49.2091C50.481 47.6388 52.4817 46.5694 54.6598 46.1361C56.838 45.7028 59.0957 45.9252 61.1474 46.775C63.1992 47.6249 64.9529 49.064 66.1867 50.9106C67.4205 52.7571 68.0791 54.928 68.0791 57.1488C68.0758 60.1258 66.8917 62.9799 64.7866 65.085C62.6816 67.1901 59.8275 68.3742 56.8505 68.3775ZM65.527 43.8531C63.6114 42.5962 61.4451 41.7715 59.1786 41.4362V16.6711C68.1498 17.248 76.6653 20.8289 83.3528 26.8365L65.527 43.8531ZM54.5224 41.4362C51.797 41.8402 49.2245 42.9494 47.0598 44.6539L29.6887 27.9143C29.5103 27.7428 29.3056 27.6009 29.0823 27.4939C36.0029 20.967 45.0217 17.1179 54.5224 16.6364L54.5224 41.4362ZM47.5724 70.0305C49.626 71.5174 52.0073 72.4882 54.5152 72.8607L54.4359 96.8785C45.3297 96.3982 36.6608 92.822 29.8647 86.742C29.9124 86.7036 29.9598 86.6646 30.0051 86.6218L47.5724 70.0305ZM59.1715 72.8626C61.8466 72.4677 64.3756 71.3931 66.5168 69.7417L82.7208 86.8628C82.7869 86.932 82.8573 86.997 82.9314 87.0575C76.2833 92.8635 67.9018 96.308 59.0922 96.8545L59.1715 72.8626ZM26.0258 30.6991C26.1397 30.9096 26.2854 31.1013 26.4577 31.2674L43.8545 48.0316C42.4232 50.0613 41.4908 52.3999 41.1331 54.8575L17.3656 55.2654C17.0393 55.2711 16.7179 55.3457 16.4224 55.4842C16.7044 46.3693 20.0927 37.6244 26.0258 30.6991ZM16.5109 59.7433C16.7942 59.8612 17.098 59.9218 17.4048 59.9214C17.4184 59.9214 17.432 59.9214 17.4456 59.9212L41.1425 59.5141C41.5407 62.1588 42.6034 64.6592 44.2311 66.7813L26.808 83.2365C26.7315 83.3099 26.66 83.3884 26.5941 83.4715C20.7074 76.891 17.1623 68.5485 16.5109 59.7433ZM86.2413 83.8245C86.1976 83.7689 86.152 83.7144 86.1025 83.6621L69.7572 66.3916C71.1414 64.4671 72.0748 62.2557 72.4881 59.9214H96.6274C95.9287 68.8246 92.2728 77.2384 86.2413 83.8245Z" fill="#E0D6D6"/>
<path d="M112.94 60.6005L110.379 55.0176L112.573 49.2804C112.718 48.9025 112.761 48.4935 112.699 48.0937C112.638 47.6938 112.473 47.317 112.221 47.0002L108.399 42.1919L109.156 36.0967C109.206 35.6952 109.15 35.2876 108.994 34.9142C108.839 34.5407 108.589 34.2143 108.268 33.967L103.407 30.2131L102.683 24.1138C102.635 23.7121 102.484 23.3297 102.243 23.0044C102.003 22.679 101.682 22.422 101.312 22.2586L95.6929 19.7772L93.5305 14.0285C93.388 13.6498 93.1494 13.3148 92.838 13.0565C92.5267 12.7981 92.1534 12.6253 91.755 12.5552L85.7058 11.4905L82.2302 6.42633C82.0008 6.09319 81.6889 5.82536 81.3248 5.64907C80.9608 5.47279 80.5573 5.3941 80.1537 5.42073L74.0255 5.83475L69.439 1.74937C69.137 1.48023 68.77 1.29446 68.3742 1.21038C67.9784 1.12629 67.5676 1.1468 67.1822 1.26988L61.3313 3.13853L55.9005 0.269497C55.5428 0.0806022 55.142 -0.0118591 54.7376 0.00121733C54.3333 0.0142937 53.9393 0.132457 53.5945 0.344072L48.3606 3.55867L42.4009 2.07244C42.0084 1.97477 41.5972 1.98098 41.2077 2.09044C40.8183 2.19991 40.4641 2.40887 40.1799 2.69676L35.8674 7.07043L29.7253 7.05384H29.719C29.3155 7.05386 28.9189 7.15873 28.5681 7.35818C28.2174 7.55762 27.9245 7.84479 27.7181 8.19153L24.5777 13.4703L18.6102 14.924C18.2171 15.0198 17.8558 15.2163 17.5618 15.4942C17.2678 15.7721 17.0513 16.1219 16.9336 16.5089L15.1475 22.3859L9.7013 25.2256C9.34257 25.4127 9.03878 25.69 8.81986 26.0302C8.60095 26.3704 8.47447 26.7619 8.45288 27.1659L8.12515 33.299L3.51673 37.3596C3.21316 37.6271 2.98454 37.969 2.85339 38.3518C2.72224 38.7345 2.6931 39.1448 2.76884 39.5423L3.91847 45.5759L0.41569 50.6212C0.184979 50.9535 0.0448463 51.3402 0.00910454 51.7432C-0.0266372 52.1462 0.0432451 52.5515 0.211864 52.9193L2.77202 58.5027L0.578595 64.2396C0.434086 64.6175 0.390554 65.0265 0.452291 65.4264C0.514027 65.8262 0.6789 66.2031 0.930656 66.5198L4.75253 71.3279L3.99567 77.4231C3.94582 77.8246 4.00145 78.2322 4.15708 78.6056C4.3127 78.9791 4.56295 79.3055 4.88315 79.5528L9.74473 83.3067L10.4686 89.4062C10.5163 89.808 10.6678 90.1904 10.9083 90.5157C11.1488 90.841 11.4699 91.0981 11.8401 91.2615L17.4586 93.7426L19.6211 99.4916C19.7636 99.8702 20.0022 100.205 20.3136 100.464C20.6249 100.722 20.9982 100.895 21.3967 100.965L27.4458 102.03L30.9213 107.094C31.1502 107.427 31.4621 107.696 31.8263 107.872C32.1904 108.048 32.5942 108.127 32.9979 108.099L39.1261 107.685L43.7125 111.77C44.0145 112.04 44.3815 112.225 44.7772 112.31C45.173 112.394 45.5838 112.373 45.9692 112.25L51.8203 110.382L57.2511 113.251C57.6088 113.44 58.0096 113.532 58.414 113.519C58.8183 113.506 59.2123 113.388 59.5571 113.176L64.791 109.961L70.7506 111.447C71.1431 111.545 71.5544 111.539 71.9438 111.429C72.3332 111.32 72.6875 111.111 72.9716 110.823L77.2841 106.449L83.4262 106.466H83.4325C83.836 106.466 84.2326 106.361 84.5834 106.162C84.9341 105.962 85.227 105.675 85.4334 105.328L88.5738 100.05L94.5415 98.5958C94.9346 98.5 95.2959 98.3035 95.5899 98.0255C95.8839 97.7475 96.1003 97.3978 96.218 97.0107L98.0039 91.1341L103.45 88.2945C103.809 88.1074 104.113 87.8301 104.332 87.4899C104.551 87.1496 104.677 86.7582 104.699 86.3542L105.026 80.2208L109.635 76.1602C109.938 75.8927 110.167 75.5508 110.298 75.168C110.429 74.7853 110.458 74.375 110.383 73.9775L109.233 67.9439L112.736 62.8987C112.967 62.5663 113.107 62.1796 113.142 61.7766C113.178 61.3736 113.108 60.9683 112.94 60.6005ZM104.476 67.8553L105.56 73.5447L101.214 77.3736C100.982 77.5782 100.793 77.8272 100.658 78.1058C100.523 78.3844 100.445 78.6871 100.429 78.9962L100.12 84.7797L94.9843 87.4573C94.7098 87.6005 94.4666 87.7969 94.2689 88.0352C94.0713 88.2734 93.9231 88.5487 93.8331 88.8449L92.1491 94.3863L86.5218 95.7572C86.221 95.8305 85.9379 95.963 85.689 96.147C85.4401 96.331 85.2304 96.5628 85.0721 96.8288L82.1108 101.806L76.3191 101.79H76.3127C76.0042 101.79 75.6988 101.852 75.4142 101.971C75.1296 102.09 74.8716 102.264 74.655 102.484L70.5884 106.608L64.9689 105.207C64.6685 105.132 64.3562 105.118 64.0503 105.165C63.7444 105.212 63.4509 105.32 63.1872 105.482L58.2519 108.513L53.1309 105.808C52.8572 105.663 52.5574 105.575 52.2491 105.547C51.9408 105.52 51.6301 105.554 51.3352 105.648L45.8179 107.41L41.4931 103.558C41.2619 103.352 40.9919 103.195 40.6991 103.094C40.4063 102.994 40.0964 102.953 39.7876 102.974L34.0091 103.364L30.7318 98.5887C30.5567 98.3335 30.3324 98.1158 30.0721 97.9482C29.8118 97.7807 29.5207 97.6668 29.2158 97.6131L23.5118 96.6094L21.4726 91.1883C21.3636 90.8985 21.1979 90.6334 20.9853 90.4085C20.7726 90.1835 20.5172 90.0033 20.234 89.8782L14.9359 87.5385L14.2533 81.787C14.2168 81.4797 14.1194 81.1826 13.9668 80.9134C13.8141 80.6441 13.6093 80.4079 13.3644 80.2187L8.78016 76.679L9.49383 70.9314C9.53199 70.6242 9.5085 70.3125 9.42472 70.0144C9.34094 69.7164 9.19857 69.4381 9.00593 69.1958L5.40209 64.662L7.47036 59.2523C7.58094 58.9632 7.63273 58.6549 7.62272 58.3455C7.61271 58.0362 7.54108 57.7319 7.41205 57.4505L4.99796 52.1858L8.30089 47.4282C8.47743 47.1738 8.60149 46.8869 8.6658 46.5841C8.73012 46.2812 8.7334 45.9686 8.67546 45.6645L7.59142 39.9752L11.937 36.1462C12.1693 35.9416 12.3584 35.6927 12.4933 35.414C12.6282 35.1354 12.7061 34.8327 12.7226 34.5236L13.0316 28.7403L18.1673 26.0627C18.4417 25.9196 18.6849 25.7232 18.8825 25.485C19.0802 25.2467 19.2284 24.9715 19.3184 24.6754L21.0025 19.1335L26.6296 17.7628C26.9304 17.6895 27.2135 17.557 27.4625 17.373C27.7114 17.1891 27.9212 16.9573 28.0795 16.6913L31.0407 11.7137L36.8324 11.7294H36.8388C37.1473 11.7294 37.4527 11.6681 37.7372 11.5491C38.0218 11.43 38.2799 11.2556 38.4966 11.036L42.5631 6.91174L48.1828 8.31317C48.4831 8.38803 48.7954 8.40226 49.1013 8.35502C49.4072 8.30779 49.7007 8.20003 49.9644 8.03806L54.8997 5.00694L60.0207 7.71226C60.2944 7.85674 60.5942 7.94525 60.9026 7.97261C61.2109 7.99997 61.5216 7.96565 61.8166 7.87164L67.3337 6.10962L71.6585 9.96173C71.8898 10.1673 72.1597 10.3249 72.4525 10.4252C72.7453 10.5256 73.0551 10.5667 73.3639 10.5463L79.1424 10.1559L82.4198 14.9313C82.5949 15.1865 82.8192 15.4043 83.0795 15.5718C83.3398 15.7393 83.6309 15.8532 83.9358 15.9069L89.6398 16.9107L91.6789 22.3315C91.7879 22.6213 91.9536 22.8864 92.1662 23.1113C92.3789 23.3362 92.6343 23.5165 92.9174 23.6416L98.2156 25.9813L98.8982 31.7328C98.9347 32.0402 99.0321 32.3372 99.1847 32.6065C99.3373 32.8757 99.5422 33.1119 99.7871 33.3011L104.371 36.8408L103.658 42.5884C103.62 42.8956 103.643 43.2074 103.727 43.5054C103.811 43.8034 103.953 44.0817 104.146 44.324L107.75 48.858L105.681 54.2677C105.571 54.5569 105.519 54.8651 105.529 55.1745C105.539 55.4839 105.61 55.7882 105.739 56.0695L108.154 61.3342L104.851 66.0917C104.674 66.346 104.55 66.6329 104.486 66.9357C104.421 67.2386 104.418 67.5512 104.476 67.8553H104.476Z" fill="#E0D6D6"/>
</svg>
