<svg width="966" height="388" viewBox="0 0 966 388" fill="none" xmlns="http://www.w3.org/2000/svg">
<g opacity="0.2">
<path d="M194.83 246.683C194.83 227.064 207.007 211.505 222.566 211.505C245.567 211.505 263.832 189.857 263.832 162.798C263.832 158.739 261.126 156.033 257.067 156.033C253.008 156.033 250.302 158.739 250.302 162.798C250.302 182.416 238.125 197.975 222.566 197.975C199.565 197.975 181.3 219.623 181.3 246.683C181.3 266.301 169.123 281.86 153.564 281.86C130.563 281.86 112.298 303.508 112.298 330.568C112.298 350.186 100.121 365.745 84.5615 365.745C80.5026 365.745 77.7966 368.451 77.7966 372.51C77.7966 376.569 80.5026 379.275 84.5615 379.275C107.562 379.275 125.828 357.627 125.828 330.568C125.828 310.949 138.004 295.39 153.564 295.39C175.888 296.066 194.83 273.742 194.83 246.683Z" fill="#2DA2E7" fill-opacity="0.29"/>
<path d="M117.033 152.65C117.033 133.032 129.21 117.472 144.769 117.472C167.77 117.472 186.035 95.8246 186.035 68.7649C186.035 64.706 183.329 62 179.27 62C175.211 62 172.505 64.706 172.505 68.7649C172.505 88.3832 160.329 103.942 144.769 103.942C121.768 103.942 103.503 125.59 103.503 152.65C103.503 172.268 91.3264 187.827 75.7671 187.827C52.7663 187.827 34.5011 209.475 34.5011 236.535C34.5011 256.153 22.3242 271.712 6.76492 271.712C2.70597 271.712 0 274.418 0 278.477C0 282.536 2.70597 285.242 6.76492 285.242C29.7656 285.242 48.0309 263.594 48.0309 236.535C48.0309 216.917 60.2078 201.357 75.7671 201.357C98.7678 201.357 117.033 179.71 117.033 152.65Z" fill="#2DA2E7" fill-opacity="0.29"/>
<path d="M112.974 246.683C112.974 227.065 125.151 211.505 140.71 211.505C163.711 211.505 181.976 189.857 181.976 162.798C181.976 143.18 194.153 127.62 209.712 127.62C232.713 127.62 250.978 105.973 250.978 78.9129C250.978 74.8539 248.272 72.1479 244.213 72.1479C240.154 72.1479 237.448 74.8539 237.448 78.9129C237.448 98.5311 225.271 114.09 209.712 114.09C186.711 114.09 168.446 135.738 168.446 162.798C168.446 182.416 156.269 197.975 140.71 197.975C117.709 197.975 99.4441 219.623 99.4441 246.683C99.4441 266.301 87.2672 281.86 71.7079 281.86C67.649 281.86 64.943 284.566 64.943 288.625C64.943 292.684 67.649 295.39 71.7079 295.39C94.0321 295.39 112.974 273.742 112.974 246.683Z" fill="#2DA2E7" fill-opacity="0.29"/>
<path d="M317.95 161.445C313.891 161.445 311.186 164.151 311.186 168.21C311.186 187.828 299.009 203.387 283.449 203.387C260.449 203.387 242.183 225.035 242.183 252.095C242.183 271.713 230.007 287.272 214.447 287.272C191.447 287.272 173.181 308.92 173.181 335.98C173.181 355.598 161.004 371.157 145.445 371.157C141.386 371.157 138.68 373.863 138.68 377.922C138.68 381.981 141.386 384.687 145.445 384.687C168.446 384.687 186.711 363.039 186.711 335.98C186.711 316.361 198.888 300.802 214.447 300.802C237.448 300.802 255.713 279.154 255.713 252.095C255.713 232.476 267.89 216.917 283.449 216.917C306.45 216.917 324.715 195.269 324.715 168.21C324.715 164.827 322.009 161.445 317.95 161.445Z" fill="#2DA2E7" fill-opacity="0.29"/>
</g>
<g opacity="0.2">
<path d="M515.047 230.317C515.047 209.569 527.925 193.114 544.38 193.114C568.705 193.114 588.022 170.22 588.022 141.602C588.022 137.31 585.161 134.448 580.868 134.448C576.575 134.448 573.714 137.31 573.714 141.602C573.714 162.35 560.836 178.805 544.38 178.805C520.055 178.805 500.738 201.699 500.738 230.317C500.738 251.065 487.861 267.52 471.405 267.52C447.08 267.52 427.763 290.414 427.763 319.032C427.763 339.78 414.885 356.235 398.43 356.235C394.138 356.235 391.276 359.096 391.276 363.389C391.276 367.682 394.138 370.544 398.43 370.544C422.755 370.544 442.072 347.649 442.072 319.032C442.072 298.284 454.95 281.829 471.405 281.829C495.015 282.544 515.047 258.935 515.047 230.317Z" fill="#2DA2E7" fill-opacity="0.29"/>
<path d="M432.771 130.869C432.771 110.121 445.649 93.6662 462.105 93.6662C486.43 93.6662 505.746 70.7721 505.746 42.1544C505.746 37.8618 502.885 35 498.592 35C494.299 35 491.438 37.8618 491.438 42.1544C491.438 62.9022 478.56 79.3574 462.105 79.3574C437.78 79.3574 418.463 102.252 418.463 130.869C418.463 151.617 405.585 168.072 389.129 168.072C364.804 168.072 345.488 190.966 345.488 219.584C345.488 240.332 332.61 256.787 316.154 256.787C311.862 256.787 309 259.649 309 263.941C309 268.234 311.862 271.096 316.154 271.096C340.479 271.096 359.796 248.202 359.796 219.584C359.796 198.836 372.674 182.381 389.129 182.381C413.454 182.381 432.771 159.487 432.771 130.869Z" fill="#2DA2E7" fill-opacity="0.29"/>
<path d="M428.479 230.316C428.479 209.568 441.357 193.113 457.812 193.113C482.137 193.113 501.454 170.219 501.454 141.601C501.454 120.854 514.332 104.398 530.787 104.398C555.112 104.398 574.429 81.5043 574.429 52.8866C574.429 48.5939 571.567 45.7322 567.274 45.7322C562.982 45.7322 560.12 48.5939 560.12 52.8866C560.12 73.6344 547.242 90.0896 530.787 90.0896C506.462 90.0896 487.145 112.984 487.145 141.601C487.145 162.349 474.267 178.804 457.812 178.804C433.487 178.804 414.17 201.698 414.17 230.316C414.17 251.064 401.292 267.519 384.837 267.519C380.544 267.519 377.682 270.381 377.682 274.674C377.682 278.966 380.544 281.828 384.837 281.828C408.446 281.828 428.479 258.934 428.479 230.316Z" fill="#2DA2E7" fill-opacity="0.29"/>
<path d="M645.257 140.17C640.964 140.17 638.103 143.032 638.103 147.325C638.103 168.073 625.225 184.528 608.77 184.528C584.445 184.528 565.128 207.422 565.128 236.04C565.128 256.787 552.25 273.243 535.795 273.243C511.47 273.243 492.153 296.137 492.153 324.754C492.153 345.502 479.275 361.957 462.819 361.957C458.527 361.957 455.665 364.819 455.665 369.112C455.665 373.404 458.527 376.266 462.819 376.266C487.144 376.266 506.461 353.372 506.461 324.754C506.461 304.007 519.339 287.551 535.795 287.551C560.12 287.551 579.436 264.657 579.436 236.04C579.436 215.292 592.314 198.837 608.77 198.837C633.095 198.837 652.412 175.942 652.412 147.325C652.412 143.748 649.55 140.17 645.257 140.17Z" fill="#2DA2E7" fill-opacity="0.29"/>
</g>
<path d="M712.463 95.0089L714.612 98.9439C714.998 99.6518 715.742 100.094 716.547 100.094C717.352 100.094 718.096 99.654 718.482 98.9439L720.633 95.0067C722.57 91.4543 725.47 88.5456 729.017 86.5991L732.945 84.4469C733.653 84.0576 734.094 83.3143 734.094 82.5048C734.094 81.6974 733.655 80.952 732.945 80.5649L729.02 78.4105C725.472 76.4617 722.57 73.5552 720.631 69.9984L718.482 66.0634C717.71 64.6455 715.384 64.6455 714.612 66.0634L712.461 70.0007C710.524 73.553 707.625 76.4617 704.077 78.4105L700.15 80.5649C699.441 80.952 699 81.6974 699 82.5048C699 83.3143 699.439 84.0576 700.15 84.4469L704.075 86.5969C707.625 88.5478 710.524 91.4543 712.463 95.0089Z" fill="#FEF7BA" fill-opacity="0.5"/>
<path d="M891.463 327.009L893.612 330.944C893.998 331.652 894.742 332.094 895.547 332.094C896.352 332.094 897.096 331.654 897.482 330.944L899.633 327.007C901.57 323.454 904.47 320.546 908.017 318.599L911.945 316.447C912.653 316.058 913.094 315.314 913.094 314.505C913.094 313.697 912.655 312.952 911.945 312.565L908.02 310.41C904.472 308.462 901.57 305.555 899.631 301.998L897.482 298.063C896.71 296.646 894.384 296.646 893.612 298.063L891.461 302.001C889.524 305.553 886.625 308.462 883.077 310.41L879.15 312.565C878.441 312.952 878 313.697 878 314.505C878 315.314 878.439 316.058 879.15 316.447L883.075 318.597C886.625 320.548 889.524 323.454 891.463 327.009Z" fill="#FEF7BA" fill-opacity="0.5"/>
<path d="M695.463 333.009L697.612 336.944C697.998 337.652 698.742 338.094 699.547 338.094C700.352 338.094 701.096 337.654 701.482 336.944L703.633 333.007C705.57 329.454 708.47 326.546 712.017 324.599L715.945 322.447C716.653 322.058 717.094 321.314 717.094 320.505C717.094 319.697 716.655 318.952 715.945 318.565L712.02 316.41C708.472 314.462 705.57 311.555 703.631 307.998L701.482 304.063C700.71 302.646 698.384 302.646 697.612 304.063L695.461 308.001C693.524 311.553 690.625 314.462 687.077 316.41L683.15 318.565C682.441 318.952 682 319.697 682 320.505C682 321.314 682.439 322.058 683.15 322.447L687.075 324.597C690.625 326.548 693.524 329.454 695.463 333.009Z" fill="#FEF7BA" fill-opacity="0.5"/>
<path d="M664.128 361.887L665.265 363.97C665.47 364.345 665.863 364.579 666.29 364.579C666.716 364.579 667.11 364.346 667.314 363.97L668.453 361.886C669.478 360.005 671.013 358.465 672.892 357.435L674.971 356.295C675.346 356.089 675.579 355.696 675.579 355.267C675.579 354.84 675.347 354.445 674.971 354.24L672.893 353.1C671.014 352.068 669.478 350.529 668.452 348.646L667.314 346.563C666.905 345.812 665.674 345.812 665.265 346.563L664.126 348.647C663.101 350.528 661.566 352.068 659.688 353.1L657.609 354.24C657.234 354.445 657 354.84 657 355.267C657 355.696 657.232 356.089 657.609 356.295L659.687 357.434C661.566 358.466 663.101 360.005 664.128 361.887Z" fill="#FEF7BA" fill-opacity="0.5"/>
<path d="M773.128 248.887L774.265 250.97C774.47 251.345 774.863 251.579 775.29 251.579C775.716 251.579 776.11 251.346 776.314 250.97L777.453 248.886C778.478 247.005 780.013 245.465 781.892 244.435L783.971 243.295C784.346 243.089 784.579 242.696 784.579 242.267C784.579 241.84 784.347 241.445 783.971 241.24L781.893 240.1C780.014 239.068 778.478 237.529 777.452 235.646L776.314 233.563C775.905 232.812 774.674 232.812 774.265 233.563L773.126 235.647C772.101 237.528 770.566 239.068 768.688 240.1L766.609 241.24C766.234 241.445 766 241.84 766 242.267C766 242.696 766.232 243.089 766.609 243.295L768.687 244.434C770.566 245.466 772.101 247.005 773.128 248.887Z" fill="#FEF7BA" fill-opacity="0.5"/>
<path d="M320.463 121.009L322.612 124.944C322.998 125.652 323.742 126.094 324.547 126.094C325.352 126.094 326.096 125.654 326.482 124.944L328.633 121.007C330.57 117.454 333.47 114.546 337.017 112.599L340.945 110.447C341.653 110.058 342.094 109.314 342.094 108.505C342.094 107.697 341.655 106.952 340.945 106.565L337.02 104.41C333.472 102.462 330.57 99.5552 328.631 95.9984L326.482 92.0634C325.71 90.6455 323.384 90.6455 322.612 92.0634L320.461 96.0007C318.524 99.553 315.625 102.462 312.077 104.41L308.15 106.565C307.441 106.952 307 107.697 307 108.505C307 109.314 307.439 110.058 308.15 110.447L312.075 112.597C315.625 114.548 318.524 117.454 320.463 121.009Z" fill="#FEF7BA" fill-opacity="0.5"/>
<path opacity="0.5" d="M344.612 33.9439L342.463 30.0089C340.524 26.4543 337.625 23.5478 334.075 21.5969L330.15 19.4469C329.439 19.0576 329 18.3143 329 17.5048C329 16.6974 329.441 15.952 330.15 15.5649L334.077 13.4105C337.625 11.4617 340.524 8.55304 342.461 5.00065L344.612 1.06339C345.384 -0.354464 347.71 -0.354464 348.482 1.06339L350.631 4.99844C352.57 8.55525 355.472 11.4617 359.02 13.4105L362.945 15.5649C363.655 15.952 364.094 16.6974 364.094 17.5048C364.094 18.3143 363.653 19.0576 362.945 19.4469L359.017 21.5991C355.47 23.5456 352.57 26.4543 350.633 30.0067L348.482 33.9439C348.096 34.654 347.352 35.0942 346.547 35.0942C345.742 35.0942 344.998 34.6518 344.612 33.9439Z" fill="#FEF7BA" fill-opacity="0.5"/>
<path d="M88.2998 73.9742L90.4488 77.9093C90.8349 78.6171 91.5784 79.0595 92.3837 79.0595C93.1891 79.0595 93.9326 78.6193 94.3187 77.9093L96.4699 73.972C98.4071 70.4196 101.306 67.5109 104.854 65.5644L108.781 63.4122C109.49 63.0229 109.931 62.2797 109.931 61.4701C109.931 60.6627 109.492 59.9173 108.781 59.5302L104.856 57.3758C101.308 55.4271 98.4071 52.5206 96.4677 48.9638L94.3187 45.0287C93.5465 43.6109 91.221 43.6109 90.4488 45.0287L88.2976 48.966C86.3604 52.5184 83.4613 55.4271 79.9135 57.3758L75.9862 59.5302C75.2779 59.9173 74.8367 60.6627 74.8367 61.4701C74.8367 62.2797 75.2757 63.0229 75.9862 63.4122L79.9113 65.5622C83.4613 67.5131 86.3604 70.4196 88.2998 73.9742Z" fill="#FEF7BA" fill-opacity="0.5"/>
<path d="M396.265 327.97L395.128 325.887C394.101 324.005 392.566 322.466 390.687 321.434L388.609 320.295C388.232 320.089 388 319.696 388 319.267C388 318.84 388.234 318.445 388.609 318.24L390.688 317.1C392.566 316.068 394.101 314.528 395.126 312.647L396.265 310.563C396.674 309.812 397.905 309.812 398.314 310.563L399.452 312.646C400.478 314.529 402.014 316.068 403.893 317.1L405.971 318.24C406.347 318.445 406.579 318.84 406.579 319.267C406.579 319.696 406.346 320.089 405.971 320.295L403.892 321.435C402.013 322.465 400.478 324.005 399.453 325.886L398.314 327.97C398.11 328.346 397.716 328.579 397.29 328.579C396.863 328.579 396.47 328.345 396.265 327.97Z" fill="#FEF7BA" fill-opacity="0.5"/>
<path d="M894.291 101.14L895.428 103.223C895.633 103.598 896.026 103.832 896.453 103.832C896.879 103.832 897.273 103.599 897.477 103.223L898.616 101.139C899.642 99.2581 901.176 97.7182 903.055 96.6877L905.134 95.5483C905.509 95.3422 905.742 94.9488 905.742 94.5202C905.742 94.0927 905.51 93.6981 905.134 93.4932L903.056 92.3526C901.178 91.3209 899.642 89.7822 898.615 87.8992L897.477 85.8159C897.068 85.0653 895.837 85.0653 895.428 85.8159L894.289 87.9003C893.264 89.781 891.729 91.3209 889.851 92.3526L887.772 93.4932C887.397 93.6981 887.163 94.0927 887.163 94.5202C887.163 94.9488 887.396 95.3422 887.772 95.5483L889.85 96.6866C891.729 97.7194 893.264 99.2581 894.291 101.14Z" fill="#FEF7BA" fill-opacity="0.5"/>
<path opacity="0.5" d="M82.0697 323.078L80.932 320.994C79.9053 319.113 78.3704 317.574 76.491 316.541L74.413 315.403C74.0369 315.197 73.8044 314.803 73.8044 314.375C73.8044 313.947 74.0381 313.553 74.413 313.348L76.4922 312.207C78.3704 311.175 79.9053 309.636 80.9308 307.755L82.0697 305.67C82.4785 304.92 83.7096 304.92 84.1185 305.67L85.2562 307.754C86.2829 309.637 87.8189 311.175 89.6972 312.207L91.7751 313.348C92.1513 313.553 92.3837 313.947 92.3837 314.375C92.3837 314.803 92.1501 315.197 91.7751 315.403L89.696 316.542C87.8177 317.573 86.2829 319.113 85.2573 320.993L84.1185 323.078C83.9141 323.454 83.5204 323.687 83.0941 323.687C82.6677 323.687 82.2741 323.452 82.0697 323.078Z" fill="#FEF7BA" fill-opacity="0.5"/>
<path d="M425.231 81.0625C426.295 81.0625 427.155 80.2027 427.155 79.139V76.3077H429.986C431.05 76.3077 431.909 75.4479 431.909 74.3843C431.909 73.3206 431.05 72.4608 429.986 72.4608H427.155V69.6295C427.155 68.5658 426.295 67.7061 425.231 67.7061C424.168 67.7061 423.308 68.5658 423.308 69.6295V72.4608H420.476C419.413 72.4608 418.553 73.3206 418.553 74.3843C418.553 75.4479 419.413 76.3077 420.476 76.3077H423.308V79.139C423.308 80.2027 424.169 81.0625 425.231 81.0625Z" fill="#FEF7BA" fill-opacity="0.5"/>
<path d="M841.678 164.356C842.742 164.356 843.602 163.497 843.602 162.433V159.602H846.433C847.497 159.602 848.356 158.742 848.356 157.678C848.356 156.615 847.497 155.755 846.433 155.755H843.602V152.923C843.602 151.86 842.742 151 841.678 151C840.615 151 839.755 151.86 839.755 152.923V155.755H836.923C835.86 155.755 835 156.615 835 157.678C835 158.742 835.86 159.602 836.923 159.602H839.755V162.433C839.755 163.497 840.616 164.356 841.678 164.356Z" fill="#FEF7BA" fill-opacity="0.5"/>
<path d="M854.678 365.356C855.742 365.356 856.602 364.497 856.602 363.433V360.602H859.433C860.497 360.602 861.356 359.742 861.356 358.678C861.356 357.615 860.497 356.755 859.433 356.755H856.602V353.923C856.602 352.86 855.742 352 854.678 352C853.615 352 852.755 352.86 852.755 353.923V356.755H849.923C848.86 356.755 848 357.615 848 358.678C848 359.742 848.86 360.602 849.923 360.602H852.755V363.433C852.755 364.497 853.616 365.356 854.678 365.356Z" fill="#FEF7BA" fill-opacity="0.5"/>
<path d="M128.995 92.416C130.059 92.416 130.919 91.5562 130.919 90.4925V87.6612H133.75C134.814 87.6612 135.673 86.8014 135.673 85.7378C135.673 84.6741 134.814 83.8143 133.75 83.8143H130.919V80.983C130.919 79.9194 130.059 79.0596 128.995 79.0596C127.932 79.0596 127.072 79.9194 127.072 80.983V83.8143H124.24C123.177 83.8143 122.317 84.6741 122.317 85.7378C122.317 86.8014 123.177 87.6612 124.24 87.6612H127.072V90.4925C127.072 91.5562 127.933 92.416 128.995 92.416Z" fill="#FEF7BA" fill-opacity="0.5"/>
<path d="M648.993 70.3378C648.993 65.2031 652.18 61.1307 656.253 61.1307C662.273 61.1307 667.053 55.4648 667.053 48.3824C667.053 47.3201 666.345 46.6118 665.283 46.6118C664.22 46.6118 663.512 47.3201 663.512 48.3824C663.512 53.5171 660.325 57.5895 656.253 57.5895C650.233 57.5895 645.452 63.2554 645.452 70.3378C645.452 75.4726 642.265 79.5449 638.193 79.5449C632.172 79.5449 627.392 85.2108 627.392 92.2932C627.392 97.428 624.205 101.5 620.132 101.5C619.07 101.5 618.362 102.209 618.362 103.271C618.362 104.333 619.07 105.042 620.132 105.042C626.152 105.042 630.933 99.3756 630.933 92.2932C630.933 87.1585 634.12 83.0861 638.193 83.0861C644.035 83.2632 648.993 77.4202 648.993 70.3378Z" fill="#FEF7BA" fill-opacity="0.5"/>
<path d="M628.631 45.726C628.631 40.5913 631.818 36.5189 635.891 36.5189C641.911 36.5189 646.691 30.853 646.691 23.7706C646.691 22.7082 645.983 22 644.921 22C643.858 22 643.15 22.7082 643.15 23.7706C643.15 28.9053 639.963 32.9777 635.891 32.9777C629.871 32.9777 625.09 38.6436 625.09 45.726C625.09 50.8607 621.903 54.9331 617.831 54.9331C611.811 54.9331 607.03 60.599 607.03 67.6814C607.03 72.8162 603.843 76.8885 599.771 76.8885C598.708 76.8885 598 77.5968 598 78.6591C598 79.7215 598.708 80.4297 599.771 80.4297C605.791 80.4297 610.571 74.7638 610.571 67.6814C610.571 62.5467 613.758 58.4743 617.831 58.4743C623.851 58.4743 628.631 52.8084 628.631 45.726Z" fill="#FEF7BA" fill-opacity="0.5"/>
<path d="M627.569 70.3379C627.569 65.2032 630.756 61.1308 634.828 61.1308C640.848 61.1308 645.629 55.4649 645.629 48.3825C645.629 43.2478 648.816 39.1754 652.888 39.1754C658.908 39.1754 663.689 33.5095 663.689 26.4271C663.689 25.3647 662.981 24.6565 661.918 24.6565C660.856 24.6565 660.148 25.3647 660.148 26.4271C660.148 31.5618 656.961 35.6342 652.888 35.6342C646.868 35.6342 642.088 41.3001 642.088 48.3825C642.088 53.5172 638.901 57.5896 634.828 57.5896C628.808 57.5896 624.028 63.2555 624.028 70.3379C624.028 75.4726 620.841 79.545 616.768 79.545C615.706 79.545 614.998 80.2533 614.998 81.3156C614.998 82.378 615.706 83.0862 616.768 83.0862C622.611 83.0862 627.569 77.4203 627.569 70.3379Z" fill="#FEF7BA" fill-opacity="0.5"/>
<path d="M681.218 48.0281C680.156 48.0281 679.447 48.7363 679.447 49.7987C679.447 54.9334 676.26 59.0058 672.188 59.0058C666.168 59.0058 661.387 64.6717 661.387 71.7541C661.387 76.8888 658.2 80.9612 654.128 80.9612C648.108 80.9612 643.327 86.6271 643.327 93.7095C643.327 98.8442 640.14 102.917 636.068 102.917C635.005 102.917 634.297 103.625 634.297 104.687C634.297 105.75 635.005 106.458 636.068 106.458C642.088 106.458 646.868 100.792 646.868 93.7095C646.868 88.5748 650.055 84.5024 654.128 84.5024C660.148 84.5024 664.928 78.8365 664.928 71.7541C664.928 66.6194 668.116 62.547 672.188 62.547C678.208 62.547 682.989 56.8811 682.989 49.7987C682.989 48.9134 682.28 48.0281 681.218 48.0281Z" fill="#FEF7BA" fill-opacity="0.5"/>
<path d="M228.088 34.3126C228.088 30.8802 230.218 28.1579 232.94 28.1579C236.965 28.1579 240.16 24.3704 240.16 19.636C240.16 18.9258 239.687 18.4524 238.977 18.4524C238.267 18.4524 237.793 18.9258 237.793 19.636C237.793 23.0684 235.663 25.7907 232.94 25.7907C228.916 25.7907 225.72 29.5782 225.72 34.3126C225.72 37.745 223.59 40.4673 220.868 40.4673C216.843 40.4673 213.648 44.2548 213.648 48.9892C213.648 52.4217 211.517 55.1439 208.795 55.1439C208.085 55.1439 207.611 55.6174 207.611 56.3275C207.611 57.0377 208.085 57.5111 208.795 57.5111C212.819 57.5111 216.015 53.7236 216.015 48.9892C216.015 45.5568 218.145 42.8345 220.868 42.8345C224.774 42.9529 228.088 39.047 228.088 34.3126Z" fill="#FEF7BA" fill-opacity="0.5"/>
<path d="M214.476 17.8602C214.476 14.4278 216.607 11.7055 219.329 11.7055C223.353 11.7055 226.549 7.91799 226.549 3.1836C226.549 2.47344 226.076 2 225.365 2C224.655 2 224.182 2.47344 224.182 3.1836C224.182 6.61603 222.051 9.33831 219.329 9.33831C215.305 9.33831 212.109 13.1258 212.109 17.8602C212.109 21.2927 209.979 24.0149 207.256 24.0149C203.232 24.0149 200.036 27.8024 200.036 32.5368C200.036 35.9693 197.906 38.6915 195.184 38.6915C194.473 38.6915 194 39.165 194 39.8751C194 40.5853 194.473 41.0587 195.184 41.0587C199.208 41.0587 202.404 37.2712 202.404 32.5368C202.404 29.1044 204.534 26.3821 207.256 26.3821C211.281 26.3821 214.476 22.5946 214.476 17.8602Z" fill="#FEF7BA" fill-opacity="0.5"/>
<path d="M213.766 34.3127C213.766 30.8803 215.897 28.158 218.619 28.158C222.643 28.158 225.839 24.3705 225.839 19.6361C225.839 16.2037 227.969 13.4814 230.692 13.4814C234.716 13.4814 237.911 9.69387 237.911 4.95948C237.911 4.24932 237.438 3.77588 236.728 3.77588C236.018 3.77588 235.544 4.24932 235.544 4.95948C235.544 8.39191 233.414 11.1142 230.692 11.1142C226.667 11.1142 223.472 14.9017 223.472 19.6361C223.472 23.0685 221.341 25.7908 218.619 25.7908C214.595 25.7908 211.399 29.5783 211.399 34.3127C211.399 37.7451 209.268 40.4674 206.546 40.4674C205.836 40.4674 205.363 40.9409 205.363 41.651C205.363 42.3612 205.836 42.8346 206.546 42.8346C210.452 42.8346 213.766 39.0471 213.766 34.3127Z" fill="#FEF7BA" fill-opacity="0.5"/>
<path d="M249.629 19.3989C248.919 19.3989 248.445 19.8724 248.445 20.5825C248.445 24.015 246.315 26.7372 243.593 26.7372C239.568 26.7372 236.373 30.5247 236.373 35.2591C236.373 38.6916 234.242 41.4139 231.52 41.4139C227.496 41.4139 224.3 45.2014 224.3 49.9358C224.3 53.3682 222.17 56.0905 219.447 56.0905C218.737 56.0905 218.264 56.5639 218.264 57.2741C218.264 57.9842 218.737 58.4577 219.447 58.4577C223.472 58.4577 226.667 54.6702 226.667 49.9358C226.667 46.5033 228.798 43.781 231.52 43.781C235.544 43.781 238.74 39.9935 238.74 35.2591C238.74 31.8267 240.87 29.1044 243.593 29.1044C247.617 29.1044 250.813 25.3169 250.813 20.5825C250.813 19.9907 250.339 19.3989 249.629 19.3989Z" fill="#FEF7BA" fill-opacity="0.5"/>
<path d="M584.2 345.651C584.2 341.864 586.712 338.86 589.923 338.86C594.669 338.86 598.438 334.681 598.438 329.458C598.438 328.674 597.879 328.152 597.042 328.152C596.204 328.152 595.646 328.674 595.646 329.458C595.646 333.245 593.133 336.248 589.923 336.248C585.177 336.248 581.408 340.427 581.408 345.651C581.408 349.438 578.896 352.441 575.685 352.441C570.94 352.441 567.171 356.62 567.171 361.843C567.171 365.631 564.658 368.634 561.448 368.634C560.61 368.634 560.052 369.156 560.052 369.94C560.052 370.723 560.61 371.246 561.448 371.246C566.194 371.246 569.962 367.067 569.962 361.843C569.962 358.056 572.475 355.053 575.685 355.053C580.292 355.184 584.2 350.874 584.2 345.651Z" fill="#FEF7BA" fill-opacity="0.5"/>
<path d="M575.7 354.553L575.692 354.553H575.685C572.121 354.553 569.462 357.865 569.462 361.843C569.462 366.839 565.871 370.746 561.448 370.746C561.133 370.746 560.914 370.649 560.777 370.522C560.644 370.397 560.552 370.208 560.552 369.94C560.552 369.672 560.644 369.483 560.777 369.358C560.914 369.231 561.133 369.134 561.448 369.134C565.012 369.134 567.671 365.822 567.671 361.843C567.671 356.848 571.262 352.941 575.685 352.941C579.25 352.941 581.908 349.629 581.908 345.651C581.908 340.655 585.499 336.748 589.923 336.748C593.487 336.748 596.146 333.436 596.146 329.458C596.146 329.19 596.238 329.001 596.371 328.876C596.508 328.749 596.727 328.652 597.042 328.652C597.356 328.652 597.576 328.749 597.712 328.876C597.845 329.001 597.938 329.19 597.938 329.458C597.938 334.454 594.347 338.36 589.923 338.36C586.359 338.36 583.7 341.672 583.7 345.651C583.7 350.655 579.965 354.674 575.7 354.553Z" stroke="#FEF7BA" stroke-opacity="0.5"/>
<path d="M568.148 327.499C568.148 323.712 570.66 320.708 573.871 320.708C578.617 320.708 582.386 316.529 582.386 311.306C582.386 310.522 581.827 310 580.99 310C580.152 310 579.594 310.522 579.594 311.306C579.594 315.093 577.081 318.096 573.871 318.096C569.125 318.096 565.356 322.275 565.356 327.499C565.356 331.286 562.844 334.289 559.633 334.289C554.888 334.289 551.119 338.468 551.119 343.692C551.119 347.479 548.606 350.482 545.396 350.482C544.558 350.482 544 351.005 544 351.788C544 352.572 544.558 353.094 545.396 353.094C550.142 353.094 553.91 348.915 553.91 343.692C553.91 339.905 556.423 336.901 559.633 336.901C564.379 336.901 568.148 332.722 568.148 327.499Z" fill="#FEF7BA" fill-opacity="0.5"/>
<path d="M573.871 320.208C570.307 320.208 567.648 323.52 567.648 327.499C567.648 332.495 564.057 336.401 559.633 336.401C556.069 336.401 553.41 339.713 553.41 343.692C553.41 348.687 549.819 352.594 545.396 352.594C545.081 352.594 544.862 352.497 544.725 352.37C544.592 352.245 544.5 352.056 544.5 351.788C544.5 351.52 544.592 351.331 544.725 351.206C544.862 351.079 545.081 350.982 545.396 350.982C548.96 350.982 551.619 347.67 551.619 343.692C551.619 338.696 555.21 334.789 559.633 334.789C563.198 334.789 565.856 331.477 565.856 327.499C565.856 322.503 569.447 318.596 573.871 318.596C577.435 318.596 580.094 315.284 580.094 311.306C580.094 311.038 580.186 310.849 580.319 310.724C580.456 310.597 580.675 310.5 580.99 310.5C581.304 310.5 581.524 310.597 581.66 310.724C581.793 310.849 581.886 311.038 581.886 311.306C581.886 316.302 578.295 320.208 573.871 320.208Z" stroke="#FEF7BA" stroke-opacity="0.5"/>
<path d="M567.31 345.651C567.31 341.864 569.823 338.86 573.033 338.86C577.779 338.86 581.548 334.681 581.548 329.458C581.548 325.671 584.06 322.667 587.271 322.667C592.017 322.667 595.785 318.488 595.785 313.265C595.785 312.481 595.227 311.959 594.39 311.959C593.552 311.959 592.994 312.481 592.994 313.265C592.994 317.052 590.481 320.055 587.271 320.055C582.525 320.055 578.756 324.234 578.756 329.458C578.756 333.245 576.244 336.248 573.033 336.248C568.287 336.248 564.519 340.427 564.519 345.651C564.519 349.438 562.006 352.441 558.796 352.441C557.958 352.441 557.4 352.964 557.4 353.747C557.4 354.531 557.958 355.053 558.796 355.053C563.402 355.053 567.31 350.874 567.31 345.651Z" fill="#FEF7BA" fill-opacity="0.5"/>
<path d="M573.033 338.36C569.469 338.36 566.81 341.672 566.81 345.651C566.81 350.641 563.085 354.553 558.796 354.553C558.481 354.553 558.262 354.456 558.125 354.329C557.992 354.204 557.9 354.015 557.9 353.747C557.9 353.479 557.992 353.29 558.125 353.165C558.262 353.038 558.481 352.941 558.796 352.941C562.36 352.941 565.019 349.629 565.019 345.651C565.019 340.655 568.61 336.748 573.033 336.748C576.598 336.748 579.256 333.436 579.256 329.458C579.256 324.462 582.847 320.555 587.271 320.555C590.835 320.555 593.494 317.243 593.494 313.265C593.494 312.997 593.586 312.808 593.719 312.683C593.855 312.556 594.075 312.459 594.39 312.459C594.704 312.459 594.924 312.556 595.06 312.683C595.193 312.808 595.285 312.997 595.285 313.265C595.285 318.261 591.694 322.167 587.271 322.167C583.707 322.167 581.048 325.479 581.048 329.458C581.048 334.454 577.457 338.36 573.033 338.36Z" stroke="#FEF7BA" stroke-opacity="0.5"/>
<path d="M609.604 329.196C608.767 329.196 608.208 329.719 608.208 330.502C608.208 334.289 605.696 337.293 602.485 337.293C597.74 337.293 593.971 341.472 593.971 346.695C593.971 350.482 591.458 353.486 588.248 353.486C583.502 353.486 579.733 357.664 579.733 362.888C579.733 366.675 577.221 369.678 574.01 369.678C573.173 369.678 572.615 370.201 572.615 370.984C572.615 371.768 573.173 372.29 574.01 372.29C578.756 372.29 582.525 368.111 582.525 362.888C582.525 359.101 585.037 356.097 588.248 356.097C592.994 356.097 596.762 351.919 596.762 346.695C596.762 342.908 599.275 339.904 602.485 339.904C607.231 339.904 611 335.726 611 330.502C611 329.849 610.442 329.196 609.604 329.196Z" fill="#FEF7BA" fill-opacity="0.5"/>
<path d="M608.708 330.502C608.708 330.234 608.801 330.045 608.934 329.921C609.07 329.793 609.289 329.696 609.604 329.696C610.164 329.696 610.5 330.124 610.5 330.502C610.5 335.498 606.909 339.404 602.485 339.404C598.921 339.404 596.262 342.717 596.262 346.695C596.262 351.691 592.672 355.597 588.248 355.597C584.684 355.597 582.025 358.909 582.025 362.888C582.025 367.884 578.434 371.79 574.01 371.79C573.696 371.79 573.476 371.693 573.34 371.566C573.207 371.441 573.115 371.252 573.115 370.984C573.115 370.717 573.207 370.527 573.34 370.403C573.476 370.275 573.696 370.178 574.01 370.178C577.575 370.178 580.233 366.866 580.233 362.888C580.233 357.892 583.824 353.986 588.248 353.986C591.812 353.986 594.471 350.674 594.471 346.695C594.471 341.699 598.062 337.793 602.485 337.793C606.05 337.793 608.708 334.481 608.708 330.502Z" stroke="#FEF7BA" stroke-opacity="0.5"/>
<path d="M281.8 354.892C281.8 350.201 284.913 346.48 288.89 346.48C294.769 346.48 299.438 341.303 299.438 334.833C299.438 333.862 298.746 333.215 297.709 333.215C296.671 333.215 295.979 333.862 295.979 334.833C295.979 339.524 292.867 343.245 288.89 343.245C283.011 343.245 278.342 348.421 278.342 354.892C278.342 359.584 275.229 363.305 271.252 363.305C265.373 363.305 260.704 368.481 260.704 374.952C260.704 379.644 257.592 383.364 253.615 383.364C252.577 383.364 251.885 384.012 251.885 384.982C251.885 385.953 252.577 386.6 253.615 386.6C259.494 386.6 264.163 381.423 264.163 374.952C264.163 370.261 267.275 366.54 271.252 366.54C276.958 366.702 281.8 361.363 281.8 354.892Z" fill="#FEF7BA" fill-opacity="0.5"/>
<path d="M271.266 366.04L271.259 366.04H271.252C266.921 366.04 263.663 370.069 263.663 374.952C263.663 381.195 259.172 386.1 253.615 386.1C253.2 386.1 252.897 385.972 252.703 385.79C252.511 385.611 252.385 385.343 252.385 384.982C252.385 384.621 252.511 384.354 252.703 384.174C252.897 383.992 253.2 383.864 253.615 383.864C257.946 383.864 261.204 379.835 261.204 374.952C261.204 368.709 265.695 363.805 271.252 363.805C275.583 363.805 278.842 359.775 278.842 354.892C278.842 348.649 283.333 343.745 288.89 343.745C293.221 343.745 296.479 339.715 296.479 334.833C296.479 334.471 296.605 334.204 296.796 334.025C296.991 333.843 297.294 333.715 297.709 333.715C298.123 333.715 298.426 333.843 298.621 334.025C298.812 334.204 298.938 334.471 298.938 334.833C298.938 341.076 294.447 345.98 288.89 345.98C284.559 345.98 281.3 350.01 281.3 354.892C281.3 361.144 276.632 366.192 271.266 366.04Z" stroke="#FEF7BA" stroke-opacity="0.5"/>
<path d="M261.915 332.406C261.915 327.714 265.027 323.993 269.004 323.993C274.883 323.993 279.552 318.817 279.552 312.346C279.552 311.375 278.861 310.728 277.823 310.728C276.786 310.728 276.094 311.375 276.094 312.346C276.094 317.037 272.981 320.758 269.004 320.758C263.125 320.758 258.456 325.935 258.456 332.406C258.456 337.097 255.344 340.818 251.367 340.818C245.488 340.818 240.819 345.994 240.819 352.465C240.819 357.157 237.706 360.878 233.729 360.878C232.692 360.878 232 361.525 232 362.495C232 363.466 232.692 364.113 233.729 364.113C239.608 364.113 244.277 358.936 244.277 352.465C244.277 347.774 247.39 344.053 251.367 344.053C257.246 344.053 261.915 338.876 261.915 332.406Z" fill="#FEF7BA" fill-opacity="0.5"/>
<path d="M269.004 323.493C264.673 323.493 261.415 327.523 261.415 332.406C261.415 338.649 256.924 343.553 251.367 343.553C247.036 343.553 243.777 347.583 243.777 352.465C243.777 358.709 239.286 363.613 233.729 363.613C233.314 363.613 233.012 363.485 232.817 363.303C232.626 363.124 232.5 362.857 232.5 362.495C232.5 362.134 232.626 361.867 232.817 361.688C233.012 361.506 233.314 361.378 233.729 361.378C238.06 361.378 241.319 357.348 241.319 352.465C241.319 346.222 245.81 341.318 251.367 341.318C255.698 341.318 258.956 337.288 258.956 332.406C258.956 326.162 263.447 321.258 269.004 321.258C273.335 321.258 276.594 317.229 276.594 312.346C276.594 311.984 276.719 311.717 276.911 311.538C277.106 311.356 277.408 311.228 277.823 311.228C278.238 311.228 278.541 311.356 278.735 311.538C278.927 311.717 279.052 311.984 279.052 312.346C279.052 318.589 274.561 323.493 269.004 323.493Z" stroke="#FEF7BA" stroke-opacity="0.5"/>
<path d="M260.877 354.892C260.877 350.201 263.989 346.48 267.967 346.48C273.846 346.48 278.515 341.303 278.515 334.832C278.515 330.141 281.627 326.42 285.604 326.42C291.483 326.42 296.152 321.243 296.152 314.773C296.152 313.802 295.46 313.155 294.423 313.155C293.385 313.155 292.694 313.802 292.694 314.773C292.694 319.464 289.581 323.185 285.604 323.185C279.725 323.185 275.056 328.361 275.056 334.832C275.056 339.524 271.944 343.245 267.967 343.245C262.087 343.245 257.419 348.421 257.419 354.892C257.419 359.584 254.306 363.304 250.329 363.304C249.292 363.304 248.6 363.951 248.6 364.922C248.6 365.893 249.292 366.54 250.329 366.54C256.035 366.54 260.877 361.363 260.877 354.892Z" fill="#FEF7BA" fill-opacity="0.5"/>
<path d="M267.967 345.98C263.636 345.98 260.377 350.009 260.377 354.892C260.377 361.13 255.718 366.04 250.329 366.04C249.914 366.04 249.612 365.912 249.417 365.73C249.225 365.551 249.1 365.283 249.1 364.922C249.1 364.561 249.225 364.294 249.417 364.114C249.612 363.932 249.914 363.804 250.329 363.804C254.66 363.804 257.919 359.775 257.919 354.892C257.919 348.649 262.41 343.745 267.967 343.745C272.298 343.745 275.556 339.715 275.556 334.832C275.556 328.589 280.047 323.685 285.604 323.685C289.935 323.685 293.194 319.655 293.194 314.773C293.194 314.411 293.319 314.144 293.511 313.965C293.705 313.783 294.008 313.655 294.423 313.655C294.838 313.655 295.14 313.783 295.335 313.965C295.526 314.144 295.652 314.411 295.652 314.773C295.652 321.016 291.161 325.92 285.604 325.92C281.273 325.92 278.015 329.949 278.015 334.832C278.015 341.076 273.524 345.98 267.967 345.98Z" stroke="#FEF7BA" stroke-opacity="0.5"/>
<path d="M313.271 334.509C312.233 334.509 311.542 335.156 311.542 336.127C311.542 340.818 308.429 344.539 304.452 344.539C298.573 344.539 293.904 349.715 293.904 356.186C293.904 360.878 290.792 364.599 286.814 364.599C280.935 364.599 276.267 369.775 276.267 376.246C276.267 380.938 273.154 384.658 269.177 384.658C268.139 384.658 267.448 385.305 267.448 386.276C267.448 387.247 268.139 387.894 269.177 387.894C275.056 387.894 279.725 382.717 279.725 376.246C279.725 371.555 282.837 367.834 286.814 367.834C292.694 367.834 297.362 362.657 297.362 356.186C297.362 351.495 300.475 347.774 304.452 347.774C310.331 347.774 315 342.597 315 336.127C315 335.318 314.308 334.509 313.271 334.509Z" fill="#FEF7BA" fill-opacity="0.5"/>
<path d="M312.042 336.127C312.042 335.765 312.167 335.498 312.359 335.319C312.553 335.137 312.856 335.009 313.271 335.009C314.031 335.009 314.5 335.593 314.5 336.127C314.5 342.37 310.009 347.274 304.452 347.274C300.121 347.274 296.862 351.303 296.862 356.186C296.862 362.43 292.371 367.334 286.814 367.334C282.484 367.334 279.225 371.363 279.225 376.246C279.225 382.489 274.734 387.394 269.177 387.394C268.762 387.394 268.459 387.266 268.265 387.084C268.073 386.905 267.948 386.637 267.948 386.276C267.948 385.915 268.073 385.648 268.265 385.468C268.459 385.286 268.762 385.158 269.177 385.158C273.508 385.158 276.767 381.129 276.767 376.246C276.767 370.003 281.257 365.099 286.814 365.099C291.145 365.099 294.404 361.069 294.404 356.186C294.404 349.943 298.895 345.039 304.452 345.039C308.783 345.039 312.042 341.009 312.042 336.127Z" stroke="#FEF7BA" stroke-opacity="0.5"/>
<g opacity="0.2">
<path d="M828.047 235.317C828.047 214.569 840.925 198.114 857.38 198.114C881.705 198.114 901.022 175.22 901.022 146.602C901.022 142.31 898.161 139.448 893.868 139.448C889.575 139.448 886.714 142.31 886.714 146.602C886.714 167.35 873.836 183.805 857.38 183.805C833.055 183.805 813.738 206.699 813.738 235.317C813.738 256.065 800.861 272.52 784.405 272.52C760.08 272.52 740.763 295.414 740.763 324.032C740.763 344.78 727.885 361.235 711.43 361.235C707.138 361.235 704.276 364.096 704.276 368.389C704.276 372.682 707.138 375.544 711.43 375.544C735.755 375.544 755.072 352.649 755.072 324.032C755.072 303.284 767.95 286.829 784.405 286.829C808.015 287.544 828.047 263.935 828.047 235.317Z" fill="#2DA2E7" fill-opacity="0.29"/>
<path d="M745.771 135.869C745.771 115.121 758.649 98.6662 775.105 98.6662C799.43 98.6662 818.746 75.7721 818.746 47.1544C818.746 42.8618 815.885 40 811.592 40C807.299 40 804.438 42.8618 804.438 47.1544C804.438 67.9022 791.56 84.3574 775.105 84.3574C750.78 84.3574 731.463 107.252 731.463 135.869C731.463 156.617 718.585 173.072 702.129 173.072C677.804 173.072 658.488 195.966 658.488 224.584C658.488 245.332 645.61 261.787 629.154 261.787C624.862 261.787 622 264.649 622 268.941C622 273.234 624.862 276.096 629.154 276.096C653.479 276.096 672.796 253.202 672.796 224.584C672.796 203.836 685.674 187.381 702.129 187.381C726.454 187.381 745.771 164.487 745.771 135.869Z" fill="#2DA2E7" fill-opacity="0.29"/>
<path d="M741.479 235.316C741.479 214.568 754.357 198.113 770.812 198.113C795.137 198.113 814.454 175.219 814.454 146.601C814.454 125.854 827.332 109.398 843.787 109.398C868.112 109.398 887.429 86.5043 887.429 57.8866C887.429 53.5939 884.567 50.7322 880.274 50.7322C875.982 50.7322 873.12 53.5939 873.12 57.8866C873.12 78.6344 860.242 95.0896 843.787 95.0896C819.462 95.0896 800.145 117.984 800.145 146.601C800.145 167.349 787.267 183.804 770.812 183.804C746.487 183.804 727.17 206.698 727.17 235.316C727.17 256.064 714.292 272.519 697.837 272.519C693.544 272.519 690.682 275.381 690.682 279.674C690.682 283.966 693.544 286.828 697.837 286.828C721.446 286.828 741.479 263.934 741.479 235.316Z" fill="#2DA2E7" fill-opacity="0.29"/>
<path d="M958.257 145.17C953.964 145.17 951.103 148.032 951.103 152.325C951.103 173.073 938.225 189.528 921.77 189.528C897.445 189.528 878.128 212.422 878.128 241.04C878.128 261.787 865.25 278.243 848.795 278.243C824.47 278.243 805.153 301.137 805.153 329.754C805.153 350.502 792.275 366.957 775.819 366.957C771.527 366.957 768.665 369.819 768.665 374.112C768.665 378.404 771.527 381.266 775.819 381.266C800.144 381.266 819.461 358.372 819.461 329.754C819.461 309.007 832.339 292.551 848.795 292.551C873.12 292.551 892.436 269.657 892.436 241.04C892.436 220.292 905.314 203.837 921.77 203.837C946.095 203.837 965.412 180.942 965.412 152.325C965.412 148.748 962.55 145.17 958.257 145.17Z" fill="#2DA2E7" fill-opacity="0.29"/>
</g>
</svg>
