<svg width="840" height="362" viewBox="0 0 840 362" fill="none" xmlns="http://www.w3.org/2000/svg">
<g opacity="0.3">
<path d="M189.755 199.925C189.755 180.918 201.553 165.844 216.627 165.844C238.91 165.844 256.606 144.871 256.606 118.655C256.606 114.723 253.985 112.101 250.052 112.101C246.12 112.101 243.498 114.723 243.498 118.655C243.498 137.662 231.701 152.736 216.627 152.736C194.343 152.736 176.647 173.709 176.647 199.925C176.647 218.931 164.85 234.005 149.776 234.005C127.492 234.005 109.796 254.978 109.796 281.194C109.796 300.201 97.9993 315.275 82.9251 315.275C78.9927 315.275 76.3711 317.897 76.3711 321.829C76.3711 325.762 78.9927 328.383 82.9251 328.383C105.209 328.383 122.904 307.41 122.904 281.194C122.904 262.188 134.702 247.113 149.776 247.113C171.404 247.769 189.755 226.141 189.755 199.925Z" fill="white" stroke="#2DA2E7" stroke-opacity="0.4"/>
<path d="M114.384 108.824C114.384 89.817 126.181 74.7428 141.256 74.7428C163.539 74.7428 181.235 53.77 181.235 27.554C181.235 23.6216 178.613 21 174.681 21C170.749 21 168.127 23.6216 168.127 27.554C168.127 46.5606 156.33 61.6348 141.256 61.6348C118.972 61.6348 101.276 82.6076 101.276 108.824C101.276 127.83 89.479 142.904 74.4048 142.904C52.1212 142.904 34.4254 163.877 34.4254 190.093C34.4254 209.1 22.6282 224.174 7.554 224.174C3.6216 224.174 1 226.796 1 230.728C1 234.66 3.6216 237.282 7.554 237.282C29.8376 237.282 47.5334 216.309 47.5334 190.093C47.5334 171.087 59.3306 156.012 74.4048 156.012C96.6884 156.012 114.384 135.04 114.384 108.824Z" fill="white" stroke="#2DA2E7" stroke-opacity="0.4"/>
<path d="M110.452 199.925C110.452 180.918 122.249 165.844 137.323 165.844C159.607 165.844 177.302 144.871 177.302 118.655C177.302 99.6485 189.1 84.5743 204.174 84.5743C226.457 84.5743 244.153 63.6015 244.153 37.3855C244.153 33.4531 241.532 30.8315 237.599 30.8315C233.667 30.8315 231.045 33.4531 231.045 37.3855C231.045 56.3921 219.248 71.4664 204.174 71.4664C181.89 71.4664 164.194 92.4391 164.194 118.655C164.194 137.662 152.397 152.736 137.323 152.736C115.039 152.736 97.3436 173.709 97.3436 199.925C97.3436 218.931 85.5464 234.006 70.4722 234.006C66.5398 234.006 63.9182 236.627 63.9182 240.56C63.9182 244.492 66.5398 247.114 70.4722 247.114C92.1004 247.114 110.452 226.141 110.452 199.925Z" fill="white" stroke="#2DA2E7" stroke-opacity="0.4"/>
<path d="M309.037 117.344C305.105 117.344 302.483 119.966 302.483 123.898C302.483 142.905 290.686 157.979 275.612 157.979C253.328 157.979 235.633 178.952 235.633 205.168C235.633 224.174 223.835 239.249 208.761 239.249C186.478 239.249 168.782 260.221 168.782 286.437C168.782 305.444 156.985 320.518 141.91 320.518C137.978 320.518 135.356 323.14 135.356 327.072C135.356 331.005 137.978 333.626 141.91 333.626C164.194 333.626 181.89 312.653 181.89 286.437C181.89 267.431 193.687 252.357 208.761 252.357C231.045 252.357 248.741 231.384 248.741 205.168C248.741 186.161 260.538 171.087 275.612 171.087C297.896 171.087 315.591 150.114 315.591 123.898C315.591 120.621 312.97 117.344 309.037 117.344Z" fill="white" stroke="#2DA2E7" stroke-opacity="0.4"/>
</g>
<g opacity="0.3">
<path d="M538.623 219.227C538.623 199.126 551.099 183.184 567.042 183.184C590.608 183.184 609.323 161.003 609.323 133.278C609.323 129.119 606.55 126.347 602.391 126.347C598.233 126.347 595.46 129.119 595.46 133.278C595.46 153.379 582.984 169.321 567.042 169.321C543.475 169.321 524.76 191.501 524.76 219.227C524.76 239.328 512.284 255.27 496.342 255.27C472.775 255.27 454.06 277.45 454.06 305.176C454.06 325.277 441.584 341.219 425.642 341.219C421.483 341.219 418.71 343.991 418.71 348.15C418.71 352.309 421.483 355.082 425.642 355.082C449.208 355.082 467.923 332.901 467.923 305.176C467.923 285.075 480.4 269.133 496.342 269.133C519.215 269.826 538.623 246.952 538.623 219.227Z" fill="white" stroke="#2DA2E7" stroke-opacity="0.4"/>
<path d="M458.912 122.88C458.912 102.779 471.389 86.8371 487.331 86.8371C510.898 86.8371 529.612 64.6568 529.612 36.9314C529.612 32.7725 526.84 30 522.681 30C518.522 30 515.75 32.7725 515.75 36.9314C515.75 57.0323 503.273 72.9744 487.331 72.9744C463.764 72.9744 445.05 95.1548 445.05 122.88C445.05 142.981 432.573 158.923 416.631 158.923C393.065 158.923 374.35 181.104 374.35 208.829C374.35 228.93 361.873 244.872 345.931 244.872C341.773 244.872 339 247.645 339 251.803C339 255.962 341.773 258.735 345.931 258.735C369.498 258.735 388.213 236.554 388.213 208.829C388.213 188.728 400.689 172.786 416.631 172.786C440.198 172.786 458.912 150.606 458.912 122.88Z" fill="white" stroke="#2DA2E7" stroke-opacity="0.4"/>
<path d="M454.754 219.227C454.754 199.126 467.23 183.183 483.172 183.183C506.739 183.183 525.454 161.003 525.454 133.278C525.454 113.177 537.93 97.2346 553.872 97.2346C577.439 97.2346 596.153 75.0543 596.153 47.3288C596.153 43.17 593.381 40.3975 589.222 40.3975C585.063 40.3975 582.291 43.17 582.291 47.3288C582.291 67.4298 569.814 83.3719 553.872 83.3719C530.305 83.3719 511.591 105.552 511.591 133.278C511.591 153.379 499.114 169.321 483.172 169.321C459.606 169.321 440.891 191.501 440.891 219.227C440.891 239.327 428.414 255.27 412.472 255.27C408.314 255.27 405.541 258.042 405.541 262.201C405.541 266.36 408.314 269.132 412.472 269.132C435.346 269.132 454.754 246.952 454.754 219.227Z" fill="white" stroke="#2DA2E7" stroke-opacity="0.4"/>
<path d="M664.773 131.892C660.614 131.892 657.842 134.664 657.842 138.823C657.842 158.924 645.365 174.866 629.423 174.866C605.857 174.866 587.142 197.046 587.142 224.772C587.142 244.873 574.666 260.815 558.724 260.815C535.157 260.815 516.442 282.995 516.442 310.721C516.442 330.822 503.966 346.764 488.024 346.764C483.865 346.764 481.092 349.536 481.092 353.695C481.092 357.854 483.865 360.626 488.024 360.626C511.59 360.626 530.305 338.446 530.305 310.721C530.305 290.62 542.781 274.678 558.724 274.678C582.29 274.678 601.005 252.497 601.005 224.772C601.005 204.671 613.481 188.729 629.423 188.729C652.99 188.729 671.705 166.548 671.705 138.823C671.705 135.357 668.932 131.892 664.773 131.892Z" fill="white" stroke="#2DA2E7" stroke-opacity="0.4"/>
</g>
<path d="M697.043 59.0733L699.125 62.8856C699.499 63.5714 700.22 64 701 64C701.78 64 702.501 63.5735 702.875 62.8856L704.959 59.0711C706.836 55.6295 709.644 52.8115 713.081 50.9257L716.886 48.8406C717.572 48.4634 718 47.7433 718 46.959C718 46.1768 717.575 45.4546 716.886 45.0796L713.084 42.9924C709.646 41.1044 706.836 38.2885 704.957 34.8426L702.875 31.0302C702.126 29.6566 699.874 29.6566 699.125 31.0302L697.041 34.8447C695.164 38.2864 692.356 41.1044 688.919 42.9924L685.114 45.0796C684.428 45.4546 684 46.1768 684 46.959C684 47.7433 684.425 48.4634 685.114 48.8406L688.916 50.9235C692.356 52.8136 695.164 55.6295 697.043 59.0733ZM690.971 46.7533C695.126 44.4732 698.523 41.0658 700.793 36.9041L701 36.5248L701.205 36.902C703.475 41.0637 706.872 44.471 711.032 46.7533L711.406 46.9612L711.029 47.1669C706.874 49.447 703.477 52.8544 701.207 57.016L701 57.3953L700.795 57.0182C698.525 52.8565 695.128 49.4492 690.968 47.1647L690.594 46.9612L690.971 46.7533Z" fill="#FEF7BA" fill-opacity="0.5"/>
<path d="M699.564 62.646L699.564 62.6462C699.851 63.1718 700.403 63.5 701 63.5C701.597 63.5 702.149 63.1734 702.435 62.6468L702.436 62.6459L704.52 58.8318C706.442 55.3063 709.32 52.4192 712.841 50.4873L712.841 50.4872L716.645 48.4024L699.564 62.646ZM699.564 62.646L697.482 58.8338C695.558 55.3062 692.68 52.4214 689.157 50.4853L689.157 50.485L685.354 48.4021C685.354 48.4021 685.354 48.402 685.354 48.402C684.826 48.1128 684.5 47.5611 684.5 46.959C684.5 46.3593 684.828 45.8055 685.353 45.5184L685.354 45.518L689.159 43.4307L689.159 43.4306C692.68 41.4967 695.558 38.6098 697.48 35.0845C697.48 35.0844 697.48 35.0844 697.48 35.0844C697.48 35.0843 697.48 35.0842 697.48 35.0841L699.564 31.27L699.564 31.2694C699.832 30.7784 700.389 30.5 701 30.5C701.611 30.5 702.168 30.7784 702.436 31.2694L702.436 31.2699L704.518 35.082L699.564 62.646ZM716.647 45.5187L716.646 45.5179L712.843 43.4307L712.843 43.4306C709.322 41.4968 706.443 38.6121 704.518 35.0823L716.647 45.5187ZM716.647 45.5187C717.173 45.8055 717.5 46.3585 717.5 46.959C717.5 47.5602 717.173 48.1124 716.646 48.4021L716.647 45.5187ZM690.729 46.3157L690.73 46.3149C694.802 44.0808 698.129 40.7426 700.354 36.6647L700.354 36.6643L700.561 36.285L701.001 35.4805L701.439 36.2859L701.644 36.6626C703.869 40.7404 707.196 44.0787 711.272 46.3149L711.274 46.3162L711.648 46.5241L712.441 46.9647L711.646 47.3998L711.27 47.6052C711.27 47.6053 711.27 47.6054 711.269 47.6055C707.198 49.8396 703.871 53.1777 701.646 57.2555L701.646 57.2558L701.439 57.6352L700.999 58.4396L700.561 57.6343L700.356 57.2576L690.729 46.3157ZM690.729 46.3157L690.353 46.5235L689.555 46.9645L690.355 47.4003L690.728 47.603M690.729 46.3157L690.728 47.603M690.728 47.603C690.728 47.6032 690.728 47.6033 690.729 47.6035C694.804 49.8418 698.131 53.1798 700.356 57.2571L690.728 47.603Z" stroke="#2DA2E7" stroke-opacity="0.5"/>
<path d="M819.043 264.073L821.125 267.886C821.499 268.571 822.22 269 823 269C823.78 269 824.501 268.574 824.875 267.886L826.959 264.071C828.836 260.63 831.644 257.811 835.081 255.926L838.886 253.841C839.572 253.463 840 252.743 840 251.959C840 251.177 839.575 250.455 838.886 250.08L835.084 247.992C831.646 246.104 828.836 243.289 826.957 239.843L824.875 236.03C824.126 234.657 821.874 234.657 821.125 236.03L819.041 239.845C817.164 243.286 814.356 246.104 810.919 247.992L807.114 250.08C806.428 250.455 806 251.177 806 251.959C806 252.743 806.425 253.463 807.114 253.841L810.916 255.924C814.356 257.814 817.164 260.63 819.043 264.073ZM812.971 251.753C817.126 249.473 820.523 246.066 822.793 241.904L823 241.525L823.205 241.902C825.475 246.064 828.872 249.471 833.032 251.753L833.406 251.961L833.029 252.167C828.874 254.447 825.477 257.854 823.207 262.016L823 262.395L822.795 262.018C820.525 257.856 817.128 254.449 812.968 252.165L812.594 251.961L812.971 251.753Z" fill="#FEF7BA" fill-opacity="0.5"/>
<path d="M821.564 267.646L821.564 267.646C821.851 268.172 822.403 268.5 823 268.5C823.597 268.5 824.149 268.173 824.435 267.647L824.436 267.646L826.52 263.832C828.442 260.306 831.32 257.419 834.841 255.487L834.841 255.487L838.645 253.402L821.564 267.646ZM821.564 267.646L819.482 263.834C817.558 260.306 814.68 257.421 811.157 255.485L811.157 255.485L807.354 253.402C807.354 253.402 807.354 253.402 807.354 253.402C806.826 253.113 806.5 252.561 806.5 251.959C806.5 251.359 806.828 250.806 807.353 250.518L807.354 250.518L811.159 248.431L811.159 248.431C814.68 246.497 817.558 243.61 819.48 240.084C819.48 240.084 819.48 240.084 819.48 240.084C819.48 240.084 819.48 240.084 819.48 240.084L821.564 236.27L821.564 236.269C821.832 235.778 822.389 235.5 823 235.5C823.611 235.5 824.168 235.778 824.436 236.269L824.436 236.27L826.518 240.082L821.564 267.646ZM838.647 250.519L838.646 250.518L834.843 248.431L834.843 248.431C831.322 246.497 828.443 243.612 826.518 240.082L838.647 250.519ZM838.647 250.519C839.173 250.805 839.5 251.359 839.5 251.959C839.5 252.56 839.173 253.112 838.646 253.402L838.647 250.519ZM812.729 251.316L812.73 251.315C816.802 249.081 820.129 245.743 822.354 241.665L822.354 241.664L822.561 241.285L823.001 240.481L823.439 241.286L823.644 241.663C825.869 245.74 829.196 249.079 833.272 251.315L833.274 251.316L833.648 251.524L834.441 251.965L833.646 252.4L833.27 252.605C833.27 252.605 833.27 252.605 833.269 252.605C829.198 254.84 825.871 258.178 823.646 262.255L823.646 262.256L823.439 262.635L822.999 263.44L822.561 262.634L822.356 262.258L812.729 251.316ZM812.729 251.316L812.353 251.524L811.555 251.964L812.355 252.4L812.728 252.603M812.729 251.316L812.728 252.603M812.728 252.603C812.728 252.603 812.728 252.603 812.729 252.603C816.804 254.842 820.131 258.18 822.356 262.257L812.728 252.603Z" stroke="#2DA2E7" stroke-opacity="0.5"/>
<path d="M693.043 328.073L695.125 331.886C695.499 332.571 696.22 333 697 333C697.78 333 698.501 332.574 698.875 331.886L700.959 328.071C702.836 324.63 705.644 321.811 709.081 319.926L712.886 317.841C713.572 317.463 714 316.743 714 315.959C714 315.177 713.575 314.455 712.886 314.08L709.084 311.992C705.646 310.104 702.836 307.289 700.957 303.843L698.875 300.03C698.126 298.657 695.874 298.657 695.125 300.03L693.041 303.845C691.164 307.286 688.356 310.104 684.919 311.992L681.114 314.08C680.428 314.455 680 315.177 680 315.959C680 316.743 680.425 317.463 681.114 317.841L684.916 319.924C688.356 321.814 691.164 324.63 693.043 328.073ZM686.971 315.753C691.126 313.473 694.523 310.066 696.793 305.904L697 305.525L697.205 305.902C699.475 310.064 702.872 313.471 707.032 315.753L707.406 315.961L707.029 316.167C702.874 318.447 699.477 321.854 697.207 326.016L697 326.395L696.795 326.018C694.525 321.856 691.128 318.449 686.968 316.165L686.594 315.961L686.971 315.753Z" fill="#FEF7BA" fill-opacity="0.5"/>
<path d="M695.564 331.646L695.564 331.646C695.851 332.172 696.403 332.5 697 332.5C697.597 332.5 698.149 332.173 698.435 331.647L698.436 331.646L700.52 327.832C702.442 324.306 705.32 321.419 708.841 319.487L708.841 319.487L712.645 317.402L695.564 331.646ZM695.564 331.646L693.482 327.834C691.558 324.306 688.68 321.421 685.157 319.485L685.157 319.485L681.354 317.402C681.354 317.402 681.354 317.402 681.354 317.402C680.826 317.113 680.5 316.561 680.5 315.959C680.5 315.359 680.828 314.806 681.353 314.518L681.354 314.518L685.159 312.431L685.159 312.431C688.68 310.497 691.558 307.61 693.48 304.084C693.48 304.084 693.48 304.084 693.48 304.084C693.48 304.084 693.48 304.084 693.48 304.084L695.564 300.27L695.564 300.269C695.832 299.778 696.389 299.5 697 299.5C697.611 299.5 698.168 299.778 698.436 300.269L698.436 300.27L700.518 304.082L695.564 331.646ZM712.647 314.519L712.646 314.518L708.843 312.431L708.843 312.431C705.322 310.497 702.443 307.612 700.518 304.082L712.647 314.519ZM712.647 314.519C713.173 314.805 713.5 315.359 713.5 315.959C713.5 316.56 713.173 317.112 712.646 317.402L712.647 314.519ZM686.729 315.316L686.73 315.315C690.802 313.081 694.129 309.743 696.354 305.665L696.354 305.664L696.561 305.285L697.001 304.481L697.439 305.286L697.644 305.663C699.869 309.74 703.196 313.079 707.272 315.315L707.274 315.316L707.648 315.524L708.441 315.965L707.646 316.4L707.27 316.605C707.27 316.605 707.27 316.605 707.269 316.605C703.198 318.84 699.871 322.178 697.646 326.255L697.646 326.256L697.439 326.635L696.999 327.44L696.561 326.634L696.356 326.258L686.729 315.316ZM686.729 315.316L686.353 315.524L685.555 315.964L686.355 316.4L686.728 316.603M686.729 315.316L686.728 316.603M686.728 316.603C686.728 316.603 686.728 316.603 686.729 316.603C690.804 318.842 694.131 322.18 696.356 326.257L686.728 316.603Z" stroke="#2DA2E7" stroke-opacity="0.5"/>
<path d="M611.905 339.392L613.008 341.41C613.206 341.773 613.587 342 614 342C614.413 342 614.794 341.774 614.992 341.41L616.096 339.391C617.089 337.569 618.576 336.077 620.396 335.078L622.41 333.974C622.774 333.775 623 333.394 623 332.978C623 332.564 622.775 332.182 622.41 331.983L620.397 330.878C618.578 329.879 617.089 328.388 616.095 326.564L614.992 324.545C614.596 323.818 613.404 323.818 613.008 324.545L611.904 326.565C610.911 328.387 609.424 329.879 607.604 330.878L605.59 331.983C605.226 332.182 605 332.564 605 332.978C605 333.394 605.225 333.775 605.59 333.974L607.603 335.077C609.424 336.078 610.911 337.569 611.905 339.392ZM608.69 332.869C610.89 331.662 612.688 329.858 613.89 327.655L614 327.454L614.109 327.654C615.31 329.857 617.109 331.661 619.311 332.869L619.509 332.979L619.31 333.088C617.11 334.295 615.312 336.099 614.11 338.303L614 338.503L613.891 338.304C612.69 336.101 610.891 334.297 608.689 333.087L608.491 332.979L608.69 332.869Z" fill="#FEF7BA" fill-opacity="0.5"/>
<path d="M613.446 341.17L613.446 341.171C613.557 341.374 613.77 341.5 614 341.5C614.23 341.5 614.443 341.374 614.553 341.171L614.554 341.17L615.657 339.151C616.696 337.245 618.252 335.684 620.156 334.64L620.156 334.64L622.17 333.536C622.17 333.536 622.17 333.536 622.17 333.536C622.374 333.424 622.5 333.21 622.5 332.978C622.5 332.746 622.374 332.533 622.171 332.422L622.17 332.422L620.157 331.317L620.156 331.317C618.253 330.271 616.696 328.711 615.656 326.803L614.554 324.785L614.553 324.785C614.462 324.617 614.258 324.5 614 324.5C613.742 324.5 613.538 324.617 613.447 324.785L613.446 324.785L612.343 326.804L613.446 341.17ZM613.446 341.17L612.344 339.152C612.344 339.152 612.344 339.152 612.344 339.152C611.304 337.245 609.748 335.686 607.844 334.639L607.843 334.639L605.83 333.536C605.626 333.424 605.5 333.211 605.5 332.978C605.5 332.747 605.627 332.533 605.829 332.422L605.83 332.422L607.844 331.317L607.845 331.317M613.446 341.17L607.845 331.317M607.845 331.317C609.748 330.271 611.304 328.71 612.343 326.805L607.845 331.317ZM608.448 332.432L608.45 332.431C610.566 331.27 612.295 329.535 613.451 327.416L613.451 327.415L613.561 327.215L614.001 326.41L614.439 327.215L614.548 327.415C614.548 327.415 614.548 327.415 614.548 327.415C615.704 329.534 617.433 331.269 619.551 332.431L619.554 332.432L619.554 332.432L619.752 332.542L620.545 332.983L619.749 333.418L619.55 333.527C619.55 333.527 619.55 333.527 619.55 333.527C617.434 334.688 615.705 336.423 614.549 338.542L614.549 338.542L614.439 338.743L613.999 339.548L613.561 338.742L613.452 338.543L608.448 332.432ZM608.448 332.432L608.249 332.542L607.451 332.983L608.252 333.419L608.448 333.525M608.448 332.432L608.448 333.525M608.448 333.525C608.449 333.526 608.449 333.526 608.449 333.526C610.567 334.689 612.296 336.424 613.452 338.543L608.448 333.525Z" stroke="#2DA2E7" stroke-opacity="0.5"/>
<path d="M261.043 353.073L263.125 356.886C263.499 357.571 264.22 358 265 358C265.78 358 266.501 357.574 266.875 356.886L268.959 353.071C270.836 349.63 273.644 346.811 277.081 344.926L280.886 342.841C281.572 342.463 282 341.743 282 340.959C282 340.177 281.575 339.455 280.886 339.08L277.084 336.992C273.646 335.104 270.836 332.289 268.957 328.843L266.875 325.03C266.126 323.657 263.874 323.657 263.125 325.03L261.041 328.845C259.164 332.286 256.356 335.104 252.919 336.992L249.114 339.08C248.428 339.455 248 340.177 248 340.959C248 341.743 248.425 342.463 249.114 342.841L252.916 344.924C256.356 346.814 259.164 349.63 261.043 353.073ZM254.971 340.753C259.126 338.473 262.523 335.066 264.793 330.904L265 330.525L265.205 330.902C267.475 335.064 270.872 338.471 275.032 340.753L275.406 340.961L275.029 341.167C270.874 343.447 267.477 346.854 265.207 351.016L265 351.395L264.795 351.018C262.525 346.856 259.128 343.449 254.968 341.165L254.594 340.961L254.971 340.753Z" fill="#FEF7BA" fill-opacity="0.5"/>
<path d="M263.564 356.646L263.564 356.646C263.851 357.172 264.403 357.5 265 357.5C265.597 357.5 266.149 357.173 266.435 356.647L266.436 356.646L268.52 352.832C270.442 349.306 273.32 346.419 276.841 344.487L276.841 344.487L280.645 342.402L263.564 356.646ZM263.564 356.646L261.482 352.834C259.558 349.306 256.68 346.421 253.157 344.485L253.157 344.485L249.354 342.402C249.354 342.402 249.354 342.402 249.354 342.402C248.826 342.113 248.5 341.561 248.5 340.959C248.5 340.359 248.828 339.806 249.353 339.518L249.354 339.518L253.159 337.431L253.159 337.431C256.68 335.497 259.558 332.61 261.48 329.084C261.48 329.084 261.48 329.084 261.48 329.084C261.48 329.084 261.48 329.084 261.48 329.084L263.564 325.27L263.564 325.269C263.832 324.778 264.389 324.5 265 324.5C265.611 324.5 266.168 324.778 266.436 325.269L266.436 325.27L268.518 329.082L263.564 356.646ZM280.647 339.519L280.646 339.518L276.843 337.431L276.843 337.431C273.322 335.497 270.443 332.612 268.518 329.082L280.647 339.519ZM280.647 339.519C281.173 339.805 281.5 340.359 281.5 340.959C281.5 341.56 281.173 342.112 280.646 342.402L280.647 339.519ZM254.729 340.316L254.73 340.315C258.802 338.081 262.129 334.743 264.354 330.665L264.354 330.664L264.561 330.285L265.001 329.481L265.439 330.286L265.644 330.663C267.869 334.74 271.196 338.079 275.272 340.315L275.274 340.316L275.648 340.524L276.441 340.965L275.646 341.4L275.27 341.605C275.27 341.605 275.27 341.605 275.269 341.605C271.198 343.84 267.871 347.178 265.646 351.255L265.646 351.256L265.439 351.635L264.999 352.44L264.561 351.634L264.356 351.258L254.729 340.316ZM254.729 340.316L254.353 340.524L253.555 340.964L254.355 341.4L254.728 341.603M254.729 340.316L254.728 341.603M254.728 341.603C254.728 341.603 254.728 341.603 254.729 341.603C258.804 343.842 262.131 347.18 264.356 351.257L254.728 341.603Z" stroke="#2DA2E7" stroke-opacity="0.5"/>
<path d="M423.043 29.0733L425.125 32.8856C425.499 33.5714 426.22 34 427 34C427.78 34 428.501 33.5735 428.875 32.8856L430.959 29.0711C432.836 25.6295 435.644 22.8115 439.081 20.9257L442.886 18.8406C443.572 18.4634 444 17.7433 444 16.959C444 16.1768 443.575 15.4546 442.886 15.0796L439.084 12.9924C435.646 11.1044 432.836 8.28851 430.957 4.8426L428.875 1.03024C428.126 -0.343413 425.874 -0.343413 425.125 1.03024L423.041 4.84475C421.164 8.28637 418.356 11.1044 414.919 12.9924L411.114 15.0796C410.428 15.4546 410 16.1768 410 16.959C410 17.7433 410.425 18.4634 411.114 18.8406L414.916 20.9235C418.356 22.8136 421.164 25.6295 423.043 29.0733ZM416.971 16.7533C421.126 14.4732 424.523 11.0658 426.793 6.90415L427 6.52484L427.205 6.90201C429.475 11.0637 432.872 14.471 437.032 16.7533L437.406 16.9612L437.029 17.1669C432.874 19.447 429.477 22.8544 427.207 27.016L427 27.3953L426.795 27.0182C424.525 22.8565 421.128 19.4492 416.968 17.1647L416.594 16.9612L416.971 16.7533Z" fill="#FEF7BA" fill-opacity="0.5"/>
<path d="M425.564 32.646L425.564 32.6462C425.851 33.1718 426.403 33.5 427 33.5C427.597 33.5 428.149 33.1734 428.435 32.6468L428.436 32.6459L430.52 28.8318C432.442 25.3063 435.32 22.4192 438.841 20.4873L438.841 20.4872L442.645 18.4024L425.564 32.646ZM425.564 32.646L423.482 28.8338C421.558 25.3062 418.68 22.4214 415.157 20.4853L415.157 20.485L411.354 18.4021C411.354 18.4021 411.354 18.402 411.354 18.402C410.826 18.1128 410.5 17.5611 410.5 16.959C410.5 16.3593 410.828 15.8055 411.353 15.5184L411.354 15.518L415.159 13.4307L415.159 13.4306C418.68 11.4967 421.558 8.60979 423.48 5.08448C423.48 5.08444 423.48 5.08439 423.48 5.08435C423.48 5.08428 423.48 5.0842 423.48 5.08413L425.564 1.26997L425.564 1.26939C425.832 0.77838 426.389 0.5 427 0.5C427.611 0.5 428.168 0.77838 428.436 1.26939L428.436 1.26989L430.518 5.08196L425.564 32.646ZM442.647 15.5187L442.646 15.5179L438.843 13.4307L438.843 13.4306C435.322 11.4968 432.443 8.61208 430.518 5.08225L442.647 15.5187ZM442.647 15.5187C443.173 15.8055 443.5 16.3585 443.5 16.959C443.5 17.5602 443.173 18.1124 442.646 18.4021L442.647 15.5187ZM416.729 16.3157L416.73 16.3149C420.802 14.0808 424.129 10.7426 426.354 6.66472L426.354 6.66432L426.561 6.28502L427.001 5.48052L427.439 6.28589L427.644 6.66257C429.869 10.7404 433.196 14.0787 437.272 16.3149L437.274 16.3162L437.648 16.5241L438.441 16.9647L437.646 17.3998L437.27 17.6052C437.27 17.6053 437.27 17.6054 437.269 17.6055C433.198 19.8396 429.871 23.1777 427.646 27.2555L427.646 27.2558L427.439 27.6352L426.999 28.4396L426.561 27.6343L426.356 27.2576L416.729 16.3157ZM416.729 16.3157L416.353 16.5235L415.555 16.9645L416.355 17.4003L416.728 17.603M416.729 16.3157L416.728 17.603M416.728 17.603C416.728 17.6032 416.728 17.6033 416.729 17.6035C420.804 19.8418 424.131 23.1798 426.356 27.2571L416.728 17.603Z" stroke="#2DA2E7" stroke-opacity="0.5"/>
<path d="M40.0434 59.0733L42.1254 62.8856C42.4994 63.5714 43.2198 64 44 64C44.7802 64 45.5006 63.5735 45.8746 62.8856L47.9588 59.0711C49.8355 55.6295 52.6443 52.8115 56.0815 50.9257L59.8863 48.8406C60.5725 48.4634 61 47.7433 61 46.959C61 46.1768 60.5746 45.4546 59.8863 45.0796L56.0836 42.9924C52.6464 41.1044 49.8355 38.2885 47.9566 34.8426L45.8746 31.0302C45.1265 29.6566 42.8735 29.6566 42.1254 31.0302L40.0412 34.8447C38.1645 38.2864 35.3557 41.1044 31.9185 42.9924L28.1137 45.0796C27.4275 45.4546 27 46.1768 27 46.959C27 47.7433 27.4254 48.4634 28.1137 48.8406L31.9164 50.9235C35.3557 52.8136 38.1645 55.6295 40.0434 59.0733ZM33.9706 46.7533C38.126 44.4732 41.5226 41.0658 43.7927 36.9041L44 36.5248L44.2052 36.902C46.4753 41.0637 49.8719 44.471 54.0316 46.7533L54.4056 46.9612L54.0294 47.1669C49.874 49.447 46.4774 52.8544 44.2073 57.016L44 57.3953L43.7948 57.0182C41.5247 52.8565 38.1281 49.4492 33.9684 47.1647L33.5944 46.9612L33.9706 46.7533Z" fill="#FEF7BA" fill-opacity="0.5"/>
<path d="M42.5642 62.646L42.5643 62.6462C42.851 63.1718 43.4033 63.5 44 63.5C44.5974 63.5 45.149 63.1734 45.4354 62.6468L45.4359 62.6459L47.5198 58.8318C49.4423 55.3063 52.3198 52.4192 55.841 50.4873L55.8412 50.4872L59.6455 48.4024L42.5642 62.646ZM42.5642 62.646L40.4823 58.8338C38.5576 55.3062 35.6801 52.4214 32.1572 50.4853L32.1566 50.485L28.3539 48.4021C28.3539 48.4021 28.3539 48.402 28.3539 48.402C27.8262 48.1128 27.5 47.5611 27.5 46.959C27.5 46.3593 27.8281 45.8055 28.3535 45.5184L28.3541 45.518L32.159 43.4307L32.1592 43.4306C35.6801 41.4967 38.5575 38.6098 40.48 35.0845C40.48 35.0844 40.4801 35.0844 40.4801 35.0844C40.4801 35.0843 40.4802 35.0842 40.4802 35.0841L42.5641 31.27L42.5645 31.2694C42.8319 30.7784 43.3891 30.5 44 30.5C44.6109 30.5 45.1681 30.7784 45.4355 31.2694L45.4358 31.2699L47.5176 35.082L42.5642 62.646ZM59.6471 45.5187L59.6457 45.5179L55.843 43.4307L55.8429 43.4306C52.3222 41.4968 49.4425 38.6121 47.5178 35.0823L59.6471 45.5187ZM59.6471 45.5187C60.1735 45.8055 60.5 46.3585 60.5 46.959C60.5 47.5602 60.1725 48.1124 59.646 48.4021L59.6471 45.5187ZM33.7288 46.3157L33.73 46.3149C37.8016 44.0808 41.1293 40.7426 43.3537 36.6647L43.3539 36.6643L43.5613 36.285L44.001 35.4805L44.4392 36.2859L44.6441 36.6626C46.8685 40.7404 50.1963 44.0787 54.2721 46.3149L54.2744 46.3162L54.6485 46.5241L55.4413 46.9647L54.6455 47.3998L54.2699 47.6052C54.2698 47.6053 54.2696 47.6054 54.2695 47.6055C50.1982 49.8396 46.8706 53.1777 44.6463 57.2555L44.6461 57.2558L44.4387 57.6352L43.999 58.4396L43.5608 57.6343L43.3559 57.2576L33.7288 46.3157ZM33.7288 46.3157L33.3526 46.5235L32.5545 46.9645L33.3554 47.4003L33.7278 47.603M33.7288 46.3157L33.7278 47.603M33.7278 47.603C33.728 47.6032 33.7283 47.6033 33.7286 47.6035C37.804 49.8418 41.1314 53.1798 43.3556 57.2571L33.7278 47.603Z" stroke="#2DA2E7" stroke-opacity="0.5"/>
<path d="M724.905 250.392L726.008 252.41C726.206 252.773 726.587 253 727 253C727.413 253 727.794 252.774 727.992 252.41L729.096 250.391C730.089 248.569 731.576 247.077 733.396 246.078L735.41 244.974C735.774 244.775 736 244.394 736 243.978C736 243.564 735.775 243.182 735.41 242.983L733.397 241.878C731.578 240.879 730.089 239.388 729.095 237.564L727.992 235.545C727.596 234.818 726.404 234.818 726.008 235.545L724.904 237.565C723.911 239.387 722.424 240.879 720.604 241.878L718.59 242.983C718.226 243.182 718 243.564 718 243.978C718 244.394 718.225 244.775 718.59 244.974L720.603 246.077C722.424 247.078 723.911 248.569 724.905 250.392ZM721.69 243.869C723.89 242.662 725.688 240.858 726.89 238.655L727 238.454L727.109 238.654C728.31 240.857 730.109 242.661 732.311 243.869L732.509 243.979L732.31 244.088C730.11 245.295 728.312 247.099 727.11 249.303L727 249.503L726.891 249.304C725.69 247.101 723.891 245.297 721.689 244.087L721.491 243.979L721.69 243.869Z" fill="#FEF7BA" fill-opacity="0.5"/>
<path d="M726.446 252.17L726.446 252.171C726.557 252.374 726.77 252.5 727 252.5C727.23 252.5 727.443 252.374 727.553 252.171L727.554 252.17L728.657 250.151C729.696 248.245 731.252 246.684 733.156 245.64L733.156 245.64L735.17 244.536C735.17 244.536 735.17 244.536 735.17 244.536C735.374 244.424 735.5 244.21 735.5 243.978C735.5 243.746 735.374 243.533 735.171 243.422L735.17 243.422L733.157 242.317L733.156 242.317C731.253 241.271 729.696 239.711 728.656 237.803L727.554 235.785L727.553 235.785C727.462 235.617 727.258 235.5 727 235.5C726.742 235.5 726.538 235.617 726.447 235.785L726.446 235.785L725.343 237.804L726.446 252.17ZM726.446 252.17L725.344 250.152C725.344 250.152 725.344 250.152 725.344 250.152C724.304 248.245 722.748 246.686 720.844 245.639L720.843 245.639L718.83 244.536C718.626 244.424 718.5 244.211 718.5 243.978C718.5 243.747 718.627 243.533 718.829 243.422L718.83 243.422L720.844 242.317L720.845 242.317M726.446 252.17L720.845 242.317M720.845 242.317C722.748 241.271 724.304 239.71 725.343 237.805L720.845 242.317ZM721.448 243.432L721.45 243.431C723.566 242.27 725.295 240.535 726.451 238.416L726.451 238.415L726.561 238.215L727.001 237.41L727.439 238.215L727.548 238.415C727.548 238.415 727.548 238.415 727.548 238.415C728.704 240.534 730.433 242.269 732.551 243.431L732.554 243.432L732.554 243.432L732.752 243.542L733.545 243.983L732.749 244.418L732.55 244.527C732.55 244.527 732.55 244.527 732.55 244.527C730.434 245.688 728.705 247.423 727.549 249.542L727.549 249.542L727.439 249.743L726.999 250.548L726.561 249.742L726.452 249.543L721.448 243.432ZM721.448 243.432L721.249 243.542L720.451 243.983L721.252 244.419L721.448 244.525M721.448 243.432L721.448 244.525M721.448 244.525C721.449 244.526 721.449 244.526 721.449 244.526C723.567 245.689 725.296 247.424 726.452 249.543L721.448 244.525Z" stroke="#2DA2E7" stroke-opacity="0.5"/>
<path d="M724.905 250.392L726.008 252.41C726.206 252.773 726.587 253 727 253C727.413 253 727.794 252.774 727.992 252.41L729.096 250.391C730.089 248.569 731.576 247.077 733.396 246.078L735.41 244.974C735.774 244.775 736 244.394 736 243.978C736 243.564 735.775 243.182 735.41 242.983L733.397 241.878C731.578 240.879 730.089 239.388 729.095 237.564L727.992 235.545C727.596 234.818 726.404 234.818 726.008 235.545L724.904 237.565C723.911 239.387 722.424 240.879 720.604 241.878L718.59 242.983C718.226 243.182 718 243.564 718 243.978C718 244.394 718.225 244.775 718.59 244.974L720.603 246.077C722.424 247.078 723.911 248.569 724.905 250.392ZM721.69 243.869C723.89 242.662 725.688 240.858 726.89 238.655L727 238.454L727.109 238.654C728.31 240.857 730.109 242.661 732.311 243.869L732.509 243.979L732.31 244.088C730.11 245.295 728.312 247.099 727.11 249.303L727 249.503L726.891 249.304C725.69 247.101 723.891 245.297 721.689 244.087L721.491 243.979L721.69 243.869Z" fill="#FEF7BA" fill-opacity="0.5"/>
<path d="M726.446 252.17L726.446 252.171C726.557 252.374 726.77 252.5 727 252.5C727.23 252.5 727.443 252.374 727.553 252.171L727.554 252.17L728.657 250.151C729.696 248.245 731.252 246.684 733.156 245.64L733.156 245.64L735.17 244.536C735.17 244.536 735.17 244.536 735.17 244.536C735.374 244.424 735.5 244.21 735.5 243.978C735.5 243.746 735.374 243.533 735.171 243.422L735.17 243.422L733.157 242.317L733.156 242.317C731.253 241.271 729.696 239.711 728.656 237.803L727.554 235.785L727.553 235.785C727.462 235.617 727.258 235.5 727 235.5C726.742 235.5 726.538 235.617 726.447 235.785L726.446 235.785L725.343 237.804L726.446 252.17ZM726.446 252.17L725.344 250.152C725.344 250.152 725.344 250.152 725.344 250.152C724.304 248.245 722.748 246.686 720.844 245.639L720.843 245.639L718.83 244.536C718.626 244.424 718.5 244.211 718.5 243.978C718.5 243.747 718.627 243.533 718.829 243.422L718.83 243.422L720.844 242.317L720.845 242.317M726.446 252.17L720.845 242.317M720.845 242.317C722.748 241.271 724.304 239.71 725.343 237.805L720.845 242.317ZM721.448 243.432L721.45 243.431C723.566 242.27 725.295 240.535 726.451 238.416L726.451 238.415L726.561 238.215L727.001 237.41L727.439 238.215L727.548 238.415C727.548 238.415 727.548 238.415 727.548 238.415C728.704 240.534 730.433 242.269 732.551 243.431L732.554 243.432L732.554 243.432L732.752 243.542L733.545 243.983L732.749 244.418L732.55 244.527C732.55 244.527 732.55 244.527 732.55 244.527C730.434 245.688 728.705 247.423 727.549 249.542L727.549 249.542L727.439 249.743L726.999 250.548L726.561 249.742L726.452 249.543L721.448 243.432ZM721.448 243.432L721.249 243.542L720.451 243.983L721.252 244.419L721.448 244.525M721.448 243.432L721.448 244.525M721.448 244.525C721.449 244.526 721.449 244.526 721.449 244.526C723.567 245.689 725.296 247.424 726.452 249.543L721.448 244.525Z" stroke="#2DA2E7" stroke-opacity="0.5"/>
<path d="M389.905 314.392L391.008 316.41C391.206 316.773 391.587 317 392 317C392.413 317 392.794 316.774 392.992 316.41L394.096 314.391C395.089 312.569 396.576 311.077 398.396 310.078L400.41 308.974C400.774 308.775 401 308.394 401 307.978C401 307.564 400.775 307.182 400.41 306.983L398.397 305.878C396.578 304.879 395.089 303.388 394.095 301.564L392.992 299.545C392.596 298.818 391.404 298.818 391.008 299.545L389.904 301.565C388.911 303.387 387.424 304.879 385.604 305.878L383.59 306.983C383.226 307.182 383 307.564 383 307.978C383 308.394 383.225 308.775 383.59 308.974L385.603 310.077C387.424 311.078 388.911 312.569 389.905 314.392ZM386.69 307.869C388.89 306.662 390.688 304.858 391.89 302.655L392 302.454L392.109 302.654C393.31 304.857 395.109 306.661 397.311 307.869L397.509 307.979L397.31 308.088C395.11 309.295 393.312 311.099 392.11 313.303L392 313.503L391.891 313.304C390.69 311.101 388.891 309.297 386.689 308.087L386.491 307.979L386.69 307.869Z" fill="#FEF7BA" fill-opacity="0.5"/>
<path d="M391.446 316.17L391.446 316.171C391.557 316.374 391.77 316.5 392 316.5C392.23 316.5 392.443 316.374 392.553 316.171L392.554 316.17L393.657 314.151C394.696 312.245 396.252 310.684 398.156 309.64L398.156 309.64L400.17 308.536C400.17 308.536 400.17 308.536 400.17 308.536C400.374 308.424 400.5 308.21 400.5 307.978C400.5 307.746 400.374 307.533 400.171 307.422L400.17 307.422L398.157 306.317L398.156 306.317C396.253 305.271 394.696 303.711 393.656 301.803L392.554 299.785L392.553 299.785C392.462 299.617 392.258 299.5 392 299.5C391.742 299.5 391.538 299.617 391.447 299.785L391.446 299.785L390.343 301.804L391.446 316.17ZM391.446 316.17L390.344 314.152C390.344 314.152 390.344 314.152 390.344 314.152C389.304 312.245 387.748 310.686 385.844 309.639L385.843 309.639L383.83 308.536C383.626 308.424 383.5 308.211 383.5 307.978C383.5 307.747 383.627 307.533 383.829 307.422L383.83 307.422L385.844 306.317L385.845 306.317M391.446 316.17L385.845 306.317M385.845 306.317C387.748 305.271 389.304 303.71 390.343 301.805L385.845 306.317ZM386.448 307.432L386.45 307.431C388.566 306.27 390.295 304.535 391.451 302.416L391.451 302.415L391.561 302.215L392.001 301.41L392.439 302.215L392.548 302.415C392.548 302.415 392.548 302.415 392.548 302.415C393.704 304.534 395.433 306.269 397.551 307.431L397.554 307.432L397.554 307.432L397.752 307.542L398.545 307.983L397.749 308.418L397.55 308.527C397.55 308.527 397.55 308.527 397.55 308.527C395.434 309.688 393.705 311.423 392.549 313.542L392.549 313.542L392.439 313.743L391.999 314.548L391.561 313.742L391.452 313.543L386.448 307.432ZM386.448 307.432L386.249 307.542L385.451 307.983L386.252 308.419L386.448 308.525M386.448 307.432L386.448 308.525M386.448 308.525C386.449 308.526 386.449 308.526 386.449 308.526C388.567 309.689 390.296 311.424 391.452 313.543L386.448 308.525Z" stroke="#2DA2E7" stroke-opacity="0.5"/>
<path d="M820.905 85.3917L822.008 87.41C822.206 87.7731 822.587 88 823 88C823.413 88 823.794 87.7742 823.992 87.41L825.096 85.3906C826.089 83.5686 827.576 82.0767 829.396 81.0783L831.41 79.9744C831.774 79.7747 832 79.3935 832 78.9783C832 78.5642 831.775 78.1819 831.41 77.9833L829.397 76.8783C827.578 75.8788 826.089 74.388 825.095 72.5637L823.992 70.5454C823.596 69.8182 822.404 69.8182 822.008 70.5454L820.904 72.5649C819.911 74.3869 818.424 75.8788 816.604 76.8783L814.59 77.9833C814.226 78.1819 814 78.5642 814 78.9783C814 79.3935 814.225 79.7747 814.59 79.9744L816.603 81.0772C818.424 82.0778 819.911 83.5686 820.905 85.3917ZM817.69 78.8694C819.89 77.6623 821.688 75.8584 822.89 73.6551L823 73.4543L823.109 73.654C824.31 75.8572 826.109 77.6611 828.311 78.8694L828.509 78.9794L828.31 79.0884C826.11 80.2955 824.312 82.0994 823.11 84.3026L823 84.5034L822.891 84.3037C821.69 82.1005 819.891 80.2966 817.689 79.0872L817.491 78.9794L817.69 78.8694Z" fill="#FEF7BA" fill-opacity="0.5"/>
<path d="M822.446 87.1704L822.446 87.1706C822.557 87.3735 822.77 87.5 823 87.5C823.23 87.5 823.443 87.3741 823.553 87.1712L823.554 87.1703L824.657 85.1512C825.696 83.2454 827.252 81.6844 829.156 80.6399L829.156 80.6398L831.17 79.5362C831.17 79.5362 831.17 79.5361 831.17 79.536C831.374 79.4239 831.5 79.2104 831.5 78.9783C831.5 78.7459 831.374 78.5327 831.171 78.4224L831.17 78.4216L829.157 77.3166L829.156 77.3165C827.253 76.2711 825.696 74.7114 824.656 72.8031L823.554 70.7851L823.553 70.7846C823.462 70.6168 823.258 70.5 823 70.5C822.742 70.5 822.538 70.6168 822.447 70.7846L822.446 70.7852L821.343 72.8042L822.446 87.1704ZM822.446 87.1704L821.344 85.1523C821.344 85.1522 821.344 85.1522 821.344 85.1521C820.304 83.2451 818.748 81.6855 816.844 80.639L816.843 80.6386L814.83 79.5359C814.626 79.4242 814.5 79.2113 814.5 78.9783C814.5 78.7466 814.627 78.5328 814.829 78.4221L814.83 78.4217L816.844 77.3167L816.845 77.3165M822.446 87.1704L816.845 77.3165M816.845 77.3165C818.748 76.2711 820.304 74.7103 821.343 72.8046L816.845 77.3165ZM817.448 78.4318L817.45 78.431C819.566 77.27 821.295 75.5351 822.451 73.4157L822.451 73.4153L822.561 73.2145L823.001 72.41L823.439 73.2154L823.548 73.4146C823.548 73.4147 823.548 73.4149 823.548 73.415C824.704 75.5342 826.433 77.2689 828.551 78.431L828.554 78.4323L828.554 78.4323L828.752 78.5424L829.545 78.983L828.749 79.4181L828.55 79.5267C828.55 79.5268 828.55 79.5269 828.55 79.527C826.434 80.6881 824.705 82.4228 823.549 84.542L823.549 84.5424L823.439 84.7432L822.999 85.5477L822.561 84.7424L822.452 84.5432L817.448 78.4318ZM817.448 78.4318L817.249 78.5418L816.451 78.9828L817.252 79.4186L817.448 79.5255M817.448 78.4318L817.448 79.5255M817.448 79.5255C817.449 79.5256 817.449 79.5258 817.449 79.526C819.567 80.6893 821.296 82.4238 822.452 84.5427L817.448 79.5255Z" stroke="#2DA2E7" stroke-opacity="0.5"/>
<path d="M32.9053 298.392L34.0075 300.41C34.2056 300.773 34.5869 301 35 301C35.4131 301 35.7944 300.774 35.9925 300.41L37.0958 298.391C38.0894 296.569 39.5764 295.077 41.3961 294.078L43.4104 292.974C43.7737 292.775 44 292.394 44 291.978C44 291.564 43.7748 291.182 43.4104 290.983L41.3972 289.878C39.5775 288.879 38.0894 287.388 37.0947 285.564L35.9925 283.545C35.5964 282.818 34.4036 282.818 34.0075 283.545L32.9042 285.565C31.9106 287.387 30.4236 288.879 28.6039 289.878L26.5896 290.983C26.2263 291.182 26 291.564 26 291.978C26 292.394 26.2252 292.775 26.5896 292.974L28.6028 294.077C30.4236 295.078 31.9106 296.569 32.9053 298.392ZM29.6903 291.869C31.8902 290.662 33.6884 288.858 34.8902 286.655L35 286.454L35.1086 286.654C36.3104 288.857 38.1086 290.661 40.3108 291.869L40.5089 291.979L40.3097 292.088C38.1098 293.295 36.3116 295.099 35.1098 297.303L35 297.503L34.8914 297.304C33.6896 295.101 31.8914 293.297 29.6892 292.087L29.4911 291.979L29.6903 291.869Z" fill="#FEF7BA" fill-opacity="0.5"/>
<path d="M34.4464 300.17L34.4465 300.171C34.5572 300.374 34.7705 300.5 35 300.5C35.2303 300.5 35.4429 300.374 35.5532 300.171L35.5537 300.17L36.6568 298.151C37.6961 296.245 39.252 294.684 41.1556 293.64L41.1558 293.64L34.4464 300.17ZM34.4464 300.17L33.3442 298.152C32.3038 296.245 30.748 294.686 28.8436 293.639L28.843 293.639L26.8299 292.536C26.8298 292.536 26.8298 292.536 26.8298 292.536C26.626 292.424 26.5 292.211 26.5 291.978C26.5 291.747 26.6269 291.533 26.8294 291.422L26.8301 291.422L28.8444 290.317L28.8446 290.317C30.7481 289.271 32.3039 287.71 33.3432 285.804L34.4463 283.785L34.4466 283.785C34.538 283.617 34.7422 283.5 35 283.5C35.2578 283.5 35.462 283.617 35.5534 283.785L35.5536 283.785L36.6557 285.803L34.4464 300.17ZM29.4498 291.431L29.4485 291.432L29.2493 291.542L28.4513 291.983L29.2521 292.419L29.4485 292.525C29.4488 292.526 29.4491 292.526 29.4495 292.526C31.5673 293.689 33.2963 295.424 34.4522 297.543C34.4522 297.543 34.4523 297.543 34.4524 297.543L34.5608 297.742L34.999 298.548L35.4387 297.743L35.5485 297.542L35.5487 297.542C36.7048 295.423 38.4342 293.688 40.5502 292.527L40.7488 292.418L41.5446 291.983L40.7517 291.542L40.5537 291.432L40.5513 291.431C38.4332 290.269 36.7039 288.534 35.5478 286.415C35.5478 286.415 35.5477 286.415 35.5476 286.415L35.4392 286.215L35.001 285.41L34.5613 286.215L34.4515 286.415L34.4513 286.416C33.2952 288.535 31.5658 290.27 29.4498 291.431Z" stroke="#2DA2E7" stroke-opacity="0.5"/>
<path d="M366.47 65.94C367.501 65.94 368.333 65.107 368.333 64.0765V61.3335H371.077C372.107 61.3335 372.94 60.5005 372.94 59.47C372.94 58.4395 372.107 57.6065 371.077 57.6065H368.333V54.8635C368.333 53.833 367.501 53 366.47 53C365.439 53 364.607 53.833 364.607 54.8635V57.6065H361.863C360.833 57.6065 360 58.4395 360 59.47C360 60.5005 360.833 61.3335 361.863 61.3335H364.607V64.0765C364.607 65.107 365.441 65.94 366.47 65.94Z" fill="#FEF7BA" fill-opacity="0.5"/>
<path d="M368.333 60.8335H367.833V61.3335V64.0765C367.833 64.8309 367.224 65.44 366.47 65.44C365.717 65.44 365.107 64.8306 365.107 64.0765V61.3335V60.8335H364.607H361.863C361.109 60.8335 360.5 60.2244 360.5 59.47C360.5 58.7156 361.109 58.1065 361.863 58.1065H364.607H365.107V57.6065V54.8635C365.107 54.1091 365.716 53.5 366.47 53.5C367.224 53.5 367.833 54.1091 367.833 54.8635V57.6065V58.1065H368.333H371.077C371.831 58.1065 372.44 58.7156 372.44 59.47C372.44 60.2244 371.831 60.8335 371.077 60.8335H368.333Z" stroke="#2DA2E7" stroke-opacity="0.5"/>
<path d="M769.47 170.94C770.501 170.94 771.333 170.107 771.333 169.077V166.333H774.077C775.107 166.333 775.94 165.501 775.94 164.47C775.94 163.439 775.107 162.607 774.077 162.607H771.333V159.863C771.333 158.833 770.501 158 769.47 158C768.439 158 767.607 158.833 767.607 159.863V162.607H764.863C763.833 162.607 763 163.439 763 164.47C763 165.501 763.833 166.333 764.863 166.333H767.607V169.077C767.607 170.107 768.441 170.94 769.47 170.94Z" fill="#FEF7BA" fill-opacity="0.5"/>
<path d="M771.333 165.833H770.833V166.333V169.077C770.833 169.831 770.224 170.44 769.47 170.44C768.717 170.44 768.107 169.831 768.107 169.077V166.333V165.833H767.607H764.863C764.109 165.833 763.5 165.224 763.5 164.47C763.5 163.716 764.109 163.107 764.863 163.107H767.607H768.107V162.607V159.863C768.107 159.109 768.716 158.5 769.47 158.5C770.224 158.5 770.833 159.109 770.833 159.863V162.607V163.107H771.333H774.077C774.831 163.107 775.44 163.716 775.44 164.47C775.44 165.224 774.831 165.833 774.077 165.833H771.333Z" stroke="#2DA2E7" stroke-opacity="0.5"/>
<path d="M782.47 320.94C783.501 320.94 784.333 320.107 784.333 319.077V316.333H787.077C788.107 316.333 788.94 315.501 788.94 314.47C788.94 313.439 788.107 312.607 787.077 312.607H784.333V309.863C784.333 308.833 783.501 308 782.47 308C781.439 308 780.607 308.833 780.607 309.863V312.607H777.863C776.833 312.607 776 313.439 776 314.47C776 315.501 776.833 316.333 777.863 316.333H780.607V319.077C780.607 320.107 781.441 320.94 782.47 320.94Z" fill="#FEF7BA" fill-opacity="0.5"/>
<path d="M784.333 315.833H783.833V316.333V319.077C783.833 319.831 783.224 320.44 782.47 320.44C781.717 320.44 781.107 319.831 781.107 319.077V316.333V315.833H780.607H777.863C777.109 315.833 776.5 315.224 776.5 314.47C776.5 313.716 777.109 313.107 777.863 313.107H780.607H781.107V312.607V309.863C781.107 309.109 781.716 308.5 782.47 308.5C783.224 308.5 783.833 309.109 783.833 309.863V312.607V313.107H784.333H787.077C787.831 313.107 788.44 313.716 788.44 314.47C788.44 315.224 787.831 315.833 787.077 315.833H784.333Z" stroke="#2DA2E7" stroke-opacity="0.5"/>
<path d="M79.47 76.94C80.5005 76.94 81.3335 76.107 81.3335 75.0765V72.3335H84.0765C85.107 72.3335 85.94 71.5005 85.94 70.47C85.94 69.4395 85.107 68.6065 84.0765 68.6065H81.3335V65.8635C81.3335 64.833 80.5005 64 79.47 64C78.4395 64 77.6065 64.833 77.6065 65.8635V68.6065H74.8635C73.833 68.6065 73 69.4395 73 70.47C73 71.5005 73.833 72.3335 74.8635 72.3335H77.6065V75.0765C77.6065 76.107 78.4414 76.94 79.47 76.94Z" fill="#FEF7BA" fill-opacity="0.5"/>
<path d="M81.3335 71.8335H80.8335V72.3335V75.0765C80.8335 75.8309 80.2244 76.44 79.47 76.44C78.7172 76.44 78.1065 75.8306 78.1065 75.0765V72.3335V71.8335H77.6065H74.8635C74.1091 71.8335 73.5 71.2244 73.5 70.47C73.5 69.7156 74.1091 69.1065 74.8635 69.1065H77.6065H78.1065V68.6065V65.8635C78.1065 65.1091 78.7156 64.5 79.47 64.5C80.2244 64.5 80.8335 65.1091 80.8335 65.8635V68.6065V69.1065H81.3335H84.0765C84.8309 69.1065 85.44 69.7156 85.44 70.47C85.44 71.2244 84.8309 71.8335 84.0765 71.8335H81.3335Z" stroke="#2DA2E7" stroke-opacity="0.5"/>
</svg>
