<svg width="906" height="414" viewBox="0 0 906 414" fill="none" xmlns="http://www.w3.org/2000/svg">
<path d="M561.362 147.765L578.832 150.048C581.419 163.29 587.125 175.87 595.557 186.928L584.955 199.842C580.345 205.471 580.966 213.47 586.599 218.625C589.602 221.363 593.613 222.765 597.639 222.765C600.912 222.765 604.2 221.831 606.962 219.941L621.085 210.259C632.783 217.711 646.059 222.839 660.029 225.309L664.04 254.63C665.019 261.735 671.668 267.097 679.501 267.097C687.333 267.097 693.982 261.735 694.961 254.623L698.972 225.316C712.453 222.932 725.319 218.058 736.725 211.013L762.246 229.156C765.066 231.159 768.442 232.14 771.803 232.14C775.822 232.14 779.818 230.738 782.821 227.98C788.374 222.919 788.929 214.826 784.114 209.163L764.255 185.846C772.241 175.055 777.663 162.849 780.169 150.048L797.639 147.765C805.267 146.77 811.017 140.713 811.017 133.428C811.017 126.377 805.259 120.32 797.639 119.332L780.169 117.048C777.582 103.807 771.876 91.2269 763.444 80.1691L774.046 67.255C778.656 61.6259 778.035 53.6264 772.402 48.4714C766.951 43.5101 758.198 42.9358 752.039 47.1559L737.916 56.8382C726.218 49.3862 712.942 44.2579 698.972 41.7873L694.961 12.4667C693.982 5.36197 687.333 0 679.501 0C671.668 0 665.019 5.36197 664.04 12.4734L660.029 41.7806C646.548 44.1644 633.682 49.039 622.276 56.0836L596.755 37.9411C590.566 33.5474 581.696 34.0482 576.187 39.1163C570.634 44.1778 570.079 52.2708 574.894 57.9333L594.746 81.2575C586.76 92.0482 581.338 104.255 578.832 117.055L561.37 119.332C553.742 120.327 547.984 126.383 547.984 133.669C547.984 140.713 553.742 146.77 561.362 147.765ZM594.3 152.065L621.283 155.591L604.931 175.509C600.036 168.251 596.448 160.352 594.3 152.065ZM598.202 209.257C597.807 209.537 597.259 209.491 596.755 209.023C596.404 208.703 596.36 208.209 596.653 207.848L636.911 158.802C643.531 161.574 648.777 166.515 651.626 172.645L598.202 209.257ZM633.572 201.705L654.812 187.148L658.1 211.173C649.442 209.177 641.178 205.992 633.572 201.705ZM700.901 211.187L704.094 187.822L724.421 202.272C717.092 206.279 709.172 209.284 700.901 211.187ZM772.49 218.545C772.139 218.859 771.584 218.886 771.218 218.619L707.185 173.099C710.049 166.615 715.572 161.42 722.579 158.622L772.577 217.363C772.87 217.711 772.84 218.218 772.49 218.545ZM754.684 174.601L738.427 155.497L764.716 152.065C762.655 159.998 759.28 167.59 754.684 174.601ZM764.701 115.032L737.718 111.506L754.07 91.5875C758.966 98.8458 762.553 106.745 764.701 115.032ZM760.799 57.8398C761.194 57.566 761.742 57.6128 762.246 58.0735C762.597 58.394 762.641 58.8882 762.348 59.2487L722.09 108.294C715.47 105.517 710.231 100.582 707.382 94.4588L760.799 57.8398ZM725.429 65.392L704.189 79.9487L700.901 55.9234C709.559 57.9199 717.823 61.1051 725.429 65.392ZM658.1 55.91L654.907 79.2743L634.58 64.8244C641.909 60.8113 649.829 57.8131 658.1 55.91ZM586.511 48.5515C586.855 48.231 587.403 48.2043 587.783 48.4781L651.816 93.998C648.952 100.482 643.429 105.677 636.422 108.475L586.424 49.7334C586.131 49.3862 586.161 48.8787 586.511 48.5515ZM604.317 92.4956L620.574 111.6L594.285 115.032C596.346 107.099 599.721 99.5069 604.317 92.4956ZM563.43 132.56L630.993 123.739C650.509 121.188 665.852 106.926 668.285 89.0501L678.529 14.1428C678.602 13.6954 679.018 13.3548 679.501 13.3548C679.983 13.3548 680.399 13.6954 680.465 14.1294L690.709 89.0434C693.149 106.926 708.493 121.182 728.001 123.733L795.571 132.553C796.046 132.614 796.404 132.994 796.404 133.669C796.404 134.103 796.046 134.483 795.578 134.543L728.008 143.364C708.493 145.915 693.149 160.178 690.716 178.053L680.472 252.961C680.341 253.849 678.675 253.842 678.543 252.967L668.3 178.053C665.859 160.171 650.516 145.915 631.008 143.364L563.438 134.543C562.955 134.483 562.597 134.103 562.597 133.428C562.597 132.994 562.955 132.614 563.43 132.56Z" fill="#E0D6D6" fill-opacity="0.2"/>
<path d="M614.67 313.144L604.134 312.076C601.774 303.809 597.61 296.264 591.94 289.78L618.901 265.14L608.57 255.698L581.616 280.331C574.675 275.257 566.587 271.517 557.753 269.34L555.97 253.047C555.189 245.823 548.613 240.387 540.678 240.387C532.743 240.387 526.167 245.823 525.371 253.047L523.588 269.34C514.755 271.517 506.666 275.257 499.725 280.331L472.772 255.698L462.44 265.14L489.401 289.78C483.731 296.257 479.567 303.809 477.207 312.076L466.664 313.144C458.882 313.946 453 319.955 453 327.267C453 334.432 458.882 340.448 466.685 341.243L477.221 342.311C479.581 350.578 483.746 358.123 489.416 364.607L462.455 389.247L472.786 398.689L499.74 374.056C506.681 379.131 514.769 382.87 523.603 385.047L525.386 401.34C526.167 408.565 532.743 414 540.678 414C548.613 414 555.189 408.565 555.985 401.34L557.768 385.047C566.601 382.87 574.689 379.131 581.631 374.056L608.584 398.689L618.915 389.247L591.955 364.607C597.624 358.13 601.789 350.578 604.149 342.311L614.685 341.243H614.692C622.474 340.442 628.355 334.432 628.355 327.12C628.355 319.955 622.474 313.946 614.67 313.144ZM588.331 310.473L579.599 309.585C569.392 308.557 561.231 301.018 560.208 291.67L559.346 283.77C572.666 288.565 583.194 298.267 588.331 310.473ZM522.01 283.777L521.148 291.676C520.118 301.018 511.964 308.557 501.756 309.592L493.025 310.48C498.162 298.267 508.69 288.565 522.01 283.777ZM493.025 343.914L501.756 344.802C511.964 345.83 520.125 353.369 521.148 362.717L522.01 370.617C508.69 365.822 498.162 356.12 493.025 343.914ZM559.346 370.61L560.208 362.711C561.238 353.369 569.392 345.83 579.599 344.795L588.331 343.907C583.194 356.12 572.666 365.822 559.346 370.61ZM613.048 327.961L577.985 331.521C560.968 333.25 547.378 345.804 545.661 361.382L541.438 400.011C541.365 400.725 539.984 400.725 539.911 400.011L535.688 361.382C533.978 345.804 520.381 333.25 503.364 331.521L468.3 327.961C467.913 327.921 467.613 327.621 467.613 327.12C467.613 326.759 467.913 326.459 468.3 326.426L503.371 322.867C520.388 321.137 533.978 308.584 535.695 293.005L539.918 254.376C539.947 254.016 540.276 253.742 540.678 253.742C541.08 253.742 541.409 254.016 541.438 254.376L545.661 293.005C547.371 308.584 560.968 321.137 577.985 322.867L613.048 326.426C613.443 326.466 613.742 326.766 613.742 327.267C613.742 327.621 613.443 327.921 613.048 327.961Z" fill="#E0D6D6" fill-opacity="0.2"/>
<path d="M892.315 341.243C900.118 340.442 906 334.432 906 327.12C906 319.955 900.118 313.939 892.315 313.144L881.779 312.076C879.419 303.809 875.255 296.264 869.585 289.78L896.546 265.14L886.214 255.698L859.261 280.331C852.32 275.257 844.231 271.517 835.398 269.34L833.615 253.047C832.833 245.823 826.258 240.387 818.323 240.387C810.388 240.387 803.812 245.823 803.016 253.047L801.233 269.34C792.399 271.517 784.311 275.257 777.37 280.331L750.417 255.698L740.085 265.14L767.046 289.78C761.376 296.257 757.212 303.809 754.852 312.076L744.308 313.144C736.527 313.946 730.645 319.955 730.645 327.267C730.645 334.432 736.527 340.448 744.33 341.243L754.866 342.311C757.226 350.578 761.391 358.123 767.061 364.607L740.1 389.247L750.431 398.689L777.385 374.056C784.326 379.131 792.414 382.87 801.248 385.047L803.03 401.34C803.812 408.565 810.388 414 818.323 414C826.258 414 832.833 408.565 833.63 401.34L835.413 385.047C844.246 382.87 852.334 379.131 859.275 374.056L886.229 398.689L896.56 389.247L869.599 364.607C875.269 358.13 879.434 350.578 881.794 342.311L892.315 341.243ZM865.975 310.473L857.244 309.585C847.037 308.557 838.876 301.018 837.853 291.67L836.991 283.77C850.31 288.565 860.839 298.267 865.975 310.473ZM799.655 283.777L798.793 291.676C797.762 301.018 789.608 308.557 779.401 309.592L770.67 310.48C775.806 298.267 786.335 288.565 799.655 283.777ZM770.67 343.914L779.401 344.802C789.608 345.83 797.77 353.369 798.793 362.717L799.655 370.617C786.335 365.822 775.806 356.12 770.67 343.914ZM819.083 400.011C819.01 400.725 817.629 400.725 817.556 400.011L813.332 361.382C811.623 345.804 798.025 333.25 781.009 331.521L745.945 327.961C745.558 327.921 745.258 327.621 745.258 327.12C745.258 326.759 745.558 326.459 745.945 326.426L781.016 322.867C798.033 321.137 811.623 308.584 813.34 293.005L817.563 254.376C817.592 254.016 817.921 253.742 818.323 253.742C818.725 253.742 819.053 254.016 819.083 254.376L823.306 293.005C825.015 308.584 838.613 321.137 855.629 322.867L890.693 326.426C891.088 326.466 891.387 326.766 891.387 327.267C891.387 327.628 891.088 327.928 890.693 327.961L855.629 331.521C838.613 333.25 825.023 345.804 823.306 361.382L819.083 400.011ZM836.991 370.61L837.853 362.711C838.883 353.369 847.037 345.83 857.244 344.795L865.975 343.907C860.839 356.12 850.31 365.822 836.991 370.61Z" fill="#E0D6D6" fill-opacity="0.2"/>
<path d="M686.807 360.581H672.194V373.935H686.807V360.581Z" fill="#E0D6D6" fill-opacity="0.2"/>
<path d="M701.42 373.936H686.807V387.29H701.42V373.936Z" fill="#E0D6D6" fill-opacity="0.2"/>
<path d="M686.807 387.29H672.194V400.645H686.807V387.29Z" fill="#E0D6D6" fill-opacity="0.2"/>
<path d="M672.194 373.936H657.581V387.29H672.194V373.936Z" fill="#E0D6D6" fill-opacity="0.2"/>
<path d="M847.549 173.613H832.936V186.968H847.549V173.613Z" fill="#E0D6D6" fill-opacity="0.2"/>
<path d="M862.162 186.968H847.549V200.323H862.162V186.968Z" fill="#E0D6D6" fill-opacity="0.2"/>
<path d="M847.549 200.323H832.936V213.677H847.549V200.323Z" fill="#E0D6D6" fill-opacity="0.2"/>
<path d="M832.936 186.968H818.323V200.323H832.936V186.968Z" fill="#E0D6D6" fill-opacity="0.2"/>
<path d="M526.065 173.613H511.452V186.968H526.065V173.613Z" fill="#E0D6D6" fill-opacity="0.2"/>
<path d="M540.678 186.968H526.065V200.323H540.678V186.968Z" fill="#E0D6D6" fill-opacity="0.2"/>
<path d="M526.065 200.323H511.452V213.677H526.065V200.323Z" fill="#E0D6D6" fill-opacity="0.2"/>
<path d="M511.452 186.968H496.839V200.323H511.452V186.968Z" fill="#E0D6D6" fill-opacity="0.2"/>
<path d="M496.839 13.3548H482.226V26.7096H496.839V13.3548Z" fill="#E0D6D6" fill-opacity="0.2"/>
<path d="M511.452 26.7097H496.839V40.0645H511.452V26.7097Z" fill="#E0D6D6" fill-opacity="0.2"/>
<path d="M496.839 40.0645H482.226V53.4194H496.839V40.0645Z" fill="#E0D6D6" fill-opacity="0.2"/>
<path d="M482.226 26.7097H467.613V40.0645H482.226V26.7097Z" fill="#E0D6D6" fill-opacity="0.2"/>
<path d="M876.775 13.3548H862.162V26.7096H876.775V13.3548Z" fill="#E0D6D6" fill-opacity="0.2"/>
<path d="M891.388 26.7097H876.775V40.0645H891.388V26.7097Z" fill="#E0D6D6" fill-opacity="0.2"/>
<path d="M876.775 40.0645H862.162V53.4194H876.775V40.0645Z" fill="#E0D6D6" fill-opacity="0.2"/>
<path d="M862.162 26.7097H847.549V40.0645H862.162V26.7097Z" fill="#E0D6D6" fill-opacity="0.2"/>
<path d="M344.638 266.235L327.169 263.952C324.582 250.71 318.876 238.13 310.444 227.072L321.046 214.158C325.656 208.529 325.035 200.53 319.402 195.375C316.399 192.637 312.388 191.235 308.362 191.235C305.089 191.235 301.801 192.169 299.039 194.059L284.916 203.741C273.218 196.289 259.942 191.161 245.972 188.691L241.961 159.37C240.982 152.265 234.333 146.903 226.5 146.903C218.668 146.903 212.019 152.265 211.04 159.377L207.029 188.684C193.548 191.068 180.682 195.942 169.276 202.987L143.755 184.844C140.935 182.841 137.559 181.86 134.198 181.86C130.179 181.86 126.183 183.262 123.18 186.02C117.627 191.081 117.072 199.174 121.887 204.837L141.746 228.154C133.76 238.945 128.338 251.151 125.832 263.952L108.362 266.235C100.734 267.23 94.9843 273.287 94.9843 280.572C94.9843 287.623 100.742 293.68 108.362 294.668L125.832 296.952C128.419 310.193 134.125 322.773 142.557 333.831L131.955 346.745C127.345 352.374 127.966 360.374 133.599 365.529C139.049 370.49 147.803 371.064 153.962 366.844L168.085 357.162C179.783 364.614 193.059 369.742 207.029 372.213L211.04 401.533C212.019 408.638 218.668 414 226.5 414C234.333 414 240.982 408.638 241.961 401.527L245.972 372.219C259.453 369.836 272.319 364.961 283.725 357.916L309.246 376.059C315.435 380.453 324.305 379.952 329.814 374.884C335.367 369.822 335.922 361.729 331.107 356.067L311.255 332.742C319.241 321.952 324.663 309.745 327.169 296.945L344.631 294.668C352.259 293.673 358.017 287.617 358.017 280.331C358.017 273.287 352.259 267.23 344.638 266.235ZM311.701 261.935L284.718 258.409L301.07 238.491C305.965 245.749 309.553 253.648 311.701 261.935ZM307.799 204.743C308.194 204.463 308.742 204.509 309.246 204.977C309.597 205.297 309.641 205.791 309.348 206.152L269.09 255.198C262.47 252.426 257.224 247.485 254.375 241.355L307.799 204.743ZM272.429 212.295L251.189 226.852L247.901 202.827C256.559 204.823 264.823 208.008 272.429 212.295ZM205.1 202.813L201.907 226.178L181.58 211.728C188.909 207.721 196.829 204.716 205.1 202.813ZM133.511 195.455C133.862 195.141 134.417 195.114 134.783 195.381L198.816 240.901C195.952 247.385 190.428 252.58 183.422 255.378L133.424 196.637C133.131 196.289 133.16 195.782 133.511 195.455ZM151.317 239.399L167.574 258.503L141.285 261.935C143.346 254.002 146.721 246.41 151.317 239.399ZM141.3 298.968L168.283 302.494L151.931 322.413C147.035 315.154 143.448 307.255 141.3 298.968ZM145.202 356.16C144.807 356.434 144.259 356.387 143.755 355.926C143.404 355.606 143.36 355.112 143.653 354.751L183.911 305.706C190.531 308.483 195.769 313.418 198.619 319.541L145.202 356.16ZM180.572 348.608L201.812 334.051L205.1 358.077C196.442 356.08 188.178 352.895 180.572 348.608ZM247.901 358.09L251.094 334.726L271.421 349.176C264.092 353.189 256.172 356.187 247.901 358.09ZM319.49 365.448C319.146 365.769 318.598 365.796 318.218 365.522L254.185 320.002C257.049 313.518 262.572 308.323 269.579 305.525L319.577 364.267C319.87 364.614 319.84 365.121 319.49 365.448ZM301.684 321.504L285.427 302.4L311.716 298.968C309.655 306.901 306.28 314.493 301.684 321.504ZM342.571 281.44L275.008 290.261C255.492 292.812 240.149 307.074 237.716 324.95L227.472 399.857C227.399 400.305 226.983 400.645 226.5 400.645C226.018 400.645 225.602 400.305 225.536 399.871L215.292 324.957C212.852 307.074 197.508 292.818 178 290.267L110.43 281.447C109.955 281.386 109.597 281.006 109.597 280.331C109.597 279.897 109.955 279.517 110.423 279.457L177.993 270.636C197.508 268.085 212.852 253.822 215.285 235.947L225.529 161.039C225.66 160.151 227.326 160.158 227.458 161.033L237.701 235.947C240.142 253.829 255.485 268.085 274.993 270.636L342.563 279.457C343.046 279.517 343.404 279.897 343.404 280.572C343.404 281.006 343.046 281.386 342.571 281.44Z" fill="#E0D6D6" fill-opacity="0.2"/>
<path d="M291.33 100.856L301.866 101.924C304.226 110.191 308.391 117.736 314.061 124.22L287.1 148.86L297.431 158.302L324.385 133.669C331.326 138.743 339.414 142.483 348.248 144.66L350.03 160.953C350.812 168.177 357.388 173.613 365.323 173.613C373.258 173.613 379.833 168.177 380.63 160.953L382.413 144.66C391.246 142.483 399.334 138.743 406.275 133.669L433.229 158.302L443.56 148.86L416.599 124.22C422.269 117.743 426.434 110.191 428.794 101.924L439.337 100.856C447.119 100.054 453 94.0448 453 86.733C453 79.5681 447.119 73.5518 439.315 72.7572L428.779 71.6888C426.419 63.4221 422.255 55.8766 416.585 49.3929L443.546 24.7532L433.214 15.3113L406.261 39.9443C399.32 34.8695 391.231 31.1301 382.398 28.9533L380.615 12.6604C379.833 5.43542 373.258 0 365.323 0C357.388 0 350.812 5.43542 350.016 12.6604L348.233 28.9533C339.4 31.1301 331.311 34.8695 324.37 39.9443L297.417 15.3113L287.085 24.7532L314.046 49.3929C308.376 55.87 304.212 63.4221 301.852 71.6888L291.316 72.7572H291.308C283.527 73.5585 277.645 79.5681 277.645 86.8799C277.645 94.0448 283.527 100.054 291.33 100.856ZM317.67 103.527L326.401 104.415C336.608 105.443 344.77 112.982 345.793 122.33L346.655 130.23C333.335 125.435 322.807 115.733 317.67 103.527ZM383.991 130.223L384.853 122.324C385.883 112.982 394.037 105.443 404.244 104.408L412.975 103.52C407.839 115.733 397.31 125.435 383.991 130.223ZM412.975 70.0862L404.244 69.1981C394.037 68.1698 385.876 60.631 384.853 51.2826L383.991 43.3832C397.31 48.1776 407.839 57.8799 412.975 70.0862ZM346.655 43.3899L345.793 51.2893C344.762 60.631 336.608 68.1698 326.401 69.2048L317.67 70.0929C322.807 57.8799 333.335 48.1776 346.655 43.3899ZM292.952 86.0385L328.016 82.4795C345.033 80.75 358.623 68.1965 360.34 52.6181L364.563 13.9892C364.636 13.2747 366.017 13.2747 366.09 13.9892L370.313 52.6181C372.023 68.1965 385.62 80.75 402.637 82.4795L437.701 86.0385C438.088 86.0786 438.387 86.3791 438.387 86.8799C438.387 87.2405 438.088 87.541 437.701 87.5744L402.63 91.1334C385.613 92.8629 372.023 105.416 370.306 120.995L366.083 159.624C366.053 159.984 365.725 160.258 365.323 160.258C364.921 160.258 364.592 159.984 364.563 159.624L360.34 120.995C358.63 105.416 345.033 92.8629 328.016 91.1334L292.952 87.5744C292.558 87.5343 292.258 87.2338 292.258 86.733C292.258 86.3791 292.558 86.0786 292.952 86.0385Z" fill="#E0D6D6" fill-opacity="0.2"/>
<path d="M13.6851 72.7572C5.88179 73.5585 9.15527e-05 79.5681 9.15527e-05 86.8799C9.15527e-05 94.0448 5.88179 100.061 13.6851 100.856L24.221 101.924C26.581 110.191 30.7457 117.736 36.4155 124.22L9.45464 148.86L19.786 158.302L46.7395 133.669C53.6806 138.743 61.7688 142.483 70.6023 144.66L72.3851 160.953C73.1669 168.177 79.7427 173.613 87.6775 173.613C95.6123 173.613 102.188 168.177 102.985 160.953L104.767 144.66C113.601 142.483 121.689 138.743 128.63 133.669L155.584 158.302L165.915 148.86L138.954 124.22C144.624 117.743 148.789 110.191 151.149 101.924L161.692 100.856C169.473 100.054 175.355 94.0448 175.355 86.733C175.355 79.5681 169.473 73.5518 161.67 72.7572L151.134 71.6888C148.774 63.4221 144.609 55.8766 138.94 49.3929L165.9 24.7532L155.569 15.3113L128.616 39.9443C121.674 34.8695 113.586 31.1301 104.753 28.9533L102.97 12.6604C102.188 5.43542 95.6123 0 87.6775 0C79.7427 0 73.1669 5.43542 72.3705 12.6604L70.5877 28.9533C61.7542 31.1301 53.666 34.8695 46.7249 39.9443L19.7714 15.3113L9.44003 24.7532L36.4008 49.3929C30.731 55.87 26.5664 63.4221 24.2064 71.6888L13.6851 72.7572ZM40.0249 103.527L48.7561 104.415C58.9632 105.443 67.1245 112.982 68.1474 122.33L69.0095 130.23C55.6899 125.435 45.1613 115.733 40.0249 103.527ZM106.346 130.223L107.208 122.324C108.238 112.982 116.392 105.443 126.599 104.408L135.33 103.52C130.194 115.733 119.665 125.435 106.346 130.223ZM135.33 70.0862L126.599 69.1981C116.392 68.1698 108.231 60.631 107.208 51.2826L106.346 43.3832C119.665 48.1776 130.194 57.8799 135.33 70.0862ZM86.9177 13.9892C86.9907 13.2747 88.3716 13.2747 88.4447 13.9892L92.6678 52.6181C94.3775 68.1965 107.975 80.75 124.992 82.4795L160.055 86.0385C160.442 86.0786 160.742 86.3791 160.742 86.8799C160.742 87.2405 160.442 87.541 160.055 87.5744L124.984 91.1334C107.968 92.8629 94.3775 105.416 92.6605 120.995L88.4374 159.624C88.4082 159.984 88.0794 160.258 87.6775 160.258C87.2757 160.258 86.9469 159.984 86.9177 159.624L82.6945 120.995C80.9848 105.416 67.3875 92.8629 50.3708 91.1334L15.3071 87.5744C14.9126 87.5343 14.613 87.2338 14.613 86.733C14.613 86.3724 14.9126 86.0719 15.3071 86.0385L50.3708 82.4795C67.3875 80.75 80.9775 68.1965 82.6945 52.6181L86.9177 13.9892ZM69.0095 43.3899L68.1474 51.2893C67.1172 60.631 58.9632 68.1698 48.7561 69.2048L40.0249 70.0929C45.1613 57.8799 55.6899 48.1776 69.0095 43.3899Z" fill="#E0D6D6" fill-opacity="0.2"/>
<path d="M219.193 53.4194H233.806V40.0645H219.193V53.4194Z" fill="#E0D6D6" fill-opacity="0.2"/>
<path d="M204.581 40.0645H219.194V26.7096H204.581V40.0645Z" fill="#E0D6D6" fill-opacity="0.2"/>
<path d="M219.193 26.7097L233.806 26.7097V13.3549L219.193 13.3549V26.7097Z" fill="#E0D6D6" fill-opacity="0.2"/>
<path d="M233.807 40.0645H248.419V26.7096H233.807V40.0645Z" fill="#E0D6D6" fill-opacity="0.2"/>
<path d="M58.4518 240.387H73.0647V227.032H58.4518V240.387Z" fill="#E0D6D6" fill-opacity="0.2"/>
<path d="M43.8385 227.032H58.4514V213.677H43.8385V227.032Z" fill="#E0D6D6" fill-opacity="0.2"/>
<path d="M58.4518 213.677H73.0647V200.323H58.4518V213.677Z" fill="#E0D6D6" fill-opacity="0.2"/>
<path d="M73.0646 227.032H87.6775V213.677H73.0646V227.032Z" fill="#E0D6D6" fill-opacity="0.2"/>
<path d="M379.935 240.387H394.548V227.032H379.935V240.387Z" fill="#E0D6D6" fill-opacity="0.2"/>
<path d="M365.322 227.032H379.935V213.677H365.322V227.032Z" fill="#E0D6D6" fill-opacity="0.2"/>
<path d="M379.935 213.677H394.548V200.323H379.935V213.677Z" fill="#E0D6D6" fill-opacity="0.2"/>
<path d="M394.548 227.032H409.161V213.677H394.548V227.032Z" fill="#E0D6D6" fill-opacity="0.2"/>
<path d="M409.162 400.645H423.774V387.29H409.162V400.645Z" fill="#E0D6D6" fill-opacity="0.2"/>
<path d="M394.548 387.29H409.161V373.936H394.548V387.29Z" fill="#E0D6D6" fill-opacity="0.2"/>
<path d="M409.162 373.935H423.774V360.581H409.162V373.935Z" fill="#E0D6D6" fill-opacity="0.2"/>
<path d="M423.774 387.29H438.387V373.936H423.774V387.29Z" fill="#E0D6D6" fill-opacity="0.2"/>
<path d="M29.2252 400.645H43.8381V387.29H29.2252V400.645Z" fill="#E0D6D6" fill-opacity="0.2"/>
<path d="M14.6129 387.29H29.2258L29.2258 373.936H14.6129L14.6129 387.29Z" fill="#E0D6D6" fill-opacity="0.2"/>
<path d="M29.2252 373.935H43.8381V360.581H29.2252V373.935Z" fill="#E0D6D6" fill-opacity="0.2"/>
<path d="M43.8385 387.29H58.4514V373.936H43.8385V387.29Z" fill="#E0D6D6" fill-opacity="0.2"/>
</svg>
