<svg width="158" height="224" viewBox="0 0 158 224" fill="none" xmlns="http://www.w3.org/2000/svg">
<rect width="158" height="224" rx="5" fill="#FFD300"/>
<mask id="path-2-inside-1" fill="white">
<rect x="9" y="9" width="140" height="207" rx="2"/>
</mask>
<rect x="9" y="9" width="140" height="207" rx="2" fill="white" stroke="#2179B9" stroke-width="14" mask="url(#path-2-inside-1)"/>
<path d="M54.2885 47.288C52.0325 47.288 50.6525 46.244 50.1485 44.156L49.6985 42.302H48.8525V47H44.9105V34.616H50.3645C51.3965 34.616 52.3025 34.772 53.0825 35.084C53.8745 35.384 54.4865 35.81 54.9185 36.362C55.3505 36.914 55.5665 37.55 55.5665 38.27C55.5665 39.074 55.3685 39.752 54.9725 40.304C54.5885 40.844 53.9885 41.288 53.1725 41.636C53.2565 42.092 53.3525 42.506 53.4605 42.878C53.6045 43.334 53.8025 43.652 54.0545 43.832C54.3065 44.012 54.6725 44.102 55.1525 44.102C55.3205 44.102 55.5845 44.078 55.9445 44.03V46.964C55.3805 47.18 54.8285 47.288 54.2885 47.288ZM49.5365 39.782C50.4245 39.782 51.0485 39.686 51.4085 39.494C51.7805 39.29 51.9665 38.948 51.9665 38.468C51.9665 38.06 51.8165 37.766 51.5165 37.586C51.2165 37.394 50.7425 37.298 50.0945 37.298H48.8525V39.782H49.5365ZM63.0228 47.144C62.0148 47.144 61.1148 46.946 60.3228 46.55C59.5428 46.154 58.9308 45.608 58.4868 44.912C58.0548 44.204 57.8388 43.394 57.8388 42.482C57.8388 41.57 58.0608 40.766 58.5048 40.07C58.9488 39.362 59.5608 38.816 60.3408 38.432C61.1328 38.048 62.0328 37.856 63.0408 37.856C64.0608 37.856 64.9608 38.054 65.7408 38.45C66.5328 38.834 67.1448 39.374 67.5768 40.07C68.0088 40.766 68.2248 41.57 68.2248 42.482C68.2248 43.406 68.0028 44.222 67.5588 44.93C67.1268 45.626 66.5148 46.172 65.7228 46.568C64.9428 46.952 64.0428 47.144 63.0228 47.144ZM63.0588 44.444C63.5508 44.444 63.9528 44.264 64.2648 43.904C64.5888 43.532 64.7508 43.058 64.7508 42.482C64.7508 41.906 64.5888 41.438 64.2648 41.078C63.9528 40.706 63.5508 40.52 63.0588 40.52C62.5668 40.52 62.1588 40.706 61.8348 41.078C61.5228 41.438 61.3668 41.906 61.3668 42.482C61.3668 43.058 61.5228 43.532 61.8348 43.904C62.1588 44.264 62.5668 44.444 63.0588 44.444ZM74.5257 47.144C73.4697 47.144 72.6477 46.844 72.0597 46.244C71.4717 45.632 71.1777 44.792 71.1777 43.724V40.214H70.0257V37.982H71.4477L73.1217 34.58H74.9397V37.982H77.0277V40.214H74.9397V43.274C74.9397 43.574 75.0357 43.808 75.2277 43.976C75.4197 44.144 75.6897 44.228 76.0377 44.228C76.3617 44.228 76.6557 44.156 76.9197 44.012L77.0637 46.532C76.7637 46.712 76.3737 46.862 75.8937 46.982C75.4257 47.09 74.9697 47.144 74.5257 47.144ZM83.9722 47.144C82.9762 47.144 82.0882 46.946 81.3082 46.55C80.5402 46.142 79.9402 45.59 79.5082 44.894C79.0762 44.186 78.8602 43.388 78.8602 42.5C78.8602 41.588 79.0822 40.778 79.5262 40.07C79.9702 39.362 80.5702 38.816 81.3262 38.432C82.0822 38.048 82.9222 37.856 83.8462 37.856C84.7342 37.856 85.4902 38.054 86.1142 38.45C86.7502 38.834 87.2242 39.362 87.5362 40.034C87.8482 40.694 88.0042 41.438 88.0042 42.266C88.0042 42.482 87.9922 42.638 87.9682 42.734L82.5682 43.436C82.7122 43.856 82.9462 44.162 83.2702 44.354C83.5942 44.534 84.0202 44.624 84.5482 44.624C85.3642 44.624 86.2462 44.414 87.1942 43.994L87.6442 46.406C86.5282 46.898 85.3042 47.144 83.9722 47.144ZM85.2142 41.168C85.0222 40.412 84.5662 40.034 83.8462 40.034C83.4142 40.034 83.0722 40.196 82.8202 40.52C82.5682 40.844 82.4362 41.264 82.4242 41.78L85.2142 41.168ZM93.5601 47.144C92.5401 47.144 91.7481 46.826 91.1841 46.19C90.6321 45.542 90.3561 44.66 90.3561 43.544V35.138L94.1541 34.58V43.274C94.1541 43.61 94.2321 43.856 94.3881 44.012C94.5561 44.156 94.8441 44.228 95.2521 44.228C95.5521 44.228 95.8461 44.156 96.1341 44.012L96.2601 46.532C95.4561 46.94 94.5561 47.144 93.5601 47.144ZM101.443 47.144C100.423 47.144 99.6308 46.826 99.0668 46.19C98.5148 45.542 98.2388 44.66 98.2388 43.544V35.138L102.037 34.58V43.274C102.037 43.61 102.115 43.856 102.271 44.012C102.439 44.156 102.727 44.228 103.135 44.228C103.435 44.228 103.729 44.156 104.017 44.012L104.143 46.532C103.339 46.94 102.439 47.144 101.443 47.144ZM110.82 47.144C109.824 47.144 108.936 46.946 108.156 46.55C107.388 46.142 106.788 45.59 106.356 44.894C105.924 44.186 105.708 43.388 105.708 42.5C105.708 41.588 105.93 40.778 106.374 40.07C106.818 39.362 107.418 38.816 108.174 38.432C108.93 38.048 109.77 37.856 110.694 37.856C111.582 37.856 112.338 38.054 112.962 38.45C113.598 38.834 114.072 39.362 114.384 40.034C114.696 40.694 114.852 41.438 114.852 42.266C114.852 42.482 114.84 42.638 114.816 42.734L109.416 43.436C109.56 43.856 109.794 44.162 110.118 44.354C110.442 44.534 110.868 44.624 111.396 44.624C112.212 44.624 113.094 44.414 114.042 43.994L114.492 46.406C113.376 46.898 112.152 47.144 110.82 47.144ZM112.062 41.168C111.87 40.412 111.414 40.034 110.694 40.034C110.262 40.034 109.92 40.196 109.668 40.52C109.416 40.844 109.284 41.264 109.272 41.78L112.062 41.168Z" fill="#393A32"/>
<path d="M64.0536 163.072H66.5856V164.296C66.7696 163.824 67.0176 163.476 67.3296 163.252C67.6496 163.02 68.0216 162.904 68.4456 162.904L68.7936 164.86C68.0336 164.86 67.4736 164.944 67.1136 165.112C66.7616 165.272 66.5856 165.528 66.5856 165.88V169H64.0536V163.072ZM72.8411 169.096C72.2091 169.096 71.6451 168.984 71.1491 168.76C70.6611 168.536 70.2811 168.22 70.0091 167.812C69.7371 167.404 69.6011 166.94 69.6011 166.42V162.988H72.0731V166.384C72.0731 166.648 72.1451 166.856 72.2891 167.008C72.4411 167.152 72.6291 167.224 72.8531 167.224C73.0691 167.224 73.2451 167.152 73.3811 167.008C73.5251 166.856 73.5971 166.648 73.5971 166.384V162.988H76.0211V166.42C76.0211 166.948 75.8851 167.416 75.6131 167.824C75.3491 168.224 74.9771 168.536 74.4971 168.76C74.0171 168.984 73.4651 169.096 72.8411 169.096ZM80.5802 169.096C79.9082 169.096 79.3082 168.964 78.7802 168.7C78.2602 168.436 77.8522 168.072 77.5562 167.608C77.2682 167.136 77.1242 166.596 77.1242 165.988C77.1242 165.38 77.2722 164.844 77.5682 164.38C77.8642 163.908 78.2722 163.544 78.7922 163.288C79.3202 163.032 79.9202 162.904 80.5922 162.904C81.2722 162.904 81.8722 163.036 82.3922 163.3C82.9202 163.556 83.3282 163.916 83.6162 164.38C83.9042 164.844 84.0482 165.38 84.0482 165.988C84.0482 166.604 83.9002 167.148 83.6042 167.62C83.3162 168.084 82.9082 168.448 82.3802 168.712C81.8602 168.968 81.2602 169.096 80.5802 169.096ZM80.6042 167.296C80.9322 167.296 81.2002 167.176 81.4082 166.936C81.6242 166.688 81.7322 166.372 81.7322 165.988C81.7322 165.604 81.6242 165.292 81.4082 165.052C81.2002 164.804 80.9322 164.68 80.6042 164.68C80.2762 164.68 80.0042 164.804 79.7882 165.052C79.5802 165.292 79.4762 165.604 79.4762 165.988C79.4762 166.372 79.5802 166.688 79.7882 166.936C80.0042 167.176 80.2762 167.296 80.6042 167.296ZM87.7688 169.096C87.0648 169.096 86.5168 168.896 86.1248 168.496C85.7328 168.088 85.5368 167.528 85.5368 166.816V164.476H84.7688V162.988H85.7168L86.8328 160.72H88.0448V162.988H89.4368V164.476H88.0448V166.516C88.0448 166.716 88.1088 166.872 88.2368 166.984C88.3648 167.096 88.5448 167.152 88.7768 167.152C88.9928 167.152 89.1888 167.104 89.3648 167.008L89.4608 168.688C89.2608 168.808 89.0008 168.908 88.6808 168.988C88.3688 169.06 88.0648 169.096 87.7688 169.096ZM93.5864 169.096C92.9224 169.096 92.3304 168.964 91.8104 168.7C91.2984 168.428 90.8984 168.06 90.6104 167.596C90.3224 167.124 90.1784 166.592 90.1784 166C90.1784 165.392 90.3264 164.852 90.6224 164.38C90.9184 163.908 91.3184 163.544 91.8224 163.288C92.3264 163.032 92.8864 162.904 93.5024 162.904C94.0944 162.904 94.5984 163.036 95.0144 163.3C95.4384 163.556 95.7544 163.908 95.9624 164.356C96.1704 164.796 96.2744 165.292 96.2744 165.844C96.2744 165.988 96.2664 166.092 96.2504 166.156L92.6504 166.624C92.7464 166.904 92.9024 167.108 93.1184 167.236C93.3344 167.356 93.6184 167.416 93.9704 167.416C94.5144 167.416 95.1024 167.276 95.7344 166.996L96.0344 168.604C95.2904 168.932 94.4744 169.096 93.5864 169.096ZM94.4144 165.112C94.2864 164.608 93.9824 164.356 93.5024 164.356C93.2144 164.356 92.9864 164.464 92.8184 164.68C92.6504 164.896 92.5624 165.176 92.5544 165.52L94.4144 165.112Z" fill="#2179B9"/>
<path d="M28.7339 184.672C28.7339 183.752 28.7859 183.092 28.8899 182.692C29.0019 182.284 29.2219 182.004 29.5499 181.852C29.8859 181.7 30.4339 181.624 31.1939 181.624V183.028C30.7859 183.028 30.5179 183.036 30.3899 183.052C30.2619 183.068 30.1779 183.116 30.1379 183.196C30.0979 183.276 30.0779 183.428 30.0779 183.652H31.1939V185.896H28.7339V184.672ZM31.8539 184.672C31.8539 183.752 31.9059 183.092 32.0099 182.692C32.1219 182.284 32.3419 182.004 32.6699 181.852C33.0059 181.7 33.5539 181.624 34.3139 181.624V183.028C33.9059 183.028 33.6379 183.036 33.5099 183.052C33.3819 183.068 33.2979 183.116 33.2579 183.196C33.2179 183.276 33.1979 183.428 33.1979 183.652H34.3139V185.896H31.8539V184.672ZM35.3302 183.988H37.7782L38.4622 187.888L39.2902 183.988H41.3542L42.1942 187.984L42.8782 183.988H44.8462L43.5982 190H40.7302L40.0582 186.82L39.4222 190H36.6502L35.3302 183.988ZM48.5079 190.096C47.9879 190.096 47.4999 189.96 47.0439 189.688C46.5959 189.408 46.2359 189.032 45.9639 188.56C45.6919 188.08 45.5559 187.548 45.5559 186.964C45.5559 186.388 45.6919 185.868 45.9639 185.404C46.2359 184.932 46.5999 184.564 47.0559 184.3C47.5119 184.036 47.9959 183.904 48.5079 183.904C48.9239 183.904 49.3079 184.02 49.6599 184.252C50.0199 184.484 50.2919 184.832 50.4759 185.296V183.904H52.9959V190H50.4759V188.884C50.0759 189.692 49.4199 190.096 48.5079 190.096ZM49.2879 188.2C49.6079 188.2 49.8799 188.088 50.1039 187.864C50.3359 187.632 50.4599 187.36 50.4759 187.048V186.952C50.4599 186.632 50.3319 186.36 50.0919 186.136C49.8599 185.912 49.5919 185.8 49.2879 185.8C48.9519 185.8 48.6639 185.92 48.4239 186.16C48.1919 186.392 48.0759 186.672 48.0759 187C48.0759 187.336 48.1959 187.62 48.4359 187.852C48.6759 188.084 48.9599 188.2 49.2879 188.2ZM57.8474 192.748C57.4074 192.748 56.9874 192.704 56.5874 192.616L56.7794 190.84C57.0914 190.888 57.3794 190.912 57.6434 190.912C58.1394 190.912 58.5154 190.764 58.7714 190.468C59.0274 190.18 59.1794 189.692 59.2274 189.004C58.7554 189.668 58.0354 190 57.0674 190C56.5394 190 56.0514 189.864 55.6034 189.592C55.1634 189.32 54.8114 188.952 54.5474 188.488C54.2914 188.024 54.1634 187.516 54.1634 186.964C54.1634 186.404 54.2914 185.892 54.5474 185.428C54.8034 184.956 55.1514 184.584 55.5914 184.312C56.0394 184.04 56.5274 183.904 57.0554 183.904C57.5434 183.904 57.9674 184.032 58.3274 184.288C58.6954 184.536 58.9354 184.872 59.0474 185.296V183.904H61.5794V188.476C61.5794 189.876 61.2594 190.936 60.6194 191.656C59.9874 192.384 59.0634 192.748 57.8474 192.748ZM57.8474 188.2C58.1674 188.2 58.4434 188.088 58.6754 187.864C58.9074 187.632 59.0314 187.36 59.0474 187.048V186.952C59.0314 186.648 58.9034 186.38 58.6634 186.148C58.4314 185.916 58.1594 185.8 57.8474 185.8C57.5194 185.8 57.2394 185.92 57.0074 186.16C56.7754 186.392 56.6594 186.672 56.6594 187C56.6594 187.328 56.7754 187.612 57.0074 187.852C57.2394 188.084 57.5194 188.2 57.8474 188.2ZM66.1912 190.096C65.5192 190.096 64.9192 189.964 64.3912 189.7C63.8712 189.436 63.4632 189.072 63.1672 188.608C62.8792 188.136 62.7352 187.596 62.7352 186.988C62.7352 186.38 62.8832 185.844 63.1792 185.38C63.4752 184.908 63.8832 184.544 64.4032 184.288C64.9312 184.032 65.5312 183.904 66.2032 183.904C66.8832 183.904 67.4832 184.036 68.0032 184.3C68.5312 184.556 68.9392 184.916 69.2272 185.38C69.5152 185.844 69.6592 186.38 69.6592 186.988C69.6592 187.604 69.5112 188.148 69.2152 188.62C68.9272 189.084 68.5192 189.448 67.9912 189.712C67.4712 189.968 66.8712 190.096 66.1912 190.096ZM66.2152 188.296C66.5432 188.296 66.8112 188.176 67.0192 187.936C67.2352 187.688 67.3432 187.372 67.3432 186.988C67.3432 186.604 67.2352 186.292 67.0192 186.052C66.8112 185.804 66.5432 185.68 66.2152 185.68C65.8872 185.68 65.6152 185.804 65.3992 186.052C65.1912 186.292 65.0872 186.604 65.0872 186.988C65.0872 187.372 65.1912 187.688 65.3992 187.936C65.6152 188.176 65.8872 188.296 66.2152 188.296ZM70.7986 184.072H73.2106V185.296C73.6746 184.368 74.4106 183.904 75.4186 183.904C76.1866 183.904 76.7866 184.18 77.2186 184.732C77.6586 185.276 77.8786 186.032 77.8786 187V190H75.3586V186.748C75.3586 186.404 75.2826 186.14 75.1306 185.956C74.9866 185.772 74.7826 185.68 74.5186 185.68C74.3266 185.68 74.1386 185.744 73.9546 185.872C73.7706 185.992 73.6186 186.168 73.4986 186.4C73.3866 186.632 73.3306 186.896 73.3306 187.192V190H70.7986V184.072ZM81.3952 183.988H83.8432L84.5272 187.888L85.3552 183.988H87.4192L88.2592 187.984L88.9432 183.988H90.9112L89.6632 190H86.7952L86.1232 186.82L85.4872 190H82.7152L81.3952 183.988ZM91.9913 182.092L94.5233 181.72V185.224C94.6993 184.8 94.9633 184.476 95.3153 184.252C95.6753 184.02 96.1073 183.904 96.6113 183.904C97.3793 183.904 97.9793 184.18 98.4113 184.732C98.8513 185.276 99.0713 186.032 99.0713 187V190H96.5513V186.748C96.5513 186.404 96.4753 186.14 96.3233 185.956C96.1793 185.772 95.9753 185.68 95.7113 185.68C95.5193 185.68 95.3313 185.744 95.1473 185.872C94.9633 185.992 94.8113 186.168 94.6913 186.4C94.5793 186.632 94.5233 186.896 94.5233 187.192V190H91.9913V182.092ZM103.578 190.096C102.914 190.096 102.322 189.964 101.802 189.7C101.29 189.428 100.89 189.06 100.602 188.596C100.314 188.124 100.17 187.592 100.17 187C100.17 186.392 100.318 185.852 100.614 185.38C100.91 184.908 101.31 184.544 101.814 184.288C102.318 184.032 102.878 183.904 103.494 183.904C104.086 183.904 104.59 184.036 105.006 184.3C105.43 184.556 105.746 184.908 105.954 185.356C106.162 185.796 106.266 186.292 106.266 186.844C106.266 186.988 106.258 187.092 106.242 187.156L102.642 187.624C102.738 187.904 102.894 188.108 103.11 188.236C103.326 188.356 103.61 188.416 103.962 188.416C104.506 188.416 105.094 188.276 105.726 187.996L106.026 189.604C105.282 189.932 104.466 190.096 103.578 190.096ZM104.406 186.112C104.278 185.608 103.974 185.356 103.494 185.356C103.206 185.356 102.978 185.464 102.81 185.68C102.642 185.896 102.554 186.176 102.546 186.52L104.406 186.112ZM110.485 190.096C109.821 190.096 109.229 189.964 108.709 189.7C108.197 189.428 107.797 189.06 107.509 188.596C107.221 188.124 107.077 187.592 107.077 187C107.077 186.392 107.225 185.852 107.521 185.38C107.817 184.908 108.217 184.544 108.721 184.288C109.225 184.032 109.785 183.904 110.401 183.904C110.993 183.904 111.497 184.036 111.913 184.3C112.337 184.556 112.653 184.908 112.861 185.356C113.069 185.796 113.173 186.292 113.173 186.844C113.173 186.988 113.165 187.092 113.149 187.156L109.549 187.624C109.645 187.904 109.801 188.108 110.017 188.236C110.233 188.356 110.517 188.416 110.869 188.416C111.413 188.416 112.001 188.276 112.633 187.996L112.933 189.604C112.189 189.932 111.373 190.096 110.485 190.096ZM111.313 186.112C111.185 185.608 110.881 185.356 110.401 185.356C110.113 185.356 109.885 185.464 109.717 185.68C109.549 185.896 109.461 186.176 109.453 186.52L111.313 186.112ZM116.397 190.096C115.717 190.096 115.189 189.884 114.813 189.46C114.445 189.028 114.261 188.44 114.261 187.696V182.092L116.793 181.72V187.516C116.793 187.74 116.845 187.904 116.949 188.008C117.061 188.104 117.253 188.152 117.525 188.152C117.725 188.152 117.921 188.104 118.113 188.008L118.197 189.688C117.661 189.96 117.061 190.096 116.397 190.096ZM121.137 190.096C120.297 190.096 119.561 189.972 118.929 189.724L119.205 188.296C119.781 188.504 120.341 188.608 120.885 188.608C121.285 188.608 121.485 188.496 121.485 188.272C121.485 188.16 121.425 188.068 121.305 187.996C121.193 187.924 120.977 187.86 120.657 187.804C119.993 187.676 119.513 187.46 119.217 187.156C118.929 186.852 118.785 186.42 118.785 185.86C118.817 185.228 119.069 184.744 119.541 184.408C120.013 184.072 120.657 183.904 121.473 183.904C121.889 183.904 122.245 183.932 122.541 183.988C122.845 184.036 123.121 184.12 123.369 184.24L123.117 185.668C122.885 185.58 122.629 185.512 122.349 185.464C122.077 185.416 121.849 185.392 121.665 185.392C121.393 185.392 121.205 185.42 121.101 185.476C120.997 185.532 120.945 185.608 120.945 185.704C120.945 185.88 121.145 186.004 121.545 186.076C122.273 186.204 122.817 186.428 123.177 186.748C123.537 187.068 123.717 187.504 123.717 188.056C123.717 188.688 123.493 189.188 123.045 189.556C122.605 189.916 121.969 190.096 121.137 190.096ZM124.69 184.612C125.098 184.612 125.366 184.604 125.494 184.588C125.622 184.572 125.706 184.524 125.746 184.444C125.786 184.364 125.806 184.212 125.806 183.988H124.69V181.744H127.15V182.968C127.15 183.888 127.094 184.552 126.982 184.96C126.878 185.36 126.658 185.636 126.322 185.788C125.994 185.94 125.45 186.016 124.69 186.016V184.612ZM127.81 184.612C128.218 184.612 128.486 184.604 128.614 184.588C128.742 184.572 128.826 184.524 128.866 184.444C128.906 184.364 128.926 184.212 128.926 183.988H127.81V181.744H130.27V182.968C130.27 183.888 130.214 184.552 130.102 184.96C129.998 185.36 129.778 185.636 129.442 185.788C129.114 185.94 128.57 186.016 127.81 186.016V184.612Z" fill="#393A32"/>
<rect x="46" y="59.9014" width="65.45" height="0.897773" fill="#082D74"/>
<rect x="57.7808" y="59" width="13.9627" height="3.1422" fill="#3F8D43"/>
<rect x="71.7454" y="59" width="13.9627" height="3.1422" fill="white"/>
<rect x="85.7046" y="59" width="13.9627" height="3.1422" fill="#D12C29"/>
<path d="M78.6375 80.9355C62.192 80.9355 48.8127 94.3149 48.8127 110.76C48.8127 127.206 62.192 140.585 78.6375 140.585C95.083 140.585 108.462 127.206 108.462 110.76C108.462 94.3149 95.083 80.9355 78.6375 80.9355ZM89.311 109.766C89.0688 107.729 88.2366 105.807 86.9167 104.237L98.6361 93.0501C102.747 97.6731 105.119 103.584 105.344 109.766H89.311ZM78.8203 118.489C77.3429 118.489 75.8986 118.051 74.6702 117.23C73.4418 116.409 72.4844 115.243 71.919 113.878C71.3536 112.513 71.2057 111.011 71.4939 109.562C71.7821 108.113 72.4935 106.782 73.5382 105.737C74.5829 104.692 75.9139 103.981 77.3629 103.693C78.8119 103.404 80.3139 103.552 81.6788 104.118C83.0438 104.683 84.2104 105.64 85.0313 106.869C85.8521 108.097 86.2902 109.542 86.2902 111.019C86.288 112.999 85.5003 114.898 84.0999 116.299C82.6995 117.699 80.8008 118.487 78.8203 118.489V118.489ZM84.5924 102.174C83.318 101.338 81.8769 100.789 80.3691 100.566V84.0908C86.3372 84.4746 92.0022 86.8568 96.4511 90.8535L84.5924 102.174ZM77.2715 100.566C75.4584 100.835 73.747 101.573 72.307 102.707L60.7507 91.5705C60.632 91.4563 60.4958 91.3619 60.3473 91.2908C64.9513 86.9487 70.9511 84.3881 77.2715 84.0677L77.2715 100.566ZM72.648 119.589C74.0141 120.578 75.5983 121.224 77.2667 121.471L77.2139 137.449C71.156 137.13 65.3889 134.751 60.8678 130.706C60.8995 130.68 60.931 130.655 60.9612 130.626L72.648 119.589ZM80.3644 121.473C82.144 121.21 83.8264 120.495 85.2509 119.396L96.0307 130.786C96.0747 130.832 96.1215 130.876 96.1708 130.916C91.7481 134.778 86.1722 137.07 80.3116 137.433L80.3644 121.473ZM58.3139 93.4231C58.3897 93.5631 58.4866 93.6906 58.6013 93.8011L70.1746 104.954C69.2224 106.304 68.6021 107.86 68.3642 109.495L52.5527 109.766C52.3356 109.77 52.1218 109.819 51.9252 109.912C52.1128 103.848 54.3669 98.0302 58.3139 93.4231V93.4231ZM51.9841 112.745C52.1725 112.823 52.3746 112.864 52.5787 112.863C52.5877 112.863 52.5968 112.863 52.6059 112.863L68.3704 112.592C68.6353 114.352 69.3423 116.015 70.4251 117.427L58.8343 128.374C58.7834 128.423 58.7358 128.475 58.692 128.53C54.7758 124.153 52.4174 118.603 51.9841 112.745V112.745ZM98.3728 128.765C98.3437 128.728 98.3133 128.692 98.2804 128.657L87.4066 117.168C88.3274 115.887 88.9483 114.416 89.2233 112.863H105.282C104.817 118.786 102.385 124.384 98.3728 128.765V128.765Z" fill="#1A1A1A"/>
<path d="M116.134 113.315L114.431 109.601L115.89 105.784C115.986 105.533 116.015 105.261 115.974 104.995C115.933 104.729 115.823 104.478 115.656 104.267L113.113 101.068L113.617 97.0136C113.65 96.7465 113.613 96.4754 113.509 96.2269C113.406 95.9785 113.239 95.7613 113.026 95.5968L109.792 93.0995L109.311 89.0419C109.279 88.7746 109.178 88.5203 109.018 88.3038C108.858 88.0874 108.645 87.9164 108.398 87.8077L104.66 86.1569L103.222 82.3325C103.127 82.0806 102.968 81.8578 102.761 81.6859C102.554 81.514 102.306 81.3991 102.041 81.3524L98.0164 80.6441L95.7043 77.2752C95.5517 77.0535 95.3442 76.8754 95.102 76.7581C94.8598 76.6408 94.5914 76.5885 94.3229 76.6062L90.2461 76.8816L87.1949 74.1638C86.9939 73.9847 86.7498 73.8612 86.4865 73.8052C86.2232 73.7493 85.9499 73.7629 85.6935 73.8448L81.8011 75.0879L78.1882 73.1793C77.9502 73.0536 77.6836 72.9921 77.4146 73.0008C77.1456 73.0095 76.8836 73.0881 76.6542 73.2289L73.1723 75.3674L69.2076 74.3787C68.9464 74.3137 68.6728 74.3179 68.4138 74.3907C68.1547 74.4635 67.919 74.6025 67.73 74.794L64.8611 77.7037L60.775 77.6926H60.7708C60.5023 77.6926 60.2385 77.7624 60.0052 77.8951C59.7718 78.0278 59.577 78.2188 59.4397 78.4495L57.3505 81.9612L53.3806 82.9283C53.1191 82.992 52.8787 83.1227 52.6831 83.3076C52.4875 83.4925 52.3435 83.7252 52.2652 83.9827L51.077 87.8924L47.4539 89.7815C47.2152 89.906 47.0131 90.0905 46.8675 90.3168C46.7218 90.5431 46.6377 90.8035 46.6233 91.0723L46.4053 95.1524L43.3395 97.8538C43.1376 98.0317 42.9855 98.2592 42.8982 98.5138C42.811 98.7684 42.7916 99.0414 42.842 99.3058L43.6068 103.32L41.2765 106.676C41.1231 106.897 41.0298 107.154 41.0061 107.423C40.9823 107.691 41.0288 107.96 41.1409 108.205L42.8441 111.919L41.3849 115.736C41.2888 115.987 41.2598 116.259 41.3009 116.525C41.342 116.791 41.4516 117.042 41.6191 117.253L44.1617 120.451L43.6581 124.506C43.625 124.773 43.662 125.045 43.7655 125.293C43.8691 125.541 44.0355 125.759 44.2486 125.923L47.4828 128.42L47.9643 132.478C47.996 132.745 48.0969 133 48.2569 133.216C48.4168 133.433 48.6305 133.604 48.8767 133.712L52.6145 135.363L54.0531 139.188C54.1479 139.439 54.3066 139.662 54.5138 139.834C54.7209 140.006 54.9692 140.121 55.2343 140.168L59.2586 140.876L61.5707 144.245C61.7229 144.467 61.9304 144.645 62.1727 144.763C62.4149 144.88 62.6836 144.932 62.9521 144.914L67.0289 144.638L70.0801 147.356C70.281 147.535 70.5251 147.659 70.7884 147.715C71.0517 147.771 71.325 147.757 71.5814 147.675L75.4739 146.432L79.0867 148.341C79.3247 148.467 79.5914 148.528 79.8604 148.519C80.1294 148.511 80.3915 148.432 80.6208 148.291L84.1027 146.153L88.0674 147.141C88.3285 147.206 88.6021 147.202 88.8612 147.129C89.1203 147.057 89.3559 146.917 89.5449 146.726L92.4139 143.816L96.4999 143.827H96.5041C96.7726 143.827 97.0364 143.758 97.2697 143.625C97.5031 143.492 97.698 143.301 97.8352 143.07L99.9244 139.559L103.895 138.592C104.156 138.528 104.396 138.397 104.592 138.212C104.788 138.027 104.932 137.795 105.01 137.537L106.198 133.628L109.821 131.739C110.06 131.614 110.262 131.43 110.408 131.203C110.553 130.977 110.637 130.717 110.652 130.448L110.87 126.367L113.935 123.666C114.137 123.488 114.289 123.261 114.377 123.006C114.464 122.751 114.483 122.479 114.433 122.214L113.668 118.2L115.998 114.844C116.152 114.623 116.245 114.365 116.269 114.097C116.293 113.829 116.246 113.56 116.134 113.315V113.315ZM110.504 118.141L111.225 121.926L108.334 124.473C108.179 124.61 108.053 124.775 107.964 124.96C107.874 125.146 107.822 125.347 107.811 125.553L107.606 129.4L104.189 131.182C104.006 131.277 103.845 131.408 103.713 131.566C103.582 131.725 103.483 131.908 103.423 132.105L102.303 135.791L98.5593 136.703C98.3592 136.752 98.1709 136.84 98.0053 136.963C97.8397 137.085 97.7002 137.239 97.5949 137.416L95.6249 140.727L91.7719 140.717H91.7676C91.5624 140.717 91.3592 140.758 91.1699 140.837C90.9806 140.916 90.8089 141.032 90.6648 141.178L87.9595 143.922L84.221 142.99C84.0212 142.94 83.8135 142.93 83.61 142.962C83.4064 142.993 83.2112 143.065 83.0358 143.173L79.7526 145.189L76.3458 143.389C76.1637 143.293 75.9642 143.234 75.7591 143.216C75.554 143.198 75.3473 143.221 75.1511 143.283L71.4807 144.455L68.6036 141.893C68.4498 141.756 68.2702 141.651 68.0754 141.584C67.8806 141.518 67.6745 141.49 67.469 141.504L63.6248 141.764L61.4446 138.587C61.3281 138.417 61.1789 138.272 61.0057 138.161C60.8325 138.049 60.6389 137.974 60.4361 137.938L56.6414 137.27L55.2848 133.664C55.2123 133.471 55.1021 133.295 54.9606 133.145C54.8191 132.995 54.6492 132.875 54.4608 132.792L50.9362 131.236L50.4821 127.409C50.4579 127.205 50.3931 127.007 50.2915 126.828C50.19 126.649 50.0537 126.492 49.8907 126.366L46.8411 124.011L47.3158 120.188C47.3412 119.983 47.3256 119.776 47.2699 119.578C47.2141 119.379 47.1194 119.194 46.9913 119.033L44.5938 116.017L45.9697 112.418C46.0433 112.226 46.0777 112.021 46.0711 111.815C46.0644 111.609 46.0168 111.407 45.9309 111.219L44.3249 107.717L46.5222 104.552C46.6397 104.383 46.7222 104.192 46.765 103.99C46.8078 103.789 46.81 103.581 46.7714 103.379L46.0502 99.5938L48.9412 97.0466C49.0957 96.9104 49.2215 96.7448 49.3112 96.5595C49.401 96.3741 49.4529 96.1727 49.4638 95.9671L49.6694 92.1197L53.0859 90.3384C53.2685 90.2432 53.4303 90.1125 53.5618 89.9541C53.6932 89.7956 53.7918 89.6125 53.8517 89.4155L54.9721 85.7287L58.7156 84.8168C58.9156 84.7681 59.104 84.6799 59.2696 84.5575C59.4352 84.4352 59.5748 84.281 59.6801 84.104L61.6501 80.7927L65.5031 80.8031H65.5073C65.7125 80.8031 65.9157 80.7623 66.105 80.6831C66.2943 80.6039 66.466 80.4879 66.6101 80.3418L69.3154 77.5981L73.054 78.5304C73.2538 78.5802 73.4615 78.5897 73.665 78.5582C73.8685 78.5268 74.0638 78.4551 74.2392 78.3474L77.5224 76.3309L80.9292 78.1306C81.1113 78.2268 81.3108 78.2856 81.5159 78.3038C81.721 78.322 81.9277 78.2992 82.1239 78.2367L85.7943 77.0645L88.6714 79.6271C88.8253 79.7639 89.0048 79.8687 89.1996 79.9355C89.3944 80.0022 89.6005 80.0296 89.8059 80.016L93.6501 79.7563L95.8304 82.9332C95.9469 83.103 96.0961 83.2478 96.2693 83.3592C96.4425 83.4707 96.6361 83.5465 96.8389 83.5822L100.634 84.25L101.99 87.8562C102.063 88.049 102.173 88.2253 102.314 88.375C102.456 88.5246 102.626 88.6445 102.814 88.7278L106.339 90.2843L106.793 94.1105C106.817 94.315 106.882 94.5126 106.983 94.6917C107.085 94.8708 107.221 95.0279 107.384 95.1538L110.434 97.5086L109.959 101.332C109.934 101.537 109.949 101.744 110.005 101.942C110.061 102.141 110.156 102.326 110.284 102.487L112.681 105.503L111.305 109.102C111.232 109.294 111.197 109.499 111.204 109.705C111.211 109.911 111.258 110.114 111.344 110.301L112.95 113.803L110.753 116.968C110.635 117.137 110.553 117.328 110.51 117.53C110.467 117.731 110.465 117.939 110.504 118.141H110.504Z" fill="#1A1A1A"/>
</svg>
