<svg width="166" height="232" viewBox="0 0 166 232" fill="none" xmlns="http://www.w3.org/2000/svg">
<rect x="4" y="4" width="158" height="224" rx="5" fill="#FFF8F8" stroke="#F7575C" stroke-width="7"/>
<path d="M69.0995 23.516C69.4115 23.116 69.7675 22.804 70.1675 22.58C70.5755 22.348 70.9995 22.232 71.4395 22.232L71.0555 24.404H70.4915C69.9795 24.404 69.5755 24.516 69.2795 24.74C68.9835 24.956 68.7875 25.34 68.6915 25.892L68.1395 29H66.0875L67.2635 22.304H69.3155L69.0995 23.516ZM79.2484 22.304L78.0724 29H76.0204L76.1764 28.088C75.9124 28.384 75.5884 28.624 75.2044 28.808C74.8284 28.984 74.4244 29.072 73.9924 29.072C73.3204 29.072 72.7924 28.884 72.4084 28.508C72.0244 28.124 71.8324 27.592 71.8324 26.912C71.8324 26.656 71.8524 26.424 71.8924 26.216L72.5884 22.304H74.6284L73.9924 25.94C73.9684 26.068 73.9564 26.192 73.9564 26.312C73.9564 26.648 74.0484 26.908 74.2324 27.092C74.4244 27.268 74.6884 27.356 75.0244 27.356C75.4084 27.356 75.7324 27.244 75.9964 27.02C76.2684 26.788 76.4484 26.46 76.5364 26.036L77.1964 22.304H79.2484ZM82.8463 29.096C82.2703 29.096 81.7583 28.98 81.3103 28.748C80.8623 28.516 80.5143 28.188 80.2663 27.764C80.0263 27.34 79.9063 26.848 79.9063 26.288C79.9063 25.528 80.0863 24.836 80.4463 24.212C80.8063 23.588 81.3023 23.1 81.9343 22.748C82.5663 22.388 83.2703 22.208 84.0463 22.208C84.6223 22.208 85.1343 22.328 85.5823 22.568C86.0383 22.8 86.3903 23.128 86.6383 23.552C86.8863 23.976 87.0103 24.468 87.0103 25.028C87.0103 25.796 86.8263 26.492 86.4583 27.116C86.0983 27.732 85.5983 28.216 84.9583 28.568C84.3263 28.92 83.6223 29.096 82.8463 29.096ZM83.1343 27.332C83.4703 27.332 83.7703 27.232 84.0343 27.032C84.3063 26.824 84.5143 26.56 84.6583 26.24C84.8103 25.912 84.8863 25.572 84.8863 25.22C84.8863 24.82 84.7783 24.512 84.5623 24.296C84.3463 24.08 84.0743 23.972 83.7463 23.972C83.4023 23.972 83.0983 24.076 82.8343 24.284C82.5783 24.484 82.3783 24.748 82.2343 25.076C82.0903 25.404 82.0183 25.748 82.0183 26.108C82.0183 26.5 82.1223 26.804 82.3303 27.02C82.5383 27.228 82.8063 27.332 83.1343 27.332ZM90.4509 26.696C90.4429 26.736 90.4389 26.788 90.4389 26.852C90.4389 26.996 90.4789 27.1 90.5589 27.164C90.6469 27.228 90.7869 27.26 90.9789 27.26H91.7109L91.3989 29H90.3549C89.0109 29 88.3389 28.436 88.3389 27.308C88.3389 27.14 88.3589 26.928 88.3989 26.672L88.8789 24.008H88.0629L88.3629 22.304H89.1789L89.4669 20.672H91.5189L91.2309 22.304H92.5749L92.2749 24.008H90.9309L90.4509 26.696ZM96.9579 22.208C97.8219 22.208 98.5059 22.444 99.0099 22.916C99.5219 23.38 99.7779 24.016 99.7779 24.824C99.7779 25.088 99.7579 25.324 99.7179 25.532C99.6859 25.716 99.6379 25.912 99.5739 26.12H94.9299C94.9219 26.168 94.9179 26.244 94.9179 26.348C94.9179 26.7 95.0139 26.968 95.2059 27.152C95.3979 27.336 95.6539 27.428 95.9739 27.428C96.4859 27.428 96.8779 27.212 97.1499 26.78H99.3339C99.0459 27.46 98.5779 28.016 97.9299 28.448C97.2819 28.88 96.5539 29.096 95.7459 29.096C94.8819 29.096 94.1899 28.856 93.6699 28.376C93.1579 27.896 92.9019 27.244 92.9019 26.42C92.9019 26.172 92.9259 25.916 92.9739 25.652C93.0939 24.956 93.3419 24.348 93.7179 23.828C94.0939 23.308 94.5619 22.908 95.1219 22.628C95.6819 22.348 96.2939 22.208 96.9579 22.208ZM97.7019 25.076C97.7179 24.964 97.7259 24.888 97.7259 24.848C97.7259 24.528 97.6259 24.284 97.4259 24.116C97.2259 23.94 96.9619 23.852 96.6339 23.852C96.2819 23.852 95.9699 23.96 95.6979 24.176C95.4339 24.384 95.2419 24.684 95.1219 25.076H97.7019Z" fill="#3CAA90"/>
<path d="M32.7772 44.792H30.6772L32.0212 41.576H33.4012L32.7772 44.792ZM35.5012 44.792H33.4132L34.7572 41.576H36.1252L35.5012 44.792ZM47.3094 43.304L45.4974 50H43.2294L42.1734 45.656L41.0814 50H38.8254L37.0014 43.304H39.0534L40.0014 48.092L41.1294 43.304H43.3014L44.4414 48.068L45.3774 43.304H47.3094ZM47.924 46.64C47.924 45.952 48.052 45.348 48.308 44.828C48.572 44.308 48.928 43.908 49.376 43.628C49.824 43.348 50.324 43.208 50.876 43.208C51.348 43.208 51.76 43.304 52.112 43.496C52.472 43.688 52.748 43.94 52.94 44.252V43.304H54.992V50H52.94V49.052C52.74 49.364 52.46 49.616 52.1 49.808C51.748 50 51.336 50.096 50.864 50.096C50.32 50.096 49.824 49.956 49.376 49.676C48.928 49.388 48.572 48.984 48.308 48.464C48.052 47.936 47.924 47.328 47.924 46.64ZM52.94 46.652C52.94 46.14 52.796 45.736 52.508 45.44C52.228 45.144 51.884 44.996 51.476 44.996C51.068 44.996 50.72 45.144 50.432 45.44C50.152 45.728 50.012 46.128 50.012 46.64C50.012 47.152 50.152 47.56 50.432 47.864C50.72 48.16 51.068 48.308 51.476 48.308C51.884 48.308 52.228 48.16 52.508 47.864C52.796 47.568 52.94 47.164 52.94 46.652ZM59.2605 43.208C59.7325 43.208 60.1445 43.304 60.4965 43.496C60.8565 43.688 61.1325 43.94 61.3245 44.252V43.304H63.3765V49.988C63.3765 50.604 63.2525 51.16 63.0045 51.656C62.7645 52.16 62.3925 52.56 61.8885 52.856C61.3925 53.152 60.7725 53.3 60.0285 53.3C59.0365 53.3 58.2325 53.064 57.6165 52.592C57.0005 52.128 56.6485 51.496 56.5605 50.696H58.5885C58.6525 50.952 58.8045 51.152 59.0445 51.296C59.2845 51.448 59.5805 51.524 59.9325 51.524C60.3565 51.524 60.6925 51.4 60.9405 51.152C61.1965 50.912 61.3245 50.524 61.3245 49.988V49.04C61.1245 49.352 60.8485 49.608 60.4965 49.808C60.1445 50 59.7325 50.096 59.2605 50.096C58.7085 50.096 58.2085 49.956 57.7605 49.676C57.3125 49.388 56.9565 48.984 56.6925 48.464C56.4365 47.936 56.3085 47.328 56.3085 46.64C56.3085 45.952 56.4365 45.348 56.6925 44.828C56.9565 44.308 57.3125 43.908 57.7605 43.628C58.2085 43.348 58.7085 43.208 59.2605 43.208ZM61.3245 46.652C61.3245 46.14 61.1805 45.736 60.8925 45.44C60.6125 45.144 60.2685 44.996 59.8605 44.996C59.4525 44.996 59.1045 45.144 58.8165 45.44C58.5365 45.728 58.3965 46.128 58.3965 46.64C58.3965 47.152 58.5365 47.56 58.8165 47.864C59.1045 48.16 59.4525 48.308 59.8605 48.308C60.2685 48.308 60.6125 48.16 60.8925 47.864C61.1805 47.568 61.3245 47.164 61.3245 46.652ZM68.149 50.096C67.493 50.096 66.901 49.956 66.373 49.676C65.853 49.396 65.441 48.996 65.137 48.476C64.841 47.956 64.693 47.348 64.693 46.652C64.693 45.964 64.845 45.36 65.149 44.84C65.453 44.312 65.869 43.908 66.397 43.628C66.925 43.348 67.517 43.208 68.173 43.208C68.829 43.208 69.421 43.348 69.949 43.628C70.477 43.908 70.893 44.312 71.197 44.84C71.501 45.36 71.653 45.964 71.653 46.652C71.653 47.34 71.497 47.948 71.185 48.476C70.881 48.996 70.461 49.396 69.925 49.676C69.397 49.956 68.805 50.096 68.149 50.096ZM68.149 48.32C68.541 48.32 68.873 48.176 69.145 47.888C69.425 47.6 69.565 47.188 69.565 46.652C69.565 46.116 69.429 45.704 69.157 45.416C68.893 45.128 68.565 44.984 68.173 44.984C67.773 44.984 67.441 45.128 67.177 45.416C66.913 45.696 66.781 46.108 66.781 46.652C66.781 47.188 66.909 47.6 67.165 47.888C67.429 48.176 67.757 48.32 68.149 48.32ZM77.0617 43.232C77.8457 43.232 78.4697 43.488 78.9337 44C79.4057 44.504 79.6417 45.2 79.6417 46.088V50H77.6017V46.364C77.6017 45.916 77.4857 45.568 77.2537 45.32C77.0217 45.072 76.7097 44.948 76.3177 44.948C75.9257 44.948 75.6137 45.072 75.3817 45.32C75.1497 45.568 75.0337 45.916 75.0337 46.364V50H72.9817V43.304H75.0337V44.192C75.2417 43.896 75.5217 43.664 75.8737 43.496C76.2257 43.32 76.6217 43.232 77.0617 43.232ZM93.7026 43.304L91.8906 50H89.6226L88.5666 45.656L87.4746 50H85.2186L83.3946 43.304H85.4466L86.3946 48.092L87.5226 43.304H89.6946L90.8346 48.068L91.7706 43.304H93.7026ZM98.8411 43.232C99.6091 43.232 100.225 43.488 100.689 44C101.153 44.504 101.385 45.2 101.385 46.088V50H99.3451V46.364C99.3451 45.916 99.2291 45.568 98.9971 45.32C98.7651 45.072 98.4531 44.948 98.0611 44.948C97.6691 44.948 97.3571 45.072 97.1251 45.32C96.8931 45.568 96.7771 45.916 96.7771 46.364V50H94.7251V41.12H96.7771V44.204C96.9851 43.908 97.2691 43.672 97.6291 43.496C97.9891 43.32 98.3931 43.232 98.8411 43.232ZM109.363 46.544C109.363 46.736 109.351 46.936 109.327 47.144H104.683C104.715 47.56 104.847 47.88 105.079 48.104C105.319 48.32 105.611 48.428 105.955 48.428C106.467 48.428 106.823 48.212 107.023 47.78H109.207C109.095 48.22 108.891 48.616 108.595 48.968C108.307 49.32 107.943 49.596 107.503 49.796C107.063 49.996 106.571 50.096 106.027 50.096C105.371 50.096 104.787 49.956 104.275 49.676C103.763 49.396 103.363 48.996 103.075 48.476C102.787 47.956 102.643 47.348 102.643 46.652C102.643 45.956 102.783 45.348 103.063 44.828C103.351 44.308 103.751 43.908 104.263 43.628C104.775 43.348 105.363 43.208 106.027 43.208C106.675 43.208 107.251 43.344 107.755 43.616C108.259 43.888 108.651 44.276 108.931 44.78C109.219 45.284 109.363 45.872 109.363 46.544ZM107.263 46.004C107.263 45.652 107.143 45.372 106.903 45.164C106.663 44.956 106.363 44.852 106.003 44.852C105.659 44.852 105.367 44.952 105.127 45.152C104.895 45.352 104.751 45.636 104.695 46.004H107.263ZM116.998 46.544C116.998 46.736 116.986 46.936 116.962 47.144H112.318C112.35 47.56 112.482 47.88 112.714 48.104C112.954 48.32 113.246 48.428 113.59 48.428C114.102 48.428 114.458 48.212 114.658 47.78H116.842C116.73 48.22 116.526 48.616 116.23 48.968C115.942 49.32 115.578 49.596 115.138 49.796C114.698 49.996 114.206 50.096 113.662 50.096C113.006 50.096 112.422 49.956 111.91 49.676C111.398 49.396 110.998 48.996 110.71 48.476C110.422 47.956 110.278 47.348 110.278 46.652C110.278 45.956 110.418 45.348 110.698 44.828C110.986 44.308 111.386 43.908 111.898 43.628C112.41 43.348 112.998 43.208 113.662 43.208C114.31 43.208 114.886 43.344 115.39 43.616C115.894 43.888 116.286 44.276 116.566 44.78C116.854 45.284 116.998 45.872 116.998 46.544ZM114.898 46.004C114.898 45.652 114.778 45.372 114.538 45.164C114.298 44.956 113.998 44.852 113.638 44.852C113.294 44.852 113.002 44.952 112.762 45.152C112.53 45.352 112.386 45.636 112.33 46.004H114.898ZM120.372 41.12V50H118.32V41.12H120.372ZM124.823 50.096C124.239 50.096 123.719 49.996 123.263 49.796C122.807 49.596 122.447 49.324 122.183 48.98C121.919 48.628 121.771 48.236 121.739 47.804H123.767C123.791 48.036 123.899 48.224 124.091 48.368C124.283 48.512 124.519 48.584 124.799 48.584C125.055 48.584 125.251 48.536 125.387 48.44C125.531 48.336 125.603 48.204 125.603 48.044C125.603 47.852 125.503 47.712 125.303 47.624C125.103 47.528 124.779 47.424 124.331 47.312C123.851 47.2 123.451 47.084 123.131 46.964C122.811 46.836 122.535 46.64 122.303 46.376C122.071 46.104 121.955 45.74 121.955 45.284C121.955 44.9 122.059 44.552 122.267 44.24C122.483 43.92 122.795 43.668 123.203 43.484C123.619 43.3 124.111 43.208 124.679 43.208C125.519 43.208 126.179 43.416 126.659 43.832C127.147 44.248 127.427 44.8 127.499 45.488H125.603C125.571 45.256 125.467 45.072 125.291 44.936C125.123 44.8 124.899 44.732 124.619 44.732C124.379 44.732 124.195 44.78 124.067 44.876C123.939 44.964 123.875 45.088 123.875 45.248C123.875 45.44 123.975 45.584 124.175 45.68C124.383 45.776 124.703 45.872 125.135 45.968C125.631 46.096 126.035 46.224 126.347 46.352C126.659 46.472 126.931 46.672 127.163 46.952C127.403 47.224 127.527 47.592 127.535 48.056C127.535 48.448 127.423 48.8 127.199 49.112C126.983 49.416 126.667 49.656 126.251 49.832C125.843 50.008 125.367 50.096 124.823 50.096ZM129.499 41.576H131.599L130.255 44.792H128.875L129.499 41.576ZM132.223 41.576H134.323L132.979 44.792H131.599L132.223 41.576Z" fill="#393A32"/>
<rect x="24" y="169" width="118" height="40" rx="2" fill="#3CAA90" fill-opacity="0.1"/>
<path d="M57.0507 186.56C57.3707 186.069 57.7707 185.685 58.2507 185.408C58.7307 185.12 59.264 184.976 59.8507 184.976V187.872H59.0987C58.416 187.872 57.904 188.021 57.5627 188.32C57.2214 188.608 57.0507 189.12 57.0507 189.856V194H54.3147V185.072H57.0507V186.56ZM66.1825 194.128C65.3078 194.128 64.5185 193.941 63.8145 193.568C63.1211 193.195 62.5718 192.661 62.1665 191.968C61.7718 191.275 61.5745 190.464 61.5745 189.536C61.5745 188.619 61.7771 187.813 62.1825 187.12C62.5878 186.416 63.1425 185.877 63.8465 185.504C64.5505 185.131 65.3398 184.944 66.2145 184.944C67.0891 184.944 67.8785 185.131 68.5825 185.504C69.2865 185.877 69.8411 186.416 70.2465 187.12C70.6518 187.813 70.8545 188.619 70.8545 189.536C70.8545 190.453 70.6465 191.264 70.2305 191.968C69.8251 192.661 69.2651 193.195 68.5505 193.568C67.8465 193.941 67.0571 194.128 66.1825 194.128ZM66.1825 191.76C66.7051 191.76 67.1478 191.568 67.5105 191.184C67.8838 190.8 68.0705 190.251 68.0705 189.536C68.0705 188.821 67.8891 188.272 67.5265 187.888C67.1745 187.504 66.7371 187.312 66.2145 187.312C65.6811 187.312 65.2385 187.504 64.8865 187.888C64.5345 188.261 64.3585 188.811 64.3585 189.536C64.3585 190.251 64.5291 190.8 64.8705 191.184C65.2225 191.568 65.6598 191.76 66.1825 191.76ZM78.242 191.68V194H76.85C75.858 194 75.0846 193.76 74.53 193.28C73.9753 192.789 73.698 191.995 73.698 190.896V187.344H72.61V185.072H73.698V182.896H76.434V185.072H78.226V187.344H76.434V190.928C76.434 191.195 76.498 191.387 76.626 191.504C76.754 191.621 76.9673 191.68 77.266 191.68H78.242ZM89.142 189.392C89.142 189.648 89.126 189.915 89.094 190.192H82.902C82.9446 190.747 83.1206 191.173 83.43 191.472C83.75 191.76 84.1393 191.904 84.598 191.904C85.2806 191.904 85.7553 191.616 86.022 191.04H88.934C88.7846 191.627 88.5126 192.155 88.118 192.624C87.734 193.093 87.2486 193.461 86.662 193.728C86.0753 193.995 85.4193 194.128 84.694 194.128C83.8193 194.128 83.0406 193.941 82.358 193.568C81.6753 193.195 81.142 192.661 80.758 191.968C80.374 191.275 80.182 190.464 80.182 189.536C80.182 188.608 80.3686 187.797 80.742 187.104C81.126 186.411 81.6593 185.877 82.342 185.504C83.0246 185.131 83.8086 184.944 84.694 184.944C85.558 184.944 86.326 185.125 86.998 185.488C87.67 185.851 88.1926 186.368 88.566 187.04C88.95 187.712 89.142 188.496 89.142 189.392ZM86.342 188.672C86.342 188.203 86.182 187.829 85.862 187.552C85.542 187.275 85.142 187.136 84.662 187.136C84.2033 187.136 83.814 187.269 83.494 187.536C83.1846 187.803 82.9926 188.181 82.918 188.672H86.342ZM94.2813 182.16V194H91.5453V182.16H94.2813ZM99.9601 182.16V194H97.2241V182.16H99.9601ZM111.319 189.392C111.319 189.648 111.303 189.915 111.271 190.192H105.079C105.122 190.747 105.298 191.173 105.607 191.472C105.927 191.76 106.316 191.904 106.775 191.904C107.458 191.904 107.932 191.616 108.199 191.04H111.111C110.962 191.627 110.69 192.155 110.295 192.624C109.911 193.093 109.426 193.461 108.839 193.728C108.252 193.995 107.596 194.128 106.871 194.128C105.996 194.128 105.218 193.941 104.535 193.568C103.852 193.195 103.319 192.661 102.935 191.968C102.551 191.275 102.359 190.464 102.359 189.536C102.359 188.608 102.546 187.797 102.919 187.104C103.303 186.411 103.836 185.877 104.519 185.504C105.202 185.131 105.986 184.944 106.871 184.944C107.735 184.944 108.503 185.125 109.175 185.488C109.847 185.851 110.37 186.368 110.743 187.04C111.127 187.712 111.319 188.496 111.319 189.392ZM108.519 188.672C108.519 188.203 108.359 187.829 108.039 187.552C107.719 187.275 107.319 187.136 106.839 187.136C106.38 187.136 105.991 187.269 105.671 187.536C105.362 187.803 105.17 188.181 105.095 188.672H108.519Z" fill="#393A32"/>
<path d="M83.1292 80.4607C65.5949 80.4607 51.3298 94.7259 51.3298 112.26C51.3298 129.794 65.5949 144.059 83.1292 144.059C100.663 144.059 114.929 129.794 114.929 112.26C114.929 94.7259 100.663 80.4607 83.1292 80.4607ZM94.5093 111.2C94.2511 109.028 93.3638 106.979 91.9565 105.305L104.452 93.3773C108.835 98.3063 111.364 104.608 111.604 111.2H94.5093ZM83.3241 120.5C81.7489 120.5 80.209 120.033 78.8993 119.158C77.5895 118.283 76.5687 117.039 75.9659 115.584C75.3631 114.128 75.2053 112.527 75.5126 110.982C75.8199 109.437 76.5785 108.018 77.6923 106.904C78.8062 105.79 80.2253 105.032 81.7703 104.724C83.3152 104.417 84.9166 104.575 86.3719 105.178C87.8272 105.78 89.0711 106.801 89.9463 108.111C90.8214 109.421 91.2886 110.961 91.2886 112.536C91.2862 114.647 90.4463 116.672 88.9532 118.165C87.4601 119.658 85.4357 120.498 83.3241 120.5V120.5ZM89.4783 103.105C88.1196 102.214 86.5831 101.629 84.9755 101.391V83.8248C91.3387 84.2341 97.3788 86.774 102.122 91.0352L89.4783 103.105ZM81.6727 101.391C79.7396 101.677 77.9149 102.464 76.3796 103.673L64.0582 91.7997C63.9316 91.678 63.7864 91.5774 63.6281 91.5015C68.5369 86.872 74.9339 84.1418 81.6727 83.8002L81.6727 101.391ZM76.7431 121.673C78.1997 122.728 79.8888 123.416 81.6677 123.68L81.6114 140.716C75.1524 140.376 69.0035 137.839 64.183 133.526C64.2168 133.499 64.2504 133.471 64.2826 133.441L76.7431 121.673ZM84.9704 123.682C86.8678 123.402 88.6617 122.639 90.1804 121.468L101.674 133.612C101.721 133.661 101.771 133.707 101.823 133.75C97.1079 137.868 91.1628 140.312 84.9142 140.699L84.9704 123.682ZM61.46 93.775C61.5408 93.9243 61.6442 94.0603 61.7664 94.1781L74.106 106.069C73.0907 107.509 72.4294 109.167 72.1757 110.911L55.3174 111.2C55.0859 111.204 54.8579 111.257 54.6484 111.355C54.8483 104.89 57.2517 98.6871 61.46 93.775V93.775ZM54.7111 114.376C54.912 114.46 55.1275 114.503 55.3452 114.502C55.3548 114.502 55.3644 114.502 55.3741 114.502L72.1824 114.214C72.4648 116.089 73.2186 117.863 74.3731 119.368L62.0149 131.04C61.9606 131.092 61.9099 131.148 61.8632 131.207C57.6877 126.539 55.1731 120.622 54.7111 114.376V114.376ZM104.171 131.457C104.14 131.418 104.108 131.379 104.073 131.342L92.4789 119.092C93.4607 117.727 94.1227 116.158 94.4159 114.502H111.538C111.042 120.817 108.449 126.785 104.171 131.457V131.457Z" fill="#393A32"/>
<path d="M123.108 114.984L121.292 111.024L122.848 106.955C122.951 106.687 122.982 106.397 122.938 106.113C122.894 105.829 122.777 105.562 122.599 105.337L119.888 101.927L120.425 97.6035C120.46 97.3187 120.42 97.0296 120.31 96.7647C120.2 96.4998 120.022 96.2683 119.795 96.0929L116.347 93.4302L115.833 89.104C115.799 88.819 115.692 88.5478 115.521 88.3171C115.351 88.0863 115.123 87.904 114.861 87.7881L110.875 86.028L109.341 81.9504C109.24 81.6818 109.071 81.4442 108.85 81.261C108.629 81.0777 108.365 80.9552 108.082 80.9054L103.791 80.1502L101.326 76.5582C101.163 76.3219 100.942 76.1319 100.684 76.0069C100.426 75.8819 100.14 75.8261 99.8532 75.8449L95.5065 76.1386L92.2533 73.2408C92.039 73.0499 91.7787 72.9182 91.498 72.8585C91.2173 72.7989 90.9259 72.8134 90.6525 72.9007L86.5024 74.2262L82.6504 72.1912C82.3966 72.0572 82.1124 71.9916 81.8256 72.0009C81.5388 72.0101 81.2593 72.094 81.0147 72.2441L77.3023 74.5242L73.0751 73.47C72.7967 73.4007 72.505 73.4051 72.2288 73.4828C71.9525 73.5604 71.7013 73.7086 71.4997 73.9128L68.4408 77.0151L64.0843 77.0033H64.0797C63.7935 77.0033 63.5123 77.0777 63.2635 77.2192C63.0147 77.3606 62.8069 77.5643 62.6605 77.8103L60.4331 81.5545L56.2002 82.5857C55.9214 82.6536 55.6651 82.7929 55.4566 82.9901C55.2481 83.1872 55.0945 83.4353 55.0111 83.7098L53.7442 87.8784L49.8812 89.8926C49.6267 90.0253 49.4112 90.222 49.256 90.4633C49.1007 90.7046 49.011 90.9823 48.9957 91.2688L48.7632 95.6191L45.4944 98.4993C45.2791 98.689 45.1169 98.9315 45.0239 99.203C44.9309 99.4745 44.9102 99.7655 44.9639 100.047L45.7794 104.327L43.2949 107.906C43.1312 108.141 43.0318 108.416 43.0065 108.702C42.9811 108.987 43.0307 109.275 43.1503 109.536L44.9662 113.496L43.4104 117.565C43.3079 117.833 43.277 118.124 43.3208 118.407C43.3646 118.691 43.4815 118.958 43.6601 119.183L46.371 122.593L45.8341 126.916C45.7988 127.201 45.8382 127.49 45.9486 127.755C46.059 128.02 46.2365 128.252 46.4636 128.427L49.912 131.09L50.4254 135.416C50.4592 135.701 50.5667 135.972 50.7373 136.203C50.9079 136.434 51.1357 136.616 51.3982 136.732L55.3834 138.492L56.9173 142.57C57.0184 142.838 57.1876 143.076 57.4085 143.259C57.6293 143.442 57.8941 143.565 58.1767 143.615L62.4674 144.37L64.9326 147.962C65.095 148.199 65.3162 148.389 65.5745 148.514C65.8328 148.639 66.1192 148.694 66.4055 148.675L70.7522 148.381L74.0054 151.279C74.2196 151.47 74.4799 151.602 74.7606 151.661C75.0413 151.721 75.3327 151.707 75.6061 151.619L79.7563 150.294L83.6084 152.329C83.8621 152.463 84.1464 152.529 84.4332 152.519C84.72 152.51 84.9995 152.426 85.244 152.276L88.9564 149.996L93.1836 151.05C93.462 151.119 93.7537 151.115 94.0299 151.037C94.3062 150.96 94.5574 150.811 94.759 150.607L97.8178 147.505L102.174 147.517H102.179C102.465 147.517 102.746 147.442 102.995 147.301C103.244 147.159 103.452 146.956 103.598 146.71L105.826 142.966L110.059 141.934C110.337 141.866 110.594 141.727 110.802 141.53C111.011 141.333 111.164 141.084 111.248 140.81L112.514 136.642L116.378 134.628C116.632 134.495 116.848 134.298 117.003 134.057C117.158 133.815 117.248 133.538 117.263 133.251L117.495 128.901L120.764 126.021C120.98 125.831 121.142 125.588 121.235 125.317C121.328 125.045 121.348 124.754 121.295 124.472L120.479 120.193L122.964 116.614C123.127 116.378 123.227 116.104 123.252 115.818C123.278 115.532 123.228 115.245 123.108 114.984V114.984ZM117.105 120.13L117.874 124.165L114.792 126.881C114.627 127.026 114.493 127.203 114.397 127.401C114.301 127.598 114.246 127.813 114.234 128.032L114.015 132.135L110.373 134.034C110.178 134.135 110.005 134.275 109.865 134.444C109.725 134.613 109.62 134.808 109.556 135.018L108.362 138.948L104.37 139.921C104.157 139.973 103.956 140.067 103.779 140.197C103.603 140.328 103.454 140.492 103.342 140.681L101.241 144.211L97.1334 144.2H97.1288C96.91 144.2 96.6934 144.244 96.4915 144.328C96.2897 144.413 96.1066 144.536 95.953 144.692L93.0686 147.617L89.0826 146.624C88.8696 146.57 88.6481 146.56 88.4311 146.594C88.2141 146.627 88.0059 146.704 87.8188 146.819L84.3183 148.969L80.6859 147.05C80.4918 146.947 80.2791 146.884 80.0604 146.865C79.8417 146.846 79.6213 146.87 79.4122 146.937L75.4988 148.186L72.4312 145.454C72.2671 145.308 72.0757 145.196 71.868 145.125C71.6603 145.054 71.4405 145.025 71.2214 145.039L67.1227 145.316L64.7982 141.929C64.6739 141.748 64.5149 141.594 64.3302 141.475C64.1456 141.356 63.9391 141.275 63.7229 141.237L59.677 140.525L58.2306 136.68C58.1533 136.475 58.0358 136.287 57.8849 136.127C57.734 135.967 57.5529 135.84 57.352 135.751L53.594 134.091L53.1099 130.012C53.084 129.794 53.0149 129.583 52.9067 129.392C52.7984 129.201 52.6531 129.034 52.4794 128.899L49.2278 126.389L49.734 122.312C49.7611 122.094 49.7444 121.873 49.685 121.661C49.6256 121.45 49.5246 121.253 49.3879 121.081L46.8317 117.865L48.2987 114.028C48.3772 113.823 48.4139 113.604 48.4068 113.385C48.3997 113.165 48.3489 112.949 48.2574 112.75L46.5451 109.016L48.8878 105.641C49.0131 105.461 49.1011 105.257 49.1467 105.042C49.1923 104.827 49.1946 104.606 49.1535 104.39L48.3846 100.354L51.467 97.6386C51.6317 97.4935 51.7658 97.3169 51.8615 97.1193C51.9572 96.9217 52.0125 96.7069 52.0242 96.4877L52.2434 92.3856L55.8861 90.4864C56.0808 90.3848 56.2532 90.2455 56.3934 90.0765C56.5336 89.9076 56.6387 89.7124 56.7026 89.5023L57.8972 85.5715L61.8885 84.5992C62.1018 84.5472 62.3026 84.4532 62.4792 84.3227C62.6558 84.1922 62.8046 84.0278 62.9169 83.8392L65.0173 80.3086L69.1253 80.3197H69.1298C69.3487 80.3197 69.5653 80.2762 69.7671 80.1918C69.969 80.1073 70.1521 79.9836 70.3057 79.8279L73.1901 76.9025L77.1762 77.8966C77.3892 77.9497 77.6107 77.9597 77.8277 77.9262C78.0447 77.8927 78.2528 77.8163 78.4399 77.7014L81.9405 75.5514L85.5728 77.4703C85.767 77.5728 85.9797 77.6356 86.1984 77.655C86.4171 77.6744 86.6375 77.6501 86.8467 77.5834L90.76 76.3336L93.8276 79.0659C93.9917 79.2117 94.1831 79.3235 94.3908 79.3946C94.5984 79.4658 94.8182 79.495 95.0372 79.4805L99.1359 79.2036L101.461 82.5908C101.585 82.7718 101.744 82.9263 101.929 83.0451C102.113 83.1639 102.32 83.2447 102.536 83.2828L106.582 83.9948L108.028 87.8398C108.105 88.0453 108.223 88.2334 108.374 88.3929C108.525 88.5525 108.706 88.6803 108.907 88.769L112.665 90.4286L113.149 94.5081C113.175 94.7262 113.244 94.9368 113.352 95.1279C113.46 95.3189 113.606 95.4864 113.779 95.6206L117.031 98.1313L116.525 102.208C116.498 102.426 116.514 102.647 116.574 102.858C116.633 103.07 116.734 103.267 116.871 103.439L119.427 106.655L117.96 110.492C117.882 110.697 117.845 110.916 117.852 111.135C117.859 111.355 117.91 111.571 118.001 111.77L119.714 115.505L117.371 118.879C117.246 119.059 117.158 119.263 117.112 119.478C117.066 119.693 117.064 119.914 117.105 120.13H117.105Z" fill="#393A32"/>
</svg>
