<svg width="158" height="224" viewBox="0 0 158 224" fill="none" xmlns="http://www.w3.org/2000/svg">
<rect width="158" height="224" rx="5" fill="#FFD300"/>
<mask id="path-2-inside-1" fill="white">
<rect x="9" y="9" width="140" height="207" rx="2"/>
</mask>
<rect x="9" y="9" width="140" height="207" rx="2" fill="white" stroke="#2179B9" stroke-width="14" mask="url(#path-2-inside-1)"/>
<path d="M65.0536 166.072H67.5856V167.296C67.7696 166.824 68.0176 166.476 68.3296 166.252C68.6496 166.02 69.0216 165.904 69.4456 165.904L69.7936 167.86C69.0336 167.86 68.4736 167.944 68.1136 168.112C67.7616 168.272 67.5856 168.528 67.5856 168.88V172H65.0536V166.072ZM73.8411 172.096C73.2091 172.096 72.6451 171.984 72.1491 171.76C71.6611 171.536 71.2811 171.22 71.0091 170.812C70.7371 170.404 70.6011 169.94 70.6011 169.42V165.988H73.0731V169.384C73.0731 169.648 73.1451 169.856 73.2891 170.008C73.4411 170.152 73.6291 170.224 73.8531 170.224C74.0691 170.224 74.2451 170.152 74.3811 170.008C74.5251 169.856 74.5971 169.648 74.5971 169.384V165.988H77.0211V169.42C77.0211 169.948 76.8851 170.416 76.6131 170.824C76.3491 171.224 75.9771 171.536 75.4971 171.76C75.0171 171.984 74.4651 172.096 73.8411 172.096ZM81.5802 172.096C80.9082 172.096 80.3082 171.964 79.7802 171.7C79.2602 171.436 78.8522 171.072 78.5562 170.608C78.2682 170.136 78.1242 169.596 78.1242 168.988C78.1242 168.38 78.2722 167.844 78.5682 167.38C78.8642 166.908 79.2722 166.544 79.7922 166.288C80.3202 166.032 80.9202 165.904 81.5922 165.904C82.2722 165.904 82.8722 166.036 83.3922 166.3C83.9202 166.556 84.3282 166.916 84.6162 167.38C84.9042 167.844 85.0482 168.38 85.0482 168.988C85.0482 169.604 84.9002 170.148 84.6042 170.62C84.3162 171.084 83.9082 171.448 83.3802 171.712C82.8602 171.968 82.2602 172.096 81.5802 172.096ZM81.6042 170.296C81.9322 170.296 82.2002 170.176 82.4082 169.936C82.6242 169.688 82.7322 169.372 82.7322 168.988C82.7322 168.604 82.6242 168.292 82.4082 168.052C82.2002 167.804 81.9322 167.68 81.6042 167.68C81.2762 167.68 81.0042 167.804 80.7882 168.052C80.5802 168.292 80.4762 168.604 80.4762 168.988C80.4762 169.372 80.5802 169.688 80.7882 169.936C81.0042 170.176 81.2762 170.296 81.6042 170.296ZM88.7688 172.096C88.0648 172.096 87.5168 171.896 87.1248 171.496C86.7328 171.088 86.5368 170.528 86.5368 169.816V167.476H85.7688V165.988H86.7168L87.8328 163.72H89.0448V165.988H90.4368V167.476H89.0448V169.516C89.0448 169.716 89.1088 169.872 89.2368 169.984C89.3648 170.096 89.5448 170.152 89.7768 170.152C89.9928 170.152 90.1888 170.104 90.3648 170.008L90.4608 171.688C90.2608 171.808 90.0008 171.908 89.6808 171.988C89.3688 172.06 89.0648 172.096 88.7688 172.096ZM94.5864 172.096C93.9224 172.096 93.3304 171.964 92.8104 171.7C92.2984 171.428 91.8984 171.06 91.6104 170.596C91.3224 170.124 91.1784 169.592 91.1784 169C91.1784 168.392 91.3264 167.852 91.6224 167.38C91.9184 166.908 92.3184 166.544 92.8224 166.288C93.3264 166.032 93.8864 165.904 94.5024 165.904C95.0944 165.904 95.5984 166.036 96.0144 166.3C96.4384 166.556 96.7544 166.908 96.9624 167.356C97.1704 167.796 97.2744 168.292 97.2744 168.844C97.2744 168.988 97.2664 169.092 97.2504 169.156L93.6504 169.624C93.7464 169.904 93.9024 170.108 94.1184 170.236C94.3344 170.356 94.6184 170.416 94.9704 170.416C95.5144 170.416 96.1024 170.276 96.7344 169.996L97.0344 171.604C96.2904 171.932 95.4744 172.096 94.5864 172.096ZM95.4144 168.112C95.2864 167.608 94.9824 167.356 94.5024 167.356C94.2144 167.356 93.9864 167.464 93.8184 167.68C93.6504 167.896 93.5624 168.176 93.5544 168.52L95.4144 168.112Z" fill="#2179B9"/>
<path d="M29.7339 187.672C29.7339 186.752 29.7859 186.092 29.8899 185.692C30.0019 185.284 30.2219 185.004 30.5499 184.852C30.8859 184.7 31.4339 184.624 32.1939 184.624V186.028C31.7859 186.028 31.5179 186.036 31.3899 186.052C31.2619 186.068 31.1779 186.116 31.1379 186.196C31.0979 186.276 31.0779 186.428 31.0779 186.652H32.1939V188.896H29.7339V187.672ZM32.8539 187.672C32.8539 186.752 32.9059 186.092 33.0099 185.692C33.1219 185.284 33.3419 185.004 33.6699 184.852C34.0059 184.7 34.5539 184.624 35.3139 184.624V186.028C34.9059 186.028 34.6379 186.036 34.5099 186.052C34.3819 186.068 34.2979 186.116 34.2579 186.196C34.2179 186.276 34.1979 186.428 34.1979 186.652H35.3139V188.896H32.8539V187.672ZM36.3302 186.988H38.7782L39.4622 190.888L40.2902 186.988H42.3542L43.1942 190.984L43.8782 186.988H45.8462L44.5982 193H41.7302L41.0582 189.82L40.4222 193H37.6502L36.3302 186.988ZM49.5079 193.096C48.9879 193.096 48.4999 192.96 48.0439 192.688C47.5959 192.408 47.2359 192.032 46.9639 191.56C46.6919 191.08 46.5559 190.548 46.5559 189.964C46.5559 189.388 46.6919 188.868 46.9639 188.404C47.2359 187.932 47.5999 187.564 48.0559 187.3C48.5119 187.036 48.9959 186.904 49.5079 186.904C49.9239 186.904 50.3079 187.02 50.6599 187.252C51.0199 187.484 51.2919 187.832 51.4759 188.296V186.904H53.9959V193H51.4759V191.884C51.0759 192.692 50.4199 193.096 49.5079 193.096ZM50.2879 191.2C50.6079 191.2 50.8799 191.088 51.1039 190.864C51.3359 190.632 51.4599 190.36 51.4759 190.048V189.952C51.4599 189.632 51.3319 189.36 51.0919 189.136C50.8599 188.912 50.5919 188.8 50.2879 188.8C49.9519 188.8 49.6639 188.92 49.4239 189.16C49.1919 189.392 49.0759 189.672 49.0759 190C49.0759 190.336 49.1959 190.62 49.4359 190.852C49.6759 191.084 49.9599 191.2 50.2879 191.2ZM58.8474 195.748C58.4074 195.748 57.9874 195.704 57.5874 195.616L57.7794 193.84C58.0914 193.888 58.3794 193.912 58.6434 193.912C59.1394 193.912 59.5154 193.764 59.7714 193.468C60.0274 193.18 60.1794 192.692 60.2274 192.004C59.7554 192.668 59.0354 193 58.0674 193C57.5394 193 57.0514 192.864 56.6034 192.592C56.1634 192.32 55.8114 191.952 55.5474 191.488C55.2914 191.024 55.1634 190.516 55.1634 189.964C55.1634 189.404 55.2914 188.892 55.5474 188.428C55.8034 187.956 56.1514 187.584 56.5914 187.312C57.0394 187.04 57.5274 186.904 58.0554 186.904C58.5434 186.904 58.9674 187.032 59.3274 187.288C59.6954 187.536 59.9354 187.872 60.0474 188.296V186.904H62.5794V191.476C62.5794 192.876 62.2594 193.936 61.6194 194.656C60.9874 195.384 60.0634 195.748 58.8474 195.748ZM58.8474 191.2C59.1674 191.2 59.4434 191.088 59.6754 190.864C59.9074 190.632 60.0314 190.36 60.0474 190.048V189.952C60.0314 189.648 59.9034 189.38 59.6634 189.148C59.4314 188.916 59.1594 188.8 58.8474 188.8C58.5194 188.8 58.2394 188.92 58.0074 189.16C57.7754 189.392 57.6594 189.672 57.6594 190C57.6594 190.328 57.7754 190.612 58.0074 190.852C58.2394 191.084 58.5194 191.2 58.8474 191.2ZM67.1912 193.096C66.5192 193.096 65.9192 192.964 65.3912 192.7C64.8712 192.436 64.4632 192.072 64.1672 191.608C63.8792 191.136 63.7352 190.596 63.7352 189.988C63.7352 189.38 63.8832 188.844 64.1792 188.38C64.4752 187.908 64.8832 187.544 65.4032 187.288C65.9312 187.032 66.5312 186.904 67.2032 186.904C67.8832 186.904 68.4832 187.036 69.0032 187.3C69.5312 187.556 69.9392 187.916 70.2272 188.38C70.5152 188.844 70.6592 189.38 70.6592 189.988C70.6592 190.604 70.5112 191.148 70.2152 191.62C69.9272 192.084 69.5192 192.448 68.9912 192.712C68.4712 192.968 67.8712 193.096 67.1912 193.096ZM67.2152 191.296C67.5432 191.296 67.8112 191.176 68.0192 190.936C68.2352 190.688 68.3432 190.372 68.3432 189.988C68.3432 189.604 68.2352 189.292 68.0192 189.052C67.8112 188.804 67.5432 188.68 67.2152 188.68C66.8872 188.68 66.6152 188.804 66.3992 189.052C66.1912 189.292 66.0872 189.604 66.0872 189.988C66.0872 190.372 66.1912 190.688 66.3992 190.936C66.6152 191.176 66.8872 191.296 67.2152 191.296ZM71.7986 187.072H74.2106V188.296C74.6746 187.368 75.4106 186.904 76.4186 186.904C77.1866 186.904 77.7866 187.18 78.2186 187.732C78.6586 188.276 78.8786 189.032 78.8786 190V193H76.3586V189.748C76.3586 189.404 76.2826 189.14 76.1306 188.956C75.9866 188.772 75.7826 188.68 75.5186 188.68C75.3266 188.68 75.1386 188.744 74.9546 188.872C74.7706 188.992 74.6186 189.168 74.4986 189.4C74.3866 189.632 74.3306 189.896 74.3306 190.192V193H71.7986V187.072ZM82.3952 186.988H84.8432L85.5272 190.888L86.3552 186.988H88.4192L89.2592 190.984L89.9432 186.988H91.9112L90.6632 193H87.7952L87.1232 189.82L86.4872 193H83.7152L82.3952 186.988ZM92.9913 185.092L95.5233 184.72V188.224C95.6993 187.8 95.9633 187.476 96.3153 187.252C96.6753 187.02 97.1073 186.904 97.6113 186.904C98.3793 186.904 98.9793 187.18 99.4113 187.732C99.8513 188.276 100.071 189.032 100.071 190V193H97.5513V189.748C97.5513 189.404 97.4753 189.14 97.3233 188.956C97.1793 188.772 96.9753 188.68 96.7113 188.68C96.5193 188.68 96.3313 188.744 96.1473 188.872C95.9633 188.992 95.8113 189.168 95.6913 189.4C95.5793 189.632 95.5233 189.896 95.5233 190.192V193H92.9913V185.092ZM104.578 193.096C103.914 193.096 103.322 192.964 102.802 192.7C102.29 192.428 101.89 192.06 101.602 191.596C101.314 191.124 101.17 190.592 101.17 190C101.17 189.392 101.318 188.852 101.614 188.38C101.91 187.908 102.31 187.544 102.814 187.288C103.318 187.032 103.878 186.904 104.494 186.904C105.086 186.904 105.59 187.036 106.006 187.3C106.43 187.556 106.746 187.908 106.954 188.356C107.162 188.796 107.266 189.292 107.266 189.844C107.266 189.988 107.258 190.092 107.242 190.156L103.642 190.624C103.738 190.904 103.894 191.108 104.11 191.236C104.326 191.356 104.61 191.416 104.962 191.416C105.506 191.416 106.094 191.276 106.726 190.996L107.026 192.604C106.282 192.932 105.466 193.096 104.578 193.096ZM105.406 189.112C105.278 188.608 104.974 188.356 104.494 188.356C104.206 188.356 103.978 188.464 103.81 188.68C103.642 188.896 103.554 189.176 103.546 189.52L105.406 189.112ZM111.485 193.096C110.821 193.096 110.229 192.964 109.709 192.7C109.197 192.428 108.797 192.06 108.509 191.596C108.221 191.124 108.077 190.592 108.077 190C108.077 189.392 108.225 188.852 108.521 188.38C108.817 187.908 109.217 187.544 109.721 187.288C110.225 187.032 110.785 186.904 111.401 186.904C111.993 186.904 112.497 187.036 112.913 187.3C113.337 187.556 113.653 187.908 113.861 188.356C114.069 188.796 114.173 189.292 114.173 189.844C114.173 189.988 114.165 190.092 114.149 190.156L110.549 190.624C110.645 190.904 110.801 191.108 111.017 191.236C111.233 191.356 111.517 191.416 111.869 191.416C112.413 191.416 113.001 191.276 113.633 190.996L113.933 192.604C113.189 192.932 112.373 193.096 111.485 193.096ZM112.313 189.112C112.185 188.608 111.881 188.356 111.401 188.356C111.113 188.356 110.885 188.464 110.717 188.68C110.549 188.896 110.461 189.176 110.453 189.52L112.313 189.112ZM117.397 193.096C116.717 193.096 116.189 192.884 115.813 192.46C115.445 192.028 115.261 191.44 115.261 190.696V185.092L117.793 184.72V190.516C117.793 190.74 117.845 190.904 117.949 191.008C118.061 191.104 118.253 191.152 118.525 191.152C118.725 191.152 118.921 191.104 119.113 191.008L119.197 192.688C118.661 192.96 118.061 193.096 117.397 193.096ZM122.137 193.096C121.297 193.096 120.561 192.972 119.929 192.724L120.205 191.296C120.781 191.504 121.341 191.608 121.885 191.608C122.285 191.608 122.485 191.496 122.485 191.272C122.485 191.16 122.425 191.068 122.305 190.996C122.193 190.924 121.977 190.86 121.657 190.804C120.993 190.676 120.513 190.46 120.217 190.156C119.929 189.852 119.785 189.42 119.785 188.86C119.817 188.228 120.069 187.744 120.541 187.408C121.013 187.072 121.657 186.904 122.473 186.904C122.889 186.904 123.245 186.932 123.541 186.988C123.845 187.036 124.121 187.12 124.369 187.24L124.117 188.668C123.885 188.58 123.629 188.512 123.349 188.464C123.077 188.416 122.849 188.392 122.665 188.392C122.393 188.392 122.205 188.42 122.101 188.476C121.997 188.532 121.945 188.608 121.945 188.704C121.945 188.88 122.145 189.004 122.545 189.076C123.273 189.204 123.817 189.428 124.177 189.748C124.537 190.068 124.717 190.504 124.717 191.056C124.717 191.688 124.493 192.188 124.045 192.556C123.605 192.916 122.969 193.096 122.137 193.096ZM125.69 187.612C126.098 187.612 126.366 187.604 126.494 187.588C126.622 187.572 126.706 187.524 126.746 187.444C126.786 187.364 126.806 187.212 126.806 186.988H125.69V184.744H128.15V185.968C128.15 186.888 128.094 187.552 127.982 187.96C127.878 188.36 127.658 188.636 127.322 188.788C126.994 188.94 126.45 189.016 125.69 189.016V187.612ZM128.81 187.612C129.218 187.612 129.486 187.604 129.614 187.588C129.742 187.572 129.826 187.524 129.866 187.444C129.906 187.364 129.926 187.212 129.926 186.988H128.81V184.744H131.27V185.968C131.27 186.888 131.214 187.552 131.102 187.96C130.998 188.36 130.778 188.636 130.442 188.788C130.114 188.94 129.57 189.016 128.81 189.016V187.612Z" fill="#393A32"/>
<path d="M54.0431 134.288C51.7871 134.288 50.4071 133.244 49.9031 131.156L49.4531 129.302H48.6071V134H44.6651V121.616H50.1191C51.1511 121.616 52.0571 121.772 52.8371 122.084C53.6291 122.384 54.2411 122.81 54.6731 123.362C55.1051 123.914 55.3211 124.55 55.3211 125.27C55.3211 126.074 55.1231 126.752 54.7271 127.304C54.3431 127.844 53.7431 128.288 52.9271 128.636C53.0111 129.092 53.1071 129.506 53.2151 129.878C53.3591 130.334 53.5571 130.652 53.8091 130.832C54.0611 131.012 54.4271 131.102 54.9071 131.102C55.0751 131.102 55.3391 131.078 55.6991 131.03V133.964C55.1351 134.18 54.5831 134.288 54.0431 134.288ZM49.2911 126.782C50.1791 126.782 50.8031 126.686 51.1631 126.494C51.5351 126.29 51.7211 125.948 51.7211 125.468C51.7211 125.06 51.5711 124.766 51.2711 124.586C50.9711 124.394 50.4971 124.298 49.8491 124.298H48.6071V126.782H49.2911ZM62.7774 134.144C61.7694 134.144 60.8694 133.946 60.0774 133.55C59.2974 133.154 58.6854 132.608 58.2414 131.912C57.8094 131.204 57.5934 130.394 57.5934 129.482C57.5934 128.57 57.8154 127.766 58.2594 127.07C58.7034 126.362 59.3154 125.816 60.0954 125.432C60.8874 125.048 61.7874 124.856 62.7954 124.856C63.8154 124.856 64.7154 125.054 65.4954 125.45C66.2874 125.834 66.8994 126.374 67.3314 127.07C67.7634 127.766 67.9794 128.57 67.9794 129.482C67.9794 130.406 67.7574 131.222 67.3134 131.93C66.8814 132.626 66.2694 133.172 65.4774 133.568C64.6974 133.952 63.7974 134.144 62.7774 134.144ZM62.8134 131.444C63.3054 131.444 63.7074 131.264 64.0194 130.904C64.3434 130.532 64.5054 130.058 64.5054 129.482C64.5054 128.906 64.3434 128.438 64.0194 128.078C63.7074 127.706 63.3054 127.52 62.8134 127.52C62.3214 127.52 61.9134 127.706 61.5894 128.078C61.2774 128.438 61.1214 128.906 61.1214 129.482C61.1214 130.058 61.2774 130.532 61.5894 130.904C61.9134 131.264 62.3214 131.444 62.8134 131.444ZM74.2803 134.144C73.2243 134.144 72.4023 133.844 71.8143 133.244C71.2263 132.632 70.9323 131.792 70.9323 130.724V127.214H69.7803V124.982H71.2023L72.8763 121.58H74.6943V124.982H76.7823V127.214H74.6943V130.274C74.6943 130.574 74.7903 130.808 74.9823 130.976C75.1743 131.144 75.4443 131.228 75.7923 131.228C76.1163 131.228 76.4103 131.156 76.6743 131.012L76.8183 133.532C76.5183 133.712 76.1283 133.862 75.6483 133.982C75.1803 134.09 74.7243 134.144 74.2803 134.144ZM83.7268 134.144C82.7308 134.144 81.8428 133.946 81.0628 133.55C80.2948 133.142 79.6948 132.59 79.2628 131.894C78.8308 131.186 78.6148 130.388 78.6148 129.5C78.6148 128.588 78.8368 127.778 79.2808 127.07C79.7248 126.362 80.3248 125.816 81.0808 125.432C81.8368 125.048 82.6768 124.856 83.6008 124.856C84.4888 124.856 85.2448 125.054 85.8688 125.45C86.5048 125.834 86.9788 126.362 87.2908 127.034C87.6028 127.694 87.7588 128.438 87.7588 129.266C87.7588 129.482 87.7468 129.638 87.7228 129.734L82.3228 130.436C82.4668 130.856 82.7008 131.162 83.0248 131.354C83.3488 131.534 83.7748 131.624 84.3028 131.624C85.1188 131.624 86.0008 131.414 86.9488 130.994L87.3988 133.406C86.2828 133.898 85.0588 134.144 83.7268 134.144ZM84.9688 128.168C84.7768 127.412 84.3208 127.034 83.6008 127.034C83.1688 127.034 82.8268 127.196 82.5748 127.52C82.3228 127.844 82.1908 128.264 82.1788 128.78L84.9688 128.168ZM93.3147 134.144C92.2947 134.144 91.5027 133.826 90.9387 133.19C90.3867 132.542 90.1107 131.66 90.1107 130.544V122.138L93.9087 121.58V130.274C93.9087 130.61 93.9867 130.856 94.1427 131.012C94.3107 131.156 94.5987 131.228 95.0067 131.228C95.3067 131.228 95.6007 131.156 95.8887 131.012L96.0147 133.532C95.2107 133.94 94.3107 134.144 93.3147 134.144ZM101.197 134.144C100.177 134.144 99.3855 133.826 98.8215 133.19C98.2695 132.542 97.9935 131.66 97.9935 130.544V122.138L101.791 121.58V130.274C101.791 130.61 101.869 130.856 102.025 131.012C102.193 131.156 102.481 131.228 102.889 131.228C103.189 131.228 103.483 131.156 103.771 131.012L103.897 133.532C103.093 133.94 102.193 134.144 101.197 134.144ZM110.574 134.144C109.578 134.144 108.69 133.946 107.91 133.55C107.142 133.142 106.542 132.59 106.11 131.894C105.678 131.186 105.462 130.388 105.462 129.5C105.462 128.588 105.684 127.778 106.128 127.07C106.572 126.362 107.172 125.816 107.928 125.432C108.684 125.048 109.524 124.856 110.448 124.856C111.336 124.856 112.092 125.054 112.716 125.45C113.352 125.834 113.826 126.362 114.138 127.034C114.45 127.694 114.606 128.438 114.606 129.266C114.606 129.482 114.594 129.638 114.57 129.734L109.17 130.436C109.314 130.856 109.548 131.162 109.872 131.354C110.196 131.534 110.622 131.624 111.15 131.624C111.966 131.624 112.848 131.414 113.796 130.994L114.246 133.406C113.13 133.898 111.906 134.144 110.574 134.144ZM111.816 128.168C111.624 127.412 111.168 127.034 110.448 127.034C110.016 127.034 109.674 127.196 109.422 127.52C109.17 127.844 109.038 128.264 109.026 128.78L111.816 128.168Z" fill="#393A32"/>
<rect x="46" y="145.901" width="65.45" height="0.897773" fill="#082D74"/>
<rect x="57.7808" y="145" width="13.9627" height="3.1422" fill="#3F8D43"/>
<rect x="71.7454" y="145" width="13.9627" height="3.1422" fill="white"/>
<rect x="85.7046" y="145" width="13.9627" height="3.1422" fill="#D12C29"/>
<path d="M78.6375 38.9355C62.192 38.9355 48.8127 52.3149 48.8127 68.7603C48.8127 85.2057 62.192 98.5851 78.6375 98.5851C95.083 98.5851 108.462 85.2057 108.462 68.7603C108.462 52.3149 95.083 38.9355 78.6375 38.9355ZM89.311 67.7658C89.0688 65.729 88.2366 63.8074 86.9167 62.2374L98.6361 51.0501C102.747 55.6731 105.119 61.5836 105.344 67.7658H89.311ZM78.8203 76.4889C77.3429 76.4889 75.8986 76.0508 74.6702 75.23C73.4418 74.4092 72.4844 73.2426 71.919 71.8776C71.3536 70.5127 71.2057 69.0108 71.4939 67.5617C71.7821 66.1127 72.4935 64.7817 73.5382 63.737C74.5829 62.6923 75.9139 61.9809 77.3629 61.6926C78.8119 61.4044 80.3139 61.5523 81.6788 62.1177C83.0438 62.6831 84.2104 63.6405 85.0313 64.8689C85.8521 66.0973 86.2902 67.5415 86.2902 69.0189C86.288 70.9994 85.5003 72.8981 84.0999 74.2985C82.6995 75.699 80.8008 76.4867 78.8203 76.4889V76.4889ZM84.5924 60.1738C83.318 59.3377 81.8769 58.789 80.3691 58.566V42.0908C86.3372 42.4746 92.0022 44.8568 96.4511 48.8535L84.5924 60.1738ZM77.2715 58.566C75.4584 58.8347 73.747 59.5726 72.307 60.7066L60.7507 49.5705C60.632 49.4563 60.4958 49.3619 60.3473 49.2908C64.9513 44.9487 70.9511 42.3881 77.2715 42.0677L77.2715 58.566ZM72.648 77.5886C74.0141 78.5778 75.5983 79.2236 77.2667 79.4714L77.2139 95.4494C71.156 95.1299 65.3889 92.7508 60.8678 88.7061C60.8995 88.6805 60.931 88.6545 60.9612 88.6261L72.648 77.5886ZM80.3644 79.4726C82.144 79.2099 83.8264 78.4951 85.2509 77.3964L96.0307 88.7864C96.0747 88.8324 96.1215 88.8757 96.1708 88.9159C91.7481 92.7784 86.1722 95.0699 80.3116 95.4335L80.3644 79.4726ZM58.3139 51.4231C58.3897 51.5631 58.4866 51.6906 58.6013 51.8011L70.1746 62.9537C69.2224 64.3039 68.6021 65.8597 68.3642 67.4946L52.5527 67.766C52.3356 67.7698 52.1218 67.8194 51.9252 67.9116C52.1128 61.8478 54.3669 56.0302 58.3139 51.4231V51.4231ZM51.9841 70.7449C52.1725 70.8234 52.3746 70.8637 52.5787 70.8634C52.5877 70.8634 52.5968 70.8634 52.6059 70.8633L68.3704 70.5925C68.6353 72.3519 69.3423 74.0153 70.4251 75.427L58.8343 86.3739C58.7834 86.4228 58.7358 86.475 58.692 86.5303C54.7758 82.1526 52.4174 76.6026 51.9841 70.7449V70.7449ZM98.3728 86.7651C98.3437 86.7282 98.3133 86.6919 98.2804 86.6571L87.4066 75.1678C88.3274 73.8875 88.9483 72.4164 89.2233 70.8634H105.282C104.817 76.7863 102.385 82.3837 98.3728 86.7651V86.7651Z" fill="#1A1A1A"/>
<path d="M116.134 71.315L114.431 67.6009L115.89 63.7842C115.986 63.5328 116.015 63.2607 115.974 62.9947C115.933 62.7287 115.823 62.478 115.656 62.2673L113.113 59.0685L113.617 55.0136C113.65 54.7465 113.613 54.4754 113.509 54.2269C113.406 53.9785 113.239 53.7613 113.026 53.5968L109.792 51.0995L109.311 47.0419C109.279 46.7746 109.178 46.5203 109.018 46.3038C108.858 46.0874 108.645 45.9164 108.398 45.8077L104.66 44.1569L103.222 40.3325C103.127 40.0806 102.968 39.8578 102.761 39.6859C102.554 39.514 102.306 39.3991 102.041 39.3524L98.0164 38.6441L95.7043 35.2752C95.5517 35.0535 95.3442 34.8754 95.102 34.7581C94.8598 34.6408 94.5914 34.5885 94.3229 34.6062L90.2461 34.8816L87.1949 32.1638C86.9939 31.9847 86.7498 31.8612 86.4865 31.8052C86.2232 31.7493 85.9499 31.7629 85.6935 31.8448L81.8011 33.0879L78.1882 31.1793C77.9502 31.0536 77.6836 30.9921 77.4146 31.0008C77.1456 31.0095 76.8836 31.0881 76.6542 31.2289L73.1723 33.3674L69.2076 32.3787C68.9464 32.3137 68.6728 32.3179 68.4138 32.3907C68.1547 32.4635 67.919 32.6025 67.73 32.794L64.8611 35.7037L60.775 35.6926H60.7708C60.5023 35.6926 60.2385 35.7624 60.0052 35.8951C59.7718 36.0278 59.577 36.2188 59.4397 36.4495L57.3505 39.9612L53.3806 40.9283C53.1191 40.992 52.8787 41.1227 52.6831 41.3076C52.4875 41.4925 52.3435 41.7252 52.2652 41.9827L51.077 45.8924L47.4539 47.7815C47.2152 47.906 47.0131 48.0905 46.8675 48.3168C46.7218 48.5431 46.6377 48.8035 46.6233 49.0723L46.4053 53.1524L43.3395 55.8538C43.1376 56.0317 42.9855 56.2592 42.8982 56.5138C42.811 56.7684 42.7916 57.0414 42.842 57.3058L43.6068 61.3197L41.2765 64.6761C41.1231 64.8972 41.0298 65.1545 41.0061 65.4226C40.9823 65.6907 41.0288 65.9603 41.1409 66.205L42.8441 69.9194L41.3849 73.7359C41.2888 73.9873 41.2598 74.2594 41.3009 74.5254C41.342 74.7914 41.4516 75.0421 41.6191 75.2528L44.1617 78.4515L43.6581 82.5064C43.625 82.7734 43.662 83.0446 43.7655 83.293C43.8691 83.5414 44.0355 83.7586 44.2486 83.9231L47.4828 86.4204L47.9643 90.4782C47.996 90.7455 48.0969 90.9998 48.2569 91.2163C48.4168 91.4327 48.6305 91.6037 48.8767 91.7124L52.6145 93.363L54.0531 97.1875C54.1479 97.4394 54.3066 97.6623 54.5138 97.8342C54.7209 98.006 54.9692 98.121 55.2343 98.1676L59.2586 98.876L61.5707 102.245C61.7229 102.467 61.9304 102.645 62.1727 102.763C62.4149 102.88 62.6836 102.932 62.9521 102.914L67.0289 102.638L70.0801 105.356C70.281 105.535 70.5251 105.659 70.7884 105.715C71.0517 105.771 71.325 105.757 71.5814 105.675L75.4739 104.432L79.0867 106.341C79.3247 106.467 79.5914 106.528 79.8604 106.519C80.1294 106.511 80.3915 106.432 80.6208 106.291L84.1027 104.153L88.0674 105.141C88.3285 105.206 88.6021 105.202 88.8612 105.129C89.1203 105.057 89.3559 104.917 89.5449 104.726L92.4139 101.816L96.4999 101.827H96.5041C96.7726 101.827 97.0364 101.758 97.2697 101.625C97.5031 101.492 97.698 101.301 97.8352 101.07L99.9244 97.5589L103.895 96.5916C104.156 96.5279 104.396 96.3971 104.592 96.2122C104.788 96.0273 104.932 95.7946 105.01 95.5371L106.198 91.6277L109.821 89.7386C110.06 89.6142 110.262 89.4297 110.408 89.2033C110.553 88.977 110.637 88.7166 110.652 88.4478L110.87 84.3675L113.935 81.6661C114.137 81.4882 114.289 81.2607 114.377 81.0061C114.464 80.7515 114.483 80.4785 114.433 80.2141L113.668 76.2002L115.998 72.8438C116.152 72.6227 116.245 72.3655 116.269 72.0974C116.293 71.8293 116.246 71.5596 116.134 71.315V71.315ZM110.504 76.1413L111.225 79.9262L108.334 82.4734C108.179 82.6095 108.053 82.7751 107.964 82.9605C107.874 83.1458 107.822 83.3472 107.811 83.5529L107.606 87.4004L104.189 89.1817C104.006 89.2769 103.845 89.4076 103.713 89.5661C103.582 89.7246 103.483 89.9077 103.423 90.1048L102.303 93.7912L98.5593 94.7033C98.3592 94.752 98.1709 94.8402 98.0053 94.9626C97.8397 95.085 97.7002 95.2391 97.5949 95.4161L95.6249 98.7273L91.7719 98.7169H91.7676C91.5624 98.7168 91.3592 98.7576 91.1699 98.8368C90.9806 98.916 90.8089 99.032 90.6648 99.1782L87.9595 101.922L84.221 100.99C84.0212 100.94 83.8135 100.93 83.61 100.962C83.4064 100.993 83.2112 101.065 83.0358 101.173L79.7526 103.189L76.3458 101.389C76.1637 101.293 75.9642 101.234 75.7591 101.216C75.554 101.198 75.3473 101.221 75.1511 101.283L71.4807 102.455L68.6036 99.8928C68.4498 99.7559 68.2702 99.6511 68.0754 99.5843C67.8806 99.5175 67.6745 99.4902 67.469 99.504L63.6248 99.7638L61.4446 96.5869C61.3281 96.4171 61.1789 96.2723 61.0057 96.1608C60.8325 96.0494 60.6389 95.9736 60.4361 95.9379L56.6414 95.2701L55.2848 91.6637C55.2123 91.4709 55.1021 91.2946 54.9606 91.1449C54.8191 90.9953 54.6492 90.8754 54.4608 90.7922L50.9362 89.2357L50.4821 85.4095C50.4579 85.205 50.3931 85.0074 50.2915 84.8282C50.19 84.6491 50.0537 84.492 49.8907 84.3661L46.8411 82.0113L47.3158 78.1877C47.3412 77.9833 47.3256 77.7759 47.2699 77.5777C47.2141 77.3794 47.1194 77.1942 46.9913 77.033L44.5938 74.0169L45.9697 70.4181C46.0433 70.2257 46.0777 70.0206 46.0711 69.8148C46.0644 69.609 46.0168 69.4066 45.9309 69.2194L44.3249 65.717L46.5222 62.5519C46.6397 62.3828 46.7222 62.1919 46.765 61.9904C46.8078 61.789 46.81 61.581 46.7714 61.3787L46.0502 57.5938L48.9412 55.0466C49.0957 54.9104 49.2215 54.7448 49.3112 54.5595C49.401 54.3741 49.4529 54.1727 49.4638 53.9671L49.6694 50.1197L53.0859 48.3384C53.2685 48.2432 53.4303 48.1125 53.5618 47.9541C53.6932 47.7956 53.7918 47.6125 53.8517 47.4155L54.9721 43.7287L58.7156 42.8168C58.9156 42.7681 59.104 42.6799 59.2696 42.5575C59.4352 42.4352 59.5748 42.281 59.6801 42.104L61.6501 38.7927L65.5031 38.8031H65.5073C65.7125 38.8031 65.9157 38.7623 66.105 38.6831C66.2943 38.6039 66.466 38.4879 66.6101 38.3418L69.3154 35.5981L73.054 36.5304C73.2538 36.5802 73.4615 36.5897 73.665 36.5582C73.8685 36.5268 74.0638 36.4551 74.2392 36.3474L77.5224 34.3309L80.9292 36.1306C81.1113 36.2268 81.3108 36.2856 81.5159 36.3038C81.721 36.322 81.9277 36.2992 82.1239 36.2367L85.7943 35.0645L88.6714 37.6271C88.8253 37.7639 89.0048 37.8687 89.1996 37.9355C89.3944 38.0022 89.6005 38.0296 89.8059 38.016L93.6501 37.7563L95.8304 40.9332C95.9469 41.103 96.0961 41.2478 96.2693 41.3592C96.4425 41.4707 96.6361 41.5465 96.8389 41.5822L100.634 42.25L101.99 45.8562C102.063 46.049 102.173 46.2253 102.314 46.375C102.456 46.5246 102.626 46.6445 102.814 46.7278L106.339 48.2843L106.793 52.1105C106.817 52.315 106.882 52.5126 106.983 52.6917C107.085 52.8708 107.221 53.0279 107.384 53.1538L110.434 55.5086L109.959 59.3323C109.934 59.5366 109.949 59.744 110.005 59.9423C110.061 60.1405 110.156 60.3257 110.284 60.4869L112.681 63.5032L111.305 67.102C111.232 67.2944 111.197 67.4995 111.204 67.7053C111.211 67.9111 111.258 68.1135 111.344 68.3007L112.95 71.8031L110.753 74.968C110.635 75.1372 110.553 75.3281 110.51 75.5295C110.467 75.731 110.465 75.9389 110.504 76.1413H110.504Z" fill="#1A1A1A"/>
</svg>
