<svg width="896" height="414" viewBox="0 0 896 414" fill="none" xmlns="http://www.w3.org/2000/svg">
<rect width="896" height="414" rx="30" fill="#FFD300"/>
<path d="M154.182 0H740.849V361.023L593.939 410.01H441.212H290.424L154.182 361.023V0Z" fill="url(#paint0_linear)"/>
<g opacity="0.5" filter="url(#filter0_i)">
<rect x="289.939" y="36.9106" width="315.152" height="255.383" rx="5" fill="#FFF8F8" fill-opacity="0.63"/>
<rect x="289.939" y="36.9106" width="315.152" height="255.383" rx="5" fill="url(#paint1_linear)"/>
</g>
<path d="M367.18 336.803H361.46V330.723H382.22V336.803H376.5V358.243H367.18V336.803ZM403.346 358.883C400.706 358.883 398.346 358.376 396.266 357.363C394.213 356.35 392.613 354.936 391.466 353.123C390.319 351.283 389.746 349.19 389.746 346.843V330.723H398.786V346.843C398.786 348.443 399.173 349.643 399.946 350.443C400.719 351.243 401.853 351.643 403.346 351.643C404.839 351.643 405.973 351.243 406.746 350.443C407.519 349.616 407.906 348.416 407.906 346.843V330.723H416.946V346.843C416.946 349.19 416.373 351.283 415.226 353.123C414.079 354.936 412.466 356.35 410.386 357.363C408.333 358.376 405.986 358.883 403.346 358.883ZM425.9 330.723H444.86V336.803H434.5V342.363H444.1V347.403H434.5V358.243H425.9V330.723ZM466.072 358.883C463.192 358.883 460.632 358.27 458.392 357.043C456.179 355.816 454.446 354.123 453.192 351.963C451.966 349.776 451.352 347.296 451.352 344.523C451.352 341.723 451.966 339.23 453.192 337.043C454.446 334.856 456.179 333.163 458.392 331.963C460.632 330.736 463.192 330.123 466.072 330.123C468.952 330.123 471.499 330.736 473.712 331.963C475.952 333.163 477.686 334.856 478.912 337.043C480.166 339.203 480.792 341.696 480.792 344.523C480.792 347.296 480.166 349.776 478.912 351.963C477.686 354.123 475.952 355.816 473.712 357.043C471.472 358.27 468.926 358.883 466.072 358.883ZM466.072 351.603C467.752 351.603 469.126 350.95 470.192 349.643C471.286 348.336 471.832 346.616 471.832 344.483C471.832 343.07 471.579 341.816 471.072 340.723C470.592 339.603 469.912 338.736 469.032 338.123C468.152 337.483 467.152 337.163 466.032 337.163C464.939 337.163 463.952 337.483 463.072 338.123C462.192 338.736 461.512 339.603 461.032 340.723C460.552 341.816 460.312 343.07 460.312 344.483C460.312 346.616 460.846 348.336 461.912 349.643C462.979 350.95 464.366 351.603 466.072 351.603ZM488.627 330.723H497.267V352.163H506.827V358.243H488.627V330.723ZM514.15 330.723H523.39V358.243H514.15V330.723Z" fill="white"/>
<path d="M367.18 336.803H367.68V336.303H367.18V336.803ZM361.46 336.803H360.96V337.303H361.46V336.803ZM361.46 330.723V330.223H360.96V330.723H361.46ZM382.22 330.723H382.72V330.223H382.22V330.723ZM382.22 336.803V337.303H382.72V336.803H382.22ZM376.5 336.803V336.303H376V336.803H376.5ZM376.5 358.243V358.743H377V358.243H376.5ZM367.18 358.243H366.68V358.743H367.18V358.243ZM367.18 336.303H361.46V337.303H367.18V336.303ZM361.96 336.803V330.723H360.96V336.803H361.96ZM361.46 331.223H382.22V330.223H361.46V331.223ZM381.72 330.723V336.803H382.72V330.723H381.72ZM382.22 336.303H376.5V337.303H382.22V336.303ZM376 336.803V358.243H377V336.803H376ZM376.5 357.743H367.18V358.743H376.5V357.743ZM367.68 358.243V336.803H366.68V358.243H367.68ZM396.266 357.363L396.045 357.812L396.047 357.813L396.266 357.363ZM391.466 353.123L391.042 353.388L391.043 353.39L391.466 353.123ZM389.746 330.723V330.223H389.246V330.723H389.746ZM398.786 330.723H399.286V330.223H398.786V330.723ZM399.946 350.443L399.586 350.791H399.586L399.946 350.443ZM406.746 350.443L407.105 350.791L407.111 350.785L406.746 350.443ZM407.906 330.723V330.223H407.406V330.723H407.906ZM416.946 330.723H417.446V330.223H416.946V330.723ZM415.226 353.123L415.648 353.39L415.65 353.388L415.226 353.123ZM410.386 357.363L410.167 356.914L410.165 356.915L410.386 357.363ZM403.346 358.383C400.771 358.383 398.488 357.889 396.485 356.914L396.047 357.813C398.204 358.864 400.641 359.383 403.346 359.383V358.383ZM396.487 356.915C394.511 355.939 392.983 354.586 391.888 352.856L391.043 353.39C392.242 355.287 393.915 356.76 396.045 357.812L396.487 356.915ZM391.89 352.859C390.797 351.105 390.246 349.104 390.246 346.843H389.246C389.246 349.275 389.841 351.462 391.042 353.388L391.89 352.859ZM390.246 346.843V330.723H389.246V346.843H390.246ZM389.746 331.223H398.786V330.223H389.746V331.223ZM398.286 330.723V346.843H399.286V330.723H398.286ZM398.286 346.843C398.286 348.516 398.69 349.863 399.586 350.791L400.305 350.096C399.655 349.423 399.286 348.37 399.286 346.843H398.286ZM399.586 350.791C400.483 351.718 401.765 352.143 403.346 352.143V351.143C401.94 351.143 400.956 350.768 400.305 350.096L399.586 350.791ZM403.346 352.143C404.927 352.143 406.209 351.718 407.105 350.791L406.386 350.096C405.736 350.768 404.752 351.143 403.346 351.143V352.143ZM407.111 350.785C408 349.835 408.406 348.494 408.406 346.843H407.406C407.406 348.339 407.039 349.398 406.381 350.102L407.111 350.785ZM408.406 346.843V330.723H407.406V346.843H408.406ZM407.906 331.223H416.946V330.223H407.906V331.223ZM416.446 330.723V346.843H417.446V330.723H416.446ZM416.446 346.843C416.446 349.104 415.895 351.105 414.802 352.859L415.65 353.388C416.85 351.462 417.446 349.275 417.446 346.843H416.446ZM414.803 352.856C413.71 354.585 412.17 355.938 410.167 356.914L410.605 357.813C412.762 356.762 414.448 355.288 415.648 353.39L414.803 352.856ZM410.165 356.915C408.19 357.889 405.921 358.383 403.346 358.383V359.383C406.051 359.383 408.475 358.864 410.607 357.812L410.165 356.915ZM425.9 330.723V330.223H425.4V330.723H425.9ZM444.86 330.723H445.36V330.223H444.86V330.723ZM444.86 336.803V337.303H445.36V336.803H444.86ZM434.5 336.803V336.303H434V336.803H434.5ZM434.5 342.363H434V342.863H434.5V342.363ZM444.1 342.363H444.6V341.863H444.1V342.363ZM444.1 347.403V347.903H444.6V347.403H444.1ZM434.5 347.403V346.903H434V347.403H434.5ZM434.5 358.243V358.743H435V358.243H434.5ZM425.9 358.243H425.4V358.743H425.9V358.243ZM425.9 331.223H444.86V330.223H425.9V331.223ZM444.36 330.723V336.803H445.36V330.723H444.36ZM444.86 336.303H434.5V337.303H444.86V336.303ZM434 336.803V342.363H435V336.803H434ZM434.5 342.863H444.1V341.863H434.5V342.863ZM443.6 342.363V347.403H444.6V342.363H443.6ZM444.1 346.903H434.5V347.903H444.1V346.903ZM434 347.403V358.243H435V347.403H434ZM434.5 357.743H425.9V358.743H434.5V357.743ZM426.4 358.243V330.723H425.4V358.243H426.4ZM458.392 357.043L458.15 357.48L458.152 357.482L458.392 357.043ZM453.192 351.963L452.756 352.208L452.76 352.214L453.192 351.963ZM453.192 337.043L452.759 336.795L452.756 336.799L453.192 337.043ZM458.392 331.963L458.631 332.403L458.633 332.402L458.392 331.963ZM473.712 331.963L473.47 332.401L473.476 332.404L473.712 331.963ZM478.912 337.043L478.476 337.288L478.48 337.294L478.912 337.043ZM478.912 351.963L478.479 351.715L478.478 351.716L478.912 351.963ZM473.712 357.043L473.953 357.482L473.712 357.043ZM470.192 349.643L469.809 349.322L469.805 349.327L470.192 349.643ZM471.072 340.723L470.613 340.92L470.616 340.927L470.619 340.933L471.072 340.723ZM469.032 338.123L468.738 338.528L468.747 338.533L469.032 338.123ZM463.072 338.123L463.358 338.533L463.367 338.528L463.072 338.123ZM461.032 340.723L461.49 340.924L461.492 340.92L461.032 340.723ZM466.072 358.383C463.266 358.383 460.79 357.786 458.633 356.605L458.152 357.482C460.475 358.754 463.119 359.383 466.072 359.383V358.383ZM458.635 356.606C456.499 355.422 454.832 353.793 453.625 351.712L452.76 352.214C454.059 354.453 455.859 356.211 458.15 357.48L458.635 356.606ZM453.629 351.719C452.448 349.614 451.852 347.22 451.852 344.523H450.852C450.852 347.373 451.483 349.939 452.756 352.208L453.629 351.719ZM451.852 344.523C451.852 341.799 452.449 339.391 453.629 337.288L452.756 336.799C451.483 339.068 450.852 341.648 450.852 344.523H451.852ZM453.626 337.292C454.833 335.186 456.499 333.558 458.631 332.403L458.154 331.524C455.859 332.768 454.058 334.527 452.759 336.795L453.626 337.292ZM458.633 332.402C460.79 331.22 463.266 330.623 466.072 330.623V329.623C463.119 329.623 460.475 330.253 458.152 331.525L458.633 332.402ZM466.072 330.623C468.88 330.623 471.341 331.22 473.47 332.4L473.955 331.526C471.658 330.253 469.025 329.623 466.072 329.623V330.623ZM473.476 332.404C475.634 333.56 477.297 335.185 478.476 337.288L479.349 336.799C478.075 334.528 476.271 332.767 473.949 331.522L473.476 332.404ZM478.48 337.294C479.684 339.368 480.292 341.773 480.292 344.523H481.292C481.292 341.62 480.648 339.038 479.345 336.792L478.48 337.294ZM480.292 344.523C480.292 347.218 479.684 349.611 478.479 351.715L479.346 352.212C480.647 349.942 481.292 347.375 481.292 344.523H480.292ZM478.478 351.716C477.298 353.793 475.633 355.421 473.472 356.605L473.953 357.482C476.272 356.212 478.073 354.453 479.347 352.21L478.478 351.716ZM473.472 356.605C471.314 357.786 468.852 358.383 466.072 358.383V359.383C469 359.383 471.631 358.753 473.953 357.482L473.472 356.605ZM466.072 352.103C467.903 352.103 469.419 351.382 470.58 349.959L469.805 349.327C468.833 350.518 467.602 351.103 466.072 351.103V352.103ZM470.576 349.964C471.762 348.547 472.332 346.703 472.332 344.483H471.332C471.332 346.53 470.81 348.126 469.809 349.322L470.576 349.964ZM472.332 344.483C472.332 343.01 472.068 341.683 471.526 340.513L470.619 340.933C471.09 341.95 471.332 343.13 471.332 344.483H472.332ZM471.532 340.526C471.02 339.332 470.285 338.387 469.318 337.713L468.747 338.533C469.54 339.086 470.165 339.874 470.613 340.92L471.532 340.526ZM469.327 337.719C468.358 337.015 467.255 336.663 466.032 336.663V337.663C467.05 337.663 467.946 337.952 468.738 338.528L469.327 337.719ZM466.032 336.663C464.834 336.663 463.744 337.016 462.778 337.719L463.367 338.528C464.161 337.95 465.044 337.663 466.032 337.663V336.663ZM462.787 337.713C461.82 338.387 461.085 339.332 460.573 340.526L461.492 340.92C461.94 339.874 462.565 339.086 463.358 338.533L462.787 337.713ZM460.575 340.522C460.062 341.689 459.812 343.013 459.812 344.483H460.812C460.812 343.127 461.043 341.944 461.49 340.924L460.575 340.522ZM459.812 344.483C459.812 346.701 460.368 348.542 461.525 349.959L462.3 349.327C461.324 348.131 460.812 346.532 460.812 344.483H459.812ZM461.525 349.959C462.688 351.384 464.218 352.103 466.072 352.103V351.103C464.514 351.103 463.27 350.516 462.3 349.327L461.525 349.959ZM488.627 330.723V330.223H488.127V330.723H488.627ZM497.267 330.723H497.767V330.223H497.267V330.723ZM497.267 352.163H496.767V352.663H497.267V352.163ZM506.827 352.163H507.327V351.663H506.827V352.163ZM506.827 358.243V358.743H507.327V358.243H506.827ZM488.627 358.243H488.127V358.743H488.627V358.243ZM488.627 331.223H497.267V330.223H488.627V331.223ZM496.767 330.723V352.163H497.767V330.723H496.767ZM497.267 352.663H506.827V351.663H497.267V352.663ZM506.327 352.163V358.243H507.327V352.163H506.327ZM506.827 357.743H488.627V358.743H506.827V357.743ZM489.127 358.243V330.723H488.127V358.243H489.127ZM514.15 330.723V330.223H513.65V330.723H514.15ZM523.39 330.723H523.89V330.223H523.39V330.723ZM523.39 358.243V358.743H523.89V358.243H523.39ZM514.15 358.243H513.65V358.743H514.15V358.243ZM514.15 331.223H523.39V330.223H514.15V331.223ZM522.89 330.723V358.243H523.89V330.723H522.89ZM523.39 357.743H514.15V358.743H523.39V357.743ZM514.65 358.243V330.723H513.65V358.243H514.65Z" fill="#2DA2E7"/>
<path d="M164.848 0H171.636V367.113L164.848 365.139V0Z" fill="white"/>
<path d="M723.394 0H730.182V364.619L723.394 367.113V0Z" fill="white"/>
<rect x="375.273" y="386.067" width="145.455" height="1.99518" fill="#082D74"/>
<rect x="401.455" y="384.072" width="31.0303" height="6.98313" fill="#3F8D43"/>
<rect x="432.485" y="384.072" width="31.0303" height="6.98313" fill="white"/>
<rect x="463.515" y="384.072" width="31.0303" height="6.98313" fill="#D12C29"/>
<path opacity="0.9" d="M576.765 221.169L521.104 155.452C516.78 150.346 509.825 149.973 502.296 152.396C494.747 154.824 486.458 160.103 479.226 166.585C471.994 173.068 465.778 180.793 462.406 188.153C459.043 195.495 458.451 202.633 462.775 207.739L518.437 273.456C522.761 278.561 529.715 278.934 537.245 276.512C544.794 274.083 553.083 268.805 560.315 262.323C567.546 255.84 573.763 248.115 577.134 240.754C580.497 233.412 581.09 226.274 576.765 221.169ZM466.395 204.539C463.783 200.414 464.593 194.69 467.726 188.484C470.852 182.29 476.222 175.768 482.415 170.216C488.609 164.664 495.59 160.114 501.916 157.834C508.258 155.548 513.777 155.594 517.263 158.929C520.2 162.419 519.499 167.831 516.268 174.007C513.054 180.149 507.442 186.824 501.018 192.583C494.594 198.342 487.398 203.148 481.044 205.582C474.659 208.028 469.355 208.003 466.395 204.539Z" fill="#FEF7BA" fill-opacity="0.93" stroke="#FEF7BA"/>
<path opacity="0.69" d="M561.93 72.4832L507.058 102.622C504.867 103.826 503.524 105.921 502.859 108.569C502.197 111.208 502.2 114.423 502.709 117.949C503.726 125.005 506.79 133.437 510.863 141.285C514.936 149.133 520.042 156.444 525.175 161.239C527.74 163.636 530.336 165.427 532.835 166.329C535.343 167.234 537.783 167.252 539.974 166.048L594.847 135.909C597.038 134.706 598.381 132.61 599.045 129.962C599.707 127.324 599.705 124.108 599.196 120.582C598.178 113.527 595.115 105.095 591.041 97.2464C586.968 89.3981 581.863 82.0878 576.73 77.2925C574.165 74.8958 571.569 73.1048 569.07 72.2027C566.561 71.2974 564.121 71.2797 561.93 72.4832ZM537.942 162.041C536.337 162.581 534.511 162.341 532.522 161.408C530.517 160.467 528.388 158.841 526.24 156.696C521.944 152.408 517.639 146.123 514.146 139.391C510.652 132.66 507.99 125.519 506.953 119.533C506.434 116.539 506.327 113.861 506.709 111.679C507.088 109.513 507.938 107.88 509.301 106.875C510.679 106.132 512.323 106.215 514.198 107.06C516.09 107.912 518.156 109.517 520.282 111.694C524.531 116.043 528.924 122.575 532.547 129.556C536.17 136.537 539.002 143.927 540.151 149.978C540.726 153.007 540.873 155.665 540.509 157.757C540.149 159.826 539.304 161.276 537.942 162.041Z" fill="#FEF7BA" fill-opacity="0.93" stroke="#FEF7BA"/>
<path opacity="0.69" d="M466.317 267.559L500.612 208.845C503.304 204.234 501.918 198.777 498.394 193.596C494.86 188.403 489.097 183.35 482.719 179.408C476.342 175.465 469.3 172.602 463.183 171.83C457.083 171.06 451.748 172.363 449.055 176.974L414.76 235.688C412.067 240.298 413.454 245.756 416.978 250.936C420.512 256.13 426.275 261.182 432.652 265.125C439.03 269.068 446.072 271.931 452.189 272.702C458.289 273.472 463.624 272.169 466.317 267.559ZM452.401 179.081C454.729 176.117 458.991 175.328 464.179 176.194C469.356 177.059 475.301 179.555 480.745 182.92C486.19 186.286 491.093 190.496 494.208 194.756C497.331 199.028 498.566 203.212 497.008 206.646C495.213 209.69 491.213 210.49 486.021 209.54C480.86 208.596 474.747 205.952 469.099 202.461C463.45 198.969 458.312 194.657 455.079 190.413C451.829 186.145 450.637 182.139 452.401 179.081Z" fill="#FEF7BA" fill-opacity="0.93" stroke="#FEF7BA"/>
<path opacity="0.7" d="M353.202 145.406L399.667 91.8413C403.325 87.624 402.641 81.4605 399.609 75.0602C396.563 68.6287 391.066 61.762 384.724 55.9116C378.382 50.0612 371.155 45.1894 364.618 42.781C358.114 40.3842 352.098 40.3674 348.44 44.5847L301.976 98.1496C298.317 102.367 299.001 108.53 302.033 114.931C305.079 121.362 310.576 128.229 316.918 134.079C323.26 139.93 330.488 144.802 337.024 147.21C343.528 149.607 349.544 149.624 353.202 145.406ZM351.653 47.5983C354.645 45.0554 359.429 45.3186 364.982 47.6037C370.514 49.8801 376.627 54.0953 382.057 59.1042C387.487 64.1134 392.198 69.8846 394.949 75.2474C397.712 80.6358 398.408 85.4241 396.184 88.6662C394.976 90.0464 393.264 90.6911 391.141 90.6957C388.999 90.7004 386.47 90.05 383.718 88.8711C378.217 86.5145 371.943 82.098 366.311 76.9025C360.679 71.707 355.726 65.7671 352.845 60.3903C351.403 57.7006 350.496 55.1811 350.263 52.985C350.032 50.8131 350.461 48.9893 351.653 47.5983Z" fill="#FEF7BA" fill-opacity="0.93" stroke="#FEF7BA"/>
<path opacity="0.9" d="M355.513 284.134L425.453 247.242C430.935 244.35 432.603 237.567 431.886 229.518C431.164 221.427 428.024 211.829 423.595 202.941C419.165 194.053 413.422 185.828 407.457 180.503C401.523 175.205 395.195 172.64 389.713 175.531L319.773 212.423C314.292 215.315 312.623 222.098 313.341 230.147C314.063 238.238 317.203 247.836 321.632 256.724C326.062 265.612 331.805 273.837 337.77 279.162C343.704 284.46 350.032 287.025 355.513 284.134ZM391.875 179.953C396.054 178.525 401.036 180.861 406.03 185.656C411.005 190.432 415.837 197.508 419.636 205.13C423.435 212.752 426.179 220.878 427.005 227.74C427.836 234.635 426.711 240.033 423.075 242.532C421.247 243.485 419.171 243.438 416.91 242.532C414.631 241.62 412.201 239.846 409.744 237.421C404.833 232.573 399.91 225.216 395.97 217.311C392.03 209.406 389.097 200.999 388.137 194.067C387.657 190.599 387.675 187.534 388.285 185.098C388.889 182.684 390.061 180.924 391.875 179.953Z" fill="#FEF7BA" fill-opacity="0.93" stroke="#FEF7BA"/>
<path opacity="0.8" d="M476.515 43.6757L429.752 89.766C427.884 91.6073 427.171 94.1554 427.324 97.094C427.477 100.024 428.49 103.383 430.121 106.937C433.386 114.048 439.181 122.062 445.828 129.2C452.476 136.339 460.011 142.638 466.777 146.298C470.158 148.127 473.377 149.312 476.216 149.595C479.063 149.878 481.568 149.254 483.436 147.413L530.2 101.323C532.068 99.4815 532.781 96.9335 532.628 93.9949C532.475 91.0651 531.462 87.7059 529.83 84.1521C526.566 77.0409 520.771 69.027 514.123 61.8884C507.476 54.7498 499.941 48.4504 493.175 44.7909C489.794 42.962 486.575 41.7764 483.736 41.4938C480.889 41.2104 478.384 41.8343 476.515 43.6757ZM480.16 143.83C478.683 144.821 476.729 145.054 474.386 144.602C472.025 144.146 469.323 143.002 466.439 141.321C460.673 137.962 454.271 132.512 448.563 126.382C442.854 120.252 437.867 113.472 434.911 107.467C433.433 104.463 432.476 101.679 432.178 99.2842C431.882 96.9047 432.242 94.9641 433.322 93.551C434.5 92.4083 436.217 92.0565 438.418 92.4475C440.636 92.8414 443.268 93.9796 446.139 95.6992C451.874 99.1351 458.445 104.82 464.365 111.177C470.285 117.533 475.524 124.53 478.615 130.573C480.162 133.597 481.155 136.351 481.442 138.647C481.727 140.922 481.314 142.668 480.16 143.83Z" fill="#FEF7BA" fill-opacity="0.93" stroke="#FEF7BA"/>
<path opacity="0.8" d="M436.501 125.599L373.542 95.5747C371.045 94.3841 368.344 94.562 365.614 95.7332C362.893 96.9007 360.114 99.0651 357.402 101.906C351.976 107.591 346.727 116.081 342.661 125.107C338.594 134.132 335.688 143.739 334.977 151.673C334.622 155.638 334.813 159.218 335.705 162.109C336.601 165.009 338.215 167.245 340.711 168.436L403.67 198.46C406.167 199.651 408.868 199.473 411.598 198.302C414.319 197.134 417.098 194.97 419.81 192.129C425.237 186.444 430.485 177.954 434.552 168.928C438.618 159.903 441.525 150.296 442.235 142.362C442.59 138.397 442.399 134.817 441.507 131.926C440.611 129.025 438.997 126.79 436.501 125.599ZM342.767 163.977C341.204 162.858 340.179 161.004 339.65 158.539C339.118 156.055 339.1 152.998 339.517 149.576C340.351 142.734 342.911 134.541 346.403 126.793C349.894 119.044 354.299 111.78 358.797 106.786C361.047 104.288 363.302 102.379 365.458 101.253C367.6 100.135 369.603 99.8093 371.408 100.389C372.999 101.161 374.04 102.745 374.569 105.048C375.103 107.37 375.097 110.356 374.638 113.778C373.718 120.617 371.003 129.058 367.383 137.093C363.762 145.128 359.255 152.715 354.776 157.856C352.535 160.429 350.323 162.363 348.257 163.444C346.21 164.515 344.366 164.722 342.767 163.977Z" fill="#FEF7BA" fill-opacity="0.93" stroke="#FEF7BA"/>
<defs>
<filter id="filter0_i" x="289.939" y="36.9106" width="315.152" height="264.383" filterUnits="userSpaceOnUse" color-interpolation-filters="sRGB">
<feFlood flood-opacity="0" result="BackgroundImageFix"/>
<feBlend mode="normal" in="SourceGraphic" in2="BackgroundImageFix" result="shape"/>
<feColorMatrix in="SourceAlpha" type="matrix" values="0 0 0 0 0 0 0 0 0 0 0 0 0 0 0 0 0 0 127 0" result="hardAlpha"/>
<feOffset dy="9"/>
<feGaussianBlur stdDeviation="18.5"/>
<feComposite in2="hardAlpha" operator="arithmetic" k2="-1" k3="1"/>
<feColorMatrix type="matrix" values="0 0 0 0 0 0 0 0 0 0 0 0 0 0 0 0 0 0 0.25 0"/>
<feBlend mode="normal" in2="shape" result="effect1_innerShadow"/>
</filter>
<linearGradient id="paint0_linear" x1="447.515" y1="-5.03621e-07" x2="447.515" y2="407.543" gradientUnits="userSpaceOnUse">
<stop stop-color="#082D74"/>
<stop offset="0.302083" stop-color="#082D74" stop-opacity="0.85"/>
<stop offset="0.666667" stop-color="#2179B9"/>
<stop offset="1" stop-color="#2DA2E7"/>
</linearGradient>
<linearGradient id="paint1_linear" x1="447.515" y1="36.9106" x2="447.515" y2="292.294" gradientUnits="userSpaceOnUse">
<stop stop-color="white" stop-opacity="0.5"/>
<stop offset="0.952978" stop-color="white" stop-opacity="0"/>
</linearGradient>
</defs>
</svg>
