<svg width="158" height="224" viewBox="0 0 158 224" fill="none" xmlns="http://www.w3.org/2000/svg">
<rect width="158" height="224" rx="5" fill="#FF4242"/>
<circle cx="79" cy="112" r="61" fill="#E0D6D6"/>
<circle cx="79" cy="112" r="51.6154" fill="#4B8174"/>
<circle cx="78.4134" cy="111.413" r="39.2981" fill="#E0D6D6"/>
<path fill-rule="evenodd" clip-rule="evenodd" d="M58.8531 103.037V101.778C58.8531 99.6912 60.5443 98 62.6309 98H95.3729C97.4582 98 99.1507 99.6912 99.1507 101.778V103.037C100.794 103.038 102.193 104.089 102.711 105.556H109.222C111.309 105.556 113 107.247 113 109.333C113 111.42 111.309 113.111 109.222 113.111H102.884C102.236 122.957 94.0456 130.741 84.037 130.741H73.963C63.9544 130.741 55.7641 122.957 55.1156 113.111H48.7778C46.6912 113.111 45 111.42 45 109.333C45 107.247 46.6912 105.556 48.7778 105.556H55.2894C55.807 104.089 57.2073 103.037 58.8531 103.037ZM99.1481 105.556H58.8519C58.1567 105.556 57.5926 106.12 57.5926 106.815V111.852C57.5926 120.893 64.9215 128.222 73.963 128.222H84.037C93.0785 128.222 100.407 120.893 100.407 111.852V106.815C100.407 106.12 99.8433 105.556 99.1481 105.556ZM102.926 108.074V110.593H109.222C109.917 110.593 110.481 110.028 110.481 109.333C110.481 108.638 109.917 108.074 109.222 108.074H102.926ZM55.0741 108.074H48.7778C48.0827 108.074 47.5185 108.638 47.5185 109.333C47.5185 110.028 48.0827 110.593 48.7778 110.593H55.0741V108.074ZM61.3716 103.037H96.6321V101.778C96.6321 101.083 96.068 100.519 95.3729 100.519H62.6309C61.9345 100.519 61.3716 101.083 61.3716 101.778V103.037Z" fill="#1A1A1A"/>
<path fill-rule="evenodd" clip-rule="evenodd" d="M79 125.704C78.3045 125.704 77.7407 125.14 77.7407 124.444C77.7407 123.749 78.3045 123.185 79 123.185C79.6955 123.185 80.2592 123.749 80.2592 124.444C80.2592 125.14 79.6955 125.704 79 125.704Z" fill="#1A1A1A"/>
<path fill-rule="evenodd" clip-rule="evenodd" d="M79 115.63C78.3045 115.63 77.7407 115.066 77.7407 114.37C77.7407 113.675 78.3045 113.111 79 113.111C79.6955 113.111 80.2592 113.675 80.2592 114.37C80.2592 115.066 79.6955 115.63 79 115.63Z" fill="#1A1A1A"/>
<path fill-rule="evenodd" clip-rule="evenodd" d="M73.963 125.704C73.2675 125.704 72.7037 125.14 72.7037 124.444C72.7037 123.749 73.2675 123.185 73.963 123.185C74.6585 123.185 75.2223 123.749 75.2223 124.444C75.2223 125.14 74.6585 125.704 73.963 125.704Z" fill="#1A1A1A"/>
<path fill-rule="evenodd" clip-rule="evenodd" d="M73.963 115.63C73.2675 115.63 72.7037 115.066 72.7037 114.37C72.7037 113.675 73.2675 113.111 73.963 113.111C74.6585 113.111 75.2223 113.675 75.2223 114.37C75.2223 115.066 74.6585 115.63 73.963 115.63Z" fill="#1A1A1A"/>
<path fill-rule="evenodd" clip-rule="evenodd" d="M68.9248 115.63C68.2293 115.63 67.6655 115.066 67.6655 114.37C67.6655 113.675 68.2293 113.111 68.9248 113.111C69.6203 113.111 70.184 113.675 70.184 114.37C70.184 115.066 69.6203 115.63 68.9248 115.63Z" fill="#1A1A1A"/>
<path fill-rule="evenodd" clip-rule="evenodd" d="M89.0741 115.63C88.3786 115.63 87.8148 115.066 87.8148 114.37C87.8148 113.675 88.3786 113.111 89.0741 113.111C89.7695 113.111 90.3333 113.675 90.3333 114.37C90.3333 115.066 89.7695 115.63 89.0741 115.63Z" fill="#1A1A1A"/>
<path fill-rule="evenodd" clip-rule="evenodd" d="M94.1111 115.63C93.4156 115.63 92.8518 115.066 92.8518 114.37C92.8518 113.675 93.4156 113.111 94.1111 113.111C94.8065 113.111 95.3703 113.675 95.3703 114.37C95.3703 115.066 94.8065 115.63 94.1111 115.63Z" fill="#1A1A1A"/>
<path fill-rule="evenodd" clip-rule="evenodd" d="M63.8863 115.63C63.1909 115.63 62.6271 115.066 62.6271 114.37C62.6271 113.675 63.1909 113.111 63.8863 113.111C64.5818 113.111 65.1456 113.675 65.1456 114.37C65.1456 115.066 64.5818 115.63 63.8863 115.63Z" fill="#1A1A1A"/>
<path fill-rule="evenodd" clip-rule="evenodd" d="M84.037 125.704C83.3415 125.704 82.7777 125.14 82.7777 124.444C82.7777 123.749 83.3415 123.185 84.037 123.185C84.7324 123.185 85.2962 123.749 85.2962 124.444C85.2962 125.14 84.7324 125.704 84.037 125.704Z" fill="#1A1A1A"/>
<path fill-rule="evenodd" clip-rule="evenodd" d="M84.037 115.63C83.3415 115.63 82.7777 115.066 82.7777 114.37C82.7777 113.675 83.3415 113.111 84.037 113.111C84.7324 113.111 85.2962 113.675 85.2962 114.37C85.2962 115.066 84.7324 115.63 84.037 115.63Z" fill="#1A1A1A"/>
<path fill-rule="evenodd" clip-rule="evenodd" d="M81.5185 120.667C80.8231 120.667 80.2593 120.103 80.2593 119.407C80.2593 118.712 80.8231 118.148 81.5185 118.148C82.214 118.148 82.7778 118.712 82.7778 119.407C82.7778 120.103 82.214 120.667 81.5185 120.667Z" fill="#1A1A1A"/>
<path fill-rule="evenodd" clip-rule="evenodd" d="M81.5198 110.593C80.8243 110.593 80.2605 110.029 80.2605 109.333C80.2605 108.638 80.8243 108.074 81.5198 108.074C82.2152 108.074 82.779 108.638 82.779 109.333C82.779 110.029 82.2152 110.593 81.5198 110.593Z" fill="#1A1A1A"/>
<path fill-rule="evenodd" clip-rule="evenodd" d="M76.4815 120.667C75.7861 120.667 75.2223 120.103 75.2223 119.407C75.2223 118.712 75.7861 118.148 76.4815 118.148C77.177 118.148 77.7408 118.712 77.7408 119.407C77.7408 120.103 77.177 120.667 76.4815 120.667Z" fill="#1A1A1A"/>
<path fill-rule="evenodd" clip-rule="evenodd" d="M76.4826 110.593C75.7872 110.593 75.2234 110.029 75.2234 109.333C75.2234 108.638 75.7872 108.074 76.4826 108.074C77.1781 108.074 77.7419 108.638 77.7419 109.333C77.7419 110.029 77.1781 110.593 76.4826 110.593Z" fill="#1A1A1A"/>
<path fill-rule="evenodd" clip-rule="evenodd" d="M71.4444 120.667C70.749 120.667 70.1852 120.103 70.1852 119.407C70.1852 118.712 70.749 118.148 71.4444 118.148C72.1399 118.148 72.7037 118.712 72.7037 119.407C72.7037 120.103 72.1399 120.667 71.4444 120.667Z" fill="#1A1A1A"/>
<path fill-rule="evenodd" clip-rule="evenodd" d="M71.4444 110.593C70.749 110.593 70.1852 110.029 70.1852 109.333C70.1852 108.638 70.749 108.074 71.4444 108.074C72.1399 108.074 72.7037 108.638 72.7037 109.333C72.7037 110.029 72.1399 110.593 71.4444 110.593Z" fill="#1A1A1A"/>
<path fill-rule="evenodd" clip-rule="evenodd" d="M66.4062 120.667C65.7108 120.667 65.147 120.103 65.147 119.407C65.147 118.712 65.7108 118.148 66.4062 118.148C67.1017 118.148 67.6655 118.712 67.6655 119.407C67.6655 120.103 67.1017 120.667 66.4062 120.667Z" fill="#1A1A1A"/>
<path fill-rule="evenodd" clip-rule="evenodd" d="M66.4075 110.593C65.712 110.593 65.1482 110.029 65.1482 109.333C65.1482 108.638 65.712 108.074 66.4075 108.074C67.1029 108.074 67.6667 108.638 67.6667 109.333C67.6667 110.029 67.1029 110.593 66.4075 110.593Z" fill="#1A1A1A"/>
<path fill-rule="evenodd" clip-rule="evenodd" d="M61.3678 110.593C60.6723 110.593 60.1085 110.029 60.1085 109.333C60.1085 108.638 60.6723 108.074 61.3678 108.074C62.0632 108.074 62.627 108.638 62.627 109.333C62.627 110.029 62.0632 110.593 61.3678 110.593Z" fill="#1A1A1A"/>
<path fill-rule="evenodd" clip-rule="evenodd" d="M86.5556 120.667C85.8602 120.667 85.2964 120.103 85.2964 119.407C85.2964 118.712 85.8602 118.148 86.5556 118.148C87.2511 118.148 87.8149 118.712 87.8149 119.407C87.8149 120.103 87.2511 120.667 86.5556 120.667Z" fill="#1A1A1A"/>
<path fill-rule="evenodd" clip-rule="evenodd" d="M86.5567 110.593C85.8613 110.593 85.2975 110.029 85.2975 109.333C85.2975 108.638 85.8613 108.074 86.5567 108.074C87.2522 108.074 87.816 108.638 87.816 109.333C87.816 110.029 87.2522 110.593 86.5567 110.593Z" fill="#1A1A1A"/>
<path fill-rule="evenodd" clip-rule="evenodd" d="M91.5925 120.667C90.897 120.667 90.3333 120.103 90.3333 119.407C90.3333 118.712 90.897 118.148 91.5925 118.148C92.288 118.148 92.8518 118.712 92.8518 119.407C92.8518 120.103 92.288 120.667 91.5925 120.667Z" fill="#1A1A1A"/>
<path fill-rule="evenodd" clip-rule="evenodd" d="M91.5939 110.593C90.8984 110.593 90.3346 110.029 90.3346 109.333C90.3346 108.638 90.8984 108.074 91.5939 108.074C92.2893 108.074 92.8531 108.638 92.8531 109.333C92.8531 110.029 92.2893 110.593 91.5939 110.593Z" fill="#1A1A1A"/>
<path fill-rule="evenodd" clip-rule="evenodd" d="M96.6296 110.593C95.9342 110.593 95.3704 110.029 95.3704 109.333C95.3704 108.638 95.9342 108.074 96.6296 108.074C97.3251 108.074 97.8889 108.638 97.8889 109.333C97.8889 110.029 97.3251 110.593 96.6296 110.593Z" fill="#1A1A1A"/>
</svg>
