<svg width="158" height="224" viewBox="0 0 158 224" fill="none" xmlns="http://www.w3.org/2000/svg">
<rect width="158" height="224" rx="5" fill="#FFD300"/>
<mask id="path-2-inside-1" fill="white">
<rect x="9" y="9" width="140" height="207" rx="2"/>
</mask>
<rect x="9" y="9" width="140" height="207" rx="2" fill="white" stroke="#2179B9" stroke-width="14" mask="url(#path-2-inside-1)"/>
<path d="M32.81 46.288C31.61 46.288 30.518 46.006 29.534 45.442C28.562 44.866 27.788 44.086 27.212 43.102C26.648 42.106 26.366 41.008 26.366 39.808C26.366 38.584 26.642 37.48 27.194 36.496C27.746 35.512 28.502 34.744 29.462 34.192C30.422 33.628 31.502 33.346 32.702 33.346C33.35 33.346 33.986 33.424 34.61 33.58C35.234 33.736 35.768 33.958 36.212 34.246L35.726 37.036C34.862 36.712 34.082 36.55 33.386 36.55C32.426 36.55 31.688 36.832 31.172 37.396C30.656 37.948 30.398 38.746 30.398 39.79C30.398 40.81 30.668 41.608 31.208 42.184C31.76 42.748 32.522 43.03 33.494 43.03C33.866 43.03 34.214 42.994 34.538 42.922C34.862 42.85 35.258 42.718 35.726 42.526L36.23 45.37C35.186 45.982 34.046 46.288 32.81 46.288ZM43.227 46.144C42.219 46.144 41.319 45.946 40.527 45.55C39.747 45.154 39.135 44.608 38.691 43.912C38.259 43.204 38.043 42.394 38.043 41.482C38.043 40.57 38.265 39.766 38.709 39.07C39.153 38.362 39.765 37.816 40.545 37.432C41.337 37.048 42.237 36.856 43.245 36.856C44.265 36.856 45.165 37.054 45.945 37.45C46.737 37.834 47.349 38.374 47.781 39.07C48.213 39.766 48.429 40.57 48.429 41.482C48.429 42.406 48.207 43.222 47.763 43.93C47.331 44.626 46.719 45.172 45.927 45.568C45.147 45.952 44.247 46.144 43.227 46.144ZM43.263 43.444C43.755 43.444 44.157 43.264 44.469 42.904C44.793 42.532 44.955 42.058 44.955 41.482C44.955 40.906 44.793 40.438 44.469 40.078C44.157 39.706 43.755 39.52 43.263 39.52C42.771 39.52 42.363 39.706 42.039 40.078C41.727 40.438 41.571 40.906 41.571 41.482C41.571 42.058 41.727 42.532 42.039 42.904C42.363 43.264 42.771 43.444 43.263 43.444ZM50.8582 37.108H54.4762V38.944C55.1722 37.552 56.2762 36.856 57.7882 36.856C58.9402 36.856 59.8402 37.27 60.4882 38.098C61.1482 38.914 61.4782 40.048 61.4782 41.5V46H57.6982V41.122C57.6982 40.606 57.5842 40.21 57.3562 39.934C57.1402 39.658 56.8342 39.52 56.4382 39.52C56.1502 39.52 55.8682 39.616 55.5922 39.808C55.3162 39.988 55.0882 40.252 54.9082 40.6C54.7402 40.948 54.6562 41.344 54.6562 41.788V46H50.8582V37.108ZM68.7416 46.144C67.7816 46.144 66.9296 45.952 66.1856 45.568C65.4536 45.172 64.8776 44.62 64.4576 43.912C64.0496 43.204 63.8456 42.4 63.8456 41.5C63.8456 40.636 64.0616 39.85 64.4936 39.142C64.9256 38.434 65.5136 37.876 66.2576 37.468C67.0016 37.06 67.8296 36.856 68.7416 36.856C69.9056 36.856 70.8236 37.096 71.4956 37.576L71.1536 39.97C70.4696 39.766 69.9056 39.664 69.4616 39.664C68.8856 39.664 68.4296 39.832 68.0936 40.168C67.7576 40.492 67.5896 40.936 67.5896 41.5C67.5896 42.064 67.7576 42.514 68.0936 42.85C68.4296 43.186 68.8736 43.354 69.4256 43.354C69.9056 43.354 70.4696 43.252 71.1176 43.048L71.4596 45.568C71.0516 45.772 70.6376 45.916 70.2176 46C69.7976 46.096 69.3056 46.144 68.7416 46.144ZM73.8659 34.138L77.6639 33.58V38.836C77.9279 38.2 78.3239 37.714 78.8519 37.378C79.3919 37.03 80.0399 36.856 80.7959 36.856C81.9479 36.856 82.8479 37.27 83.4959 38.098C84.1559 38.914 84.4859 40.048 84.4859 41.5V46H80.7059V41.122C80.7059 40.606 80.5919 40.21 80.3639 39.934C80.1479 39.658 79.8419 39.52 79.4459 39.52C79.1579 39.52 78.8759 39.616 78.5999 39.808C78.3239 39.988 78.0959 40.252 77.9159 40.6C77.7479 40.948 77.6639 41.344 77.6639 41.788V46H73.8659V34.138ZM90.4713 46.144C89.4633 46.144 88.6773 45.82 88.1133 45.172C87.5493 44.524 87.2673 43.642 87.2673 42.526V36.982H91.0833V42.364C91.0833 42.64 91.1553 42.856 91.2993 43.012C91.4553 43.156 91.6533 43.228 91.8933 43.228C92.1333 43.228 92.3793 43.156 92.6313 43.012L92.8293 45.514C92.5653 45.718 92.2173 45.874 91.7853 45.982C91.3653 46.09 90.9273 46.144 90.4713 46.144ZM89.1753 35.632C88.6113 35.632 88.1313 35.458 87.7353 35.11C87.3513 34.75 87.1593 34.312 87.1593 33.796C87.1593 33.28 87.3633 32.848 87.7713 32.5C88.1793 32.152 88.6473 31.978 89.1753 31.978C89.7273 31.978 90.2013 32.158 90.5973 32.518C91.0053 32.878 91.2093 33.304 91.2093 33.796C91.2093 34.324 91.0053 34.762 90.5973 35.11C90.1893 35.458 89.7153 35.632 89.1753 35.632ZM100.052 50.122C99.3915 50.122 98.7615 50.056 98.1615 49.924L98.4495 47.26C98.9175 47.332 99.3495 47.368 99.7455 47.368C100.49 47.368 101.054 47.146 101.438 46.702C101.822 46.27 102.05 45.538 102.122 44.506C101.414 45.502 100.334 46 98.8815 46C98.0895 46 97.3575 45.796 96.6855 45.388C96.0255 44.98 95.4975 44.428 95.1015 43.732C94.7175 43.036 94.5255 42.274 94.5255 41.446C94.5255 40.606 94.7175 39.838 95.1015 39.142C95.4855 38.434 96.0075 37.876 96.6675 37.468C97.3395 37.06 98.0715 36.856 98.8635 36.856C99.5955 36.856 100.232 37.048 100.772 37.432C101.324 37.804 101.684 38.308 101.852 38.944V36.856H105.65V43.714C105.65 45.814 105.17 47.404 104.21 48.484C103.262 49.576 101.876 50.122 100.052 50.122ZM100.052 43.3C100.532 43.3 100.946 43.132 101.294 42.796C101.642 42.448 101.828 42.04 101.852 41.572V41.428C101.828 40.972 101.636 40.57 101.276 40.222C100.928 39.874 100.52 39.7 100.052 39.7C99.5595 39.7 99.1395 39.88 98.7915 40.24C98.4435 40.588 98.2695 41.008 98.2695 41.5C98.2695 41.992 98.4435 42.418 98.7915 42.778C99.1395 43.126 99.5595 43.3 100.052 43.3ZM111.721 46.144C110.701 46.144 109.909 45.826 109.345 45.19C108.793 44.542 108.517 43.66 108.517 42.544V34.138L112.315 33.58V42.274C112.315 42.61 112.393 42.856 112.549 43.012C112.717 43.156 113.005 43.228 113.413 43.228C113.713 43.228 114.007 43.156 114.295 43.012L114.421 45.532C113.617 45.94 112.717 46.144 111.721 46.144ZM119.604 46.144C118.596 46.144 117.81 45.82 117.246 45.172C116.682 44.524 116.4 43.642 116.4 42.526V36.982H120.216V42.364C120.216 42.64 120.288 42.856 120.432 43.012C120.588 43.156 120.786 43.228 121.026 43.228C121.266 43.228 121.512 43.156 121.764 43.012L121.962 45.514C121.698 45.718 121.35 45.874 120.918 45.982C120.498 46.09 120.06 46.144 119.604 46.144ZM118.308 35.632C117.744 35.632 117.264 35.458 116.868 35.11C116.484 34.75 116.292 34.312 116.292 33.796C116.292 33.28 116.496 32.848 116.904 32.5C117.312 32.152 117.78 31.978 118.308 31.978C118.86 31.978 119.334 32.158 119.73 32.518C120.138 32.878 120.342 33.304 120.342 33.796C120.342 34.324 120.138 34.762 119.73 35.11C119.322 35.458 118.848 35.632 118.308 35.632ZM128.752 46.144C127.756 46.144 126.868 45.946 126.088 45.55C125.32 45.142 124.72 44.59 124.288 43.894C123.856 43.186 123.64 42.388 123.64 41.5C123.64 40.588 123.862 39.778 124.306 39.07C124.75 38.362 125.35 37.816 126.106 37.432C126.862 37.048 127.702 36.856 128.626 36.856C129.514 36.856 130.27 37.054 130.894 37.45C131.53 37.834 132.004 38.362 132.316 39.034C132.628 39.694 132.784 40.438 132.784 41.266C132.784 41.482 132.772 41.638 132.748 41.734L127.348 42.436C127.492 42.856 127.726 43.162 128.05 43.354C128.374 43.534 128.8 43.624 129.328 43.624C130.144 43.624 131.026 43.414 131.974 42.994L132.424 45.406C131.308 45.898 130.084 46.144 128.752 46.144ZM129.994 40.168C129.802 39.412 129.346 39.034 128.626 39.034C128.194 39.034 127.852 39.196 127.6 39.52C127.348 39.844 127.216 40.264 127.204 40.78L129.994 40.168Z" fill="#393A32"/>
<path d="M50.7027 169.096C50.0627 169.096 49.4947 168.968 48.9987 168.712C48.5107 168.448 48.1267 168.08 47.8467 167.608C47.5747 167.136 47.4387 166.6 47.4387 166C47.4387 165.424 47.5827 164.9 47.8707 164.428C48.1587 163.956 48.5507 163.584 49.0467 163.312C49.5427 163.04 50.0947 162.904 50.7027 162.904C51.4787 162.904 52.0907 163.064 52.5387 163.384L52.3107 164.98C51.8547 164.844 51.4787 164.776 51.1827 164.776C50.7987 164.776 50.4947 164.888 50.2707 165.112C50.0467 165.328 49.9347 165.624 49.9347 166C49.9347 166.376 50.0467 166.676 50.2707 166.9C50.4947 167.124 50.7907 167.236 51.1587 167.236C51.4787 167.236 51.8547 167.168 52.2867 167.032L52.5147 168.712C52.2427 168.848 51.9667 168.944 51.6867 169C51.4067 169.064 51.0787 169.096 50.7027 169.096ZM56.7246 169.096C56.0526 169.096 55.4526 168.964 54.9246 168.7C54.4046 168.436 53.9966 168.072 53.7006 167.608C53.4126 167.136 53.2686 166.596 53.2686 165.988C53.2686 165.38 53.4166 164.844 53.7126 164.38C54.0086 163.908 54.4166 163.544 54.9366 163.288C55.4646 163.032 56.0646 162.904 56.7366 162.904C57.4166 162.904 58.0166 163.036 58.5366 163.3C59.0646 163.556 59.4726 163.916 59.7606 164.38C60.0486 164.844 60.1926 165.38 60.1926 165.988C60.1926 166.604 60.0446 167.148 59.7486 167.62C59.4606 168.084 59.0526 168.448 58.5246 168.712C58.0046 168.968 57.4046 169.096 56.7246 169.096ZM56.7486 167.296C57.0766 167.296 57.3446 167.176 57.5526 166.936C57.7686 166.688 57.8766 166.372 57.8766 165.988C57.8766 165.604 57.7686 165.292 57.5526 165.052C57.3446 164.804 57.0766 164.68 56.7486 164.68C56.4206 164.68 56.1486 164.804 55.9326 165.052C55.7246 165.292 55.6206 165.604 55.6206 165.988C55.6206 166.372 55.7246 166.688 55.9326 166.936C56.1486 167.176 56.4206 167.296 56.7486 167.296ZM61.332 163.072H63.744V164.296C64.208 163.368 64.944 162.904 65.952 162.904C66.72 162.904 67.32 163.18 67.752 163.732C68.192 164.276 68.412 165.032 68.412 166V169H65.892V165.748C65.892 165.404 65.816 165.14 65.664 164.956C65.52 164.772 65.316 164.68 65.052 164.68C64.86 164.68 64.672 164.744 64.488 164.872C64.304 164.992 64.152 165.168 64.032 165.4C63.92 165.632 63.864 165.896 63.864 166.192V169H61.332V163.072ZM72.7743 169.096C72.1343 169.096 71.5663 168.968 71.0703 168.712C70.5823 168.448 70.1983 168.08 69.9183 167.608C69.6463 167.136 69.5103 166.6 69.5103 166C69.5103 165.424 69.6543 164.9 69.9423 164.428C70.2303 163.956 70.6223 163.584 71.1183 163.312C71.6143 163.04 72.1663 162.904 72.7743 162.904C73.5503 162.904 74.1623 163.064 74.6103 163.384L74.3823 164.98C73.9263 164.844 73.5503 164.776 73.2543 164.776C72.8703 164.776 72.5663 164.888 72.3423 165.112C72.1183 165.328 72.0063 165.624 72.0063 166C72.0063 166.376 72.1183 166.676 72.3423 166.9C72.5663 167.124 72.8623 167.236 73.2303 167.236C73.5503 167.236 73.9263 167.168 74.3583 167.032L74.5863 168.712C74.3143 168.848 74.0383 168.944 73.7583 169C73.4783 169.064 73.1503 169.096 72.7743 169.096ZM75.7105 161.092L78.2425 160.72V164.224C78.4185 163.8 78.6825 163.476 79.0345 163.252C79.3945 163.02 79.8265 162.904 80.3305 162.904C81.0985 162.904 81.6985 163.18 82.1305 163.732C82.5705 164.276 82.7905 165.032 82.7905 166V169H80.2705V165.748C80.2705 165.404 80.1945 165.14 80.0425 164.956C79.8985 164.772 79.6945 164.68 79.4305 164.68C79.2385 164.68 79.0505 164.744 78.8665 164.872C78.6825 164.992 78.5305 165.168 78.4105 165.4C78.2985 165.632 78.2425 165.896 78.2425 166.192V169H75.7105V161.092ZM86.3007 169.096C85.6287 169.096 85.1047 168.88 84.7287 168.448C84.3527 168.016 84.1647 167.428 84.1647 166.684V162.988H86.7087V166.576C86.7087 166.76 86.7567 166.904 86.8527 167.008C86.9567 167.104 87.0887 167.152 87.2487 167.152C87.4087 167.152 87.5727 167.104 87.7407 167.008L87.8727 168.676C87.6967 168.812 87.4647 168.916 87.1767 168.988C86.8967 169.06 86.6047 169.096 86.3007 169.096ZM85.4367 162.088C85.0607 162.088 84.7407 161.972 84.4767 161.74C84.2207 161.5 84.0927 161.208 84.0927 160.864C84.0927 160.52 84.2287 160.232 84.5007 160C84.7727 159.768 85.0847 159.652 85.4367 159.652C85.8047 159.652 86.1207 159.772 86.3847 160.012C86.6567 160.252 86.7927 160.536 86.7927 160.864C86.7927 161.216 86.6567 161.508 86.3847 161.74C86.1127 161.972 85.7967 162.088 85.4367 162.088ZM92.2076 171.748C91.7676 171.748 91.3476 171.704 90.9476 171.616L91.1396 169.84C91.4516 169.888 91.7396 169.912 92.0036 169.912C92.4996 169.912 92.8756 169.764 93.1316 169.468C93.3876 169.18 93.5396 168.692 93.5876 168.004C93.1156 168.668 92.3956 169 91.4276 169C90.8996 169 90.4116 168.864 89.9636 168.592C89.5236 168.32 89.1716 167.952 88.9076 167.488C88.6516 167.024 88.5236 166.516 88.5236 165.964C88.5236 165.404 88.6516 164.892 88.9076 164.428C89.1636 163.956 89.5116 163.584 89.9516 163.312C90.3996 163.04 90.8876 162.904 91.4156 162.904C91.9036 162.904 92.3276 163.032 92.6876 163.288C93.0556 163.536 93.2956 163.872 93.4076 164.296V162.904H95.9396V167.476C95.9396 168.876 95.6196 169.936 94.9796 170.656C94.3476 171.384 93.4236 171.748 92.2076 171.748ZM92.2076 167.2C92.5276 167.2 92.8036 167.088 93.0356 166.864C93.2676 166.632 93.3916 166.36 93.4076 166.048V165.952C93.3916 165.648 93.2636 165.38 93.0236 165.148C92.7916 164.916 92.5196 164.8 92.2076 164.8C91.8796 164.8 91.5996 164.92 91.3676 165.16C91.1356 165.392 91.0196 165.672 91.0196 166C91.0196 166.328 91.1356 166.612 91.3676 166.852C91.5996 167.084 91.8796 167.2 92.2076 167.2ZM99.5073 169.096C98.8273 169.096 98.2993 168.884 97.9233 168.46C97.5553 168.028 97.3713 167.44 97.3713 166.696V161.092L99.9033 160.72V166.516C99.9033 166.74 99.9553 166.904 100.059 167.008C100.171 167.104 100.363 167.152 100.635 167.152C100.835 167.152 101.031 167.104 101.223 167.008L101.307 168.688C100.771 168.96 100.171 169.096 99.5073 169.096ZM104.282 169.096C103.61 169.096 103.086 168.88 102.71 168.448C102.334 168.016 102.146 167.428 102.146 166.684V162.988H104.69V166.576C104.69 166.76 104.738 166.904 104.834 167.008C104.938 167.104 105.07 167.152 105.23 167.152C105.39 167.152 105.554 167.104 105.722 167.008L105.854 168.676C105.678 168.812 105.446 168.916 105.158 168.988C104.878 169.06 104.586 169.096 104.282 169.096ZM103.418 162.088C103.042 162.088 102.722 161.972 102.458 161.74C102.202 161.5 102.074 161.208 102.074 160.864C102.074 160.52 102.21 160.232 102.482 160C102.754 159.768 103.066 159.652 103.418 159.652C103.786 159.652 104.102 159.772 104.366 160.012C104.638 160.252 104.774 160.536 104.774 160.864C104.774 161.216 104.638 161.508 104.366 161.74C104.094 161.972 103.778 162.088 103.418 162.088ZM109.901 169.096C109.237 169.096 108.645 168.964 108.125 168.7C107.613 168.428 107.213 168.06 106.925 167.596C106.637 167.124 106.493 166.592 106.493 166C106.493 165.392 106.641 164.852 106.937 164.38C107.233 163.908 107.633 163.544 108.137 163.288C108.641 163.032 109.201 162.904 109.817 162.904C110.409 162.904 110.913 163.036 111.329 163.3C111.753 163.556 112.069 163.908 112.277 164.356C112.485 164.796 112.589 165.292 112.589 165.844C112.589 165.988 112.581 166.092 112.565 166.156L108.965 166.624C109.061 166.904 109.217 167.108 109.433 167.236C109.649 167.356 109.933 167.416 110.285 167.416C110.829 167.416 111.417 167.276 112.049 166.996L112.349 168.604C111.605 168.932 110.789 169.096 109.901 169.096ZM110.729 165.112C110.601 164.608 110.297 164.356 109.817 164.356C109.529 164.356 109.301 164.464 109.133 164.68C108.965 164.896 108.877 165.176 108.869 165.52L110.729 165.112Z" fill="#2179B9"/>
<path d="M44.4162 184.672C44.4162 183.752 44.4682 183.092 44.5722 182.692C44.6842 182.284 44.9042 182.004 45.2322 181.852C45.5682 181.7 46.1162 181.624 46.8762 181.624V183.028C46.4682 183.028 46.2002 183.036 46.0722 183.052C45.9442 183.068 45.8602 183.116 45.8202 183.196C45.7802 183.276 45.7602 183.428 45.7602 183.652H46.8762V185.896H44.4162V184.672ZM47.5362 184.672C47.5362 183.752 47.5882 183.092 47.6922 182.692C47.8042 182.284 48.0242 182.004 48.3522 181.852C48.6882 181.7 49.2362 181.624 49.9962 181.624V183.028C49.5882 183.028 49.3202 183.036 49.1922 183.052C49.0642 183.068 48.9802 183.116 48.9402 183.196C48.9002 183.276 48.8802 183.428 48.8802 183.652H49.9962V185.896H47.5362V184.672ZM53.4484 190.096C52.6084 190.096 51.8724 189.972 51.2404 189.724L51.5164 188.296C52.0924 188.504 52.6524 188.608 53.1964 188.608C53.5964 188.608 53.7964 188.496 53.7964 188.272C53.7964 188.16 53.7364 188.068 53.6164 187.996C53.5044 187.924 53.2884 187.86 52.9684 187.804C52.3044 187.676 51.8244 187.46 51.5284 187.156C51.2404 186.852 51.0964 186.42 51.0964 185.86C51.1284 185.228 51.3804 184.744 51.8524 184.408C52.3244 184.072 52.9684 183.904 53.7844 183.904C54.2004 183.904 54.5564 183.932 54.8524 183.988C55.1564 184.036 55.4324 184.12 55.6804 184.24L55.4284 185.668C55.1964 185.58 54.9404 185.512 54.6604 185.464C54.3884 185.416 54.1604 185.392 53.9764 185.392C53.7044 185.392 53.5164 185.42 53.4124 185.476C53.3084 185.532 53.2564 185.608 53.2564 185.704C53.2564 185.88 53.4564 186.004 53.8564 186.076C54.5844 186.204 55.1284 186.428 55.4884 186.748C55.8484 187.068 56.0284 187.504 56.0284 188.056C56.0284 188.688 55.8044 189.188 55.3564 189.556C54.9164 189.916 54.2804 190.096 53.4484 190.096ZM60.2634 190.096C59.5994 190.096 59.0074 189.964 58.4874 189.7C57.9754 189.428 57.5754 189.06 57.2874 188.596C56.9994 188.124 56.8554 187.592 56.8554 187C56.8554 186.392 57.0034 185.852 57.2994 185.38C57.5954 184.908 57.9954 184.544 58.4994 184.288C59.0034 184.032 59.5634 183.904 60.1794 183.904C60.7714 183.904 61.2754 184.036 61.6914 184.3C62.1154 184.556 62.4314 184.908 62.6394 185.356C62.8474 185.796 62.9514 186.292 62.9514 186.844C62.9514 186.988 62.9434 187.092 62.9274 187.156L59.3274 187.624C59.4234 187.904 59.5794 188.108 59.7954 188.236C60.0114 188.356 60.2954 188.416 60.6474 188.416C61.1914 188.416 61.7794 188.276 62.4114 187.996L62.7114 189.604C61.9674 189.932 61.1514 190.096 60.2634 190.096ZM61.0914 186.112C60.9634 185.608 60.6594 185.356 60.1794 185.356C59.8914 185.356 59.6634 185.464 59.4954 185.68C59.3274 185.896 59.2394 186.176 59.2314 186.52L61.0914 186.112ZM66.7154 190.096C66.1954 190.096 65.7074 189.96 65.2514 189.688C64.8034 189.408 64.4434 189.032 64.1714 188.56C63.8994 188.08 63.7634 187.548 63.7634 186.964C63.7634 186.388 63.8994 185.868 64.1714 185.404C64.4434 184.932 64.8074 184.564 65.2634 184.3C65.7194 184.036 66.2034 183.904 66.7154 183.904C67.1314 183.904 67.5154 184.02 67.8674 184.252C68.2274 184.484 68.4994 184.832 68.6834 185.296V183.904H71.2034V190H68.6834V188.884C68.2834 189.692 67.6274 190.096 66.7154 190.096ZM67.4954 188.2C67.8154 188.2 68.0874 188.088 68.3114 187.864C68.5434 187.632 68.6674 187.36 68.6834 187.048V186.952C68.6674 186.632 68.5394 186.36 68.2994 186.136C68.0674 185.912 67.7994 185.8 67.4954 185.8C67.1594 185.8 66.8714 185.92 66.6314 186.16C66.3994 186.392 66.2834 186.672 66.2834 187C66.2834 187.336 66.4034 187.62 66.6434 187.852C66.8834 188.084 67.1674 188.2 67.4954 188.2ZM74.7348 190.096C73.8948 190.096 73.1588 189.972 72.5268 189.724L72.8028 188.296C73.3788 188.504 73.9388 188.608 74.4828 188.608C74.8828 188.608 75.0828 188.496 75.0828 188.272C75.0828 188.16 75.0228 188.068 74.9028 187.996C74.7908 187.924 74.5748 187.86 74.2548 187.804C73.5908 187.676 73.1108 187.46 72.8148 187.156C72.5268 186.852 72.3828 186.42 72.3828 185.86C72.4148 185.228 72.6668 184.744 73.1388 184.408C73.6108 184.072 74.2548 183.904 75.0708 183.904C75.4868 183.904 75.8428 183.932 76.1388 183.988C76.4428 184.036 76.7188 184.12 76.9668 184.24L76.7148 185.668C76.4828 185.58 76.2268 185.512 75.9468 185.464C75.6748 185.416 75.4468 185.392 75.2628 185.392C74.9908 185.392 74.8028 185.42 74.6988 185.476C74.5948 185.532 74.5428 185.608 74.5428 185.704C74.5428 185.88 74.7428 186.004 75.1428 186.076C75.8708 186.204 76.4148 186.428 76.7748 186.748C77.1348 187.068 77.3148 187.504 77.3148 188.056C77.3148 188.688 77.0908 189.188 76.6428 189.556C76.2028 189.916 75.5668 190.096 74.7348 190.096ZM78.4418 182.092L80.9738 181.72V185.224C81.1498 184.8 81.4138 184.476 81.7658 184.252C82.1258 184.02 82.5578 183.904 83.0618 183.904C83.8298 183.904 84.4298 184.18 84.8618 184.732C85.3018 185.276 85.5218 186.032 85.5218 187V190H83.0018V186.748C83.0018 186.404 82.9258 186.14 82.7738 185.956C82.6298 185.772 82.4258 185.68 82.1618 185.68C81.9698 185.68 81.7818 185.744 81.5978 185.872C81.4138 185.992 81.2618 186.168 81.1418 186.4C81.0298 186.632 80.9738 186.896 80.9738 187.192V190H78.4418V182.092ZM90.0281 190.096C89.3641 190.096 88.7721 189.964 88.2521 189.7C87.7401 189.428 87.3401 189.06 87.0521 188.596C86.7641 188.124 86.6201 187.592 86.6201 187C86.6201 186.392 86.7681 185.852 87.0641 185.38C87.3601 184.908 87.7601 184.544 88.2641 184.288C88.7681 184.032 89.3281 183.904 89.9441 183.904C90.5361 183.904 91.0401 184.036 91.4561 184.3C91.8801 184.556 92.1961 184.908 92.4041 185.356C92.6121 185.796 92.7161 186.292 92.7161 186.844C92.7161 186.988 92.7081 187.092 92.6921 187.156L89.0921 187.624C89.1881 187.904 89.3441 188.108 89.5601 188.236C89.7761 188.356 90.0601 188.416 90.4121 188.416C90.9561 188.416 91.5441 188.276 92.1761 187.996L92.4761 189.604C91.7321 189.932 90.9161 190.096 90.0281 190.096ZM90.8561 186.112C90.7281 185.608 90.4241 185.356 89.9441 185.356C89.6561 185.356 89.4281 185.464 89.2601 185.68C89.0921 185.896 89.0041 186.176 88.9961 186.52L90.8561 186.112ZM95.94 190.096C95.26 190.096 94.732 189.884 94.356 189.46C93.988 189.028 93.804 188.44 93.804 187.696V182.092L96.336 181.72V187.516C96.336 187.74 96.388 187.904 96.492 188.008C96.604 188.104 96.796 188.152 97.068 188.152C97.268 188.152 97.464 188.104 97.656 188.008L97.74 189.688C97.204 189.96 96.604 190.096 95.94 190.096ZM100.715 190.096C100.035 190.096 99.5072 189.884 99.1312 189.46C98.7632 189.028 98.5792 188.44 98.5792 187.696V182.092L101.111 181.72V187.516C101.111 187.74 101.163 187.904 101.267 188.008C101.379 188.104 101.571 188.152 101.843 188.152C102.043 188.152 102.239 188.104 102.431 188.008L102.515 189.688C101.979 189.96 101.379 190.096 100.715 190.096ZM105.454 190.096C104.614 190.096 103.878 189.972 103.246 189.724L103.522 188.296C104.098 188.504 104.658 188.608 105.202 188.608C105.602 188.608 105.802 188.496 105.802 188.272C105.802 188.16 105.742 188.068 105.622 187.996C105.51 187.924 105.294 187.86 104.974 187.804C104.31 187.676 103.83 187.46 103.534 187.156C103.246 186.852 103.102 186.42 103.102 185.86C103.134 185.228 103.386 184.744 103.858 184.408C104.33 184.072 104.974 183.904 105.79 183.904C106.206 183.904 106.562 183.932 106.858 183.988C107.162 184.036 107.438 184.12 107.686 184.24L107.434 185.668C107.202 185.58 106.946 185.512 106.666 185.464C106.394 185.416 106.166 185.392 105.982 185.392C105.71 185.392 105.522 185.42 105.418 185.476C105.314 185.532 105.262 185.608 105.262 185.704C105.262 185.88 105.462 186.004 105.862 186.076C106.59 186.204 107.134 186.428 107.494 186.748C107.854 187.068 108.034 187.504 108.034 188.056C108.034 188.688 107.81 189.188 107.362 189.556C106.922 189.916 106.286 190.096 105.454 190.096ZM109.008 184.612C109.416 184.612 109.684 184.604 109.812 184.588C109.94 184.572 110.024 184.524 110.064 184.444C110.104 184.364 110.124 184.212 110.124 183.988H109.008V181.744H111.468V182.968C111.468 183.888 111.412 184.552 111.3 184.96C111.196 185.36 110.976 185.636 110.64 185.788C110.312 185.94 109.768 186.016 109.008 186.016V184.612ZM112.128 184.612C112.536 184.612 112.804 184.604 112.932 184.588C113.06 184.572 113.144 184.524 113.184 184.444C113.224 184.364 113.244 184.212 113.244 183.988H112.128V181.744H114.588V182.968C114.588 183.888 114.532 184.552 114.42 184.96C114.316 185.36 114.096 185.636 113.76 185.788C113.432 185.94 112.888 186.016 112.128 186.016V184.612Z" fill="#393A32"/>
<rect x="47" y="59.9014" width="65.45" height="0.897773" fill="#082D74"/>
<rect x="58.7808" y="59" width="13.9627" height="3.1422" fill="#3F8D43"/>
<rect x="72.7454" y="59" width="13.9627" height="3.1422" fill="white"/>
<rect x="86.7046" y="59" width="13.9627" height="3.1422" fill="#D12C29"/>
<path d="M43 128.039C44.209 121.975 46.3089 116.123 49.2313 110.674C53.7386 102.437 56.3642 99.5188 58.8882 94.5833C61.6828 89.1295 61.5475 88.2055 64.2294 86.8759C75.8695 81.0952 89.7407 92.8142 97.8651 85.749C99.1046 84.6222 102.237 81.3995 105.37 82.0981C106.699 82.4024 107.071 83.2249 109.764 84.2842C112.66 85.411 113.089 84.8814 114.159 85.749C116.672 87.7886 116.142 92.3748 115.973 93.8734C115.759 95.7214 115.556 97.4567 114.418 98.7751C111.703 101.919 105.482 100.567 103.296 100.274C97.5496 99.485 88.4787 101.694 74.3258 115.88C71.3467 118.936 68.0359 121.65 64.4548 123.971C58.2685 128.309 53.5809 130.957 48.2848 130.146C46.3904 129.838 44.5864 129.119 43 128.039Z" stroke="#1A1A1A" stroke-width="4" stroke-linecap="round" stroke-linejoin="round"/>
<path d="M112.097 100.319C112.232 103.542 112.514 118.348 101.956 127.825C92.4001 136.366 79.4191 135.566 69.8185 134.969C63.0199 134.537 56.3258 133.078 49.9639 130.642" stroke="#1A1A1A" stroke-width="4" stroke-linecap="round" stroke-linejoin="round"/>
<path d="M65.5366 123.768C66.3656 124.295 67.0754 124.989 67.6207 125.806C68.1659 126.623 68.5346 127.544 68.703 128.512C69.0298 131.791 65.9535 133.819 65.5817 134.056" stroke="#1A1A1A" stroke-width="4" stroke-linecap="round" stroke-linejoin="round"/>
<path d="M72.9172 117.717C74.8246 119.5 76.198 121.778 76.8837 124.297C77.7614 127.792 77.3033 131.489 75.5991 134.664" stroke="#1A1A1A" stroke-width="4" stroke-linecap="round" stroke-linejoin="round"/>
<path d="M78.6753 113.492C81.7926 115.633 84.1578 118.699 85.4362 122.258C86.0699 124.224 86.2879 126.3 86.0764 128.354C85.865 130.408 85.2287 132.396 84.208 134.191" stroke="#1A1A1A" stroke-width="4" stroke-linecap="round" stroke-linejoin="round"/>
<path d="M85.3123 108.59C88.5551 111.149 91.1365 114.449 92.8395 118.213C94.7364 122.526 95.1332 127.35 93.9663 131.915" stroke="#1A1A1A" stroke-width="4" stroke-linecap="round" stroke-linejoin="round"/>
<path d="M90.845 104.375C93.6981 106.515 96.1025 109.196 97.9214 112.263C100.568 116.757 101.837 121.929 101.572 127.137" stroke="#1A1A1A" stroke-width="4" stroke-linecap="round" stroke-linejoin="round"/>
<path d="M98.0002 100.995C100.529 102.24 102.732 104.057 104.434 106.302C106.919 109.667 108.379 113.678 108.637 117.852" stroke="#1A1A1A" stroke-width="4" stroke-linecap="round" stroke-linejoin="round"/>
<path d="M44.262 127.138C46.9889 122.878 51.5638 115.644 57.1979 106.426C64.4096 94.6286 65.0857 93.1637 67.7901 91.7777C77.323 87.0451 86.2024 96.3977 97.4481 90.8988C99.8066 89.4856 102.452 88.6193 105.189 88.3635C108.818 88.2431 112.398 89.2168 115.466 91.158" stroke="#1A1A1A" stroke-width="4" stroke-linecap="round" stroke-linejoin="round"/>
</svg>
