<svg width="158" height="224" viewBox="0 0 158 224" fill="none" xmlns="http://www.w3.org/2000/svg">
<rect width="158" height="224" rx="5" fill="#FFD300"/>
<mask id="path-2-inside-1" fill="white">
<rect x="9" y="9" width="140" height="207" rx="2"/>
</mask>
<rect x="9" y="9" width="140" height="207" rx="2" fill="white" stroke="#2179B9" stroke-width="14" mask="url(#path-2-inside-1)"/>
<path d="M51.7027 172.096C51.0627 172.096 50.4947 171.968 49.9987 171.712C49.5107 171.448 49.1267 171.08 48.8467 170.608C48.5747 170.136 48.4387 169.6 48.4387 169C48.4387 168.424 48.5827 167.9 48.8707 167.428C49.1587 166.956 49.5507 166.584 50.0467 166.312C50.5427 166.04 51.0947 165.904 51.7027 165.904C52.4787 165.904 53.0907 166.064 53.5387 166.384L53.3107 167.98C52.8547 167.844 52.4787 167.776 52.1827 167.776C51.7987 167.776 51.4947 167.888 51.2707 168.112C51.0467 168.328 50.9347 168.624 50.9347 169C50.9347 169.376 51.0467 169.676 51.2707 169.9C51.4947 170.124 51.7907 170.236 52.1587 170.236C52.4787 170.236 52.8547 170.168 53.2867 170.032L53.5147 171.712C53.2427 171.848 52.9667 171.944 52.6867 172C52.4067 172.064 52.0787 172.096 51.7027 172.096ZM57.7246 172.096C57.0526 172.096 56.4526 171.964 55.9246 171.7C55.4046 171.436 54.9966 171.072 54.7006 170.608C54.4126 170.136 54.2686 169.596 54.2686 168.988C54.2686 168.38 54.4166 167.844 54.7126 167.38C55.0086 166.908 55.4166 166.544 55.9366 166.288C56.4646 166.032 57.0646 165.904 57.7366 165.904C58.4166 165.904 59.0166 166.036 59.5366 166.3C60.0646 166.556 60.4726 166.916 60.7606 167.38C61.0486 167.844 61.1926 168.38 61.1926 168.988C61.1926 169.604 61.0446 170.148 60.7486 170.62C60.4606 171.084 60.0526 171.448 59.5246 171.712C59.0046 171.968 58.4046 172.096 57.7246 172.096ZM57.7486 170.296C58.0766 170.296 58.3446 170.176 58.5526 169.936C58.7686 169.688 58.8766 169.372 58.8766 168.988C58.8766 168.604 58.7686 168.292 58.5526 168.052C58.3446 167.804 58.0766 167.68 57.7486 167.68C57.4206 167.68 57.1486 167.804 56.9326 168.052C56.7246 168.292 56.6206 168.604 56.6206 168.988C56.6206 169.372 56.7246 169.688 56.9326 169.936C57.1486 170.176 57.4206 170.296 57.7486 170.296ZM62.332 166.072H64.744V167.296C65.208 166.368 65.944 165.904 66.952 165.904C67.72 165.904 68.32 166.18 68.752 166.732C69.192 167.276 69.412 168.032 69.412 169V172H66.892V168.748C66.892 168.404 66.816 168.14 66.664 167.956C66.52 167.772 66.316 167.68 66.052 167.68C65.86 167.68 65.672 167.744 65.488 167.872C65.304 167.992 65.152 168.168 65.032 168.4C64.92 168.632 64.864 168.896 64.864 169.192V172H62.332V166.072ZM73.7743 172.096C73.1343 172.096 72.5663 171.968 72.0703 171.712C71.5823 171.448 71.1983 171.08 70.9183 170.608C70.6463 170.136 70.5103 169.6 70.5103 169C70.5103 168.424 70.6543 167.9 70.9423 167.428C71.2303 166.956 71.6223 166.584 72.1183 166.312C72.6143 166.04 73.1663 165.904 73.7743 165.904C74.5503 165.904 75.1623 166.064 75.6103 166.384L75.3823 167.98C74.9263 167.844 74.5503 167.776 74.2543 167.776C73.8703 167.776 73.5663 167.888 73.3423 168.112C73.1183 168.328 73.0063 168.624 73.0063 169C73.0063 169.376 73.1183 169.676 73.3423 169.9C73.5663 170.124 73.8623 170.236 74.2303 170.236C74.5503 170.236 74.9263 170.168 75.3583 170.032L75.5863 171.712C75.3143 171.848 75.0383 171.944 74.7583 172C74.4783 172.064 74.1503 172.096 73.7743 172.096ZM76.7105 164.092L79.2425 163.72V167.224C79.4185 166.8 79.6825 166.476 80.0345 166.252C80.3945 166.02 80.8265 165.904 81.3305 165.904C82.0985 165.904 82.6985 166.18 83.1305 166.732C83.5705 167.276 83.7905 168.032 83.7905 169V172H81.2705V168.748C81.2705 168.404 81.1945 168.14 81.0425 167.956C80.8985 167.772 80.6945 167.68 80.4305 167.68C80.2385 167.68 80.0505 167.744 79.8665 167.872C79.6825 167.992 79.5305 168.168 79.4105 168.4C79.2985 168.632 79.2425 168.896 79.2425 169.192V172H76.7105V164.092ZM87.3007 172.096C86.6287 172.096 86.1047 171.88 85.7287 171.448C85.3527 171.016 85.1647 170.428 85.1647 169.684V165.988H87.7087V169.576C87.7087 169.76 87.7567 169.904 87.8527 170.008C87.9567 170.104 88.0887 170.152 88.2487 170.152C88.4087 170.152 88.5727 170.104 88.7407 170.008L88.8727 171.676C88.6967 171.812 88.4647 171.916 88.1767 171.988C87.8967 172.06 87.6047 172.096 87.3007 172.096ZM86.4367 165.088C86.0607 165.088 85.7407 164.972 85.4767 164.74C85.2207 164.5 85.0927 164.208 85.0927 163.864C85.0927 163.52 85.2287 163.232 85.5007 163C85.7727 162.768 86.0847 162.652 86.4367 162.652C86.8047 162.652 87.1207 162.772 87.3847 163.012C87.6567 163.252 87.7927 163.536 87.7927 163.864C87.7927 164.216 87.6567 164.508 87.3847 164.74C87.1127 164.972 86.7967 165.088 86.4367 165.088ZM93.2076 174.748C92.7676 174.748 92.3476 174.704 91.9476 174.616L92.1396 172.84C92.4516 172.888 92.7396 172.912 93.0036 172.912C93.4996 172.912 93.8756 172.764 94.1316 172.468C94.3876 172.18 94.5396 171.692 94.5876 171.004C94.1156 171.668 93.3956 172 92.4276 172C91.8996 172 91.4116 171.864 90.9636 171.592C90.5236 171.32 90.1716 170.952 89.9076 170.488C89.6516 170.024 89.5236 169.516 89.5236 168.964C89.5236 168.404 89.6516 167.892 89.9076 167.428C90.1636 166.956 90.5116 166.584 90.9516 166.312C91.3996 166.04 91.8876 165.904 92.4156 165.904C92.9036 165.904 93.3276 166.032 93.6876 166.288C94.0556 166.536 94.2956 166.872 94.4076 167.296V165.904H96.9396V170.476C96.9396 171.876 96.6196 172.936 95.9796 173.656C95.3476 174.384 94.4236 174.748 93.2076 174.748ZM93.2076 170.2C93.5276 170.2 93.8036 170.088 94.0356 169.864C94.2676 169.632 94.3916 169.36 94.4076 169.048V168.952C94.3916 168.648 94.2636 168.38 94.0236 168.148C93.7916 167.916 93.5196 167.8 93.2076 167.8C92.8796 167.8 92.5996 167.92 92.3676 168.16C92.1356 168.392 92.0196 168.672 92.0196 169C92.0196 169.328 92.1356 169.612 92.3676 169.852C92.5996 170.084 92.8796 170.2 93.2076 170.2ZM100.507 172.096C99.8273 172.096 99.2993 171.884 98.9233 171.46C98.5553 171.028 98.3713 170.44 98.3713 169.696V164.092L100.903 163.72V169.516C100.903 169.74 100.955 169.904 101.059 170.008C101.171 170.104 101.363 170.152 101.635 170.152C101.835 170.152 102.031 170.104 102.223 170.008L102.307 171.688C101.771 171.96 101.171 172.096 100.507 172.096ZM105.282 172.096C104.61 172.096 104.086 171.88 103.71 171.448C103.334 171.016 103.146 170.428 103.146 169.684V165.988H105.69V169.576C105.69 169.76 105.738 169.904 105.834 170.008C105.938 170.104 106.07 170.152 106.23 170.152C106.39 170.152 106.554 170.104 106.722 170.008L106.854 171.676C106.678 171.812 106.446 171.916 106.158 171.988C105.878 172.06 105.586 172.096 105.282 172.096ZM104.418 165.088C104.042 165.088 103.722 164.972 103.458 164.74C103.202 164.5 103.074 164.208 103.074 163.864C103.074 163.52 103.21 163.232 103.482 163C103.754 162.768 104.066 162.652 104.418 162.652C104.786 162.652 105.102 162.772 105.366 163.012C105.638 163.252 105.774 163.536 105.774 163.864C105.774 164.216 105.638 164.508 105.366 164.74C105.094 164.972 104.778 165.088 104.418 165.088ZM110.901 172.096C110.237 172.096 109.645 171.964 109.125 171.7C108.613 171.428 108.213 171.06 107.925 170.596C107.637 170.124 107.493 169.592 107.493 169C107.493 168.392 107.641 167.852 107.937 167.38C108.233 166.908 108.633 166.544 109.137 166.288C109.641 166.032 110.201 165.904 110.817 165.904C111.409 165.904 111.913 166.036 112.329 166.3C112.753 166.556 113.069 166.908 113.277 167.356C113.485 167.796 113.589 168.292 113.589 168.844C113.589 168.988 113.581 169.092 113.565 169.156L109.965 169.624C110.061 169.904 110.217 170.108 110.433 170.236C110.649 170.356 110.933 170.416 111.285 170.416C111.829 170.416 112.417 170.276 113.049 169.996L113.349 171.604C112.605 171.932 111.789 172.096 110.901 172.096ZM111.729 168.112C111.601 167.608 111.297 167.356 110.817 167.356C110.529 167.356 110.301 167.464 110.133 167.68C109.965 167.896 109.877 168.176 109.869 168.52L111.729 168.112Z" fill="#2179B9"/>
<path d="M45.4162 187.672C45.4162 186.752 45.4682 186.092 45.5722 185.692C45.6842 185.284 45.9042 185.004 46.2322 184.852C46.5682 184.7 47.1162 184.624 47.8762 184.624V186.028C47.4682 186.028 47.2002 186.036 47.0722 186.052C46.9442 186.068 46.8602 186.116 46.8202 186.196C46.7802 186.276 46.7602 186.428 46.7602 186.652H47.8762V188.896H45.4162V187.672ZM48.5362 187.672C48.5362 186.752 48.5882 186.092 48.6922 185.692C48.8042 185.284 49.0242 185.004 49.3522 184.852C49.6882 184.7 50.2362 184.624 50.9962 184.624V186.028C50.5882 186.028 50.3202 186.036 50.1922 186.052C50.0642 186.068 49.9802 186.116 49.9402 186.196C49.9002 186.276 49.8802 186.428 49.8802 186.652H50.9962V188.896H48.5362V187.672ZM54.4484 193.096C53.6084 193.096 52.8724 192.972 52.2404 192.724L52.5164 191.296C53.0924 191.504 53.6524 191.608 54.1964 191.608C54.5964 191.608 54.7964 191.496 54.7964 191.272C54.7964 191.16 54.7364 191.068 54.6164 190.996C54.5044 190.924 54.2884 190.86 53.9684 190.804C53.3044 190.676 52.8244 190.46 52.5284 190.156C52.2404 189.852 52.0964 189.42 52.0964 188.86C52.1284 188.228 52.3804 187.744 52.8524 187.408C53.3244 187.072 53.9684 186.904 54.7844 186.904C55.2004 186.904 55.5564 186.932 55.8524 186.988C56.1564 187.036 56.4324 187.12 56.6804 187.24L56.4284 188.668C56.1964 188.58 55.9404 188.512 55.6604 188.464C55.3884 188.416 55.1604 188.392 54.9764 188.392C54.7044 188.392 54.5164 188.42 54.4124 188.476C54.3084 188.532 54.2564 188.608 54.2564 188.704C54.2564 188.88 54.4564 189.004 54.8564 189.076C55.5844 189.204 56.1284 189.428 56.4884 189.748C56.8484 190.068 57.0284 190.504 57.0284 191.056C57.0284 191.688 56.8044 192.188 56.3564 192.556C55.9164 192.916 55.2804 193.096 54.4484 193.096ZM61.2634 193.096C60.5994 193.096 60.0074 192.964 59.4874 192.7C58.9754 192.428 58.5754 192.06 58.2874 191.596C57.9994 191.124 57.8554 190.592 57.8554 190C57.8554 189.392 58.0034 188.852 58.2994 188.38C58.5954 187.908 58.9954 187.544 59.4994 187.288C60.0034 187.032 60.5634 186.904 61.1794 186.904C61.7714 186.904 62.2754 187.036 62.6914 187.3C63.1154 187.556 63.4314 187.908 63.6394 188.356C63.8474 188.796 63.9514 189.292 63.9514 189.844C63.9514 189.988 63.9434 190.092 63.9274 190.156L60.3274 190.624C60.4234 190.904 60.5794 191.108 60.7954 191.236C61.0114 191.356 61.2954 191.416 61.6474 191.416C62.1914 191.416 62.7794 191.276 63.4114 190.996L63.7114 192.604C62.9674 192.932 62.1514 193.096 61.2634 193.096ZM62.0914 189.112C61.9634 188.608 61.6594 188.356 61.1794 188.356C60.8914 188.356 60.6634 188.464 60.4954 188.68C60.3274 188.896 60.2394 189.176 60.2314 189.52L62.0914 189.112ZM67.7154 193.096C67.1954 193.096 66.7074 192.96 66.2514 192.688C65.8034 192.408 65.4434 192.032 65.1714 191.56C64.8994 191.08 64.7634 190.548 64.7634 189.964C64.7634 189.388 64.8994 188.868 65.1714 188.404C65.4434 187.932 65.8074 187.564 66.2634 187.3C66.7194 187.036 67.2034 186.904 67.7154 186.904C68.1314 186.904 68.5154 187.02 68.8674 187.252C69.2274 187.484 69.4994 187.832 69.6834 188.296V186.904H72.2034V193H69.6834V191.884C69.2834 192.692 68.6274 193.096 67.7154 193.096ZM68.4954 191.2C68.8154 191.2 69.0874 191.088 69.3114 190.864C69.5434 190.632 69.6674 190.36 69.6834 190.048V189.952C69.6674 189.632 69.5394 189.36 69.2994 189.136C69.0674 188.912 68.7994 188.8 68.4954 188.8C68.1594 188.8 67.8714 188.92 67.6314 189.16C67.3994 189.392 67.2834 189.672 67.2834 190C67.2834 190.336 67.4034 190.62 67.6434 190.852C67.8834 191.084 68.1674 191.2 68.4954 191.2ZM75.7348 193.096C74.8948 193.096 74.1588 192.972 73.5268 192.724L73.8028 191.296C74.3788 191.504 74.9388 191.608 75.4828 191.608C75.8828 191.608 76.0828 191.496 76.0828 191.272C76.0828 191.16 76.0228 191.068 75.9028 190.996C75.7908 190.924 75.5748 190.86 75.2548 190.804C74.5908 190.676 74.1108 190.46 73.8148 190.156C73.5268 189.852 73.3828 189.42 73.3828 188.86C73.4148 188.228 73.6668 187.744 74.1388 187.408C74.6108 187.072 75.2548 186.904 76.0708 186.904C76.4868 186.904 76.8428 186.932 77.1388 186.988C77.4428 187.036 77.7188 187.12 77.9668 187.24L77.7148 188.668C77.4828 188.58 77.2268 188.512 76.9468 188.464C76.6748 188.416 76.4468 188.392 76.2628 188.392C75.9908 188.392 75.8028 188.42 75.6988 188.476C75.5948 188.532 75.5428 188.608 75.5428 188.704C75.5428 188.88 75.7428 189.004 76.1428 189.076C76.8708 189.204 77.4148 189.428 77.7748 189.748C78.1348 190.068 78.3148 190.504 78.3148 191.056C78.3148 191.688 78.0908 192.188 77.6428 192.556C77.2028 192.916 76.5668 193.096 75.7348 193.096ZM79.4418 185.092L81.9738 184.72V188.224C82.1498 187.8 82.4138 187.476 82.7658 187.252C83.1258 187.02 83.5578 186.904 84.0618 186.904C84.8298 186.904 85.4298 187.18 85.8618 187.732C86.3018 188.276 86.5218 189.032 86.5218 190V193H84.0018V189.748C84.0018 189.404 83.9258 189.14 83.7738 188.956C83.6298 188.772 83.4258 188.68 83.1618 188.68C82.9698 188.68 82.7818 188.744 82.5978 188.872C82.4138 188.992 82.2618 189.168 82.1418 189.4C82.0298 189.632 81.9738 189.896 81.9738 190.192V193H79.4418V185.092ZM91.0281 193.096C90.3641 193.096 89.7721 192.964 89.2521 192.7C88.7401 192.428 88.3401 192.06 88.0521 191.596C87.7641 191.124 87.6201 190.592 87.6201 190C87.6201 189.392 87.7681 188.852 88.0641 188.38C88.3601 187.908 88.7601 187.544 89.2641 187.288C89.7681 187.032 90.3281 186.904 90.9441 186.904C91.5361 186.904 92.0401 187.036 92.4561 187.3C92.8801 187.556 93.1961 187.908 93.4041 188.356C93.6121 188.796 93.7161 189.292 93.7161 189.844C93.7161 189.988 93.7081 190.092 93.6921 190.156L90.0921 190.624C90.1881 190.904 90.3441 191.108 90.5601 191.236C90.7761 191.356 91.0601 191.416 91.4121 191.416C91.9561 191.416 92.5441 191.276 93.1761 190.996L93.4761 192.604C92.7321 192.932 91.9161 193.096 91.0281 193.096ZM91.8561 189.112C91.7281 188.608 91.4241 188.356 90.9441 188.356C90.6561 188.356 90.4281 188.464 90.2601 188.68C90.0921 188.896 90.0041 189.176 89.9961 189.52L91.8561 189.112ZM96.94 193.096C96.26 193.096 95.732 192.884 95.356 192.46C94.988 192.028 94.804 191.44 94.804 190.696V185.092L97.336 184.72V190.516C97.336 190.74 97.388 190.904 97.492 191.008C97.604 191.104 97.796 191.152 98.068 191.152C98.268 191.152 98.464 191.104 98.656 191.008L98.74 192.688C98.204 192.96 97.604 193.096 96.94 193.096ZM101.715 193.096C101.035 193.096 100.507 192.884 100.131 192.46C99.7632 192.028 99.5792 191.44 99.5792 190.696V185.092L102.111 184.72V190.516C102.111 190.74 102.163 190.904 102.267 191.008C102.379 191.104 102.571 191.152 102.843 191.152C103.043 191.152 103.239 191.104 103.431 191.008L103.515 192.688C102.979 192.96 102.379 193.096 101.715 193.096ZM106.454 193.096C105.614 193.096 104.878 192.972 104.246 192.724L104.522 191.296C105.098 191.504 105.658 191.608 106.202 191.608C106.602 191.608 106.802 191.496 106.802 191.272C106.802 191.16 106.742 191.068 106.622 190.996C106.51 190.924 106.294 190.86 105.974 190.804C105.31 190.676 104.83 190.46 104.534 190.156C104.246 189.852 104.102 189.42 104.102 188.86C104.134 188.228 104.386 187.744 104.858 187.408C105.33 187.072 105.974 186.904 106.79 186.904C107.206 186.904 107.562 186.932 107.858 186.988C108.162 187.036 108.438 187.12 108.686 187.24L108.434 188.668C108.202 188.58 107.946 188.512 107.666 188.464C107.394 188.416 107.166 188.392 106.982 188.392C106.71 188.392 106.522 188.42 106.418 188.476C106.314 188.532 106.262 188.608 106.262 188.704C106.262 188.88 106.462 189.004 106.862 189.076C107.59 189.204 108.134 189.428 108.494 189.748C108.854 190.068 109.034 190.504 109.034 191.056C109.034 191.688 108.81 192.188 108.362 192.556C107.922 192.916 107.286 193.096 106.454 193.096ZM110.008 187.612C110.416 187.612 110.684 187.604 110.812 187.588C110.94 187.572 111.024 187.524 111.064 187.444C111.104 187.364 111.124 187.212 111.124 186.988H110.008V184.744H112.468V185.968C112.468 186.888 112.412 187.552 112.3 187.96C112.196 188.36 111.976 188.636 111.64 188.788C111.312 188.94 110.768 189.016 110.008 189.016V187.612ZM113.128 187.612C113.536 187.612 113.804 187.604 113.932 187.588C114.06 187.572 114.144 187.524 114.184 187.444C114.224 187.364 114.244 187.212 114.244 186.988H113.128V184.744H115.588V185.968C115.588 186.888 115.532 187.552 115.42 187.96C115.316 188.36 115.096 188.636 114.76 188.788C114.432 188.94 113.888 189.016 113.128 189.016V187.612Z" fill="#393A32"/>
<path d="M32.31 134.288C31.11 134.288 30.018 134.006 29.034 133.442C28.062 132.866 27.288 132.086 26.712 131.102C26.148 130.106 25.866 129.008 25.866 127.808C25.866 126.584 26.142 125.48 26.694 124.496C27.246 123.512 28.002 122.744 28.962 122.192C29.922 121.628 31.002 121.346 32.202 121.346C32.85 121.346 33.486 121.424 34.11 121.58C34.734 121.736 35.268 121.958 35.712 122.246L35.226 125.036C34.362 124.712 33.582 124.55 32.886 124.55C31.926 124.55 31.188 124.832 30.672 125.396C30.156 125.948 29.898 126.746 29.898 127.79C29.898 128.81 30.168 129.608 30.708 130.184C31.26 130.748 32.022 131.03 32.994 131.03C33.366 131.03 33.714 130.994 34.038 130.922C34.362 130.85 34.758 130.718 35.226 130.526L35.73 133.37C34.686 133.982 33.546 134.288 32.31 134.288ZM42.727 134.144C41.719 134.144 40.819 133.946 40.027 133.55C39.247 133.154 38.635 132.608 38.191 131.912C37.759 131.204 37.543 130.394 37.543 129.482C37.543 128.57 37.765 127.766 38.209 127.07C38.653 126.362 39.265 125.816 40.045 125.432C40.837 125.048 41.737 124.856 42.745 124.856C43.765 124.856 44.665 125.054 45.445 125.45C46.237 125.834 46.849 126.374 47.281 127.07C47.713 127.766 47.929 128.57 47.929 129.482C47.929 130.406 47.707 131.222 47.263 131.93C46.831 132.626 46.219 133.172 45.427 133.568C44.647 133.952 43.747 134.144 42.727 134.144ZM42.763 131.444C43.255 131.444 43.657 131.264 43.969 130.904C44.293 130.532 44.455 130.058 44.455 129.482C44.455 128.906 44.293 128.438 43.969 128.078C43.657 127.706 43.255 127.52 42.763 127.52C42.271 127.52 41.863 127.706 41.539 128.078C41.227 128.438 41.071 128.906 41.071 129.482C41.071 130.058 41.227 130.532 41.539 130.904C41.863 131.264 42.271 131.444 42.763 131.444ZM50.3582 125.108H53.9762V126.944C54.6722 125.552 55.7762 124.856 57.2882 124.856C58.4402 124.856 59.3402 125.27 59.9882 126.098C60.6482 126.914 60.9782 128.048 60.9782 129.5V134H57.1982V129.122C57.1982 128.606 57.0842 128.21 56.8562 127.934C56.6402 127.658 56.3342 127.52 55.9382 127.52C55.6502 127.52 55.3682 127.616 55.0922 127.808C54.8162 127.988 54.5882 128.252 54.4082 128.6C54.2402 128.948 54.1562 129.344 54.1562 129.788V134H50.3582V125.108ZM68.2416 134.144C67.2816 134.144 66.4296 133.952 65.6856 133.568C64.9536 133.172 64.3776 132.62 63.9576 131.912C63.5496 131.204 63.3456 130.4 63.3456 129.5C63.3456 128.636 63.5616 127.85 63.9936 127.142C64.4256 126.434 65.0136 125.876 65.7576 125.468C66.5016 125.06 67.3296 124.856 68.2416 124.856C69.4056 124.856 70.3236 125.096 70.9956 125.576L70.6536 127.97C69.9696 127.766 69.4056 127.664 68.9616 127.664C68.3856 127.664 67.9296 127.832 67.5936 128.168C67.2576 128.492 67.0896 128.936 67.0896 129.5C67.0896 130.064 67.2576 130.514 67.5936 130.85C67.9296 131.186 68.3736 131.354 68.9256 131.354C69.4056 131.354 69.9696 131.252 70.6176 131.048L70.9596 133.568C70.5516 133.772 70.1376 133.916 69.7176 134C69.2976 134.096 68.8056 134.144 68.2416 134.144ZM73.3659 122.138L77.1639 121.58V126.836C77.4279 126.2 77.8239 125.714 78.3519 125.378C78.8919 125.03 79.5399 124.856 80.2959 124.856C81.4479 124.856 82.3479 125.27 82.9959 126.098C83.6559 126.914 83.9859 128.048 83.9859 129.5V134H80.2059V129.122C80.2059 128.606 80.0919 128.21 79.8639 127.934C79.6479 127.658 79.3419 127.52 78.9459 127.52C78.6579 127.52 78.3759 127.616 78.0999 127.808C77.8239 127.988 77.5959 128.252 77.4159 128.6C77.2479 128.948 77.1639 129.344 77.1639 129.788V134H73.3659V122.138ZM89.9713 134.144C88.9633 134.144 88.1773 133.82 87.6133 133.172C87.0493 132.524 86.7673 131.642 86.7673 130.526V124.982H90.5833V130.364C90.5833 130.64 90.6553 130.856 90.7993 131.012C90.9553 131.156 91.1533 131.228 91.3933 131.228C91.6333 131.228 91.8793 131.156 92.1313 131.012L92.3293 133.514C92.0653 133.718 91.7173 133.874 91.2853 133.982C90.8653 134.09 90.4273 134.144 89.9713 134.144ZM88.6753 123.632C88.1113 123.632 87.6313 123.458 87.2353 123.11C86.8513 122.75 86.6593 122.312 86.6593 121.796C86.6593 121.28 86.8633 120.848 87.2713 120.5C87.6793 120.152 88.1473 119.978 88.6753 119.978C89.2273 119.978 89.7013 120.158 90.0973 120.518C90.5053 120.878 90.7093 121.304 90.7093 121.796C90.7093 122.324 90.5053 122.762 90.0973 123.11C89.6893 123.458 89.2153 123.632 88.6753 123.632ZM99.5515 138.122C98.8915 138.122 98.2615 138.056 97.6615 137.924L97.9495 135.26C98.4175 135.332 98.8495 135.368 99.2455 135.368C99.9895 135.368 100.554 135.146 100.938 134.702C101.322 134.27 101.55 133.538 101.622 132.506C100.914 133.502 99.8335 134 98.3815 134C97.5895 134 96.8575 133.796 96.1855 133.388C95.5255 132.98 94.9975 132.428 94.6015 131.732C94.2175 131.036 94.0255 130.274 94.0255 129.446C94.0255 128.606 94.2175 127.838 94.6015 127.142C94.9855 126.434 95.5075 125.876 96.1675 125.468C96.8395 125.06 97.5715 124.856 98.3635 124.856C99.0955 124.856 99.7315 125.048 100.272 125.432C100.824 125.804 101.184 126.308 101.352 126.944V124.856H105.15V131.714C105.15 133.814 104.67 135.404 103.71 136.484C102.762 137.576 101.376 138.122 99.5515 138.122ZM99.5515 131.3C100.032 131.3 100.446 131.132 100.794 130.796C101.142 130.448 101.328 130.04 101.352 129.572V129.428C101.328 128.972 101.136 128.57 100.776 128.222C100.428 127.874 100.02 127.7 99.5515 127.7C99.0595 127.7 98.6395 127.88 98.2915 128.24C97.9435 128.588 97.7695 129.008 97.7695 129.5C97.7695 129.992 97.9435 130.418 98.2915 130.778C98.6395 131.126 99.0595 131.3 99.5515 131.3ZM111.221 134.144C110.201 134.144 109.409 133.826 108.845 133.19C108.293 132.542 108.017 131.66 108.017 130.544V122.138L111.815 121.58V130.274C111.815 130.61 111.893 130.856 112.049 131.012C112.217 131.156 112.505 131.228 112.913 131.228C113.213 131.228 113.507 131.156 113.795 131.012L113.921 133.532C113.117 133.94 112.217 134.144 111.221 134.144ZM119.104 134.144C118.096 134.144 117.31 133.82 116.746 133.172C116.182 132.524 115.9 131.642 115.9 130.526V124.982H119.716V130.364C119.716 130.64 119.788 130.856 119.932 131.012C120.088 131.156 120.286 131.228 120.526 131.228C120.766 131.228 121.012 131.156 121.264 131.012L121.462 133.514C121.198 133.718 120.85 133.874 120.418 133.982C119.998 134.09 119.56 134.144 119.104 134.144ZM117.808 123.632C117.244 123.632 116.764 123.458 116.368 123.11C115.984 122.75 115.792 122.312 115.792 121.796C115.792 121.28 115.996 120.848 116.404 120.5C116.812 120.152 117.28 119.978 117.808 119.978C118.36 119.978 118.834 120.158 119.23 120.518C119.638 120.878 119.842 121.304 119.842 121.796C119.842 122.324 119.638 122.762 119.23 123.11C118.822 123.458 118.348 123.632 117.808 123.632ZM128.252 134.144C127.256 134.144 126.368 133.946 125.588 133.55C124.82 133.142 124.22 132.59 123.788 131.894C123.356 131.186 123.14 130.388 123.14 129.5C123.14 128.588 123.362 127.778 123.806 127.07C124.25 126.362 124.85 125.816 125.606 125.432C126.362 125.048 127.202 124.856 128.126 124.856C129.014 124.856 129.77 125.054 130.394 125.45C131.03 125.834 131.504 126.362 131.816 127.034C132.128 127.694 132.284 128.438 132.284 129.266C132.284 129.482 132.272 129.638 132.248 129.734L126.848 130.436C126.992 130.856 127.226 131.162 127.55 131.354C127.874 131.534 128.3 131.624 128.828 131.624C129.644 131.624 130.526 131.414 131.474 130.994L131.924 133.406C130.808 133.898 129.584 134.144 128.252 134.144ZM129.494 128.168C129.302 127.412 128.846 127.034 128.126 127.034C127.694 127.034 127.352 127.196 127.1 127.52C126.848 127.844 126.716 128.264 126.704 128.78L129.494 128.168Z" fill="#393A32"/>
<rect x="46" y="145.901" width="65.45" height="0.897773" fill="#082D74"/>
<rect x="57.7808" y="145" width="13.9627" height="3.1422" fill="#3F8D43"/>
<rect x="71.7454" y="145" width="13.9627" height="3.1422" fill="white"/>
<rect x="85.7046" y="145" width="13.9627" height="3.1422" fill="#D12C29"/>
<path d="M40 92.6297C41.2771 86.2245 43.4951 80.0437 46.582 74.2881C51.343 65.5874 54.1162 62.5047 56.7824 57.2915C59.7342 51.5307 59.5913 50.5547 62.4241 49.1502C74.7193 43.0443 89.3711 55.4228 97.9527 47.96C99.262 46.7698 102.571 43.3657 105.88 44.1036C107.284 44.425 107.677 45.2939 110.522 46.4127C113.581 47.6029 114.033 47.0435 115.164 47.96C117.818 50.1143 117.258 54.9586 117.08 56.5416C116.854 58.4936 116.639 60.3266 115.437 61.7192C112.569 65.0399 105.999 63.6116 103.69 63.3022C97.6194 62.469 88.038 64.8019 73.0886 79.787C69.942 83.0147 66.4448 85.8811 62.6621 88.3329C56.1277 92.9153 51.1763 95.7124 45.5822 94.8554C43.5811 94.5305 41.6757 93.7707 40 92.6297Z" stroke="#1A1A1A" stroke-width="4" stroke-linecap="round" stroke-linejoin="round"/>
<path d="M112.985 63.3496C113.128 66.7537 113.426 82.3934 102.273 92.4033C92.1801 101.425 78.4685 100.58 68.3277 99.9494C61.1464 99.4932 54.0756 97.9522 47.3557 95.3789" stroke="#1A1A1A" stroke-width="4" stroke-linecap="round" stroke-linejoin="round"/>
<path d="M63.8049 88.1187C64.6805 88.675 65.4303 89.4081 66.0063 90.271C66.5822 91.1339 66.9716 92.1075 67.1495 93.1296C67.4947 96.5931 64.2453 98.7356 63.8525 98.9855" stroke="#1A1A1A" stroke-width="4" stroke-linecap="round" stroke-linejoin="round"/>
<path d="M71.6008 81.7271C73.6156 83.6102 75.0663 86.0171 75.7905 88.678C76.7176 92.3697 76.2337 96.2745 74.4336 99.6282" stroke="#1A1A1A" stroke-width="4" stroke-linecap="round" stroke-linejoin="round"/>
<path d="M77.6829 77.2637C80.9756 79.525 83.4739 82.7645 84.8243 86.5237C85.4936 88.5999 85.7238 90.7925 85.5005 92.9624C85.2771 95.1323 84.6051 97.2321 83.5269 99.1283" stroke="#1A1A1A" stroke-width="4" stroke-linecap="round" stroke-linejoin="round"/>
<path d="M84.6934 72.0864C88.1187 74.7897 90.8454 78.2755 92.6442 82.2511C94.6479 86.8067 95.0669 91.9025 93.8344 96.7244" stroke="#1A1A1A" stroke-width="4" stroke-linecap="round" stroke-linejoin="round"/>
<path d="M90.5376 67.6348C93.5513 69.8951 96.091 72.7261 98.0123 75.9664C100.807 80.7133 102.148 86.176 101.869 91.6776" stroke="#1A1A1A" stroke-width="4" stroke-linecap="round" stroke-linejoin="round"/>
<path d="M98.0955 64.0645C100.766 65.3792 103.093 67.2987 104.892 69.6705C107.516 73.2244 109.058 77.4609 109.331 81.8704" stroke="#1A1A1A" stroke-width="4" stroke-linecap="round" stroke-linejoin="round"/>
<path d="M41.333 91.6775C44.2134 87.1784 49.0458 79.5371 54.9969 69.801C62.6145 57.3392 63.3286 55.7919 66.1852 54.3279C76.2546 49.3289 85.6337 59.2078 97.5123 53.3995C100.003 51.9068 102.798 50.9916 105.689 50.7214C109.522 50.5943 113.304 51.6228 116.544 53.6732" stroke="#1A1A1A" stroke-width="4" stroke-linecap="round" stroke-linejoin="round"/>
</svg>
