<svg width="166" height="232" viewBox="0 0 166 232" fill="none" xmlns="http://www.w3.org/2000/svg">
<rect x="4" y="4" width="158" height="224" rx="5" fill="#FFF8F8" stroke="#F7575C" stroke-width="7"/>
<path d="M49.994 25.652C50.114 24.956 50.362 24.348 50.738 23.828C51.114 23.308 51.578 22.908 52.13 22.628C52.69 22.348 53.298 22.208 53.954 22.208C54.794 22.208 55.458 22.428 55.946 22.868C56.434 23.308 56.694 23.928 56.726 24.728H54.542C54.454 24.216 54.142 23.96 53.606 23.96C53.23 23.96 52.906 24.108 52.634 24.404C52.362 24.692 52.178 25.108 52.082 25.652C52.05 25.82 52.034 25.996 52.034 26.18C52.034 26.556 52.122 26.844 52.298 27.044C52.474 27.244 52.714 27.344 53.018 27.344C53.546 27.344 53.942 27.088 54.206 26.576H56.402C56.09 27.36 55.61 27.976 54.962 28.424C54.314 28.872 53.574 29.096 52.742 29.096C51.878 29.096 51.19 28.86 50.678 28.388C50.174 27.908 49.922 27.256 49.922 26.432C49.922 26.184 49.946 25.924 49.994 25.652ZM60.3676 29.096C59.7916 29.096 59.2796 28.98 58.8316 28.748C58.3836 28.516 58.0356 28.188 57.7876 27.764C57.5476 27.34 57.4276 26.848 57.4276 26.288C57.4276 25.528 57.6076 24.836 57.9676 24.212C58.3276 23.588 58.8236 23.1 59.4556 22.748C60.0876 22.388 60.7916 22.208 61.5676 22.208C62.1436 22.208 62.6556 22.328 63.1036 22.568C63.5596 22.8 63.9116 23.128 64.1596 23.552C64.4076 23.976 64.5316 24.468 64.5316 25.028C64.5316 25.796 64.3476 26.492 63.9796 27.116C63.6196 27.732 63.1196 28.216 62.4796 28.568C61.8476 28.92 61.1436 29.096 60.3676 29.096ZM60.6556 27.332C60.9916 27.332 61.2916 27.232 61.5556 27.032C61.8276 26.824 62.0356 26.56 62.1796 26.24C62.3316 25.912 62.4076 25.572 62.4076 25.22C62.4076 24.82 62.2996 24.512 62.0836 24.296C61.8676 24.08 61.5956 23.972 61.2676 23.972C60.9236 23.972 60.6196 24.076 60.3556 24.284C60.0996 24.484 59.8996 24.748 59.7556 25.076C59.6116 25.404 59.5396 25.748 59.5396 26.108C59.5396 26.5 59.6436 26.804 59.8516 27.02C60.0596 27.228 60.3276 27.332 60.6556 27.332ZM70.4562 22.232C71.1282 22.232 71.6562 22.42 72.0402 22.796C72.4242 23.172 72.6162 23.696 72.6162 24.368C72.6162 24.592 72.5922 24.832 72.5442 25.088L71.8482 29H69.8082L70.4562 25.364C70.4802 25.228 70.4922 25.108 70.4922 25.004C70.4922 24.668 70.3962 24.408 70.2042 24.224C70.0202 24.04 69.7602 23.948 69.4242 23.948C69.0242 23.948 68.6882 24.072 68.4162 24.32C68.1442 24.568 67.9682 24.916 67.8882 25.364V25.304L67.2402 29H65.1882L66.3642 22.304H68.4162L68.2602 23.204C68.5242 22.908 68.8442 22.672 69.2202 22.496C69.6042 22.32 70.0162 22.232 70.4562 22.232ZM73.7062 25.652C73.8262 24.956 74.0742 24.348 74.4502 23.828C74.8262 23.308 75.2902 22.908 75.8422 22.628C76.4022 22.348 77.0102 22.208 77.6662 22.208C78.5062 22.208 79.1702 22.428 79.6582 22.868C80.1462 23.308 80.4062 23.928 80.4382 24.728H78.2542C78.1662 24.216 77.8542 23.96 77.3182 23.96C76.9422 23.96 76.6182 24.108 76.3462 24.404C76.0742 24.692 75.8902 25.108 75.7942 25.652C75.7622 25.82 75.7462 25.996 75.7462 26.18C75.7462 26.556 75.8342 26.844 76.0102 27.044C76.1862 27.244 76.4262 27.344 76.7302 27.344C77.2582 27.344 77.6542 27.088 77.9182 26.576H80.1142C79.8022 27.36 79.3222 27.976 78.6742 28.424C78.0262 28.872 77.2862 29.096 76.4542 29.096C75.5902 29.096 74.9022 28.86 74.3902 28.388C73.8862 27.908 73.6342 27.256 73.6342 26.432C73.6342 26.184 73.6582 25.924 73.7062 25.652ZM86.3238 22.232C86.9798 22.232 87.4958 22.42 87.8718 22.796C88.2558 23.172 88.4478 23.696 88.4478 24.368C88.4478 24.592 88.4238 24.832 88.3758 25.088L87.6798 29H85.6398L86.2878 25.364C86.3118 25.228 86.3238 25.108 86.3238 25.004C86.3238 24.668 86.2278 24.408 86.0358 24.224C85.8518 24.04 85.5918 23.948 85.2558 23.948C84.8558 23.948 84.5198 24.072 84.2478 24.32C83.9758 24.568 83.7998 24.916 83.7198 25.364V25.34L83.0718 29H81.0198L82.5918 20.12H84.6438L84.1038 23.192C84.3678 22.896 84.6918 22.664 85.0758 22.496C85.4598 22.32 85.8758 22.232 86.3238 22.232ZM91.6857 21.608C91.3657 21.608 91.1097 21.524 90.9177 21.356C90.7337 21.18 90.6417 20.96 90.6417 20.696C90.6417 20.336 90.7817 20.028 91.0617 19.772C91.3417 19.516 91.6817 19.388 92.0817 19.388C92.4017 19.388 92.6537 19.476 92.8377 19.652C93.0217 19.82 93.1137 20.04 93.1137 20.312C93.1137 20.664 92.9737 20.968 92.6937 21.224C92.4137 21.48 92.0777 21.608 91.6857 21.608ZM92.5737 22.304L91.3977 29H89.3457L90.5217 22.304H92.5737ZM96.8688 22.208C97.3408 22.208 97.7408 22.304 98.0688 22.496C98.3968 22.688 98.6248 22.94 98.7528 23.252L98.9208 22.304H100.973L99.7968 28.988C99.6848 29.604 99.4608 30.16 99.1248 30.656C98.7968 31.16 98.3528 31.56 97.7928 31.856C97.2408 32.152 96.5968 32.3 95.8608 32.3C94.8688 32.3 94.1048 32.064 93.5688 31.592C93.0328 31.128 92.7928 30.496 92.8488 29.696H94.8768C94.9008 29.952 95.0168 30.152 95.2248 30.296C95.4408 30.448 95.7248 30.524 96.0768 30.524C96.5008 30.524 96.8608 30.4 97.1568 30.152C97.4528 29.912 97.6488 29.524 97.7448 28.988L97.9128 28.04C97.6568 28.352 97.3328 28.608 96.9408 28.808C96.5568 29 96.1288 29.096 95.6568 29.096C95.1848 29.096 94.7648 28.988 94.3968 28.772C94.0368 28.556 93.7528 28.248 93.5448 27.848C93.3448 27.448 93.2448 26.98 93.2448 26.444C93.2448 26.196 93.2688 25.928 93.3168 25.64C93.4368 24.952 93.6728 24.348 94.0248 23.828C94.3768 23.308 94.8008 22.908 95.2968 22.628C95.7928 22.348 96.3168 22.208 96.8688 22.208ZM98.3328 25.652C98.3568 25.508 98.3688 25.376 98.3688 25.256C98.3688 24.864 98.2528 24.556 98.0208 24.332C97.7968 24.108 97.5088 23.996 97.1568 23.996C96.7488 23.996 96.3768 24.144 96.0408 24.44C95.7048 24.728 95.4928 25.128 95.4048 25.64C95.3808 25.784 95.3688 25.916 95.3688 26.036C95.3688 26.428 95.4808 26.74 95.7048 26.972C95.9368 27.196 96.2248 27.308 96.5688 27.308C96.9768 27.308 97.3488 27.16 97.6848 26.864C98.0208 26.568 98.2368 26.164 98.3328 25.652ZM105.133 20.12L103.561 29H101.509L103.081 20.12H105.133ZM107.628 21.608C107.308 21.608 107.052 21.524 106.86 21.356C106.676 21.18 106.584 20.96 106.584 20.696C106.584 20.336 106.724 20.028 107.004 19.772C107.284 19.516 107.624 19.388 108.024 19.388C108.344 19.388 108.596 19.476 108.78 19.652C108.964 19.82 109.056 20.04 109.056 20.312C109.056 20.664 108.916 20.968 108.636 21.224C108.356 21.48 108.02 21.608 107.628 21.608ZM108.516 22.304L107.34 29H105.288L106.464 22.304H108.516ZM113.243 22.208C114.107 22.208 114.791 22.444 115.295 22.916C115.807 23.38 116.063 24.016 116.063 24.824C116.063 25.088 116.043 25.324 116.003 25.532C115.971 25.716 115.923 25.912 115.859 26.12H111.215C111.207 26.168 111.203 26.244 111.203 26.348C111.203 26.7 111.299 26.968 111.491 27.152C111.683 27.336 111.939 27.428 112.259 27.428C112.771 27.428 113.163 27.212 113.435 26.78H115.619C115.331 27.46 114.863 28.016 114.215 28.448C113.567 28.88 112.839 29.096 112.031 29.096C111.167 29.096 110.475 28.856 109.955 28.376C109.443 27.896 109.187 27.244 109.187 26.42C109.187 26.172 109.211 25.916 109.259 25.652C109.379 24.956 109.627 24.348 110.003 23.828C110.379 23.308 110.847 22.908 111.407 22.628C111.967 22.348 112.579 22.208 113.243 22.208ZM113.987 25.076C114.003 24.964 114.011 24.888 114.011 24.848C114.011 24.528 113.911 24.284 113.711 24.116C113.511 23.94 113.247 23.852 112.919 23.852C112.567 23.852 112.255 23.96 111.983 24.176C111.719 24.384 111.527 24.684 111.407 25.076H113.987Z" fill="#3CAA90"/>
<path d="M48.2779 44.792H46.1779L47.5219 41.576H48.9019L48.2779 44.792ZM51.0019 44.792H48.9139L50.2579 41.576H51.6259L51.0019 44.792ZM55.9221 50.096C55.3381 50.096 54.8181 49.996 54.3621 49.796C53.9061 49.596 53.5461 49.324 53.2821 48.98C53.0181 48.628 52.8701 48.236 52.8381 47.804H54.8661C54.8901 48.036 54.9981 48.224 55.1901 48.368C55.3821 48.512 55.6181 48.584 55.8981 48.584C56.1541 48.584 56.3501 48.536 56.4861 48.44C56.6301 48.336 56.7021 48.204 56.7021 48.044C56.7021 47.852 56.6021 47.712 56.4021 47.624C56.2021 47.528 55.8781 47.424 55.4301 47.312C54.9501 47.2 54.5501 47.084 54.2301 46.964C53.9101 46.836 53.6341 46.64 53.4021 46.376C53.1701 46.104 53.0541 45.74 53.0541 45.284C53.0541 44.9 53.1581 44.552 53.3661 44.24C53.5821 43.92 53.8941 43.668 54.3021 43.484C54.7181 43.3 55.2101 43.208 55.7781 43.208C56.6181 43.208 57.2781 43.416 57.7581 43.832C58.2461 44.248 58.5261 44.8 58.5981 45.488H56.7021C56.6701 45.256 56.5661 45.072 56.3901 44.936C56.2221 44.8 55.9981 44.732 55.7181 44.732C55.4781 44.732 55.2941 44.78 55.1661 44.876C55.0381 44.964 54.9741 45.088 54.9741 45.248C54.9741 45.44 55.0741 45.584 55.2741 45.68C55.4821 45.776 55.8021 45.872 56.2341 45.968C56.7301 46.096 57.1341 46.224 57.4461 46.352C57.7581 46.472 58.0301 46.672 58.2621 46.952C58.5021 47.224 58.6261 47.592 58.6341 48.056C58.6341 48.448 58.5221 48.8 58.2981 49.112C58.0821 49.416 57.7661 49.656 57.3501 49.832C56.9421 50.008 56.4661 50.096 55.9221 50.096ZM66.4415 46.544C66.4415 46.736 66.4295 46.936 66.4055 47.144H61.7615C61.7935 47.56 61.9255 47.88 62.1575 48.104C62.3975 48.32 62.6895 48.428 63.0335 48.428C63.5455 48.428 63.9015 48.212 64.1015 47.78H66.2855C66.1735 48.22 65.9695 48.616 65.6735 48.968C65.3855 49.32 65.0215 49.596 64.5815 49.796C64.1415 49.996 63.6495 50.096 63.1055 50.096C62.4495 50.096 61.8655 49.956 61.3535 49.676C60.8415 49.396 60.4415 48.996 60.1535 48.476C59.8655 47.956 59.7215 47.348 59.7215 46.652C59.7215 45.956 59.8615 45.348 60.1415 44.828C60.4295 44.308 60.8295 43.908 61.3415 43.628C61.8535 43.348 62.4415 43.208 63.1055 43.208C63.7535 43.208 64.3295 43.344 64.8335 43.616C65.3375 43.888 65.7295 44.276 66.0095 44.78C66.2975 45.284 66.4415 45.872 66.4415 46.544ZM64.3415 46.004C64.3415 45.652 64.2215 45.372 63.9815 45.164C63.7415 44.956 63.4415 44.852 63.0815 44.852C62.7375 44.852 62.4455 44.952 62.2055 45.152C61.9735 45.352 61.8295 45.636 61.7735 46.004H64.3415ZM67.356 46.64C67.356 45.952 67.484 45.348 67.74 44.828C68.004 44.308 68.36 43.908 68.808 43.628C69.256 43.348 69.756 43.208 70.308 43.208C70.78 43.208 71.192 43.304 71.544 43.496C71.904 43.688 72.18 43.94 72.372 44.252V43.304H74.424V50H72.372V49.052C72.172 49.364 71.892 49.616 71.532 49.808C71.18 50 70.768 50.096 70.296 50.096C69.752 50.096 69.256 49.956 68.808 49.676C68.36 49.388 68.004 48.984 67.74 48.464C67.484 47.936 67.356 47.328 67.356 46.64ZM72.372 46.652C72.372 46.14 72.228 45.736 71.94 45.44C71.66 45.144 71.316 44.996 70.908 44.996C70.5 44.996 70.152 45.144 69.864 45.44C69.584 45.728 69.444 46.128 69.444 46.64C69.444 47.152 69.584 47.56 69.864 47.864C70.152 48.16 70.5 48.308 70.908 48.308C71.316 48.308 71.66 48.16 71.94 47.864C72.228 47.568 72.372 47.164 72.372 46.652ZM78.8725 50.096C78.2885 50.096 77.7685 49.996 77.3125 49.796C76.8565 49.596 76.4965 49.324 76.2325 48.98C75.9685 48.628 75.8205 48.236 75.7885 47.804H77.8165C77.8405 48.036 77.9485 48.224 78.1405 48.368C78.3325 48.512 78.5685 48.584 78.8485 48.584C79.1045 48.584 79.3005 48.536 79.4365 48.44C79.5805 48.336 79.6525 48.204 79.6525 48.044C79.6525 47.852 79.5525 47.712 79.3525 47.624C79.1525 47.528 78.8285 47.424 78.3805 47.312C77.9005 47.2 77.5005 47.084 77.1805 46.964C76.8605 46.836 76.5845 46.64 76.3525 46.376C76.1205 46.104 76.0045 45.74 76.0045 45.284C76.0045 44.9 76.1085 44.552 76.3165 44.24C76.5325 43.92 76.8445 43.668 77.2525 43.484C77.6685 43.3 78.1605 43.208 78.7285 43.208C79.5685 43.208 80.2285 43.416 80.7085 43.832C81.1965 44.248 81.4765 44.8 81.5485 45.488H79.6525C79.6205 45.256 79.5165 45.072 79.3405 44.936C79.1725 44.8 78.9485 44.732 78.6685 44.732C78.4285 44.732 78.2445 44.78 78.1165 44.876C77.9885 44.964 77.9245 45.088 77.9245 45.248C77.9245 45.44 78.0245 45.584 78.2245 45.68C78.4325 45.776 78.7525 45.872 79.1845 45.968C79.6805 46.096 80.0845 46.224 80.3965 46.352C80.7085 46.472 80.9805 46.672 81.2125 46.952C81.4525 47.224 81.5765 47.592 81.5845 48.056C81.5845 48.448 81.4725 48.8 81.2485 49.112C81.0325 49.416 80.7165 49.656 80.3005 49.832C79.8925 50.008 79.4165 50.096 78.8725 50.096ZM87.1959 43.232C87.9639 43.232 88.5799 43.488 89.0439 44C89.5079 44.504 89.7399 45.2 89.7399 46.088V50H87.6999V46.364C87.6999 45.916 87.5839 45.568 87.3519 45.32C87.1199 45.072 86.8079 44.948 86.4159 44.948C86.0239 44.948 85.7119 45.072 85.4799 45.32C85.2479 45.568 85.1319 45.916 85.1319 46.364V50H83.0799V41.12H85.1319V44.204C85.3399 43.908 85.6239 43.672 85.9839 43.496C86.3439 43.32 86.7479 43.232 87.1959 43.232ZM97.7179 46.544C97.7179 46.736 97.7059 46.936 97.6819 47.144H93.0379C93.0699 47.56 93.2019 47.88 93.4339 48.104C93.6739 48.32 93.9659 48.428 94.3099 48.428C94.8219 48.428 95.1779 48.212 95.3779 47.78H97.5619C97.4499 48.22 97.2459 48.616 96.9499 48.968C96.6619 49.32 96.2979 49.596 95.8579 49.796C95.4179 49.996 94.9259 50.096 94.3819 50.096C93.7259 50.096 93.1419 49.956 92.6299 49.676C92.1179 49.396 91.7179 48.996 91.4299 48.476C91.1419 47.956 90.9979 47.348 90.9979 46.652C90.9979 45.956 91.1379 45.348 91.4179 44.828C91.7059 44.308 92.1059 43.908 92.6179 43.628C93.1299 43.348 93.7179 43.208 94.3819 43.208C95.0299 43.208 95.6059 43.344 96.1099 43.616C96.6139 43.888 97.0059 44.276 97.2859 44.78C97.5739 45.284 97.7179 45.872 97.7179 46.544ZM95.6179 46.004C95.6179 45.652 95.4979 45.372 95.2579 45.164C95.0179 44.956 94.7179 44.852 94.3579 44.852C94.0139 44.852 93.7219 44.952 93.4819 45.152C93.2499 45.352 93.1059 45.636 93.0499 46.004H95.6179ZM101.092 41.12V50H99.0404V41.12H101.092ZM104.871 41.12V50H102.819V41.12H104.871ZM109.323 50.096C108.739 50.096 108.219 49.996 107.763 49.796C107.307 49.596 106.947 49.324 106.683 48.98C106.419 48.628 106.271 48.236 106.239 47.804H108.267C108.291 48.036 108.399 48.224 108.591 48.368C108.783 48.512 109.019 48.584 109.299 48.584C109.555 48.584 109.751 48.536 109.887 48.44C110.031 48.336 110.103 48.204 110.103 48.044C110.103 47.852 110.003 47.712 109.803 47.624C109.603 47.528 109.279 47.424 108.831 47.312C108.351 47.2 107.951 47.084 107.631 46.964C107.311 46.836 107.035 46.64 106.803 46.376C106.571 46.104 106.455 45.74 106.455 45.284C106.455 44.9 106.559 44.552 106.767 44.24C106.983 43.92 107.295 43.668 107.703 43.484C108.119 43.3 108.611 43.208 109.179 43.208C110.019 43.208 110.679 43.416 111.159 43.832C111.647 44.248 111.927 44.8 111.999 45.488H110.103C110.071 45.256 109.967 45.072 109.791 44.936C109.623 44.8 109.399 44.732 109.119 44.732C108.879 44.732 108.695 44.78 108.567 44.876C108.439 44.964 108.375 45.088 108.375 45.248C108.375 45.44 108.475 45.584 108.675 45.68C108.883 45.776 109.203 45.872 109.635 45.968C110.131 46.096 110.535 46.224 110.847 46.352C111.159 46.472 111.431 46.672 111.663 46.952C111.903 47.224 112.027 47.592 112.035 48.056C112.035 48.448 111.923 48.8 111.699 49.112C111.483 49.416 111.167 49.656 110.751 49.832C110.343 50.008 109.867 50.096 109.323 50.096ZM113.998 41.576H116.098L114.754 44.792H113.374L113.998 41.576ZM116.722 41.576H118.822L117.478 44.792H116.098L116.722 41.576Z" fill="#393A32"/>
<rect x="24" y="169" width="118" height="40" rx="2" fill="#3CAA90" fill-opacity="0.1"/>
<path d="M37.176 189.536C37.176 188.608 37.3627 187.797 37.736 187.104C38.12 186.411 38.648 185.877 39.32 185.504C40.0027 185.131 40.7813 184.944 41.656 184.944C42.776 184.944 43.7093 185.237 44.456 185.824C45.2133 186.411 45.7093 187.237 45.944 188.304H43.032C42.7867 187.621 42.312 187.28 41.608 187.28C41.1067 187.28 40.7067 187.477 40.408 187.872C40.1093 188.256 39.96 188.811 39.96 189.536C39.96 190.261 40.1093 190.821 40.408 191.216C40.7067 191.6 41.1067 191.792 41.608 191.792C42.312 191.792 42.7867 191.451 43.032 190.768H45.944C45.7093 191.813 45.2133 192.635 44.456 193.232C43.6987 193.829 42.7653 194.128 41.656 194.128C40.7813 194.128 40.0027 193.941 39.32 193.568C38.648 193.195 38.12 192.661 37.736 191.968C37.3627 191.275 37.176 190.464 37.176 189.536ZM52.4315 194.128C51.5568 194.128 50.7675 193.941 50.0635 193.568C49.3702 193.195 48.8208 192.661 48.4155 191.968C48.0208 191.275 47.8235 190.464 47.8235 189.536C47.8235 188.619 48.0262 187.813 48.4315 187.12C48.8368 186.416 49.3915 185.877 50.0955 185.504C50.7995 185.131 51.5888 184.944 52.4635 184.944C53.3382 184.944 54.1275 185.131 54.8315 185.504C55.5355 185.877 56.0902 186.416 56.4955 187.12C56.9008 187.813 57.1035 188.619 57.1035 189.536C57.1035 190.453 56.8955 191.264 56.4795 191.968C56.0742 192.661 55.5142 193.195 54.7995 193.568C54.0955 193.941 53.3062 194.128 52.4315 194.128ZM52.4315 191.76C52.9542 191.76 53.3968 191.568 53.7595 191.184C54.1328 190.8 54.3195 190.251 54.3195 189.536C54.3195 188.821 54.1382 188.272 53.7755 187.888C53.4235 187.504 52.9862 187.312 52.4635 187.312C51.9302 187.312 51.4875 187.504 51.1355 187.888C50.7835 188.261 50.6075 188.811 50.6075 189.536C50.6075 190.251 50.7782 190.8 51.1195 191.184C51.4715 191.568 51.9088 191.76 52.4315 191.76ZM64.955 184.976C66.0003 184.976 66.8323 185.317 67.451 186C68.0803 186.672 68.395 187.6 68.395 188.784V194H65.675V189.152C65.675 188.555 65.5203 188.091 65.211 187.76C64.9017 187.429 64.4857 187.264 63.963 187.264C63.4403 187.264 63.0243 187.429 62.715 187.76C62.4057 188.091 62.251 188.555 62.251 189.152V194H59.515V185.072H62.251V186.256C62.5283 185.861 62.9017 185.552 63.371 185.328C63.8403 185.093 64.3683 184.976 64.955 184.976ZM70.7123 189.536C70.7123 188.608 70.8989 187.797 71.2723 187.104C71.6563 186.411 72.1843 185.877 72.8563 185.504C73.5389 185.131 74.3176 184.944 75.1923 184.944C76.3123 184.944 77.2456 185.237 77.9923 185.824C78.7496 186.411 79.2456 187.237 79.4803 188.304H76.5683C76.3229 187.621 75.8483 187.28 75.1443 187.28C74.6429 187.28 74.2429 187.477 73.9443 187.872C73.6456 188.256 73.4963 188.811 73.4963 189.536C73.4963 190.261 73.6456 190.821 73.9443 191.216C74.2429 191.6 74.6429 191.792 75.1443 191.792C75.8483 191.792 76.3229 191.451 76.5683 190.768H79.4803C79.2456 191.813 78.7496 192.635 77.9923 193.232C77.2349 193.829 76.3016 194.128 75.1923 194.128C74.3176 194.128 73.5389 193.941 72.8563 193.568C72.1843 193.195 71.6563 192.661 71.2723 191.968C70.8989 191.275 70.7123 190.464 70.7123 189.536ZM87.3918 184.976C88.4158 184.976 89.2371 185.317 89.8558 186C90.4744 186.672 90.7838 187.6 90.7838 188.784V194H88.0638V189.152C88.0638 188.555 87.9091 188.091 87.5998 187.76C87.2904 187.429 86.8744 187.264 86.3518 187.264C85.8291 187.264 85.4131 187.429 85.1038 187.76C84.7944 188.091 84.6398 188.555 84.6398 189.152V194H81.9038V182.16H84.6398V186.272C84.9171 185.877 85.2958 185.563 85.7758 185.328C86.2558 185.093 86.7944 184.976 87.3918 184.976ZM95.021 184.144C94.541 184.144 94.1463 184.005 93.837 183.728C93.5383 183.44 93.389 183.088 93.389 182.672C93.389 182.245 93.5383 181.893 93.837 181.616C94.1463 181.328 94.541 181.184 95.021 181.184C95.4903 181.184 95.8743 181.328 96.173 181.616C96.4823 181.893 96.637 182.245 96.637 182.672C96.637 183.088 96.4823 183.44 96.173 183.728C95.8743 184.005 95.4903 184.144 95.021 184.144ZM96.381 185.072V194H93.645V185.072H96.381ZM102.716 184.944C103.345 184.944 103.894 185.072 104.364 185.328C104.844 185.584 105.212 185.92 105.468 186.336V185.072H108.204V193.984C108.204 194.805 108.038 195.547 107.708 196.208C107.388 196.88 106.892 197.413 106.22 197.808C105.558 198.203 104.732 198.4 103.74 198.4C102.417 198.4 101.345 198.085 100.524 197.456C99.7024 196.837 99.2331 195.995 99.1158 194.928H101.82C101.905 195.269 102.108 195.536 102.428 195.728C102.748 195.931 103.142 196.032 103.612 196.032C104.177 196.032 104.625 195.867 104.956 195.536C105.297 195.216 105.468 194.699 105.468 193.984V192.72C105.201 193.136 104.833 193.477 104.364 193.744C103.894 194 103.345 194.128 102.716 194.128C101.98 194.128 101.313 193.941 100.716 193.568C100.118 193.184 99.6438 192.645 99.2918 191.952C98.9504 191.248 98.7798 190.437 98.7798 189.52C98.7798 188.603 98.9504 187.797 99.2918 187.104C99.6438 186.411 100.118 185.877 100.716 185.504C101.313 185.131 101.98 184.944 102.716 184.944ZM105.468 189.536C105.468 188.853 105.276 188.315 104.892 187.92C104.518 187.525 104.06 187.328 103.516 187.328C102.972 187.328 102.508 187.525 102.124 187.92C101.75 188.304 101.564 188.837 101.564 189.52C101.564 190.203 101.75 190.747 102.124 191.152C102.508 191.547 102.972 191.744 103.516 191.744C104.06 191.744 104.518 191.547 104.892 191.152C105.276 190.757 105.468 190.219 105.468 189.536ZM113.879 182.16V194H111.143V182.16H113.879ZM118.198 184.144C117.718 184.144 117.323 184.005 117.014 183.728C116.715 183.44 116.566 183.088 116.566 182.672C116.566 182.245 116.715 181.893 117.014 181.616C117.323 181.328 117.718 181.184 118.198 181.184C118.667 181.184 119.051 181.328 119.35 181.616C119.659 181.893 119.814 182.245 119.814 182.672C119.814 183.088 119.659 183.44 119.35 183.728C119.051 184.005 118.667 184.144 118.198 184.144ZM119.558 185.072V194H116.822V185.072H119.558ZM130.917 189.392C130.917 189.648 130.901 189.915 130.869 190.192H124.677C124.719 190.747 124.895 191.173 125.205 191.472C125.525 191.76 125.914 191.904 126.373 191.904C127.055 191.904 127.53 191.616 127.797 191.04H130.709C130.559 191.627 130.287 192.155 129.893 192.624C129.509 193.093 129.023 193.461 128.437 193.728C127.85 193.995 127.194 194.128 126.469 194.128C125.594 194.128 124.815 193.941 124.133 193.568C123.45 193.195 122.917 192.661 122.533 191.968C122.149 191.275 121.957 190.464 121.957 189.536C121.957 188.608 122.143 187.797 122.517 187.104C122.901 186.411 123.434 185.877 124.117 185.504C124.799 185.131 125.583 184.944 126.469 184.944C127.333 184.944 128.101 185.125 128.773 185.488C129.445 185.851 129.967 186.368 130.341 187.04C130.725 187.712 130.917 188.496 130.917 189.392ZM128.117 188.672C128.117 188.203 127.957 187.829 127.637 187.552C127.317 187.275 126.917 187.136 126.437 187.136C125.978 187.136 125.589 187.269 125.269 187.536C124.959 187.803 124.767 188.181 124.693 188.672H128.117Z" fill="#393A32"/>
<path d="M43 129.357C44.3224 122.724 46.6192 116.324 49.8158 110.364C54.7459 101.354 57.6176 98.162 60.3784 92.7636C63.4351 86.7982 63.2872 85.7875 66.2206 84.3332C78.9524 78.0104 94.1247 90.8285 103.011 83.1007C104.367 81.8681 107.793 78.3432 111.22 79.1073C112.674 79.4401 113.081 80.3398 116.026 81.4984C119.194 82.7309 119.662 82.1516 120.833 83.1007C123.582 85.3315 123.002 90.3478 122.818 91.9871C122.583 94.0084 122.362 95.9065 121.117 97.3485C118.146 100.787 111.343 99.3082 108.952 98.9878C102.666 98.125 92.7443 100.541 77.2639 116.058C74.0054 119.4 70.3841 122.369 66.4671 124.908C59.7006 129.653 54.5733 132.549 48.7805 131.662C46.7083 131.325 44.7352 130.538 43 129.357Z" stroke="#393A32" stroke-width="4" stroke-linecap="round" stroke-linejoin="round"/>
<path d="M118.578 99.0371C118.726 102.562 119.034 118.757 107.485 129.123C97.0334 138.465 82.8349 137.59 72.3338 136.937C64.8975 136.464 57.5755 134.869 50.6169 132.204" stroke="#393A32" stroke-width="4" stroke-linecap="round" stroke-linejoin="round"/>
<path d="M67.6503 124.686C68.557 125.262 69.3334 126.021 69.9298 126.915C70.5262 127.808 70.9294 128.816 71.1136 129.875C71.4711 133.461 68.1063 135.68 67.6996 135.939" stroke="#393A32" stroke-width="4" stroke-linecap="round" stroke-linejoin="round"/>
<path d="M75.7233 118.067C77.8095 120.017 79.3118 122.509 80.0617 125.265C81.0218 129.088 80.5207 133.131 78.6566 136.604" stroke="#393A32" stroke-width="4" stroke-linecap="round" stroke-linejoin="round"/>
<path d="M82.0214 113.445C85.431 115.787 88.0181 119.141 89.4164 123.034C90.1095 125.184 90.3479 127.454 90.1167 129.701C89.8854 131.948 89.1894 134.123 88.073 136.086" stroke="#393A32" stroke-width="4" stroke-linecap="round" stroke-linejoin="round"/>
<path d="M89.2809 108.084C92.8279 110.883 95.6514 114.493 97.5141 118.61C99.589 123.327 100.023 128.604 98.7466 133.597" stroke="#393A32" stroke-width="4" stroke-linecap="round" stroke-linejoin="round"/>
<path d="M95.3325 103.474C98.4532 105.815 101.083 108.746 103.073 112.102C105.967 117.017 107.356 122.674 107.066 128.371" stroke="#393A32" stroke-width="4" stroke-linecap="round" stroke-linejoin="round"/>
<path d="M103.159 99.7767C105.924 101.138 108.334 103.126 110.197 105.582C112.914 109.262 114.511 113.649 114.794 118.215" stroke="#393A32" stroke-width="4" stroke-linecap="round" stroke-linejoin="round"/>
<path d="M44.3804 128.371C47.3631 123.712 52.3671 115.799 58.5296 105.717C66.4177 92.8128 67.1572 91.2105 70.1153 89.6945C80.5423 84.5179 90.2545 94.7478 102.555 88.7331C105.135 87.1874 108.028 86.2398 111.022 85.96C114.991 85.8283 118.907 86.8933 122.263 89.0166" stroke="#393A32" stroke-width="4" stroke-linecap="round" stroke-linejoin="round"/>
</svg>
