<svg width="158" height="224" viewBox="0 0 158 224" fill="none" xmlns="http://www.w3.org/2000/svg">
<rect width="158" height="224" rx="5" fill="#FF4242"/>
<circle cx="79" cy="112" r="61" fill="#E0D6D6"/>
<circle cx="79" cy="112" r="51.6154" fill="#4B8174"/>
<circle cx="78.4134" cy="111.413" r="39.2981" fill="#E0D6D6"/>
<path d="M96.655 116.324L100.615 115.533C101.622 115.333 102.514 114.751 103.103 113.91C103.691 113.068 103.932 112.031 103.774 111.016L102.606 103.417C102.465 102.473 101.989 101.612 101.265 100.991C100.541 100.37 99.6172 100.03 98.6632 100.035H89.399L92.1251 96.7641C92.3119 96.5391 92.546 96.3581 92.8107 96.234C93.0754 96.1099 93.3643 96.0458 93.6567 96.0461H94.4334C94.6389 96.6274 95.019 97.1309 95.5216 97.4879C96.0242 97.8449 96.6248 98.0378 97.2413 98.0404H101.23C102.023 98.0404 102.784 97.7252 103.345 97.1642C103.906 96.6032 104.221 95.8424 104.221 95.049C104.221 94.2557 103.906 93.4948 103.345 92.9338C102.784 92.3728 102.023 92.0577 101.23 92.0577H97.2413C96.6248 92.0602 96.0242 92.2532 95.5216 92.6102C95.019 92.9671 94.6389 93.4707 94.4334 94.0519H93.6567C93.0719 94.051 92.494 94.1792 91.9644 94.4272C91.4348 94.6752 90.9664 95.037 90.5926 95.4868L86.8035 100.035H83.1401C82.9197 99.1809 82.4226 98.4243 81.7266 97.8831C81.0306 97.3419 80.1749 97.0466 79.2932 97.0433H76.3019C76.2829 97.0433 76.266 97.0532 76.2471 97.0542C75.5196 96.409 74.5821 96.0506 73.6097 96.0461H58.3538C57.296 96.0461 56.2815 96.4664 55.5335 97.2143C54.7856 97.9623 54.3654 98.9768 54.3654 100.035V107.014C54.3654 107.808 54.6805 108.569 55.2415 109.13C55.8025 109.691 56.5633 110.006 57.3567 110.006H58.3419C58.3351 113.616 57.9288 117.215 57.1304 120.736C57.0948 120.864 57.0855 120.998 57.1027 121.131C57.12 121.263 57.1636 121.39 57.2309 121.505C57.2982 121.62 57.3879 121.72 57.4947 121.8C57.6015 121.88 57.7231 121.938 57.8525 121.969C57.9819 122.001 58.1164 122.007 58.248 121.986C58.3796 121.965 58.5057 121.918 58.6188 121.848C58.7319 121.777 58.8298 121.685 58.9065 121.576C58.9833 121.467 59.0374 121.344 59.0658 121.213C59.9026 117.536 60.3286 113.777 60.3361 110.006H62.3303C62.1628 121.662 59.1794 127.954 56.3596 127.954C56.0951 127.954 55.8415 128.059 55.6545 128.246C55.4675 128.433 55.3625 128.686 55.3625 128.951C55.3625 129.215 55.4675 129.469 55.6545 129.656C55.8415 129.843 56.0951 129.948 56.3596 129.948C61.0012 129.948 64.152 121.971 64.3206 110.006H67.3119C67.1484 121.662 64.165 127.954 61.3452 127.954C61.0807 127.954 60.8271 128.059 60.6401 128.246C60.4531 128.433 60.348 128.686 60.348 128.951C60.348 129.215 60.4531 129.469 60.6401 129.656C60.8271 129.843 61.0807 129.948 61.3452 129.948C65.9867 129.948 69.1376 121.971 69.3061 110.006H72.2975C72.134 121.662 69.1506 127.954 66.3307 127.954C66.0663 127.954 65.8127 128.059 65.6257 128.246C65.4387 128.433 65.3336 128.686 65.3336 128.951C65.3336 129.215 65.4387 129.469 65.6257 129.656C65.8127 129.843 66.0663 129.948 66.3307 129.948C70.9723 129.948 74.1232 121.971 74.2917 110.006H75.903L75.3128 113.843C75.2771 114.075 75.3249 114.313 75.4475 114.513C75.5701 114.714 75.7597 114.865 75.9828 114.939L79.2384 116.024C79.8349 116.222 80.3538 116.603 80.7216 117.113C81.0894 117.622 81.2874 118.235 81.2875 118.863V126.957H73.7503C73.1232 126.958 72.5124 127.156 72.004 127.523C71.4957 127.89 71.1156 128.408 70.9175 129.003L70.375 130.63C70.3252 130.78 70.3116 130.939 70.3352 131.095C70.3588 131.25 70.419 131.398 70.5108 131.526C70.6027 131.654 70.7236 131.759 70.8636 131.831C71.0036 131.903 71.1587 131.942 71.3163 131.942H102.227C102.385 131.942 102.541 131.905 102.681 131.833C102.822 131.761 102.943 131.657 103.036 131.528C103.128 131.4 103.189 131.252 103.213 131.096C103.237 130.94 103.223 130.78 103.173 130.63L102.626 129.002C102.427 128.407 102.047 127.89 101.539 127.523C101.031 127.156 100.42 126.958 99.7929 126.957H94.25V119.258C94.2514 118.567 94.4916 117.897 94.9298 117.363C95.3681 116.828 95.9775 116.461 96.655 116.324ZM97.2413 94.0519H101.23C101.494 94.0519 101.748 94.157 101.935 94.344C102.122 94.531 102.227 94.7846 102.227 95.049C102.227 95.3135 102.122 95.5671 101.935 95.7541C101.748 95.9411 101.494 96.0461 101.23 96.0461H97.2413C96.9769 96.0461 96.7232 95.9411 96.5363 95.7541C96.3493 95.5671 96.2442 95.3135 96.2442 95.049C96.2442 94.7846 96.3493 94.531 96.5363 94.344C96.7232 94.157 96.9769 94.0519 97.2413 94.0519ZM81.0103 100.035H78.2961C78.2852 100.035 78.2762 100.04 78.2652 100.041L77.664 99.0375H79.2932C79.6417 99.0385 79.9838 99.1312 80.2852 99.3062C80.5866 99.4812 80.8366 99.7324 81.0103 100.035ZM56.3596 107.014V100.035C56.3596 99.5057 56.5697 98.9985 56.9437 98.6245C57.3177 98.2505 57.8249 98.0404 58.3538 98.0404H73.6097C73.9539 98.0413 74.292 98.1309 74.5915 98.3005C74.891 98.4701 75.1418 98.7139 75.3197 99.0086L77.1335 102.029L76.2132 108.012H57.3567C57.0923 108.012 56.8386 107.906 56.6516 107.719C56.4646 107.532 56.3596 107.279 56.3596 107.014ZM100.738 129.633L100.843 129.948H72.6993L72.804 129.633C72.8702 129.434 72.9972 129.262 73.167 129.139C73.3369 129.017 73.5409 128.951 73.7503 128.951H99.7929C100.002 128.951 100.206 129.017 100.376 129.139C100.545 129.262 100.672 129.435 100.738 129.633ZM83.2817 126.957V118.863C83.2826 117.817 82.9538 116.797 82.342 115.948C81.7302 115.099 80.8665 114.464 79.8736 114.134L77.4157 113.315L79.1516 102.029H98.6632C99.1403 102.028 99.6018 102.198 99.9633 102.51C100.325 102.821 100.562 103.252 100.632 103.724L101.8 111.323C101.878 111.831 101.758 112.349 101.463 112.77C101.169 113.191 100.723 113.482 100.22 113.582L96.2592 114.374C95.1318 114.603 94.118 115.214 93.3887 116.104C92.6595 116.994 92.2593 118.108 92.2557 119.258V126.957H83.2817Z" fill="#1A1A1A"/>
<path d="M96.655 116.324L100.615 115.533C101.622 115.333 102.514 114.751 103.103 113.91C103.691 113.068 103.932 112.031 103.774 111.016L102.606 103.417C102.465 102.473 101.989 101.612 101.265 100.991C100.541 100.37 99.6172 100.03 98.6632 100.035H89.399L92.1251 96.7641C92.3119 96.5391 92.546 96.3581 92.8107 96.234C93.0754 96.1099 93.3643 96.0458 93.6567 96.0461H94.4334C94.6389 96.6274 95.019 97.1309 95.5216 97.4879C96.0242 97.8449 96.6248 98.0378 97.2413 98.0404H101.23C102.023 98.0404 102.784 97.7252 103.345 97.1642C103.906 96.6032 104.221 95.8424 104.221 95.049C104.221 94.2557 103.906 93.4948 103.345 92.9338C102.784 92.3728 102.023 92.0577 101.23 92.0577H97.2413C96.6248 92.0602 96.0242 92.2532 95.5216 92.6102C95.019 92.9671 94.6389 93.4707 94.4334 94.0519H93.6567C93.0719 94.051 92.494 94.1792 91.9644 94.4272C91.4348 94.6752 90.9664 95.037 90.5926 95.4868L86.8035 100.035H83.1401C82.9197 99.1809 82.4226 98.4243 81.7266 97.8831C81.0306 97.3419 80.1749 97.0466 79.2932 97.0433H76.3019C76.2829 97.0433 76.266 97.0532 76.2471 97.0542C75.5196 96.409 74.5821 96.0506 73.6097 96.0461H58.3538C57.296 96.0461 56.2815 96.4664 55.5335 97.2143C54.7856 97.9623 54.3654 98.9768 54.3654 100.035V107.014C54.3654 107.808 54.6805 108.569 55.2415 109.13C55.8025 109.691 56.5633 110.006 57.3567 110.006H58.3419C58.3351 113.616 57.9288 117.215 57.1304 120.736C57.0948 120.864 57.0855 120.998 57.1027 121.131C57.12 121.263 57.1636 121.39 57.2309 121.505C57.2982 121.62 57.3879 121.72 57.4947 121.8C57.6015 121.88 57.7231 121.938 57.8525 121.969C57.9819 122.001 58.1164 122.007 58.248 121.986C58.3796 121.965 58.5057 121.918 58.6188 121.848C58.7319 121.777 58.8298 121.685 58.9065 121.576C58.9833 121.467 59.0374 121.344 59.0658 121.213C59.9026 117.536 60.3286 113.777 60.3361 110.006H62.3303C62.1628 121.662 59.1794 127.954 56.3596 127.954C56.0951 127.954 55.8415 128.059 55.6545 128.246C55.4675 128.433 55.3625 128.686 55.3625 128.951C55.3625 129.215 55.4675 129.469 55.6545 129.656C55.8415 129.843 56.0951 129.948 56.3596 129.948C61.0012 129.948 64.152 121.971 64.3206 110.006H67.3119C67.1484 121.662 64.165 127.954 61.3452 127.954C61.0807 127.954 60.8271 128.059 60.6401 128.246C60.4531 128.433 60.348 128.686 60.348 128.951C60.348 129.215 60.4531 129.469 60.6401 129.656C60.8271 129.843 61.0807 129.948 61.3452 129.948C65.9867 129.948 69.1376 121.971 69.3061 110.006H72.2975C72.134 121.662 69.1506 127.954 66.3307 127.954C66.0663 127.954 65.8127 128.059 65.6257 128.246C65.4387 128.433 65.3336 128.686 65.3336 128.951C65.3336 129.215 65.4387 129.469 65.6257 129.656C65.8127 129.843 66.0663 129.948 66.3307 129.948C70.9723 129.948 74.1232 121.971 74.2917 110.006H75.903L75.3128 113.843C75.2771 114.075 75.3249 114.313 75.4475 114.513C75.5701 114.714 75.7597 114.865 75.9828 114.939L79.2384 116.024C79.8349 116.222 80.3538 116.603 80.7216 117.113C81.0894 117.622 81.2874 118.235 81.2875 118.863V126.957H73.7503C73.1232 126.958 72.5124 127.156 72.004 127.523C71.4957 127.89 71.1156 128.408 70.9175 129.003L70.375 130.63C70.3252 130.78 70.3116 130.939 70.3352 131.095C70.3588 131.25 70.419 131.398 70.5108 131.526C70.6027 131.654 70.7236 131.759 70.8636 131.831C71.0036 131.903 71.1587 131.942 71.3163 131.942H102.227C102.385 131.942 102.541 131.905 102.681 131.833C102.822 131.761 102.943 131.657 103.036 131.528C103.128 131.4 103.189 131.252 103.213 131.096C103.237 130.94 103.223 130.78 103.173 130.63L102.626 129.002C102.427 128.407 102.047 127.89 101.539 127.523C101.031 127.156 100.42 126.958 99.7929 126.957H94.25V119.258C94.2514 118.567 94.4916 117.897 94.9298 117.363C95.3681 116.828 95.9775 116.461 96.655 116.324ZM97.2413 94.0519H101.23C101.494 94.0519 101.748 94.157 101.935 94.344C102.122 94.531 102.227 94.7846 102.227 95.049C102.227 95.3135 102.122 95.5671 101.935 95.7541C101.748 95.9411 101.494 96.0461 101.23 96.0461H97.2413C96.9769 96.0461 96.7232 95.9411 96.5363 95.7541C96.3493 95.5671 96.2442 95.3135 96.2442 95.049C96.2442 94.7846 96.3493 94.531 96.5363 94.344C96.7232 94.157 96.9769 94.0519 97.2413 94.0519ZM81.0103 100.035H78.2961C78.2852 100.035 78.2762 100.04 78.2652 100.041L77.664 99.0375H79.2932C79.6417 99.0385 79.9838 99.1312 80.2852 99.3062C80.5866 99.4812 80.8366 99.7324 81.0103 100.035ZM56.3596 107.014V100.035C56.3596 99.5057 56.5697 98.9985 56.9437 98.6245C57.3177 98.2505 57.8249 98.0404 58.3538 98.0404H73.6097C73.9539 98.0413 74.292 98.1309 74.5915 98.3005C74.891 98.4701 75.1418 98.7139 75.3197 99.0086L77.1335 102.029L76.2132 108.012H57.3567C57.0923 108.012 56.8386 107.906 56.6516 107.719C56.4646 107.532 56.3596 107.279 56.3596 107.014ZM100.738 129.633L100.843 129.948H72.6993L72.804 129.633C72.8702 129.434 72.9972 129.262 73.167 129.139C73.3369 129.017 73.5409 128.951 73.7503 128.951H99.7929C100.002 128.951 100.206 129.017 100.376 129.139C100.545 129.262 100.672 129.435 100.738 129.633ZM83.2817 126.957V118.863C83.2826 117.817 82.9538 116.797 82.342 115.948C81.7302 115.099 80.8665 114.464 79.8736 114.134L77.4157 113.315L79.1516 102.029H98.6632C99.1403 102.028 99.6018 102.198 99.9633 102.51C100.325 102.821 100.562 103.252 100.632 103.724L101.8 111.323C101.878 111.831 101.758 112.349 101.463 112.77C101.169 113.191 100.723 113.482 100.22 113.582L96.2592 114.374C95.1318 114.603 94.118 115.214 93.3887 116.104C92.6595 116.994 92.2593 118.108 92.2557 119.258V126.957H83.2817Z" fill="#1A1A1A"/>
<path d="M64.3366 100.035C64.3366 99.7702 64.2315 99.5165 64.0445 99.3296C63.8575 99.1426 63.6039 99.0375 63.3395 99.0375H59.351C59.0865 99.0375 58.8329 99.1426 58.6459 99.3296C58.4589 99.5165 58.3539 99.7702 58.3539 100.035C58.3539 100.299 58.4589 100.553 58.6459 100.74C58.8329 100.927 59.0865 101.032 59.351 101.032H63.3395C63.6039 101.032 63.8575 100.927 64.0445 100.74C64.2315 100.553 64.3366 100.299 64.3366 100.035Z" fill="#1A1A1A"/>
<path d="M87.2702 105.02C86.4814 105.02 85.7102 105.254 85.0543 105.692C84.3984 106.131 83.8872 106.754 83.5853 107.482C83.2835 108.211 83.2045 109.013 83.3584 109.787C83.5123 110.56 83.8921 111.271 84.4499 111.829C85.0077 112.387 85.7184 112.767 86.4921 112.92C87.2658 113.074 88.0677 112.995 88.7965 112.693C89.5253 112.392 90.1482 111.88 90.5865 111.225C91.0247 110.569 91.2587 109.797 91.2587 109.009C91.2587 107.951 90.8385 106.936 90.0905 106.188C89.3425 105.44 88.328 105.02 87.2702 105.02ZM87.2702 111.003C86.8758 111.003 86.4902 110.886 86.1623 110.667C85.8343 110.448 85.5787 110.136 85.4278 109.772C85.2768 109.407 85.2373 109.006 85.3143 108.62C85.3912 108.233 85.5812 107.877 85.8601 107.599C86.139 107.32 86.4943 107.13 86.8811 107.053C87.268 106.976 87.669 107.015 88.0334 107.166C88.3978 107.317 88.7092 107.573 88.9283 107.901C89.1475 108.229 89.2644 108.614 89.2644 109.009C89.2644 109.538 89.0543 110.045 88.6803 110.419C88.3063 110.793 87.7991 111.003 87.2702 111.003Z" fill="#1A1A1A"/>
</svg>
