<svg width="57" height="57" viewBox="0 0 57 57" fill="none" xmlns="http://www.w3.org/2000/svg">
<path d="M43.2191 18.0466C43.1664 17.8308 43.0514 17.6353 42.8883 17.4844C42.7252 17.3335 42.5213 17.2339 42.3019 17.198L18.5249 12.6725C18.376 12.6414 18.2224 12.6407 18.0731 12.6703C17.9239 12.6999 17.7822 12.7592 17.6564 12.8447C17.5307 12.9303 17.4235 13.0402 17.3412 13.1681C17.2589 13.296 17.2033 13.4391 17.1776 13.5889C17.1465 13.7377 17.1457 13.8913 17.1753 14.0404C17.2049 14.1895 17.2643 14.3311 17.3499 14.4568C17.4355 14.5824 17.5456 14.6896 17.6736 14.7718C17.8015 14.854 17.9447 14.9096 18.0947 14.9353L30.0964 17.198H16.0453C15.1445 17.198 14.2805 17.5556 13.6435 18.1922C13.0065 18.8287 12.6486 19.692 12.6486 20.5922V36.4316C12.6506 37.1319 12.8693 37.8144 13.2747 38.3856C13.6801 38.9568 14.2524 39.3887 14.9131 39.6221V40.9572C14.9131 41.8574 15.271 42.7207 15.908 43.3572C16.545 43.9937 17.4089 44.3513 18.3098 44.3513C19.2107 44.3513 20.0746 43.9937 20.7117 43.3572C21.3487 42.7207 21.7065 41.8574 21.7065 40.9572V39.8258H35.2934V40.9572C35.2934 41.8574 35.6513 42.7207 36.2883 43.3572C36.9253 43.9937 37.7892 44.3513 38.6901 44.3513C39.591 44.3513 40.4549 43.9937 41.0919 43.3572C41.7289 42.7207 42.0868 41.8574 42.0868 40.9572V39.6221C42.7475 39.3887 43.3198 38.9568 43.7252 38.3856C44.1306 37.8144 44.3493 37.1319 44.3513 36.4316V20.5922C44.3535 20.112 44.2537 19.6368 44.0586 19.198C43.8634 18.7592 43.5772 18.3667 43.2191 18.0466ZM19.442 40.9572C19.442 41.2572 19.3228 41.545 19.1104 41.7572C18.8981 41.9694 18.6101 42.0886 18.3098 42.0886C18.0095 42.0886 17.7215 41.9694 17.5092 41.7572C17.2969 41.545 17.1776 41.2572 17.1776 40.9572V39.8258H19.442V40.9572ZM39.8223 40.9572C39.8223 41.2572 39.703 41.545 39.4907 41.7572C39.2784 41.9694 38.9904 42.0886 38.6901 42.0886C38.3898 42.0886 38.1018 41.9694 37.8895 41.7572C37.6771 41.545 37.5579 41.2572 37.5579 40.9572V39.8258H39.8223V40.9572ZM42.0868 36.4316C42.0868 36.7317 41.9675 37.0195 41.7552 37.2316C41.5429 37.4438 41.2549 37.563 40.9546 37.563H16.0453C15.745 37.563 15.4571 37.4438 15.2447 37.2316C15.0324 37.0195 14.9131 36.7317 14.9131 36.4316V20.5922C14.9131 20.2921 15.0324 20.0044 15.2447 19.7922C15.4571 19.58 15.745 19.4608 16.0453 19.4608H40.9546C41.2549 19.4608 41.5429 19.58 41.7552 19.7922C41.9675 20.0044 42.0868 20.2921 42.0868 20.5922V36.4316ZM31.8967 33.0375C31.8967 33.3375 31.7774 33.6253 31.565 33.8375C31.3527 34.0496 31.0647 34.1688 30.7644 34.1688H18.3098C18.0095 34.1688 17.7215 34.0496 17.5092 33.8375C17.2969 33.6253 17.1776 33.3375 17.1776 33.0375C17.1776 32.7374 17.2969 32.4496 17.5092 32.2374C17.7215 32.0253 18.0095 31.9061 18.3098 31.9061H30.7644C31.0647 31.9061 31.3527 32.0253 31.565 32.2374C31.7774 32.4496 31.8967 32.7374 31.8967 33.0375ZM36.4256 29.6433C35.7538 29.6433 35.0971 29.8424 34.5385 30.2153C33.9799 30.5883 33.5446 31.1184 33.2875 31.7386C33.0304 32.3588 32.9631 33.0412 33.0942 33.6996C33.2252 34.358 33.5487 34.9628 34.0238 35.4375C34.4988 35.9122 35.1041 36.2354 35.763 36.3664C36.4219 36.4974 37.1048 36.4301 37.7255 36.1733C38.3462 35.9164 38.8767 35.4813 39.2499 34.9232C39.6231 34.365 39.8223 33.7088 39.8223 33.0375C39.8223 32.1373 39.4645 31.274 38.8275 30.6374C38.1905 30.0009 37.3265 29.6433 36.4256 29.6433ZM36.4256 34.1688C36.2017 34.1688 35.9828 34.1025 35.7966 33.9782C35.6104 33.8539 35.4653 33.6772 35.3796 33.4704C35.2939 33.2637 35.2715 33.0362 35.3151 32.8167C35.3588 32.5973 35.4667 32.3957 35.625 32.2374C35.7834 32.0792 35.9851 31.9715 36.2047 31.9278C36.4244 31.8842 36.652 31.9066 36.8589 31.9922C37.0658 32.0778 37.2426 32.2228 37.367 32.4089C37.4915 32.5949 37.5579 32.8137 37.5579 33.0375C37.5579 33.3375 37.4386 33.6253 37.2262 33.8375C37.0139 34.0496 36.7259 34.1688 36.4256 34.1688ZM36.4256 21.7236H20.5743C19.6734 21.7236 18.8095 22.0812 18.1724 22.7177C17.5354 23.3542 17.1776 24.2176 17.1776 25.1178C17.1776 26.0179 17.5354 26.8813 18.1724 27.5178C18.8095 28.1543 19.6734 28.5119 20.5743 28.5119H36.4256C37.3265 28.5119 38.1905 28.1543 38.8275 27.5178C39.4645 26.8813 39.8223 26.0179 39.8223 25.1178C39.8223 24.2176 39.4645 23.3542 38.8275 22.7177C38.1905 22.0812 37.3265 21.7236 36.4256 21.7236ZM36.4256 26.2491H20.5743C20.274 26.2491 19.986 26.1299 19.7737 25.9178C19.5613 25.7056 19.442 25.4178 19.442 25.1178C19.442 24.8177 19.5613 24.5299 19.7737 24.3177C19.986 24.1056 20.274 23.9864 20.5743 23.9864H36.4256C36.7259 23.9864 37.0139 24.1056 37.2262 24.3177C37.4386 24.5299 37.5579 24.8177 37.5579 25.1178C37.5579 25.4178 37.4386 25.7056 37.2262 25.9178C37.0139 26.1299 36.7259 26.2491 36.4256 26.2491Z" fill="#393A32"/>
<circle cx="28.5" cy="28.5" r="26.78" stroke="#393A32" stroke-width="2.56"/>
</svg>
