<svg width="158" height="224" viewBox="0 0 158 224" fill="none" xmlns="http://www.w3.org/2000/svg">
<rect width="158" height="224" rx="5" fill="#FFD300"/>
<mask id="path-2-inside-1" fill="white">
<rect x="9" y="9" width="140" height="207" rx="2"/>
</mask>
<rect x="9" y="9" width="140" height="207" rx="2" fill="white" stroke="#2179B9" stroke-width="14" mask="url(#path-2-inside-1)"/>
<path d="M33.1029 34.616H36.8469L39.9429 40.628L42.9669 34.616H46.7109V47H42.9669V40.394L40.6809 44.714H39.1509L36.8469 40.394V47H33.1029V34.616ZM53.7639 47.144C52.9839 47.144 52.2519 46.94 51.5679 46.532C50.8959 46.112 50.3559 45.548 49.9479 44.84C49.5399 44.12 49.3359 43.322 49.3359 42.446C49.3359 41.582 49.5399 40.802 49.9479 40.106C50.3559 39.398 50.9019 38.846 51.5859 38.45C52.2699 38.054 52.9959 37.856 53.7639 37.856C54.3879 37.856 54.9639 38.03 55.4919 38.378C56.0319 38.726 56.4399 39.248 56.7159 39.944V37.856H60.4959V47H56.7159V45.326C56.1159 46.538 55.1319 47.144 53.7639 47.144ZM54.9339 44.3C55.4139 44.3 55.8219 44.132 56.1579 43.796C56.5059 43.448 56.6919 43.04 56.7159 42.572V42.428C56.6919 41.948 56.4999 41.54 56.1399 41.204C55.7919 40.868 55.3899 40.7 54.9339 40.7C54.4299 40.7 53.9979 40.88 53.6379 41.24C53.2899 41.588 53.1159 42.008 53.1159 42.5C53.1159 43.004 53.2959 43.43 53.6559 43.778C54.0159 44.126 54.4419 44.3 54.9339 44.3ZM67.8451 47.144C66.8851 47.144 66.0331 46.952 65.2891 46.568C64.5571 46.172 63.9811 45.62 63.5611 44.912C63.1531 44.204 62.9491 43.4 62.9491 42.5C62.9491 41.636 63.1651 40.85 63.5971 40.142C64.0291 39.434 64.6171 38.876 65.3611 38.468C66.1051 38.06 66.9331 37.856 67.8451 37.856C69.0091 37.856 69.9271 38.096 70.5991 38.576L70.2571 40.97C69.5731 40.766 69.0091 40.664 68.5651 40.664C67.9891 40.664 67.5331 40.832 67.1971 41.168C66.8611 41.492 66.6931 41.936 66.6931 42.5C66.6931 43.064 66.8611 43.514 67.1971 43.85C67.5331 44.186 67.9771 44.354 68.5291 44.354C69.0091 44.354 69.5731 44.252 70.2211 44.048L70.5631 46.568C70.1551 46.772 69.7411 46.916 69.3211 47C68.9011 47.096 68.4091 47.144 67.8451 47.144ZM76.8419 47.144C76.0619 47.144 75.3299 46.94 74.6459 46.532C73.9739 46.112 73.4339 45.548 73.0259 44.84C72.6179 44.12 72.4139 43.322 72.4139 42.446C72.4139 41.582 72.6179 40.802 73.0259 40.106C73.4339 39.398 73.9799 38.846 74.6639 38.45C75.3479 38.054 76.0739 37.856 76.8419 37.856C77.4659 37.856 78.0419 38.03 78.5699 38.378C79.1099 38.726 79.5179 39.248 79.7939 39.944V37.856H83.5739V47H79.7939V45.326C79.1939 46.538 78.2099 47.144 76.8419 47.144ZM78.0119 44.3C78.4919 44.3 78.8999 44.132 79.2359 43.796C79.5839 43.448 79.7699 43.04 79.7939 42.572V42.428C79.7699 41.948 79.5779 41.54 79.2179 41.204C78.8699 40.868 78.4679 40.7 78.0119 40.7C77.5079 40.7 77.0759 40.88 76.7159 41.24C76.3679 41.588 76.1939 42.008 76.1939 42.5C76.1939 43.004 76.3739 43.43 76.7339 43.778C77.0939 44.126 77.5199 44.3 78.0119 44.3ZM86.4771 38.108H90.2751V39.944C90.5511 39.236 90.9231 38.714 91.3911 38.378C91.8711 38.03 92.4291 37.856 93.0651 37.856L93.5871 40.79C92.4471 40.79 91.6071 40.916 91.0671 41.168C90.5391 41.408 90.2751 41.792 90.2751 42.32V47H86.4771V38.108ZM100.324 47.144C99.3163 47.144 98.4163 46.946 97.6243 46.55C96.8443 46.154 96.2323 45.608 95.7883 44.912C95.3563 44.204 95.1403 43.394 95.1403 42.482C95.1403 41.57 95.3623 40.766 95.8063 40.07C96.2503 39.362 96.8623 38.816 97.6423 38.432C98.4343 38.048 99.3343 37.856 100.342 37.856C101.362 37.856 102.262 38.054 103.042 38.45C103.834 38.834 104.446 39.374 104.878 40.07C105.31 40.766 105.526 41.57 105.526 42.482C105.526 43.406 105.304 44.222 104.86 44.93C104.428 45.626 103.816 46.172 103.024 46.568C102.244 46.952 101.344 47.144 100.324 47.144ZM100.36 44.444C100.852 44.444 101.254 44.264 101.566 43.904C101.89 43.532 102.052 43.058 102.052 42.482C102.052 41.906 101.89 41.438 101.566 41.078C101.254 40.706 100.852 40.52 100.36 40.52C99.8683 40.52 99.4603 40.706 99.1363 41.078C98.8243 41.438 98.6683 41.906 98.6683 42.482C98.6683 43.058 98.8243 43.532 99.1363 43.904C99.4603 44.264 99.8683 44.444 100.36 44.444ZM107.955 38.108H111.573V39.944C112.269 38.552 113.373 37.856 114.885 37.856C116.037 37.856 116.937 38.27 117.585 39.098C118.245 39.914 118.575 41.048 118.575 42.5V47H114.795V42.122C114.795 41.606 114.681 41.21 114.453 40.934C114.237 40.658 113.931 40.52 113.535 40.52C113.247 40.52 112.965 40.616 112.689 40.808C112.413 40.988 112.185 41.252 112.005 41.6C111.837 41.948 111.753 42.344 111.753 42.788V47H107.955V38.108ZM124.561 47.144C123.553 47.144 122.767 46.82 122.203 46.172C121.639 45.524 121.357 44.642 121.357 43.526V37.982H125.173V43.364C125.173 43.64 125.245 43.856 125.389 44.012C125.545 44.156 125.743 44.228 125.983 44.228C126.223 44.228 126.469 44.156 126.721 44.012L126.919 46.514C126.655 46.718 126.307 46.874 125.875 46.982C125.455 47.09 125.017 47.144 124.561 47.144ZM123.265 36.632C122.701 36.632 122.221 36.458 121.825 36.11C121.441 35.75 121.249 35.312 121.249 34.796C121.249 34.28 121.453 33.848 121.861 33.5C122.269 33.152 122.737 32.978 123.265 32.978C123.817 32.978 124.291 33.158 124.687 33.518C125.095 33.878 125.299 34.304 125.299 34.796C125.299 35.324 125.095 35.762 124.687 36.11C124.279 36.458 123.805 36.632 123.265 36.632Z" fill="#393A32"/>
<path d="M49.9944 163.072H52.4064V164.296C52.6784 163.824 52.9864 163.476 53.3304 163.252C53.6824 163.02 54.0984 162.904 54.5784 162.904C55.0504 162.904 55.4584 163.024 55.8024 163.264C56.1544 163.496 56.4184 163.812 56.5944 164.212C57.1064 163.34 57.8504 162.904 58.8264 162.904C59.2904 162.904 59.6944 163.028 60.0384 163.276C60.3904 163.524 60.6624 163.884 60.8544 164.356C61.0464 164.82 61.1424 165.368 61.1424 166V169H58.6104V166C58.6104 165.592 58.5384 165.284 58.3944 165.076C58.2584 164.868 58.0664 164.764 57.8184 164.764C57.5464 164.764 57.3104 164.88 57.1104 165.112C56.9184 165.344 56.8224 165.624 56.8224 165.952V169H54.3144V166C54.3144 165.592 54.2424 165.284 54.0984 165.076C53.9624 164.868 53.7664 164.764 53.5104 164.764C53.2384 164.764 53.0064 164.88 52.8144 165.112C52.6224 165.344 52.5264 165.624 52.5264 165.952V169H49.9944V163.072ZM65.2028 169.096C64.6828 169.096 64.1948 168.96 63.7388 168.688C63.2908 168.408 62.9308 168.032 62.6588 167.56C62.3868 167.08 62.2508 166.548 62.2508 165.964C62.2508 165.388 62.3868 164.868 62.6588 164.404C62.9308 163.932 63.2948 163.564 63.7508 163.3C64.2068 163.036 64.6908 162.904 65.2028 162.904C65.6188 162.904 66.0028 163.02 66.3548 163.252C66.7148 163.484 66.9868 163.832 67.1708 164.296V162.904H69.6908V169H67.1708V167.884C66.7708 168.692 66.1148 169.096 65.2028 169.096ZM65.9828 167.2C66.3028 167.2 66.5748 167.088 66.7988 166.864C67.0308 166.632 67.1548 166.36 67.1708 166.048V165.952C67.1548 165.632 67.0268 165.36 66.7868 165.136C66.5548 164.912 66.2868 164.8 65.9828 164.8C65.6468 164.8 65.3588 164.92 65.1188 165.16C64.8868 165.392 64.7708 165.672 64.7708 166C64.7708 166.336 64.8908 166.62 65.1308 166.852C65.3708 167.084 65.6548 167.2 65.9828 167.2ZM77.0622 169.096C76.5262 169.096 76.0942 169.028 75.7662 168.892C75.4462 168.748 75.1822 168.512 74.9742 168.184C74.7662 167.856 74.5822 167.388 74.4222 166.78L73.7142 167.344V169H71.1702L71.1822 161.092L73.7262 160.72L73.7142 164.824L76.7982 162.304L78.1782 164.188L76.2462 165.532C76.3422 166.14 76.4782 166.564 76.6542 166.804C76.8382 167.044 77.1062 167.164 77.4582 167.164C77.6022 167.164 77.7742 167.14 77.9742 167.092L77.7342 169.06C77.4942 169.084 77.2702 169.096 77.0622 169.096ZM81.7375 169.096C81.2175 169.096 80.7295 168.96 80.2735 168.688C79.8255 168.408 79.4655 168.032 79.1935 167.56C78.9215 167.08 78.7855 166.548 78.7855 165.964C78.7855 165.388 78.9215 164.868 79.1935 164.404C79.4655 163.932 79.8295 163.564 80.2855 163.3C80.7415 163.036 81.2255 162.904 81.7375 162.904C82.1535 162.904 82.5375 163.02 82.8895 163.252C83.2495 163.484 83.5215 163.832 83.7055 164.296V162.904H86.2255V169H83.7055V167.884C83.3055 168.692 82.6495 169.096 81.7375 169.096ZM82.5175 167.2C82.8375 167.2 83.1095 167.088 83.3335 166.864C83.5655 166.632 83.6895 166.36 83.7055 166.048V165.952C83.6895 165.632 83.5615 165.36 83.3215 165.136C83.0895 164.912 82.8215 164.8 82.5175 164.8C82.1815 164.8 81.8935 164.92 81.6535 165.16C81.4215 165.392 81.3055 165.672 81.3055 166C81.3055 166.336 81.4255 166.62 81.6655 166.852C81.9055 167.084 82.1895 167.2 82.5175 167.2ZM87.6809 163.072H90.2129V164.296C90.3969 163.824 90.6449 163.476 90.9569 163.252C91.2769 163.02 91.6489 162.904 92.0729 162.904L92.4209 164.86C91.6609 164.86 91.1009 164.944 90.7409 165.112C90.3889 165.272 90.2129 165.528 90.2129 165.88V169H87.6809V163.072ZM95.3884 169.096C94.7164 169.096 94.1924 168.88 93.8164 168.448C93.4404 168.016 93.2524 167.428 93.2524 166.684V162.988H95.7964V166.576C95.7964 166.76 95.8444 166.904 95.9404 167.008C96.0444 167.104 96.1764 167.152 96.3364 167.152C96.4964 167.152 96.6604 167.104 96.8284 167.008L96.9604 168.676C96.7844 168.812 96.5524 168.916 96.2644 168.988C95.9844 169.06 95.6924 169.096 95.3884 169.096ZM94.5244 162.088C94.1484 162.088 93.8284 161.972 93.5644 161.74C93.3084 161.5 93.1804 161.208 93.1804 160.864C93.1804 160.52 93.3164 160.232 93.5884 160C93.8604 159.768 94.1724 159.652 94.5244 159.652C94.8924 159.652 95.2084 159.772 95.4724 160.012C95.7444 160.252 95.8804 160.536 95.8804 160.864C95.8804 161.216 95.7444 161.508 95.4724 161.74C95.2004 161.972 94.8844 162.088 94.5244 162.088ZM101.055 169.096C100.383 169.096 99.7832 168.964 99.2552 168.7C98.7352 168.436 98.3272 168.072 98.0312 167.608C97.7432 167.136 97.5992 166.596 97.5992 165.988C97.5992 165.38 97.7472 164.844 98.0432 164.38C98.3392 163.908 98.7472 163.544 99.2672 163.288C99.7952 163.032 100.395 162.904 101.067 162.904C101.747 162.904 102.347 163.036 102.867 163.3C103.395 163.556 103.803 163.916 104.091 164.38C104.379 164.844 104.523 165.38 104.523 165.988C104.523 166.604 104.375 167.148 104.079 167.62C103.791 168.084 103.383 168.448 102.855 168.712C102.335 168.968 101.735 169.096 101.055 169.096ZM101.079 167.296C101.407 167.296 101.675 167.176 101.883 166.936C102.099 166.688 102.207 166.372 102.207 165.988C102.207 165.604 102.099 165.292 101.883 165.052C101.675 164.804 101.407 164.68 101.079 164.68C100.751 164.68 100.479 164.804 100.263 165.052C100.055 165.292 99.9512 165.604 99.9512 165.988C99.9512 166.372 100.055 166.688 100.263 166.936C100.479 167.176 100.751 167.296 101.079 167.296ZM107.739 169.096C106.899 169.096 106.163 168.972 105.531 168.724L105.807 167.296C106.383 167.504 106.943 167.608 107.487 167.608C107.887 167.608 108.087 167.496 108.087 167.272C108.087 167.16 108.027 167.068 107.907 166.996C107.795 166.924 107.579 166.86 107.259 166.804C106.595 166.676 106.115 166.46 105.819 166.156C105.531 165.852 105.387 165.42 105.387 164.86C105.419 164.228 105.671 163.744 106.143 163.408C106.615 163.072 107.259 162.904 108.075 162.904C108.491 162.904 108.847 162.932 109.143 162.988C109.447 163.036 109.723 163.12 109.971 163.24L109.719 164.668C109.487 164.58 109.231 164.512 108.951 164.464C108.679 164.416 108.451 164.392 108.267 164.392C107.995 164.392 107.807 164.42 107.703 164.476C107.599 164.532 107.547 164.608 107.547 164.704C107.547 164.88 107.747 165.004 108.147 165.076C108.875 165.204 109.419 165.428 109.779 165.748C110.139 166.068 110.319 166.504 110.319 167.056C110.319 167.688 110.095 168.188 109.647 168.556C109.207 168.916 108.571 169.096 107.739 169.096Z" fill="#2179B9"/>
<path d="M25.2009 184.672C25.2009 183.752 25.2529 183.092 25.3569 182.692C25.4689 182.284 25.6889 182.004 26.0169 181.852C26.3529 181.7 26.9009 181.624 27.6609 181.624V183.028C27.2529 183.028 26.9849 183.036 26.8569 183.052C26.7289 183.068 26.6449 183.116 26.6049 183.196C26.5649 183.276 26.5449 183.428 26.5449 183.652H27.6609V185.896H25.2009V184.672ZM28.3209 184.672C28.3209 183.752 28.3729 183.092 28.4769 182.692C28.5889 182.284 28.8089 182.004 29.1369 181.852C29.4729 181.7 30.0209 181.624 30.7809 181.624V183.028C30.3729 183.028 30.1049 183.036 29.9769 183.052C29.8489 183.068 29.7649 183.116 29.7249 183.196C29.6849 183.276 29.6649 183.428 29.6649 183.652H30.7809V185.896H28.3209V184.672ZM36.6812 190.096C35.7612 190.096 35.1092 189.692 34.7252 188.884V190H32.1812V182.092L34.7252 181.72V185.116C34.9252 184.692 35.1852 184.384 35.5052 184.192C35.8252 184 36.2132 183.904 36.6692 183.904C37.2052 183.904 37.6972 184.04 38.1452 184.312C38.6012 184.576 38.9572 184.944 39.2132 185.416C39.4772 185.888 39.6092 186.416 39.6092 187C39.6092 187.576 39.4732 188.1 39.2012 188.572C38.9372 189.044 38.5772 189.416 38.1212 189.688C37.6732 189.96 37.1932 190.096 36.6812 190.096ZM35.9132 188.2C36.2412 188.2 36.5212 188.08 36.7532 187.84C36.9852 187.6 37.1012 187.32 37.1012 187C37.1012 186.664 36.9812 186.38 36.7412 186.148C36.5092 185.916 36.2332 185.8 35.9132 185.8C35.5852 185.8 35.3052 185.916 35.0732 186.148C34.8412 186.372 34.7252 186.64 34.7252 186.952V187C34.7252 187.336 34.8412 187.62 35.0732 187.852C35.3132 188.084 35.5932 188.2 35.9132 188.2ZM42.8764 190.096C42.1964 190.096 41.6684 189.884 41.2924 189.46C40.9244 189.028 40.7404 188.44 40.7404 187.696V182.092L43.2724 181.72V187.516C43.2724 187.74 43.3244 187.904 43.4284 188.008C43.5404 188.104 43.7324 188.152 44.0044 188.152C44.2044 188.152 44.4004 188.104 44.5924 188.008L44.6764 189.688C44.1404 189.96 43.5404 190.096 42.8764 190.096ZM48.6475 190.096C47.9835 190.096 47.3915 189.964 46.8715 189.7C46.3595 189.428 45.9595 189.06 45.6715 188.596C45.3835 188.124 45.2395 187.592 45.2395 187C45.2395 186.392 45.3875 185.852 45.6835 185.38C45.9795 184.908 46.3795 184.544 46.8835 184.288C47.3875 184.032 47.9475 183.904 48.5635 183.904C49.1555 183.904 49.6595 184.036 50.0755 184.3C50.4995 184.556 50.8155 184.908 51.0235 185.356C51.2315 185.796 51.3355 186.292 51.3355 186.844C51.3355 186.988 51.3275 187.092 51.3115 187.156L47.7115 187.624C47.8075 187.904 47.9635 188.108 48.1795 188.236C48.3955 188.356 48.6795 188.416 49.0315 188.416C49.5755 188.416 50.1635 188.276 50.7955 187.996L51.0955 189.604C50.3515 189.932 49.5355 190.096 48.6475 190.096ZM49.4755 186.112C49.3475 185.608 49.0435 185.356 48.5635 185.356C48.2755 185.356 48.0475 185.464 47.8795 185.68C47.7115 185.896 47.6235 186.176 47.6155 186.52L49.4755 186.112ZM54.5235 190.096C53.6835 190.096 52.9475 189.972 52.3155 189.724L52.5915 188.296C53.1675 188.504 53.7275 188.608 54.2715 188.608C54.6715 188.608 54.8715 188.496 54.8715 188.272C54.8715 188.16 54.8115 188.068 54.6915 187.996C54.5795 187.924 54.3635 187.86 54.0435 187.804C53.3795 187.676 52.8995 187.46 52.6035 187.156C52.3155 186.852 52.1715 186.42 52.1715 185.86C52.2035 185.228 52.4555 184.744 52.9275 184.408C53.3995 184.072 54.0435 183.904 54.8595 183.904C55.2755 183.904 55.6315 183.932 55.9275 183.988C56.2315 184.036 56.5075 184.12 56.7555 184.24L56.5035 185.668C56.2715 185.58 56.0155 185.512 55.7355 185.464C55.4635 185.416 55.2355 185.392 55.0515 185.392C54.7795 185.392 54.5915 185.42 54.4875 185.476C54.3835 185.532 54.3315 185.608 54.3315 185.704C54.3315 185.88 54.5315 186.004 54.9315 186.076C55.6595 186.204 56.2035 186.428 56.5635 186.748C56.9235 187.068 57.1035 187.504 57.1035 188.056C57.1035 188.688 56.8795 189.188 56.4315 189.556C55.9915 189.916 55.3555 190.096 54.5235 190.096ZM60.3065 190.096C59.4665 190.096 58.7305 189.972 58.0985 189.724L58.3745 188.296C58.9505 188.504 59.5105 188.608 60.0545 188.608C60.4545 188.608 60.6545 188.496 60.6545 188.272C60.6545 188.16 60.5945 188.068 60.4745 187.996C60.3625 187.924 60.1465 187.86 59.8265 187.804C59.1625 187.676 58.6825 187.46 58.3865 187.156C58.0985 186.852 57.9545 186.42 57.9545 185.86C57.9865 185.228 58.2385 184.744 58.7105 184.408C59.1825 184.072 59.8265 183.904 60.6425 183.904C61.0585 183.904 61.4145 183.932 61.7105 183.988C62.0145 184.036 62.2905 184.12 62.5385 184.24L62.2865 185.668C62.0545 185.58 61.7985 185.512 61.5185 185.464C61.2465 185.416 61.0185 185.392 60.8345 185.392C60.5625 185.392 60.3745 185.42 60.2705 185.476C60.1665 185.532 60.1145 185.608 60.1145 185.704C60.1145 185.88 60.3145 186.004 60.7145 186.076C61.4425 186.204 61.9865 186.428 62.3465 186.748C62.7065 187.068 62.8865 187.504 62.8865 188.056C62.8865 188.688 62.6625 189.188 62.2145 189.556C61.7745 189.916 61.1385 190.096 60.3065 190.096ZM67.1214 190.096C66.4574 190.096 65.8654 189.964 65.3454 189.7C64.8334 189.428 64.4334 189.06 64.1454 188.596C63.8574 188.124 63.7134 187.592 63.7134 187C63.7134 186.392 63.8614 185.852 64.1574 185.38C64.4534 184.908 64.8534 184.544 65.3574 184.288C65.8614 184.032 66.4214 183.904 67.0374 183.904C67.6294 183.904 68.1334 184.036 68.5494 184.3C68.9734 184.556 69.2894 184.908 69.4974 185.356C69.7054 185.796 69.8094 186.292 69.8094 186.844C69.8094 186.988 69.8014 187.092 69.7854 187.156L66.1854 187.624C66.2814 187.904 66.4374 188.108 66.6534 188.236C66.8694 188.356 67.1534 188.416 67.5054 188.416C68.0494 188.416 68.6374 188.276 69.2694 187.996L69.5694 189.604C68.8254 189.932 68.0094 190.096 67.1214 190.096ZM67.9494 186.112C67.8214 185.608 67.5174 185.356 67.0374 185.356C66.7494 185.356 66.5214 185.464 66.3534 185.68C66.1854 185.896 66.0974 186.176 66.0894 186.52L67.9494 186.112ZM73.5494 190.096C73.0054 190.096 72.5094 189.952 72.0614 189.664C71.6214 189.376 71.2734 188.996 71.0174 188.524C70.7614 188.044 70.6334 187.536 70.6334 187C70.6334 186.432 70.7654 185.912 71.0294 185.44C71.3014 184.96 71.6614 184.584 72.1094 184.312C72.5654 184.04 73.0494 183.904 73.5614 183.904C74.0254 183.904 74.4174 184 74.7374 184.192C75.0654 184.384 75.3294 184.692 75.5294 185.116V182.092L78.0614 181.72V190H75.5294V188.884C75.1534 189.692 74.4934 190.096 73.5494 190.096ZM74.3414 188.2C74.6774 188.2 74.9574 188.08 75.1814 187.84C75.4134 187.6 75.5294 187.32 75.5294 187V186.952C75.5294 186.64 75.4094 186.372 75.1694 186.148C74.9294 185.916 74.6534 185.8 74.3414 185.8C74.0054 185.8 73.7214 185.92 73.4894 186.16C73.2654 186.392 73.1534 186.672 73.1534 187C73.1534 187.336 73.2694 187.62 73.5014 187.852C73.7414 188.084 74.0214 188.2 74.3414 188.2ZM79.4686 190.624C79.8766 190.624 80.1446 190.616 80.2726 190.6C80.4006 190.584 80.4846 190.536 80.5246 190.456C80.5646 190.376 80.5846 190.224 80.5846 190H79.4686V187.756H81.9286V188.98C81.9286 189.9 81.8726 190.56 81.7606 190.96C81.6566 191.368 81.4366 191.648 81.1006 191.8C80.7726 191.952 80.2286 192.028 79.4686 192.028V190.624ZM85.7859 182.092L88.3179 181.72V185.224C88.4939 184.8 88.7579 184.476 89.1099 184.252C89.4699 184.02 89.9019 183.904 90.4059 183.904C91.1739 183.904 91.7739 184.18 92.2059 184.732C92.6459 185.276 92.8659 186.032 92.8659 187V190H90.3459V186.748C90.3459 186.404 90.2699 186.14 90.1179 185.956C89.9739 185.772 89.7699 185.68 89.5059 185.68C89.3139 185.68 89.1259 185.744 88.9419 185.872C88.7579 185.992 88.6059 186.168 88.4859 186.4C88.3739 186.632 88.3179 186.896 88.3179 187.192V190H85.7859V182.092ZM96.9162 190.096C96.3962 190.096 95.9082 189.96 95.4522 189.688C95.0042 189.408 94.6442 189.032 94.3722 188.56C94.1002 188.08 93.9642 187.548 93.9642 186.964C93.9642 186.388 94.1002 185.868 94.3722 185.404C94.6442 184.932 95.0082 184.564 95.4642 184.3C95.9202 184.036 96.4042 183.904 96.9162 183.904C97.3322 183.904 97.7162 184.02 98.0682 184.252C98.4282 184.484 98.7002 184.832 98.8842 185.296V183.904H101.404V190H98.8842V188.884C98.4842 189.692 97.8282 190.096 96.9162 190.096ZM97.6962 188.2C98.0162 188.2 98.2882 188.088 98.5122 187.864C98.7442 187.632 98.8682 187.36 98.8842 187.048V186.952C98.8682 186.632 98.7402 186.36 98.5002 186.136C98.2682 185.912 98.0002 185.8 97.6962 185.8C97.3602 185.8 97.0722 185.92 96.8322 186.16C96.6002 186.392 96.4842 186.672 96.4842 187C96.4842 187.336 96.6042 187.62 96.8442 187.852C97.0842 188.084 97.3682 188.2 97.6962 188.2ZM102.86 184.072H105.392V185.116C105.776 184.308 106.428 183.904 107.348 183.904C107.884 183.904 108.376 184.04 108.824 184.312C109.28 184.576 109.636 184.944 109.892 185.416C110.156 185.888 110.288 186.416 110.288 187C110.288 187.584 110.152 188.112 109.88 188.584C109.616 189.056 109.256 189.428 108.8 189.7C108.352 189.964 107.872 190.096 107.36 190.096C106.448 190.096 105.792 189.692 105.392 188.884V191.56L102.86 192.04V184.072ZM106.592 188.2C106.92 188.2 107.2 188.08 107.432 187.84C107.664 187.6 107.78 187.32 107.78 187C107.78 186.664 107.66 186.38 107.42 186.148C107.188 185.916 106.912 185.8 106.592 185.8C106.264 185.8 105.984 185.916 105.752 186.148C105.52 186.372 105.404 186.64 105.404 186.952V187C105.404 187.336 105.52 187.62 105.752 187.852C105.992 188.084 106.272 188.2 106.592 188.2ZM111.443 184.072H113.975V185.116C114.359 184.308 115.011 183.904 115.931 183.904C116.467 183.904 116.959 184.04 117.407 184.312C117.863 184.576 118.219 184.944 118.475 185.416C118.739 185.888 118.871 186.416 118.871 187C118.871 187.584 118.735 188.112 118.463 188.584C118.199 189.056 117.839 189.428 117.383 189.7C116.935 189.964 116.455 190.096 115.943 190.096C115.031 190.096 114.375 189.692 113.975 188.884V191.56L111.443 192.04V184.072ZM115.175 188.2C115.503 188.2 115.783 188.08 116.015 187.84C116.247 187.6 116.363 187.32 116.363 187C116.363 186.664 116.243 186.38 116.003 186.148C115.771 185.916 115.495 185.8 115.175 185.8C114.847 185.8 114.567 185.916 114.335 186.148C114.103 186.372 113.987 186.64 113.987 186.952V187C113.987 187.336 114.103 187.62 114.335 187.852C114.575 188.084 114.855 188.2 115.175 188.2ZM123.219 192.748C122.779 192.748 122.359 192.704 121.959 192.616L122.151 190.84C122.463 190.888 122.751 190.912 123.015 190.912C123.487 190.912 123.847 190.768 124.095 190.48C124.343 190.2 124.471 189.668 124.479 188.884C124.063 189.684 123.395 190.084 122.475 190.084C121.699 190.084 121.091 189.812 120.651 189.268C120.219 188.716 120.003 187.956 120.003 186.988V183.988H122.523V187.36C122.523 187.632 122.599 187.86 122.751 188.044C122.903 188.22 123.111 188.308 123.375 188.308C123.647 188.308 123.867 188.192 124.035 187.96C124.211 187.728 124.299 187.424 124.299 187.048V183.988H126.831V188.476C126.831 189.868 126.519 190.928 125.895 191.656C125.271 192.384 124.379 192.748 123.219 192.748ZM128.223 184.612C128.631 184.612 128.899 184.604 129.027 184.588C129.155 184.572 129.239 184.524 129.279 184.444C129.319 184.364 129.339 184.212 129.339 183.988H128.223V181.744H130.683V182.968C130.683 183.888 130.627 184.552 130.515 184.96C130.411 185.36 130.191 185.636 129.855 185.788C129.527 185.94 128.983 186.016 128.223 186.016V184.612ZM131.343 184.612C131.751 184.612 132.019 184.604 132.147 184.588C132.275 184.572 132.359 184.524 132.399 184.444C132.439 184.364 132.459 184.212 132.459 183.988H131.343V181.744H133.803V182.968C133.803 183.888 133.747 184.552 133.635 184.96C133.531 185.36 133.311 185.636 132.975 185.788C132.647 185.94 132.103 186.016 131.343 186.016V184.612Z" fill="#393A32"/>
<rect x="46" y="59.9014" width="65.45" height="0.897773" fill="#082D74"/>
<rect x="57.7809" y="59" width="13.9627" height="3.1422" fill="#3F8D43"/>
<rect x="71.7455" y="59" width="13.9627" height="3.1422" fill="white"/>
<rect x="85.7046" y="59" width="13.9627" height="3.1422" fill="#D12C29"/>
<path d="M64.2921 116.845C70.691 116.845 77.0185 114.159 82.6261 109.058C82.94 108.901 83.2311 108.702 83.4914 108.466V108.466C84.7053 107.359 85.1322 105.546 84.6629 103.493C84.259 101.727 83.2314 99.8711 81.7695 98.2687C80.3074 96.6663 78.5537 95.4734 76.8313 94.9095C74.83 94.2545 72.986 94.514 71.7721 95.6217C71.6594 95.7258 71.5531 95.8366 71.4538 95.9534C71.3045 96.0212 71.1668 96.112 71.0456 96.2224C69.1888 97.9166 66.9642 98.9594 64.7816 99.1588C62.7598 99.3423 61.0326 98.7699 59.9143 97.544C58.7958 96.3182 58.3828 94.5444 58.7513 92.5495C59.1495 90.3941 60.3914 88.2742 62.2484 86.5801C62.3694 86.4696 62.4724 86.3409 62.5535 86.1985C62.679 86.1102 62.799 86.0144 62.9129 85.9117L62.9131 85.9116C64.127 84.804 64.5539 82.9915 64.0847 80.9387C63.6807 79.172 62.6531 77.3165 61.1912 75.7141C59.7291 74.1117 57.9754 72.9187 56.2531 72.3549C54.2516 71.7 52.4077 71.9594 51.1938 73.0671C50.9342 73.3054 50.7084 73.5781 50.5226 73.8776C44.7841 79.129 41.5097 85.3675 41.0534 91.9227C40.621 98.1367 42.8239 104.235 47.2563 109.093C51.6888 113.951 57.5596 116.702 63.7872 116.84C63.9557 116.843 64.124 116.845 64.2921 116.845ZM52.9157 83.2644C53.0891 83.4545 53.2666 83.6386 53.4481 83.8166C52.2265 85.6126 51.2873 87.5853 50.6633 89.6658C49.1857 94.7257 50.1865 99.3532 53.5575 103.048C56.2036 105.948 59.5673 107.435 63.4127 107.435C64.5138 107.43 65.6118 107.317 66.6904 107.096C68.7935 106.656 70.8196 105.907 72.7025 104.872C72.9496 105.195 73.2134 105.511 73.494 105.819C73.7629 106.114 74.0411 106.394 74.3286 106.66C72.2666 107.797 70.0384 108.603 67.7258 109.046C61.9698 110.097 56.9726 108.352 52.8728 103.858C48.7745 99.3663 47.5134 94.2132 49.1247 88.5419C49.7812 86.3069 50.7767 84.1859 52.0766 82.2529C52.3375 82.5985 52.617 82.937 52.9157 83.2644ZM74.7264 97.6937C75.1103 97.7031 75.4904 97.7721 75.8531 97.8982C77.0505 98.2902 78.3601 99.1977 79.4463 100.388C81.7294 102.891 82.1116 105.468 81.3718 106.143C81.024 106.46 80.2906 106.478 79.4104 106.19C78.213 105.798 76.9034 104.89 75.8172 103.7C73.5341 101.197 73.1519 98.6197 73.8917 97.9447C74.1297 97.7615 74.4268 97.6721 74.7264 97.6937V97.6937ZM64.0383 102.338C64.3759 102.338 64.7191 102.322 65.0677 102.29C67.0151 102.092 68.8948 101.467 70.5731 100.459C70.5826 100.505 70.5901 100.549 70.6005 100.595C70.7253 101.129 70.896 101.652 71.1108 102.157C69.503 103.03 67.7748 103.662 65.9824 104.03C61.8868 104.83 58.4878 103.786 55.8807 100.928C53.2713 98.0686 52.5231 94.6052 53.6567 90.6344C54.1702 88.9006 54.9399 87.2533 55.9403 85.747C56.5449 86.1068 57.1864 86.4007 57.8538 86.6236C57.8978 86.638 57.9414 86.6505 57.9853 86.6641C56.8289 88.243 56.0346 90.0574 55.659 91.9781C55.1074 94.964 55.7936 97.6934 57.5911 99.6636C59.1819 101.407 61.4435 102.338 64.0383 102.338H64.0383ZM54.1481 75.1391C54.532 75.1485 54.9121 75.2175 55.2748 75.3436C56.4722 75.7356 57.7818 76.6431 58.868 77.8337C61.1511 80.3359 61.5333 82.9135 60.7935 83.5887C60.0532 84.264 57.5215 83.647 55.2389 81.1448C52.9558 78.6426 52.5736 76.0651 53.3134 75.3901C53.5514 75.2069 53.8485 75.1175 54.1481 75.1391ZM49.5795 106.973C45.7322 102.756 43.8184 97.4888 44.1906 92.141C44.5211 87.3918 46.5842 82.7959 50.1976 78.689C50.2532 78.8682 50.3162 79.0478 50.3837 79.2276C48.467 81.7235 47.026 84.5508 46.1325 87.5682C44.7712 92.2657 44.4323 99.2729 50.5497 105.978C55.1847 111.058 60.3117 112.48 64.6006 112.48C65.8786 112.478 67.1536 112.356 68.4092 112.118C71.5122 111.518 74.4744 110.338 77.1406 108.641C77.3603 108.752 77.5805 108.853 77.8014 108.944C73.3805 112.167 68.6132 113.8 63.8566 113.696C58.4972 113.578 53.4267 111.19 49.5795 106.973Z" fill="#1A1A1A"/>
<path d="M112.974 103.628C112.898 103.221 112.759 102.829 112.563 102.464C110.867 99.3266 105.464 99.1895 99.9957 102.146C97.5916 103.445 95.5697 105.159 94.3021 106.973C92.8139 109.102 92.486 111.184 93.3784 112.834C93.4661 112.994 93.5647 113.148 93.6734 113.295C93.6986 113.481 93.7571 113.661 93.8461 113.826C96.6913 119.09 95.4387 125.3 91.0538 127.671C88.9714 128.796 86.4791 128.897 84.036 127.954C81.5058 126.978 79.3414 125.013 77.9412 122.423C77.8518 122.259 77.7335 122.111 77.592 121.988C77.5286 121.817 77.4537 121.65 77.3679 121.489C76.4756 119.838 74.5525 118.975 71.9576 119.051C69.7463 119.118 67.2046 119.871 64.8007 121.17C62.3966 122.47 60.3746 124.184 59.1071 125.997C57.6189 128.126 57.2909 130.208 58.1833 131.859C58.3817 132.224 58.6352 132.557 58.9351 132.846C63.234 140.76 69.6229 146.011 77.4165 148.033C79.7223 148.626 82.0943 148.925 84.4753 148.92C89.7466 148.92 95.178 147.505 100.283 144.745C107.715 140.729 113.14 134.574 115.559 127.415C118.138 119.786 117.243 111.562 112.974 103.628ZM108.343 120.608C107.524 127.83 103.435 133.477 96.1885 137.394C88.9863 141.287 82.0439 141.606 75.5543 138.34C72.9763 137.022 70.6464 135.266 68.6684 133.152C69.3807 132.867 70.0759 132.542 70.7505 132.177C71.1721 131.949 71.5811 131.709 71.9773 131.456C73.778 133.403 75.9028 135.022 78.2571 136.242C80.7852 137.565 83.5921 138.267 86.4455 138.29C89.0945 138.29 92.0517 137.659 95.2058 135.954C102.255 132.144 104.252 126.174 104.686 121.836C104.934 119.22 104.74 116.581 104.113 114.03C104.72 113.776 105.332 113.485 105.946 113.153C106.57 112.816 107.177 112.446 107.763 112.045C108.458 114.843 108.655 117.742 108.343 120.608V120.608ZM96.8796 108.774C97.8574 107.375 99.5383 105.968 101.491 104.912C103.819 103.654 105.949 103.156 107.482 103.156C108.693 103.156 109.53 103.467 109.797 103.96C110.4 105.076 108.617 108.134 104.45 110.387C100.283 112.639 96.7478 112.455 96.1447 111.339C95.8602 110.813 96.1418 109.83 96.8796 108.774V108.774ZM82.9038 130.888C84.3215 131.445 85.8301 131.735 87.3534 131.744C89.1672 131.749 90.9534 131.3 92.5491 130.437C97.6283 127.692 99.6849 121.307 97.8348 115.257C98.0526 115.272 98.2738 115.282 98.5011 115.282C99.3788 115.276 100.253 115.177 101.11 114.987C101.612 117.127 101.763 119.335 101.557 121.523C101.036 126.73 98.3957 130.655 93.7105 133.187C89.0546 135.704 84.3698 135.807 79.7859 133.492C77.8144 132.478 76.0253 131.143 74.4923 129.542C75.2207 128.885 75.8751 128.15 76.444 127.351C76.6317 127.082 76.8009 126.814 76.9514 126.548C78.5322 128.479 80.5815 129.973 82.9038 130.888V130.888ZM61.6846 127.799C62.6625 126.4 64.3433 124.992 66.2961 123.936C68.2486 122.881 70.347 122.246 72.0531 122.194C72.1276 122.192 72.2006 122.191 72.273 122.191C73.4508 122.191 74.3334 122.488 74.6015 122.984C74.8861 123.51 74.6044 124.493 73.8665 125.549C72.8887 126.948 71.208 128.355 69.2553 129.411C67.3024 130.466 65.204 131.102 63.4981 131.153C62.2072 131.194 61.2342 130.89 60.9497 130.363C60.6651 129.837 60.9468 128.854 61.6846 127.799ZM112.58 126.408C110.416 132.811 105.518 138.341 98.7881 141.979C92.0582 145.617 84.7488 146.685 78.2061 144.989C72.2844 143.453 67.2562 139.783 63.5018 134.298C63.5325 134.297 63.5626 134.298 63.5935 134.297C64.1796 134.277 64.7636 134.216 65.341 134.113C65.9197 134.85 68.9484 138.502 74.019 141.087C77.3242 142.791 80.9873 143.685 84.706 143.694C88.5242 143.694 92.8916 142.751 97.6837 140.161C107.903 134.637 110.82 126.672 111.467 120.963C112.142 115.01 110.559 110.313 110.392 109.842C110.869 109.35 111.304 108.82 111.693 108.256C114.223 114.4 114.538 120.615 112.58 126.408Z" fill="#1A1A1A"/>
</svg>
