<svg width="158" height="224" viewBox="0 0 158 224" fill="none" xmlns="http://www.w3.org/2000/svg">
<rect width="158" height="224" rx="5" fill="#FFD300"/>
<mask id="path-2-inside-1" fill="white">
<rect x="9" y="9" width="140" height="207" rx="2"/>
</mask>
<rect x="9" y="9" width="140" height="207" rx="2" fill="white" stroke="#2179B9" stroke-width="14" mask="url(#path-2-inside-1)"/>
<path d="M50.9944 166.072H53.4064V167.296C53.6784 166.824 53.9864 166.476 54.3304 166.252C54.6824 166.02 55.0984 165.904 55.5784 165.904C56.0504 165.904 56.4584 166.024 56.8024 166.264C57.1544 166.496 57.4184 166.812 57.5944 167.212C58.1064 166.34 58.8504 165.904 59.8264 165.904C60.2904 165.904 60.6944 166.028 61.0384 166.276C61.3904 166.524 61.6624 166.884 61.8544 167.356C62.0464 167.82 62.1424 168.368 62.1424 169V172H59.6104V169C59.6104 168.592 59.5384 168.284 59.3944 168.076C59.2584 167.868 59.0664 167.764 58.8184 167.764C58.5464 167.764 58.3104 167.88 58.1104 168.112C57.9184 168.344 57.8224 168.624 57.8224 168.952V172H55.3144V169C55.3144 168.592 55.2424 168.284 55.0984 168.076C54.9624 167.868 54.7664 167.764 54.5104 167.764C54.2384 167.764 54.0064 167.88 53.8144 168.112C53.6224 168.344 53.5264 168.624 53.5264 168.952V172H50.9944V166.072ZM66.2028 172.096C65.6828 172.096 65.1948 171.96 64.7388 171.688C64.2908 171.408 63.9308 171.032 63.6588 170.56C63.3868 170.08 63.2508 169.548 63.2508 168.964C63.2508 168.388 63.3868 167.868 63.6588 167.404C63.9308 166.932 64.2948 166.564 64.7508 166.3C65.2068 166.036 65.6908 165.904 66.2028 165.904C66.6188 165.904 67.0028 166.02 67.3548 166.252C67.7148 166.484 67.9868 166.832 68.1708 167.296V165.904H70.6908V172H68.1708V170.884C67.7708 171.692 67.1148 172.096 66.2028 172.096ZM66.9828 170.2C67.3028 170.2 67.5748 170.088 67.7988 169.864C68.0308 169.632 68.1548 169.36 68.1708 169.048V168.952C68.1548 168.632 68.0268 168.36 67.7868 168.136C67.5548 167.912 67.2868 167.8 66.9828 167.8C66.6468 167.8 66.3588 167.92 66.1188 168.16C65.8868 168.392 65.7708 168.672 65.7708 169C65.7708 169.336 65.8908 169.62 66.1308 169.852C66.3708 170.084 66.6548 170.2 66.9828 170.2ZM78.0622 172.096C77.5262 172.096 77.0942 172.028 76.7662 171.892C76.4462 171.748 76.1822 171.512 75.9742 171.184C75.7662 170.856 75.5822 170.388 75.4222 169.78L74.7142 170.344V172H72.1702L72.1822 164.092L74.7262 163.72L74.7142 167.824L77.7982 165.304L79.1782 167.188L77.2462 168.532C77.3422 169.14 77.4782 169.564 77.6542 169.804C77.8382 170.044 78.1062 170.164 78.4582 170.164C78.6022 170.164 78.7742 170.14 78.9742 170.092L78.7342 172.06C78.4942 172.084 78.2702 172.096 78.0622 172.096ZM82.7375 172.096C82.2175 172.096 81.7295 171.96 81.2735 171.688C80.8255 171.408 80.4655 171.032 80.1935 170.56C79.9215 170.08 79.7855 169.548 79.7855 168.964C79.7855 168.388 79.9215 167.868 80.1935 167.404C80.4655 166.932 80.8295 166.564 81.2855 166.3C81.7415 166.036 82.2255 165.904 82.7375 165.904C83.1535 165.904 83.5375 166.02 83.8895 166.252C84.2495 166.484 84.5215 166.832 84.7055 167.296V165.904H87.2255V172H84.7055V170.884C84.3055 171.692 83.6495 172.096 82.7375 172.096ZM83.5175 170.2C83.8375 170.2 84.1095 170.088 84.3335 169.864C84.5655 169.632 84.6895 169.36 84.7055 169.048V168.952C84.6895 168.632 84.5615 168.36 84.3215 168.136C84.0895 167.912 83.8215 167.8 83.5175 167.8C83.1815 167.8 82.8935 167.92 82.6535 168.16C82.4215 168.392 82.3055 168.672 82.3055 169C82.3055 169.336 82.4255 169.62 82.6655 169.852C82.9055 170.084 83.1895 170.2 83.5175 170.2ZM88.6809 166.072H91.2129V167.296C91.3969 166.824 91.6449 166.476 91.9569 166.252C92.2769 166.02 92.6489 165.904 93.0729 165.904L93.4209 167.86C92.6609 167.86 92.1009 167.944 91.7409 168.112C91.3889 168.272 91.2129 168.528 91.2129 168.88V172H88.6809V166.072ZM96.3884 172.096C95.7164 172.096 95.1924 171.88 94.8164 171.448C94.4404 171.016 94.2524 170.428 94.2524 169.684V165.988H96.7964V169.576C96.7964 169.76 96.8444 169.904 96.9404 170.008C97.0444 170.104 97.1764 170.152 97.3364 170.152C97.4964 170.152 97.6604 170.104 97.8284 170.008L97.9604 171.676C97.7844 171.812 97.5524 171.916 97.2644 171.988C96.9844 172.06 96.6924 172.096 96.3884 172.096ZM95.5244 165.088C95.1484 165.088 94.8284 164.972 94.5644 164.74C94.3084 164.5 94.1804 164.208 94.1804 163.864C94.1804 163.52 94.3164 163.232 94.5884 163C94.8604 162.768 95.1724 162.652 95.5244 162.652C95.8924 162.652 96.2084 162.772 96.4724 163.012C96.7444 163.252 96.8804 163.536 96.8804 163.864C96.8804 164.216 96.7444 164.508 96.4724 164.74C96.2004 164.972 95.8844 165.088 95.5244 165.088ZM102.055 172.096C101.383 172.096 100.783 171.964 100.255 171.7C99.7352 171.436 99.3272 171.072 99.0312 170.608C98.7432 170.136 98.5992 169.596 98.5992 168.988C98.5992 168.38 98.7472 167.844 99.0432 167.38C99.3392 166.908 99.7472 166.544 100.267 166.288C100.795 166.032 101.395 165.904 102.067 165.904C102.747 165.904 103.347 166.036 103.867 166.3C104.395 166.556 104.803 166.916 105.091 167.38C105.379 167.844 105.523 168.38 105.523 168.988C105.523 169.604 105.375 170.148 105.079 170.62C104.791 171.084 104.383 171.448 103.855 171.712C103.335 171.968 102.735 172.096 102.055 172.096ZM102.079 170.296C102.407 170.296 102.675 170.176 102.883 169.936C103.099 169.688 103.207 169.372 103.207 168.988C103.207 168.604 103.099 168.292 102.883 168.052C102.675 167.804 102.407 167.68 102.079 167.68C101.751 167.68 101.479 167.804 101.263 168.052C101.055 168.292 100.951 168.604 100.951 168.988C100.951 169.372 101.055 169.688 101.263 169.936C101.479 170.176 101.751 170.296 102.079 170.296ZM108.739 172.096C107.899 172.096 107.163 171.972 106.531 171.724L106.807 170.296C107.383 170.504 107.943 170.608 108.487 170.608C108.887 170.608 109.087 170.496 109.087 170.272C109.087 170.16 109.027 170.068 108.907 169.996C108.795 169.924 108.579 169.86 108.259 169.804C107.595 169.676 107.115 169.46 106.819 169.156C106.531 168.852 106.387 168.42 106.387 167.86C106.419 167.228 106.671 166.744 107.143 166.408C107.615 166.072 108.259 165.904 109.075 165.904C109.491 165.904 109.847 165.932 110.143 165.988C110.447 166.036 110.723 166.12 110.971 166.24L110.719 167.668C110.487 167.58 110.231 167.512 109.951 167.464C109.679 167.416 109.451 167.392 109.267 167.392C108.995 167.392 108.807 167.42 108.703 167.476C108.599 167.532 108.547 167.608 108.547 167.704C108.547 167.88 108.747 168.004 109.147 168.076C109.875 168.204 110.419 168.428 110.779 168.748C111.139 169.068 111.319 169.504 111.319 170.056C111.319 170.688 111.095 171.188 110.647 171.556C110.207 171.916 109.571 172.096 108.739 172.096Z" fill="#2179B9"/>
<path d="M26.2009 187.672C26.2009 186.752 26.2529 186.092 26.3569 185.692C26.4689 185.284 26.6889 185.004 27.0169 184.852C27.3529 184.7 27.9009 184.624 28.6609 184.624V186.028C28.2529 186.028 27.9849 186.036 27.8569 186.052C27.7289 186.068 27.6449 186.116 27.6049 186.196C27.5649 186.276 27.5449 186.428 27.5449 186.652H28.6609V188.896H26.2009V187.672ZM29.3209 187.672C29.3209 186.752 29.3729 186.092 29.4769 185.692C29.5889 185.284 29.8089 185.004 30.1369 184.852C30.4729 184.7 31.0209 184.624 31.7809 184.624V186.028C31.3729 186.028 31.1049 186.036 30.9769 186.052C30.8489 186.068 30.7649 186.116 30.7249 186.196C30.6849 186.276 30.6649 186.428 30.6649 186.652H31.7809V188.896H29.3209V187.672ZM37.6812 193.096C36.7612 193.096 36.1092 192.692 35.7252 191.884V193H33.1812V185.092L35.7252 184.72V188.116C35.9252 187.692 36.1852 187.384 36.5052 187.192C36.8252 187 37.2132 186.904 37.6692 186.904C38.2052 186.904 38.6972 187.04 39.1452 187.312C39.6012 187.576 39.9572 187.944 40.2132 188.416C40.4772 188.888 40.6092 189.416 40.6092 190C40.6092 190.576 40.4732 191.1 40.2012 191.572C39.9372 192.044 39.5772 192.416 39.1212 192.688C38.6732 192.96 38.1932 193.096 37.6812 193.096ZM36.9132 191.2C37.2412 191.2 37.5212 191.08 37.7532 190.84C37.9852 190.6 38.1012 190.32 38.1012 190C38.1012 189.664 37.9812 189.38 37.7412 189.148C37.5092 188.916 37.2332 188.8 36.9132 188.8C36.5852 188.8 36.3052 188.916 36.0732 189.148C35.8412 189.372 35.7252 189.64 35.7252 189.952V190C35.7252 190.336 35.8412 190.62 36.0732 190.852C36.3132 191.084 36.5932 191.2 36.9132 191.2ZM43.8764 193.096C43.1964 193.096 42.6684 192.884 42.2924 192.46C41.9244 192.028 41.7404 191.44 41.7404 190.696V185.092L44.2724 184.72V190.516C44.2724 190.74 44.3244 190.904 44.4284 191.008C44.5404 191.104 44.7324 191.152 45.0044 191.152C45.2044 191.152 45.4004 191.104 45.5924 191.008L45.6764 192.688C45.1404 192.96 44.5404 193.096 43.8764 193.096ZM49.6475 193.096C48.9835 193.096 48.3915 192.964 47.8715 192.7C47.3595 192.428 46.9595 192.06 46.6715 191.596C46.3835 191.124 46.2395 190.592 46.2395 190C46.2395 189.392 46.3875 188.852 46.6835 188.38C46.9795 187.908 47.3795 187.544 47.8835 187.288C48.3875 187.032 48.9475 186.904 49.5635 186.904C50.1555 186.904 50.6595 187.036 51.0755 187.3C51.4995 187.556 51.8155 187.908 52.0235 188.356C52.2315 188.796 52.3355 189.292 52.3355 189.844C52.3355 189.988 52.3275 190.092 52.3115 190.156L48.7115 190.624C48.8075 190.904 48.9635 191.108 49.1795 191.236C49.3955 191.356 49.6795 191.416 50.0315 191.416C50.5755 191.416 51.1635 191.276 51.7955 190.996L52.0955 192.604C51.3515 192.932 50.5355 193.096 49.6475 193.096ZM50.4755 189.112C50.3475 188.608 50.0435 188.356 49.5635 188.356C49.2755 188.356 49.0475 188.464 48.8795 188.68C48.7115 188.896 48.6235 189.176 48.6155 189.52L50.4755 189.112ZM55.5235 193.096C54.6835 193.096 53.9475 192.972 53.3155 192.724L53.5915 191.296C54.1675 191.504 54.7275 191.608 55.2715 191.608C55.6715 191.608 55.8715 191.496 55.8715 191.272C55.8715 191.16 55.8115 191.068 55.6915 190.996C55.5795 190.924 55.3635 190.86 55.0435 190.804C54.3795 190.676 53.8995 190.46 53.6035 190.156C53.3155 189.852 53.1715 189.42 53.1715 188.86C53.2035 188.228 53.4555 187.744 53.9275 187.408C54.3995 187.072 55.0435 186.904 55.8595 186.904C56.2755 186.904 56.6315 186.932 56.9275 186.988C57.2315 187.036 57.5075 187.12 57.7555 187.24L57.5035 188.668C57.2715 188.58 57.0155 188.512 56.7355 188.464C56.4635 188.416 56.2355 188.392 56.0515 188.392C55.7795 188.392 55.5915 188.42 55.4875 188.476C55.3835 188.532 55.3315 188.608 55.3315 188.704C55.3315 188.88 55.5315 189.004 55.9315 189.076C56.6595 189.204 57.2035 189.428 57.5635 189.748C57.9235 190.068 58.1035 190.504 58.1035 191.056C58.1035 191.688 57.8795 192.188 57.4315 192.556C56.9915 192.916 56.3555 193.096 55.5235 193.096ZM61.3065 193.096C60.4665 193.096 59.7305 192.972 59.0985 192.724L59.3745 191.296C59.9505 191.504 60.5105 191.608 61.0545 191.608C61.4545 191.608 61.6545 191.496 61.6545 191.272C61.6545 191.16 61.5945 191.068 61.4745 190.996C61.3625 190.924 61.1465 190.86 60.8265 190.804C60.1625 190.676 59.6825 190.46 59.3865 190.156C59.0985 189.852 58.9545 189.42 58.9545 188.86C58.9865 188.228 59.2385 187.744 59.7105 187.408C60.1825 187.072 60.8265 186.904 61.6425 186.904C62.0585 186.904 62.4145 186.932 62.7105 186.988C63.0145 187.036 63.2905 187.12 63.5385 187.24L63.2865 188.668C63.0545 188.58 62.7985 188.512 62.5185 188.464C62.2465 188.416 62.0185 188.392 61.8345 188.392C61.5625 188.392 61.3745 188.42 61.2705 188.476C61.1665 188.532 61.1145 188.608 61.1145 188.704C61.1145 188.88 61.3145 189.004 61.7145 189.076C62.4425 189.204 62.9865 189.428 63.3465 189.748C63.7065 190.068 63.8865 190.504 63.8865 191.056C63.8865 191.688 63.6625 192.188 63.2145 192.556C62.7745 192.916 62.1385 193.096 61.3065 193.096ZM68.1214 193.096C67.4574 193.096 66.8654 192.964 66.3454 192.7C65.8334 192.428 65.4334 192.06 65.1454 191.596C64.8574 191.124 64.7134 190.592 64.7134 190C64.7134 189.392 64.8614 188.852 65.1574 188.38C65.4534 187.908 65.8534 187.544 66.3574 187.288C66.8614 187.032 67.4214 186.904 68.0374 186.904C68.6294 186.904 69.1334 187.036 69.5494 187.3C69.9734 187.556 70.2894 187.908 70.4974 188.356C70.7054 188.796 70.8094 189.292 70.8094 189.844C70.8094 189.988 70.8014 190.092 70.7854 190.156L67.1854 190.624C67.2814 190.904 67.4374 191.108 67.6534 191.236C67.8694 191.356 68.1534 191.416 68.5054 191.416C69.0494 191.416 69.6374 191.276 70.2694 190.996L70.5694 192.604C69.8254 192.932 69.0094 193.096 68.1214 193.096ZM68.9494 189.112C68.8214 188.608 68.5174 188.356 68.0374 188.356C67.7494 188.356 67.5214 188.464 67.3534 188.68C67.1854 188.896 67.0974 189.176 67.0894 189.52L68.9494 189.112ZM74.5494 193.096C74.0054 193.096 73.5094 192.952 73.0614 192.664C72.6214 192.376 72.2734 191.996 72.0174 191.524C71.7614 191.044 71.6334 190.536 71.6334 190C71.6334 189.432 71.7654 188.912 72.0294 188.44C72.3014 187.96 72.6614 187.584 73.1094 187.312C73.5654 187.04 74.0494 186.904 74.5614 186.904C75.0254 186.904 75.4174 187 75.7374 187.192C76.0654 187.384 76.3294 187.692 76.5294 188.116V185.092L79.0614 184.72V193H76.5294V191.884C76.1534 192.692 75.4934 193.096 74.5494 193.096ZM75.3414 191.2C75.6774 191.2 75.9574 191.08 76.1814 190.84C76.4134 190.6 76.5294 190.32 76.5294 190V189.952C76.5294 189.64 76.4094 189.372 76.1694 189.148C75.9294 188.916 75.6534 188.8 75.3414 188.8C75.0054 188.8 74.7214 188.92 74.4894 189.16C74.2654 189.392 74.1534 189.672 74.1534 190C74.1534 190.336 74.2694 190.62 74.5014 190.852C74.7414 191.084 75.0214 191.2 75.3414 191.2ZM80.4686 193.624C80.8766 193.624 81.1446 193.616 81.2726 193.6C81.4006 193.584 81.4846 193.536 81.5246 193.456C81.5646 193.376 81.5846 193.224 81.5846 193H80.4686V190.756H82.9286V191.98C82.9286 192.9 82.8726 193.56 82.7606 193.96C82.6566 194.368 82.4366 194.648 82.1006 194.8C81.7726 194.952 81.2286 195.028 80.4686 195.028V193.624ZM86.7859 185.092L89.3179 184.72V188.224C89.4939 187.8 89.7579 187.476 90.1099 187.252C90.4699 187.02 90.9019 186.904 91.4059 186.904C92.1739 186.904 92.7739 187.18 93.2059 187.732C93.6459 188.276 93.8659 189.032 93.8659 190V193H91.3459V189.748C91.3459 189.404 91.2699 189.14 91.1179 188.956C90.9739 188.772 90.7699 188.68 90.5059 188.68C90.3139 188.68 90.1259 188.744 89.9419 188.872C89.7579 188.992 89.6059 189.168 89.4859 189.4C89.3739 189.632 89.3179 189.896 89.3179 190.192V193H86.7859V185.092ZM97.9162 193.096C97.3962 193.096 96.9082 192.96 96.4522 192.688C96.0042 192.408 95.6442 192.032 95.3722 191.56C95.1002 191.08 94.9642 190.548 94.9642 189.964C94.9642 189.388 95.1002 188.868 95.3722 188.404C95.6442 187.932 96.0082 187.564 96.4642 187.3C96.9202 187.036 97.4042 186.904 97.9162 186.904C98.3322 186.904 98.7162 187.02 99.0682 187.252C99.4282 187.484 99.7002 187.832 99.8842 188.296V186.904H102.404V193H99.8842V191.884C99.4842 192.692 98.8282 193.096 97.9162 193.096ZM98.6962 191.2C99.0162 191.2 99.2882 191.088 99.5122 190.864C99.7442 190.632 99.8682 190.36 99.8842 190.048V189.952C99.8682 189.632 99.7402 189.36 99.5002 189.136C99.2682 188.912 99.0002 188.8 98.6962 188.8C98.3602 188.8 98.0722 188.92 97.8322 189.16C97.6002 189.392 97.4842 189.672 97.4842 190C97.4842 190.336 97.6042 190.62 97.8442 190.852C98.0842 191.084 98.3682 191.2 98.6962 191.2ZM103.86 187.072H106.392V188.116C106.776 187.308 107.428 186.904 108.348 186.904C108.884 186.904 109.376 187.04 109.824 187.312C110.28 187.576 110.636 187.944 110.892 188.416C111.156 188.888 111.288 189.416 111.288 190C111.288 190.584 111.152 191.112 110.88 191.584C110.616 192.056 110.256 192.428 109.8 192.7C109.352 192.964 108.872 193.096 108.36 193.096C107.448 193.096 106.792 192.692 106.392 191.884V194.56L103.86 195.04V187.072ZM107.592 191.2C107.92 191.2 108.2 191.08 108.432 190.84C108.664 190.6 108.78 190.32 108.78 190C108.78 189.664 108.66 189.38 108.42 189.148C108.188 188.916 107.912 188.8 107.592 188.8C107.264 188.8 106.984 188.916 106.752 189.148C106.52 189.372 106.404 189.64 106.404 189.952V190C106.404 190.336 106.52 190.62 106.752 190.852C106.992 191.084 107.272 191.2 107.592 191.2ZM112.443 187.072H114.975V188.116C115.359 187.308 116.011 186.904 116.931 186.904C117.467 186.904 117.959 187.04 118.407 187.312C118.863 187.576 119.219 187.944 119.475 188.416C119.739 188.888 119.871 189.416 119.871 190C119.871 190.584 119.735 191.112 119.463 191.584C119.199 192.056 118.839 192.428 118.383 192.7C117.935 192.964 117.455 193.096 116.943 193.096C116.031 193.096 115.375 192.692 114.975 191.884V194.56L112.443 195.04V187.072ZM116.175 191.2C116.503 191.2 116.783 191.08 117.015 190.84C117.247 190.6 117.363 190.32 117.363 190C117.363 189.664 117.243 189.38 117.003 189.148C116.771 188.916 116.495 188.8 116.175 188.8C115.847 188.8 115.567 188.916 115.335 189.148C115.103 189.372 114.987 189.64 114.987 189.952V190C114.987 190.336 115.103 190.62 115.335 190.852C115.575 191.084 115.855 191.2 116.175 191.2ZM124.219 195.748C123.779 195.748 123.359 195.704 122.959 195.616L123.151 193.84C123.463 193.888 123.751 193.912 124.015 193.912C124.487 193.912 124.847 193.768 125.095 193.48C125.343 193.2 125.471 192.668 125.479 191.884C125.063 192.684 124.395 193.084 123.475 193.084C122.699 193.084 122.091 192.812 121.651 192.268C121.219 191.716 121.003 190.956 121.003 189.988V186.988H123.523V190.36C123.523 190.632 123.599 190.86 123.751 191.044C123.903 191.22 124.111 191.308 124.375 191.308C124.647 191.308 124.867 191.192 125.035 190.96C125.211 190.728 125.299 190.424 125.299 190.048V186.988H127.831V191.476C127.831 192.868 127.519 193.928 126.895 194.656C126.271 195.384 125.379 195.748 124.219 195.748ZM129.223 187.612C129.631 187.612 129.899 187.604 130.027 187.588C130.155 187.572 130.239 187.524 130.279 187.444C130.319 187.364 130.339 187.212 130.339 186.988H129.223V184.744H131.683V185.968C131.683 186.888 131.627 187.552 131.515 187.96C131.411 188.36 131.191 188.636 130.855 188.788C130.527 188.94 129.983 189.016 129.223 189.016V187.612ZM132.343 187.612C132.751 187.612 133.019 187.604 133.147 187.588C133.275 187.572 133.359 187.524 133.399 187.444C133.439 187.364 133.459 187.212 133.459 186.988H132.343V184.744H134.803V185.968C134.803 186.888 134.747 187.552 134.635 187.96C134.531 188.36 134.311 188.636 133.975 188.788C133.647 188.94 133.103 189.016 132.343 189.016V187.612Z" fill="#393A32"/>
<path d="M32.1029 121.616H35.8469L38.9429 127.628L41.9669 121.616H45.7109V134H41.9669V127.394L39.6809 131.714H38.1509L35.8469 127.394V134H32.1029V121.616ZM52.7639 134.144C51.9839 134.144 51.2519 133.94 50.5679 133.532C49.8959 133.112 49.3559 132.548 48.9479 131.84C48.5399 131.12 48.3359 130.322 48.3359 129.446C48.3359 128.582 48.5399 127.802 48.9479 127.106C49.3559 126.398 49.9019 125.846 50.5859 125.45C51.2699 125.054 51.9959 124.856 52.7639 124.856C53.3879 124.856 53.9639 125.03 54.4919 125.378C55.0319 125.726 55.4399 126.248 55.7159 126.944V124.856H59.4959V134H55.7159V132.326C55.1159 133.538 54.1319 134.144 52.7639 134.144ZM53.9339 131.3C54.4139 131.3 54.8219 131.132 55.1579 130.796C55.5059 130.448 55.6919 130.04 55.7159 129.572V129.428C55.6919 128.948 55.4999 128.54 55.1399 128.204C54.7919 127.868 54.3899 127.7 53.9339 127.7C53.4299 127.7 52.9979 127.88 52.6379 128.24C52.2899 128.588 52.1159 129.008 52.1159 129.5C52.1159 130.004 52.2959 130.43 52.6559 130.778C53.0159 131.126 53.4419 131.3 53.9339 131.3ZM66.8451 134.144C65.8851 134.144 65.0331 133.952 64.2891 133.568C63.5571 133.172 62.9811 132.62 62.5611 131.912C62.1531 131.204 61.9491 130.4 61.9491 129.5C61.9491 128.636 62.1651 127.85 62.5971 127.142C63.0291 126.434 63.6171 125.876 64.3611 125.468C65.1051 125.06 65.9331 124.856 66.8451 124.856C68.0091 124.856 68.9271 125.096 69.5991 125.576L69.2571 127.97C68.5731 127.766 68.0091 127.664 67.5651 127.664C66.9891 127.664 66.5331 127.832 66.1971 128.168C65.8611 128.492 65.6931 128.936 65.6931 129.5C65.6931 130.064 65.8611 130.514 66.1971 130.85C66.5331 131.186 66.9771 131.354 67.5291 131.354C68.0091 131.354 68.5731 131.252 69.2211 131.048L69.5631 133.568C69.1551 133.772 68.7411 133.916 68.3211 134C67.9011 134.096 67.4091 134.144 66.8451 134.144ZM75.8419 134.144C75.0619 134.144 74.3299 133.94 73.6459 133.532C72.9739 133.112 72.4339 132.548 72.0259 131.84C71.6179 131.12 71.4139 130.322 71.4139 129.446C71.4139 128.582 71.6179 127.802 72.0259 127.106C72.4339 126.398 72.9799 125.846 73.6639 125.45C74.3479 125.054 75.0739 124.856 75.8419 124.856C76.4659 124.856 77.0419 125.03 77.5699 125.378C78.1099 125.726 78.5179 126.248 78.7939 126.944V124.856H82.5739V134H78.7939V132.326C78.1939 133.538 77.2099 134.144 75.8419 134.144ZM77.0119 131.3C77.4919 131.3 77.8999 131.132 78.2359 130.796C78.5839 130.448 78.7699 130.04 78.7939 129.572V129.428C78.7699 128.948 78.5779 128.54 78.2179 128.204C77.8699 127.868 77.4679 127.7 77.0119 127.7C76.5079 127.7 76.0759 127.88 75.7159 128.24C75.3679 128.588 75.1939 129.008 75.1939 129.5C75.1939 130.004 75.3739 130.43 75.7339 130.778C76.0939 131.126 76.5199 131.3 77.0119 131.3ZM85.4771 125.108H89.2751V126.944C89.5511 126.236 89.9231 125.714 90.3911 125.378C90.8711 125.03 91.4291 124.856 92.0651 124.856L92.5871 127.79C91.4471 127.79 90.6071 127.916 90.0671 128.168C89.5391 128.408 89.2751 128.792 89.2751 129.32V134H85.4771V125.108ZM99.3243 134.144C98.3163 134.144 97.4163 133.946 96.6243 133.55C95.8443 133.154 95.2323 132.608 94.7883 131.912C94.3563 131.204 94.1403 130.394 94.1403 129.482C94.1403 128.57 94.3623 127.766 94.8063 127.07C95.2503 126.362 95.8623 125.816 96.6423 125.432C97.4343 125.048 98.3343 124.856 99.3423 124.856C100.362 124.856 101.262 125.054 102.042 125.45C102.834 125.834 103.446 126.374 103.878 127.07C104.31 127.766 104.526 128.57 104.526 129.482C104.526 130.406 104.304 131.222 103.86 131.93C103.428 132.626 102.816 133.172 102.024 133.568C101.244 133.952 100.344 134.144 99.3243 134.144ZM99.3603 131.444C99.8523 131.444 100.254 131.264 100.566 130.904C100.89 130.532 101.052 130.058 101.052 129.482C101.052 128.906 100.89 128.438 100.566 128.078C100.254 127.706 99.8523 127.52 99.3603 127.52C98.8683 127.52 98.4603 127.706 98.1363 128.078C97.8243 128.438 97.6683 128.906 97.6683 129.482C97.6683 130.058 97.8243 130.532 98.1363 130.904C98.4603 131.264 98.8683 131.444 99.3603 131.444ZM106.955 125.108H110.573V126.944C111.269 125.552 112.373 124.856 113.885 124.856C115.037 124.856 115.937 125.27 116.585 126.098C117.245 126.914 117.575 128.048 117.575 129.5V134H113.795V129.122C113.795 128.606 113.681 128.21 113.453 127.934C113.237 127.658 112.931 127.52 112.535 127.52C112.247 127.52 111.965 127.616 111.689 127.808C111.413 127.988 111.185 128.252 111.005 128.6C110.837 128.948 110.753 129.344 110.753 129.788V134H106.955V125.108ZM123.561 134.144C122.553 134.144 121.767 133.82 121.203 133.172C120.639 132.524 120.357 131.642 120.357 130.526V124.982H124.173V130.364C124.173 130.64 124.245 130.856 124.389 131.012C124.545 131.156 124.743 131.228 124.983 131.228C125.223 131.228 125.469 131.156 125.721 131.012L125.919 133.514C125.655 133.718 125.307 133.874 124.875 133.982C124.455 134.09 124.017 134.144 123.561 134.144ZM122.265 123.632C121.701 123.632 121.221 123.458 120.825 123.11C120.441 122.75 120.249 122.312 120.249 121.796C120.249 121.28 120.453 120.848 120.861 120.5C121.269 120.152 121.737 119.978 122.265 119.978C122.817 119.978 123.291 120.158 123.687 120.518C124.095 120.878 124.299 121.304 124.299 121.796C124.299 122.324 124.095 122.762 123.687 123.11C123.279 123.458 122.805 123.632 122.265 123.632Z" fill="#393A32"/>
<rect x="46" y="145.901" width="65.45" height="0.897773" fill="#082D74"/>
<rect x="57.7809" y="145" width="13.9627" height="3.1422" fill="#3F8D43"/>
<rect x="71.7455" y="145" width="13.9627" height="3.1422" fill="white"/>
<rect x="85.7046" y="145" width="13.9627" height="3.1422" fill="#D12C29"/>
<path d="M66.4019 75.1316C72.5563 75.1316 78.642 72.5483 84.0353 67.6414C84.3372 67.4904 84.6171 67.2991 84.8675 67.0727V67.0725C86.035 66.0073 86.4456 64.264 85.9943 62.2898C85.6057 60.5906 84.6174 58.806 83.2114 57.2648C81.8052 55.7236 80.1185 54.5763 78.462 54.034C76.5371 53.404 74.7636 53.6536 73.596 54.7189C73.4877 54.8191 73.3855 54.9256 73.2899 55.038C73.1464 55.1032 73.0139 55.1905 72.8974 55.2967C71.1115 56.9262 68.9719 57.9291 66.8727 58.1209C64.9282 58.2974 63.267 57.7468 62.1914 56.5677C61.1157 55.3888 60.7185 53.6828 61.0729 51.7641C61.4558 49.6911 62.6503 47.6523 64.4363 46.0229C64.5527 45.9166 64.6517 45.7928 64.7298 45.6559C64.8505 45.5709 64.9659 45.4788 65.0755 45.3801L65.0756 45.3799C66.2432 44.3147 66.6537 42.5715 66.2024 40.5971C65.8139 38.8979 64.8256 37.1134 63.4195 35.5722C62.0133 34.031 60.3267 32.8836 58.6701 32.3414C56.7451 31.7115 54.9718 31.9609 53.8042 33.0263C53.5546 33.2555 53.3374 33.5178 53.1587 33.8058C47.6395 38.8565 44.4903 44.8566 44.0514 51.1613C43.6355 57.1378 45.7542 63.0026 50.0172 67.6752C54.2803 72.3478 59.9267 74.994 65.9164 75.1262C66.0784 75.1297 66.2402 75.1315 66.4019 75.1316ZM55.4603 42.8339C55.6271 43.0167 55.7978 43.1938 55.9723 43.365C54.7974 45.0924 53.8941 46.9897 53.294 48.9907C51.8728 53.8572 52.8354 58.3079 56.0776 61.8615C58.6226 64.6509 61.8577 66.0806 65.5562 66.0804C66.6152 66.0764 67.6712 65.9672 68.7086 65.7544C70.7313 65.3316 72.68 64.6107 74.4909 63.6154C74.7285 63.9265 74.9823 64.2303 75.2521 64.5267C75.5108 64.8102 75.7784 65.0798 76.0549 65.3356C74.0717 66.4294 71.9286 67.2039 69.7044 67.6305C64.1684 68.6409 59.3622 66.9627 55.4191 62.6407C51.4774 58.3204 50.2645 53.3643 51.8142 47.9097C52.4456 45.7601 53.4031 43.7202 54.6533 41.8611C54.9042 42.1935 55.173 42.519 55.4603 42.8339ZM76.4374 56.7117C76.8067 56.7208 77.1722 56.7871 77.5211 56.9084C78.6727 57.2855 79.9323 58.1583 80.977 59.3034C83.1728 61.71 83.5404 64.1891 82.8289 64.8384C82.4944 65.1434 81.7891 65.1602 80.9424 64.883C79.7908 64.506 78.5312 63.6332 77.4865 62.4881C75.2907 60.0815 74.9231 57.6024 75.6346 56.9532C75.8636 56.777 76.1493 56.691 76.4374 56.7117V56.7117ZM66.1578 61.1786C66.4826 61.1786 66.8126 61.1634 67.1479 61.1328C69.0209 60.942 70.8287 60.3407 72.4429 59.3717C72.452 59.4151 72.4593 59.4581 72.4692 59.5017C72.5893 60.0157 72.7535 60.5184 72.96 61.0041C71.4137 61.8445 69.7515 62.4516 68.0276 62.8059C64.0885 63.5755 60.8195 62.5712 58.312 59.8229C55.8023 57.0724 55.0827 53.7413 56.173 49.9223C56.6668 48.2547 57.4071 46.6703 58.3693 45.2216C58.9508 45.5677 59.5678 45.8504 60.2097 46.0647C60.252 46.0786 60.294 46.0906 60.3362 46.1036C59.2239 47.6222 58.46 49.3673 58.0988 51.2146C57.5683 54.0864 58.2283 56.7114 59.957 58.6063C61.487 60.2831 63.6622 61.1786 66.1578 61.1786H66.1578ZM56.6456 35.0191C57.0148 35.0281 57.3804 35.0945 57.7293 35.2158C58.8809 35.5928 60.1404 36.4656 61.1851 37.6107C63.381 40.0173 63.7486 42.4965 63.037 43.1458C62.3251 43.7953 59.8901 43.2019 57.6947 40.7953C55.4988 38.3887 55.1313 35.9098 55.8428 35.2606C56.0717 35.0843 56.3574 34.9984 56.6456 35.0191ZM52.2516 65.6366C48.5514 61.581 46.7107 56.5147 47.0687 51.3713C47.3866 46.8036 49.3708 42.3833 52.8461 38.4334C52.8996 38.6057 52.9602 38.7785 53.0251 38.9513C51.1817 41.3519 49.7957 44.0711 48.9364 46.9732C47.627 51.4912 47.3011 58.2306 53.1847 64.6792C57.6426 69.5651 62.5736 70.9334 66.6986 70.9332C67.9278 70.9307 69.1541 70.814 70.3617 70.5845C73.3461 70.0075 76.1951 68.8733 78.7594 67.2412C78.9707 67.3475 79.1825 67.4445 79.3949 67.5322C75.143 70.6315 70.5579 72.2023 65.9831 72.1024C60.8285 71.9885 55.9518 69.6924 52.2516 65.6366Z" fill="#1A1A1A"/>
<path d="M113.223 62.4194C113.15 62.0281 113.017 61.6504 112.828 61.2999C111.197 58.2822 106 58.1503 100.741 60.9935C98.4289 62.2433 96.4842 63.892 95.2651 65.636C93.8338 67.6837 93.5184 69.6859 94.3767 71.2737C94.4611 71.4276 94.5559 71.5755 94.6604 71.7165C94.6847 71.8954 94.741 72.0684 94.8265 72.2274C97.563 77.29 96.3583 83.2634 92.141 85.5431C90.1381 86.6258 87.7411 86.7227 85.3914 85.8157C82.9579 84.8766 80.8762 82.9874 79.5295 80.4962C79.4435 80.3377 79.3297 80.196 79.1936 80.0778C79.1327 79.913 79.0607 79.7525 78.978 79.5974C78.1199 78.0095 76.2703 77.1792 73.7745 77.2525C71.6478 77.3172 69.2032 78.0411 66.8911 79.2909C64.5789 80.5408 62.6343 82.1895 61.4152 83.9333C59.9838 85.981 59.6684 87.9833 60.5267 89.571C60.7175 89.9227 60.9613 90.2429 61.2497 90.5203C65.3843 98.1322 71.5291 103.183 79.0249 105.127C81.2425 105.698 83.5239 105.985 85.8139 105.98C90.8837 105.98 96.1075 104.619 101.018 101.965C108.165 98.1019 113.383 92.1822 115.71 85.2971C118.19 77.9592 117.329 70.0497 113.223 62.4194ZM108.769 78.7507C107.982 85.696 104.049 91.1278 97.0794 94.8951C90.1524 98.6394 83.4754 98.9454 77.2338 95.8047C74.7543 94.5368 72.5135 92.8484 70.6111 90.8147C71.2961 90.5411 71.9647 90.2281 72.6136 89.8774C73.0191 89.6582 73.4124 89.4271 73.7935 89.184C75.5254 91.0561 77.569 92.6135 79.8333 93.7869C82.2648 95.0595 84.9645 95.7346 87.7088 95.7563C90.2566 95.7563 93.1007 95.1494 96.1342 93.5096C102.914 89.8451 104.834 84.1031 105.252 79.9314C105.491 77.4155 105.304 74.8774 104.701 72.4233C105.284 72.1791 105.874 71.8991 106.464 71.5801C107.065 71.2556 107.648 70.9 108.212 70.5147C108.88 73.2059 109.069 75.994 108.769 78.7507V78.7507ZM97.7441 67.3687C98.6845 66.0233 100.301 64.6694 102.179 63.6541C104.418 62.444 106.467 61.9651 107.941 61.9651C109.106 61.9651 109.911 62.2643 110.167 62.738C110.748 63.8115 109.033 66.7532 105.025 68.9195C101.018 71.0855 97.6174 70.909 97.0373 69.8354C96.7636 69.3292 97.0345 68.384 97.7441 67.3687V67.3687ZM84.3024 88.6373C85.6659 89.1733 87.1169 89.4522 88.582 89.4602C90.3265 89.4652 92.0444 89.0332 93.5791 88.2037C98.4642 85.5632 100.442 79.4227 98.6628 73.6036C98.8722 73.6181 99.085 73.6277 99.3036 73.6277C100.148 73.6217 100.989 73.5265 101.813 73.3439C102.296 75.4023 102.441 77.5255 102.242 79.6304C101.741 84.6387 99.2023 88.4132 94.6961 90.849C90.2182 93.2695 85.7124 93.368 81.3037 91.1417C79.4075 90.1667 77.6868 88.8828 76.2124 87.3425C76.9129 86.7105 77.5424 86.0038 78.0895 85.2351C78.27 84.9767 78.4327 84.7194 78.5775 84.463C80.0979 86.3206 82.0688 87.7577 84.3024 88.6373V88.6373ZM63.8941 85.6661C64.8347 84.3206 66.4512 82.9667 68.3294 81.9515C70.2073 80.9364 72.2255 80.3254 73.8664 80.2757C73.938 80.2735 74.0083 80.2724 74.0779 80.2724C75.2107 80.2724 76.0596 80.5585 76.3174 81.0355C76.5911 81.5417 76.3202 82.4869 75.6105 83.5022C74.6701 84.8477 73.0536 86.2016 71.1755 87.2168C69.2973 88.232 67.2791 88.8429 65.6384 88.8927C64.3968 88.9314 63.461 88.6391 63.1873 88.1327C62.9137 87.6265 63.1845 86.6813 63.8941 85.6661ZM112.845 84.3288C110.763 90.4873 106.052 95.8059 99.5796 99.3046C93.1069 102.803 86.0769 103.831 79.7842 102.199C74.0889 100.722 69.2528 97.1922 65.6419 91.9172C65.6714 91.9165 65.7004 91.9167 65.7301 91.9158C66.2938 91.8967 66.8554 91.8378 67.4109 91.7396C67.9674 92.4478 70.8803 95.9606 75.7571 98.447C78.936 100.086 82.4592 100.945 86.0357 100.954C89.7081 100.954 93.9085 100.047 98.5175 97.5558C108.347 92.2427 111.152 84.5822 111.774 79.0914C112.424 73.3659 110.9 68.8486 110.741 68.3957C111.199 67.9229 111.617 67.4128 111.991 66.8707C114.424 72.7793 114.728 78.7567 112.845 84.3288Z" fill="#1A1A1A"/>
</svg>
