<svg width="166" height="232" viewBox="0 0 166 232" fill="none" xmlns="http://www.w3.org/2000/svg">
<rect x="4" y="4" width="158" height="224" rx="5" fill="#FFF8F8" stroke="#F7575C" stroke-width="7"/>
<path d="M62.329 22.232C63.049 22.232 63.609 22.424 64.009 22.808C64.417 23.184 64.621 23.712 64.621 24.392C64.621 24.6 64.597 24.832 64.549 25.088L63.853 29H61.813L62.461 25.364C62.477 25.284 62.485 25.176 62.485 25.04C62.485 24.704 62.389 24.448 62.197 24.272C62.013 24.096 61.753 24.008 61.417 24.008C61.017 24.008 60.681 24.128 60.409 24.368C60.137 24.6 59.965 24.932 59.893 25.364L59.245 29H57.205L57.853 25.364C57.869 25.284 57.877 25.176 57.877 25.04C57.877 24.704 57.781 24.448 57.589 24.272C57.405 24.096 57.145 24.008 56.809 24.008C56.409 24.008 56.073 24.128 55.801 24.368C55.529 24.6 55.357 24.932 55.285 25.364V25.304L54.637 29H52.585L53.761 22.304H55.813L55.669 23.156C55.925 22.868 56.233 22.644 56.593 22.484C56.961 22.316 57.357 22.232 57.781 22.232C58.293 22.232 58.725 22.34 59.077 22.556C59.437 22.772 59.693 23.084 59.845 23.492C60.141 23.116 60.509 22.812 60.949 22.58C61.389 22.348 61.849 22.232 62.329 22.232ZM65.7201 25.64C65.8401 24.952 66.0761 24.348 66.4281 23.828C66.7801 23.308 67.2041 22.908 67.7001 22.628C68.1961 22.348 68.7201 22.208 69.2721 22.208C69.7441 22.208 70.1401 22.304 70.4601 22.496C70.7801 22.688 71.0121 22.94 71.1561 23.252L71.3241 22.304H73.3761L72.1881 29H70.1361L70.3161 28.052C70.0601 28.364 69.7361 28.616 69.3441 28.808C68.9521 29 68.5201 29.096 68.0481 29.096C67.5761 29.096 67.1561 28.988 66.7881 28.772C66.4281 28.556 66.1481 28.252 65.9481 27.86C65.7481 27.46 65.6481 26.992 65.6481 26.456C65.6481 26.2 65.6721 25.928 65.7201 25.64ZM70.7361 25.652C70.7601 25.508 70.7721 25.376 70.7721 25.256C70.7721 24.864 70.6561 24.556 70.4241 24.332C70.2001 24.108 69.9121 23.996 69.5601 23.996C69.1521 23.996 68.7801 24.144 68.4441 24.44C68.1081 24.728 67.8961 25.128 67.8081 25.64C67.7841 25.784 67.7721 25.916 67.7721 26.036C67.7721 26.428 67.8841 26.74 68.1081 26.972C68.3401 27.196 68.6281 27.308 68.9721 27.308C69.3801 27.308 69.7521 27.16 70.0881 26.864C70.4241 26.568 70.6401 26.164 70.7361 25.652ZM78.3286 25.664L80.5486 29H78.0046L76.4566 26.204L75.9646 29H73.9126L75.4846 20.12H77.5366L76.6726 25.016L79.1686 22.304H81.7006L78.3286 25.664ZM81.7626 25.64C81.8826 24.952 82.1186 24.348 82.4706 23.828C82.8226 23.308 83.2466 22.908 83.7426 22.628C84.2386 22.348 84.7626 22.208 85.3146 22.208C85.7866 22.208 86.1826 22.304 86.5026 22.496C86.8226 22.688 87.0546 22.94 87.1986 23.252L87.3666 22.304H89.4186L88.2306 29H86.1786L86.3586 28.052C86.1026 28.364 85.7786 28.616 85.3866 28.808C84.9946 29 84.5626 29.096 84.0906 29.096C83.6186 29.096 83.1986 28.988 82.8306 28.772C82.4706 28.556 82.1906 28.252 81.9906 27.86C81.7906 27.46 81.6906 26.992 81.6906 26.456C81.6906 26.2 81.7146 25.928 81.7626 25.64ZM86.7786 25.652C86.8026 25.508 86.8146 25.376 86.8146 25.256C86.8146 24.864 86.6986 24.556 86.4666 24.332C86.2426 24.108 85.9546 23.996 85.6026 23.996C85.1946 23.996 84.8226 24.144 84.4866 24.44C84.1506 24.728 83.9386 25.128 83.8506 25.64C83.8266 25.784 83.8146 25.916 83.8146 26.036C83.8146 26.428 83.9266 26.74 84.1506 26.972C84.3826 27.196 84.6706 27.308 85.0146 27.308C85.4226 27.308 85.7946 27.16 86.1306 26.864C86.4666 26.568 86.6826 26.164 86.7786 25.652ZM92.9671 23.516C93.2791 23.116 93.6351 22.804 94.0351 22.58C94.4431 22.348 94.8671 22.232 95.3071 22.232L94.9231 24.404H94.3591C93.8471 24.404 93.4431 24.516 93.1471 24.74C92.8511 24.956 92.6551 25.34 92.5591 25.892L92.0071 29H89.9551L91.1311 22.304H93.1831L92.9671 23.516ZM97.6679 21.608C97.3479 21.608 97.0919 21.524 96.8999 21.356C96.7159 21.18 96.6239 20.96 96.6239 20.696C96.6239 20.336 96.7639 20.028 97.0439 19.772C97.3239 19.516 97.6639 19.388 98.0639 19.388C98.3839 19.388 98.6359 19.476 98.8199 19.652C99.0039 19.82 99.0959 20.04 99.0959 20.312C99.0959 20.664 98.9559 20.968 98.6759 21.224C98.3959 21.48 98.0599 21.608 97.6679 21.608ZM98.5559 22.304L97.3799 29H95.3279L96.5039 22.304H98.5559ZM102.167 29.096C101.591 29.096 101.079 28.98 100.631 28.748C100.183 28.516 99.835 28.188 99.587 27.764C99.347 27.34 99.227 26.848 99.227 26.288C99.227 25.528 99.407 24.836 99.767 24.212C100.127 23.588 100.623 23.1 101.255 22.748C101.887 22.388 102.591 22.208 103.367 22.208C103.943 22.208 104.455 22.328 104.903 22.568C105.359 22.8 105.711 23.128 105.959 23.552C106.207 23.976 106.331 24.468 106.331 25.028C106.331 25.796 106.147 26.492 105.779 27.116C105.419 27.732 104.919 28.216 104.279 28.568C103.647 28.92 102.943 29.096 102.167 29.096ZM102.455 27.332C102.791 27.332 103.091 27.232 103.355 27.032C103.627 26.824 103.835 26.56 103.979 26.24C104.131 25.912 104.207 25.572 104.207 25.22C104.207 24.82 104.099 24.512 103.883 24.296C103.667 24.08 103.395 23.972 103.067 23.972C102.723 23.972 102.419 24.076 102.155 24.284C101.899 24.484 101.699 24.748 101.555 25.076C101.411 25.404 101.339 25.748 101.339 26.108C101.339 26.5 101.443 26.804 101.651 27.02C101.859 27.228 102.127 27.332 102.455 27.332ZM109.772 29.096C109.244 29.096 108.768 29.012 108.344 28.844C107.928 28.676 107.6 28.444 107.36 28.148C107.12 27.844 107 27.496 107 27.104C107 27.048 107.008 26.948 107.024 26.804H109.004C108.988 27.052 109.06 27.252 109.22 27.404C109.388 27.548 109.624 27.62 109.928 27.62C110.184 27.62 110.396 27.572 110.564 27.476C110.732 27.38 110.816 27.244 110.816 27.068C110.816 26.9 110.724 26.768 110.54 26.672C110.364 26.568 110.068 26.444 109.652 26.3C109.22 26.156 108.856 26.016 108.56 25.88C108.272 25.736 108.024 25.532 107.816 25.268C107.608 25.004 107.504 24.672 107.504 24.272C107.504 23.88 107.62 23.528 107.852 23.216C108.084 22.896 108.408 22.648 108.824 22.472C109.248 22.296 109.736 22.208 110.288 22.208C110.84 22.208 111.32 22.3 111.728 22.484C112.136 22.66 112.452 22.908 112.676 23.228C112.9 23.548 113.012 23.908 113.012 24.308L113 24.488H111.14C111.156 24.248 111.084 24.056 110.924 23.912C110.764 23.768 110.536 23.696 110.24 23.696C110.008 23.696 109.816 23.744 109.664 23.84C109.52 23.936 109.448 24.068 109.448 24.236C109.448 24.412 109.544 24.56 109.736 24.68C109.936 24.792 110.244 24.92 110.66 25.064C111.092 25.208 111.448 25.352 111.728 25.496C112.016 25.632 112.26 25.828 112.46 26.084C112.668 26.332 112.772 26.644 112.772 27.02C112.772 27.452 112.64 27.824 112.376 28.136C112.12 28.448 111.764 28.688 111.308 28.856C110.86 29.016 110.348 29.096 109.772 29.096Z" fill="#3CAA90"/>
<path d="M29.7189 44.792H27.6189L28.9629 41.576H30.3429L29.7189 44.792ZM32.4429 44.792H30.3549L31.6989 41.576H33.0669L32.4429 44.792ZM36.6911 44.252C36.8831 43.94 37.1591 43.688 37.5191 43.496C37.8791 43.304 38.2911 43.208 38.7551 43.208C39.3071 43.208 39.8071 43.348 40.2551 43.628C40.7031 43.908 41.0551 44.308 41.3111 44.828C41.5751 45.348 41.7071 45.952 41.7071 46.64C41.7071 47.328 41.5751 47.936 41.3111 48.464C41.0551 48.984 40.7031 49.388 40.2551 49.676C39.8071 49.956 39.3071 50.096 38.7551 50.096C38.2831 50.096 37.8711 50.004 37.5191 49.82C37.1671 49.628 36.8911 49.376 36.6911 49.064V50H34.6391V41.12H36.6911V44.252ZM39.6191 46.64C39.6191 46.128 39.4751 45.728 39.1871 45.44C38.9071 45.144 38.5591 44.996 38.1431 44.996C37.7351 44.996 37.3871 45.144 37.0991 45.44C36.8191 45.736 36.6791 46.14 36.6791 46.652C36.6791 47.164 36.8191 47.568 37.0991 47.864C37.3871 48.16 37.7351 48.308 38.1431 48.308C38.5511 48.308 38.8991 48.16 39.1871 47.864C39.4751 47.56 39.6191 47.152 39.6191 46.64ZM45.0756 41.12V50H43.0236V41.12H45.0756ZM53.1147 46.544C53.1147 46.736 53.1027 46.936 53.0787 47.144H48.4347C48.4667 47.56 48.5987 47.88 48.8307 48.104C49.0707 48.32 49.3627 48.428 49.7067 48.428C50.2187 48.428 50.5747 48.212 50.7747 47.78H52.9587C52.8467 48.22 52.6427 48.616 52.3467 48.968C52.0587 49.32 51.6947 49.596 51.2547 49.796C50.8147 49.996 50.3227 50.096 49.7787 50.096C49.1227 50.096 48.5387 49.956 48.0267 49.676C47.5147 49.396 47.1147 48.996 46.8267 48.476C46.5387 47.956 46.3947 47.348 46.3947 46.652C46.3947 45.956 46.5347 45.348 46.8147 44.828C47.1027 44.308 47.5027 43.908 48.0147 43.628C48.5267 43.348 49.1147 43.208 49.7787 43.208C50.4267 43.208 51.0027 43.344 51.5067 43.616C52.0107 43.888 52.4027 44.276 52.6827 44.78C52.9707 45.284 53.1147 45.872 53.1147 46.544ZM51.0147 46.004C51.0147 45.652 50.8947 45.372 50.6547 45.164C50.4147 44.956 50.1147 44.852 49.7547 44.852C49.4107 44.852 49.1187 44.952 48.8787 45.152C48.6467 45.352 48.5027 45.636 48.4467 46.004H51.0147ZM57.1612 50.096C56.5772 50.096 56.0572 49.996 55.6012 49.796C55.1452 49.596 54.7852 49.324 54.5212 48.98C54.2572 48.628 54.1092 48.236 54.0772 47.804H56.1052C56.1292 48.036 56.2372 48.224 56.4292 48.368C56.6212 48.512 56.8572 48.584 57.1372 48.584C57.3932 48.584 57.5892 48.536 57.7252 48.44C57.8692 48.336 57.9412 48.204 57.9412 48.044C57.9412 47.852 57.8412 47.712 57.6412 47.624C57.4412 47.528 57.1172 47.424 56.6692 47.312C56.1892 47.2 55.7892 47.084 55.4692 46.964C55.1492 46.836 54.8732 46.64 54.6412 46.376C54.4092 46.104 54.2932 45.74 54.2932 45.284C54.2932 44.9 54.3972 44.552 54.6052 44.24C54.8212 43.92 55.1332 43.668 55.5412 43.484C55.9572 43.3 56.4492 43.208 57.0172 43.208C57.8572 43.208 58.5172 43.416 58.9972 43.832C59.4852 44.248 59.7652 44.8 59.8372 45.488H57.9412C57.9092 45.256 57.8052 45.072 57.6292 44.936C57.4612 44.8 57.2372 44.732 56.9572 44.732C56.7172 44.732 56.5332 44.78 56.4052 44.876C56.2772 44.964 56.2132 45.088 56.2132 45.248C56.2132 45.44 56.3132 45.584 56.5132 45.68C56.7212 45.776 57.0412 45.872 57.4732 45.968C57.9692 46.096 58.3732 46.224 58.6852 46.352C58.9972 46.472 59.2692 46.672 59.5012 46.952C59.7412 47.224 59.8652 47.592 59.8732 48.056C59.8732 48.448 59.7612 48.8 59.5372 49.112C59.3212 49.416 59.0052 49.656 58.5892 49.832C58.1812 50.008 57.7052 50.096 57.1612 50.096ZM64.0926 50.096C63.5086 50.096 62.9886 49.996 62.5326 49.796C62.0766 49.596 61.7166 49.324 61.4526 48.98C61.1886 48.628 61.0406 48.236 61.0086 47.804H63.0366C63.0606 48.036 63.1686 48.224 63.3606 48.368C63.5526 48.512 63.7886 48.584 64.0686 48.584C64.3246 48.584 64.5206 48.536 64.6566 48.44C64.8006 48.336 64.8726 48.204 64.8726 48.044C64.8726 47.852 64.7726 47.712 64.5726 47.624C64.3726 47.528 64.0486 47.424 63.6006 47.312C63.1206 47.2 62.7206 47.084 62.4006 46.964C62.0806 46.836 61.8046 46.64 61.5726 46.376C61.3406 46.104 61.2246 45.74 61.2246 45.284C61.2246 44.9 61.3286 44.552 61.5366 44.24C61.7526 43.92 62.0646 43.668 62.4726 43.484C62.8886 43.3 63.3806 43.208 63.9486 43.208C64.7886 43.208 65.4486 43.416 65.9286 43.832C66.4166 44.248 66.6966 44.8 66.7686 45.488H64.8726C64.8406 45.256 64.7366 45.072 64.5606 44.936C64.3926 44.8 64.1686 44.732 63.8886 44.732C63.6486 44.732 63.4646 44.78 63.3366 44.876C63.2086 44.964 63.1446 45.088 63.1446 45.248C63.1446 45.44 63.2446 45.584 63.4446 45.68C63.6526 45.776 63.9726 45.872 64.4046 45.968C64.9006 46.096 65.3046 46.224 65.6166 46.352C65.9286 46.472 66.2006 46.672 66.4326 46.952C66.6726 47.224 66.7966 47.592 66.8046 48.056C66.8046 48.448 66.6926 48.8 66.4686 49.112C66.2526 49.416 65.9366 49.656 65.5206 49.832C65.1126 50.008 64.6366 50.096 64.0926 50.096ZM74.612 46.544C74.612 46.736 74.6 46.936 74.576 47.144H69.932C69.964 47.56 70.096 47.88 70.328 48.104C70.568 48.32 70.86 48.428 71.204 48.428C71.716 48.428 72.072 48.212 72.272 47.78H74.456C74.344 48.22 74.14 48.616 73.844 48.968C73.556 49.32 73.192 49.596 72.752 49.796C72.312 49.996 71.82 50.096 71.276 50.096C70.62 50.096 70.036 49.956 69.524 49.676C69.012 49.396 68.612 48.996 68.324 48.476C68.036 47.956 67.892 47.348 67.892 46.652C67.892 45.956 68.032 45.348 68.312 44.828C68.6 44.308 69 43.908 69.512 43.628C70.024 43.348 70.612 43.208 71.276 43.208C71.924 43.208 72.5 43.344 73.004 43.616C73.508 43.888 73.9 44.276 74.18 44.78C74.468 45.284 74.612 45.872 74.612 46.544ZM72.512 46.004C72.512 45.652 72.392 45.372 72.152 45.164C71.912 44.956 71.612 44.852 71.252 44.852C70.908 44.852 70.616 44.952 70.376 45.152C70.144 45.352 70 45.636 69.944 46.004H72.512ZM75.5265 46.64C75.5265 45.952 75.6545 45.348 75.9105 44.828C76.1745 44.308 76.5305 43.908 76.9785 43.628C77.4265 43.348 77.9265 43.208 78.4785 43.208C78.9185 43.208 79.3185 43.3 79.6785 43.484C80.0465 43.668 80.3345 43.916 80.5425 44.228V41.12H82.5945V50H80.5425V49.04C80.3505 49.36 80.0745 49.616 79.7145 49.808C79.3625 50 78.9505 50.096 78.4785 50.096C77.9265 50.096 77.4265 49.956 76.9785 49.676C76.5305 49.388 76.1745 48.984 75.9105 48.464C75.6545 47.936 75.5265 47.328 75.5265 46.64ZM80.5425 46.652C80.5425 46.14 80.3985 45.736 80.1105 45.44C79.8305 45.144 79.4865 44.996 79.0785 44.996C78.6705 44.996 78.3225 45.144 78.0345 45.44C77.7545 45.728 77.6145 46.128 77.6145 46.64C77.6145 47.152 77.7545 47.56 78.0345 47.864C78.3225 48.16 78.6705 48.308 79.0785 48.308C79.4865 48.308 79.8305 48.16 80.1105 47.864C80.3985 47.568 80.5425 47.164 80.5425 46.652ZM86.5271 48.104L85.1951 51.548H83.8871L84.5831 48.104H86.5271ZM94.9034 43.232C95.6714 43.232 96.2874 43.488 96.7514 44C97.2154 44.504 97.4474 45.2 97.4474 46.088V50H95.4074V46.364C95.4074 45.916 95.2914 45.568 95.0594 45.32C94.8274 45.072 94.5154 44.948 94.1234 44.948C93.7314 44.948 93.4194 45.072 93.1874 45.32C92.9554 45.568 92.8394 45.916 92.8394 46.364V50H90.7874V41.12H92.8394V44.204C93.0474 43.908 93.3314 43.672 93.6914 43.496C94.0514 43.32 94.4554 43.232 94.9034 43.232ZM98.7053 46.64C98.7053 45.952 98.8333 45.348 99.0893 44.828C99.3533 44.308 99.7093 43.908 100.157 43.628C100.605 43.348 101.105 43.208 101.657 43.208C102.129 43.208 102.541 43.304 102.893 43.496C103.253 43.688 103.529 43.94 103.721 44.252V43.304H105.773V50H103.721V49.052C103.521 49.364 103.241 49.616 102.881 49.808C102.529 50 102.117 50.096 101.645 50.096C101.101 50.096 100.605 49.956 100.157 49.676C99.7093 49.388 99.3533 48.984 99.0893 48.464C98.8333 47.936 98.7053 47.328 98.7053 46.64ZM103.721 46.652C103.721 46.14 103.577 45.736 103.289 45.44C103.009 45.144 102.665 44.996 102.257 44.996C101.849 44.996 101.501 45.144 101.213 45.44C100.933 45.728 100.793 46.128 100.793 46.64C100.793 47.152 100.933 47.56 101.213 47.864C101.501 48.16 101.849 48.308 102.257 48.308C102.665 48.308 103.009 48.16 103.289 47.864C103.577 47.568 103.721 47.164 103.721 46.652ZM109.55 44.252C109.75 43.94 110.026 43.688 110.378 43.496C110.73 43.304 111.142 43.208 111.614 43.208C112.166 43.208 112.666 43.348 113.114 43.628C113.562 43.908 113.914 44.308 114.17 44.828C114.434 45.348 114.566 45.952 114.566 46.64C114.566 47.328 114.434 47.936 114.17 48.464C113.914 48.984 113.562 49.388 113.114 49.676C112.666 49.956 112.166 50.096 111.614 50.096C111.15 50.096 110.738 50 110.378 49.808C110.026 49.616 109.75 49.368 109.55 49.064V53.192H107.498V43.304H109.55V44.252ZM112.478 46.64C112.478 46.128 112.334 45.728 112.046 45.44C111.766 45.144 111.418 44.996 111.002 44.996C110.594 44.996 110.246 45.144 109.958 45.44C109.678 45.736 109.538 46.14 109.538 46.652C109.538 47.164 109.678 47.568 109.958 47.864C110.246 48.16 110.594 48.308 111.002 48.308C111.41 48.308 111.758 48.16 112.046 47.864C112.334 47.56 112.478 47.152 112.478 46.64ZM117.934 44.252C118.134 43.94 118.41 43.688 118.762 43.496C119.114 43.304 119.526 43.208 119.998 43.208C120.55 43.208 121.05 43.348 121.498 43.628C121.946 43.908 122.298 44.308 122.554 44.828C122.818 45.348 122.95 45.952 122.95 46.64C122.95 47.328 122.818 47.936 122.554 48.464C122.298 48.984 121.946 49.388 121.498 49.676C121.05 49.956 120.55 50.096 119.998 50.096C119.534 50.096 119.122 50 118.762 49.808C118.41 49.616 118.134 49.368 117.934 49.064V53.192H115.882V43.304H117.934V44.252ZM120.862 46.64C120.862 46.128 120.718 45.728 120.43 45.44C120.15 45.144 119.802 44.996 119.386 44.996C118.978 44.996 118.63 45.144 118.342 45.44C118.062 45.736 117.922 46.14 117.922 46.652C117.922 47.164 118.062 47.568 118.342 47.864C118.63 48.16 118.978 48.308 119.386 48.308C119.794 48.308 120.142 48.16 120.43 47.864C120.718 47.56 120.862 47.152 120.862 46.64ZM131.107 43.304L126.907 53.18H124.699L126.235 49.772L123.511 43.304H125.803L127.351 47.492L128.887 43.304H131.107ZM132.557 41.576H134.657L133.313 44.792H131.933L132.557 41.576ZM135.281 41.576H137.381L136.037 44.792H134.657L135.281 41.576Z" fill="#393A32"/>
<rect x="24" y="169" width="118" height="40" rx="2" fill="#3CAA90" fill-opacity="0.1"/>
<path d="M51.133 184.976C52.2423 184.976 53.1223 185.312 53.773 185.984C54.4343 186.656 54.765 187.589 54.765 188.784V194H52.045V189.152C52.045 188.576 51.8903 188.133 51.581 187.824C51.2823 187.504 50.8663 187.344 50.333 187.344C49.7996 187.344 49.3783 187.504 49.069 187.824C48.7703 188.133 48.621 188.576 48.621 189.152V194H45.901V189.152C45.901 188.576 45.7463 188.133 45.437 187.824C45.1383 187.504 44.7223 187.344 44.189 187.344C43.6556 187.344 43.2343 187.504 42.925 187.824C42.6263 188.133 42.477 188.576 42.477 189.152V194H39.741V185.072H42.477V186.192C42.7543 185.819 43.117 185.525 43.565 185.312C44.013 185.088 44.5196 184.976 45.085 184.976C45.757 184.976 46.3543 185.12 46.877 185.408C47.4103 185.696 47.8263 186.107 48.125 186.64C48.4343 186.149 48.8556 185.749 49.389 185.44C49.9223 185.131 50.5036 184.976 51.133 184.976ZM57.0945 189.52C57.0945 188.603 57.2651 187.797 57.6065 187.104C57.9585 186.411 58.4331 185.877 59.0305 185.504C59.6278 185.131 60.2945 184.944 61.0305 184.944C61.6598 184.944 62.2091 185.072 62.6785 185.328C63.1585 185.584 63.5265 185.92 63.7825 186.336V185.072H66.5185V194H63.7825V192.736C63.5158 193.152 63.1425 193.488 62.6625 193.744C62.1931 194 61.6438 194.128 61.0145 194.128C60.2891 194.128 59.6278 193.941 59.0305 193.568C58.4331 193.184 57.9585 192.645 57.6065 191.952C57.2651 191.248 57.0945 190.437 57.0945 189.52ZM63.7825 189.536C63.7825 188.853 63.5905 188.315 63.2065 187.92C62.8331 187.525 62.3745 187.328 61.8305 187.328C61.2865 187.328 60.8225 187.525 60.4385 187.92C60.0651 188.304 59.8785 188.837 59.8785 189.52C59.8785 190.203 60.0651 190.747 60.4385 191.152C60.8225 191.547 61.2865 191.744 61.8305 191.744C62.3745 191.744 62.8331 191.547 63.2065 191.152C63.5905 190.757 63.7825 190.219 63.7825 189.536ZM68.9138 189.536C68.9138 188.608 69.1005 187.797 69.4738 187.104C69.8578 186.411 70.3858 185.877 71.0578 185.504C71.7405 185.131 72.5192 184.944 73.3938 184.944C74.5138 184.944 75.4472 185.237 76.1938 185.824C76.9512 186.411 77.4472 187.237 77.6818 188.304H74.7698C74.5245 187.621 74.0498 187.28 73.3458 187.28C72.8445 187.28 72.4445 187.477 72.1458 187.872C71.8472 188.256 71.6978 188.811 71.6978 189.536C71.6978 190.261 71.8472 190.821 72.1458 191.216C72.4445 191.6 72.8445 191.792 73.3458 191.792C74.0498 191.792 74.5245 191.451 74.7698 190.768H77.6818C77.4472 191.813 76.9512 192.635 76.1938 193.232C75.4365 193.829 74.5032 194.128 73.3938 194.128C72.5192 194.128 71.7405 193.941 71.0578 193.568C70.3858 193.195 69.8578 192.661 69.4738 191.968C69.1005 191.275 68.9138 190.464 68.9138 189.536ZM79.5613 189.52C79.5613 188.603 79.732 187.797 80.0733 187.104C80.4253 186.411 80.9 185.877 81.4973 185.504C82.0947 185.131 82.7613 184.944 83.4973 184.944C84.1267 184.944 84.676 185.072 85.1453 185.328C85.6253 185.584 85.9933 185.92 86.2493 186.336V185.072H88.9853V194H86.2493V192.736C85.9827 193.152 85.6093 193.488 85.1293 193.744C84.66 194 84.1107 194.128 83.4813 194.128C82.756 194.128 82.0947 193.941 81.4973 193.568C80.9 193.184 80.4253 192.645 80.0733 191.952C79.732 191.248 79.5613 190.437 79.5613 189.52ZM86.2493 189.536C86.2493 188.853 86.0573 188.315 85.6733 187.92C85.3 187.525 84.8413 187.328 84.2973 187.328C83.7533 187.328 83.2893 187.525 82.9053 187.92C82.532 188.304 82.3453 188.837 82.3453 189.52C82.3453 190.203 82.532 190.747 82.9053 191.152C83.2893 191.547 83.7533 191.744 84.2973 191.744C84.8413 191.744 85.3 191.547 85.6733 191.152C86.0573 190.757 86.2493 190.219 86.2493 189.536ZM94.6607 186.56C94.9807 186.069 95.3807 185.685 95.8607 185.408C96.3407 185.12 96.874 184.976 97.4607 184.976V187.872H96.7087C96.026 187.872 95.514 188.021 95.1727 188.32C94.8314 188.608 94.6607 189.12 94.6607 189.856V194H91.9247V185.072H94.6607V186.56ZM103.792 194.128C102.918 194.128 102.128 193.941 101.424 193.568C100.731 193.195 100.182 192.661 99.7765 191.968C99.3818 191.275 99.1845 190.464 99.1845 189.536C99.1845 188.619 99.3871 187.813 99.7925 187.12C100.198 186.416 100.752 185.877 101.456 185.504C102.16 185.131 102.95 184.944 103.824 184.944C104.699 184.944 105.488 185.131 106.192 185.504C106.896 185.877 107.451 186.416 107.856 187.12C108.262 187.813 108.464 188.619 108.464 189.536C108.464 190.453 108.256 191.264 107.84 191.968C107.435 192.661 106.875 193.195 106.16 193.568C105.456 193.941 104.667 194.128 103.792 194.128ZM103.792 191.76C104.315 191.76 104.758 191.568 105.12 191.184C105.494 190.8 105.68 190.251 105.68 189.536C105.68 188.821 105.499 188.272 105.136 187.888C104.784 187.504 104.347 187.312 103.824 187.312C103.291 187.312 102.848 187.504 102.496 187.888C102.144 188.261 101.968 188.811 101.968 189.536C101.968 190.251 102.139 190.8 102.48 191.184C102.832 191.568 103.27 191.76 103.792 191.76ZM116.316 184.976C117.361 184.976 118.193 185.317 118.812 186C119.441 186.672 119.756 187.6 119.756 188.784V194H117.036V189.152C117.036 188.555 116.881 188.091 116.572 187.76C116.263 187.429 115.847 187.264 115.324 187.264C114.801 187.264 114.385 187.429 114.076 187.76C113.767 188.091 113.612 188.555 113.612 189.152V194H110.876V185.072H113.612V186.256C113.889 185.861 114.263 185.552 114.732 185.328C115.201 185.093 115.729 184.976 116.316 184.976ZM123.993 184.144C123.513 184.144 123.119 184.005 122.809 183.728C122.511 183.44 122.361 183.088 122.361 182.672C122.361 182.245 122.511 181.893 122.809 181.616C123.119 181.328 123.513 181.184 123.993 181.184C124.463 181.184 124.847 181.328 125.145 181.616C125.455 181.893 125.609 182.245 125.609 182.672C125.609 183.088 125.455 183.44 125.145 183.728C124.847 184.005 124.463 184.144 123.993 184.144ZM125.353 185.072V194H122.617V185.072H125.353Z" fill="#393A32"/>
<path d="M68.2921 114.845C74.691 114.845 81.0185 112.159 86.6261 107.058C86.94 106.901 87.2311 106.702 87.4914 106.466V106.466C88.7053 105.359 89.1322 103.546 88.6629 101.493C88.259 99.7266 87.2314 97.8711 85.7695 96.2687C84.3074 94.6663 82.5537 93.4734 80.8313 92.9095C78.83 92.2545 76.986 92.514 75.7721 93.6217C75.6594 93.7258 75.5531 93.8366 75.4538 93.9534C75.3045 94.0212 75.1668 94.112 75.0456 94.2224C73.1888 95.9166 70.9642 96.9594 68.7816 97.1588C66.7598 97.3423 65.0326 96.7699 63.9143 95.544C62.7958 94.3182 62.3828 92.5444 62.7513 90.5495C63.1495 88.3941 64.3914 86.2742 66.2484 84.5801C66.3694 84.4696 66.4724 84.3409 66.5535 84.1985C66.679 84.1102 66.799 84.0144 66.9129 83.9117L66.9131 83.9116C68.127 82.804 68.5539 80.9915 68.0847 78.9387C67.6807 77.172 66.6531 75.3165 65.1912 73.7141C63.7291 72.1117 61.9754 70.9187 60.2531 70.3549C58.2516 69.7 56.4077 69.9594 55.1938 71.0671C54.9342 71.3054 54.7084 71.5781 54.5226 71.8776C48.7841 77.129 45.5097 83.3675 45.0534 89.9227C44.621 96.1367 46.8239 102.235 51.2563 107.093C55.6888 111.951 61.5596 114.702 67.7872 114.84C67.9557 114.843 68.124 114.845 68.2921 114.845ZM56.9157 81.2644C57.0891 81.4545 57.2666 81.6386 57.4481 81.8166C56.2265 83.6126 55.2873 85.5853 54.6633 87.6658C53.1857 92.7257 54.1865 97.3532 57.5575 101.048C60.2036 103.948 63.5673 105.435 67.4127 105.435C68.5138 105.43 69.6118 105.317 70.6904 105.096C72.7935 104.656 74.8196 103.907 76.7025 102.872C76.9496 103.195 77.2134 103.511 77.494 103.819C77.7629 104.114 78.0411 104.394 78.3286 104.66C76.2666 105.797 74.0384 106.603 71.7258 107.046C65.9698 108.097 60.9726 106.352 56.8728 101.858C52.7745 97.3663 51.5134 92.2132 53.1247 86.5419C53.7812 84.3069 54.7767 82.1859 56.0766 80.2529C56.3375 80.5985 56.617 80.937 56.9157 81.2644ZM78.7264 95.6937C79.1103 95.7031 79.4904 95.7721 79.8531 95.8982C81.0505 96.2902 82.3601 97.1977 83.4463 98.3883C85.7294 100.891 86.1116 103.468 85.3718 104.143C85.024 104.46 84.2906 104.478 83.4104 104.19C82.213 103.798 80.9034 102.89 79.8172 101.7C77.534 99.1973 77.1519 96.6197 77.8917 95.9447C78.1297 95.7615 78.4267 95.6721 78.7264 95.6937V95.6937ZM68.0383 100.338C68.3759 100.338 68.7191 100.322 69.0677 100.29C71.0151 100.092 72.8948 99.4669 74.5731 98.4593C74.5826 98.5045 74.5901 98.5491 74.6005 98.5945C74.7253 99.1289 74.896 99.6516 75.1108 100.157C73.503 101.03 71.7748 101.662 69.9824 102.03C65.8868 102.83 62.4878 101.786 59.8807 98.9285C57.2713 96.0686 56.5231 92.6052 57.6567 88.6344C58.1702 86.9006 58.9399 85.2533 59.9403 83.747C60.5449 84.1068 61.1864 84.4007 61.8538 84.6236C61.8978 84.638 61.9414 84.6505 61.9853 84.664C60.8289 86.243 60.0346 88.0574 59.659 89.9781C59.1074 92.964 59.7936 95.6934 61.5911 97.6636C63.1819 99.4069 65.4435 100.338 68.0383 100.338H68.0383ZM58.1481 73.1391C58.532 73.1485 58.9121 73.2175 59.2748 73.3436C60.4722 73.7356 61.7818 74.6431 62.868 75.8337C65.1511 78.3359 65.5333 80.9135 64.7935 81.5887C64.0532 82.264 61.5215 81.647 59.2389 79.1448C56.9558 76.6426 56.5736 74.0651 57.3134 73.3901C57.5514 73.2069 57.8485 73.1175 58.1481 73.1391ZM53.5795 104.973C49.7322 100.756 47.8184 95.4888 48.1906 90.141C48.5211 85.3918 50.5842 80.7959 54.1976 76.689C54.2532 76.8682 54.3162 77.0478 54.3837 77.2276C52.467 79.7235 51.026 82.5508 50.1325 85.5682C48.7712 90.2657 48.4323 97.2729 54.5497 103.978C59.1847 109.058 64.3117 110.48 68.6006 110.48C69.8786 110.478 71.1536 110.356 72.4092 110.118C75.5122 109.518 78.4744 108.338 81.1406 106.641C81.3603 106.752 81.5805 106.853 81.8014 106.944C77.3805 110.167 72.6132 111.8 67.8566 111.696C62.4972 111.578 57.4267 109.19 53.5795 104.973Z" fill="#393A32"/>
<path d="M116.974 101.628C116.898 101.221 116.759 100.829 116.563 100.464C114.867 97.3268 109.464 97.1896 103.996 100.146C101.592 101.445 99.5696 103.159 98.3021 104.973C96.8139 107.102 96.4859 109.184 97.3783 110.834C97.466 110.994 97.5646 111.148 97.6733 111.295C97.6986 111.481 97.7571 111.661 97.846 111.826C100.691 117.09 99.4386 123.301 95.0537 125.671C92.9713 126.797 90.4791 126.897 88.036 125.954C85.5058 124.978 83.3414 123.014 81.9412 120.423C81.8517 120.259 81.7334 120.111 81.5919 119.988C81.5286 119.817 81.4537 119.65 81.3678 119.489C80.4755 117.838 78.5525 116.975 75.9575 117.051C73.7463 117.118 71.2046 117.871 68.8006 119.17C66.3965 120.47 64.3746 122.184 63.107 123.997C61.6188 126.126 61.2909 128.208 62.1833 129.859C62.3816 130.224 62.6352 130.557 62.935 130.846C67.2339 138.76 73.6228 144.011 81.4165 146.033C83.7223 146.627 86.0942 146.925 88.4753 146.92C93.7466 146.92 99.1779 145.505 104.283 142.746C111.715 138.729 117.14 132.574 119.559 125.415C122.138 117.786 121.243 109.562 116.974 101.628ZM112.343 118.609C111.524 125.83 107.435 131.478 100.188 135.395C92.9862 139.288 86.0438 139.606 79.5542 136.34C76.9762 135.022 74.6464 133.267 72.6684 131.152C73.3806 130.867 74.0758 130.542 74.7505 130.177C75.1721 129.95 75.581 129.709 75.9772 129.456C77.778 131.403 79.9027 133.022 82.257 134.242C84.7851 135.565 87.5921 136.267 90.4454 136.29C93.0945 136.29 96.0517 135.659 99.2057 133.954C106.255 130.144 108.252 124.174 108.685 119.836C108.934 117.22 108.74 114.581 108.113 112.03C108.72 111.776 109.332 111.485 109.946 111.153C110.57 110.816 111.177 110.446 111.763 110.045C112.458 112.843 112.654 115.742 112.343 118.609V118.609ZM100.88 106.774C101.857 105.375 103.538 103.968 105.491 102.912C107.819 101.654 109.949 101.156 111.481 101.156C112.692 101.156 113.53 101.467 113.797 101.96C114.4 103.076 112.617 106.134 108.45 108.387C104.283 110.639 100.748 110.455 100.145 109.339C99.8601 108.813 100.142 107.83 100.88 106.774V106.774ZM86.9037 128.888C88.3214 129.445 89.8301 129.735 91.3534 129.744C93.1672 129.749 94.9534 129.3 96.549 128.437C101.628 125.692 103.685 119.307 101.835 113.257C102.052 113.272 102.274 113.282 102.501 113.282C103.379 113.276 104.253 113.177 105.11 112.987C105.612 115.127 105.763 117.335 105.556 119.523C105.035 124.731 102.396 128.655 97.7104 131.188C93.0545 133.704 88.3698 133.807 83.7859 131.492C81.8143 130.478 80.0253 129.143 78.4922 127.542C79.2206 126.885 79.8751 126.15 80.4439 125.351C80.6316 125.082 80.8008 124.814 80.9514 124.548C82.5322 126.479 84.5814 127.974 86.9037 128.888V128.888ZM65.6845 125.799C66.6624 124.4 68.3432 122.992 70.296 121.937C72.2486 120.881 74.3469 120.246 76.053 120.194C76.1275 120.192 76.2006 120.191 76.2729 120.191C77.4508 120.191 78.3334 120.488 78.6015 120.984C78.886 121.511 78.6044 122.493 77.8664 123.549C76.8886 124.948 75.2079 126.356 73.2552 127.411C71.3024 128.467 69.204 129.102 67.4981 129.154C66.2072 129.194 65.2341 128.89 64.9496 128.363C64.6651 127.837 64.9467 126.854 65.6845 125.799ZM116.58 124.408C114.416 130.812 109.518 136.341 102.788 139.979C96.0581 143.617 88.7487 144.685 82.206 142.989C76.2844 141.453 71.2562 137.783 67.5017 132.298C67.5325 132.298 67.5625 132.298 67.5934 132.297C68.1795 132.277 68.7635 132.216 69.341 132.114C69.9196 132.85 72.9483 136.502 78.0189 139.088C81.3241 140.792 84.9873 141.685 88.7059 141.694C92.5242 141.694 96.8916 140.751 101.684 138.161C111.903 132.637 114.82 124.672 115.467 118.963C116.142 113.01 114.558 108.313 114.392 107.842C114.869 107.351 115.304 106.82 115.693 106.257C118.223 112.4 118.538 118.615 116.58 124.408Z" fill="#393A32"/>
</svg>
