<svg width="23" height="18" viewBox="0 0 23 18" fill="none" xmlns="http://www.w3.org/2000/svg">
<path d="M9.96326 14.1838L13.4108 17.4591C14.4237 18.4207 15.2517 18.0652 15.2517 16.6692V15.6045V13.0595C15.2517 12.4777 15.5968 12.3292 16.0182 12.7296L19.0446 15.6045L20.9971 17.4593C22.0087 18.4207 22.8364 18.0652 22.8364 16.6692L22.8364 1.65013C22.8364 0.255075 22.0087 -0.100666 20.9968 0.86075L19.0443 2.71583L16.018 5.58967C15.5968 5.98982 15.2514 5.84164 15.2514 5.26083V2.71532V1.64988C15.2514 0.254822 14.4235 -0.100666 13.4105 0.86075L9.96275 4.13651L5.5954 8.2859C5.08869 8.76699 5.08869 9.55332 5.5954 10.0342L9.96326 14.1838Z" fill="#1A1A1A"/>
<path d="M1.32752 17.9997H2.92074C3.65075 17.9997 4.24805 17.4022 4.24805 16.6719L4.24805 1.6478C4.24805 0.917288 3.65075 0.31999 2.92074 0.31999H1.32752C0.597006 0.31999 -4.14848e-05 0.917288 -4.14848e-05 1.6478L-4.14848e-05 16.6719C-4.14848e-05 17.4022 0.597259 17.9997 1.32752 17.9997Z" fill="#1A1A1A"/>
</svg>
