<svg width="59" height="59" viewBox="0 0 59 59" fill="none" xmlns="http://www.w3.org/2000/svg">
<path d="M29.5 0C13.2344 0 0 13.2337 0 29.5C0 45.7663 13.2344 59 29.5 59C45.7663 59 59 45.7656 59 29.5C59 13.2344 45.7663 0 29.5 0ZM29.5 54.183C15.8894 54.183 4.81637 43.1093 4.81637 29.5C4.81637 15.8907 15.8894 4.81702 29.5 4.81702C43.1106 4.81702 54.183 15.8894 54.183 29.5C54.183 43.1106 43.1106 54.183 29.5 54.183Z" fill="#025EA1"/>
<path d="M35.5573 16.25H39.5214C40.5778 16.25 41.4444 17.1164 41.4444 18.1714V40.377C41.4444 41.4293 40.5769 42.2984 39.5214 42.2984H35.5573C34.5029 42.2984 33.6343 41.4289 33.6343 40.377V18.1714C33.6343 17.1169 34.502 16.25 35.5573 16.25Z" fill="#FFD300" stroke="#025EA1" stroke-width="2.5"/>
<path d="M20.173 16.25H24.1371C25.1923 16.25 26.0601 17.1169 26.0601 18.1714V40.377C26.0601 41.4289 25.1915 42.2984 24.1371 42.2984H20.173C19.1175 42.2984 18.25 41.4293 18.25 40.377V18.1714C18.25 17.1164 19.1166 16.25 20.173 16.25Z" fill="#FFD300" stroke="#025EA1" stroke-width="2.5"/>
</svg>
