<svg height='100px' width='100px'  fill="#000000" xmlns="http://www.w3.org/2000/svg" xmlns:xlink="http://www.w3.org/1999/xlink" version="1.1" x="0px" y="0px" viewBox="0 0 100 100" enable-background="new 0 0 100 100" xml:space="preserve"><g><path d="M94.528,22.675c0-5.544-4.495-10.039-10.039-10.039H15.241c-5.544,0-10.039,4.495-10.039,10.039V64.88   c0,5.544,4.495,10.039,10.039,10.039h69.248c5.544,0,10.039-4.495,10.039-10.039V22.675z M90.84,64.88   c0,3.508-2.843,6.351-6.351,6.351H15.241c-3.508,0-6.351-2.843-6.351-6.351V22.675c0-3.508,2.843-6.351,6.351-6.351h69.248   c3.508,0,6.351,2.843,6.351,6.351V64.88z"></path><path d="M18.929,33.739c-1.018,0-1.844,0.826-1.844,1.844v16.39c0,1.018,0.826,1.844,1.844,1.844s1.844-0.826,1.844-1.844v-16.39   C20.773,34.564,19.947,33.739,18.929,33.739z"></path><path d="M26.714,26.773c-1.018,0-1.844,0.826-1.844,1.844v30.322c0,1.018,0.826,1.844,1.844,1.844c1.018,0,1.844-0.826,1.844-1.844   V28.617C28.558,27.598,27.733,26.773,26.714,26.773z"></path><path d="M34.09,33.739c-1.018,0-1.844,0.826-1.844,1.844v16.39c0,1.018,0.826,1.844,1.844,1.844c1.018,0,1.844-0.826,1.844-1.844   v-16.39C35.934,34.564,35.108,33.739,34.09,33.739z"></path><path d="M41.875,26.773c-1.018,0-1.844,0.826-1.844,1.844v30.322c0,1.018,0.826,1.844,1.844,1.844c1.018,0,1.844-0.826,1.844-1.844   V28.617C43.719,27.598,42.893,26.773,41.875,26.773z"></path><path d="M49.66,33.739c-1.018,0-1.844,0.826-1.844,1.844v16.39c0,1.018,0.826,1.844,1.844,1.844c1.018,0,1.844-0.826,1.844-1.844   v-16.39C51.504,34.564,50.679,33.739,49.66,33.739z"></path><path d="M71.992,26.158h-9.834c-1.018,0-1.844,0.826-1.844,1.844s0.826,1.844,1.844,1.844h9.834c1.018,0,1.844-0.826,1.844-1.844   S73.01,26.158,71.992,26.158z"></path><path d="M80.596,26.158h-1.229c-1.018,0-1.844,0.826-1.844,1.844s0.826,1.844,1.844,1.844h1.229c1.018,0,1.844-0.826,1.844-1.844   S81.615,26.158,80.596,26.158z"></path><path d="M66.96,46.891c-3.743,0-6.788,3.045-6.788,6.788s3.045,6.788,6.788,6.788c3.743,0,6.788-3.045,6.788-6.788   S70.703,46.891,66.96,46.891z M66.96,56.78c-1.71,0-3.1-1.391-3.1-3.101c0-1.709,1.391-3.1,3.1-3.1c1.71,0,3.101,1.391,3.101,3.1   C70.06,55.389,68.669,56.78,66.96,56.78z"></path><path d="M28.148,79.426h-6.966c-1.018,0-1.844,0.826-1.844,1.844s0.826,1.844,1.844,1.844h6.966c1.018,0,1.844-0.826,1.844-1.844   S29.167,79.426,28.148,79.426z"></path><path d="M78.548,79.426h-6.966c-1.018,0-1.844,0.826-1.844,1.844s0.826,1.844,1.844,1.844h6.966c1.018,0,1.844-0.826,1.844-1.844   S79.566,79.426,78.548,79.426z"></path></g></svg>