<svg width="23" height="6" viewBox="0 0 23 6" fill="none" xmlns="http://www.w3.org/2000/svg">
<path d="M2.90033 0C1.3012 0 0 1.3012 0 2.90033C0 4.49946 1.3012 5.79981 2.90033 5.79981C4.49946 5.79981 5.80066 4.49946 5.80066 2.90033C5.80066 1.3012 4.49946 0 2.90033 0ZM2.90033 3.39518C2.62787 3.39518 2.40548 3.17279 2.40548 2.90033C2.40548 2.62702 2.62787 2.40463 2.90033 2.40463C3.17279 2.40463 3.39518 2.62702 3.39518 2.90033C3.39603 3.17279 3.17364 3.39518 2.90033 3.39518Z" fill="#1A1A1A"/>
<path d="M11.3885 0C9.78936 0 8.48816 1.3012 8.48816 2.90033C8.48816 4.49946 9.78936 5.79981 11.3885 5.79981C12.9876 5.79981 14.2888 4.49946 14.2888 2.90033C14.2888 1.3012 12.9876 0 11.3885 0ZM11.3885 3.39518C11.116 3.39518 10.8936 3.17279 10.8936 2.90033C10.8936 2.62702 11.116 2.40463 11.3885 2.40463C11.661 2.40463 11.8833 2.62702 11.8833 2.90033C11.8842 3.17279 11.6618 3.39518 11.3885 3.39518Z" fill="#1A1A1A"/>
<path d="M19.8759 0C18.2768 0 16.9756 1.3012 16.9756 2.90033C16.9756 4.49946 18.2768 5.79981 19.8759 5.79981C21.475 5.79981 22.7762 4.49946 22.7762 2.90033C22.7762 1.3012 21.475 0 19.8759 0ZM19.8759 3.39518C19.6035 3.39518 19.3811 3.17279 19.3811 2.90033C19.3811 2.62702 19.6035 2.40463 19.8759 2.40463C20.1484 2.40463 20.3708 2.62702 20.3708 2.90033C20.3716 3.17279 20.1492 3.39518 19.8759 3.39518Z" fill="#1A1A1A"/>
</svg>
