<svg width="770" height="121" viewBox="0 0 770 121" fill="none" xmlns="http://www.w3.org/2000/svg">
<rect x="711.954" y="36.2327" width="37" height="8" transform="rotate(-35.9211 711.954 36.2327)" stroke="black" stroke-width="3"/>
<rect x="753.094" y="6.80812" width="6.65979" height="6.65979" transform="rotate(-35.9211 753.094 6.80812)" stroke="black" stroke-width="3"/>
<line x1="744.862" y1="17.3321" x2="754.58" y2="10.2921" stroke="black" stroke-width="3"/>
<rect x="657" y="115" width="60" height="5" stroke="black" stroke-width="2"/>
<rect x="53" y="115" width="60" height="5" stroke="black" stroke-width="2"/>
<rect y="36" width="10" height="78" fill="black"/>
<rect x="760" y="36" width="10" height="78" fill="black"/>
<path d="M5 37.5H765C766.933 37.5 768.5 39.067 768.5 41V109C768.5 110.933 766.933 112.5 765 112.5H5C3.067 112.5 1.5 110.933 1.5 109V41C1.5 39.067 3.067 37.5 5 37.5Z" fill="white" stroke="black" stroke-width="3"/>
<path d="M503.9 72C502.301 72 501 73.3012 501 74.9003C501 76.4995 502.301 77.7998 503.9 77.7998C505.499 77.7998 506.801 76.4995 506.801 74.9003C506.801 73.3012 505.499 72 503.9 72ZM503.9 75.3952C503.628 75.3952 503.405 75.1728 503.405 74.9003C503.405 74.627 503.628 74.4046 503.9 74.4046C504.173 74.4046 504.395 74.627 504.395 74.9003C504.396 75.1728 504.174 75.3952 503.9 75.3952Z" fill="#1A1A1A"/>
<path d="M512.388 72C510.789 72 509.488 73.3012 509.488 74.9003C509.488 76.4995 510.789 77.7998 512.388 77.7998C513.988 77.7998 515.289 76.4995 515.289 74.9003C515.289 73.3012 513.988 72 512.388 72ZM512.388 75.3952C512.116 75.3952 511.894 75.1728 511.894 74.9003C511.894 74.627 512.116 74.4046 512.388 74.4046C512.661 74.4046 512.883 74.627 512.883 74.9003C512.884 75.1728 512.662 75.3952 512.388 75.3952Z" fill="#1A1A1A"/>
<path d="M520.876 72C519.277 72 517.976 73.3012 517.976 74.9003C517.976 76.4995 519.277 77.7998 520.876 77.7998C522.475 77.7998 523.776 76.4995 523.776 74.9003C523.776 73.3012 522.475 72 520.876 72ZM520.876 75.3952C520.603 75.3952 520.381 75.1728 520.381 74.9003C520.381 74.627 520.603 74.4046 520.876 74.4046C521.148 74.4046 521.371 74.627 521.371 74.9003C521.372 75.1728 521.149 75.3952 520.876 75.3952Z" fill="#1A1A1A"/>
</svg>
