<svg width="158" height="224" viewBox="0 0 158 224" fill="none" xmlns="http://www.w3.org/2000/svg">
<rect width="158" height="224" rx="5" fill="#FFD300"/>
<mask id="path-2-inside-1" fill="white">
<rect x="9" y="9" width="140" height="207" rx="2"/>
</mask>
<rect x="9" y="9" width="140" height="207" rx="2" fill="white" stroke="#2179B9" stroke-width="14" mask="url(#path-2-inside-1)"/>
<path d="M30.8024 42.256C29.7358 42.256 28.7651 42.0053 27.8904 41.504C27.0264 40.992 26.3384 40.2987 25.8264 39.424C25.3251 38.5387 25.0744 37.5627 25.0744 36.496C25.0744 35.408 25.3198 34.4267 25.8104 33.552C26.3011 32.6773 26.9731 31.9947 27.8264 31.504C28.6798 31.0027 29.6398 30.752 30.7064 30.752C31.2824 30.752 31.8478 30.8213 32.4024 30.96C32.9571 31.0987 33.4318 31.296 33.8264 31.552L33.3944 34.032C32.6264 33.744 31.9331 33.6 31.3144 33.6C30.4611 33.6 29.8051 33.8507 29.3464 34.352C28.8878 34.8427 28.6584 35.552 28.6584 36.48C28.6584 37.3867 28.8984 38.096 29.3784 38.608C29.8691 39.1093 30.5464 39.36 31.4104 39.36C31.7411 39.36 32.0504 39.328 32.3384 39.264C32.6264 39.2 32.9784 39.0827 33.3944 38.912L33.8424 41.44C32.9144 41.984 31.9011 42.256 30.8024 42.256ZM39.3901 42.128C38.6967 42.128 38.0461 41.9467 37.4381 41.584C36.8407 41.2107 36.3607 40.7093 35.9981 40.08C35.6354 39.44 35.4541 38.7307 35.4541 37.952C35.4541 37.184 35.6354 36.4907 35.9981 35.872C36.3607 35.2427 36.8461 34.752 37.4541 34.4C38.0621 34.048 38.7074 33.872 39.3901 33.872C39.9447 33.872 40.4567 34.0267 40.9261 34.336C41.4061 34.6453 41.7687 35.1093 42.0141 35.728V33.872H45.3741V42H42.0141V40.512C41.4807 41.5893 40.6061 42.128 39.3901 42.128ZM40.4301 39.6C40.8567 39.6 41.2194 39.4507 41.5181 39.152C41.8274 38.8427 41.9927 38.48 42.0141 38.064V37.936C41.9927 37.5093 41.8221 37.1467 41.5021 36.848C41.1927 36.5493 40.8354 36.4 40.4301 36.4C39.9821 36.4 39.5981 36.56 39.2781 36.88C38.9687 37.1893 38.8141 37.5627 38.8141 38C38.8141 38.448 38.9741 38.8267 39.2941 39.136C39.6141 39.4453 39.9927 39.6 40.4301 39.6ZM47.9547 34.096H51.1707V35.728C51.5334 35.0987 51.944 34.6347 52.4027 34.336C52.872 34.0267 53.4267 33.872 54.0667 33.872C54.696 33.872 55.24 34.032 55.6987 34.352C56.168 34.6613 56.52 35.0827 56.7547 35.616C57.4374 34.4533 58.4294 33.872 59.7307 33.872C60.3494 33.872 60.888 34.0373 61.3467 34.368C61.816 34.6987 62.1787 35.1787 62.4347 35.808C62.6907 36.4267 62.8187 37.1573 62.8187 38V42H59.4427V38C59.4427 37.456 59.3467 37.0453 59.1547 36.768C58.9734 36.4907 58.7174 36.352 58.3867 36.352C58.024 36.352 57.7094 36.5067 57.4427 36.816C57.1867 37.1253 57.0587 37.4987 57.0587 37.936V42H53.7147V38C53.7147 37.456 53.6187 37.0453 53.4267 36.768C53.2454 36.4907 52.984 36.352 52.6427 36.352C52.28 36.352 51.9707 36.5067 51.7147 36.816C51.4587 37.1253 51.3307 37.4987 51.3307 37.936V42H47.9547V34.096ZM65.3366 34.096H68.7126V35.488C69.2246 34.4107 70.0939 33.872 71.3206 33.872C72.0352 33.872 72.6912 34.0533 73.2886 34.416C73.8966 34.768 74.3712 35.2587 74.7126 35.888C75.0646 36.5173 75.2406 37.2213 75.2406 38C75.2406 38.7787 75.0592 39.4827 74.6966 40.112C74.3446 40.7413 73.8646 41.2373 73.2566 41.6C72.6592 41.952 72.0192 42.128 71.3366 42.128C70.1206 42.128 69.2459 41.5893 68.7126 40.512V44.08L65.3366 44.72V34.096ZM70.3126 39.6C70.7499 39.6 71.1232 39.44 71.4326 39.12C71.7419 38.8 71.8966 38.4267 71.8966 38C71.8966 37.552 71.7366 37.1733 71.4166 36.864C71.1072 36.5547 70.7392 36.4 70.3126 36.4C69.8752 36.4 69.5019 36.5547 69.1926 36.864C68.8832 37.1627 68.7286 37.52 68.7286 37.936V38C68.7286 38.448 68.8832 38.8267 69.1926 39.136C69.5126 39.4453 69.8859 39.6 70.3126 39.6ZM80.9576 42.128C80.2642 42.128 79.6136 41.9467 79.0056 41.584C78.4082 41.2107 77.9282 40.7093 77.5656 40.08C77.2029 39.44 77.0216 38.7307 77.0216 37.952C77.0216 37.184 77.2029 36.4907 77.5656 35.872C77.9282 35.2427 78.4136 34.752 79.0216 34.4C79.6296 34.048 80.2749 33.872 80.9576 33.872C81.5122 33.872 82.0242 34.0267 82.4936 34.336C82.9736 34.6453 83.3362 35.1093 83.5816 35.728V33.872H86.9416V42H83.5816V40.512C83.0482 41.5893 82.1736 42.128 80.9576 42.128ZM81.9976 39.6C82.4242 39.6 82.7869 39.4507 83.0856 39.152C83.3949 38.8427 83.5602 38.48 83.5816 38.064V37.936C83.5602 37.5093 83.3896 37.1467 83.0696 36.848C82.7602 36.5493 82.4029 36.4 81.9976 36.4C81.5496 36.4 81.1656 36.56 80.8456 36.88C80.5362 37.1893 80.3816 37.5627 80.3816 38C80.3816 38.448 80.5416 38.8267 80.8616 39.136C81.1816 39.4453 81.5602 39.6 81.9976 39.6ZM89.5222 34.096H92.7382V35.728C93.3569 34.4907 94.3382 33.872 95.6822 33.872C96.7062 33.872 97.5062 34.24 98.0822 34.976C98.6689 35.7013 98.9622 36.7093 98.9622 38V42H95.6022V37.664C95.6022 37.2053 95.5009 36.8533 95.2982 36.608C95.1062 36.3627 94.8342 36.24 94.4822 36.24C94.2262 36.24 93.9755 36.3253 93.7302 36.496C93.4849 36.656 93.2822 36.8907 93.1222 37.2C92.9729 37.5093 92.8982 37.8613 92.8982 38.256V42H89.5222V34.096ZM105.611 42.128C104.725 42.128 103.936 41.952 103.243 41.6C102.56 41.2373 102.027 40.7467 101.643 40.128C101.259 39.4987 101.067 38.7893 101.067 38C101.067 37.1893 101.264 36.4693 101.659 35.84C102.053 35.2107 102.587 34.7253 103.259 34.384C103.931 34.0427 104.677 33.872 105.499 33.872C106.288 33.872 106.96 34.048 107.515 34.4C108.08 34.7413 108.501 35.2107 108.779 35.808C109.056 36.3947 109.195 37.056 109.195 37.792C109.195 37.984 109.184 38.1227 109.163 38.208L104.363 38.832C104.491 39.2053 104.699 39.4773 104.987 39.648C105.275 39.808 105.653 39.888 106.123 39.888C106.848 39.888 107.632 39.7013 108.475 39.328L108.875 41.472C107.883 41.9093 106.795 42.128 105.611 42.128ZM106.715 36.816C106.544 36.144 106.139 35.808 105.499 35.808C105.115 35.808 104.811 35.952 104.587 36.24C104.363 36.528 104.245 36.9013 104.235 37.36L106.715 36.816ZM114.133 42.128C113.227 42.128 112.523 41.8453 112.021 41.28C111.531 40.704 111.285 39.92 111.285 38.928V31.456L114.661 30.96V38.688C114.661 38.9867 114.731 39.2053 114.869 39.344C115.019 39.472 115.275 39.536 115.637 39.536C115.904 39.536 116.165 39.472 116.421 39.344L116.533 41.584C115.819 41.9467 115.019 42.128 114.133 42.128ZM121.14 42.128C120.233 42.128 119.529 41.8453 119.028 41.28C118.537 40.704 118.292 39.92 118.292 38.928V31.456L121.668 30.96V38.688C121.668 38.9867 121.737 39.2053 121.876 39.344C122.025 39.472 122.281 39.536 122.644 39.536C122.911 39.536 123.172 39.472 123.428 39.344L123.54 41.584C122.825 41.9467 122.025 42.128 121.14 42.128ZM129.475 42.128C128.59 42.128 127.8 41.952 127.107 41.6C126.424 41.2373 125.891 40.7467 125.507 40.128C125.123 39.4987 124.931 38.7893 124.931 38C124.931 37.1893 125.128 36.4693 125.523 35.84C125.918 35.2107 126.451 34.7253 127.123 34.384C127.795 34.0427 128.542 33.872 129.363 33.872C130.152 33.872 130.824 34.048 131.379 34.4C131.944 34.7413 132.366 35.2107 132.643 35.808C132.92 36.3947 133.059 37.056 133.059 37.792C133.059 37.984 133.048 38.1227 133.027 38.208L128.227 38.832C128.355 39.2053 128.563 39.4773 128.851 39.648C129.139 39.808 129.518 39.888 129.987 39.888C130.712 39.888 131.496 39.7013 132.339 39.328L132.739 41.472C131.747 41.9093 130.659 42.128 129.475 42.128ZM130.579 36.816C130.408 36.144 130.003 35.808 129.363 35.808C128.979 35.808 128.675 35.952 128.451 36.24C128.227 36.528 128.11 36.9013 128.099 37.36L130.579 36.816Z" fill="#393A32"/>
<path d="M45.6813 169.096C45.0413 169.096 44.4733 168.968 43.9773 168.712C43.4893 168.448 43.1053 168.08 42.8253 167.608C42.5533 167.136 42.4173 166.6 42.4173 166C42.4173 165.424 42.5613 164.9 42.8493 164.428C43.1373 163.956 43.5293 163.584 44.0253 163.312C44.5213 163.04 45.0733 162.904 45.6813 162.904C46.4573 162.904 47.0693 163.064 47.5173 163.384L47.2893 164.98C46.8333 164.844 46.4573 164.776 46.1613 164.776C45.7773 164.776 45.4733 164.888 45.2493 165.112C45.0253 165.328 44.9133 165.624 44.9133 166C44.9133 166.376 45.0253 166.676 45.2493 166.9C45.4733 167.124 45.7693 167.236 46.1373 167.236C46.4573 167.236 46.8333 167.168 47.2653 167.032L47.4933 168.712C47.2213 168.848 46.9453 168.944 46.6653 169C46.3853 169.064 46.0573 169.096 45.6813 169.096ZM51.1991 169.096C50.6791 169.096 50.1911 168.96 49.7351 168.688C49.2871 168.408 48.9271 168.032 48.6551 167.56C48.3831 167.08 48.2471 166.548 48.2471 165.964C48.2471 165.388 48.3831 164.868 48.6551 164.404C48.9271 163.932 49.2911 163.564 49.7471 163.3C50.2031 163.036 50.6871 162.904 51.1991 162.904C51.6151 162.904 51.9991 163.02 52.3511 163.252C52.7111 163.484 52.9831 163.832 53.1671 164.296V162.904H55.6871V169H53.1671V167.884C52.7671 168.692 52.1111 169.096 51.1991 169.096ZM51.9791 167.2C52.2991 167.2 52.5711 167.088 52.7951 166.864C53.0271 166.632 53.1511 166.36 53.1671 166.048V165.952C53.1511 165.632 53.0231 165.36 52.7831 165.136C52.5511 164.912 52.2831 164.8 51.9791 164.8C51.6431 164.8 51.3551 164.92 51.1151 165.16C50.8831 165.392 50.7671 165.672 50.7671 166C50.7671 166.336 50.8871 166.62 51.1271 166.852C51.3671 167.084 51.6511 167.2 51.9791 167.2ZM57.1426 163.072H59.5546V164.296C59.8266 163.824 60.1346 163.476 60.4786 163.252C60.8306 163.02 61.2466 162.904 61.7266 162.904C62.1986 162.904 62.6066 163.024 62.9506 163.264C63.3026 163.496 63.5666 163.812 63.7426 164.212C64.2546 163.34 64.9986 162.904 65.9746 162.904C66.4386 162.904 66.8426 163.028 67.1866 163.276C67.5386 163.524 67.8106 163.884 68.0026 164.356C68.1946 164.82 68.2906 165.368 68.2906 166V169H65.7586V166C65.7586 165.592 65.6866 165.284 65.5426 165.076C65.4066 164.868 65.2146 164.764 64.9666 164.764C64.6946 164.764 64.4586 164.88 64.2586 165.112C64.0666 165.344 63.9706 165.624 63.9706 165.952V169H61.4626V166C61.4626 165.592 61.3906 165.284 61.2466 165.076C61.1106 164.868 60.9146 164.764 60.6586 164.764C60.3866 164.764 60.1546 164.88 59.9626 165.112C59.7706 165.344 59.6746 165.624 59.6746 165.952V169H57.1426V163.072ZM69.699 163.072H72.231V164.116C72.615 163.308 73.267 162.904 74.187 162.904C74.723 162.904 75.215 163.04 75.663 163.312C76.119 163.576 76.475 163.944 76.731 164.416C76.995 164.888 77.127 165.416 77.127 166C77.127 166.584 76.991 167.112 76.719 167.584C76.455 168.056 76.095 168.428 75.639 168.7C75.191 168.964 74.711 169.096 74.199 169.096C73.287 169.096 72.631 168.692 72.231 167.884V170.56L69.699 171.04V163.072ZM73.431 167.2C73.759 167.2 74.039 167.08 74.271 166.84C74.503 166.6 74.619 166.32 74.619 166C74.619 165.664 74.499 165.38 74.259 165.148C74.027 164.916 73.751 164.8 73.431 164.8C73.103 164.8 72.823 164.916 72.591 165.148C72.359 165.372 72.243 165.64 72.243 165.952V166C72.243 166.336 72.359 166.62 72.591 166.852C72.831 167.084 73.111 167.2 73.431 167.2ZM80.9347 169.096C80.4147 169.096 79.9267 168.96 79.4707 168.688C79.0227 168.408 78.6627 168.032 78.3907 167.56C78.1187 167.08 77.9827 166.548 77.9827 165.964C77.9827 165.388 78.1187 164.868 78.3907 164.404C78.6627 163.932 79.0267 163.564 79.4827 163.3C79.9387 163.036 80.4227 162.904 80.9347 162.904C81.3507 162.904 81.7347 163.02 82.0867 163.252C82.4467 163.484 82.7187 163.832 82.9027 164.296V162.904H85.4227V169H82.9027V167.884C82.5027 168.692 81.8467 169.096 80.9347 169.096ZM81.7147 167.2C82.0347 167.2 82.3067 167.088 82.5307 166.864C82.7627 166.632 82.8867 166.36 82.9027 166.048V165.952C82.8867 165.632 82.7587 165.36 82.5187 165.136C82.2867 164.912 82.0187 164.8 81.7147 164.8C81.3787 164.8 81.0907 164.92 80.8507 165.16C80.6187 165.392 80.5027 165.672 80.5027 166C80.5027 166.336 80.6227 166.62 80.8627 166.852C81.1027 167.084 81.3867 167.2 81.7147 167.2ZM86.8782 163.072H89.2902V164.296C89.7542 163.368 90.4902 162.904 91.4982 162.904C92.2662 162.904 92.8662 163.18 93.2982 163.732C93.7382 164.276 93.9582 165.032 93.9582 166V169H91.4382V165.748C91.4382 165.404 91.3622 165.14 91.2102 164.956C91.0662 164.772 90.8622 164.68 90.5982 164.68C90.4062 164.68 90.2182 164.744 90.0342 164.872C89.8502 164.992 89.6982 165.168 89.5782 165.4C89.4662 165.632 89.4102 165.896 89.4102 166.192V169H86.8782V163.072ZM98.4645 169.096C97.8005 169.096 97.2085 168.964 96.6885 168.7C96.1765 168.428 95.7765 168.06 95.4885 167.596C95.2005 167.124 95.0565 166.592 95.0565 166C95.0565 165.392 95.2045 164.852 95.5005 164.38C95.7965 163.908 96.1965 163.544 96.7005 163.288C97.2045 163.032 97.7645 162.904 98.3805 162.904C98.9725 162.904 99.4765 163.036 99.8925 163.3C100.316 163.556 100.632 163.908 100.84 164.356C101.048 164.796 101.152 165.292 101.152 165.844C101.152 165.988 101.144 166.092 101.128 166.156L97.5285 166.624C97.6245 166.904 97.7805 167.108 97.9965 167.236C98.2125 167.356 98.4965 167.416 98.8485 167.416C99.3925 167.416 99.9805 167.276 100.612 166.996L100.912 168.604C100.168 168.932 99.3525 169.096 98.4645 169.096ZM99.2925 165.112C99.1645 164.608 98.8605 164.356 98.3805 164.356C98.0925 164.356 97.8645 164.464 97.6965 164.68C97.5285 164.896 97.4405 165.176 97.4325 165.52L99.2925 165.112ZM104.376 169.096C103.696 169.096 103.168 168.884 102.792 168.46C102.424 168.028 102.24 167.44 102.24 166.696V161.092L104.772 160.72V166.516C104.772 166.74 104.824 166.904 104.928 167.008C105.04 167.104 105.232 167.152 105.504 167.152C105.704 167.152 105.9 167.104 106.092 167.008L106.176 168.688C105.64 168.96 105.04 169.096 104.376 169.096ZM109.152 169.096C108.472 169.096 107.944 168.884 107.568 168.46C107.2 168.028 107.016 167.44 107.016 166.696V161.092L109.548 160.72V166.516C109.548 166.74 109.6 166.904 109.704 167.008C109.816 167.104 110.008 167.152 110.28 167.152C110.48 167.152 110.676 167.104 110.868 167.008L110.952 168.688C110.416 168.96 109.816 169.096 109.152 169.096ZM114.923 169.096C114.259 169.096 113.667 168.964 113.147 168.7C112.635 168.428 112.235 168.06 111.947 167.596C111.659 167.124 111.515 166.592 111.515 166C111.515 165.392 111.663 164.852 111.959 164.38C112.255 163.908 112.655 163.544 113.159 163.288C113.663 163.032 114.223 162.904 114.839 162.904C115.431 162.904 115.935 163.036 116.351 163.3C116.775 163.556 117.091 163.908 117.299 164.356C117.507 164.796 117.611 165.292 117.611 165.844C117.611 165.988 117.603 166.092 117.587 166.156L113.987 166.624C114.083 166.904 114.239 167.108 114.455 167.236C114.671 167.356 114.955 167.416 115.307 167.416C115.851 167.416 116.439 167.276 117.071 166.996L117.371 168.604C116.627 168.932 115.811 169.096 114.923 169.096ZM115.751 165.112C115.623 164.608 115.319 164.356 114.839 164.356C114.551 164.356 114.323 164.464 114.155 164.68C113.987 164.896 113.899 165.176 113.891 165.52L115.751 165.112Z" fill="#2179B9"/>
<path d="M40.7163 184.672C40.7163 183.752 40.7683 183.092 40.8723 182.692C40.9843 182.284 41.2043 182.004 41.5323 181.852C41.8683 181.7 42.4163 181.624 43.1763 181.624V183.028C42.7683 183.028 42.5003 183.036 42.3723 183.052C42.2443 183.068 42.1603 183.116 42.1203 183.196C42.0803 183.276 42.0603 183.428 42.0603 183.652H43.1763V185.896H40.7163V184.672ZM43.8363 184.672C43.8363 183.752 43.8883 183.092 43.9923 182.692C44.1043 182.284 44.3243 182.004 44.6523 181.852C44.9883 181.7 45.5363 181.624 46.2963 181.624V183.028C45.8883 183.028 45.6203 183.036 45.4923 183.052C45.3643 183.068 45.2803 183.116 45.2403 183.196C45.2003 183.276 45.1803 183.428 45.1803 183.652H46.2963V185.896H43.8363V184.672ZM49.7846 190.096C49.1046 190.096 48.5766 189.884 48.2006 189.46C47.8326 189.028 47.6486 188.44 47.6486 187.696V182.092L50.1806 181.72V187.516C50.1806 187.74 50.2326 187.904 50.3366 188.008C50.4486 188.104 50.6406 188.152 50.9126 188.152C51.1126 188.152 51.3086 188.104 51.5006 188.008L51.5846 189.688C51.0486 189.96 50.4486 190.096 49.7846 190.096ZM54.5597 190.096C53.8877 190.096 53.3637 189.88 52.9877 189.448C52.6117 189.016 52.4237 188.428 52.4237 187.684V183.988H54.9677V187.576C54.9677 187.76 55.0157 187.904 55.1117 188.008C55.2157 188.104 55.3477 188.152 55.5077 188.152C55.6677 188.152 55.8317 188.104 55.9997 188.008L56.1317 189.676C55.9557 189.812 55.7237 189.916 55.4357 189.988C55.1557 190.06 54.8637 190.096 54.5597 190.096ZM53.6957 183.088C53.3197 183.088 52.9997 182.972 52.7357 182.74C52.4797 182.5 52.3517 182.208 52.3517 181.864C52.3517 181.52 52.4877 181.232 52.7597 181C53.0317 180.768 53.3437 180.652 53.6957 180.652C54.0637 180.652 54.3797 180.772 54.6437 181.012C54.9157 181.252 55.0517 181.536 55.0517 181.864C55.0517 182.216 54.9157 182.508 54.6437 182.74C54.3717 182.972 54.0557 183.088 53.6957 183.088ZM59.5696 190.096C58.8656 190.096 58.3176 189.896 57.9256 189.496C57.5336 189.088 57.3376 188.528 57.3376 187.816V185.476H56.5696V183.988H57.5176L58.6336 181.72H59.8456V183.988H61.2376V185.476H59.8456V187.516C59.8456 187.716 59.9096 187.872 60.0376 187.984C60.1656 188.096 60.3456 188.152 60.5776 188.152C60.7936 188.152 60.9896 188.104 61.1656 188.008L61.2616 189.688C61.0616 189.808 60.8016 189.908 60.4816 189.988C60.1696 190.06 59.8656 190.096 59.5696 190.096ZM65.0245 190.096C64.3205 190.096 63.7725 189.896 63.3805 189.496C62.9885 189.088 62.7925 188.528 62.7925 187.816V185.476H62.0245V183.988H62.9725L64.0885 181.72H65.3005V183.988H66.6925V185.476H65.3005V187.516C65.3005 187.716 65.3645 187.872 65.4925 187.984C65.6205 188.096 65.8005 188.152 66.0325 188.152C66.2485 188.152 66.4445 188.104 66.6205 188.008L66.7165 189.688C66.5165 189.808 66.2565 189.908 65.9365 189.988C65.6245 190.06 65.3205 190.096 65.0245 190.096ZM69.9633 190.096C69.2833 190.096 68.7553 189.884 68.3793 189.46C68.0113 189.028 67.8273 188.44 67.8273 187.696V182.092L70.3593 181.72V187.516C70.3593 187.74 70.4113 187.904 70.5153 188.008C70.6273 188.104 70.8193 188.152 71.0913 188.152C71.2913 188.152 71.4873 188.104 71.6793 188.008L71.7633 189.688C71.2273 189.96 70.6273 190.096 69.9633 190.096ZM75.7345 190.096C75.0705 190.096 74.4785 189.964 73.9585 189.7C73.4465 189.428 73.0465 189.06 72.7585 188.596C72.4705 188.124 72.3265 187.592 72.3265 187C72.3265 186.392 72.4745 185.852 72.7705 185.38C73.0665 184.908 73.4665 184.544 73.9705 184.288C74.4745 184.032 75.0345 183.904 75.6505 183.904C76.2425 183.904 76.7465 184.036 77.1625 184.3C77.5865 184.556 77.9025 184.908 78.1105 185.356C78.3185 185.796 78.4225 186.292 78.4225 186.844C78.4225 186.988 78.4145 187.092 78.3985 187.156L74.7985 187.624C74.8945 187.904 75.0505 188.108 75.2665 188.236C75.4825 188.356 75.7665 188.416 76.1185 188.416C76.6625 188.416 77.2505 188.276 77.8825 187.996L78.1825 189.604C77.4385 189.932 76.6225 190.096 75.7345 190.096ZM76.5625 186.112C76.4345 185.608 76.1305 185.356 75.6505 185.356C75.3625 185.356 75.1345 185.464 74.9665 185.68C74.7985 185.896 74.7105 186.176 74.7025 186.52L76.5625 186.112ZM86.5367 190.096C85.6167 190.096 84.9647 189.692 84.5807 188.884V190H82.0367V182.092L84.5807 181.72V185.116C84.7807 184.692 85.0407 184.384 85.3607 184.192C85.6807 184 86.0687 183.904 86.5247 183.904C87.0607 183.904 87.5527 184.04 88.0007 184.312C88.4567 184.576 88.8127 184.944 89.0687 185.416C89.3327 185.888 89.4647 186.416 89.4647 187C89.4647 187.576 89.3287 188.1 89.0567 188.572C88.7927 189.044 88.4327 189.416 87.9767 189.688C87.5287 189.96 87.0487 190.096 86.5367 190.096ZM85.7687 188.2C86.0967 188.2 86.3767 188.08 86.6087 187.84C86.8407 187.6 86.9567 187.32 86.9567 187C86.9567 186.664 86.8367 186.38 86.5967 186.148C86.3647 185.916 86.0887 185.8 85.7687 185.8C85.4407 185.8 85.1607 185.916 84.9287 186.148C84.6967 186.372 84.5807 186.64 84.5807 186.952V187C84.5807 187.336 84.6967 187.62 84.9287 187.852C85.1687 188.084 85.4487 188.2 85.7687 188.2ZM93.7279 190.096C93.0639 190.096 92.4719 189.964 91.9519 189.7C91.4399 189.428 91.0399 189.06 90.7519 188.596C90.4639 188.124 90.3199 187.592 90.3199 187C90.3199 186.392 90.4679 185.852 90.7639 185.38C91.0599 184.908 91.4599 184.544 91.9639 184.288C92.4679 184.032 93.0279 183.904 93.6439 183.904C94.2359 183.904 94.7399 184.036 95.1559 184.3C95.5799 184.556 95.8959 184.908 96.1039 185.356C96.3119 185.796 96.4159 186.292 96.4159 186.844C96.4159 186.988 96.4079 187.092 96.3919 187.156L92.7919 187.624C92.8879 187.904 93.0439 188.108 93.2599 188.236C93.4759 188.356 93.7599 188.416 94.1119 188.416C94.6559 188.416 95.2439 188.276 95.8759 187.996L96.1759 189.604C95.4319 189.932 94.6159 190.096 93.7279 190.096ZM94.5559 186.112C94.4279 185.608 94.1239 185.356 93.6439 185.356C93.3559 185.356 93.1279 185.464 92.9599 185.68C92.7919 185.896 92.7039 186.176 92.6959 186.52L94.5559 186.112ZM99.6399 190.096C98.9599 190.096 98.4319 189.884 98.0559 189.46C97.6879 189.028 97.5039 188.44 97.5039 187.696V182.092L100.036 181.72V187.516C100.036 187.74 100.088 187.904 100.192 188.008C100.304 188.104 100.496 188.152 100.768 188.152C100.968 188.152 101.164 188.104 101.356 188.008L101.44 189.688C100.904 189.96 100.304 190.096 99.6399 190.096ZM104.415 190.096C103.735 190.096 103.207 189.884 102.831 189.46C102.463 189.028 102.279 188.44 102.279 187.696V182.092L104.811 181.72V187.516C104.811 187.74 104.863 187.904 104.967 188.008C105.079 188.104 105.271 188.152 105.543 188.152C105.743 188.152 105.939 188.104 106.131 188.008L106.215 189.688C105.679 189.96 105.079 190.096 104.415 190.096ZM109.154 190.096C108.314 190.096 107.578 189.972 106.946 189.724L107.222 188.296C107.798 188.504 108.358 188.608 108.902 188.608C109.302 188.608 109.502 188.496 109.502 188.272C109.502 188.16 109.442 188.068 109.322 187.996C109.21 187.924 108.994 187.86 108.674 187.804C108.01 187.676 107.53 187.46 107.234 187.156C106.946 186.852 106.802 186.42 106.802 185.86C106.834 185.228 107.086 184.744 107.558 184.408C108.03 184.072 108.674 183.904 109.49 183.904C109.906 183.904 110.262 183.932 110.558 183.988C110.862 184.036 111.138 184.12 111.386 184.24L111.134 185.668C110.902 185.58 110.646 185.512 110.366 185.464C110.094 185.416 109.866 185.392 109.682 185.392C109.41 185.392 109.222 185.42 109.118 185.476C109.014 185.532 108.962 185.608 108.962 185.704C108.962 185.88 109.162 186.004 109.562 186.076C110.29 186.204 110.834 186.428 111.194 186.748C111.554 187.068 111.734 187.504 111.734 188.056C111.734 188.688 111.51 189.188 111.062 189.556C110.622 189.916 109.986 190.096 109.154 190.096ZM112.707 184.612C113.115 184.612 113.383 184.604 113.511 184.588C113.639 184.572 113.723 184.524 113.763 184.444C113.803 184.364 113.823 184.212 113.823 183.988H112.707V181.744H115.167V182.968C115.167 183.888 115.111 184.552 114.999 184.96C114.895 185.36 114.675 185.636 114.339 185.788C114.011 185.94 113.467 186.016 112.707 186.016V184.612ZM115.827 184.612C116.235 184.612 116.503 184.604 116.631 184.588C116.759 184.572 116.843 184.524 116.883 184.444C116.923 184.364 116.943 184.212 116.943 183.988H115.827V181.744H118.287V182.968C118.287 183.888 118.231 184.552 118.119 184.96C118.015 185.36 117.795 185.636 117.459 185.788C117.131 185.94 116.587 186.016 115.827 186.016V184.612Z" fill="#393A32"/>
<rect x="46" y="59.9014" width="65.45" height="0.897773" fill="#082D74"/>
<rect x="57.7808" y="59" width="13.9627" height="3.1422" fill="#3F8D43"/>
<rect x="71.7454" y="59" width="13.9627" height="3.1422" fill="white"/>
<rect x="85.7046" y="59" width="13.9627" height="3.1422" fill="#D12C29"/>
<path d="M69.3768 95.0453L74.4855 96.998L80.3549 102.674L94.7842 111.03C100.461 109.758 102.652 110.735 103.628 111.87C104.604 113.005 104.184 113.879 105.308 114.901C107.284 116.695 109.724 114.981 111.45 116.457C113.176 117.932 111.371 120.839 113.187 122.984C115.003 125.13 118.307 123.473 121.134 125.482C122.485 126.447 124.018 128.468 124.245 133.293C122.879 132.085 121.092 131.465 119.272 131.567C114.731 132.169 114.845 138.878 110.474 140.751C106.988 142.261 100.461 138.401 87.5185 130.625C81.7059 127.128 77.7324 124.483 74.3153 126.084C71.4998 127.355 70.9094 130.625 68.5821 130.489C66.2548 130.352 65.5396 126.56 62.077 126.084C60.5898 125.879 60.3287 126.526 59.2048 126.084C57.0137 125.221 57.4678 122.542 55.1859 121.304C54.5246 120.948 53.7854 120.762 53.0346 120.762C52.2837 120.762 51.5445 120.948 50.8832 121.304C49.0214 122.439 49.8615 124.824 48.3856 125.982C46.3989 127.548 41.7556 125.754 38.9288 123.268C33.593 118.568 33.9563 110.78 34.0358 108.918C34.5239 98.2808 42.3573 88.8467 45.6723 89.7776C47.625 90.3339 46.6941 94.1257 50.0204 96.4076C53.3468 98.6895 58.9437 97.9743 60.0222 95.7605C60.7942 94.1711 58.8869 92.7748 59.8065 90.6518C60.4536 89.1192 61.6229 89.3803 64.007 87.246C66.743 84.8278 66.8565 83.0114 68.287 83.0001C69.7174 82.9887 71.25 84.8278 71.2273 86.4059C71.2273 87.3027 70.6824 87.473 70.092 88.6764C69.0249 91.1854 70.3191 92.4455 69.4336 93.8533C68.2983 95.7492 65.2785 94.3982 64.1091 96.1238C62.8149 98.0424 65.8007 100.336 64.8698 103.197C63.7345 106.602 58.6939 105.944 57.5813 109.282C56.6163 112.188 59.8519 114.379 58.8869 117.115C58.1263 119.317 55.0497 120.237 52.7791 120.668" stroke="#1A1A1A" stroke-width="4" stroke-linecap="round" stroke-linejoin="round"/>
<path d="M94.7841 111.03C94.909 113.38 94.716 116.286 92.9904 117.296C90.5382 118.727 86.9734 114.89 84.6121 116.445C82.9546 117.58 83.9309 119.919 81.8079 122.791C80.8145 124.092 79.5108 125.122 78.0161 125.788" stroke="#1A1A1A" stroke-width="4" stroke-linecap="round" stroke-linejoin="round"/>
<path d="M65.8917 128.536C65.9177 127.438 66.177 126.358 66.6523 125.369C67.3148 124.009 68.3554 122.87 69.6494 122.088C67.5011 120.774 65.0798 119.971 62.5723 119.741C60.0647 119.511 57.5377 119.859 55.186 120.759" stroke="#1A1A1A" stroke-width="4" stroke-linecap="round" stroke-linejoin="round"/>
<path d="M82.2961 122.156C78.2247 120.619 73.7369 120.595 69.6492 122.088" stroke="#1A1A1A" stroke-width="4" stroke-linecap="round" stroke-linejoin="round"/>
<path d="M60.1811 94.4775C60.1132 95.1227 60.1969 95.7747 60.4256 96.3818C60.6542 96.9888 61.0214 97.5341 61.498 97.9742C62.2647 98.6067 63.2416 98.9269 64.234 98.871" stroke="#1A1A1A" stroke-width="4" stroke-linecap="round" stroke-linejoin="round"/>
</svg>
