<svg width="166" height="232" viewBox="0 0 166 232" fill="none" xmlns="http://www.w3.org/2000/svg">
<rect x="4" y="4" width="158" height="224" rx="5" fill="#FFF8F8" stroke="#F7575C" stroke-width="7"/>
<path d="M45.0663 25.652C45.1863 24.956 45.4343 24.348 45.8103 23.828C46.1863 23.308 46.6503 22.908 47.2023 22.628C47.7623 22.348 48.3703 22.208 49.0263 22.208C49.8663 22.208 50.5303 22.428 51.0183 22.868C51.5063 23.308 51.7663 23.928 51.7983 24.728H49.6143C49.5263 24.216 49.2143 23.96 48.6783 23.96C48.3023 23.96 47.9783 24.108 47.7063 24.404C47.4343 24.692 47.2503 25.108 47.1543 25.652C47.1223 25.82 47.1063 25.996 47.1063 26.18C47.1063 26.556 47.1943 26.844 47.3703 27.044C47.5463 27.244 47.7863 27.344 48.0903 27.344C48.6183 27.344 49.0143 27.088 49.2783 26.576H51.4743C51.1623 27.36 50.6823 27.976 50.0343 28.424C49.3863 28.872 48.6463 29.096 47.8143 29.096C46.9503 29.096 46.2623 28.86 45.7503 28.388C45.2463 27.908 44.9943 27.256 44.9943 26.432C44.9943 26.184 45.0183 25.924 45.0663 25.652ZM52.5719 25.64C52.6919 24.952 52.9279 24.348 53.2799 23.828C53.6319 23.308 54.0559 22.908 54.5519 22.628C55.0479 22.348 55.5719 22.208 56.1239 22.208C56.5959 22.208 56.9919 22.304 57.3119 22.496C57.6319 22.688 57.8639 22.94 58.0079 23.252L58.1759 22.304H60.2279L59.0399 29H56.9879L57.1679 28.052C56.9119 28.364 56.5879 28.616 56.1959 28.808C55.8039 29 55.3719 29.096 54.8999 29.096C54.4279 29.096 54.0079 28.988 53.6399 28.772C53.2799 28.556 52.9999 28.252 52.7999 27.86C52.5999 27.46 52.4999 26.992 52.4999 26.456C52.4999 26.2 52.5239 25.928 52.5719 25.64ZM57.5879 25.652C57.6119 25.508 57.6239 25.376 57.6239 25.256C57.6239 24.864 57.5079 24.556 57.2759 24.332C57.0519 24.108 56.7639 23.996 56.4119 23.996C56.0039 23.996 55.6319 24.144 55.2959 24.44C54.9599 24.728 54.7479 25.128 54.6599 25.64C54.6359 25.784 54.6239 25.916 54.6239 26.036C54.6239 26.428 54.7359 26.74 54.9599 26.972C55.1919 27.196 55.4799 27.308 55.8239 27.308C56.2319 27.308 56.6039 27.16 56.9399 26.864C57.2759 26.568 57.4919 26.164 57.5879 25.652ZM70.5084 22.232C71.2284 22.232 71.7884 22.424 72.1884 22.808C72.5964 23.184 72.8004 23.712 72.8004 24.392C72.8004 24.6 72.7764 24.832 72.7284 25.088L72.0324 29H69.9924L70.6404 25.364C70.6564 25.284 70.6644 25.176 70.6644 25.04C70.6644 24.704 70.5684 24.448 70.3764 24.272C70.1924 24.096 69.9324 24.008 69.5964 24.008C69.1964 24.008 68.8604 24.128 68.5884 24.368C68.3164 24.6 68.1444 24.932 68.0724 25.364L67.4244 29H65.3844L66.0324 25.364C66.0484 25.284 66.0564 25.176 66.0564 25.04C66.0564 24.704 65.9604 24.448 65.7684 24.272C65.5844 24.096 65.3244 24.008 64.9884 24.008C64.5884 24.008 64.2524 24.128 63.9804 24.368C63.7084 24.6 63.5364 24.932 63.4644 25.364V25.304L62.8164 29H60.7644L61.9404 22.304H63.9924L63.8484 23.156C64.1044 22.868 64.4124 22.644 64.7724 22.484C65.1404 22.316 65.5364 22.232 65.9604 22.232C66.4724 22.232 66.9044 22.34 67.2564 22.556C67.6164 22.772 67.8724 23.084 68.0244 23.492C68.3204 23.116 68.6884 22.812 69.1284 22.58C69.5684 22.348 70.0284 22.232 70.5084 22.232ZM76.7675 23.252C77.0235 22.94 77.3435 22.688 77.7275 22.496C78.1195 22.304 78.5515 22.208 79.0235 22.208C79.7435 22.208 80.3235 22.444 80.7635 22.916C81.2115 23.388 81.4355 24.028 81.4355 24.836C81.4355 25.084 81.4115 25.352 81.3635 25.64C81.2435 26.328 81.0075 26.936 80.6555 27.464C80.3035 27.984 79.8795 28.388 79.3835 28.676C78.8875 28.956 78.3635 29.096 77.8115 29.096C77.3475 29.096 76.9555 29 76.6355 28.808C76.3155 28.616 76.0795 28.368 75.9275 28.064L75.1955 32.192H73.1435L74.8835 22.304H76.9355L76.7675 23.252ZM79.2875 25.64C79.3115 25.504 79.3235 25.38 79.3235 25.268C79.3235 24.868 79.2075 24.556 78.9755 24.332C78.7515 24.108 78.4635 23.996 78.1115 23.996C77.7035 23.996 77.3315 24.144 76.9955 24.44C76.6595 24.736 76.4435 25.14 76.3475 25.652C76.3235 25.796 76.3115 25.928 76.3115 26.048C76.3115 26.44 76.4235 26.748 76.6475 26.972C76.8715 27.196 77.1595 27.308 77.5115 27.308C77.9195 27.308 78.2915 27.16 78.6275 26.864C78.9715 26.56 79.1915 26.152 79.2875 25.64ZM82.2841 25.64C82.4041 24.952 82.6401 24.348 82.9921 23.828C83.3441 23.308 83.7681 22.908 84.2641 22.628C84.7601 22.348 85.2841 22.208 85.8361 22.208C86.3081 22.208 86.7041 22.304 87.0241 22.496C87.3441 22.688 87.5761 22.94 87.7201 23.252L87.8881 22.304H89.9401L88.7521 29H86.7001L86.8801 28.052C86.6241 28.364 86.3001 28.616 85.9081 28.808C85.5161 29 85.0841 29.096 84.6121 29.096C84.1401 29.096 83.7201 28.988 83.3521 28.772C82.9921 28.556 82.7121 28.252 82.5121 27.86C82.3121 27.46 82.2121 26.992 82.2121 26.456C82.2121 26.2 82.2361 25.928 82.2841 25.64ZM87.3001 25.652C87.3241 25.508 87.3361 25.376 87.3361 25.256C87.3361 24.864 87.2201 24.556 86.9881 24.332C86.7641 24.108 86.4761 23.996 86.1241 23.996C85.7161 23.996 85.3441 24.144 85.0081 24.44C84.6721 24.728 84.4601 25.128 84.3721 25.64C84.3481 25.784 84.3361 25.916 84.3361 26.036C84.3361 26.428 84.4481 26.74 84.6721 26.972C84.9041 27.196 85.1921 27.308 85.5361 27.308C85.9441 27.308 86.3161 27.16 86.6521 26.864C86.9881 26.568 87.2041 26.164 87.3001 25.652ZM95.7446 22.232C96.4166 22.232 96.9446 22.42 97.3286 22.796C97.7126 23.172 97.9046 23.696 97.9046 24.368C97.9046 24.592 97.8806 24.832 97.8326 25.088L97.1366 29H95.0966L95.7446 25.364C95.7686 25.228 95.7806 25.108 95.7806 25.004C95.7806 24.668 95.6846 24.408 95.4926 24.224C95.3086 24.04 95.0486 23.948 94.7126 23.948C94.3126 23.948 93.9766 24.072 93.7046 24.32C93.4326 24.568 93.2566 24.916 93.1766 25.364V25.304L92.5286 29H90.4766L91.6526 22.304H93.7046L93.5486 23.204C93.8126 22.908 94.1326 22.672 94.5086 22.496C94.8926 22.32 95.3046 22.232 95.7446 22.232ZM102.979 22.208C103.843 22.208 104.527 22.444 105.031 22.916C105.543 23.38 105.799 24.016 105.799 24.824C105.799 25.088 105.779 25.324 105.739 25.532C105.707 25.716 105.659 25.912 105.595 26.12H100.951C100.943 26.168 100.939 26.244 100.939 26.348C100.939 26.7 101.035 26.968 101.227 27.152C101.419 27.336 101.675 27.428 101.995 27.428C102.507 27.428 102.899 27.212 103.171 26.78H105.355C105.067 27.46 104.599 28.016 103.951 28.448C103.303 28.88 102.575 29.096 101.767 29.096C100.903 29.096 100.211 28.856 99.6905 28.376C99.1785 27.896 98.9225 27.244 98.9225 26.42C98.9225 26.172 98.9465 25.916 98.9945 25.652C99.1145 24.956 99.3625 24.348 99.7385 23.828C100.115 23.308 100.583 22.908 101.143 22.628C101.703 22.348 102.315 22.208 102.979 22.208ZM103.723 25.076C103.739 24.964 103.747 24.888 103.747 24.848C103.747 24.528 103.647 24.284 103.447 24.116C103.247 23.94 102.983 23.852 102.655 23.852C102.303 23.852 101.991 23.96 101.719 24.176C101.455 24.384 101.263 24.684 101.143 25.076H103.723ZM110.061 20.12L108.489 29H106.437L108.009 20.12H110.061ZM113.84 20.12L112.268 29H110.216L111.788 20.12H113.84ZM118.171 22.208C119.035 22.208 119.719 22.444 120.223 22.916C120.735 23.38 120.991 24.016 120.991 24.824C120.991 25.088 120.971 25.324 120.931 25.532C120.899 25.716 120.851 25.912 120.787 26.12H116.143C116.135 26.168 116.131 26.244 116.131 26.348C116.131 26.7 116.227 26.968 116.419 27.152C116.611 27.336 116.867 27.428 117.187 27.428C117.699 27.428 118.091 27.212 118.363 26.78H120.547C120.259 27.46 119.791 28.016 119.143 28.448C118.495 28.88 117.767 29.096 116.959 29.096C116.095 29.096 115.403 28.856 114.883 28.376C114.371 27.896 114.115 27.244 114.115 26.42C114.115 26.172 114.139 25.916 114.187 25.652C114.307 24.956 114.555 24.348 114.931 23.828C115.307 23.308 115.775 22.908 116.335 22.628C116.895 22.348 117.507 22.208 118.171 22.208ZM118.915 25.076C118.931 24.964 118.939 24.888 118.939 24.848C118.939 24.528 118.839 24.284 118.639 24.116C118.439 23.94 118.175 23.852 117.847 23.852C117.495 23.852 117.183 23.96 116.911 24.176C116.647 24.384 116.455 24.684 116.335 25.076H118.915Z" fill="#3CAA90"/>
<path d="M47.1972 44.792H45.0972L46.4412 41.576H47.8212L47.1972 44.792ZM49.9212 44.792H47.8332L49.1772 41.576H50.5452L49.9212 44.792ZM54.1694 41.12V50H52.1174V41.12H54.1694ZM56.9284 42.608C56.5684 42.608 56.2724 42.504 56.0404 42.296C55.8164 42.08 55.7044 41.816 55.7044 41.504C55.7044 41.184 55.8164 40.92 56.0404 40.712C56.2724 40.496 56.5684 40.388 56.9284 40.388C57.2804 40.388 57.5684 40.496 57.7924 40.712C58.0244 40.92 58.1404 41.184 58.1404 41.504C58.1404 41.816 58.0244 42.08 57.7924 42.296C57.5684 42.504 57.2804 42.608 56.9284 42.608ZM57.9484 43.304V50H55.8964V43.304H57.9484ZM63.4075 48.26V50H62.3635C61.6195 50 61.0395 49.82 60.6235 49.46C60.2075 49.092 59.9995 48.496 59.9995 47.672V45.008H59.1835V43.304H59.9995V41.672H62.0515V43.304H63.3955V45.008H62.0515V47.696C62.0515 47.896 62.0995 48.04 62.1955 48.128C62.2915 48.216 62.4515 48.26 62.6755 48.26H63.4075ZM68.5225 48.26V50H67.4785C66.7345 50 66.1545 49.82 65.7385 49.46C65.3225 49.092 65.1145 48.496 65.1145 47.672V45.008H64.2985V43.304H65.1145V41.672H67.1665V43.304H68.5105V45.008H67.1665V47.696C67.1665 47.896 67.2145 48.04 67.3105 48.128C67.4065 48.216 67.5665 48.26 67.7905 48.26H68.5225ZM71.9575 41.12V50H69.9055V41.12H71.9575ZM79.9965 46.544C79.9965 46.736 79.9845 46.936 79.9605 47.144H75.3165C75.3485 47.56 75.4805 47.88 75.7125 48.104C75.9525 48.32 76.2445 48.428 76.5885 48.428C77.1005 48.428 77.4565 48.212 77.6565 47.78H79.8405C79.7285 48.22 79.5245 48.616 79.2285 48.968C78.9405 49.32 78.5765 49.596 78.1365 49.796C77.6965 49.996 77.2045 50.096 76.6605 50.096C76.0045 50.096 75.4205 49.956 74.9085 49.676C74.3965 49.396 73.9965 48.996 73.7085 48.476C73.4205 47.956 73.2765 47.348 73.2765 46.652C73.2765 45.956 73.4165 45.348 73.6965 44.828C73.9845 44.308 74.3845 43.908 74.8965 43.628C75.4085 43.348 75.9965 43.208 76.6605 43.208C77.3085 43.208 77.8845 43.344 78.3885 43.616C78.8925 43.888 79.2845 44.276 79.5645 44.78C79.8525 45.284 79.9965 45.872 79.9965 46.544ZM77.8965 46.004C77.8965 45.652 77.7765 45.372 77.5365 45.164C77.2965 44.956 76.9965 44.852 76.6365 44.852C76.2925 44.852 76.0005 44.952 75.7605 45.152C75.5285 45.352 75.3845 45.636 75.3285 46.004H77.8965ZM86.154 44.252C86.346 43.94 86.622 43.688 86.982 43.496C87.342 43.304 87.754 43.208 88.218 43.208C88.77 43.208 89.27 43.348 89.718 43.628C90.166 43.908 90.518 44.308 90.774 44.828C91.038 45.348 91.17 45.952 91.17 46.64C91.17 47.328 91.038 47.936 90.774 48.464C90.518 48.984 90.166 49.388 89.718 49.676C89.27 49.956 88.77 50.096 88.218 50.096C87.746 50.096 87.334 50.004 86.982 49.82C86.63 49.628 86.354 49.376 86.154 49.064V50H84.102V41.12H86.154V44.252ZM89.082 46.64C89.082 46.128 88.938 45.728 88.65 45.44C88.37 45.144 88.022 44.996 87.606 44.996C87.198 44.996 86.85 45.144 86.562 45.44C86.282 45.736 86.142 46.14 86.142 46.652C86.142 47.164 86.282 47.568 86.562 47.864C86.85 48.16 87.198 48.308 87.606 48.308C88.014 48.308 88.362 48.16 88.65 47.864C88.938 47.56 89.082 47.152 89.082 46.64ZM98.7986 46.544C98.7986 46.736 98.7866 46.936 98.7626 47.144H94.1186C94.1506 47.56 94.2826 47.88 94.5146 48.104C94.7546 48.32 95.0466 48.428 95.3906 48.428C95.9026 48.428 96.2586 48.212 96.4586 47.78H98.6426C98.5306 48.22 98.3266 48.616 98.0306 48.968C97.7426 49.32 97.3786 49.596 96.9386 49.796C96.4986 49.996 96.0066 50.096 95.4626 50.096C94.8066 50.096 94.2226 49.956 93.7106 49.676C93.1986 49.396 92.7986 48.996 92.5106 48.476C92.2226 47.956 92.0786 47.348 92.0786 46.652C92.0786 45.956 92.2186 45.348 92.4986 44.828C92.7866 44.308 93.1866 43.908 93.6986 43.628C94.2106 43.348 94.7986 43.208 95.4626 43.208C96.1106 43.208 96.6866 43.344 97.1906 43.616C97.6946 43.888 98.0866 44.276 98.3666 44.78C98.6546 45.284 98.7986 45.872 98.7986 46.544ZM96.6986 46.004C96.6986 45.652 96.5786 45.372 96.3386 45.164C96.0986 44.956 95.7986 44.852 95.4386 44.852C95.0946 44.852 94.8026 44.952 94.5626 45.152C94.3306 45.352 94.1866 45.636 94.1306 46.004H96.6986ZM102.173 41.12V50H100.121V41.12H102.173ZM105.952 41.12V50H103.9V41.12H105.952ZM110.403 50.096C109.819 50.096 109.299 49.996 108.843 49.796C108.387 49.596 108.027 49.324 107.763 48.98C107.499 48.628 107.351 48.236 107.319 47.804H109.347C109.371 48.036 109.479 48.224 109.671 48.368C109.863 48.512 110.099 48.584 110.379 48.584C110.635 48.584 110.831 48.536 110.967 48.44C111.111 48.336 111.183 48.204 111.183 48.044C111.183 47.852 111.083 47.712 110.883 47.624C110.683 47.528 110.359 47.424 109.911 47.312C109.431 47.2 109.031 47.084 108.711 46.964C108.391 46.836 108.115 46.64 107.883 46.376C107.651 46.104 107.535 45.74 107.535 45.284C107.535 44.9 107.639 44.552 107.847 44.24C108.063 43.92 108.375 43.668 108.783 43.484C109.199 43.3 109.691 43.208 110.259 43.208C111.099 43.208 111.759 43.416 112.239 43.832C112.727 44.248 113.007 44.8 113.079 45.488H111.183C111.151 45.256 111.047 45.072 110.871 44.936C110.703 44.8 110.479 44.732 110.199 44.732C109.959 44.732 109.775 44.78 109.647 44.876C109.519 44.964 109.455 45.088 109.455 45.248C109.455 45.44 109.555 45.584 109.755 45.68C109.963 45.776 110.283 45.872 110.715 45.968C111.211 46.096 111.615 46.224 111.927 46.352C112.239 46.472 112.511 46.672 112.743 46.952C112.983 47.224 113.107 47.592 113.115 48.056C113.115 48.448 113.003 48.8 112.779 49.112C112.563 49.416 112.247 49.656 111.831 49.832C111.423 50.008 110.947 50.096 110.403 50.096ZM115.079 41.576H117.179L115.835 44.792H114.455L115.079 41.576ZM117.803 41.576H119.903L118.559 44.792H117.179L117.803 41.576Z" fill="#393A32"/>
<rect x="22" y="169" width="121" height="40" rx="2" fill="#3CAA90" fill-opacity="0.1"/>
<path d="M28.7919 189.536C28.7919 188.608 28.9786 187.797 29.3519 187.104C29.7359 186.411 30.2639 185.877 30.9359 185.504C31.6186 185.131 32.3973 184.944 33.2719 184.944C34.3919 184.944 35.3253 185.237 36.0719 185.824C36.8293 186.411 37.3253 187.237 37.5599 188.304H34.6479C34.4026 187.621 33.9279 187.28 33.2239 187.28C32.7226 187.28 32.3226 187.477 32.0239 187.872C31.7253 188.256 31.5759 188.811 31.5759 189.536C31.5759 190.261 31.7253 190.821 32.0239 191.216C32.3226 191.6 32.7226 191.792 33.2239 191.792C33.9279 191.792 34.4026 191.451 34.6479 190.768H37.5599C37.3253 191.813 36.8293 192.635 36.0719 193.232C35.3146 193.829 34.3813 194.128 33.2719 194.128C32.3973 194.128 31.6186 193.941 30.9359 193.568C30.2639 193.195 29.7359 192.661 29.3519 191.968C28.9786 191.275 28.7919 190.464 28.7919 189.536ZM39.4394 189.52C39.4394 188.603 39.6101 187.797 39.9514 187.104C40.3034 186.411 40.7781 185.877 41.3754 185.504C41.9728 185.131 42.6394 184.944 43.3754 184.944C44.0048 184.944 44.5541 185.072 45.0234 185.328C45.5034 185.584 45.8714 185.92 46.1274 186.336V185.072H48.8634V194H46.1274V192.736C45.8608 193.152 45.4874 193.488 45.0074 193.744C44.5381 194 43.9888 194.128 43.3594 194.128C42.6341 194.128 41.9728 193.941 41.3754 193.568C40.7781 193.184 40.3034 192.645 39.9514 191.952C39.6101 191.248 39.4394 190.437 39.4394 189.52ZM46.1274 189.536C46.1274 188.853 45.9354 188.315 45.5514 187.92C45.1781 187.525 44.7194 187.328 44.1754 187.328C43.6314 187.328 43.1674 187.525 42.7834 187.92C42.4101 188.304 42.2234 188.837 42.2234 189.52C42.2234 190.203 42.4101 190.747 42.7834 191.152C43.1674 191.547 43.6314 191.744 44.1754 191.744C44.7194 191.744 45.1781 191.547 45.5514 191.152C45.9354 190.757 46.1274 190.219 46.1274 189.536ZM63.1948 184.976C64.3041 184.976 65.1841 185.312 65.8348 185.984C66.4961 186.656 66.8268 187.589 66.8268 188.784V194H64.1068V189.152C64.1068 188.576 63.9521 188.133 63.6428 187.824C63.3441 187.504 62.9281 187.344 62.3948 187.344C61.8615 187.344 61.4401 187.504 61.1308 187.824C60.8321 188.133 60.6828 188.576 60.6828 189.152V194H57.9628V189.152C57.9628 188.576 57.8081 188.133 57.4988 187.824C57.2001 187.504 56.7841 187.344 56.2508 187.344C55.7175 187.344 55.2961 187.504 54.9868 187.824C54.6881 188.133 54.5388 188.576 54.5388 189.152V194H51.8028V185.072H54.5388V186.192C54.8161 185.819 55.1788 185.525 55.6268 185.312C56.0748 185.088 56.5815 184.976 57.1468 184.976C57.8188 184.976 58.4161 185.12 58.9388 185.408C59.4721 185.696 59.8881 186.107 60.1868 186.64C60.4961 186.149 60.9175 185.749 61.4508 185.44C61.9841 185.131 62.5655 184.976 63.1948 184.976ZM72.4363 186.336C72.703 185.92 73.071 185.584 73.5403 185.328C74.0096 185.072 74.559 184.944 75.1883 184.944C75.9243 184.944 76.591 185.131 77.1883 185.504C77.7856 185.877 78.255 186.411 78.5963 187.104C78.9483 187.797 79.1243 188.603 79.1243 189.52C79.1243 190.437 78.9483 191.248 78.5963 191.952C78.255 192.645 77.7856 193.184 77.1883 193.568C76.591 193.941 75.9243 194.128 75.1883 194.128C74.5696 194.128 74.0203 194 73.5403 193.744C73.071 193.488 72.703 193.157 72.4363 192.752V198.256H69.7003V185.072H72.4363V186.336ZM76.3403 189.52C76.3403 188.837 76.1483 188.304 75.7643 187.92C75.391 187.525 74.927 187.328 74.3723 187.328C73.8283 187.328 73.3643 187.525 72.9803 187.92C72.607 188.315 72.4203 188.853 72.4203 189.536C72.4203 190.219 72.607 190.757 72.9803 191.152C73.3643 191.547 73.8283 191.744 74.3723 191.744C74.9163 191.744 75.3803 191.547 75.7643 191.152C76.1483 190.747 76.3403 190.203 76.3403 189.52ZM80.9757 189.52C80.9757 188.603 81.1463 187.797 81.4877 187.104C81.8397 186.411 82.3143 185.877 82.9117 185.504C83.509 185.131 84.1757 184.944 84.9117 184.944C85.541 184.944 86.0903 185.072 86.5597 185.328C87.0397 185.584 87.4077 185.92 87.6637 186.336V185.072H90.3997V194H87.6637V192.736C87.397 193.152 87.0237 193.488 86.5437 193.744C86.0743 194 85.525 194.128 84.8957 194.128C84.1703 194.128 83.509 193.941 82.9117 193.568C82.3143 193.184 81.8397 192.645 81.4877 191.952C81.1463 191.248 80.9757 190.437 80.9757 189.52ZM87.6637 189.536C87.6637 188.853 87.4717 188.315 87.0877 187.92C86.7143 187.525 86.2557 187.328 85.7117 187.328C85.1677 187.328 84.7037 187.525 84.3197 187.92C83.9463 188.304 83.7597 188.837 83.7597 189.52C83.7597 190.203 83.9463 190.747 84.3197 191.152C84.7037 191.547 85.1677 191.744 85.7117 191.744C86.2557 191.744 86.7143 191.547 87.0877 191.152C87.4717 190.757 87.6637 190.219 87.6637 189.536ZM98.779 184.976C99.8244 184.976 100.656 185.317 101.275 186C101.904 186.672 102.219 187.6 102.219 188.784V194H99.499V189.152C99.499 188.555 99.3444 188.091 99.035 187.76C98.7257 187.429 98.3097 187.264 97.787 187.264C97.2644 187.264 96.8484 187.429 96.539 187.76C96.2297 188.091 96.075 188.555 96.075 189.152V194H93.339V185.072H96.075V186.256C96.3524 185.861 96.7257 185.552 97.195 185.328C97.6644 185.093 98.1924 184.976 98.779 184.976ZM113.496 189.392C113.496 189.648 113.48 189.915 113.448 190.192H107.256C107.299 190.747 107.475 191.173 107.784 191.472C108.104 191.76 108.494 191.904 108.952 191.904C109.635 191.904 110.11 191.616 110.376 191.04H113.288C113.139 191.627 112.867 192.155 112.472 192.624C112.088 193.093 111.603 193.461 111.016 193.728C110.43 193.995 109.774 194.128 109.048 194.128C108.174 194.128 107.395 193.941 106.712 193.568C106.03 193.195 105.496 192.661 105.112 191.968C104.728 191.275 104.536 190.464 104.536 189.536C104.536 188.608 104.723 187.797 105.096 187.104C105.48 186.411 106.014 185.877 106.696 185.504C107.379 185.131 108.163 184.944 109.048 184.944C109.912 184.944 110.68 185.125 111.352 185.488C112.024 185.851 112.547 186.368 112.92 187.04C113.304 187.712 113.496 188.496 113.496 189.392ZM110.696 188.672C110.696 188.203 110.536 187.829 110.216 187.552C109.896 187.275 109.496 187.136 109.016 187.136C108.558 187.136 108.168 187.269 107.848 187.536C107.539 187.803 107.347 188.181 107.272 188.672H110.696ZM118.636 182.16V194H115.9V182.16H118.636ZM124.314 182.16V194H121.578V182.16H124.314ZM135.673 189.392C135.673 189.648 135.657 189.915 135.625 190.192H129.433C129.476 190.747 129.652 191.173 129.961 191.472C130.281 191.76 130.671 191.904 131.129 191.904C131.812 191.904 132.287 191.616 132.553 191.04H135.465C135.316 191.627 135.044 192.155 134.649 192.624C134.265 193.093 133.78 193.461 133.193 193.728C132.607 193.995 131.951 194.128 131.225 194.128C130.351 194.128 129.572 193.941 128.889 193.568C128.207 193.195 127.673 192.661 127.289 191.968C126.905 191.275 126.713 190.464 126.713 189.536C126.713 188.608 126.9 187.797 127.273 187.104C127.657 186.411 128.191 185.877 128.873 185.504C129.556 185.131 130.34 184.944 131.225 184.944C132.089 184.944 132.857 185.125 133.529 185.488C134.201 185.851 134.724 186.368 135.097 187.04C135.481 187.712 135.673 188.496 135.673 189.392ZM132.873 188.672C132.873 188.203 132.713 187.829 132.393 187.552C132.073 187.275 131.673 187.136 131.193 187.136C130.735 187.136 130.345 187.269 130.025 187.536C129.716 187.803 129.524 188.181 129.449 188.672H132.873Z" fill="#393A32"/>
<path d="M72.2502 90.7046L78.0626 92.9263L84.7405 99.3846L101.158 108.891C107.616 107.445 110.109 108.555 111.22 109.847C112.33 111.139 111.853 112.133 113.131 113.296C115.379 115.337 118.156 113.386 120.119 115.065C122.083 116.745 120.029 120.051 122.095 122.492C124.162 124.934 127.921 123.048 131.137 125.334C132.674 126.432 134.418 128.731 134.676 134.221C133.122 132.847 131.089 132.142 129.019 132.257C123.852 132.942 123.981 140.576 119.008 142.707C115.043 144.425 107.616 140.033 92.8909 131.185C86.2776 127.207 81.7568 124.197 77.8689 126.019C74.6656 127.465 73.9939 131.185 71.346 131.03C68.6981 130.875 67.8843 126.561 63.9448 126.019C62.2527 125.786 61.9556 126.522 60.6769 126.019C58.1839 125.037 58.7006 121.989 56.1044 120.581C55.352 120.176 54.511 119.964 53.6567 119.964C52.8023 119.964 51.9613 120.176 51.209 120.581C49.0906 121.872 50.0465 124.585 48.3673 125.902C46.1069 127.685 40.824 125.644 37.6077 122.815C31.5369 117.468 31.9503 108.607 32.0407 106.489C32.5961 94.3859 41.5086 83.6521 45.2802 84.7113C47.5019 85.3442 46.4427 89.6584 50.2273 92.2546C54.0119 94.8509 60.3798 94.0371 61.6069 91.5184C62.4852 89.71 60.3152 88.1213 61.3614 85.7059C62.0977 83.9621 63.4281 84.2592 66.1406 81.8309C69.2535 79.0796 69.3827 77.013 71.0102 77.0001C72.6377 76.9871 74.3814 79.0796 74.3556 80.8751C74.3556 81.8955 73.7356 82.0892 73.0639 83.4584C71.8497 86.313 73.3222 87.7467 72.3147 89.3484C71.0231 91.5054 67.5873 89.9684 66.2568 91.9317C64.7843 94.1146 68.1814 96.7238 67.1223 99.9788C65.8306 103.854 60.0956 103.105 58.8298 106.902C57.7319 110.209 61.4131 112.702 60.3152 115.815C59.4498 118.32 55.9494 119.367 53.366 119.857" stroke="#393A32" stroke-width="4" stroke-linecap="round" stroke-linejoin="round"/>
<path d="M101.158 108.891C101.3 111.565 101.08 114.871 99.1168 116.021C96.3268 117.648 92.2709 113.283 89.5843 115.052C87.6984 116.344 88.8093 119.005 86.3939 122.273C85.2635 123.752 83.7803 124.925 82.0797 125.683" stroke="#393A32" stroke-width="4" stroke-linecap="round" stroke-linejoin="round"/>
<path d="M68.2848 128.809C68.3144 127.56 68.6094 126.331 69.1502 125.205C69.9039 123.659 71.0879 122.362 72.5602 121.472C70.1159 119.978 67.3611 119.064 64.5081 118.802C61.6551 118.54 58.78 118.937 56.1044 119.961" stroke="#393A32" stroke-width="4" stroke-linecap="round" stroke-linejoin="round"/>
<path d="M86.9493 121.55C82.3171 119.801 77.211 119.774 72.5602 121.472" stroke="#393A32" stroke-width="4" stroke-linecap="round" stroke-linejoin="round"/>
<path d="M61.7877 90.0587C61.7105 90.7927 61.8058 91.5346 62.0659 92.2253C62.326 92.9159 62.7438 93.5363 63.286 94.037C64.1584 94.7566 65.2699 95.121 66.399 95.0575" stroke="#393A32" stroke-width="4" stroke-linecap="round" stroke-linejoin="round"/>
</svg>
