<svg width="158" height="224" viewBox="0 0 158 224" fill="none" xmlns="http://www.w3.org/2000/svg">
<rect width="158" height="224" rx="5" fill="#FFD300"/>
<mask id="path-2-inside-1" fill="white">
<rect x="9" y="9" width="140" height="207" rx="2"/>
</mask>
<rect x="9" y="9" width="140" height="207" rx="2" fill="white" stroke="#2179B9" stroke-width="14" mask="url(#path-2-inside-1)"/>
<path d="M46.6813 172.096C46.0413 172.096 45.4733 171.968 44.9773 171.712C44.4893 171.448 44.1053 171.08 43.8253 170.608C43.5533 170.136 43.4173 169.6 43.4173 169C43.4173 168.424 43.5613 167.9 43.8493 167.428C44.1373 166.956 44.5293 166.584 45.0253 166.312C45.5213 166.04 46.0733 165.904 46.6813 165.904C47.4573 165.904 48.0693 166.064 48.5173 166.384L48.2893 167.98C47.8333 167.844 47.4573 167.776 47.1613 167.776C46.7773 167.776 46.4733 167.888 46.2493 168.112C46.0253 168.328 45.9133 168.624 45.9133 169C45.9133 169.376 46.0253 169.676 46.2493 169.9C46.4733 170.124 46.7693 170.236 47.1373 170.236C47.4573 170.236 47.8333 170.168 48.2653 170.032L48.4933 171.712C48.2213 171.848 47.9453 171.944 47.6653 172C47.3853 172.064 47.0573 172.096 46.6813 172.096ZM52.1991 172.096C51.6791 172.096 51.1911 171.96 50.7351 171.688C50.2871 171.408 49.9271 171.032 49.6551 170.56C49.3831 170.08 49.2471 169.548 49.2471 168.964C49.2471 168.388 49.3831 167.868 49.6551 167.404C49.9271 166.932 50.2911 166.564 50.7471 166.3C51.2031 166.036 51.6871 165.904 52.1991 165.904C52.6151 165.904 52.9991 166.02 53.3511 166.252C53.7111 166.484 53.9831 166.832 54.1671 167.296V165.904H56.6871V172H54.1671V170.884C53.7671 171.692 53.1111 172.096 52.1991 172.096ZM52.9791 170.2C53.2991 170.2 53.5711 170.088 53.7951 169.864C54.0271 169.632 54.1511 169.36 54.1671 169.048V168.952C54.1511 168.632 54.0231 168.36 53.7831 168.136C53.5511 167.912 53.2831 167.8 52.9791 167.8C52.6431 167.8 52.3551 167.92 52.1151 168.16C51.8831 168.392 51.7671 168.672 51.7671 169C51.7671 169.336 51.8871 169.62 52.1271 169.852C52.3671 170.084 52.6511 170.2 52.9791 170.2ZM58.1426 166.072H60.5546V167.296C60.8266 166.824 61.1346 166.476 61.4786 166.252C61.8306 166.02 62.2466 165.904 62.7266 165.904C63.1986 165.904 63.6066 166.024 63.9506 166.264C64.3026 166.496 64.5666 166.812 64.7426 167.212C65.2546 166.34 65.9986 165.904 66.9746 165.904C67.4386 165.904 67.8426 166.028 68.1866 166.276C68.5386 166.524 68.8106 166.884 69.0026 167.356C69.1946 167.82 69.2906 168.368 69.2906 169V172H66.7586V169C66.7586 168.592 66.6866 168.284 66.5426 168.076C66.4066 167.868 66.2146 167.764 65.9666 167.764C65.6946 167.764 65.4586 167.88 65.2586 168.112C65.0666 168.344 64.9706 168.624 64.9706 168.952V172H62.4626V169C62.4626 168.592 62.3906 168.284 62.2466 168.076C62.1106 167.868 61.9146 167.764 61.6586 167.764C61.3866 167.764 61.1546 167.88 60.9626 168.112C60.7706 168.344 60.6746 168.624 60.6746 168.952V172H58.1426V166.072ZM70.699 166.072H73.231V167.116C73.615 166.308 74.267 165.904 75.187 165.904C75.723 165.904 76.215 166.04 76.663 166.312C77.119 166.576 77.475 166.944 77.731 167.416C77.995 167.888 78.127 168.416 78.127 169C78.127 169.584 77.991 170.112 77.719 170.584C77.455 171.056 77.095 171.428 76.639 171.7C76.191 171.964 75.711 172.096 75.199 172.096C74.287 172.096 73.631 171.692 73.231 170.884V173.56L70.699 174.04V166.072ZM74.431 170.2C74.759 170.2 75.039 170.08 75.271 169.84C75.503 169.6 75.619 169.32 75.619 169C75.619 168.664 75.499 168.38 75.259 168.148C75.027 167.916 74.751 167.8 74.431 167.8C74.103 167.8 73.823 167.916 73.591 168.148C73.359 168.372 73.243 168.64 73.243 168.952V169C73.243 169.336 73.359 169.62 73.591 169.852C73.831 170.084 74.111 170.2 74.431 170.2ZM81.9347 172.096C81.4147 172.096 80.9267 171.96 80.4707 171.688C80.0227 171.408 79.6627 171.032 79.3907 170.56C79.1187 170.08 78.9827 169.548 78.9827 168.964C78.9827 168.388 79.1187 167.868 79.3907 167.404C79.6627 166.932 80.0267 166.564 80.4827 166.3C80.9387 166.036 81.4227 165.904 81.9347 165.904C82.3507 165.904 82.7347 166.02 83.0867 166.252C83.4467 166.484 83.7187 166.832 83.9027 167.296V165.904H86.4227V172H83.9027V170.884C83.5027 171.692 82.8467 172.096 81.9347 172.096ZM82.7147 170.2C83.0347 170.2 83.3067 170.088 83.5307 169.864C83.7627 169.632 83.8867 169.36 83.9027 169.048V168.952C83.8867 168.632 83.7587 168.36 83.5187 168.136C83.2867 167.912 83.0187 167.8 82.7147 167.8C82.3787 167.8 82.0907 167.92 81.8507 168.16C81.6187 168.392 81.5027 168.672 81.5027 169C81.5027 169.336 81.6227 169.62 81.8627 169.852C82.1027 170.084 82.3867 170.2 82.7147 170.2ZM87.8782 166.072H90.2902V167.296C90.7542 166.368 91.4902 165.904 92.4982 165.904C93.2662 165.904 93.8662 166.18 94.2982 166.732C94.7382 167.276 94.9582 168.032 94.9582 169V172H92.4382V168.748C92.4382 168.404 92.3622 168.14 92.2102 167.956C92.0662 167.772 91.8622 167.68 91.5982 167.68C91.4062 167.68 91.2182 167.744 91.0342 167.872C90.8502 167.992 90.6982 168.168 90.5782 168.4C90.4662 168.632 90.4102 168.896 90.4102 169.192V172H87.8782V166.072ZM99.4645 172.096C98.8005 172.096 98.2085 171.964 97.6885 171.7C97.1765 171.428 96.7765 171.06 96.4885 170.596C96.2005 170.124 96.0565 169.592 96.0565 169C96.0565 168.392 96.2045 167.852 96.5005 167.38C96.7965 166.908 97.1965 166.544 97.7005 166.288C98.2045 166.032 98.7645 165.904 99.3805 165.904C99.9725 165.904 100.476 166.036 100.892 166.3C101.316 166.556 101.632 166.908 101.84 167.356C102.048 167.796 102.152 168.292 102.152 168.844C102.152 168.988 102.144 169.092 102.128 169.156L98.5285 169.624C98.6245 169.904 98.7805 170.108 98.9965 170.236C99.2125 170.356 99.4965 170.416 99.8485 170.416C100.392 170.416 100.98 170.276 101.612 169.996L101.912 171.604C101.168 171.932 100.352 172.096 99.4645 172.096ZM100.292 168.112C100.164 167.608 99.8605 167.356 99.3805 167.356C99.0925 167.356 98.8645 167.464 98.6965 167.68C98.5285 167.896 98.4405 168.176 98.4325 168.52L100.292 168.112ZM105.376 172.096C104.696 172.096 104.168 171.884 103.792 171.46C103.424 171.028 103.24 170.44 103.24 169.696V164.092L105.772 163.72V169.516C105.772 169.74 105.824 169.904 105.928 170.008C106.04 170.104 106.232 170.152 106.504 170.152C106.704 170.152 106.9 170.104 107.092 170.008L107.176 171.688C106.64 171.96 106.04 172.096 105.376 172.096ZM110.152 172.096C109.472 172.096 108.944 171.884 108.568 171.46C108.2 171.028 108.016 170.44 108.016 169.696V164.092L110.548 163.72V169.516C110.548 169.74 110.6 169.904 110.704 170.008C110.816 170.104 111.008 170.152 111.28 170.152C111.48 170.152 111.676 170.104 111.868 170.008L111.952 171.688C111.416 171.96 110.816 172.096 110.152 172.096ZM115.923 172.096C115.259 172.096 114.667 171.964 114.147 171.7C113.635 171.428 113.235 171.06 112.947 170.596C112.659 170.124 112.515 169.592 112.515 169C112.515 168.392 112.663 167.852 112.959 167.38C113.255 166.908 113.655 166.544 114.159 166.288C114.663 166.032 115.223 165.904 115.839 165.904C116.431 165.904 116.935 166.036 117.351 166.3C117.775 166.556 118.091 166.908 118.299 167.356C118.507 167.796 118.611 168.292 118.611 168.844C118.611 168.988 118.603 169.092 118.587 169.156L114.987 169.624C115.083 169.904 115.239 170.108 115.455 170.236C115.671 170.356 115.955 170.416 116.307 170.416C116.851 170.416 117.439 170.276 118.071 169.996L118.371 171.604C117.627 171.932 116.811 172.096 115.923 172.096ZM116.751 168.112C116.623 167.608 116.319 167.356 115.839 167.356C115.551 167.356 115.323 167.464 115.155 167.68C114.987 167.896 114.899 168.176 114.891 168.52L116.751 168.112Z" fill="#2179B9"/>
<path d="M41.7163 187.672C41.7163 186.752 41.7683 186.092 41.8723 185.692C41.9843 185.284 42.2043 185.004 42.5323 184.852C42.8683 184.7 43.4163 184.624 44.1763 184.624V186.028C43.7683 186.028 43.5003 186.036 43.3723 186.052C43.2443 186.068 43.1603 186.116 43.1203 186.196C43.0803 186.276 43.0603 186.428 43.0603 186.652H44.1763V188.896H41.7163V187.672ZM44.8363 187.672C44.8363 186.752 44.8883 186.092 44.9923 185.692C45.1043 185.284 45.3243 185.004 45.6523 184.852C45.9883 184.7 46.5363 184.624 47.2963 184.624V186.028C46.8883 186.028 46.6203 186.036 46.4923 186.052C46.3643 186.068 46.2803 186.116 46.2403 186.196C46.2003 186.276 46.1803 186.428 46.1803 186.652H47.2963V188.896H44.8363V187.672ZM50.7846 193.096C50.1046 193.096 49.5766 192.884 49.2006 192.46C48.8326 192.028 48.6486 191.44 48.6486 190.696V185.092L51.1806 184.72V190.516C51.1806 190.74 51.2326 190.904 51.3366 191.008C51.4486 191.104 51.6406 191.152 51.9126 191.152C52.1126 191.152 52.3086 191.104 52.5006 191.008L52.5846 192.688C52.0486 192.96 51.4486 193.096 50.7846 193.096ZM55.5597 193.096C54.8877 193.096 54.3637 192.88 53.9877 192.448C53.6117 192.016 53.4237 191.428 53.4237 190.684V186.988H55.9677V190.576C55.9677 190.76 56.0157 190.904 56.1117 191.008C56.2157 191.104 56.3477 191.152 56.5077 191.152C56.6677 191.152 56.8317 191.104 56.9997 191.008L57.1317 192.676C56.9557 192.812 56.7237 192.916 56.4357 192.988C56.1557 193.06 55.8637 193.096 55.5597 193.096ZM54.6957 186.088C54.3197 186.088 53.9997 185.972 53.7357 185.74C53.4797 185.5 53.3517 185.208 53.3517 184.864C53.3517 184.52 53.4877 184.232 53.7597 184C54.0317 183.768 54.3437 183.652 54.6957 183.652C55.0637 183.652 55.3797 183.772 55.6437 184.012C55.9157 184.252 56.0517 184.536 56.0517 184.864C56.0517 185.216 55.9157 185.508 55.6437 185.74C55.3717 185.972 55.0557 186.088 54.6957 186.088ZM60.5696 193.096C59.8656 193.096 59.3176 192.896 58.9256 192.496C58.5336 192.088 58.3376 191.528 58.3376 190.816V188.476H57.5696V186.988H58.5176L59.6336 184.72H60.8456V186.988H62.2376V188.476H60.8456V190.516C60.8456 190.716 60.9096 190.872 61.0376 190.984C61.1656 191.096 61.3456 191.152 61.5776 191.152C61.7936 191.152 61.9896 191.104 62.1656 191.008L62.2616 192.688C62.0616 192.808 61.8016 192.908 61.4816 192.988C61.1696 193.06 60.8656 193.096 60.5696 193.096ZM66.0245 193.096C65.3205 193.096 64.7725 192.896 64.3805 192.496C63.9885 192.088 63.7925 191.528 63.7925 190.816V188.476H63.0245V186.988H63.9725L65.0885 184.72H66.3005V186.988H67.6925V188.476H66.3005V190.516C66.3005 190.716 66.3645 190.872 66.4925 190.984C66.6205 191.096 66.8005 191.152 67.0325 191.152C67.2485 191.152 67.4445 191.104 67.6205 191.008L67.7165 192.688C67.5165 192.808 67.2565 192.908 66.9365 192.988C66.6245 193.06 66.3205 193.096 66.0245 193.096ZM70.9633 193.096C70.2833 193.096 69.7553 192.884 69.3793 192.46C69.0113 192.028 68.8273 191.44 68.8273 190.696V185.092L71.3593 184.72V190.516C71.3593 190.74 71.4113 190.904 71.5153 191.008C71.6273 191.104 71.8193 191.152 72.0913 191.152C72.2913 191.152 72.4873 191.104 72.6793 191.008L72.7633 192.688C72.2273 192.96 71.6273 193.096 70.9633 193.096ZM76.7345 193.096C76.0705 193.096 75.4785 192.964 74.9585 192.7C74.4465 192.428 74.0465 192.06 73.7585 191.596C73.4705 191.124 73.3265 190.592 73.3265 190C73.3265 189.392 73.4745 188.852 73.7705 188.38C74.0665 187.908 74.4665 187.544 74.9705 187.288C75.4745 187.032 76.0345 186.904 76.6505 186.904C77.2425 186.904 77.7465 187.036 78.1625 187.3C78.5865 187.556 78.9025 187.908 79.1105 188.356C79.3185 188.796 79.4225 189.292 79.4225 189.844C79.4225 189.988 79.4145 190.092 79.3985 190.156L75.7985 190.624C75.8945 190.904 76.0505 191.108 76.2665 191.236C76.4825 191.356 76.7665 191.416 77.1185 191.416C77.6625 191.416 78.2505 191.276 78.8825 190.996L79.1825 192.604C78.4385 192.932 77.6225 193.096 76.7345 193.096ZM77.5625 189.112C77.4345 188.608 77.1305 188.356 76.6505 188.356C76.3625 188.356 76.1345 188.464 75.9665 188.68C75.7985 188.896 75.7105 189.176 75.7025 189.52L77.5625 189.112ZM87.5367 193.096C86.6167 193.096 85.9647 192.692 85.5807 191.884V193H83.0367V185.092L85.5807 184.72V188.116C85.7807 187.692 86.0407 187.384 86.3607 187.192C86.6807 187 87.0687 186.904 87.5247 186.904C88.0607 186.904 88.5527 187.04 89.0007 187.312C89.4567 187.576 89.8127 187.944 90.0687 188.416C90.3327 188.888 90.4647 189.416 90.4647 190C90.4647 190.576 90.3287 191.1 90.0567 191.572C89.7927 192.044 89.4327 192.416 88.9767 192.688C88.5287 192.96 88.0487 193.096 87.5367 193.096ZM86.7687 191.2C87.0967 191.2 87.3767 191.08 87.6087 190.84C87.8407 190.6 87.9567 190.32 87.9567 190C87.9567 189.664 87.8367 189.38 87.5967 189.148C87.3647 188.916 87.0887 188.8 86.7687 188.8C86.4407 188.8 86.1607 188.916 85.9287 189.148C85.6967 189.372 85.5807 189.64 85.5807 189.952V190C85.5807 190.336 85.6967 190.62 85.9287 190.852C86.1687 191.084 86.4487 191.2 86.7687 191.2ZM94.7279 193.096C94.0639 193.096 93.4719 192.964 92.9519 192.7C92.4399 192.428 92.0399 192.06 91.7519 191.596C91.4639 191.124 91.3199 190.592 91.3199 190C91.3199 189.392 91.4679 188.852 91.7639 188.38C92.0599 187.908 92.4599 187.544 92.9639 187.288C93.4679 187.032 94.0279 186.904 94.6439 186.904C95.2359 186.904 95.7399 187.036 96.1559 187.3C96.5799 187.556 96.8959 187.908 97.1039 188.356C97.3119 188.796 97.4159 189.292 97.4159 189.844C97.4159 189.988 97.4079 190.092 97.3919 190.156L93.7919 190.624C93.8879 190.904 94.0439 191.108 94.2599 191.236C94.4759 191.356 94.7599 191.416 95.1119 191.416C95.6559 191.416 96.2439 191.276 96.8759 190.996L97.1759 192.604C96.4319 192.932 95.6159 193.096 94.7279 193.096ZM95.5559 189.112C95.4279 188.608 95.1239 188.356 94.6439 188.356C94.3559 188.356 94.1279 188.464 93.9599 188.68C93.7919 188.896 93.7039 189.176 93.6959 189.52L95.5559 189.112ZM100.64 193.096C99.9599 193.096 99.4319 192.884 99.0559 192.46C98.6879 192.028 98.5039 191.44 98.5039 190.696V185.092L101.036 184.72V190.516C101.036 190.74 101.088 190.904 101.192 191.008C101.304 191.104 101.496 191.152 101.768 191.152C101.968 191.152 102.164 191.104 102.356 191.008L102.44 192.688C101.904 192.96 101.304 193.096 100.64 193.096ZM105.415 193.096C104.735 193.096 104.207 192.884 103.831 192.46C103.463 192.028 103.279 191.44 103.279 190.696V185.092L105.811 184.72V190.516C105.811 190.74 105.863 190.904 105.967 191.008C106.079 191.104 106.271 191.152 106.543 191.152C106.743 191.152 106.939 191.104 107.131 191.008L107.215 192.688C106.679 192.96 106.079 193.096 105.415 193.096ZM110.154 193.096C109.314 193.096 108.578 192.972 107.946 192.724L108.222 191.296C108.798 191.504 109.358 191.608 109.902 191.608C110.302 191.608 110.502 191.496 110.502 191.272C110.502 191.16 110.442 191.068 110.322 190.996C110.21 190.924 109.994 190.86 109.674 190.804C109.01 190.676 108.53 190.46 108.234 190.156C107.946 189.852 107.802 189.42 107.802 188.86C107.834 188.228 108.086 187.744 108.558 187.408C109.03 187.072 109.674 186.904 110.49 186.904C110.906 186.904 111.262 186.932 111.558 186.988C111.862 187.036 112.138 187.12 112.386 187.24L112.134 188.668C111.902 188.58 111.646 188.512 111.366 188.464C111.094 188.416 110.866 188.392 110.682 188.392C110.41 188.392 110.222 188.42 110.118 188.476C110.014 188.532 109.962 188.608 109.962 188.704C109.962 188.88 110.162 189.004 110.562 189.076C111.29 189.204 111.834 189.428 112.194 189.748C112.554 190.068 112.734 190.504 112.734 191.056C112.734 191.688 112.51 192.188 112.062 192.556C111.622 192.916 110.986 193.096 110.154 193.096ZM113.707 187.612C114.115 187.612 114.383 187.604 114.511 187.588C114.639 187.572 114.723 187.524 114.763 187.444C114.803 187.364 114.823 187.212 114.823 186.988H113.707V184.744H116.167V185.968C116.167 186.888 116.111 187.552 115.999 187.96C115.895 188.36 115.675 188.636 115.339 188.788C115.011 188.94 114.467 189.016 113.707 189.016V187.612ZM116.827 187.612C117.235 187.612 117.503 187.604 117.631 187.588C117.759 187.572 117.843 187.524 117.883 187.444C117.923 187.364 117.943 187.212 117.943 186.988H116.827V184.744H119.287V185.968C119.287 186.888 119.231 187.552 119.119 187.96C119.015 188.36 118.795 188.636 118.459 188.788C118.131 188.94 117.587 189.016 116.827 189.016V187.612Z" fill="#393A32"/>
<path d="M29.3024 134.256C28.2358 134.256 27.2651 134.005 26.3904 133.504C25.5264 132.992 24.8384 132.299 24.3264 131.424C23.8251 130.539 23.5744 129.563 23.5744 128.496C23.5744 127.408 23.8198 126.427 24.3104 125.552C24.8011 124.677 25.4731 123.995 26.3264 123.504C27.1798 123.003 28.1398 122.752 29.2064 122.752C29.7824 122.752 30.3478 122.821 30.9024 122.96C31.4571 123.099 31.9318 123.296 32.3264 123.552L31.8944 126.032C31.1264 125.744 30.4331 125.6 29.8144 125.6C28.9611 125.6 28.3051 125.851 27.8464 126.352C27.3878 126.843 27.1584 127.552 27.1584 128.48C27.1584 129.387 27.3984 130.096 27.8784 130.608C28.3691 131.109 29.0464 131.36 29.9104 131.36C30.2411 131.36 30.5504 131.328 30.8384 131.264C31.1264 131.2 31.4784 131.083 31.8944 130.912L32.3424 133.44C31.4144 133.984 30.4011 134.256 29.3024 134.256ZM37.8901 134.128C37.1967 134.128 36.5461 133.947 35.9381 133.584C35.3407 133.211 34.8607 132.709 34.4981 132.08C34.1354 131.44 33.9541 130.731 33.9541 129.952C33.9541 129.184 34.1354 128.491 34.4981 127.872C34.8607 127.243 35.3461 126.752 35.9541 126.4C36.5621 126.048 37.2074 125.872 37.8901 125.872C38.4447 125.872 38.9567 126.027 39.4261 126.336C39.9061 126.645 40.2687 127.109 40.5141 127.728V125.872H43.8741V134H40.5141V132.512C39.9807 133.589 39.1061 134.128 37.8901 134.128ZM38.9301 131.6C39.3567 131.6 39.7194 131.451 40.0181 131.152C40.3274 130.843 40.4927 130.48 40.5141 130.064V129.936C40.4927 129.509 40.3221 129.147 40.0021 128.848C39.6927 128.549 39.3354 128.4 38.9301 128.4C38.4821 128.4 38.0981 128.56 37.7781 128.88C37.4687 129.189 37.3141 129.563 37.3141 130C37.3141 130.448 37.4741 130.827 37.7941 131.136C38.1141 131.445 38.4927 131.6 38.9301 131.6ZM46.4547 126.096H49.6707V127.728C50.0334 127.099 50.444 126.635 50.9027 126.336C51.372 126.027 51.9267 125.872 52.5667 125.872C53.196 125.872 53.74 126.032 54.1987 126.352C54.668 126.661 55.02 127.083 55.2547 127.616C55.9374 126.453 56.9294 125.872 58.2307 125.872C58.8494 125.872 59.388 126.037 59.8467 126.368C60.316 126.699 60.6787 127.179 60.9347 127.808C61.1907 128.427 61.3187 129.157 61.3187 130V134H57.9427V130C57.9427 129.456 57.8467 129.045 57.6547 128.768C57.4734 128.491 57.2174 128.352 56.8867 128.352C56.524 128.352 56.2094 128.507 55.9427 128.816C55.6867 129.125 55.5587 129.499 55.5587 129.936V134H52.2147V130C52.2147 129.456 52.1187 129.045 51.9267 128.768C51.7454 128.491 51.484 128.352 51.1427 128.352C50.78 128.352 50.4707 128.507 50.2147 128.816C49.9587 129.125 49.8307 129.499 49.8307 129.936V134H46.4547V126.096ZM63.8366 126.096H67.2126V127.488C67.7246 126.411 68.5939 125.872 69.8206 125.872C70.5352 125.872 71.1912 126.053 71.7886 126.416C72.3966 126.768 72.8712 127.259 73.2126 127.888C73.5646 128.517 73.7406 129.221 73.7406 130C73.7406 130.779 73.5592 131.483 73.1966 132.112C72.8446 132.741 72.3646 133.237 71.7566 133.6C71.1592 133.952 70.5192 134.128 69.8366 134.128C68.6206 134.128 67.7459 133.589 67.2126 132.512V136.08L63.8366 136.72V126.096ZM68.8126 131.6C69.2499 131.6 69.6232 131.44 69.9326 131.12C70.2419 130.8 70.3966 130.427 70.3966 130C70.3966 129.552 70.2366 129.173 69.9166 128.864C69.6072 128.555 69.2392 128.4 68.8126 128.4C68.3752 128.4 68.0019 128.555 67.6926 128.864C67.3832 129.163 67.2286 129.52 67.2286 129.936V130C67.2286 130.448 67.3832 130.827 67.6926 131.136C68.0126 131.445 68.3859 131.6 68.8126 131.6ZM79.4576 134.128C78.7642 134.128 78.1136 133.947 77.5056 133.584C76.9082 133.211 76.4282 132.709 76.0656 132.08C75.7029 131.44 75.5216 130.731 75.5216 129.952C75.5216 129.184 75.7029 128.491 76.0656 127.872C76.4282 127.243 76.9136 126.752 77.5216 126.4C78.1296 126.048 78.7749 125.872 79.4576 125.872C80.0122 125.872 80.5242 126.027 80.9936 126.336C81.4736 126.645 81.8362 127.109 82.0816 127.728V125.872H85.4416V134H82.0816V132.512C81.5482 133.589 80.6736 134.128 79.4576 134.128ZM80.4976 131.6C80.9242 131.6 81.2869 131.451 81.5856 131.152C81.8949 130.843 82.0602 130.48 82.0816 130.064V129.936C82.0602 129.509 81.8896 129.147 81.5696 128.848C81.2602 128.549 80.9029 128.4 80.4976 128.4C80.0496 128.4 79.6656 128.56 79.3456 128.88C79.0362 129.189 78.8816 129.563 78.8816 130C78.8816 130.448 79.0416 130.827 79.3616 131.136C79.6816 131.445 80.0602 131.6 80.4976 131.6ZM88.0222 126.096H91.2382V127.728C91.8569 126.491 92.8382 125.872 94.1822 125.872C95.2062 125.872 96.0062 126.24 96.5822 126.976C97.1689 127.701 97.4622 128.709 97.4622 130V134H94.1022V129.664C94.1022 129.205 94.0009 128.853 93.7982 128.608C93.6062 128.363 93.3342 128.24 92.9822 128.24C92.7262 128.24 92.4755 128.325 92.2302 128.496C91.9849 128.656 91.7822 128.891 91.6222 129.2C91.4729 129.509 91.3982 129.861 91.3982 130.256V134H88.0222V126.096ZM104.111 134.128C103.225 134.128 102.436 133.952 101.743 133.6C101.06 133.237 100.527 132.747 100.143 132.128C99.7586 131.499 99.5666 130.789 99.5666 130C99.5666 129.189 99.7639 128.469 100.159 127.84C100.553 127.211 101.087 126.725 101.759 126.384C102.431 126.043 103.177 125.872 103.999 125.872C104.788 125.872 105.46 126.048 106.015 126.4C106.58 126.741 107.001 127.211 107.279 127.808C107.556 128.395 107.695 129.056 107.695 129.792C107.695 129.984 107.684 130.123 107.663 130.208L102.863 130.832C102.991 131.205 103.199 131.477 103.487 131.648C103.775 131.808 104.153 131.888 104.623 131.888C105.348 131.888 106.132 131.701 106.975 131.328L107.375 133.472C106.383 133.909 105.295 134.128 104.111 134.128ZM105.215 128.816C105.044 128.144 104.639 127.808 103.999 127.808C103.615 127.808 103.311 127.952 103.087 128.24C102.863 128.528 102.745 128.901 102.735 129.36L105.215 128.816ZM112.633 134.128C111.727 134.128 111.023 133.845 110.521 133.28C110.031 132.704 109.785 131.92 109.785 130.928V123.456L113.161 122.96V130.688C113.161 130.987 113.231 131.205 113.369 131.344C113.519 131.472 113.775 131.536 114.137 131.536C114.404 131.536 114.665 131.472 114.921 131.344L115.033 133.584C114.319 133.947 113.519 134.128 112.633 134.128ZM119.64 134.128C118.733 134.128 118.029 133.845 117.528 133.28C117.037 132.704 116.792 131.92 116.792 130.928V123.456L120.168 122.96V130.688C120.168 130.987 120.237 131.205 120.376 131.344C120.525 131.472 120.781 131.536 121.144 131.536C121.411 131.536 121.672 131.472 121.928 131.344L122.04 133.584C121.325 133.947 120.525 134.128 119.64 134.128ZM127.975 134.128C127.09 134.128 126.3 133.952 125.607 133.6C124.924 133.237 124.391 132.747 124.007 132.128C123.623 131.499 123.431 130.789 123.431 130C123.431 129.189 123.628 128.469 124.023 127.84C124.418 127.211 124.951 126.725 125.623 126.384C126.295 126.043 127.042 125.872 127.863 125.872C128.652 125.872 129.324 126.048 129.879 126.4C130.444 126.741 130.866 127.211 131.143 127.808C131.42 128.395 131.559 129.056 131.559 129.792C131.559 129.984 131.548 130.123 131.527 130.208L126.727 130.832C126.855 131.205 127.063 131.477 127.351 131.648C127.639 131.808 128.018 131.888 128.487 131.888C129.212 131.888 129.996 131.701 130.839 131.328L131.239 133.472C130.247 133.909 129.159 134.128 127.975 134.128ZM129.079 128.816C128.908 128.144 128.503 127.808 127.863 127.808C127.479 127.808 127.175 127.952 126.951 128.24C126.727 128.528 126.61 128.901 126.599 129.36L129.079 128.816Z" fill="#393A32"/>
<rect x="46" y="145.901" width="65.45" height="0.897773" fill="#082D74"/>
<rect x="57.7808" y="145" width="13.9627" height="3.1422" fill="#3F8D43"/>
<rect x="71.7454" y="145" width="13.9627" height="3.1422" fill="white"/>
<rect x="85.7046" y="145" width="13.9627" height="3.1422" fill="#D12C29"/>
<path d="M68.9792 52.9099L74.0305 54.8406L79.8339 60.4532L94.101 68.7149C99.7136 67.4577 101.88 68.423 102.845 69.5456C103.811 70.6681 103.395 71.5324 104.507 72.5427C106.46 74.3162 108.873 72.6212 110.579 74.0805C112.286 75.5398 110.501 78.4134 112.297 80.535C114.093 82.6565 117.359 81.0176 120.155 83.0045C121.49 83.9586 123.006 85.9567 123.23 90.7274C121.88 89.5337 120.113 88.9206 118.314 89.0211C113.824 89.6161 113.936 96.2501 109.614 98.1023C106.168 99.5952 99.7136 95.7787 86.9169 88.0895C81.1697 84.6321 77.2409 82.0167 73.8621 83.5994C71.0783 84.8566 70.4946 88.0895 68.1934 87.9548C65.8923 87.8201 65.1851 84.0709 61.7614 83.5994C60.2909 83.3974 60.0327 84.0372 58.9215 83.5994C56.755 82.7463 57.204 80.0972 54.9478 78.8736C54.2939 78.5219 53.5631 78.3378 52.8206 78.3378C52.0782 78.3378 51.3473 78.5219 50.6934 78.8736C48.8525 79.9961 49.6832 82.3534 48.2239 83.4984C46.2595 85.0475 41.6684 83.2739 38.8734 80.8156C33.5976 76.1684 33.9568 68.4679 34.0353 66.627C34.518 56.1091 42.2634 46.781 45.5411 47.7015C47.4718 48.2515 46.5514 52.0007 49.8403 54.2569C53.1293 56.5132 58.6633 55.806 59.7297 53.6171C60.493 52.0456 58.6072 50.6649 59.5164 48.5658C60.1562 47.0504 61.3124 47.3086 63.6697 45.1982C66.3749 42.8073 66.4872 41.0113 67.9016 41.0001C69.3159 40.9888 70.8313 42.8073 70.8089 44.3676C70.8089 45.2544 70.2701 45.4228 69.6864 46.6126C68.6312 49.0934 69.9109 50.3394 69.0353 51.7313C67.9128 53.6059 64.9269 52.2701 63.7707 53.9763C62.4911 55.8733 65.4433 58.1408 64.5228 60.9696C63.4003 64.3371 58.4163 63.686 57.3163 66.9862C56.3621 69.8599 59.5613 72.0263 58.6072 74.7316C57.8551 76.9092 54.8131 77.8185 52.568 78.245" stroke="#1A1A1A" stroke-width="4" stroke-linecap="round" stroke-linejoin="round"/>
<path d="M94.101 68.7148C94.2245 71.0384 94.0336 73.9121 92.3274 74.9111C89.9028 76.3255 86.3781 72.5314 84.0433 74.0692C82.4044 75.1917 83.3698 77.5041 81.2707 80.3441C80.2884 81.6298 78.9993 82.6487 77.5215 83.3075" stroke="#1A1A1A" stroke-width="4" stroke-linecap="round" stroke-linejoin="round"/>
<path d="M65.5333 86.0242C65.5591 84.9388 65.8154 83.8712 66.2854 82.8924C66.9404 81.5484 67.9694 80.422 69.2488 79.6484C67.1246 78.3495 64.7306 77.5556 62.2512 77.3279C59.7718 77.1002 57.2732 77.4448 54.948 78.335" stroke="#1A1A1A" stroke-width="4" stroke-linecap="round" stroke-linejoin="round"/>
<path d="M81.7533 79.7155C77.7277 78.1958 73.2903 78.1719 69.2485 79.6482" stroke="#1A1A1A" stroke-width="4" stroke-linecap="round" stroke-linejoin="round"/>
<path d="M59.8868 52.3486C59.8198 52.9865 59.9026 53.6312 60.1286 54.2314C60.3547 54.8317 60.7178 55.3708 61.189 55.806C61.9471 56.4313 62.913 56.748 63.8942 56.6928" stroke="#1A1A1A" stroke-width="4" stroke-linecap="round" stroke-linejoin="round"/>
</svg>
