<svg width="587" height="411" viewBox="0 0 587 411" fill="none" xmlns="http://www.w3.org/2000/svg">
<path d="M0 0H586.667V361.023L439.758 410.01H287.03H136.242L0 361.023V0Z" fill="url(#paint0_linear)"/>
<g opacity="0.5" filter="url(#filter0_i)">
<rect x="135.758" y="36.9106" width="315.152" height="255.383" rx="5" fill="#FFF8F8" fill-opacity="0.63"/>
<rect x="135.758" y="36.9106" width="315.152" height="255.383" rx="5" fill="url(#paint1_linear)"/>
</g>
<path d="M212.998 336.803H207.278V330.723H228.038V336.803H222.318V358.243H212.998V336.803ZM249.164 358.883C246.524 358.883 244.164 358.376 242.084 357.363C240.031 356.35 238.431 354.936 237.284 353.123C236.137 351.283 235.564 349.19 235.564 346.843V330.723H244.604V346.843C244.604 348.443 244.991 349.643 245.764 350.443C246.537 351.243 247.671 351.643 249.164 351.643C250.657 351.643 251.791 351.243 252.564 350.443C253.337 349.616 253.724 348.416 253.724 346.843V330.723H262.764V346.843C262.764 349.19 262.191 351.283 261.044 353.123C259.897 354.936 258.284 356.35 256.204 357.363C254.151 358.376 251.804 358.883 249.164 358.883ZM271.718 330.723H290.678V336.803H280.318V342.363H289.918V347.403H280.318V358.243H271.718V330.723ZM311.891 358.883C309.011 358.883 306.451 358.27 304.211 357.043C301.997 355.816 300.264 354.123 299.011 351.963C297.784 349.776 297.171 347.296 297.171 344.523C297.171 341.723 297.784 339.23 299.011 337.043C300.264 334.856 301.997 333.163 304.211 331.963C306.451 330.736 309.011 330.123 311.891 330.123C314.771 330.123 317.317 330.736 319.531 331.963C321.771 333.163 323.504 334.856 324.731 337.043C325.984 339.203 326.611 341.696 326.611 344.523C326.611 347.296 325.984 349.776 324.731 351.963C323.504 354.123 321.771 355.816 319.531 357.043C317.291 358.27 314.744 358.883 311.891 358.883ZM311.891 351.603C313.571 351.603 314.944 350.95 316.011 349.643C317.104 348.336 317.651 346.616 317.651 344.483C317.651 343.07 317.397 341.816 316.891 340.723C316.411 339.603 315.731 338.736 314.851 338.123C313.971 337.483 312.971 337.163 311.851 337.163C310.757 337.163 309.771 337.483 308.891 338.123C308.011 338.736 307.331 339.603 306.851 340.723C306.371 341.816 306.131 343.07 306.131 344.483C306.131 346.616 306.664 348.336 307.731 349.643C308.797 350.95 310.184 351.603 311.891 351.603ZM334.445 330.723H343.085V352.163H352.645V358.243H334.445V330.723ZM359.968 330.723H369.208V358.243H359.968V330.723Z" fill="white"/>
<path d="M212.998 336.803H213.498V336.303H212.998V336.803ZM207.278 336.803H206.778V337.303H207.278V336.803ZM207.278 330.723V330.223H206.778V330.723H207.278ZM228.038 330.723H228.538V330.223H228.038V330.723ZM228.038 336.803V337.303H228.538V336.803H228.038ZM222.318 336.803V336.303H221.818V336.803H222.318ZM222.318 358.243V358.743H222.818V358.243H222.318ZM212.998 358.243H212.498V358.743H212.998V358.243ZM212.998 336.303H207.278V337.303H212.998V336.303ZM207.778 336.803V330.723H206.778V336.803H207.778ZM207.278 331.223H228.038V330.223H207.278V331.223ZM227.538 330.723V336.803H228.538V330.723H227.538ZM228.038 336.303H222.318V337.303H228.038V336.303ZM221.818 336.803V358.243H222.818V336.803H221.818ZM222.318 357.743H212.998V358.743H222.318V357.743ZM213.498 358.243V336.803H212.498V358.243H213.498ZM242.084 357.363L241.863 357.812L241.865 357.813L242.084 357.363ZM237.284 353.123L236.86 353.388L236.862 353.39L237.284 353.123ZM235.564 330.723V330.223H235.064V330.723H235.564ZM244.604 330.723H245.104V330.223H244.604V330.723ZM245.764 350.443L245.405 350.791H245.405L245.764 350.443ZM252.564 350.443L252.924 350.791L252.929 350.785L252.564 350.443ZM253.724 330.723V330.223H253.224V330.723H253.724ZM262.764 330.723H263.264V330.223H262.764V330.723ZM261.044 353.123L261.467 353.39L261.468 353.388L261.044 353.123ZM256.204 357.363L255.985 356.914L255.983 356.915L256.204 357.363ZM249.164 358.383C246.589 358.383 244.306 357.889 242.303 356.914L241.865 357.813C244.022 358.864 246.459 359.383 249.164 359.383V358.383ZM242.305 356.915C240.329 355.939 238.801 354.586 237.707 352.856L236.862 353.39C238.061 355.287 239.733 356.76 241.863 357.812L242.305 356.915ZM237.708 352.859C236.615 351.105 236.064 349.104 236.064 346.843H235.064C235.064 349.275 235.66 351.462 236.86 353.388L237.708 352.859ZM236.064 346.843V330.723H235.064V346.843H236.064ZM235.564 331.223H244.604V330.223H235.564V331.223ZM244.104 330.723V346.843H245.104V330.723H244.104ZM244.104 346.843C244.104 348.516 244.508 349.863 245.405 350.791L246.124 350.096C245.473 349.423 245.104 348.37 245.104 346.843H244.104ZM245.405 350.791C246.301 351.718 247.583 352.143 249.164 352.143V351.143C247.758 351.143 246.774 350.768 246.124 350.096L245.405 350.791ZM249.164 352.143C250.745 352.143 252.027 351.718 252.924 350.791L252.205 350.096C251.554 350.768 250.57 351.143 249.164 351.143V352.143ZM252.929 350.785C253.818 349.835 254.224 348.494 254.224 346.843H253.224C253.224 348.339 252.857 349.398 252.199 350.102L252.929 350.785ZM254.224 346.843V330.723H253.224V346.843H254.224ZM253.724 331.223H262.764V330.223H253.724V331.223ZM262.264 330.723V346.843H263.264V330.723H262.264ZM262.264 346.843C262.264 349.104 261.713 351.105 260.62 352.859L261.468 353.388C262.669 351.462 263.264 349.275 263.264 346.843H262.264ZM260.622 352.856C259.528 354.585 257.988 355.938 255.985 356.914L256.423 357.813C258.58 356.762 260.267 355.288 261.467 353.39L260.622 352.856ZM255.983 356.915C254.008 357.889 251.739 358.383 249.164 358.383V359.383C251.869 359.383 254.293 358.864 256.425 357.812L255.983 356.915ZM271.718 330.723V330.223H271.218V330.723H271.718ZM290.678 330.723H291.178V330.223H290.678V330.723ZM290.678 336.803V337.303H291.178V336.803H290.678ZM280.318 336.803V336.303H279.818V336.803H280.318ZM280.318 342.363H279.818V342.863H280.318V342.363ZM289.918 342.363H290.418V341.863H289.918V342.363ZM289.918 347.403V347.903H290.418V347.403H289.918ZM280.318 347.403V346.903H279.818V347.403H280.318ZM280.318 358.243V358.743H280.818V358.243H280.318ZM271.718 358.243H271.218V358.743H271.718V358.243ZM271.718 331.223H290.678V330.223H271.718V331.223ZM290.178 330.723V336.803H291.178V330.723H290.178ZM290.678 336.303H280.318V337.303H290.678V336.303ZM279.818 336.803V342.363H280.818V336.803H279.818ZM280.318 342.863H289.918V341.863H280.318V342.863ZM289.418 342.363V347.403H290.418V342.363H289.418ZM289.918 346.903H280.318V347.903H289.918V346.903ZM279.818 347.403V358.243H280.818V347.403H279.818ZM280.318 357.743H271.718V358.743H280.318V357.743ZM272.218 358.243V330.723H271.218V358.243H272.218ZM304.211 357.043L303.968 357.48L303.971 357.482L304.211 357.043ZM299.011 351.963L298.575 352.208L298.578 352.214L299.011 351.963ZM299.011 337.043L298.577 336.795L298.575 336.799L299.011 337.043ZM304.211 331.963L304.449 332.403L304.451 332.402L304.211 331.963ZM319.531 331.963L319.288 332.401L319.295 332.404L319.531 331.963ZM324.731 337.043L324.295 337.288L324.298 337.294L324.731 337.043ZM324.731 351.963L324.297 351.715L324.296 351.716L324.731 351.963ZM319.531 357.043L319.771 357.482L319.531 357.043ZM316.011 349.643L315.627 349.322L315.623 349.327L316.011 349.643ZM316.891 340.723L316.431 340.92L316.434 340.927L316.437 340.933L316.891 340.723ZM314.851 338.123L314.557 338.528L314.565 338.533L314.851 338.123ZM308.891 338.123L309.177 338.533L309.185 338.528L308.891 338.123ZM306.851 340.723L307.309 340.924L307.31 340.92L306.851 340.723ZM311.891 358.383C309.084 358.383 306.608 357.786 304.451 356.605L303.971 357.482C306.293 358.754 308.938 359.383 311.891 359.383V358.383ZM304.453 356.606C302.318 355.422 300.65 353.793 299.443 351.712L298.578 352.214C299.878 354.453 301.677 356.211 303.968 357.48L304.453 356.606ZM299.447 351.719C298.266 349.614 297.671 347.22 297.671 344.523H296.671C296.671 347.373 297.302 349.939 298.575 352.208L299.447 351.719ZM297.671 344.523C297.671 341.799 298.267 339.391 299.447 337.288L298.575 336.799C297.301 339.068 296.671 341.648 296.671 344.523H297.671ZM299.444 337.292C300.652 335.186 302.317 333.558 304.449 332.403L303.972 331.524C301.677 332.768 299.876 334.527 298.577 336.795L299.444 337.292ZM304.451 332.402C306.608 331.22 309.084 330.623 311.891 330.623V329.623C308.938 329.623 306.293 330.253 303.971 331.525L304.451 332.402ZM311.891 330.623C314.698 330.623 317.159 331.22 319.288 332.4L319.773 331.526C317.476 330.253 314.844 329.623 311.891 329.623V330.623ZM319.295 332.404C321.452 333.56 323.115 335.185 324.295 337.288L325.167 336.799C323.893 334.528 322.09 332.767 319.767 331.522L319.295 332.404ZM324.298 337.294C325.502 339.368 326.111 341.773 326.111 344.523H327.111C327.111 341.62 326.466 339.038 325.163 336.792L324.298 337.294ZM326.111 344.523C326.111 347.218 325.503 349.611 324.297 351.715L325.164 352.212C326.465 349.942 327.111 347.375 327.111 344.523H326.111ZM324.296 351.716C323.116 353.793 321.452 355.421 319.291 356.605L319.771 357.482C322.09 356.212 323.892 354.453 325.165 352.21L324.296 351.716ZM319.291 356.605C317.132 357.786 314.67 358.383 311.891 358.383V359.383C314.818 359.383 317.449 358.753 319.771 357.482L319.291 356.605ZM311.891 352.103C313.722 352.103 315.237 351.382 316.398 349.959L315.623 349.327C314.651 350.518 313.42 351.103 311.891 351.103V352.103ZM316.394 349.964C317.58 348.547 318.151 346.703 318.151 344.483H317.151C317.151 346.53 316.628 348.126 315.627 349.322L316.394 349.964ZM318.151 344.483C318.151 343.01 317.886 341.683 317.344 340.513L316.437 340.933C316.908 341.95 317.151 343.13 317.151 344.483H318.151ZM317.35 340.526C316.839 339.332 316.103 338.387 315.137 337.713L314.565 338.533C315.358 339.086 315.983 339.874 316.431 340.92L317.35 340.526ZM315.145 337.719C314.177 337.015 313.073 336.663 311.851 336.663V337.663C312.868 337.663 313.765 337.952 314.557 338.528L315.145 337.719ZM311.851 336.663C310.652 336.663 309.562 337.016 308.597 337.719L309.185 338.528C309.979 337.95 310.862 337.663 311.851 337.663V336.663ZM308.605 337.713C307.638 338.387 306.903 339.332 306.391 340.526L307.31 340.92C307.759 339.874 308.383 339.086 309.177 338.533L308.605 337.713ZM306.393 340.522C305.88 341.689 305.631 343.013 305.631 344.483H306.631C306.631 343.127 306.861 341.944 307.308 340.924L306.393 340.522ZM305.631 344.483C305.631 346.701 306.186 348.542 307.343 349.959L308.118 349.327C307.142 348.131 306.631 346.532 306.631 344.483H305.631ZM307.343 349.959C308.506 351.384 310.036 352.103 311.891 352.103V351.103C310.332 351.103 309.088 350.516 308.118 349.327L307.343 349.959ZM334.445 330.723V330.223H333.945V330.723H334.445ZM343.085 330.723H343.585V330.223H343.085V330.723ZM343.085 352.163H342.585V352.663H343.085V352.163ZM352.645 352.163H353.145V351.663H352.645V352.163ZM352.645 358.243V358.743H353.145V358.243H352.645ZM334.445 358.243H333.945V358.743H334.445V358.243ZM334.445 331.223H343.085V330.223H334.445V331.223ZM342.585 330.723V352.163H343.585V330.723H342.585ZM343.085 352.663H352.645V351.663H343.085V352.663ZM352.145 352.163V358.243H353.145V352.163H352.145ZM352.645 357.743H334.445V358.743H352.645V357.743ZM334.945 358.243V330.723H333.945V358.243H334.945ZM359.968 330.723V330.223H359.468V330.723H359.968ZM369.208 330.723H369.708V330.223H369.208V330.723ZM369.208 358.243V358.743H369.708V358.243H369.208ZM359.968 358.243H359.468V358.743H359.968V358.243ZM359.968 331.223H369.208V330.223H359.968V331.223ZM368.708 330.723V358.243H369.708V330.723H368.708ZM369.208 357.743H359.968V358.743H369.208V357.743ZM360.468 358.243V330.723H359.468V358.243H360.468Z" fill="#2DA2E7"/>
<path d="M10.6666 0H17.4545V367.113L10.6666 365.139V0Z" fill="white"/>
<path d="M569.212 0H576V364.619L569.212 367.113V0Z" fill="white"/>
<rect x="221.091" y="386.067" width="145.455" height="1.99518" fill="#082D74"/>
<rect x="247.273" y="384.072" width="31.0303" height="6.98313" fill="#3F8D43"/>
<rect x="278.303" y="384.072" width="31.0303" height="6.98313" fill="white"/>
<rect x="309.333" y="384.072" width="31.0303" height="6.98313" fill="#D12C29"/>
<path opacity="0.69" d="M399.671 58.3546L336.999 92.7781C334.518 94.1404 332.994 96.5142 332.239 99.5244C331.486 102.525 331.488 106.187 332.068 110.209C333.229 118.257 336.725 127.88 341.374 136.84C346.024 145.799 351.851 154.141 357.706 159.611C360.632 162.345 363.589 164.384 366.431 165.41C369.283 166.439 372.048 166.456 374.529 165.094L437.201 130.671C439.682 129.308 441.206 126.934 441.961 123.924C442.714 120.924 442.712 117.262 442.132 113.239C440.971 105.191 437.476 95.5687 432.826 86.6091C428.176 77.6495 422.349 69.3075 416.494 63.8377C413.568 61.1037 410.611 59.0648 407.769 58.0389C404.917 57.0097 402.152 56.9922 399.671 58.3546ZM372.268 160.647C370.411 161.274 368.304 160.994 366.02 159.923C363.72 158.844 361.282 156.98 358.825 154.527C353.912 149.622 348.992 142.438 344.999 134.745C341.007 127.052 337.963 118.89 336.777 112.043C336.183 108.619 336.06 105.551 336.498 103.047C336.933 100.559 337.913 98.6731 339.491 97.5114C341.091 96.6457 342.995 96.7462 345.151 97.7175C347.323 98.6963 349.689 100.536 352.121 103.025C356.979 107.999 362.001 115.466 366.141 123.443C370.281 131.42 373.518 139.867 374.832 146.788C375.49 150.251 375.659 153.298 375.242 155.699C374.828 158.077 373.853 159.759 372.268 160.647Z" fill="#FEF7BA" fill-opacity="0.93" stroke="#FEF7BA"/>
<path opacity="0.69" d="M327.646 272.538L357.517 211.651C358.7 209.239 358.631 206.58 357.643 203.857C356.658 201.143 354.755 198.343 352.225 195.59C347.164 190.08 339.509 184.661 331.321 180.387C323.133 176.112 314.367 172.959 307.066 172.015C303.417 171.543 300.102 171.619 297.4 172.407C294.687 173.199 292.57 174.716 291.387 177.128L261.516 238.016C260.333 240.428 260.402 243.087 261.39 245.81C262.375 248.523 264.278 251.323 266.808 254.077C271.869 259.586 279.524 265.005 287.712 269.28C295.899 273.554 304.666 276.707 311.967 277.651C315.616 278.123 318.931 278.047 321.633 277.259C324.345 276.468 326.463 274.95 327.646 272.538ZM295.488 179.315C296.575 177.814 298.319 176.868 300.605 176.426C302.909 175.981 305.724 176.057 308.863 176.572C315.138 177.602 322.602 180.367 329.624 184.034C336.647 187.7 343.19 192.246 347.636 196.813C349.86 199.097 351.54 201.366 352.502 203.513C353.456 205.644 353.688 207.619 353.09 209.374C352.322 210.916 350.824 211.886 348.69 212.333C346.536 212.783 343.788 212.687 340.65 212.13C334.381 211.017 326.693 208.092 319.41 204.29C312.127 200.488 305.29 195.83 300.707 191.278C298.414 189 296.711 186.773 295.787 184.716C294.874 182.681 294.744 180.865 295.488 179.315Z" fill="#FEF7BA" fill-opacity="0.93" stroke="#FEF7BA"/>
<path opacity="0.9" d="M192.332 284.133L262.272 247.241C267.753 244.35 269.422 237.567 268.704 229.517C267.983 221.427 264.842 211.828 260.413 202.941C255.983 194.053 250.24 185.827 244.275 180.503C238.341 175.205 232.013 172.639 226.532 175.531L156.592 212.423C151.11 215.314 149.442 222.097 150.159 230.147C150.881 238.237 154.021 247.836 158.45 256.723C162.88 265.611 168.623 273.837 174.588 279.161C180.523 284.459 186.85 287.025 192.332 284.133ZM228.693 179.952C232.872 178.525 237.854 180.861 242.848 185.655C247.823 190.431 252.656 197.507 256.454 205.129C260.253 212.751 262.997 220.878 263.824 227.739C264.654 234.634 263.529 240.032 259.893 242.531C258.066 243.485 255.989 243.437 253.728 242.532C251.449 241.619 249.019 239.846 246.563 237.42C241.652 232.573 236.728 225.215 232.788 217.31C228.849 209.406 225.915 200.998 224.955 194.067C224.475 190.599 224.494 187.534 225.103 185.097C225.707 182.684 226.879 180.923 228.693 179.952Z" fill="#FEF7BA" fill-opacity="0.69" stroke="#FEF7BA"/>
<path opacity="0.8" d="M308.334 43.6752L261.57 89.7655C259.702 91.6068 258.989 94.1549 259.142 97.0935C259.295 100.023 260.308 103.382 261.94 106.936C265.204 114.047 270.999 122.061 277.647 129.2C284.295 136.339 291.829 142.638 298.595 146.297C301.977 148.126 305.196 149.312 308.034 149.595C310.881 149.878 313.387 149.254 315.255 147.413L362.018 101.322C363.886 99.481 364.6 96.933 364.446 93.9944C364.294 91.0646 363.28 87.7054 361.649 84.1516C358.385 77.0404 352.59 69.0265 345.942 61.8879C339.294 54.7493 331.759 48.4499 324.993 44.7904C321.612 42.9615 318.393 41.7759 315.554 41.4933C312.707 41.2099 310.202 41.8339 308.334 43.6752ZM311.978 143.829C310.502 144.82 308.548 145.054 306.205 144.601C303.843 144.145 301.141 143.001 298.257 141.321C292.491 137.961 286.09 132.512 280.381 126.382C274.672 120.252 269.685 113.471 266.729 107.467C265.251 104.463 264.294 101.679 263.996 99.2837C263.7 96.9042 264.06 94.9636 265.141 93.5505C266.318 92.4078 268.035 92.056 270.236 92.447C272.454 92.8409 275.086 93.9791 277.957 95.6987C283.693 99.1346 290.263 104.819 296.183 111.176C302.103 117.533 307.342 124.53 310.433 130.572C311.98 133.597 312.973 136.35 313.261 138.647C313.545 140.921 313.133 142.668 311.978 143.829Z" fill="#FEF7BA" fill-opacity="0.69" stroke="#FEF7BA"/>
<path opacity="0.8" d="M282.319 136.599L219.36 106.574C216.864 105.384 214.162 105.561 211.432 106.733C208.711 107.9 205.932 110.065 203.22 112.906C197.794 118.591 192.545 127.081 188.479 136.106C184.412 145.131 181.506 154.738 180.796 162.672C180.441 166.637 180.631 170.218 181.523 173.109C182.419 176.009 184.033 178.245 186.529 179.435L249.488 209.46C251.985 210.65 254.686 210.472 257.416 209.301C260.138 208.134 262.917 205.969 265.629 203.128C271.055 197.443 276.303 188.953 280.37 179.928C284.437 170.903 287.343 161.295 288.053 153.362C288.408 149.397 288.218 145.816 287.325 142.925C286.429 140.025 284.816 137.789 282.319 136.599ZM188.585 174.977C187.022 173.857 185.997 172.003 185.469 169.538C184.936 167.055 184.918 163.997 185.335 160.575C186.169 153.734 188.73 145.54 192.221 137.792C195.712 130.044 200.117 122.78 204.615 117.786C206.865 115.287 209.12 113.378 211.276 112.252C213.418 111.134 215.422 110.809 217.226 111.389C218.817 112.161 219.858 113.745 220.387 116.048C220.921 118.369 220.916 121.355 220.456 124.777C219.537 131.616 216.822 140.058 213.201 148.093C209.581 156.128 205.073 163.715 200.594 168.856C198.353 171.428 196.141 173.362 194.075 174.443C192.028 175.514 190.184 175.722 188.585 174.977Z" fill="#FEF7BA" fill-opacity="0.8" stroke="#FEF7BA"/>
<path opacity="0.8" d="M205.214 155.776L251.919 101.933C253.768 99.8016 254.382 97.0506 254.063 93.9668C253.746 90.8931 252.5 87.4585 250.593 83.8849C246.777 76.7352 240.251 68.9118 232.875 62.1074C225.499 55.3029 217.235 49.4826 209.922 46.3656C206.266 44.8077 202.818 43.9122 199.821 43.9276C196.813 43.943 194.23 44.878 192.382 47.009L145.676 100.852C143.827 102.983 143.213 105.734 143.532 108.818C143.85 111.892 145.095 115.326 147.003 118.9C150.818 126.05 157.344 133.873 164.72 140.677C172.096 147.482 180.36 153.302 187.674 156.419C191.329 157.977 194.777 158.873 197.775 158.857C200.782 158.842 203.365 157.907 205.214 155.776ZM196.003 50.4068C197.521 49.1799 199.579 48.7179 202.07 48.937C204.58 49.1578 207.483 50.0676 210.606 51.523C216.849 54.4329 223.874 59.4793 230.207 65.321C236.539 71.163 242.148 77.7713 245.579 83.7847C247.295 86.7925 248.451 89.6271 248.894 92.1257C249.333 94.608 249.061 96.7139 247.985 98.3462C246.788 99.7086 244.98 100.269 242.642 100.099C240.287 99.9283 237.457 99.0169 234.346 97.5187C228.13 94.5248 220.915 89.2487 214.348 83.1906C207.781 77.1325 201.896 70.3236 198.321 64.285C196.532 61.2633 195.339 58.4645 194.913 56.0689C194.491 53.6966 194.828 51.7842 196.003 50.4068Z" fill="#FEF7BA" fill-opacity="0.69" stroke="#FEF7BA"/>
<path opacity="0.8" d="M436.584 221.168L380.922 155.451C376.598 150.346 369.644 149.973 362.114 152.395C354.565 154.824 346.276 160.102 339.044 166.585C331.812 173.067 325.596 180.793 322.224 188.153C318.861 195.495 318.269 202.633 322.593 207.738L378.255 273.455C382.579 278.561 389.533 278.934 397.063 276.511C404.612 274.083 412.901 268.805 420.133 262.322C427.365 255.84 433.581 248.114 436.953 240.754C440.315 233.412 440.908 226.274 436.584 221.168ZM326.213 204.539C323.602 200.413 324.411 194.69 327.544 188.483C330.67 182.289 336.04 175.767 342.233 170.215C348.427 164.663 355.409 160.113 361.734 157.833C368.076 155.548 373.595 155.594 377.081 158.929C380.018 162.419 379.317 167.83 376.086 174.006C372.873 180.149 367.26 186.824 360.836 192.583C354.412 198.341 347.216 203.147 340.862 205.582C334.477 208.028 329.173 208.003 326.213 204.539Z" fill="#FEF7BA" fill-opacity="0.93" stroke="#FEF7BA"/>
<defs>
<filter id="filter0_i" x="135.758" y="36.9106" width="315.152" height="264.383" filterUnits="userSpaceOnUse" color-interpolation-filters="sRGB">
<feFlood flood-opacity="0" result="BackgroundImageFix"/>
<feBlend mode="normal" in="SourceGraphic" in2="BackgroundImageFix" result="shape"/>
<feColorMatrix in="SourceAlpha" type="matrix" values="0 0 0 0 0 0 0 0 0 0 0 0 0 0 0 0 0 0 127 0" result="hardAlpha"/>
<feOffset dy="9"/>
<feGaussianBlur stdDeviation="18.5"/>
<feComposite in2="hardAlpha" operator="arithmetic" k2="-1" k3="1"/>
<feColorMatrix type="matrix" values="0 0 0 0 0 0 0 0 0 0 0 0 0 0 0 0 0 0 0.25 0"/>
<feBlend mode="normal" in2="shape" result="effect1_innerShadow"/>
</filter>
<linearGradient id="paint0_linear" x1="293.333" y1="-5.03621e-07" x2="293.333" y2="407.543" gradientUnits="userSpaceOnUse">
<stop stop-color="#082D74"/>
<stop offset="0.302083" stop-color="#082D74" stop-opacity="0.85"/>
<stop offset="0.666667" stop-color="#2179B9"/>
<stop offset="1" stop-color="#2DA2E7"/>
</linearGradient>
<linearGradient id="paint1_linear" x1="293.333" y1="36.9106" x2="293.333" y2="292.294" gradientUnits="userSpaceOnUse">
<stop stop-color="white" stop-opacity="0.5"/>
<stop offset="0.952978" stop-color="white" stop-opacity="0"/>
</linearGradient>
</defs>
</svg>
