<svg width="309" height="105" viewBox="0 0 309 105" fill="none" xmlns="http://www.w3.org/2000/svg">
<path d="M0.7 47.9C0.233334 46.0333 2.38419e-07 44.3 2.38419e-07 42.7C2.38419e-07 39.4333 0.966667 36.9667 2.9 35.3C4.83333 33.6333 7.33333 32.8 10.4 32.8C10.4 29.3333 9.5 25.5667 7.7 21.5C10.9667 19.1 13.9333 17.3 16.6 16.1C19.3333 14.8333 22.2 14.2 25.2 14.2C28.2 14.2 30.2667 14.7667 31.4 15.9C32.6 16.9667 33.2 18.6333 33.2 20.9C33.2 23.1667 32.7333 26.7 31.8 31.5C34.4667 31.1 37.1667 30.5333 39.9 29.8C40.3667 31.2 40.6 33 40.6 35.2C40.6 37.4 39.7333 39.4667 38 41.4C36.3333 43.2667 33.8667 44.2 30.6 44.2H29.1C26.7 55.0667 25.5 63.4333 25.5 69.3C25.5 75.1667 26.5333 79.2667 28.6 81.6C24.8667 84.8667 20.9 86.5 16.7 86.5C12.5 86.5 9.46667 85.2667 7.6 82.8C5.8 80.2667 4.9 76.3667 4.9 71.1C4.9 67.9 6.06667 59.5 8.4 45.9C5.73333 46.3667 3.16667 47.0333 0.7 47.9ZM63.8586 86.5C57.9919 86.5 53.8919 85.0667 51.5586 82.2C49.2253 79.3333 48.0586 75.7333 48.0586 71.4C48.0586 67 48.7919 61 50.2586 53.4C51.7253 45.8 52.4586 40.3 52.4586 36.9C52.4586 33.5 51.7586 30.8333 50.3586 28.9C56.5586 25.6333 61.7919 24 66.0586 24C68.7919 24 70.7586 24.5667 71.9586 25.7C73.2253 26.7667 73.8586 28.5333 73.8586 31C73.8586 33.4667 72.8253 39.5333 70.7586 49.2C68.7586 58.8 67.7586 64.7333 67.7586 67C67.7586 69.2667 68.3919 71.0667 69.6586 72.4C70.9253 73.6667 72.5919 74.3 74.6586 74.3C76.7253 74.3 78.9253 73.5 81.2586 71.9C83.5919 70.2333 85.4919 67.9 86.9586 64.9C87.8919 59.5 89.7253 50.9667 92.4586 39.3L86.4586 31.3C93.1919 26.4333 99.5919 24 105.659 24C108.659 24 110.792 24.5667 112.059 25.7C113.392 26.7667 114.059 28.4333 114.059 30.7C114.059 32.9 112.825 39.2667 110.359 49.8C107.959 60.3333 106.759 67.8333 106.759 72.3C106.759 76.7 107.792 79.8 109.859 81.6C106.125 84.8667 102.192 86.5 98.0586 86.5C93.9919 86.5 91.0586 85.6 89.2586 83.8C87.4586 82 86.5586 79.6333 86.5586 76.7L85.5586 76.2C83.3586 79.4 80.2919 81.9333 76.3586 83.8C72.4919 85.6 68.3253 86.5 63.8586 86.5ZM123.426 52.3C122.959 50.8333 122.726 49.3333 122.726 47.8C122.726 44.6 123.626 42.1667 125.426 40.5C127.226 38.8333 129.526 37.9667 132.326 37.9C131.859 35.8333 131.626 33.5667 131.626 31.1C131.626 23.7667 133.526 17.4667 137.326 12.2C141.126 6.86666 146.492 4.2 153.426 4.2C157.226 4.2 160.192 5.33333 162.326 7.59999C164.526 9.86666 165.626 12.5 165.626 15.5C165.626 18.5 164.592 21.0667 162.526 23.2C160.459 25.2667 157.759 26.3 154.426 26.3C151.092 26.3 148.126 25.5 145.526 23.9L144.126 25L147.626 36.9C151.092 36.4333 154.626 35.5333 158.226 34.2C158.692 35.6667 158.926 37.4667 158.926 39.6C158.926 41.6667 158.292 43.6333 157.026 45.5C155.826 47.3 154.059 48.4667 151.726 49C147.459 68.6667 145.326 82.6667 145.326 91C145.326 95.2667 146.359 98.3 148.426 100.1C143.559 103.367 139.226 105 135.426 105C127.959 105 124.226 100.4 124.226 91.2C124.226 85.4667 126.292 71.9333 130.426 50.6C127.426 51.2 125.092 51.7667 123.426 52.3ZM214.89 31.6C218.623 31.6 221.823 33.1 224.49 36.1C227.223 39.1 228.59 43.4667 228.59 49.2C228.59 54.8667 227.59 60.1333 225.59 65C223.59 69.8 220.957 73.7333 217.69 76.8C214.423 79.8667 210.723 82.2667 206.59 84C202.457 85.6667 198.223 86.5 193.89 86.5C185.157 86.5 178.257 84.1 173.19 79.3C168.123 74.5 165.59 68.1333 165.59 60.2C165.59 49.4667 169.023 40.7667 175.89 34.1C182.823 27.3667 191.623 24 202.29 24C204.69 24 207.09 24.2667 209.49 24.8C210.223 27 210.623 29.5 210.69 32.3C212.09 31.8333 213.49 31.6 214.89 31.6ZM202.59 45.5C202.59 43.6333 203.023 41.5333 203.89 39.2C204.823 36.8667 206.29 35 208.29 33.6C199.49 35.4667 193.423 39.0333 190.09 44.3C187.223 48.8333 185.79 53.5 185.79 58.3C185.79 63.1 186.757 66.9667 188.69 69.9C190.69 72.7667 193.223 74.2 196.29 74.2C203.09 74.2 207.89 69.7667 210.69 60.9C205.29 57.5667 202.59 52.4333 202.59 45.5ZM247.474 21.8L241.874 13.8C250.208 8.93333 256.774 6.5 261.574 6.5C264.308 6.5 266.241 7.06666 267.374 8.2C268.508 9.26666 269.074 11.3333 269.074 14.4C269.074 17.4 267.574 25.9333 264.574 40C261.641 54.0667 260.174 63.9333 260.174 69.6C260.174 75.2667 261.208 79.2667 263.274 81.6C258.608 84.8667 254.374 86.5 250.574 86.5C246.774 86.5 243.974 85.2667 242.174 82.8C240.441 80.2667 239.574 76.8 239.574 72.4C239.574 68 240.808 59 243.274 45.4C245.741 31.8 247.141 23.9333 247.474 21.8ZM308.851 8.2C308.851 10.7333 307.517 12.9333 304.851 14.8C302.184 16.6 299.151 17.5 295.751 17.5C292.351 17.5 289.651 16.8333 287.651 15.5C285.717 14.1667 284.751 12.3667 284.751 10.1C284.751 7.03333 286.184 4.63333 289.051 2.9C291.917 1.16666 294.951 0.299999 298.151 0.299999C301.351 0.299999 303.917 0.966665 305.851 2.3C307.851 3.63333 308.851 5.6 308.851 8.2ZM289.351 86.5C285.217 86.5 282.217 85.4667 280.351 83.4C278.484 81.3333 277.551 78.2 277.551 74C277.551 69.7333 279.684 58.3667 283.951 39.9L278.351 31.5C286.684 26.5 293.251 24 298.051 24C300.784 24 302.717 24.6 303.851 25.8C304.984 26.9333 305.551 28.8 305.551 31.4C305.551 32.4 304.317 38.2667 301.851 49C299.384 59.7333 298.151 67.4 298.151 72C298.151 76.6 299.184 79.8 301.251 81.6C297.517 84.8667 293.551 86.5 289.351 86.5Z" fill="#E0D6D6"/>
</svg>
