<svg width="23" height="18" viewBox="0 0 23 18" fill="none" xmlns="http://www.w3.org/2000/svg">
<path d="M12.8732 3.8162L9.42562 0.540947C8.4127 -0.420722 7.58475 -0.065234 7.58475 1.33084V2.39552V4.94052C7.58475 5.52234 7.23967 5.67078 6.81821 5.27038L3.79187 2.39552L1.83935 0.540693C0.827695 -0.420722 0 -0.065234 0 1.33084V16.3499C0 17.7449 0.827695 18.1007 1.8396 17.1392L3.79212 15.2842L6.81846 12.4103C7.23967 12.0102 7.58501 12.1584 7.58501 12.7392V15.2847V16.3501C7.58501 17.7452 8.41295 18.1007 9.42588 17.1392L12.8737 13.8635L17.241 9.7141C17.7477 9.23301 17.7477 8.44668 17.241 7.96584L12.8732 3.8162Z" fill="#1A1A1A"/>
<path d="M21.5089 0.000274658H19.9157C19.1857 0.000274658 18.5884 0.597829 18.5884 1.32809V16.3522C18.5884 17.0827 19.1857 17.68 19.9157 17.68H21.5089C22.2394 17.68 22.8365 17.0827 22.8365 16.3522V1.32809C22.8365 0.597829 22.2392 0.000274658 21.5089 0.000274658Z" fill="#1A1A1A"/>
</svg>
