<svg width="158" height="224" viewBox="0 0 158 224" fill="none" xmlns="http://www.w3.org/2000/svg">
<rect width="158" height="224" rx="5" fill="#FF4242"/>
<circle cx="79" cy="112" r="61" fill="#E0D6D6"/>
<circle cx="79" cy="112" r="51.6154" fill="#4B8174"/>
<circle cx="78.2981" cy="111.298" r="39.2981" fill="#E0D6D6"/>
<path d="M91.8806 87.4822C89.9294 87.4822 89.8589 89.4589 89.8573 89.6827C89.8573 89.9481 89.645 90.1639 89.3796 90.1683C89.3764 90.1687 89.3732 90.1687 89.3709 90.1687C89.1094 90.1687 88.8939 89.9603 88.8844 89.6981C88.8765 89.4711 88.7497 87.4822 86.785 87.4822C86.5164 87.4822 86.2986 87.2644 86.2986 86.9954C86.2986 86.7265 86.5164 86.5086 86.785 86.5086C88.7482 86.5086 88.8765 84.6778 88.8844 84.469C88.8931 84.2068 89.1086 84 89.3709 84C89.3724 84 89.374 84 89.3764 84C89.641 84.0028 89.8549 84.2187 89.8573 84.4837C89.8597 84.6908 89.9318 86.5086 91.8806 86.5086C92.1492 86.5086 92.3671 86.7265 92.3671 86.9954C92.3671 87.2644 92.1492 87.4822 91.8806 87.4822Z" fill="#1A1A1A"/>
<path d="M72.7459 87.4822C70.7946 87.4822 70.7241 89.4589 70.7225 89.6827C70.7225 89.9481 70.5102 90.1639 70.2448 90.1683C70.2416 90.1687 70.2385 90.1687 70.2361 90.1687C69.9746 90.1687 69.7592 89.9603 69.7497 89.6981C69.7417 89.4711 69.615 87.4822 67.6502 87.4822C67.3817 87.4822 67.1638 87.2644 67.1638 86.9954C67.1638 86.7265 67.3817 86.5086 67.6502 86.5086C69.6134 86.5086 69.7417 84.6778 69.7497 84.469C69.7584 84.2068 69.9739 84 70.2361 84C70.2377 84 70.2393 84 70.2416 84C70.5062 84.0028 70.7201 84.2187 70.7225 84.4837C70.7249 84.6908 70.797 86.5086 72.7459 86.5086C73.0144 86.5086 73.2323 86.7265 73.2323 86.9954C73.2323 87.2644 73.0144 87.4822 72.7459 87.4822Z" fill="#1A1A1A"/>
<path d="M104.514 102.825C102.562 102.825 102.492 104.801 102.49 105.025C102.49 105.29 102.278 105.506 102.013 105.511C102.009 105.511 102.006 105.511 102.004 105.511C101.742 105.511 101.527 105.303 101.517 105.04C101.509 104.813 101.383 102.825 99.4179 102.825C99.1494 102.825 98.9315 102.607 98.9315 102.338C98.9315 102.069 99.1494 101.851 99.4179 101.851C101.381 101.851 101.509 100.02 101.517 99.8113C101.526 99.549 101.742 99.3423 102.004 99.3423C102.005 99.3423 102.007 99.3423 102.009 99.3423C102.274 99.345 102.488 99.5609 102.49 99.8259C102.493 100.033 102.565 101.851 104.514 101.851C104.782 101.851 105 102.069 105 102.338C105 102.607 104.782 102.825 104.514 102.825Z" fill="#1A1A1A"/>
<path d="M57.582 102.825C55.6308 102.825 55.5603 104.801 55.5587 105.025C55.5587 105.29 55.3464 105.506 55.081 105.511C55.0778 105.511 55.0746 105.511 55.0723 105.511C54.8108 105.511 54.5953 105.303 54.5858 105.04C54.5779 104.813 54.4512 102.825 52.4864 102.825C52.2179 102.825 52 102.607 52 102.338C52 102.069 52.2179 101.851 52.4864 101.851C54.4496 101.851 54.5779 100.02 54.5858 99.8113C54.5946 99.549 54.81 99.3423 55.0723 99.3423C55.0739 99.3423 55.0754 99.3423 55.0778 99.3423C55.3424 99.345 55.5563 99.5609 55.5587 99.8259C55.5611 100.033 55.6332 101.851 57.582 101.851C57.8506 101.851 58.0685 102.069 58.0685 102.338C58.0685 102.607 57.8506 102.825 57.582 102.825Z" fill="#1A1A1A"/>
<path d="M104.514 119.753C102.562 119.753 102.492 121.73 102.49 121.954C102.49 122.219 102.278 122.435 102.013 122.439C102.009 122.44 102.006 122.44 102.004 122.44C101.742 122.44 101.527 122.231 101.517 121.969C101.509 121.742 101.383 119.753 99.4179 119.753C99.1494 119.753 98.9315 119.535 98.9315 119.266C98.9315 118.997 99.1494 118.779 99.4179 118.779C101.381 118.779 101.509 116.949 101.517 116.74C101.526 116.478 101.742 116.271 102.004 116.271C102.005 116.271 102.007 116.271 102.009 116.271C102.274 116.274 102.488 116.49 102.49 116.755C102.493 116.962 102.565 118.779 104.514 118.779C104.782 118.779 105 118.997 105 119.266C105 119.535 104.782 119.753 104.514 119.753Z" fill="#1A1A1A"/>
<path d="M57.582 120.154C55.6308 120.154 55.5603 122.13 55.5587 122.354C55.5587 122.62 55.3464 122.836 55.081 122.84C55.0778 122.84 55.0746 122.84 55.0723 122.84C54.8108 122.84 54.5953 122.632 54.5858 122.37C54.5779 122.143 54.4512 120.154 52.4864 120.154C52.2179 120.154 52 119.936 52 119.667C52 119.398 52.2179 119.18 52.4864 119.18C54.4496 119.18 54.5779 117.349 54.5858 117.141C54.5946 116.878 54.81 116.672 55.0723 116.672C55.0739 116.672 55.0754 116.672 55.0778 116.672C55.3424 116.674 55.5563 116.89 55.5587 117.155C55.5611 117.362 55.6332 119.18 57.582 119.18C57.8506 119.18 58.0685 119.398 58.0685 119.667C58.0685 119.936 57.8506 120.154 57.582 120.154Z" fill="#1A1A1A"/>
<path d="M90.345 135.316C88.3937 135.316 88.3232 137.292 88.3216 137.516C88.3216 137.781 88.1093 137.997 87.8439 138.002C87.8408 138.002 87.8376 138.002 87.8352 138.002C87.5738 138.002 87.3583 137.794 87.3488 137.531C87.3409 137.304 87.2141 135.316 85.2494 135.316C84.9808 135.316 84.7629 135.098 84.7629 134.829C84.7629 134.56 84.9808 134.342 85.2494 134.342C87.2125 134.342 87.3409 132.511 87.3488 132.302C87.3575 132.04 87.573 131.833 87.8352 131.833C87.8368 131.833 87.8384 131.833 87.8408 131.833C88.1054 131.836 88.3193 132.052 88.3216 132.317C88.324 132.524 88.3961 134.342 90.345 134.342C90.6136 134.342 90.8314 134.56 90.8314 134.829C90.8314 135.098 90.6136 135.316 90.345 135.316Z" fill="#1A1A1A"/>
<path d="M73.3539 135.316C71.4026 135.316 71.3321 137.292 71.3305 137.516C71.3305 137.781 71.1182 137.997 70.8528 138.002C70.8497 138.002 70.8465 138.002 70.8441 138.002C70.5827 138.002 70.3672 137.794 70.3577 137.531C70.3498 137.304 70.223 135.316 68.2583 135.316C67.9897 135.316 67.7719 135.098 67.7719 134.829C67.7719 134.56 67.9897 134.342 68.2583 134.342C70.2214 134.342 70.3498 132.511 70.3577 132.302C70.3664 132.04 70.5819 131.833 70.8441 131.833C70.8457 131.833 70.8473 131.833 70.8497 131.833C71.1143 131.836 71.3282 132.052 71.3305 132.317C71.3329 132.524 71.405 134.342 73.3539 134.342C73.6225 134.342 73.8403 134.56 73.8403 134.829C73.8403 135.098 73.6225 135.316 73.3539 135.316Z" fill="#1A1A1A"/>
<path d="M79.3417 117.102C75.7894 117.102 72.9015 114.211 72.9015 110.66C72.9015 107.109 75.7894 104.219 79.3417 104.219C82.894 104.219 85.7819 107.109 85.7819 110.66C85.7819 114.211 82.894 117.102 79.3417 117.102ZM79.3417 106.844C77.2377 106.844 75.5246 108.556 75.5246 110.66C75.5246 112.764 77.2377 114.476 79.3417 114.476C81.4457 114.476 83.1589 112.764 83.1589 110.66C83.1589 108.556 81.4457 106.844 79.3417 106.844Z" fill="#1A1A1A"/>
<path d="M93.7025 99.8123C91.7202 99.8123 90.1203 98.2604 90.0605 96.2792C90.0306 95.3063 90.383 94.3803 91.0495 93.6711C91.7159 92.963 92.6195 92.5561 93.5914 92.5262C93.5935 92.5262 93.5957 92.5262 93.5957 92.5262C95.689 92.5262 97.2868 94.078 97.3466 96.0582C97.4064 98.0661 95.8236 99.7493 93.8157 99.8112L93.7025 99.8123ZM93.7067 94.7124C93.271 94.7253 92.91 94.8876 92.643 95.1706C92.376 95.4537 92.235 95.8243 92.2478 96.213C92.2713 97.0044 92.91 97.625 93.7025 97.625V98.7186L93.7473 97.6239C94.5505 97.6004 95.1849 96.9275 95.1593 96.1244C95.1358 95.333 94.4971 94.7124 93.7067 94.7124Z" fill="#1A1A1A"/>
<path d="M93.7025 129.569C91.7202 129.569 90.1203 128.017 90.0605 126.036C90.0007 124.029 91.5835 122.345 93.5914 122.282C93.5935 122.282 93.5935 122.282 93.5957 122.282C95.689 122.282 97.2868 123.833 97.3466 125.814C97.4064 127.82 95.8236 129.505 93.8157 129.568L93.7025 129.569ZM93.7046 124.468C92.8566 124.493 92.2222 125.166 92.2478 125.969C92.2713 126.761 92.91 127.381 93.7025 127.381V128.475L93.7473 127.38C94.5505 127.356 95.1849 126.683 95.1593 125.88C95.1358 125.088 94.4971 124.468 93.7046 124.468Z" fill="#1A1A1A"/>
<path d="M64.0239 129.569C62.0416 129.569 60.4417 128.017 60.3819 126.036C60.3221 124.029 61.9049 122.345 63.9128 122.282C63.9149 122.282 63.9149 122.282 63.9171 122.282C66.0104 122.282 67.6082 123.833 67.668 125.814C67.7278 127.82 66.145 129.505 64.1371 129.568L64.0239 129.569ZM64.026 124.468C63.178 124.493 62.5436 125.166 62.5692 125.969C62.5927 126.761 63.2314 127.381 64.0239 127.381V128.475L64.0687 127.38C64.8719 127.356 65.5063 126.683 65.4807 125.88C65.4572 125.088 64.8185 124.468 64.026 124.468Z" fill="#1A1A1A"/>
<path d="M64.0239 99.8123C62.0416 99.8123 60.4417 98.2604 60.3819 96.2792C60.352 95.3063 60.7044 94.3803 61.3709 93.6711C62.0373 92.963 62.9409 92.5561 63.9128 92.5262C63.9149 92.5262 63.9171 92.5262 63.9171 92.5262C66.0104 92.5262 67.6082 94.078 67.668 96.0582C67.7278 98.0661 66.145 99.7493 64.1371 99.8112L64.0239 99.8123ZM64.0281 94.7124C63.5924 94.7253 63.2314 94.8876 62.9644 95.1706C62.6974 95.4537 62.5564 95.8243 62.5692 96.213C62.5927 97.0044 63.2314 97.625 64.0239 97.625V98.7186L64.0687 97.6239C64.8719 97.6004 65.5063 96.9275 65.4807 96.1244C65.4572 95.333 64.8185 94.7124 64.0281 94.7124Z" fill="#1A1A1A"/>
<path d="M86.0403 105.055C85.7605 105.055 85.4807 104.948 85.2671 104.735C84.8399 104.308 84.8399 103.616 85.2671 103.188L88.3366 100.119C88.7638 99.6916 89.4559 99.6916 89.8831 100.119C90.3103 100.546 90.3103 101.238 89.8831 101.665L86.8136 104.735C86.6 104.948 86.3201 105.055 86.0403 105.055Z" fill="#1A1A1A"/>
<path d="M89.3319 121.984C89.0521 121.984 88.7722 121.877 88.5586 121.663L85.4891 118.594C85.0619 118.166 85.0619 117.474 85.4891 117.047C85.9163 116.62 86.6084 116.62 87.0356 117.047L90.1051 120.117C90.5324 120.544 90.5324 121.236 90.1051 121.663C89.8915 121.877 89.6117 121.984 89.3319 121.984Z" fill="#1A1A1A"/>
<path d="M72.5639 105.055C72.2841 105.055 72.0042 104.948 71.7906 104.735L68.719 101.665C68.2918 101.239 68.2918 100.546 68.719 100.119C69.1462 99.6916 69.8383 99.6916 70.2655 100.119L73.3371 103.188C73.7643 103.614 73.7643 104.308 73.3371 104.735C73.1235 104.948 72.8437 105.055 72.5639 105.055Z" fill="#1A1A1A"/>
<path d="M69.2702 121.984C68.9904 121.984 68.7105 121.877 68.4969 121.663C68.0697 121.236 68.0697 120.543 68.4969 120.117L71.5686 117.047C71.9958 116.62 72.6879 116.62 73.1151 117.047C73.5423 117.474 73.5423 118.167 73.1151 118.594L70.0434 121.663C69.8298 121.877 69.55 121.984 69.2702 121.984Z" fill="#1A1A1A"/>
<path d="M81.7934 91.8245C81.8018 91.6081 81.8025 91.4845 81.8025 91.4845C81.8025 88.9149 80.7007 86.8319 79.3417 86.8319C77.9826 86.8319 76.8809 88.9149 76.8809 91.4845C76.8809 91.4845 76.881 91.6591 76.8935 91.9597L76.8936 91.9603C76.953 93.3879 77.2966 97.7179 79.2862 100.405C81.3167 97.7601 81.7088 93.5205 81.7844 92.0268C81.7885 91.9599 81.7908 91.8922 81.7934 91.8245Z" fill="#1A1A1A"/>
<path d="M81.7934 128.336C81.8018 128.553 81.8025 128.676 81.8025 128.676C81.8025 131.246 80.7007 133.329 79.3417 133.329C77.9826 133.329 76.8809 131.246 76.8809 128.676C76.8809 128.676 76.881 128.502 76.8935 128.201L76.8936 128.2C76.953 126.773 77.2966 122.443 79.2862 119.756C81.3167 122.401 81.7088 126.64 81.7844 128.134C81.7885 128.201 81.7908 128.269 81.7934 128.336Z" fill="#1A1A1A"/>
<path d="M60.9126 108.209C60.6962 108.2 60.5726 108.2 60.5726 108.2C58.003 108.2 55.92 109.301 55.92 110.66C55.92 112.019 58.003 113.121 60.5726 113.121C60.5726 113.121 60.7472 113.121 61.0478 113.109L61.0485 113.108C62.476 113.049 66.806 112.705 69.4929 110.716C66.8482 108.685 62.6086 108.293 61.1149 108.218C61.048 108.214 60.9803 108.211 60.9126 108.209Z" fill="#1A1A1A"/>
<path d="M96.9732 108.209C97.1896 108.2 97.3132 108.2 97.3132 108.2C99.8828 108.2 101.966 109.301 101.966 110.66C101.966 112.019 99.8828 113.121 97.3132 113.121C97.3132 113.121 97.1386 113.121 96.838 113.109C96.838 113.109 96.8376 113.108 96.8373 113.108C95.4098 113.049 91.0798 112.705 88.3929 110.716C91.0376 108.685 95.2772 108.293 96.7709 108.218C96.8378 108.214 96.9055 108.211 96.9732 108.209Z" fill="#1A1A1A"/>
</svg>
