<svg width="50" height="50" viewBox="0 0 50 50" fill="none" xmlns="http://www.w3.org/2000/svg">
<path d="M25 0C11.2149 0 0 11.2143 0 25C0 38.7857 11.2143 50 25 50C38.7857 50 50 38.7857 50 25C50 11.2143 38.7857 0 25 0ZM25 48.4834C12.0517 48.4834 1.5166 37.9484 1.5166 25C1.5166 12.0517 12.0517 1.5166 25 1.5166C37.9484 1.5166 48.4834 12.0517 48.4834 25C48.4834 37.9484 37.9484 48.4834 25 48.4834Z" fill="white"/>
<path d="M24.9998 5.12256C14.04 5.12256 5.1228 14.0397 5.1228 24.9995C5.1228 35.9593 14.04 44.8765 24.9998 44.8765C35.9596 44.8765 44.8767 35.9593 44.8767 24.9995C44.8767 14.0397 35.9596 5.12256 24.9998 5.12256ZM24.9998 43.3626C14.8746 43.3626 6.63675 35.1247 6.63675 24.9995C6.63675 14.8744 14.8746 6.6365 24.9998 6.6365C35.1249 6.6365 43.3628 14.8744 43.3628 24.9995C43.3628 35.1247 35.1249 43.3626 24.9998 43.3626Z" fill="white"/>
<path d="M18.2322 16.0342C16.8133 16.0342 15.6575 17.19 15.6575 18.6089V31.3897C15.6575 32.8086 16.8133 33.9645 18.2322 33.9645C19.6512 33.9645 20.807 32.8086 20.807 31.3897V18.6089C20.807 17.19 19.6532 16.0342 18.2322 16.0342ZM19.2928 31.3895C19.2928 31.9736 18.8184 32.448 18.2343 32.448C17.6502 32.448 17.1758 31.9736 17.1758 31.3895L17.1737 18.6087C17.1737 18.0245 17.6481 17.5502 18.2322 17.5502C18.8164 17.5502 19.2907 18.0245 19.2907 18.6087L19.2928 31.3895Z" fill="white"/>
<path d="M34.5062 16.8023C34.2597 16.6718 33.9593 16.6863 33.7273 16.8417L22.5914 24.3319C22.3822 24.4727 22.2559 24.7089 22.2559 24.9595C22.2559 25.2122 22.3822 25.4484 22.5914 25.5872L33.7273 33.0774C33.8536 33.1623 34.0028 33.2058 34.1499 33.2058C34.2721 33.2058 34.3943 33.1768 34.5061 33.1167C34.7526 32.9841 34.908 32.7273 34.908 32.4477V17.4715C34.908 17.1919 34.7547 16.935 34.5061 16.8025L34.5062 16.8023ZM33.3938 31.0308L24.3727 24.9639L33.3938 18.8969V31.0308Z" fill="white"/>
</svg>
