<svg width="158" height="224" viewBox="0 0 158 224" fill="none" xmlns="http://www.w3.org/2000/svg">
<rect width="158" height="224" rx="5" fill="#F75D5D"/>
<circle cx="79" cy="112" r="61" fill="#E0D6D6"/>
<circle cx="79" cy="112" r="51.6154" fill="#4B8174"/>
<circle cx="78.4134" cy="111.413" r="39.2981" fill="#E0D6D6"/>
<path d="M91.8806 88.4822C89.9294 88.4822 89.8589 90.4589 89.8573 90.6827C89.8573 90.9481 89.645 91.1639 89.3796 91.1683C89.3764 91.1687 89.3732 91.1687 89.3709 91.1687C89.1094 91.1687 88.8939 90.9603 88.8844 90.6981C88.8765 90.4711 88.7497 88.4822 86.785 88.4822C86.5164 88.4822 86.2986 88.2644 86.2986 87.9954C86.2986 87.7265 86.5164 87.5086 86.785 87.5086C88.7482 87.5086 88.8765 85.6778 88.8844 85.469C88.8931 85.2068 89.1086 85 89.3709 85C89.3724 85 89.374 85 89.3764 85C89.641 85.0028 89.8549 85.2187 89.8573 85.4837C89.8597 85.6908 89.9318 87.5086 91.8806 87.5086C92.1492 87.5086 92.3671 87.7265 92.3671 87.9954C92.3671 88.2644 92.1492 88.4822 91.8806 88.4822Z" fill="#1A1A1A"/>
<path d="M72.7459 88.4822C70.7946 88.4822 70.7241 90.4589 70.7225 90.6827C70.7225 90.9481 70.5102 91.1639 70.2448 91.1683C70.2416 91.1687 70.2385 91.1687 70.2361 91.1687C69.9746 91.1687 69.7592 90.9603 69.7497 90.6981C69.7417 90.4711 69.615 88.4822 67.6502 88.4822C67.3817 88.4822 67.1638 88.2644 67.1638 87.9954C67.1638 87.7265 67.3817 87.5086 67.6502 87.5086C69.6134 87.5086 69.7417 85.6778 69.7497 85.469C69.7584 85.2068 69.9739 85 70.2361 85C70.2377 85 70.2393 85 70.2416 85C70.5062 85.0028 70.7201 85.2187 70.7225 85.4837C70.7249 85.6908 70.797 87.5086 72.7459 87.5086C73.0144 87.5086 73.2323 87.7265 73.2323 87.9954C73.2323 88.2644 73.0144 88.4822 72.7459 88.4822Z" fill="#1A1A1A"/>
<path d="M104.514 103.825C102.562 103.825 102.492 105.801 102.49 106.025C102.49 106.29 102.278 106.506 102.013 106.511C102.009 106.511 102.006 106.511 102.004 106.511C101.742 106.511 101.527 106.303 101.517 106.04C101.509 105.813 101.383 103.825 99.4179 103.825C99.1494 103.825 98.9315 103.607 98.9315 103.338C98.9315 103.069 99.1494 102.851 99.4179 102.851C101.381 102.851 101.509 101.02 101.517 100.811C101.526 100.549 101.742 100.342 102.004 100.342C102.005 100.342 102.007 100.342 102.009 100.342C102.274 100.345 102.488 100.561 102.49 100.826C102.493 101.033 102.565 102.851 104.514 102.851C104.782 102.851 105 103.069 105 103.338C105 103.607 104.782 103.825 104.514 103.825Z" fill="#1A1A1A"/>
<path d="M57.5821 103.825C55.6308 103.825 55.5603 105.801 55.5587 106.025C55.5587 106.29 55.3464 106.506 55.081 106.511C55.0778 106.511 55.0746 106.511 55.0723 106.511C54.8108 106.511 54.5953 106.303 54.5858 106.04C54.5779 105.813 54.4512 103.825 52.4864 103.825C52.2179 103.825 52 103.607 52 103.338C52 103.069 52.2179 102.851 52.4864 102.851C54.4496 102.851 54.5779 101.02 54.5858 100.811C54.5946 100.549 54.81 100.342 55.0723 100.342C55.0739 100.342 55.0754 100.342 55.0778 100.342C55.3424 100.345 55.5563 100.561 55.5587 100.826C55.5611 101.033 55.6332 102.851 57.5821 102.851C57.8506 102.851 58.0685 103.069 58.0685 103.338C58.0685 103.607 57.8506 103.825 57.5821 103.825Z" fill="#1A1A1A"/>
<path d="M104.514 120.753C102.562 120.753 102.492 122.73 102.49 122.954C102.49 123.219 102.278 123.435 102.013 123.439C102.009 123.44 102.006 123.44 102.004 123.44C101.742 123.44 101.527 123.231 101.517 122.969C101.509 122.742 101.383 120.753 99.4179 120.753C99.1494 120.753 98.9315 120.535 98.9315 120.266C98.9315 119.997 99.1494 119.779 99.4179 119.779C101.381 119.779 101.509 117.949 101.517 117.74C101.526 117.478 101.742 117.271 102.004 117.271C102.005 117.271 102.007 117.271 102.009 117.271C102.274 117.274 102.488 117.49 102.49 117.755C102.493 117.962 102.565 119.779 104.514 119.779C104.782 119.779 105 119.997 105 120.266C105 120.535 104.782 120.753 104.514 120.753Z" fill="#1A1A1A"/>
<path d="M57.5821 121.154C55.6308 121.154 55.5603 123.13 55.5587 123.354C55.5587 123.62 55.3464 123.836 55.081 123.84C55.0778 123.84 55.0746 123.84 55.0723 123.84C54.8108 123.84 54.5953 123.632 54.5858 123.37C54.5779 123.143 54.4512 121.154 52.4864 121.154C52.2179 121.154 52 120.936 52 120.667C52 120.398 52.2179 120.18 52.4864 120.18C54.4496 120.18 54.5779 118.349 54.5858 118.141C54.5946 117.878 54.81 117.672 55.0723 117.672C55.0739 117.672 55.0754 117.672 55.0778 117.672C55.3424 117.674 55.5563 117.89 55.5587 118.155C55.5611 118.362 55.6332 120.18 57.5821 120.18C57.8506 120.18 58.0685 120.398 58.0685 120.667C58.0685 120.936 57.8506 121.154 57.5821 121.154Z" fill="#1A1A1A"/>
<path d="M90.345 136.316C88.3937 136.316 88.3232 138.292 88.3216 138.516C88.3216 138.781 88.1093 138.997 87.8439 139.002C87.8408 139.002 87.8376 139.002 87.8352 139.002C87.5738 139.002 87.3583 138.794 87.3488 138.531C87.3409 138.304 87.2141 136.316 85.2494 136.316C84.9808 136.316 84.7629 136.098 84.7629 135.829C84.7629 135.56 84.9808 135.342 85.2494 135.342C87.2125 135.342 87.3409 133.511 87.3488 133.302C87.3575 133.04 87.573 132.833 87.8352 132.833C87.8368 132.833 87.8384 132.833 87.8408 132.833C88.1054 132.836 88.3193 133.052 88.3216 133.317C88.324 133.524 88.3961 135.342 90.345 135.342C90.6136 135.342 90.8314 135.56 90.8314 135.829C90.8314 136.098 90.6136 136.316 90.345 136.316Z" fill="#1A1A1A"/>
<path d="M73.3539 136.316C71.4026 136.316 71.3321 138.292 71.3305 138.516C71.3305 138.781 71.1182 138.997 70.8528 139.002C70.8497 139.002 70.8465 139.002 70.8441 139.002C70.5827 139.002 70.3672 138.794 70.3577 138.531C70.3498 138.304 70.223 136.316 68.2583 136.316C67.9897 136.316 67.7719 136.098 67.7719 135.829C67.7719 135.56 67.9897 135.342 68.2583 135.342C70.2214 135.342 70.3498 133.511 70.3577 133.302C70.3664 133.04 70.5819 132.833 70.8441 132.833C70.8457 132.833 70.8473 132.833 70.8497 132.833C71.1143 132.836 71.3282 133.052 71.3305 133.317C71.3329 133.524 71.405 135.342 73.3539 135.342C73.6225 135.342 73.8403 135.56 73.8403 135.829C73.8403 136.098 73.6225 136.316 73.3539 136.316Z" fill="#1A1A1A"/>
<path d="M79.3417 118.102C75.7894 118.102 72.9015 115.211 72.9015 111.66C72.9015 108.109 75.7894 105.219 79.3417 105.219C82.894 105.219 85.7819 108.109 85.7819 111.66C85.7819 115.211 82.894 118.102 79.3417 118.102ZM79.3417 107.844C77.2377 107.844 75.5246 109.556 75.5246 111.66C75.5246 113.764 77.2377 115.476 79.3417 115.476C81.4457 115.476 83.1589 113.764 83.1589 111.66C83.1589 109.556 81.4457 107.844 79.3417 107.844Z" fill="#1A1A1A"/>
<path d="M93.7025 100.812C91.7202 100.812 90.1203 99.2604 90.0605 97.2792C90.0306 96.3063 90.383 95.3803 91.0495 94.6711C91.7159 93.963 92.6195 93.5561 93.5914 93.5262C93.5935 93.5262 93.5957 93.5262 93.5957 93.5262C95.689 93.5262 97.2868 95.078 97.3466 97.0582C97.4064 99.0661 95.8236 100.749 93.8157 100.811L93.7025 100.812ZM93.7067 95.7124C93.271 95.7253 92.91 95.8876 92.643 96.1706C92.376 96.4537 92.235 96.8243 92.2478 97.213C92.2713 98.0044 92.91 98.625 93.7025 98.625V99.7186L93.7473 98.6239C94.5505 98.6004 95.1849 97.9275 95.1593 97.1244C95.1358 96.333 94.4971 95.7124 93.7067 95.7124Z" fill="#1A1A1A"/>
<path d="M93.7025 130.569C91.7202 130.569 90.1203 129.017 90.0605 127.036C90.0007 125.029 91.5835 123.345 93.5914 123.282C93.5935 123.282 93.5935 123.282 93.5957 123.282C95.689 123.282 97.2868 124.833 97.3466 126.814C97.4064 128.82 95.8236 130.505 93.8157 130.568L93.7025 130.569ZM93.7046 125.468C92.8566 125.493 92.2222 126.166 92.2478 126.969C92.2713 127.761 92.91 128.381 93.7025 128.381V129.475L93.7473 128.38C94.5505 128.356 95.1849 127.683 95.1593 126.88C95.1358 126.088 94.4971 125.468 93.7046 125.468Z" fill="#1A1A1A"/>
<path d="M64.0239 130.569C62.0416 130.569 60.4417 129.017 60.3819 127.036C60.3221 125.029 61.9049 123.345 63.9128 123.282C63.9149 123.282 63.9149 123.282 63.9171 123.282C66.0104 123.282 67.6082 124.833 67.668 126.814C67.7278 128.82 66.145 130.505 64.1371 130.568L64.0239 130.569ZM64.026 125.468C63.178 125.493 62.5436 126.166 62.5692 126.969C62.5927 127.761 63.2314 128.381 64.0239 128.381V129.475L64.0687 128.38C64.8719 128.356 65.5063 127.683 65.4807 126.88C65.4572 126.088 64.8185 125.468 64.026 125.468Z" fill="#1A1A1A"/>
<path d="M64.0239 100.812C62.0416 100.812 60.4417 99.2604 60.3819 97.2792C60.352 96.3063 60.7044 95.3803 61.3709 94.6711C62.0373 93.963 62.9409 93.5561 63.9128 93.5262C63.9149 93.5262 63.9171 93.5262 63.9171 93.5262C66.0104 93.5262 67.6082 95.078 67.668 97.0582C67.7278 99.0661 66.145 100.749 64.1371 100.811L64.0239 100.812ZM64.0281 95.7124C63.5924 95.7253 63.2314 95.8876 62.9644 96.1706C62.6974 96.4537 62.5564 96.8243 62.5692 97.213C62.5927 98.0044 63.2314 98.625 64.0239 98.625V99.7186L64.0687 98.6239C64.8719 98.6004 65.5063 97.9275 65.4807 97.1244C65.4572 96.333 64.8185 95.7124 64.0281 95.7124Z" fill="#1A1A1A"/>
<path d="M86.0403 106.055C85.7605 106.055 85.4807 105.948 85.2671 105.735C84.8399 105.308 84.8399 104.616 85.2671 104.188L88.3366 101.119C88.7638 100.692 89.4559 100.692 89.8831 101.119C90.3103 101.546 90.3103 102.238 89.8831 102.665L86.8136 105.735C86.6 105.948 86.3201 106.055 86.0403 106.055Z" fill="#1A1A1A"/>
<path d="M89.3319 122.984C89.0521 122.984 88.7722 122.877 88.5586 122.663L85.4891 119.594C85.0619 119.166 85.0619 118.474 85.4891 118.047C85.9163 117.62 86.6084 117.62 87.0356 118.047L90.1051 121.117C90.5324 121.544 90.5324 122.236 90.1051 122.663C89.8915 122.877 89.6117 122.984 89.3319 122.984Z" fill="#1A1A1A"/>
<path d="M72.5639 106.055C72.2841 106.055 72.0042 105.948 71.7906 105.735L68.719 102.665C68.2918 102.239 68.2918 101.546 68.719 101.119C69.1462 100.692 69.8383 100.692 70.2655 101.119L73.3371 104.188C73.7643 104.614 73.7643 105.308 73.3371 105.735C73.1235 105.948 72.8437 106.055 72.5639 106.055Z" fill="#1A1A1A"/>
<path d="M69.2702 122.984C68.9904 122.984 68.7105 122.877 68.4969 122.663C68.0697 122.236 68.0697 121.543 68.4969 121.117L71.5686 118.047C71.9958 117.62 72.6879 117.62 73.1151 118.047C73.5423 118.474 73.5423 119.167 73.1151 119.594L70.0434 122.663C69.8298 122.877 69.55 122.984 69.2702 122.984Z" fill="#1A1A1A"/>
<path d="M81.7934 92.8245C81.8018 92.6081 81.8025 92.4845 81.8025 92.4845C81.8025 89.9149 80.7007 87.8319 79.3417 87.8319C77.9826 87.8319 76.8809 89.9149 76.8809 92.4845C76.8809 92.4845 76.881 92.6591 76.8935 92.9597L76.8936 92.9603C76.953 94.3879 77.2966 98.7179 79.2862 101.405C81.3167 98.7601 81.7088 94.5205 81.7844 93.0268C81.7885 92.9599 81.7908 92.8922 81.7934 92.8245Z" fill="#1A1A1A"/>
<path d="M81.7934 129.336C81.8018 129.553 81.8025 129.676 81.8025 129.676C81.8025 132.246 80.7007 134.329 79.3417 134.329C77.9826 134.329 76.8809 132.246 76.8809 129.676C76.8809 129.676 76.881 129.502 76.8935 129.201L76.8936 129.2C76.953 127.773 77.2966 123.443 79.2862 120.756C81.3167 123.401 81.7088 127.64 81.7844 129.134C81.7885 129.201 81.7908 129.269 81.7934 129.336Z" fill="#1A1A1A"/>
<path d="M60.9126 109.209C60.6962 109.2 60.5726 109.2 60.5726 109.2C58.003 109.2 55.92 110.301 55.92 111.66C55.92 113.019 58.003 114.121 60.5726 114.121C60.5726 114.121 60.7472 114.121 61.0478 114.109L61.0485 114.108C62.476 114.049 66.806 113.705 69.4929 111.716C66.8482 109.685 62.6086 109.293 61.1149 109.218C61.048 109.214 60.9803 109.211 60.9126 109.209Z" fill="#1A1A1A"/>
<path d="M96.9732 109.209C97.1896 109.2 97.3132 109.2 97.3132 109.2C99.8828 109.2 101.966 110.301 101.966 111.66C101.966 113.019 99.8828 114.121 97.3132 114.121C97.3132 114.121 97.1386 114.121 96.838 114.109C96.838 114.109 96.8376 114.108 96.8373 114.108C95.4098 114.049 91.0798 113.705 88.3929 111.716C91.0376 109.685 95.2772 109.293 96.7709 109.218C96.8378 109.214 96.9055 109.211 96.9732 109.209Z" fill="#1A1A1A"/>
</svg>
