<svg width="162" height="230" viewBox="0 0 162 230" fill="none" xmlns="http://www.w3.org/2000/svg">
<rect width="161.782" height="229.362" rx="5" fill="#F7575C"/>
<circle cx="81.4601" cy="114.46" r="62.4601" fill="#E0D6D6"/>
<circle cx="81.4602" cy="114.46" r="52.8509" fill="#3CAA90"/>
<circle cx="80.8596" cy="113.86" r="40.2387" fill="#E0D6D6"/>
<g opacity="0.8">
<path d="M99.5377 118.888L103.592 118.077C104.624 117.873 105.537 117.277 106.14 116.415C106.743 115.553 106.989 114.492 106.828 113.452L105.631 105.671C105.487 104.705 104.999 103.823 104.258 103.187C103.517 102.551 102.571 102.204 101.594 102.208H92.1081L94.8994 98.8595C95.0907 98.6291 95.3303 98.4438 95.6014 98.3167C95.8725 98.1897 96.1683 98.124 96.4677 98.1244H97.263C97.4734 98.7195 97.8626 99.2351 98.3772 99.6006C98.8918 99.9661 99.5069 100.164 100.138 100.166H104.222C105.034 100.166 105.813 99.8436 106.388 99.2692C106.962 98.6948 107.285 97.9157 107.285 97.1034C107.285 96.291 106.962 95.512 106.388 94.9376C105.813 94.3631 105.034 94.0404 104.222 94.0404H100.138C99.5069 94.0431 98.8918 94.2406 98.3772 94.6061C97.8626 94.9717 97.4734 95.4873 97.263 96.0824H96.4677C95.8688 96.0815 95.2772 96.2127 94.7349 96.4667C94.1925 96.7206 93.7129 97.0911 93.3302 97.5516L89.4504 102.208H85.6994C85.4737 101.334 84.9647 100.559 84.252 100.005C83.5394 99.4511 82.6632 99.1487 81.7604 99.1453H78.6975C78.6781 99.1453 78.6607 99.1556 78.6413 99.1566C77.8964 98.4959 76.9365 98.129 75.9408 98.1244H60.3198C59.2366 98.1244 58.1979 98.5546 57.432 99.3205C56.6661 100.086 56.2358 101.125 56.2358 102.208V109.355C56.2358 110.168 56.5585 110.947 57.133 111.521C57.7074 112.095 58.4864 112.418 59.2988 112.418H60.3075C60.3006 116.115 59.8845 119.8 59.067 123.405C59.0307 123.536 59.021 123.674 59.0387 123.809C59.0564 123.945 59.101 124.075 59.17 124.193C59.2389 124.31 59.3308 124.413 59.4401 124.495C59.5494 124.577 59.674 124.635 59.8065 124.668C59.939 124.701 60.0767 124.707 60.2114 124.685C60.3462 124.664 60.4753 124.616 60.5911 124.543C60.7069 124.471 60.8071 124.377 60.8857 124.265C60.9643 124.153 61.0197 124.027 61.0488 123.894C61.9056 120.129 62.3419 116.28 62.3495 112.418H64.3914C64.2199 124.353 61.1651 130.796 58.2778 130.796C58.007 130.796 57.7473 130.903 57.5559 131.095C57.3644 131.286 57.2568 131.546 57.2568 131.817C57.2568 132.088 57.3644 132.347 57.5559 132.539C57.7473 132.73 58.007 132.838 58.2778 132.838C63.0305 132.838 66.2568 124.67 66.4293 112.418H69.4923C69.3248 124.353 66.2701 130.796 63.3827 130.796C63.1119 130.796 62.8522 130.903 62.6608 131.095C62.4693 131.286 62.3617 131.546 62.3617 131.817C62.3617 132.088 62.4693 132.347 62.6608 132.539C62.8522 132.73 63.1119 132.838 63.3827 132.838C68.1354 132.838 71.3617 124.67 71.5342 112.418H74.5972C74.4297 124.353 71.375 130.796 68.4876 130.796C68.2168 130.796 67.9572 130.903 67.7657 131.095C67.5742 131.286 67.4666 131.546 67.4666 131.817C67.4666 132.088 67.5742 132.347 67.7657 132.539C67.9572 132.73 68.2168 132.838 68.4876 132.838C73.2403 132.838 76.4666 124.67 76.6392 112.418H78.2891L77.6846 116.347C77.6482 116.585 77.697 116.828 77.8226 117.034C77.9481 117.239 78.1423 117.394 78.3707 117.47L81.7042 118.581C82.315 118.783 82.8464 119.173 83.223 119.695C83.5996 120.217 83.8023 120.844 83.8024 121.488V129.775H76.0848C75.4427 129.776 74.8172 129.979 74.2967 130.355C73.7762 130.731 73.387 131.261 73.1841 131.87L72.6287 133.536C72.5777 133.689 72.5638 133.852 72.5879 134.012C72.6121 134.171 72.6737 134.323 72.7678 134.454C72.8618 134.585 72.9856 134.692 73.129 134.766C73.2723 134.84 73.4312 134.879 73.5925 134.88H105.243C105.405 134.88 105.564 134.841 105.708 134.768C105.852 134.694 105.977 134.587 106.071 134.456C106.166 134.325 106.228 134.173 106.253 134.013C106.277 133.853 106.263 133.69 106.212 133.536L105.651 131.869C105.448 131.26 105.059 130.73 104.539 130.354C104.018 129.979 103.393 129.776 102.751 129.775H97.0751V121.892C97.0766 121.184 97.3225 120.499 97.7713 119.951C98.22 119.404 98.844 119.028 99.5377 118.888V118.888ZM100.138 96.0824H104.222C104.493 96.0824 104.752 96.19 104.944 96.3814C105.135 96.5729 105.243 96.8326 105.243 97.1034C105.243 97.3742 105.135 97.6339 104.944 97.8253C104.752 98.0168 104.493 98.1244 104.222 98.1244H100.138C99.8673 98.1244 99.6076 98.0168 99.4161 97.8253C99.2247 97.6339 99.1171 97.3742 99.1171 97.1034C99.1171 96.8326 99.2247 96.5729 99.4161 96.3814C99.6076 96.19 99.8673 96.0824 100.138 96.0824ZM83.5185 102.208H80.7394C80.7282 102.208 80.719 102.213 80.7078 102.214L80.0921 101.187H81.7604C82.1172 101.188 82.4675 101.283 82.7761 101.462C83.0847 101.642 83.3407 101.899 83.5185 102.208ZM58.2778 109.355V102.208C58.2778 101.667 58.4929 101.147 58.8759 100.764C59.2588 100.381 59.7782 100.166 60.3198 100.166H75.9408C76.2932 100.167 76.6395 100.259 76.9461 100.433C77.2528 100.606 77.5096 100.856 77.6918 101.158L79.549 104.25L78.6066 110.376H59.2988C59.028 110.376 58.7683 110.269 58.5768 110.077C58.3854 109.886 58.2778 109.626 58.2778 109.355ZM103.719 132.515L103.826 132.838H75.0086L75.1158 132.515C75.1836 132.312 75.3136 132.135 75.4875 132.01C75.6614 131.884 75.8704 131.817 76.0848 131.817H102.751C102.965 131.817 103.174 131.884 103.347 132.01C103.521 132.135 103.651 132.312 103.719 132.515ZM85.8443 129.775V121.488C85.8452 120.416 85.5086 119.372 84.8821 118.502C84.2557 117.633 83.3713 116.983 82.3546 116.645L79.8379 115.807L81.6154 104.25H101.594C102.082 104.249 102.555 104.424 102.925 104.742C103.295 105.061 103.538 105.503 103.609 105.986L104.806 113.767C104.886 114.287 104.763 114.817 104.461 115.248C104.16 115.679 103.704 115.977 103.188 116.08L99.1324 116.891C97.9781 117.126 96.94 117.751 96.1933 118.662C95.4466 119.573 95.0368 120.714 95.0332 121.892V129.775H85.8443Z" fill="#4CBBC2"/>
<path d="M99.5377 118.888L103.592 118.077C104.624 117.873 105.537 117.277 106.14 116.415C106.743 115.553 106.989 114.492 106.828 113.452L105.631 105.671C105.487 104.705 104.999 103.823 104.258 103.187C103.517 102.551 102.571 102.204 101.594 102.208H92.1081L94.8994 98.8595C95.0907 98.6291 95.3303 98.4438 95.6014 98.3167C95.8725 98.1897 96.1683 98.124 96.4677 98.1244H97.263C97.4734 98.7195 97.8626 99.2351 98.3772 99.6006C98.8918 99.9661 99.5069 100.164 100.138 100.166H104.222C105.034 100.166 105.813 99.8436 106.388 99.2692C106.962 98.6948 107.285 97.9157 107.285 97.1034C107.285 96.291 106.962 95.512 106.388 94.9376C105.813 94.3631 105.034 94.0404 104.222 94.0404H100.138C99.5069 94.0431 98.8918 94.2406 98.3772 94.6061C97.8626 94.9717 97.4734 95.4873 97.263 96.0824H96.4677C95.8688 96.0815 95.2772 96.2127 94.7349 96.4667C94.1925 96.7206 93.7129 97.0911 93.3302 97.5516L89.4504 102.208H85.6994C85.4737 101.334 84.9647 100.559 84.252 100.005C83.5394 99.4511 82.6632 99.1487 81.7604 99.1453H78.6975C78.6781 99.1453 78.6607 99.1556 78.6413 99.1566C77.8964 98.4959 76.9365 98.129 75.9408 98.1244H60.3198C59.2366 98.1244 58.1979 98.5546 57.432 99.3205C56.6661 100.086 56.2358 101.125 56.2358 102.208V109.355C56.2358 110.168 56.5585 110.947 57.133 111.521C57.7074 112.095 58.4864 112.418 59.2988 112.418H60.3075C60.3006 116.115 59.8845 119.8 59.067 123.405C59.0307 123.536 59.021 123.674 59.0387 123.809C59.0564 123.945 59.101 124.075 59.17 124.193C59.2389 124.31 59.3308 124.413 59.4401 124.495C59.5494 124.577 59.674 124.635 59.8065 124.668C59.939 124.701 60.0767 124.707 60.2114 124.685C60.3462 124.664 60.4753 124.616 60.5911 124.543C60.7069 124.471 60.8071 124.377 60.8857 124.265C60.9643 124.153 61.0197 124.027 61.0488 123.894C61.9056 120.129 62.3419 116.28 62.3495 112.418H64.3914C64.2199 124.353 61.1651 130.796 58.2778 130.796C58.007 130.796 57.7473 130.903 57.5559 131.095C57.3644 131.286 57.2568 131.546 57.2568 131.817C57.2568 132.088 57.3644 132.347 57.5559 132.539C57.7473 132.73 58.007 132.838 58.2778 132.838C63.0305 132.838 66.2568 124.67 66.4293 112.418H69.4923C69.3248 124.353 66.2701 130.796 63.3827 130.796C63.1119 130.796 62.8522 130.903 62.6608 131.095C62.4693 131.286 62.3617 131.546 62.3617 131.817C62.3617 132.088 62.4693 132.347 62.6608 132.539C62.8522 132.73 63.1119 132.838 63.3827 132.838C68.1354 132.838 71.3617 124.67 71.5342 112.418H74.5972C74.4297 124.353 71.375 130.796 68.4876 130.796C68.2168 130.796 67.9572 130.903 67.7657 131.095C67.5742 131.286 67.4666 131.546 67.4666 131.817C67.4666 132.088 67.5742 132.347 67.7657 132.539C67.9572 132.73 68.2168 132.838 68.4876 132.838C73.2403 132.838 76.4666 124.67 76.6392 112.418H78.2891L77.6846 116.347C77.6482 116.585 77.697 116.828 77.8226 117.034C77.9481 117.239 78.1423 117.394 78.3707 117.47L81.7042 118.581C82.315 118.783 82.8464 119.173 83.223 119.695C83.5996 120.217 83.8023 120.844 83.8024 121.488V129.775H76.0848C75.4427 129.776 74.8172 129.979 74.2967 130.355C73.7762 130.731 73.387 131.261 73.1841 131.87L72.6287 133.536C72.5777 133.689 72.5638 133.852 72.5879 134.012C72.6121 134.171 72.6737 134.323 72.7678 134.454C72.8618 134.585 72.9856 134.692 73.129 134.766C73.2723 134.84 73.4312 134.879 73.5925 134.88H105.243C105.405 134.88 105.564 134.841 105.708 134.768C105.852 134.694 105.977 134.587 106.071 134.456C106.166 134.325 106.228 134.173 106.253 134.013C106.277 133.853 106.263 133.69 106.212 133.536L105.651 131.869C105.448 131.26 105.059 130.73 104.539 130.354C104.018 129.979 103.393 129.776 102.751 129.775H97.0751V121.892C97.0766 121.184 97.3225 120.499 97.7713 119.951C98.22 119.404 98.844 119.028 99.5377 118.888V118.888ZM100.138 96.0824H104.222C104.493 96.0824 104.752 96.19 104.944 96.3814C105.135 96.5729 105.243 96.8326 105.243 97.1034C105.243 97.3742 105.135 97.6339 104.944 97.8253C104.752 98.0168 104.493 98.1244 104.222 98.1244H100.138C99.8673 98.1244 99.6076 98.0168 99.4161 97.8253C99.2247 97.6339 99.1171 97.3742 99.1171 97.1034C99.1171 96.8326 99.2247 96.5729 99.4161 96.3814C99.6076 96.19 99.8673 96.0824 100.138 96.0824ZM83.5185 102.208H80.7394C80.7282 102.208 80.719 102.213 80.7078 102.214L80.0921 101.187H81.7604C82.1172 101.188 82.4675 101.283 82.7761 101.462C83.0847 101.642 83.3407 101.899 83.5185 102.208ZM58.2778 109.355V102.208C58.2778 101.667 58.4929 101.147 58.8759 100.764C59.2588 100.381 59.7782 100.166 60.3198 100.166H75.9408C76.2932 100.167 76.6395 100.259 76.9461 100.433C77.2528 100.606 77.5096 100.856 77.6918 101.158L79.549 104.25L78.6066 110.376H59.2988C59.028 110.376 58.7683 110.269 58.5768 110.077C58.3854 109.886 58.2778 109.626 58.2778 109.355ZM103.719 132.515L103.826 132.838H75.0086L75.1158 132.515C75.1836 132.312 75.3136 132.135 75.4875 132.01C75.6614 131.884 75.8704 131.817 76.0848 131.817H102.751C102.965 131.817 103.174 131.884 103.347 132.01C103.521 132.135 103.651 132.312 103.719 132.515ZM85.8443 129.775V121.488C85.8452 120.416 85.5086 119.372 84.8821 118.502C84.2557 117.633 83.3713 116.983 82.3546 116.645L79.8379 115.807L81.6154 104.25H101.594C102.082 104.249 102.555 104.424 102.925 104.742C103.295 105.061 103.538 105.503 103.609 105.986L104.806 113.767C104.886 114.287 104.763 114.817 104.461 115.248C104.16 115.679 103.704 115.977 103.188 116.08L99.1324 116.891C97.9781 117.126 96.94 117.751 96.1933 118.662C95.4466 119.573 95.0368 120.714 95.0332 121.892V129.775H85.8443Z" fill="#4CBBC2"/>
<path d="M66.4457 102.208C66.4457 101.938 66.3382 101.678 66.1467 101.486C65.9552 101.295 65.6955 101.187 65.4247 101.187H61.3408C61.07 101.187 60.8103 101.295 60.6189 101.486C60.4274 101.678 60.3198 101.938 60.3198 102.208C60.3198 102.479 60.4274 102.739 60.6189 102.93C60.8103 103.122 61.07 103.229 61.3408 103.229H65.4247C65.6955 103.229 65.9552 103.122 66.1467 102.93C66.3382 102.739 66.4457 102.479 66.4457 102.208Z" fill="#4CBBC2"/>
<path d="M89.9283 107.313C89.1206 107.313 88.331 107.553 87.6594 108.001C86.9878 108.45 86.4643 109.088 86.1552 109.834C85.8461 110.581 85.7653 111.402 85.9228 112.194C86.0804 112.986 86.4694 113.714 87.0405 114.285C87.6117 114.856 88.3394 115.245 89.1316 115.403C89.9238 115.56 90.7449 115.479 91.4911 115.17C92.2374 114.861 92.8752 114.338 93.324 113.666C93.7727 112.994 94.0122 112.205 94.0122 111.397C94.0122 110.314 93.582 109.275 92.8161 108.509C92.0502 107.743 91.0114 107.313 89.9283 107.313ZM89.9283 113.439C89.5244 113.439 89.1296 113.319 88.7938 113.095C88.458 112.871 88.1963 112.552 88.0418 112.179C87.8872 111.805 87.8468 111.395 87.9256 110.999C88.0044 110.603 88.1988 110.239 88.4844 109.953C88.77 109.668 89.1338 109.473 89.5299 109.394C89.926 109.316 90.3366 109.356 90.7097 109.511C91.0828 109.665 91.4018 109.927 91.6261 110.263C91.8505 110.598 91.9703 110.993 91.9703 111.397C91.9703 111.939 91.7551 112.458 91.3722 112.841C90.9892 113.224 90.4699 113.439 89.9283 113.439Z" fill="#4CBBC2"/>
</g>
</svg>
