<svg width="37" height="37" viewBox="0 0 37 37" fill="none" xmlns="http://www.w3.org/2000/svg">
<circle cx="18.5" cy="18.5" r="16.78" stroke="#393A32" stroke-width="2.56"/>
<path d="M23.8333 11H21.7504C20.8339 11 20.0833 11.7488 20.0833 12.6663V24.3337C20.0833 25.2493 20.8339 26 21.7504 26H23.8333C24.7506 26 25.5004 25.2493 25.5004 24.3337V12.6663C25.5004 11.7488 24.7506 11 23.8333 11Z" fill="#1A1A1A"/>
<path d="M15.75 11H13.6672C12.7498 11 12 11.7488 12 12.6663V24.3337C12 25.2493 12.7498 26 13.6672 26H15.75C16.6665 26 17.4172 25.2493 17.4172 24.3337V12.6663C17.4172 11.7488 16.6665 11 15.75 11Z" fill="#1A1A1A"/>
</svg>
