<svg width="59" height="59" viewBox="0 0 59 59" fill="none" xmlns="http://www.w3.org/2000/svg">
<path d="M39.5214 16H35.5573C33.813 16 32.3843 17.4252 32.3843 19.1714V41.377C32.3843 43.1197 33.813 44.5484 35.5573 44.5484H39.5214C41.2673 44.5484 42.6944 43.1197 42.6944 41.377V19.1714C42.6944 17.4252 41.2673 16 39.5214 16Z" fill="#393A32"/>
<path d="M24.1371 16H20.173C18.4271 16 17 17.4252 17 19.1714V41.377C17 43.1197 18.4271 44.5484 20.173 44.5484H24.1371C25.8814 44.5484 27.3101 43.1197 27.3101 41.377V19.1714C27.3101 17.4252 25.8814 16 24.1371 16Z" fill="#393A32"/>
<path d="M29.5 0C13.2344 0 0 13.2337 0 29.5C0 45.7663 13.2344 59 29.5 59C45.7663 59 59 45.7656 59 29.5C59 13.2344 45.7663 0 29.5 0ZM29.5 54.183C15.8894 54.183 4.81637 43.1093 4.81637 29.5C4.81637 15.8907 15.8894 4.81702 29.5 4.81702C43.1106 4.81702 54.183 15.8894 54.183 29.5C54.183 43.1106 43.1106 54.183 29.5 54.183Z" fill="#393A32"/>
</svg>
