<svg width="158" height="224" viewBox="0 0 158 224" fill="none" xmlns="http://www.w3.org/2000/svg">
<rect width="158" height="224" rx="5" fill="#FFD300"/>
<mask id="path-2-inside-1" fill="white">
<rect x="9" y="9" width="140" height="207" rx="2"/>
</mask>
<rect x="9" y="9" width="140" height="207" rx="2" fill="white" stroke="#2179B9" stroke-width="14" mask="url(#path-2-inside-1)"/>
<path d="M68.7878 167.476H68.0318V165.988H68.7878V165.484C68.7878 164.596 68.9998 163.924 69.4238 163.468C69.8558 163.012 70.4558 162.784 71.2238 162.784C71.8398 162.784 72.4118 162.94 72.9398 163.252L72.8558 164.872C72.3918 164.688 72.0038 164.596 71.6918 164.596C71.4518 164.596 71.2678 164.656 71.1398 164.776C71.0118 164.888 70.9478 165.052 70.9478 165.268C70.9478 165.476 71.0158 165.716 71.1518 165.988H72.8318V167.476H71.3198V172H68.7878V167.476ZM76.9786 172.096C76.3466 172.096 75.7826 171.984 75.2866 171.76C74.7986 171.536 74.4186 171.22 74.1466 170.812C73.8746 170.404 73.7386 169.94 73.7386 169.42V165.988H76.2106V169.384C76.2106 169.648 76.2826 169.856 76.4266 170.008C76.5786 170.152 76.7666 170.224 76.9906 170.224C77.2066 170.224 77.3826 170.152 77.5186 170.008C77.6626 169.856 77.7346 169.648 77.7346 169.384V165.988H80.1586V169.42C80.1586 169.948 80.0226 170.416 79.7506 170.824C79.4866 171.224 79.1146 171.536 78.6346 171.76C78.1546 171.984 77.6026 172.096 76.9786 172.096ZM83.6378 172.096C82.7978 172.096 82.0618 171.972 81.4298 171.724L81.7058 170.296C82.2818 170.504 82.8418 170.608 83.3858 170.608C83.7858 170.608 83.9858 170.496 83.9858 170.272C83.9858 170.16 83.9258 170.068 83.8058 169.996C83.6938 169.924 83.4778 169.86 83.1578 169.804C82.4938 169.676 82.0138 169.46 81.7178 169.156C81.4298 168.852 81.2858 168.42 81.2858 167.86C81.3178 167.228 81.5698 166.744 82.0418 166.408C82.5138 166.072 83.1578 165.904 83.9738 165.904C84.3898 165.904 84.7458 165.932 85.0418 165.988C85.3458 166.036 85.6218 166.12 85.8698 166.24L85.6178 167.668C85.3858 167.58 85.1298 167.512 84.8498 167.464C84.5778 167.416 84.3498 167.392 84.1658 167.392C83.8938 167.392 83.7058 167.42 83.6018 167.476C83.4978 167.532 83.4458 167.608 83.4458 167.704C83.4458 167.88 83.6458 168.004 84.0458 168.076C84.7738 168.204 85.3178 168.428 85.6778 168.748C86.0378 169.068 86.2178 169.504 86.2178 170.056C86.2178 170.688 85.9938 171.188 85.5458 171.556C85.1058 171.916 84.4698 172.096 83.6378 172.096ZM90.5008 172.096C89.8288 172.096 89.2288 171.964 88.7008 171.7C88.1808 171.436 87.7728 171.072 87.4768 170.608C87.1888 170.136 87.0448 169.596 87.0448 168.988C87.0448 168.38 87.1928 167.844 87.4888 167.38C87.7848 166.908 88.1928 166.544 88.7128 166.288C89.2408 166.032 89.8408 165.904 90.5128 165.904C91.1928 165.904 91.7928 166.036 92.3128 166.3C92.8408 166.556 93.2488 166.916 93.5368 167.38C93.8248 167.844 93.9688 168.38 93.9688 168.988C93.9688 169.604 93.8208 170.148 93.5248 170.62C93.2368 171.084 92.8288 171.448 92.3008 171.712C91.7808 171.968 91.1808 172.096 90.5008 172.096ZM90.5248 170.296C90.8528 170.296 91.1208 170.176 91.3288 169.936C91.5448 169.688 91.6528 169.372 91.6528 168.988C91.6528 168.604 91.5448 168.292 91.3288 168.052C91.1208 167.804 90.8528 167.68 90.5248 167.68C90.1968 167.68 89.9248 167.804 89.7088 168.052C89.5008 168.292 89.3968 168.604 89.3968 168.988C89.3968 169.372 89.5008 169.688 89.7088 169.936C89.9248 170.176 90.1968 170.296 90.5248 170.296Z" fill="#2179B9"/>
<path d="M33.2146 187.672C33.2146 186.752 33.2666 186.092 33.3706 185.692C33.4826 185.284 33.7026 185.004 34.0306 184.852C34.3666 184.7 34.9146 184.624 35.6746 184.624V186.028C35.2666 186.028 34.9986 186.036 34.8706 186.052C34.7426 186.068 34.6586 186.116 34.6186 186.196C34.5786 186.276 34.5586 186.428 34.5586 186.652H35.6746V188.896H33.2146V187.672ZM36.3346 187.672C36.3346 186.752 36.3866 186.092 36.4906 185.692C36.6026 185.284 36.8226 185.004 37.1506 184.852C37.4866 184.7 38.0346 184.624 38.7946 184.624V186.028C38.3866 186.028 38.1186 186.036 37.9906 186.052C37.8626 186.068 37.7786 186.116 37.7386 186.196C37.6986 186.276 37.6786 186.428 37.6786 186.652H38.7946V188.896H36.3346V187.672ZM42.2829 193.096C41.6029 193.096 41.0749 192.884 40.6989 192.46C40.3309 192.028 40.1469 191.44 40.1469 190.696V185.092L42.6789 184.72V190.516C42.6789 190.74 42.7309 190.904 42.8349 191.008C42.9469 191.104 43.1389 191.152 43.4109 191.152C43.6109 191.152 43.8069 191.104 43.9989 191.008L44.0829 192.688C43.5469 192.96 42.9469 193.096 42.2829 193.096ZM47.058 193.096C46.386 193.096 45.862 192.88 45.486 192.448C45.11 192.016 44.922 191.428 44.922 190.684V186.988H47.466V190.576C47.466 190.76 47.514 190.904 47.61 191.008C47.714 191.104 47.846 191.152 48.006 191.152C48.166 191.152 48.33 191.104 48.498 191.008L48.63 192.676C48.454 192.812 48.222 192.916 47.934 192.988C47.654 193.06 47.362 193.096 47.058 193.096ZM46.194 186.088C45.818 186.088 45.498 185.972 45.234 185.74C44.978 185.5 44.85 185.208 44.85 184.864C44.85 184.52 44.986 184.232 45.258 184C45.53 183.768 45.842 183.652 46.194 183.652C46.562 183.652 46.878 183.772 47.142 184.012C47.414 184.252 47.55 184.536 47.55 184.864C47.55 185.216 47.414 185.508 47.142 185.74C46.87 185.972 46.554 186.088 46.194 186.088ZM52.0679 193.096C51.3639 193.096 50.8159 192.896 50.4239 192.496C50.0319 192.088 49.8359 191.528 49.8359 190.816V188.476H49.0679V186.988H50.0159L51.1319 184.72H52.3439V186.988H53.7359V188.476H52.3439V190.516C52.3439 190.716 52.4079 190.872 52.5359 190.984C52.6639 191.096 52.8439 191.152 53.0759 191.152C53.2919 191.152 53.4879 191.104 53.6639 191.008L53.7599 192.688C53.5599 192.808 53.2999 192.908 52.9799 192.988C52.6679 193.06 52.3639 193.096 52.0679 193.096ZM57.5228 193.096C56.8188 193.096 56.2708 192.896 55.8788 192.496C55.4868 192.088 55.2908 191.528 55.2908 190.816V188.476H54.5228V186.988H55.4708L56.5868 184.72H57.7988V186.988H59.1908V188.476H57.7988V190.516C57.7988 190.716 57.8628 190.872 57.9908 190.984C58.1188 191.096 58.2988 191.152 58.5308 191.152C58.7468 191.152 58.9428 191.104 59.1188 191.008L59.2148 192.688C59.0148 192.808 58.7548 192.908 58.4348 192.988C58.1228 193.06 57.8188 193.096 57.5228 193.096ZM62.4616 193.096C61.7816 193.096 61.2536 192.884 60.8776 192.46C60.5096 192.028 60.3256 191.44 60.3256 190.696V185.092L62.8576 184.72V190.516C62.8576 190.74 62.9096 190.904 63.0136 191.008C63.1256 191.104 63.3176 191.152 63.5896 191.152C63.7896 191.152 63.9856 191.104 64.1776 191.008L64.2616 192.688C63.7256 192.96 63.1256 193.096 62.4616 193.096ZM68.2328 193.096C67.5688 193.096 66.9768 192.964 66.4568 192.7C65.9448 192.428 65.5448 192.06 65.2568 191.596C64.9688 191.124 64.8248 190.592 64.8248 190C64.8248 189.392 64.9728 188.852 65.2688 188.38C65.5648 187.908 65.9648 187.544 66.4688 187.288C66.9728 187.032 67.5328 186.904 68.1488 186.904C68.7408 186.904 69.2448 187.036 69.6608 187.3C70.0848 187.556 70.4008 187.908 70.6088 188.356C70.8168 188.796 70.9208 189.292 70.9208 189.844C70.9208 189.988 70.9128 190.092 70.8968 190.156L67.2968 190.624C67.3928 190.904 67.5488 191.108 67.7648 191.236C67.9808 191.356 68.2648 191.416 68.6168 191.416C69.1608 191.416 69.7488 191.276 70.3808 190.996L70.6808 192.604C69.9368 192.932 69.1208 193.096 68.2328 193.096ZM69.0608 189.112C68.9328 188.608 68.6288 188.356 68.1488 188.356C67.8608 188.356 67.6328 188.464 67.4648 188.68C67.2968 188.896 67.2088 189.176 67.2008 189.52L69.0608 189.112ZM76.587 193.096C75.747 193.096 75.011 192.972 74.379 192.724L74.655 191.296C75.231 191.504 75.791 191.608 76.335 191.608C76.735 191.608 76.935 191.496 76.935 191.272C76.935 191.16 76.875 191.068 76.755 190.996C76.643 190.924 76.427 190.86 76.107 190.804C75.443 190.676 74.963 190.46 74.667 190.156C74.379 189.852 74.235 189.42 74.235 188.86C74.267 188.228 74.519 187.744 74.991 187.408C75.463 187.072 76.107 186.904 76.923 186.904C77.339 186.904 77.695 186.932 77.991 186.988C78.295 187.036 78.571 187.12 78.819 187.24L78.567 188.668C78.335 188.58 78.079 188.512 77.799 188.464C77.527 188.416 77.299 188.392 77.115 188.392C76.843 188.392 76.655 188.42 76.551 188.476C76.447 188.532 76.395 188.608 76.395 188.704C76.395 188.88 76.595 189.004 76.995 189.076C77.723 189.204 78.267 189.428 78.627 189.748C78.987 190.068 79.167 190.504 79.167 191.056C79.167 191.688 78.943 192.188 78.495 192.556C78.055 192.916 77.419 193.096 76.587 193.096ZM80.294 187.072H82.826V188.116C83.21 187.308 83.862 186.904 84.782 186.904C85.318 186.904 85.81 187.04 86.258 187.312C86.714 187.576 87.07 187.944 87.326 188.416C87.59 188.888 87.722 189.416 87.722 190C87.722 190.584 87.586 191.112 87.314 191.584C87.05 192.056 86.69 192.428 86.234 192.7C85.786 192.964 85.306 193.096 84.794 193.096C83.882 193.096 83.226 192.692 82.826 191.884V194.56L80.294 195.04V187.072ZM84.026 191.2C84.354 191.2 84.634 191.08 84.866 190.84C85.098 190.6 85.214 190.32 85.214 190C85.214 189.664 85.094 189.38 84.854 189.148C84.622 188.916 84.346 188.8 84.026 188.8C83.698 188.8 83.418 188.916 83.186 189.148C82.954 189.372 82.838 189.64 82.838 189.952V190C82.838 190.336 82.954 190.62 83.186 190.852C83.426 191.084 83.706 191.2 84.026 191.2ZM90.9897 193.096C90.3177 193.096 89.7937 192.88 89.4177 192.448C89.0417 192.016 88.8537 191.428 88.8537 190.684V186.988H91.3977V190.576C91.3977 190.76 91.4457 190.904 91.5417 191.008C91.6457 191.104 91.7777 191.152 91.9377 191.152C92.0977 191.152 92.2617 191.104 92.4297 191.008L92.5617 192.676C92.3857 192.812 92.1537 192.916 91.8657 192.988C91.5857 193.06 91.2937 193.096 90.9897 193.096ZM90.1257 186.088C89.7497 186.088 89.4297 185.972 89.1657 185.74C88.9097 185.5 88.7817 185.208 88.7817 184.864C88.7817 184.52 88.9177 184.232 89.1897 184C89.4617 183.768 89.7737 183.652 90.1257 183.652C90.4937 183.652 90.8097 183.772 91.0737 184.012C91.3457 184.252 91.4817 184.536 91.4817 184.864C91.4817 185.216 91.3457 185.508 91.0737 185.74C90.8017 185.972 90.4857 186.088 90.1257 186.088ZM93.5005 187.072H95.9125V188.296C96.3765 187.368 97.1125 186.904 98.1205 186.904C98.8885 186.904 99.4885 187.18 99.9205 187.732C100.361 188.276 100.581 189.032 100.581 190V193H98.0605V189.748C98.0605 189.404 97.9845 189.14 97.8325 188.956C97.6885 188.772 97.4845 188.68 97.2205 188.68C97.0285 188.68 96.8405 188.744 96.6565 188.872C96.4725 188.992 96.3205 189.168 96.2005 189.4C96.0885 189.632 96.0325 189.896 96.0325 190.192V193H93.5005V187.072ZM104.607 193.096C104.063 193.096 103.567 192.952 103.119 192.664C102.679 192.376 102.331 191.996 102.075 191.524C101.819 191.044 101.691 190.536 101.691 190C101.691 189.432 101.823 188.912 102.087 188.44C102.359 187.96 102.719 187.584 103.167 187.312C103.623 187.04 104.107 186.904 104.619 186.904C105.083 186.904 105.475 187 105.795 187.192C106.123 187.384 106.387 187.692 106.587 188.116V185.092L109.119 184.72V193H106.587V191.884C106.211 192.692 105.551 193.096 104.607 193.096ZM105.399 191.2C105.735 191.2 106.015 191.08 106.239 190.84C106.471 190.6 106.587 190.32 106.587 190V189.952C106.587 189.64 106.467 189.372 106.227 189.148C105.987 188.916 105.711 188.8 105.399 188.8C105.063 188.8 104.779 188.92 104.547 189.16C104.323 189.392 104.211 189.672 104.211 190C104.211 190.336 104.327 190.62 104.559 190.852C104.799 191.084 105.079 191.2 105.399 191.2ZM112.698 193.096C112.018 193.096 111.49 192.884 111.114 192.46C110.746 192.028 110.562 191.44 110.562 190.696V185.092L113.094 184.72V190.516C113.094 190.74 113.146 190.904 113.25 191.008C113.362 191.104 113.554 191.152 113.826 191.152C114.026 191.152 114.222 191.104 114.414 191.008L114.498 192.688C113.962 192.96 113.362 193.096 112.698 193.096ZM118.469 193.096C117.805 193.096 117.213 192.964 116.693 192.7C116.181 192.428 115.781 192.06 115.493 191.596C115.205 191.124 115.061 190.592 115.061 190C115.061 189.392 115.209 188.852 115.505 188.38C115.801 187.908 116.201 187.544 116.705 187.288C117.209 187.032 117.769 186.904 118.385 186.904C118.977 186.904 119.481 187.036 119.897 187.3C120.321 187.556 120.637 187.908 120.845 188.356C121.053 188.796 121.157 189.292 121.157 189.844C121.157 189.988 121.149 190.092 121.133 190.156L117.533 190.624C117.629 190.904 117.785 191.108 118.001 191.236C118.217 191.356 118.501 191.416 118.853 191.416C119.397 191.416 119.985 191.276 120.617 190.996L120.917 192.604C120.173 192.932 119.357 193.096 118.469 193.096ZM119.297 189.112C119.169 188.608 118.865 188.356 118.385 188.356C118.097 188.356 117.869 188.464 117.701 188.68C117.533 188.896 117.445 189.176 117.437 189.52L119.297 189.112ZM122.209 187.612C122.617 187.612 122.885 187.604 123.013 187.588C123.141 187.572 123.225 187.524 123.265 187.444C123.305 187.364 123.325 187.212 123.325 186.988H122.209V184.744H124.669V185.968C124.669 186.888 124.613 187.552 124.501 187.96C124.397 188.36 124.177 188.636 123.841 188.788C123.513 188.94 122.969 189.016 122.209 189.016V187.612ZM125.329 187.612C125.737 187.612 126.005 187.604 126.133 187.588C126.261 187.572 126.345 187.524 126.385 187.444C126.425 187.364 126.445 187.212 126.445 186.988H125.329V184.744H127.789V185.968C127.789 186.888 127.733 187.552 127.621 187.96C127.517 188.36 127.297 188.636 126.961 188.788C126.633 188.94 126.089 189.016 125.329 189.016V187.612Z" fill="#393A32"/>
<path d="M48.919 121.616H57.451V124.352H52.789V126.854H57.109V129.122H52.789V134H48.919V121.616ZM64.6771 134.144C63.7291 134.144 62.8831 133.976 62.1391 133.64C61.4071 133.304 60.8371 132.83 60.4291 132.218C60.0211 131.606 59.8171 130.91 59.8171 130.13V124.982H63.5251V130.076C63.5251 130.472 63.6331 130.784 63.8491 131.012C64.0771 131.228 64.3591 131.336 64.6951 131.336C65.0191 131.336 65.2831 131.228 65.4871 131.012C65.7031 130.784 65.8111 130.472 65.8111 130.076V124.982H69.4471V130.13C69.4471 130.922 69.2431 131.624 68.8351 132.236C68.4391 132.836 67.8811 133.304 67.1611 133.64C66.4411 133.976 65.6131 134.144 64.6771 134.144ZM75.3859 134.144C74.1259 134.144 73.0219 133.958 72.0739 133.586L72.4879 131.444C73.3519 131.756 74.1919 131.912 75.0079 131.912C75.6079 131.912 75.9079 131.744 75.9079 131.408C75.9079 131.24 75.8179 131.102 75.6379 130.994C75.4699 130.886 75.1459 130.79 74.6659 130.706C73.6699 130.514 72.9499 130.19 72.5059 129.734C72.0739 129.278 71.8579 128.63 71.8579 127.79C71.9059 126.842 72.2839 126.116 72.9919 125.612C73.6999 125.108 74.6659 124.856 75.8899 124.856C76.5139 124.856 77.0479 124.898 77.4919 124.982C77.9479 125.054 78.3619 125.18 78.7339 125.36L78.3559 127.502C78.0079 127.37 77.6239 127.268 77.2039 127.196C76.7959 127.124 76.4539 127.088 76.1779 127.088C75.7699 127.088 75.4879 127.13 75.3319 127.214C75.1759 127.298 75.0979 127.412 75.0979 127.556C75.0979 127.82 75.3979 128.006 75.9979 128.114C77.0899 128.306 77.9059 128.642 78.4459 129.122C78.9859 129.602 79.2559 130.256 79.2559 131.084C79.2559 132.032 78.9199 132.782 78.2479 133.334C77.5879 133.874 76.6339 134.144 75.3859 134.144ZM84.8343 134.144C83.8263 134.144 83.0403 133.82 82.4763 133.172C81.9123 132.524 81.6303 131.642 81.6303 130.526V124.982H85.4463V130.364C85.4463 130.64 85.5183 130.856 85.6623 131.012C85.8183 131.156 86.0163 131.228 86.2563 131.228C86.4963 131.228 86.7423 131.156 86.9943 131.012L87.1923 133.514C86.9283 133.718 86.5803 133.874 86.1483 133.982C85.7283 134.09 85.2903 134.144 84.8343 134.144ZM83.5383 123.632C82.9743 123.632 82.4943 123.458 82.0983 123.11C81.7143 122.75 81.5223 122.312 81.5223 121.796C81.5223 121.28 81.7263 120.848 82.1343 120.5C82.5423 120.152 83.0103 119.978 83.5383 119.978C84.0903 119.978 84.5643 120.158 84.9603 120.518C85.3683 120.878 85.5723 121.304 85.5723 121.796C85.5723 122.324 85.3683 122.762 84.9603 123.11C84.5523 123.458 84.0783 123.632 83.5383 123.632ZM92.4885 134.144C91.4685 134.144 90.6765 133.826 90.1125 133.19C89.5605 132.542 89.2845 131.66 89.2845 130.544V122.138L93.0825 121.58V130.274C93.0825 130.61 93.1605 130.856 93.3165 131.012C93.4845 131.156 93.7725 131.228 94.1805 131.228C94.4805 131.228 94.7745 131.156 95.0625 131.012L95.1885 133.532C94.3845 133.94 93.4845 134.144 92.4885 134.144ZM100.371 134.144C99.3513 134.144 98.5593 133.826 97.9953 133.19C97.4433 132.542 97.1673 131.66 97.1673 130.544V122.138L100.965 121.58V130.274C100.965 130.61 101.043 130.856 101.199 131.012C101.367 131.156 101.655 131.228 102.063 131.228C102.363 131.228 102.657 131.156 102.945 131.012L103.071 133.532C102.267 133.94 101.367 134.144 100.371 134.144ZM108.254 134.144C107.246 134.144 106.46 133.82 105.896 133.172C105.332 132.524 105.05 131.642 105.05 130.526V124.982H108.866V130.364C108.866 130.64 108.938 130.856 109.082 131.012C109.238 131.156 109.436 131.228 109.676 131.228C109.916 131.228 110.162 131.156 110.414 131.012L110.612 133.514C110.348 133.718 110 133.874 109.568 133.982C109.148 134.09 108.71 134.144 108.254 134.144ZM106.958 123.632C106.394 123.632 105.914 123.458 105.518 123.11C105.134 122.75 104.942 122.312 104.942 121.796C104.942 121.28 105.146 120.848 105.554 120.5C105.962 120.152 106.43 119.978 106.958 119.978C107.51 119.978 107.984 120.158 108.38 120.518C108.788 120.878 108.992 121.304 108.992 121.796C108.992 122.324 108.788 122.762 108.38 123.11C107.972 123.458 107.498 123.632 106.958 123.632Z" fill="#393A32"/>
<rect x="46" y="145.901" width="65.45" height="0.897773" fill="#082D74"/>
<rect x="57.7809" y="145" width="13.9627" height="3.1422" fill="#3F8D43"/>
<rect x="71.7455" y="145" width="13.9627" height="3.1422" fill="white"/>
<rect x="85.7046" y="145" width="13.9627" height="3.1422" fill="#D12C29"/>
<path d="M57.2223 52.6152C57.6832 50.6788 58.4691 48.8346 59.5465 47.161C61.8612 43.5999 63.7167 43.7217 66.4813 39.7201C67.9251 37.6481 68.9151 35.2945 69.3864 32.8134C70.033 30.0957 69.6394 29.5053 69.3864 29.2804C68.2993 28.3432 65.3848 30.0113 64.4664 30.5455C59.5277 33.4132 59.7807 36.2246 56.5195 37.9864C51.5901 40.6291 46.2672 36.7962 45.1707 38.7455C44.3835 40.1512 46.4359 43.478 48.9193 45.1743C51.4027 46.8705 53.1833 46.4956 53.7081 47.892C54.4953 49.9724 50.8404 52.0997 51.5808 53.974C52.4054 56.0919 57.6253 54.8362 58.6843 57.1696C59.6214 59.1564 56.482 61.5461 57.4847 63.2048C58.4875 64.8636 61.9455 63.3923 62.9951 65.0135C64.1853 66.8878 60.5867 70.149 61.6738 71.7609C62.8827 73.5415 68.2337 70.9362 69.3489 72.595C70.4641 74.2537 65.6004 78.5552 66.7249 80.4013C67.7839 82.0694 72.6195 79.9421 73.641 81.6009C74.6625 83.2596 70.1549 87.1019 71.2513 88.9293C72.2447 90.5693 76.7242 88.7794 77.6426 90.3912C78.561 92.0031 74.5875 94.8614 75.3654 97.0262C75.7871 98.1976 77.6239 99.2285 83.0874 99.2378" stroke="#1A1A1A" stroke-width="4" stroke-linecap="round" stroke-linejoin="round"/>
<path d="M66.6968 39.5609C68.2469 39.2896 69.8324 39.2896 71.3825 39.5609C72.5539 39.7765 76.0682 40.4231 76.3118 41.9975C76.4899 43.0096 75.2529 43.6843 71.8698 46.5988C69.7641 48.2805 67.8275 50.1637 66.0876 52.2217C64.5372 54.2536 63.4121 56.5771 62.7795 59.0534" stroke="#1A1A1A" stroke-width="4" stroke-linecap="round" stroke-linejoin="round"/>
<path d="M71.9074 46.627C73.104 46.2473 74.3662 46.1195 75.6146 46.2518C76.863 46.384 78.0704 46.7734 79.1609 47.3954C79.9012 47.8734 81.6162 48.9604 81.7755 50.6567C81.8504 51.4532 81.6162 52.6528 77.6895 56.2139C74.8219 58.8098 73.791 59.2221 72.0667 60.8246C69.9455 62.7936 68.2074 65.1385 66.9406 67.7407" stroke="#1A1A1A" stroke-width="4" stroke-linecap="round" stroke-linejoin="round"/>
<path d="M77.6895 56.2419C79.6809 55.8038 81.7597 56.0038 83.631 56.8135C84.5681 57.2446 85.8801 57.8444 86.1894 59.0533C86.4986 60.2622 85.8145 61.2275 84.5963 62.6988C82.7967 64.7689 80.7583 66.6186 78.5236 68.2091C76.0722 70.2781 74.1805 72.9303 73.0226 75.9218" stroke="#1A1A1A" stroke-width="4" stroke-linecap="round" stroke-linejoin="round"/>
<path d="M82.5625 64.8354C86.6484 64.47 90.2096 65.5477 90.9967 67.6469C92.2713 70.8706 86.8171 75.7344 86.1424 76.3341C84.2681 78.0304 83.2185 78.2084 81.4004 80.1296C79.9497 81.6927 78.794 83.5056 77.9893 85.4806" stroke="#1A1A1A" stroke-width="4" stroke-linecap="round" stroke-linejoin="round"/>
<path d="M88.8696 74.2915C91.9528 74.2072 94.4175 75.3411 95.0828 77.1029C95.692 78.7617 94.6049 80.5141 93.9208 81.6293C91.8216 85.0311 89.1695 85.2654 85.6271 88.4329C83.9264 89.9681 82.4696 91.7536 81.3069 93.7278" stroke="#1A1A1A" stroke-width="4" stroke-linecap="round" stroke-linejoin="round"/>
<path d="M93.1242 82.7817C95.9356 82.2851 98.747 82.7817 99.8903 84.5154C101.896 87.608 97.36 92.9497 97.1632 93.1934C95.6263 94.9927 95.1577 94.5054 92.8149 97.0169C91.1843 98.7787 90.7063 99.8283 88.8039 101.44C87.1265 102.893 86.0769 103.783 85.0554 103.483C83.659 103.09 83.0499 100.803 83.1811 99.2004C83.2889 97.7791 83.9121 96.446 84.9336 95.4519" stroke="#1A1A1A" stroke-width="4" stroke-linecap="round" stroke-linejoin="round"/>
<path d="M95.5794 95.8174C95.9475 96.1946 96.2295 96.6471 96.4058 97.1438C96.5822 97.6405 96.6487 98.1695 96.6009 98.6944C96.226 100.381 93.6957 101.806 90.5282 101.122" stroke="#1A1A1A" stroke-width="4" stroke-linecap="round" stroke-linejoin="round"/>
</svg>
