<svg width="166" height="232" viewBox="0 0 166 232" fill="none" xmlns="http://www.w3.org/2000/svg">
<rect x="4" y="4" width="158" height="224" rx="5" fill="#FFF8F8" stroke="#F7575C" stroke-width="7"/>
<path d="M74.0809 21.344C73.6889 21.32 73.4009 21.376 73.2169 21.512C73.0409 21.648 72.9209 21.892 72.8569 22.244L72.8449 22.304H73.9489L73.6489 24.008H72.5449L71.6689 29H69.6049L70.4809 24.008H69.7369L70.0369 22.304H70.7809L70.8169 22.112C70.9689 21.288 71.3169 20.664 71.8609 20.24C72.4129 19.808 73.1449 19.592 74.0569 19.592C74.2009 19.592 74.3089 19.596 74.3809 19.604L74.0809 21.344ZM81.7531 22.304L80.5771 29H78.5251L78.6811 28.088C78.4171 28.384 78.0931 28.624 77.7091 28.808C77.3331 28.984 76.9291 29.072 76.4971 29.072C75.8251 29.072 75.2971 28.884 74.9131 28.508C74.5291 28.124 74.3371 27.592 74.3371 26.912C74.3371 26.656 74.3571 26.424 74.3971 26.216L75.0931 22.304H77.1331L76.4971 25.94C76.4731 26.068 76.4611 26.192 76.4611 26.312C76.4611 26.648 76.5531 26.908 76.7371 27.092C76.9291 27.268 77.1931 27.356 77.5291 27.356C77.9131 27.356 78.2371 27.244 78.5011 27.02C78.7731 26.788 78.9531 26.46 79.0411 26.036L79.7011 22.304H81.7531ZM85.0751 29.096C84.5471 29.096 84.0711 29.012 83.6471 28.844C83.2311 28.676 82.9031 28.444 82.6631 28.148C82.4231 27.844 82.3031 27.496 82.3031 27.104C82.3031 27.048 82.3111 26.948 82.3271 26.804H84.3071C84.2911 27.052 84.3631 27.252 84.5231 27.404C84.6911 27.548 84.9271 27.62 85.2311 27.62C85.4871 27.62 85.6991 27.572 85.8671 27.476C86.0351 27.38 86.1191 27.244 86.1191 27.068C86.1191 26.9 86.0271 26.768 85.8431 26.672C85.6671 26.568 85.3711 26.444 84.9551 26.3C84.5231 26.156 84.1591 26.016 83.8631 25.88C83.5751 25.736 83.3271 25.532 83.1191 25.268C82.9111 25.004 82.8071 24.672 82.8071 24.272C82.8071 23.88 82.9231 23.528 83.1551 23.216C83.3871 22.896 83.7111 22.648 84.1271 22.472C84.5511 22.296 85.0391 22.208 85.5911 22.208C86.1431 22.208 86.6231 22.3 87.0311 22.484C87.4391 22.66 87.7551 22.908 87.9791 23.228C88.2031 23.548 88.3151 23.908 88.3151 24.308L88.3031 24.488H86.4431C86.4591 24.248 86.3871 24.056 86.2271 23.912C86.0671 23.768 85.8391 23.696 85.5431 23.696C85.3111 23.696 85.1191 23.744 84.9671 23.84C84.8231 23.936 84.7511 24.068 84.7511 24.236C84.7511 24.412 84.8471 24.56 85.0391 24.68C85.2391 24.792 85.5471 24.92 85.9631 25.064C86.3951 25.208 86.7511 25.352 87.0311 25.496C87.3191 25.632 87.5631 25.828 87.7631 26.084C87.9711 26.332 88.0751 26.644 88.0751 27.02C88.0751 27.452 87.9431 27.824 87.6791 28.136C87.4231 28.448 87.0671 28.688 86.6111 28.856C86.1631 29.016 85.6511 29.096 85.0751 29.096ZM92.2825 29.096C91.7065 29.096 91.1945 28.98 90.7465 28.748C90.2985 28.516 89.9505 28.188 89.7025 27.764C89.4625 27.34 89.3425 26.848 89.3425 26.288C89.3425 25.528 89.5225 24.836 89.8825 24.212C90.2425 23.588 90.7385 23.1 91.3705 22.748C92.0025 22.388 92.7065 22.208 93.4825 22.208C94.0585 22.208 94.5705 22.328 95.0185 22.568C95.4745 22.8 95.8265 23.128 96.0745 23.552C96.3225 23.976 96.4465 24.468 96.4465 25.028C96.4465 25.796 96.2625 26.492 95.8945 27.116C95.5345 27.732 95.0345 28.216 94.3945 28.568C93.7625 28.92 93.0585 29.096 92.2825 29.096ZM92.5705 27.332C92.9065 27.332 93.2065 27.232 93.4705 27.032C93.7425 26.824 93.9505 26.56 94.0945 26.24C94.2465 25.912 94.3225 25.572 94.3225 25.22C94.3225 24.82 94.2145 24.512 93.9985 24.296C93.7825 24.08 93.5105 23.972 93.1825 23.972C92.8385 23.972 92.5345 24.076 92.2705 24.284C92.0145 24.484 91.8145 24.748 91.6705 25.076C91.5265 25.404 91.4545 25.748 91.4545 26.108C91.4545 26.5 91.5585 26.804 91.7665 27.02C91.9745 27.228 92.2425 27.332 92.5705 27.332Z" fill="#3CAA90"/>
<path d="M38.8419 44.792H36.7419L38.0859 41.576H39.4659L38.8419 44.792ZM41.5659 44.792H39.4779L40.8219 41.576H42.1899L41.5659 44.792ZM45.8141 41.12V50H43.7621V41.12H45.8141ZM48.5732 42.608C48.2132 42.608 47.9172 42.504 47.6852 42.296C47.4612 42.08 47.3492 41.816 47.3492 41.504C47.3492 41.184 47.4612 40.92 47.6852 40.712C47.9172 40.496 48.2132 40.388 48.5732 40.388C48.9252 40.388 49.2132 40.496 49.4372 40.712C49.6692 40.92 49.7852 41.184 49.7852 41.504C49.7852 41.816 49.6692 42.08 49.4372 42.296C49.2132 42.504 48.9252 42.608 48.5732 42.608ZM49.5932 43.304V50H47.5412V43.304H49.5932ZM55.0523 48.26V50H54.0083C53.2643 50 52.6843 49.82 52.2683 49.46C51.8523 49.092 51.6443 48.496 51.6443 47.672V45.008H50.8283V43.304H51.6443V41.672H53.6963V43.304H55.0403V45.008H53.6963V47.696C53.6963 47.896 53.7443 48.04 53.8403 48.128C53.9363 48.216 54.0963 48.26 54.3203 48.26H55.0523ZM60.1673 48.26V50H59.1233C58.3792 50 57.7992 49.82 57.3832 49.46C56.9672 49.092 56.7592 48.496 56.7592 47.672V45.008H55.9432V43.304H56.7592V41.672H58.8113V43.304H60.1552V45.008H58.8113V47.696C58.8113 47.896 58.8593 48.04 58.9553 48.128C59.0512 48.216 59.2112 48.26 59.4352 48.26H60.1673ZM63.6023 41.12V50H61.5503V41.12H63.6023ZM71.6413 46.544C71.6413 46.736 71.6293 46.936 71.6053 47.144H66.9613C66.9933 47.56 67.1253 47.88 67.3573 48.104C67.5973 48.32 67.8893 48.428 68.2333 48.428C68.7453 48.428 69.1013 48.212 69.3013 47.78H71.4853C71.3733 48.22 71.1693 48.616 70.8733 48.968C70.5853 49.32 70.2213 49.596 69.7813 49.796C69.3413 49.996 68.8493 50.096 68.3053 50.096C67.6493 50.096 67.0653 49.956 66.5533 49.676C66.0413 49.396 65.6413 48.996 65.3533 48.476C65.0653 47.956 64.9213 47.348 64.9213 46.652C64.9213 45.956 65.0613 45.348 65.3413 44.828C65.6293 44.308 66.0293 43.908 66.5413 43.628C67.0533 43.348 67.6413 43.208 68.3053 43.208C68.9533 43.208 69.5293 43.344 70.0333 43.616C70.5373 43.888 70.9293 44.276 71.2093 44.78C71.4973 45.284 71.6413 45.872 71.6413 46.544ZM69.5413 46.004C69.5413 45.652 69.4213 45.372 69.1813 45.164C68.9413 44.956 68.6413 44.852 68.2813 44.852C67.9373 44.852 67.6453 44.952 67.4053 45.152C67.1733 45.352 67.0293 45.636 66.9733 46.004H69.5413ZM78.4708 50.096C77.8868 50.096 77.3668 49.996 76.9108 49.796C76.4548 49.596 76.0948 49.324 75.8308 48.98C75.5668 48.628 75.4188 48.236 75.3868 47.804H77.4148C77.4388 48.036 77.5468 48.224 77.7388 48.368C77.9308 48.512 78.1668 48.584 78.4468 48.584C78.7028 48.584 78.8988 48.536 79.0348 48.44C79.1788 48.336 79.2508 48.204 79.2508 48.044C79.2508 47.852 79.1508 47.712 78.9508 47.624C78.7508 47.528 78.4268 47.424 77.9788 47.312C77.4988 47.2 77.0988 47.084 76.7788 46.964C76.4588 46.836 76.1828 46.64 75.9508 46.376C75.7188 46.104 75.6028 45.74 75.6028 45.284C75.6028 44.9 75.7068 44.552 75.9148 44.24C76.1308 43.92 76.4428 43.668 76.8508 43.484C77.2668 43.3 77.7588 43.208 78.3268 43.208C79.1668 43.208 79.8268 43.416 80.3068 43.832C80.7948 44.248 81.0748 44.8 81.1468 45.488H79.2508C79.2188 45.256 79.1148 45.072 78.9388 44.936C78.7708 44.8 78.5468 44.732 78.2668 44.732C78.0268 44.732 77.8428 44.78 77.7148 44.876C77.5868 44.964 77.5228 45.088 77.5228 45.248C77.5228 45.44 77.6228 45.584 77.8228 45.68C78.0308 45.776 78.3508 45.872 78.7828 45.968C79.2788 46.096 79.6828 46.224 79.9948 46.352C80.3068 46.472 80.5788 46.672 80.8108 46.952C81.0508 47.224 81.1748 47.592 81.1828 48.056C81.1828 48.448 81.0708 48.8 80.8468 49.112C80.6308 49.416 80.3148 49.656 79.8988 49.832C79.4908 50.008 79.0148 50.096 78.4708 50.096ZM84.7302 44.252C84.9302 43.94 85.2062 43.688 85.5582 43.496C85.9102 43.304 86.3222 43.208 86.7942 43.208C87.3462 43.208 87.8462 43.348 88.2942 43.628C88.7422 43.908 89.0942 44.308 89.3502 44.828C89.6142 45.348 89.7462 45.952 89.7462 46.64C89.7462 47.328 89.6142 47.936 89.3502 48.464C89.0942 48.984 88.7422 49.388 88.2942 49.676C87.8462 49.956 87.3462 50.096 86.7942 50.096C86.3302 50.096 85.9182 50 85.5582 49.808C85.2062 49.616 84.9302 49.368 84.7302 49.064V53.192H82.6782V43.304H84.7302V44.252ZM87.6582 46.64C87.6582 46.128 87.5142 45.728 87.2262 45.44C86.9462 45.144 86.5982 44.996 86.1822 44.996C85.7742 44.996 85.4262 45.144 85.1382 45.44C84.8582 45.736 84.7182 46.14 84.7182 46.652C84.7182 47.164 84.8582 47.568 85.1382 47.864C85.4262 48.16 85.7742 48.308 86.1822 48.308C86.5902 48.308 86.9382 48.16 87.2262 47.864C87.5142 47.56 87.6582 47.152 87.6582 46.64ZM92.0948 42.608C91.7348 42.608 91.4388 42.504 91.2068 42.296C90.9828 42.08 90.8708 41.816 90.8708 41.504C90.8708 41.184 90.9828 40.92 91.2068 40.712C91.4388 40.496 91.7348 40.388 92.0948 40.388C92.4468 40.388 92.7348 40.496 92.9588 40.712C93.1908 40.92 93.3068 41.184 93.3068 41.504C93.3068 41.816 93.1908 42.08 92.9588 42.296C92.7348 42.504 92.4468 42.608 92.0948 42.608ZM93.1148 43.304V50H91.0628V43.304H93.1148ZM98.9218 43.232C99.7058 43.232 100.33 43.488 100.794 44C101.266 44.504 101.502 45.2 101.502 46.088V50H99.4618V46.364C99.4618 45.916 99.3458 45.568 99.1138 45.32C98.8818 45.072 98.5698 44.948 98.1778 44.948C97.7858 44.948 97.4738 45.072 97.2418 45.32C97.0098 45.568 96.8938 45.916 96.8938 46.364V50H94.8418V43.304H96.8938V44.192C97.1018 43.896 97.3818 43.664 97.7338 43.496C98.0858 43.32 98.4818 43.232 98.9218 43.232ZM102.76 46.64C102.76 45.952 102.888 45.348 103.144 44.828C103.408 44.308 103.764 43.908 104.212 43.628C104.66 43.348 105.16 43.208 105.712 43.208C106.152 43.208 106.552 43.3 106.912 43.484C107.28 43.668 107.568 43.916 107.776 44.228V41.12H109.828V50H107.776V49.04C107.584 49.36 107.308 49.616 106.948 49.808C106.596 50 106.184 50.096 105.712 50.096C105.16 50.096 104.66 49.956 104.212 49.676C103.764 49.388 103.408 48.984 103.144 48.464C102.888 47.936 102.76 47.328 102.76 46.64ZM107.776 46.652C107.776 46.14 107.632 45.736 107.344 45.44C107.064 45.144 106.72 44.996 106.312 44.996C105.904 44.996 105.556 45.144 105.268 45.44C104.988 45.728 104.848 46.128 104.848 46.64C104.848 47.152 104.988 47.56 105.268 47.864C105.556 48.16 105.904 48.308 106.312 48.308C106.72 48.308 107.064 48.16 107.344 47.864C107.632 47.568 107.776 47.164 107.776 46.652ZM113.604 41.12V50H111.552V41.12H113.604ZM121.643 46.544C121.643 46.736 121.631 46.936 121.607 47.144H116.963C116.995 47.56 117.127 47.88 117.359 48.104C117.599 48.32 117.891 48.428 118.235 48.428C118.747 48.428 119.103 48.212 119.303 47.78H121.487C121.375 48.22 121.171 48.616 120.875 48.968C120.587 49.32 120.223 49.596 119.783 49.796C119.343 49.996 118.851 50.096 118.307 50.096C117.651 50.096 117.067 49.956 116.555 49.676C116.043 49.396 115.643 48.996 115.355 48.476C115.067 47.956 114.923 47.348 114.923 46.652C114.923 45.956 115.063 45.348 115.343 44.828C115.631 44.308 116.031 43.908 116.543 43.628C117.055 43.348 117.643 43.208 118.307 43.208C118.955 43.208 119.531 43.344 120.035 43.616C120.539 43.888 120.931 44.276 121.211 44.78C121.499 45.284 121.643 45.872 121.643 46.544ZM119.543 46.004C119.543 45.652 119.423 45.372 119.183 45.164C118.943 44.956 118.643 44.852 118.283 44.852C117.939 44.852 117.647 44.952 117.407 45.152C117.175 45.352 117.031 45.636 116.975 46.004H119.543ZM123.434 41.576H125.534L124.19 44.792H122.81L123.434 41.576ZM126.158 41.576H128.258L126.914 44.792H125.534L126.158 41.576Z" fill="#393A32"/>
<rect x="24" y="169" width="118" height="40" rx="2" fill="#3CAA90" fill-opacity="0.1"/>
<path d="M62.9666 187.344H61.4946V194H58.7586V187.344H57.7666V185.072H58.7586V184.816C58.7586 183.717 59.0733 182.885 59.7026 182.32C60.3319 181.744 61.2546 181.456 62.4706 181.456C62.6733 181.456 62.8226 181.461 62.9186 181.472V183.792C62.3959 183.76 62.0279 183.835 61.8146 184.016C61.6013 184.197 61.4946 184.523 61.4946 184.992V185.072H62.9666V187.344ZM74.0282 185.072V194H71.2922V192.784C71.0149 193.179 70.6362 193.499 70.1562 193.744C69.6869 193.979 69.1642 194.096 68.5882 194.096C67.9055 194.096 67.3029 193.947 66.7802 193.648C66.2575 193.339 65.8522 192.896 65.5642 192.32C65.2762 191.744 65.1322 191.067 65.1322 190.288V185.072H67.8522V189.92C67.8522 190.517 68.0069 190.981 68.3162 191.312C68.6255 191.643 69.0415 191.808 69.5642 191.808C70.0975 191.808 70.5189 191.643 70.8282 191.312C71.1375 190.981 71.2922 190.517 71.2922 189.92V185.072H74.0282ZM80.5855 194.128C79.8068 194.128 79.1135 193.995 78.5055 193.728C77.8975 193.461 77.4175 193.099 77.0655 192.64C76.7135 192.171 76.5161 191.648 76.4735 191.072H79.1775C79.2095 191.381 79.3535 191.632 79.6095 191.824C79.8655 192.016 80.1801 192.112 80.5535 192.112C80.8948 192.112 81.1561 192.048 81.3375 191.92C81.5295 191.781 81.6255 191.605 81.6255 191.392C81.6255 191.136 81.4921 190.949 81.2255 190.832C80.9588 190.704 80.5268 190.565 79.9295 190.416C79.2895 190.267 78.7561 190.112 78.3295 189.952C77.9028 189.781 77.5348 189.52 77.2255 189.168C76.9161 188.805 76.7615 188.32 76.7615 187.712C76.7615 187.2 76.9001 186.736 77.1775 186.32C77.4655 185.893 77.8815 185.557 78.4255 185.312C78.9801 185.067 79.6361 184.944 80.3935 184.944C81.5135 184.944 82.3935 185.221 83.0335 185.776C83.6841 186.331 84.0575 187.067 84.1535 187.984H81.6255C81.5828 187.675 81.4441 187.429 81.2095 187.248C80.9855 187.067 80.6868 186.976 80.3135 186.976C79.9935 186.976 79.7481 187.04 79.5775 187.168C79.4068 187.285 79.3215 187.451 79.3215 187.664C79.3215 187.92 79.4548 188.112 79.7215 188.24C79.9988 188.368 80.4255 188.496 81.0015 188.624C81.6628 188.795 82.2015 188.965 82.6175 189.136C83.0335 189.296 83.3961 189.563 83.7055 189.936C84.0255 190.299 84.1908 190.789 84.2015 191.408C84.2015 191.931 84.0521 192.4 83.7535 192.816C83.4655 193.221 83.0441 193.541 82.4895 193.776C81.9455 194.011 81.3108 194.128 80.5855 194.128ZM88.2113 184.144C87.7313 184.144 87.3367 184.005 87.0273 183.728C86.7287 183.44 86.5793 183.088 86.5793 182.672C86.5793 182.245 86.7287 181.893 87.0273 181.616C87.3367 181.328 87.7313 181.184 88.2113 181.184C88.6807 181.184 89.0647 181.328 89.3633 181.616C89.6727 181.893 89.8273 182.245 89.8273 182.672C89.8273 183.088 89.6727 183.44 89.3633 183.728C89.0647 184.005 88.6807 184.144 88.2113 184.144ZM89.5713 185.072V194H86.8353V185.072H89.5713ZM95.2501 182.16V194H92.5141V182.16H95.2501ZM100.929 182.16V194H98.1928V182.16H100.929ZM105.248 184.144C104.768 184.144 104.373 184.005 104.064 183.728C103.765 183.44 103.616 183.088 103.616 182.672C103.616 182.245 103.765 181.893 104.064 181.616C104.373 181.328 104.768 181.184 105.248 181.184C105.717 181.184 106.101 181.328 106.4 181.616C106.709 181.893 106.864 182.245 106.864 182.672C106.864 183.088 106.709 183.44 106.4 183.728C106.101 184.005 105.717 184.144 105.248 184.144ZM106.608 185.072V194H103.872V185.072H106.608Z" fill="#393A32"/>
<path d="M66.0422 96.1992C66.534 94.133 67.3725 92.1651 68.5222 90.3792C70.9922 86.5792 72.9722 86.7092 75.9222 82.4392C77.4628 80.2281 78.5192 77.7167 79.0222 75.0692C79.7122 72.1692 79.2922 71.5392 79.0222 71.2992C77.8622 70.2992 74.7522 72.0792 73.7722 72.6492C68.5022 75.7092 68.7722 78.7092 65.2922 80.5892C60.0322 83.4092 54.3522 79.3192 53.1822 81.3992C52.3422 82.8992 54.5322 86.4492 57.1822 88.2592C59.8322 90.0692 61.7322 89.6692 62.2922 91.1592C63.1322 93.3792 59.2322 95.6492 60.0222 97.6492C60.9022 99.9092 66.4722 98.5692 67.6022 101.059C68.6022 103.179 65.2522 105.729 66.3222 107.499C67.3922 109.269 71.0822 107.699 72.2022 109.429C73.4722 111.429 69.6322 114.909 70.7922 116.629C72.0822 118.529 77.7922 115.749 78.9822 117.519C80.1722 119.289 74.9822 123.879 76.1822 125.849C77.3122 127.629 82.4722 125.359 83.5622 127.129C84.6522 128.899 79.8422 132.999 81.0122 134.949C82.0722 136.699 86.8522 134.789 87.8322 136.509C88.8122 138.229 84.5722 141.279 85.4022 143.589C85.8522 144.839 87.8122 145.939 93.6422 145.949" stroke="#393A32" stroke-width="4" stroke-linecap="round" stroke-linejoin="round"/>
<path d="M76.1522 82.2691C77.8063 81.9796 79.4981 81.9796 81.1522 82.2691C82.4022 82.4991 86.1522 83.1891 86.4122 84.8691C86.6022 85.9491 85.2822 86.6691 81.6722 89.7791C79.4252 91.5736 77.3587 93.5832 75.5022 95.7791C73.8477 97.9473 72.6472 100.427 71.9722 103.069" stroke="#393A32" stroke-width="4" stroke-linecap="round" stroke-linejoin="round"/>
<path d="M81.7122 89.8092C82.989 89.404 84.3359 89.2677 85.668 89.4088C87.0001 89.55 88.2886 89.9655 89.4522 90.6292C90.2422 91.1392 92.0722 92.2992 92.2422 94.1092C92.3222 94.9592 92.0722 96.2392 87.8822 100.039C84.8222 102.809 83.7222 103.249 81.8822 104.959C79.6187 107.06 77.764 109.562 76.4122 112.339" stroke="#393A32" stroke-width="4" stroke-linecap="round" stroke-linejoin="round"/>
<path d="M87.8822 100.069C90.0071 99.6017 92.2253 99.8152 94.2222 100.679C95.2222 101.139 96.6222 101.779 96.9522 103.069C97.2822 104.359 96.5522 105.389 95.2522 106.959C93.3319 109.168 91.1568 111.142 88.7722 112.839C86.1563 115.047 84.1377 117.877 82.9022 121.069" stroke="#393A32" stroke-width="4" stroke-linecap="round" stroke-linejoin="round"/>
<path d="M93.0822 109.239C97.4422 108.849 101.242 109.999 102.082 112.239C103.442 115.679 97.6222 120.869 96.9022 121.509C94.9022 123.319 93.7822 123.509 91.8422 125.559C90.2942 127.227 89.0609 129.162 88.2022 131.269" stroke="#393A32" stroke-width="4" stroke-linecap="round" stroke-linejoin="round"/>
<path d="M99.8122 119.329C103.102 119.239 105.732 120.449 106.442 122.329C107.092 124.099 105.932 125.969 105.202 127.159C102.962 130.789 100.132 131.039 96.3522 134.419C94.5374 136.057 92.9829 137.963 91.7422 140.069" stroke="#393A32" stroke-width="4" stroke-linecap="round" stroke-linejoin="round"/>
<path d="M104.352 128.389C107.352 127.859 110.352 128.389 111.572 130.239C113.712 133.539 108.872 139.239 108.662 139.499C107.022 141.419 106.522 140.899 104.022 143.579C102.282 145.459 101.772 146.579 99.7422 148.299C97.9522 149.849 96.8322 150.799 95.7422 150.479C94.2522 150.059 93.6022 147.619 93.7422 145.909C93.8572 144.393 94.5222 142.97 95.6122 141.909" stroke="#393A32" stroke-width="4" stroke-linecap="round" stroke-linejoin="round"/>
<path d="M106.972 142.299C107.365 142.702 107.666 143.185 107.854 143.715C108.042 144.245 108.113 144.809 108.062 145.369C107.662 147.169 104.962 148.689 101.582 147.959" stroke="#393A32" stroke-width="4" stroke-linecap="round" stroke-linejoin="round"/>
</svg>
