<svg width="158" height="224" viewBox="0 0 158 224" fill="none" xmlns="http://www.w3.org/2000/svg">
<rect width="158" height="224" rx="5" fill="#FFD300"/>
<mask id="path-2-inside-1" fill="white">
<rect x="9" y="9" width="140" height="207" rx="2"/>
</mask>
<rect x="9" y="9" width="140" height="207" rx="2" fill="white" stroke="#2179B9" stroke-width="14" mask="url(#path-2-inside-1)"/>
<path d="M49.1644 34.616H57.6964V37.352H53.0344V39.854H57.3544V42.122H53.0344V47H49.1644V34.616ZM64.9225 47.144C63.9745 47.144 63.1285 46.976 62.3845 46.64C61.6525 46.304 61.0825 45.83 60.6745 45.218C60.2665 44.606 60.0625 43.91 60.0625 43.13V37.982H63.7705V43.076C63.7705 43.472 63.8785 43.784 64.0945 44.012C64.3225 44.228 64.6045 44.336 64.9405 44.336C65.2645 44.336 65.5285 44.228 65.7325 44.012C65.9485 43.784 66.0565 43.472 66.0565 43.076V37.982H69.6925V43.13C69.6925 43.922 69.4885 44.624 69.0805 45.236C68.6845 45.836 68.1265 46.304 67.4065 46.64C66.6865 46.976 65.8585 47.144 64.9225 47.144ZM75.6313 47.144C74.3713 47.144 73.2673 46.958 72.3193 46.586L72.7333 44.444C73.5973 44.756 74.4373 44.912 75.2533 44.912C75.8533 44.912 76.1533 44.744 76.1533 44.408C76.1533 44.24 76.0633 44.102 75.8833 43.994C75.7153 43.886 75.3913 43.79 74.9113 43.706C73.9153 43.514 73.1953 43.19 72.7513 42.734C72.3193 42.278 72.1033 41.63 72.1033 40.79C72.1513 39.842 72.5293 39.116 73.2373 38.612C73.9453 38.108 74.9113 37.856 76.1353 37.856C76.7593 37.856 77.2933 37.898 77.7373 37.982C78.1933 38.054 78.6073 38.18 78.9793 38.36L78.6013 40.502C78.2533 40.37 77.8693 40.268 77.4493 40.196C77.0413 40.124 76.6993 40.088 76.4233 40.088C76.0153 40.088 75.7333 40.13 75.5773 40.214C75.4213 40.298 75.3433 40.412 75.3433 40.556C75.3433 40.82 75.6433 41.006 76.2433 41.114C77.3353 41.306 78.1513 41.642 78.6913 42.122C79.2313 42.602 79.5013 43.256 79.5013 44.084C79.5013 45.032 79.1653 45.782 78.4933 46.334C77.8333 46.874 76.8793 47.144 75.6313 47.144ZM85.0797 47.144C84.0717 47.144 83.2857 46.82 82.7217 46.172C82.1577 45.524 81.8757 44.642 81.8757 43.526V37.982H85.6917V43.364C85.6917 43.64 85.7637 43.856 85.9077 44.012C86.0637 44.156 86.2617 44.228 86.5017 44.228C86.7417 44.228 86.9877 44.156 87.2397 44.012L87.4377 46.514C87.1737 46.718 86.8257 46.874 86.3937 46.982C85.9737 47.09 85.5357 47.144 85.0797 47.144ZM83.7837 36.632C83.2197 36.632 82.7397 36.458 82.3437 36.11C81.9597 35.75 81.7677 35.312 81.7677 34.796C81.7677 34.28 81.9717 33.848 82.3797 33.5C82.7877 33.152 83.2557 32.978 83.7837 32.978C84.3357 32.978 84.8097 33.158 85.2057 33.518C85.6137 33.878 85.8177 34.304 85.8177 34.796C85.8177 35.324 85.6137 35.762 85.2057 36.11C84.7977 36.458 84.3237 36.632 83.7837 36.632ZM92.7339 47.144C91.7139 47.144 90.9219 46.826 90.3579 46.19C89.8059 45.542 89.5299 44.66 89.5299 43.544V35.138L93.3279 34.58V43.274C93.3279 43.61 93.4059 43.856 93.5619 44.012C93.7299 44.156 94.0179 44.228 94.4259 44.228C94.7259 44.228 95.0199 44.156 95.3079 44.012L95.4339 46.532C94.6299 46.94 93.7299 47.144 92.7339 47.144ZM100.617 47.144C99.5967 47.144 98.8047 46.826 98.2407 46.19C97.6887 45.542 97.4127 44.66 97.4127 43.544V35.138L101.211 34.58V43.274C101.211 43.61 101.289 43.856 101.445 44.012C101.613 44.156 101.901 44.228 102.309 44.228C102.609 44.228 102.903 44.156 103.191 44.012L103.317 46.532C102.513 46.94 101.613 47.144 100.617 47.144ZM108.499 47.144C107.491 47.144 106.705 46.82 106.141 46.172C105.577 45.524 105.295 44.642 105.295 43.526V37.982H109.111V43.364C109.111 43.64 109.183 43.856 109.327 44.012C109.483 44.156 109.681 44.228 109.921 44.228C110.161 44.228 110.407 44.156 110.659 44.012L110.857 46.514C110.593 46.718 110.245 46.874 109.813 46.982C109.393 47.09 108.955 47.144 108.499 47.144ZM107.203 36.632C106.639 36.632 106.159 36.458 105.763 36.11C105.379 35.75 105.187 35.312 105.187 34.796C105.187 34.28 105.391 33.848 105.799 33.5C106.207 33.152 106.675 32.978 107.203 32.978C107.755 32.978 108.229 33.158 108.625 33.518C109.033 33.878 109.237 34.304 109.237 34.796C109.237 35.324 109.033 35.762 108.625 36.11C108.217 36.458 107.743 36.632 107.203 36.632Z" fill="#393A32"/>
<path d="M68.2878 164.476H67.5318V162.988H68.2878V162.484C68.2878 161.596 68.4998 160.924 68.9238 160.468C69.3558 160.012 69.9558 159.784 70.7238 159.784C71.3398 159.784 71.9118 159.94 72.4398 160.252L72.3558 161.872C71.8918 161.688 71.5038 161.596 71.1918 161.596C70.9518 161.596 70.7678 161.656 70.6398 161.776C70.5118 161.888 70.4478 162.052 70.4478 162.268C70.4478 162.476 70.5158 162.716 70.6518 162.988H72.3318V164.476H70.8198V169H68.2878V164.476ZM76.4786 169.096C75.8466 169.096 75.2826 168.984 74.7866 168.76C74.2986 168.536 73.9186 168.22 73.6466 167.812C73.3746 167.404 73.2386 166.94 73.2386 166.42V162.988H75.7106V166.384C75.7106 166.648 75.7826 166.856 75.9266 167.008C76.0786 167.152 76.2666 167.224 76.4906 167.224C76.7066 167.224 76.8826 167.152 77.0186 167.008C77.1626 166.856 77.2346 166.648 77.2346 166.384V162.988H79.6586V166.42C79.6586 166.948 79.5226 167.416 79.2506 167.824C78.9866 168.224 78.6146 168.536 78.1346 168.76C77.6546 168.984 77.1026 169.096 76.4786 169.096ZM83.1378 169.096C82.2978 169.096 81.5618 168.972 80.9298 168.724L81.2058 167.296C81.7818 167.504 82.3418 167.608 82.8858 167.608C83.2858 167.608 83.4858 167.496 83.4858 167.272C83.4858 167.16 83.4258 167.068 83.3058 166.996C83.1938 166.924 82.9778 166.86 82.6578 166.804C81.9938 166.676 81.5138 166.46 81.2178 166.156C80.9298 165.852 80.7858 165.42 80.7858 164.86C80.8178 164.228 81.0698 163.744 81.5418 163.408C82.0138 163.072 82.6578 162.904 83.4738 162.904C83.8898 162.904 84.2458 162.932 84.5418 162.988C84.8458 163.036 85.1218 163.12 85.3698 163.24L85.1178 164.668C84.8858 164.58 84.6298 164.512 84.3498 164.464C84.0778 164.416 83.8498 164.392 83.6658 164.392C83.3938 164.392 83.2058 164.42 83.1018 164.476C82.9978 164.532 82.9458 164.608 82.9458 164.704C82.9458 164.88 83.1458 165.004 83.5458 165.076C84.2738 165.204 84.8178 165.428 85.1778 165.748C85.5378 166.068 85.7178 166.504 85.7178 167.056C85.7178 167.688 85.4938 168.188 85.0458 168.556C84.6058 168.916 83.9698 169.096 83.1378 169.096ZM90.0008 169.096C89.3288 169.096 88.7288 168.964 88.2008 168.7C87.6808 168.436 87.2728 168.072 86.9768 167.608C86.6888 167.136 86.5448 166.596 86.5448 165.988C86.5448 165.38 86.6928 164.844 86.9888 164.38C87.2848 163.908 87.6928 163.544 88.2128 163.288C88.7408 163.032 89.3408 162.904 90.0128 162.904C90.6928 162.904 91.2928 163.036 91.8128 163.3C92.3408 163.556 92.7488 163.916 93.0368 164.38C93.3248 164.844 93.4688 165.38 93.4688 165.988C93.4688 166.604 93.3208 167.148 93.0248 167.62C92.7368 168.084 92.3288 168.448 91.8008 168.712C91.2808 168.968 90.6808 169.096 90.0008 169.096ZM90.0248 167.296C90.3528 167.296 90.6208 167.176 90.8288 166.936C91.0448 166.688 91.1528 166.372 91.1528 165.988C91.1528 165.604 91.0448 165.292 90.8288 165.052C90.6208 164.804 90.3528 164.68 90.0248 164.68C89.6968 164.68 89.4248 164.804 89.2088 165.052C89.0008 165.292 88.8968 165.604 88.8968 165.988C88.8968 166.372 89.0008 166.688 89.2088 166.936C89.4248 167.176 89.6968 167.296 90.0248 167.296Z" fill="#2179B9"/>
<path d="M32.2146 184.672C32.2146 183.752 32.2666 183.092 32.3706 182.692C32.4826 182.284 32.7026 182.004 33.0306 181.852C33.3666 181.7 33.9146 181.624 34.6746 181.624V183.028C34.2666 183.028 33.9986 183.036 33.8706 183.052C33.7426 183.068 33.6586 183.116 33.6186 183.196C33.5786 183.276 33.5586 183.428 33.5586 183.652H34.6746V185.896H32.2146V184.672ZM35.3346 184.672C35.3346 183.752 35.3866 183.092 35.4906 182.692C35.6026 182.284 35.8226 182.004 36.1506 181.852C36.4866 181.7 37.0346 181.624 37.7946 181.624V183.028C37.3866 183.028 37.1186 183.036 36.9906 183.052C36.8626 183.068 36.7786 183.116 36.7386 183.196C36.6986 183.276 36.6786 183.428 36.6786 183.652H37.7946V185.896H35.3346V184.672ZM41.2829 190.096C40.6029 190.096 40.0749 189.884 39.6989 189.46C39.3309 189.028 39.1469 188.44 39.1469 187.696V182.092L41.6789 181.72V187.516C41.6789 187.74 41.7309 187.904 41.8349 188.008C41.9469 188.104 42.1389 188.152 42.4109 188.152C42.6109 188.152 42.8069 188.104 42.9989 188.008L43.0829 189.688C42.5469 189.96 41.9469 190.096 41.2829 190.096ZM46.058 190.096C45.386 190.096 44.862 189.88 44.486 189.448C44.11 189.016 43.922 188.428 43.922 187.684V183.988H46.466V187.576C46.466 187.76 46.514 187.904 46.61 188.008C46.714 188.104 46.846 188.152 47.006 188.152C47.166 188.152 47.33 188.104 47.498 188.008L47.63 189.676C47.454 189.812 47.222 189.916 46.934 189.988C46.654 190.06 46.362 190.096 46.058 190.096ZM45.194 183.088C44.818 183.088 44.498 182.972 44.234 182.74C43.978 182.5 43.85 182.208 43.85 181.864C43.85 181.52 43.986 181.232 44.258 181C44.53 180.768 44.842 180.652 45.194 180.652C45.562 180.652 45.878 180.772 46.142 181.012C46.414 181.252 46.55 181.536 46.55 181.864C46.55 182.216 46.414 182.508 46.142 182.74C45.87 182.972 45.554 183.088 45.194 183.088ZM51.0679 190.096C50.3639 190.096 49.8159 189.896 49.4239 189.496C49.0319 189.088 48.8359 188.528 48.8359 187.816V185.476H48.0679V183.988H49.0159L50.1319 181.72H51.3439V183.988H52.7359V185.476H51.3439V187.516C51.3439 187.716 51.4079 187.872 51.5359 187.984C51.6639 188.096 51.8439 188.152 52.0759 188.152C52.2919 188.152 52.4879 188.104 52.6639 188.008L52.7599 189.688C52.5599 189.808 52.2999 189.908 51.9799 189.988C51.6679 190.06 51.3639 190.096 51.0679 190.096ZM56.5228 190.096C55.8188 190.096 55.2708 189.896 54.8788 189.496C54.4868 189.088 54.2908 188.528 54.2908 187.816V185.476H53.5228V183.988H54.4708L55.5868 181.72H56.7988V183.988H58.1908V185.476H56.7988V187.516C56.7988 187.716 56.8628 187.872 56.9908 187.984C57.1188 188.096 57.2988 188.152 57.5308 188.152C57.7468 188.152 57.9428 188.104 58.1188 188.008L58.2148 189.688C58.0148 189.808 57.7548 189.908 57.4348 189.988C57.1228 190.06 56.8188 190.096 56.5228 190.096ZM61.4616 190.096C60.7816 190.096 60.2536 189.884 59.8776 189.46C59.5096 189.028 59.3256 188.44 59.3256 187.696V182.092L61.8576 181.72V187.516C61.8576 187.74 61.9096 187.904 62.0136 188.008C62.1256 188.104 62.3176 188.152 62.5896 188.152C62.7896 188.152 62.9856 188.104 63.1776 188.008L63.2616 189.688C62.7256 189.96 62.1256 190.096 61.4616 190.096ZM67.2328 190.096C66.5688 190.096 65.9768 189.964 65.4568 189.7C64.9448 189.428 64.5448 189.06 64.2568 188.596C63.9688 188.124 63.8248 187.592 63.8248 187C63.8248 186.392 63.9728 185.852 64.2688 185.38C64.5648 184.908 64.9648 184.544 65.4688 184.288C65.9728 184.032 66.5328 183.904 67.1488 183.904C67.7408 183.904 68.2448 184.036 68.6608 184.3C69.0848 184.556 69.4008 184.908 69.6088 185.356C69.8168 185.796 69.9208 186.292 69.9208 186.844C69.9208 186.988 69.9128 187.092 69.8968 187.156L66.2968 187.624C66.3928 187.904 66.5488 188.108 66.7648 188.236C66.9808 188.356 67.2648 188.416 67.6168 188.416C68.1608 188.416 68.7488 188.276 69.3808 187.996L69.6808 189.604C68.9368 189.932 68.1208 190.096 67.2328 190.096ZM68.0608 186.112C67.9328 185.608 67.6288 185.356 67.1488 185.356C66.8608 185.356 66.6328 185.464 66.4648 185.68C66.2968 185.896 66.2088 186.176 66.2008 186.52L68.0608 186.112ZM75.587 190.096C74.747 190.096 74.011 189.972 73.379 189.724L73.655 188.296C74.231 188.504 74.791 188.608 75.335 188.608C75.735 188.608 75.935 188.496 75.935 188.272C75.935 188.16 75.875 188.068 75.755 187.996C75.643 187.924 75.427 187.86 75.107 187.804C74.443 187.676 73.963 187.46 73.667 187.156C73.379 186.852 73.235 186.42 73.235 185.86C73.267 185.228 73.519 184.744 73.991 184.408C74.463 184.072 75.107 183.904 75.923 183.904C76.339 183.904 76.695 183.932 76.991 183.988C77.295 184.036 77.571 184.12 77.819 184.24L77.567 185.668C77.335 185.58 77.079 185.512 76.799 185.464C76.527 185.416 76.299 185.392 76.115 185.392C75.843 185.392 75.655 185.42 75.551 185.476C75.447 185.532 75.395 185.608 75.395 185.704C75.395 185.88 75.595 186.004 75.995 186.076C76.723 186.204 77.267 186.428 77.627 186.748C77.987 187.068 78.167 187.504 78.167 188.056C78.167 188.688 77.943 189.188 77.495 189.556C77.055 189.916 76.419 190.096 75.587 190.096ZM79.294 184.072H81.826V185.116C82.21 184.308 82.862 183.904 83.782 183.904C84.318 183.904 84.81 184.04 85.258 184.312C85.714 184.576 86.07 184.944 86.326 185.416C86.59 185.888 86.722 186.416 86.722 187C86.722 187.584 86.586 188.112 86.314 188.584C86.05 189.056 85.69 189.428 85.234 189.7C84.786 189.964 84.306 190.096 83.794 190.096C82.882 190.096 82.226 189.692 81.826 188.884V191.56L79.294 192.04V184.072ZM83.026 188.2C83.354 188.2 83.634 188.08 83.866 187.84C84.098 187.6 84.214 187.32 84.214 187C84.214 186.664 84.094 186.38 83.854 186.148C83.622 185.916 83.346 185.8 83.026 185.8C82.698 185.8 82.418 185.916 82.186 186.148C81.954 186.372 81.838 186.64 81.838 186.952V187C81.838 187.336 81.954 187.62 82.186 187.852C82.426 188.084 82.706 188.2 83.026 188.2ZM89.9897 190.096C89.3177 190.096 88.7937 189.88 88.4177 189.448C88.0417 189.016 87.8537 188.428 87.8537 187.684V183.988H90.3977V187.576C90.3977 187.76 90.4457 187.904 90.5417 188.008C90.6457 188.104 90.7777 188.152 90.9377 188.152C91.0977 188.152 91.2617 188.104 91.4297 188.008L91.5617 189.676C91.3857 189.812 91.1537 189.916 90.8657 189.988C90.5857 190.06 90.2937 190.096 89.9897 190.096ZM89.1257 183.088C88.7497 183.088 88.4297 182.972 88.1657 182.74C87.9097 182.5 87.7817 182.208 87.7817 181.864C87.7817 181.52 87.9177 181.232 88.1897 181C88.4617 180.768 88.7737 180.652 89.1257 180.652C89.4937 180.652 89.8097 180.772 90.0737 181.012C90.3457 181.252 90.4817 181.536 90.4817 181.864C90.4817 182.216 90.3457 182.508 90.0737 182.74C89.8017 182.972 89.4857 183.088 89.1257 183.088ZM92.5005 184.072H94.9125V185.296C95.3765 184.368 96.1125 183.904 97.1205 183.904C97.8885 183.904 98.4885 184.18 98.9205 184.732C99.3605 185.276 99.5805 186.032 99.5805 187V190H97.0605V186.748C97.0605 186.404 96.9845 186.14 96.8325 185.956C96.6885 185.772 96.4845 185.68 96.2205 185.68C96.0285 185.68 95.8405 185.744 95.6565 185.872C95.4725 185.992 95.3205 186.168 95.2005 186.4C95.0885 186.632 95.0325 186.896 95.0325 187.192V190H92.5005V184.072ZM103.607 190.096C103.063 190.096 102.567 189.952 102.119 189.664C101.679 189.376 101.331 188.996 101.075 188.524C100.819 188.044 100.691 187.536 100.691 187C100.691 186.432 100.823 185.912 101.087 185.44C101.359 184.96 101.719 184.584 102.167 184.312C102.623 184.04 103.107 183.904 103.619 183.904C104.083 183.904 104.475 184 104.795 184.192C105.123 184.384 105.387 184.692 105.587 185.116V182.092L108.119 181.72V190H105.587V188.884C105.211 189.692 104.551 190.096 103.607 190.096ZM104.399 188.2C104.735 188.2 105.015 188.08 105.239 187.84C105.471 187.6 105.587 187.32 105.587 187V186.952C105.587 186.64 105.467 186.372 105.227 186.148C104.987 185.916 104.711 185.8 104.399 185.8C104.063 185.8 103.779 185.92 103.547 186.16C103.323 186.392 103.211 186.672 103.211 187C103.211 187.336 103.327 187.62 103.559 187.852C103.799 188.084 104.079 188.2 104.399 188.2ZM111.698 190.096C111.018 190.096 110.49 189.884 110.114 189.46C109.746 189.028 109.562 188.44 109.562 187.696V182.092L112.094 181.72V187.516C112.094 187.74 112.146 187.904 112.25 188.008C112.362 188.104 112.554 188.152 112.826 188.152C113.026 188.152 113.222 188.104 113.414 188.008L113.498 189.688C112.962 189.96 112.362 190.096 111.698 190.096ZM117.469 190.096C116.805 190.096 116.213 189.964 115.693 189.7C115.181 189.428 114.781 189.06 114.493 188.596C114.205 188.124 114.061 187.592 114.061 187C114.061 186.392 114.209 185.852 114.505 185.38C114.801 184.908 115.201 184.544 115.705 184.288C116.209 184.032 116.769 183.904 117.385 183.904C117.977 183.904 118.481 184.036 118.897 184.3C119.321 184.556 119.637 184.908 119.845 185.356C120.053 185.796 120.157 186.292 120.157 186.844C120.157 186.988 120.149 187.092 120.133 187.156L116.533 187.624C116.629 187.904 116.785 188.108 117.001 188.236C117.217 188.356 117.501 188.416 117.853 188.416C118.397 188.416 118.985 188.276 119.617 187.996L119.917 189.604C119.173 189.932 118.357 190.096 117.469 190.096ZM118.297 186.112C118.169 185.608 117.865 185.356 117.385 185.356C117.097 185.356 116.869 185.464 116.701 185.68C116.533 185.896 116.445 186.176 116.437 186.52L118.297 186.112ZM121.209 184.612C121.617 184.612 121.885 184.604 122.013 184.588C122.141 184.572 122.225 184.524 122.265 184.444C122.305 184.364 122.325 184.212 122.325 183.988H121.209V181.744H123.669V182.968C123.669 183.888 123.613 184.552 123.501 184.96C123.397 185.36 123.177 185.636 122.841 185.788C122.513 185.94 121.969 186.016 121.209 186.016V184.612ZM124.329 184.612C124.737 184.612 125.005 184.604 125.133 184.588C125.261 184.572 125.345 184.524 125.385 184.444C125.425 184.364 125.445 184.212 125.445 183.988H124.329V181.744H126.789V182.968C126.789 183.888 126.733 184.552 126.621 184.96C126.517 185.36 126.297 185.636 125.961 185.788C125.633 185.94 125.089 186.016 124.329 186.016V184.612Z" fill="#393A32"/>
<rect x="46" y="59.9014" width="65.45" height="0.897773" fill="#082D74"/>
<rect x="57.7809" y="59" width="13.9627" height="3.1422" fill="#3F8D43"/>
<rect x="71.7455" y="59" width="13.9627" height="3.1422" fill="white"/>
<rect x="85.7046" y="59" width="13.9627" height="3.1422" fill="#D12C29"/>
<path d="M63.8944 96.9815C64.3429 95.0972 65.1077 93.3024 66.1562 91.6737C68.4088 88.2081 70.2145 88.3267 72.9049 84.4325C74.31 82.416 75.2734 80.1256 75.7321 77.7111C76.3614 75.0663 75.9783 74.4917 75.7321 74.2729C74.6742 73.3609 71.8379 74.9842 70.9441 75.504C66.1379 78.2948 66.3842 81.0307 63.2104 82.7453C58.4133 85.3171 53.2332 81.5871 52.1662 83.484C51.4001 84.852 53.3973 88.0896 55.8141 89.7403C58.2309 91.391 59.9637 91.0262 60.4744 92.3851C61.2405 94.4097 57.6837 96.4799 58.4042 98.3039C59.2068 100.365 64.2866 99.143 65.3171 101.414C66.2291 103.347 63.1739 105.673 64.1498 107.287C65.1256 108.901 68.4909 107.469 69.5123 109.047C70.6705 110.871 67.1685 114.045 68.2264 115.614C69.4029 117.346 74.6104 114.811 75.6956 116.425C76.7809 118.039 72.0476 122.226 73.142 124.022C74.1726 125.646 78.8785 123.575 79.8726 125.19C80.8666 126.804 76.4799 130.543 77.547 132.321C78.5137 133.917 82.873 132.175 83.7668 133.744C84.6605 135.313 80.7937 138.094 81.5506 140.201C81.961 141.341 83.7485 142.344 89.0655 142.353" stroke="#1A1A1A" stroke-width="4" stroke-linecap="round" stroke-linejoin="round"/>
<path d="M73.1146 84.2776C74.6232 84.0136 76.1661 84.0136 77.6746 84.2776C78.8146 84.4874 82.2346 85.1167 82.4717 86.6488C82.645 87.6338 81.4411 88.2904 78.1488 91.1267C76.0996 92.7633 74.215 94.5959 72.5218 96.5987C71.013 98.5761 69.9181 100.837 69.3025 103.247" stroke="#1A1A1A" stroke-width="4" stroke-linecap="round" stroke-linejoin="round"/>
<path d="M78.1854 91.1541C79.3498 90.7846 80.5782 90.6603 81.7931 90.789C83.008 90.9177 84.183 91.2966 85.2442 91.9019C85.9647 92.3671 87.6337 93.425 87.7887 95.0757C87.8617 95.8509 87.6337 97.0182 83.8124 100.484C81.0217 103.01 80.0185 103.411 78.3404 104.971C76.2761 106.887 74.5847 109.169 73.3518 111.701" stroke="#1A1A1A" stroke-width="4" stroke-linecap="round" stroke-linejoin="round"/>
<path d="M83.8124 100.511C85.7503 100.084 87.7733 100.279 89.5944 101.067C90.5064 101.487 91.7832 102.07 92.0842 103.247C92.3851 104.423 91.7194 105.363 90.5338 106.794C88.7825 108.809 86.7988 110.609 84.624 112.157C82.2384 114.17 80.3975 116.751 79.2706 119.663" stroke="#1A1A1A" stroke-width="4" stroke-linecap="round" stroke-linejoin="round"/>
<path d="M88.5548 108.874C92.5311 108.518 95.9967 109.567 96.7627 111.61C98.0031 114.747 92.6952 119.481 92.0386 120.064C90.2146 121.715 89.1932 121.888 87.4239 123.758C86.0121 125.279 84.8874 127.043 84.1042 128.965" stroke="#1A1A1A" stroke-width="4" stroke-linecap="round" stroke-linejoin="round"/>
<path d="M94.6924 118.076C97.6929 117.994 100.091 119.097 100.739 120.812C101.332 122.426 100.274 124.132 99.6081 125.217C97.5652 128.528 94.9843 128.756 91.5369 131.838C89.8819 133.332 88.4641 135.07 87.3326 136.991" stroke="#1A1A1A" stroke-width="4" stroke-linecap="round" stroke-linejoin="round"/>
<path d="M98.833 126.339C101.569 125.855 104.305 126.339 105.418 128.026C107.369 131.036 102.955 136.234 102.764 136.471C101.268 138.222 100.812 137.748 98.532 140.192C96.9451 141.907 96.48 142.928 94.6287 144.497C92.9962 145.91 91.9748 146.777 90.9807 146.485C89.6218 146.102 89.029 143.877 89.1567 142.317C89.2616 140.934 89.8681 139.637 90.8621 138.669" stroke="#1A1A1A" stroke-width="4" stroke-linecap="round" stroke-linejoin="round"/>
<path d="M101.222 139.024C101.581 139.391 101.855 139.832 102.027 140.315C102.198 140.799 102.263 141.313 102.216 141.824C101.852 143.466 99.3892 144.852 96.3066 144.186" stroke="#1A1A1A" stroke-width="4" stroke-linecap="round" stroke-linejoin="round"/>
</svg>
