<svg width="587" height="411" viewBox="0 0 587 411" fill="none" xmlns="http://www.w3.org/2000/svg">
<path d="M0.181824 0H586.849V361.023L439.939 410.01H287.212H136.424L0.181824 361.023V0Z" fill="url(#paint0_linear)"/>
<g opacity="0.5" filter="url(#filter0_i)">
<rect x="135.939" y="36.9106" width="315.152" height="255.383" rx="5" fill="#FFF8F8" fill-opacity="0.63"/>
<rect x="135.939" y="36.9106" width="315.152" height="255.383" rx="5" fill="url(#paint1_linear)"/>
</g>
<path d="M213.18 336.803H207.46V330.723H228.22V336.803H222.5V358.243H213.18V336.803ZM249.346 358.883C246.706 358.883 244.346 358.376 242.266 357.363C240.213 356.35 238.613 354.936 237.466 353.123C236.319 351.283 235.746 349.19 235.746 346.843V330.723H244.786V346.843C244.786 348.443 245.173 349.643 245.946 350.443C246.719 351.243 247.853 351.643 249.346 351.643C250.839 351.643 251.973 351.243 252.746 350.443C253.519 349.616 253.906 348.416 253.906 346.843V330.723H262.946V346.843C262.946 349.19 262.373 351.283 261.226 353.123C260.079 354.936 258.466 356.35 256.386 357.363C254.333 358.376 251.986 358.883 249.346 358.883ZM271.9 330.723H290.86V336.803H280.5V342.363H290.1V347.403H280.5V358.243H271.9V330.723ZM312.072 358.883C309.192 358.883 306.632 358.27 304.392 357.043C302.179 355.816 300.446 354.123 299.192 351.963C297.966 349.776 297.352 347.296 297.352 344.523C297.352 341.723 297.966 339.23 299.192 337.043C300.446 334.856 302.179 333.163 304.392 331.963C306.632 330.736 309.192 330.123 312.072 330.123C314.952 330.123 317.499 330.736 319.712 331.963C321.952 333.163 323.686 334.856 324.912 337.043C326.166 339.203 326.792 341.696 326.792 344.523C326.792 347.296 326.166 349.776 324.912 351.963C323.686 354.123 321.952 355.816 319.712 357.043C317.472 358.27 314.926 358.883 312.072 358.883ZM312.072 351.603C313.752 351.603 315.126 350.95 316.192 349.643C317.286 348.336 317.832 346.616 317.832 344.483C317.832 343.07 317.579 341.816 317.072 340.723C316.592 339.603 315.912 338.736 315.032 338.123C314.152 337.483 313.152 337.163 312.032 337.163C310.939 337.163 309.952 337.483 309.072 338.123C308.192 338.736 307.512 339.603 307.032 340.723C306.552 341.816 306.312 343.07 306.312 344.483C306.312 346.616 306.846 348.336 307.912 349.643C308.979 350.95 310.366 351.603 312.072 351.603ZM334.627 330.723H343.267V352.163H352.827V358.243H334.627V330.723ZM360.15 330.723H369.39V358.243H360.15V330.723Z" fill="white"/>
<path d="M213.18 336.803H213.68V336.303H213.18V336.803ZM207.46 336.803H206.96V337.303H207.46V336.803ZM207.46 330.723V330.223H206.96V330.723H207.46ZM228.22 330.723H228.72V330.223H228.22V330.723ZM228.22 336.803V337.303H228.72V336.803H228.22ZM222.5 336.803V336.303H222V336.803H222.5ZM222.5 358.243V358.743H223V358.243H222.5ZM213.18 358.243H212.68V358.743H213.18V358.243ZM213.18 336.303H207.46V337.303H213.18V336.303ZM207.96 336.803V330.723H206.96V336.803H207.96ZM207.46 331.223H228.22V330.223H207.46V331.223ZM227.72 330.723V336.803H228.72V330.723H227.72ZM228.22 336.303H222.5V337.303H228.22V336.303ZM222 336.803V358.243H223V336.803H222ZM222.5 357.743H213.18V358.743H222.5V357.743ZM213.68 358.243V336.803H212.68V358.243H213.68ZM242.266 357.363L242.045 357.812L242.047 357.813L242.266 357.363ZM237.466 353.123L237.042 353.388L237.043 353.39L237.466 353.123ZM235.746 330.723V330.223H235.246V330.723H235.746ZM244.786 330.723H245.286V330.223H244.786V330.723ZM245.946 350.443L245.586 350.791H245.586L245.946 350.443ZM252.746 350.443L253.105 350.791L253.111 350.785L252.746 350.443ZM253.906 330.723V330.223H253.406V330.723H253.906ZM262.946 330.723H263.446V330.223H262.946V330.723ZM261.226 353.123L261.648 353.39L261.65 353.388L261.226 353.123ZM256.386 357.363L256.167 356.914L256.165 356.915L256.386 357.363ZM249.346 358.383C246.771 358.383 244.488 357.889 242.485 356.914L242.047 357.813C244.204 358.864 246.641 359.383 249.346 359.383V358.383ZM242.487 356.915C240.511 355.939 238.983 354.586 237.888 352.856L237.043 353.39C238.242 355.287 239.915 356.76 242.045 357.812L242.487 356.915ZM237.89 352.859C236.797 351.105 236.246 349.104 236.246 346.843H235.246C235.246 349.275 235.841 351.462 237.042 353.388L237.89 352.859ZM236.246 346.843V330.723H235.246V346.843H236.246ZM235.746 331.223H244.786V330.223H235.746V331.223ZM244.286 330.723V346.843H245.286V330.723H244.286ZM244.286 346.843C244.286 348.516 244.69 349.863 245.586 350.791L246.305 350.096C245.655 349.423 245.286 348.37 245.286 346.843H244.286ZM245.586 350.791C246.483 351.718 247.765 352.143 249.346 352.143V351.143C247.94 351.143 246.956 350.768 246.305 350.096L245.586 350.791ZM249.346 352.143C250.927 352.143 252.209 351.718 253.105 350.791L252.386 350.096C251.736 350.768 250.752 351.143 249.346 351.143V352.143ZM253.111 350.785C254 349.835 254.406 348.494 254.406 346.843H253.406C253.406 348.339 253.039 349.398 252.381 350.102L253.111 350.785ZM254.406 346.843V330.723H253.406V346.843H254.406ZM253.906 331.223H262.946V330.223H253.906V331.223ZM262.446 330.723V346.843H263.446V330.723H262.446ZM262.446 346.843C262.446 349.104 261.895 351.105 260.802 352.859L261.65 353.388C262.85 351.462 263.446 349.275 263.446 346.843H262.446ZM260.803 352.856C259.71 354.585 258.17 355.938 256.167 356.914L256.605 357.813C258.762 356.762 260.448 355.288 261.648 353.39L260.803 352.856ZM256.165 356.915C254.19 357.889 251.921 358.383 249.346 358.383V359.383C252.051 359.383 254.475 358.864 256.607 357.812L256.165 356.915ZM271.9 330.723V330.223H271.4V330.723H271.9ZM290.86 330.723H291.36V330.223H290.86V330.723ZM290.86 336.803V337.303H291.36V336.803H290.86ZM280.5 336.803V336.303H280V336.803H280.5ZM280.5 342.363H280V342.863H280.5V342.363ZM290.1 342.363H290.6V341.863H290.1V342.363ZM290.1 347.403V347.903H290.6V347.403H290.1ZM280.5 347.403V346.903H280V347.403H280.5ZM280.5 358.243V358.743H281V358.243H280.5ZM271.9 358.243H271.4V358.743H271.9V358.243ZM271.9 331.223H290.86V330.223H271.9V331.223ZM290.36 330.723V336.803H291.36V330.723H290.36ZM290.86 336.303H280.5V337.303H290.86V336.303ZM280 336.803V342.363H281V336.803H280ZM280.5 342.863H290.1V341.863H280.5V342.863ZM289.6 342.363V347.403H290.6V342.363H289.6ZM290.1 346.903H280.5V347.903H290.1V346.903ZM280 347.403V358.243H281V347.403H280ZM280.5 357.743H271.9V358.743H280.5V357.743ZM272.4 358.243V330.723H271.4V358.243H272.4ZM304.392 357.043L304.15 357.48L304.152 357.482L304.392 357.043ZM299.192 351.963L298.756 352.208L298.76 352.214L299.192 351.963ZM299.192 337.043L298.759 336.795L298.756 336.799L299.192 337.043ZM304.392 331.963L304.631 332.403L304.633 332.402L304.392 331.963ZM319.712 331.963L319.47 332.401L319.476 332.404L319.712 331.963ZM324.912 337.043L324.476 337.288L324.48 337.294L324.912 337.043ZM324.912 351.963L324.479 351.715L324.478 351.716L324.912 351.963ZM319.712 357.043L319.953 357.482L319.712 357.043ZM316.192 349.643L315.809 349.322L315.805 349.327L316.192 349.643ZM317.072 340.723L316.613 340.92L316.616 340.927L316.619 340.933L317.072 340.723ZM315.032 338.123L314.738 338.528L314.747 338.533L315.032 338.123ZM309.072 338.123L309.358 338.533L309.367 338.528L309.072 338.123ZM307.032 340.723L307.49 340.924L307.492 340.92L307.032 340.723ZM312.072 358.383C309.266 358.383 306.79 357.786 304.633 356.605L304.152 357.482C306.475 358.754 309.119 359.383 312.072 359.383V358.383ZM304.635 356.606C302.499 355.422 300.832 353.793 299.625 351.712L298.76 352.214C300.059 354.453 301.859 356.211 304.15 357.48L304.635 356.606ZM299.629 351.719C298.448 349.614 297.852 347.22 297.852 344.523H296.852C296.852 347.373 297.483 349.939 298.756 352.208L299.629 351.719ZM297.852 344.523C297.852 341.799 298.449 339.391 299.629 337.288L298.756 336.799C297.483 339.068 296.852 341.648 296.852 344.523H297.852ZM299.626 337.292C300.833 335.186 302.499 333.558 304.631 332.403L304.154 331.524C301.859 332.768 300.058 334.527 298.759 336.795L299.626 337.292ZM304.633 332.402C306.79 331.22 309.266 330.623 312.072 330.623V329.623C309.119 329.623 306.475 330.253 304.152 331.525L304.633 332.402ZM312.072 330.623C314.88 330.623 317.341 331.22 319.47 332.4L319.955 331.526C317.658 330.253 315.025 329.623 312.072 329.623V330.623ZM319.476 332.404C321.634 333.56 323.297 335.185 324.476 337.288L325.349 336.799C324.075 334.528 322.271 332.767 319.949 331.522L319.476 332.404ZM324.48 337.294C325.684 339.368 326.292 341.773 326.292 344.523H327.292C327.292 341.62 326.648 339.038 325.345 336.792L324.48 337.294ZM326.292 344.523C326.292 347.218 325.684 349.611 324.479 351.715L325.346 352.212C326.647 349.942 327.292 347.375 327.292 344.523H326.292ZM324.478 351.716C323.298 353.793 321.633 355.421 319.472 356.605L319.953 357.482C322.272 356.212 324.073 354.453 325.347 352.21L324.478 351.716ZM319.472 356.605C317.314 357.786 314.852 358.383 312.072 358.383V359.383C315 359.383 317.631 358.753 319.953 357.482L319.472 356.605ZM312.072 352.103C313.903 352.103 315.419 351.382 316.58 349.959L315.805 349.327C314.833 350.518 313.602 351.103 312.072 351.103V352.103ZM316.576 349.964C317.762 348.547 318.332 346.703 318.332 344.483H317.332C317.332 346.53 316.81 348.126 315.809 349.322L316.576 349.964ZM318.332 344.483C318.332 343.01 318.068 341.683 317.526 340.513L316.619 340.933C317.09 341.95 317.332 343.13 317.332 344.483H318.332ZM317.532 340.526C317.02 339.332 316.285 338.387 315.318 337.713L314.747 338.533C315.54 339.086 316.165 339.874 316.613 340.92L317.532 340.526ZM315.327 337.719C314.358 337.015 313.255 336.663 312.032 336.663V337.663C313.05 337.663 313.946 337.952 314.738 338.528L315.327 337.719ZM312.032 336.663C310.834 336.663 309.744 337.016 308.778 337.719L309.367 338.528C310.161 337.95 311.044 337.663 312.032 337.663V336.663ZM308.787 337.713C307.82 338.387 307.085 339.332 306.573 340.526L307.492 340.92C307.94 339.874 308.565 339.086 309.358 338.533L308.787 337.713ZM306.575 340.522C306.062 341.689 305.812 343.013 305.812 344.483H306.812C306.812 343.127 307.043 341.944 307.49 340.924L306.575 340.522ZM305.812 344.483C305.812 346.701 306.368 348.542 307.525 349.959L308.3 349.327C307.324 348.131 306.812 346.532 306.812 344.483H305.812ZM307.525 349.959C308.688 351.384 310.218 352.103 312.072 352.103V351.103C310.514 351.103 309.27 350.516 308.3 349.327L307.525 349.959ZM334.627 330.723V330.223H334.127V330.723H334.627ZM343.267 330.723H343.767V330.223H343.267V330.723ZM343.267 352.163H342.767V352.663H343.267V352.163ZM352.827 352.163H353.327V351.663H352.827V352.163ZM352.827 358.243V358.743H353.327V358.243H352.827ZM334.627 358.243H334.127V358.743H334.627V358.243ZM334.627 331.223H343.267V330.223H334.627V331.223ZM342.767 330.723V352.163H343.767V330.723H342.767ZM343.267 352.663H352.827V351.663H343.267V352.663ZM352.327 352.163V358.243H353.327V352.163H352.327ZM352.827 357.743H334.627V358.743H352.827V357.743ZM335.127 358.243V330.723H334.127V358.243H335.127ZM360.15 330.723V330.223H359.65V330.723H360.15ZM369.39 330.723H369.89V330.223H369.39V330.723ZM369.39 358.243V358.743H369.89V358.243H369.39ZM360.15 358.243H359.65V358.743H360.15V358.243ZM360.15 331.223H369.39V330.223H360.15V331.223ZM368.89 330.723V358.243H369.89V330.723H368.89ZM369.39 357.743H360.15V358.743H369.39V357.743ZM360.65 358.243V330.723H359.65V358.243H360.65Z" fill="#2DA2E7"/>
<path d="M10.8485 0H17.6364V367.113L10.8485 365.139V0Z" fill="white"/>
<path d="M569.394 0H576.182V364.619L569.394 367.113V0Z" fill="white"/>
<rect x="221.273" y="386.067" width="145.455" height="1.99518" fill="#082D74"/>
<rect x="247.455" y="384.072" width="31.0303" height="6.98313" fill="#3F8D43"/>
<rect x="278.485" y="384.072" width="31.0303" height="6.98313" fill="white"/>
<rect x="309.515" y="384.072" width="31.0303" height="6.98313" fill="#D12C29"/>
<path opacity="0.69" d="M399.853 58.3546L337.181 92.7781C334.7 94.1404 333.176 96.5142 332.421 99.5244C331.668 102.525 331.67 106.187 332.25 110.209C333.411 118.257 336.906 127.88 341.556 136.84C346.206 145.799 352.033 154.141 357.888 159.611C360.814 162.345 363.771 164.384 366.613 165.41C369.465 166.439 372.23 166.456 374.711 165.094L437.383 130.671C439.864 129.308 441.388 126.934 442.143 123.924C442.896 120.924 442.894 117.262 442.314 113.239C441.153 105.191 437.657 95.5687 433.008 86.6091C428.358 77.6495 422.531 69.3076 416.676 63.8377C413.75 61.1037 410.793 59.0648 407.951 58.0389C405.099 57.0097 402.334 56.9922 399.853 58.3546ZM372.45 160.647C370.593 161.274 368.485 160.994 366.202 159.923C363.901 158.844 361.464 156.98 359.007 154.527C354.094 149.622 349.173 142.438 345.181 134.745C341.189 127.052 338.144 118.89 336.958 112.043C336.365 108.619 336.242 105.551 336.68 103.047C337.115 100.559 338.095 98.6731 339.673 97.5114C341.273 96.6457 343.177 96.7462 345.333 97.7175C347.505 98.6963 349.871 100.536 352.302 103.025C357.161 107.999 362.182 115.466 366.322 123.443C370.462 131.42 373.7 139.867 375.014 146.788C375.672 150.251 375.841 153.298 375.423 155.699C375.01 158.077 374.034 159.759 372.45 160.647Z" fill="#FEF7BA" fill-opacity="0.93" stroke="#FEF7BA"/>
<path opacity="0.69" d="M327.828 272.538L357.699 211.651C358.882 209.239 358.813 206.58 357.825 203.857C356.84 201.143 354.936 198.343 352.407 195.59C347.346 190.08 339.691 184.661 331.503 180.387C323.315 176.112 314.549 172.959 307.248 172.015C303.599 171.543 300.284 171.619 297.582 172.407C294.869 173.199 292.752 174.716 291.569 177.128L261.698 238.016C260.515 240.428 260.584 243.087 261.572 245.81C262.557 248.523 264.46 251.323 266.99 254.077C272.051 259.586 279.706 265.005 287.894 269.28C296.081 273.554 304.848 276.707 312.149 277.651C315.798 278.123 319.112 278.047 321.815 277.259C324.527 276.468 326.645 274.95 327.828 272.538ZM295.67 179.315C296.757 177.814 298.501 176.868 300.787 176.426C303.091 175.981 305.906 176.057 309.045 176.572C315.32 177.602 322.784 180.367 329.806 184.034C336.829 187.7 343.372 192.246 347.818 196.813C350.042 199.097 351.722 201.366 352.683 203.513C353.638 205.644 353.87 207.619 353.272 209.374C352.504 210.916 351.006 211.886 348.872 212.333C346.718 212.783 343.969 212.687 340.832 212.13C334.563 211.017 326.875 208.092 319.592 204.29C312.309 200.488 305.471 195.83 300.889 191.278C298.596 189 296.893 186.773 295.969 184.716C295.056 182.681 294.926 180.865 295.67 179.315Z" fill="#FEF7BA" fill-opacity="0.93" stroke="#FEF7BA"/>
<path opacity="0.9" d="M192.513 284.133L262.454 247.241C267.935 244.35 269.603 237.567 268.886 229.517C268.164 221.427 265.024 211.828 260.595 202.941C256.165 194.053 250.422 185.827 244.457 180.503C238.523 175.205 232.195 172.639 226.714 175.531L156.773 212.423C151.292 215.314 149.623 222.097 150.341 230.147C151.063 238.237 154.203 247.836 158.632 256.723C163.062 265.611 168.805 273.837 174.77 279.161C180.704 284.459 187.032 287.025 192.513 284.133ZM228.875 179.952C233.054 178.525 238.036 180.861 243.03 185.655C248.005 190.431 252.837 197.507 256.636 205.129C260.435 212.751 263.179 220.878 264.006 227.739C264.836 234.634 263.711 240.032 260.075 242.531C258.247 243.485 256.171 243.437 253.91 242.532C251.631 241.619 249.201 239.846 246.744 237.42C241.834 232.573 236.91 225.215 232.97 217.31C229.031 209.406 226.097 200.998 225.137 194.067C224.657 190.599 224.675 187.534 225.285 185.097C225.889 182.684 227.061 180.923 228.875 179.952Z" fill="#FEF7BA" fill-opacity="0.69" stroke="#FEF7BA"/>
<path opacity="0.8" d="M308.515 43.6752L261.752 89.7655C259.884 91.6068 259.171 94.1549 259.324 97.0935C259.477 100.023 260.49 103.382 262.121 106.936C265.386 114.047 271.181 122.061 277.828 129.2C284.476 136.339 292.011 142.638 298.777 146.297C302.158 148.126 305.377 149.312 308.216 149.595C311.063 149.878 313.568 149.254 315.436 147.413L362.2 101.322C364.068 99.481 364.781 96.933 364.628 93.9944C364.475 91.0646 363.462 87.7054 361.83 84.1516C358.566 77.0404 352.771 69.0265 346.123 61.8879C339.476 54.7493 331.941 48.4499 325.175 44.7904C321.794 42.9615 318.575 41.7759 315.736 41.4933C312.889 41.2099 310.384 41.8339 308.515 43.6752ZM312.16 143.829C310.683 144.82 308.729 145.054 306.386 144.601C304.025 144.145 301.323 143.001 298.439 141.321C292.673 137.961 286.271 132.512 280.563 126.382C274.854 120.252 269.867 113.471 266.911 107.467C265.433 104.463 264.476 101.679 264.178 99.2837C263.882 96.9042 264.242 94.9636 265.322 93.5505C266.5 92.4078 268.217 92.056 270.418 92.447C272.636 92.8409 275.268 93.9791 278.139 95.6987C283.874 99.1346 290.445 104.819 296.365 111.176C302.285 117.533 307.524 124.53 310.615 130.572C312.162 133.597 313.155 136.35 313.442 138.647C313.727 140.921 313.314 142.668 312.16 143.829Z" fill="#FEF7BA" fill-opacity="0.69" stroke="#FEF7BA"/>
<path opacity="0.8" d="M282.501 136.599L219.542 106.574C217.045 105.384 214.344 105.561 211.614 106.733C208.893 107.9 206.114 110.065 203.402 112.906C197.976 118.591 192.727 127.081 188.661 136.106C184.594 145.131 181.688 154.738 180.977 162.672C180.622 166.637 180.813 170.218 181.705 173.109C182.601 176.009 184.215 178.245 186.711 179.435L249.67 209.46C252.167 210.65 254.868 210.472 257.598 209.301C260.319 208.134 263.098 205.969 265.81 203.128C271.237 197.443 276.485 188.953 280.552 179.928C284.618 170.903 287.525 161.295 288.235 153.362C288.59 149.397 288.399 145.816 287.507 142.925C286.611 140.025 284.997 137.789 282.501 136.599ZM188.767 174.977C187.204 173.857 186.179 172.003 185.65 169.538C185.118 167.055 185.1 163.997 185.517 160.575C186.351 153.734 188.911 145.54 192.403 137.792C195.894 130.044 200.299 122.78 204.797 117.786C207.047 115.287 209.302 113.378 211.458 112.252C213.6 111.134 215.603 110.809 217.408 111.389C218.999 112.161 220.04 113.745 220.569 116.048C221.103 118.369 221.097 121.355 220.638 124.777C219.718 131.616 217.003 140.058 213.383 148.093C209.762 156.128 205.255 163.715 200.776 168.856C198.535 171.428 196.323 173.362 194.257 174.443C192.21 175.514 190.366 175.722 188.767 174.977Z" fill="#FEF7BA" fill-opacity="0.8" stroke="#FEF7BA"/>
<path opacity="0.8" d="M205.395 155.776L252.101 101.933C253.95 99.8016 254.564 97.0506 254.245 93.9668C253.927 90.8931 252.682 87.4585 250.775 83.8849C246.959 76.7352 240.433 68.9118 233.057 62.1074C225.681 55.3029 217.417 49.4826 210.104 46.3656C206.448 44.8077 203 43.9122 200.002 43.9276C196.995 43.943 194.412 44.878 192.564 47.009L145.858 100.852C144.009 102.983 143.395 105.734 143.714 108.818C144.032 111.892 145.277 115.326 147.184 118.9C151 126.05 157.526 133.873 164.902 140.677C172.278 147.482 180.542 153.302 187.856 156.419C191.511 157.977 194.959 158.873 197.957 158.857C200.964 158.842 203.547 157.907 205.395 155.776ZM196.185 50.4068C197.703 49.1799 199.761 48.7179 202.252 48.937C204.761 49.1578 207.665 50.0676 210.788 51.523C217.031 54.4329 224.056 59.4793 230.389 65.321C236.721 71.1629 242.33 77.7713 245.761 83.7847C247.477 86.7925 248.633 89.6271 249.076 92.1257C249.515 94.608 249.243 96.7139 248.167 98.3462C246.97 99.7086 245.162 100.269 242.824 100.099C240.468 99.9283 237.639 99.0169 234.528 97.5187C228.312 94.5248 221.097 89.2487 214.53 83.1906C207.963 77.1325 202.078 70.3236 198.503 64.285C196.714 61.2633 195.521 58.4645 195.095 56.0689C194.673 53.6966 195.01 51.7842 196.185 50.4068Z" fill="#FEF7BA" fill-opacity="0.69" stroke="#FEF7BA"/>
<path opacity="0.8" d="M436.765 221.168L381.104 155.451C376.78 150.346 369.825 149.973 362.296 152.395C354.747 154.824 346.458 160.102 339.226 166.585C331.994 173.067 325.778 180.793 322.406 188.153C319.043 195.495 318.451 202.633 322.775 207.738L378.437 273.455C382.761 278.561 389.715 278.934 397.245 276.511C404.794 274.083 413.083 268.805 420.315 262.322C427.546 255.84 433.763 248.114 437.134 240.754C440.497 233.412 441.09 226.274 436.765 221.168ZM326.395 204.539C323.783 200.413 324.593 194.69 327.726 188.483C330.852 182.289 336.222 175.767 342.415 170.215C348.609 164.663 355.59 160.113 361.916 157.833C368.258 155.548 373.777 155.594 377.263 158.929C380.2 162.419 379.499 167.83 376.268 174.006C373.054 180.149 367.442 186.824 361.018 192.583C354.594 198.341 347.398 203.147 341.044 205.582C334.659 208.028 329.355 208.003 326.395 204.539Z" fill="#FEF7BA" fill-opacity="0.93" stroke="#FEF7BA"/>
<defs>
<filter id="filter0_i" x="135.939" y="36.9106" width="315.152" height="264.383" filterUnits="userSpaceOnUse" color-interpolation-filters="sRGB">
<feFlood flood-opacity="0" result="BackgroundImageFix"/>
<feBlend mode="normal" in="SourceGraphic" in2="BackgroundImageFix" result="shape"/>
<feColorMatrix in="SourceAlpha" type="matrix" values="0 0 0 0 0 0 0 0 0 0 0 0 0 0 0 0 0 0 127 0" result="hardAlpha"/>
<feOffset dy="9"/>
<feGaussianBlur stdDeviation="18.5"/>
<feComposite in2="hardAlpha" operator="arithmetic" k2="-1" k3="1"/>
<feColorMatrix type="matrix" values="0 0 0 0 0 0 0 0 0 0 0 0 0 0 0 0 0 0 0.25 0"/>
<feBlend mode="normal" in2="shape" result="effect1_innerShadow"/>
</filter>
<linearGradient id="paint0_linear" x1="293.515" y1="-5.03621e-07" x2="293.515" y2="407.543" gradientUnits="userSpaceOnUse">
<stop stop-color="#082D74"/>
<stop offset="0.302083" stop-color="#082D74" stop-opacity="0.85"/>
<stop offset="0.666667" stop-color="#2179B9"/>
<stop offset="1" stop-color="#2DA2E7"/>
</linearGradient>
<linearGradient id="paint1_linear" x1="293.515" y1="36.9106" x2="293.515" y2="292.294" gradientUnits="userSpaceOnUse">
<stop stop-color="white" stop-opacity="0.5"/>
<stop offset="0.952978" stop-color="white" stop-opacity="0"/>
</linearGradient>
</defs>
</svg>
