<svg width="162" height="230" viewBox="0 0 162 230" fill="none" xmlns="http://www.w3.org/2000/svg">
<rect width="161.782" height="229.362" rx="5" fill="#F7575C"/>
<circle cx="80.891" cy="114.681" r="62.4601" fill="#E0D6D6"/>
<circle cx="80.891" cy="114.681" r="52.8509" fill="#3CAA90"/>
<circle cx="80.2904" cy="114.08" r="40.2387" fill="#E0D6D6"/>
<path d="M98.3019 118.848L102.356 118.037C103.388 117.832 104.301 117.237 104.904 116.375C105.507 115.513 105.753 114.451 105.592 113.412L104.395 105.631C104.251 104.665 103.764 103.783 103.022 103.147C102.281 102.511 101.335 102.163 100.358 102.168H90.8722L93.6636 98.819C93.8548 98.5887 94.0945 98.4034 94.3656 98.2763C94.6367 98.1492 94.9324 98.0835 95.2318 98.0839H96.0272C96.2376 98.6791 96.6267 99.1947 97.1414 99.5602C97.656 99.9257 98.271 100.123 98.9022 100.126H102.986C103.799 100.126 104.578 99.8032 105.152 99.2288C105.726 98.6544 106.049 97.8753 106.049 97.0629C106.049 96.2506 105.726 95.4715 105.152 94.8971C104.578 94.3227 103.799 94 102.986 94H98.9022C98.271 94.0026 97.656 94.2002 97.1414 94.5657C96.6267 94.9312 96.2376 95.4468 96.0272 96.042H95.2318C94.633 96.0411 94.0413 96.1723 93.499 96.4262C92.9567 96.6802 92.4771 97.0506 92.0943 97.5112L88.2146 102.168H84.4635C84.2378 101.294 83.7289 100.519 83.0162 99.9649C82.3035 99.4107 81.4273 99.1083 80.5246 99.1049H77.4616C77.4422 99.1049 77.4249 99.1151 77.4055 99.1161C76.6606 98.4554 75.7006 98.0885 74.705 98.0839H59.0839C58.0008 98.0839 56.962 98.5142 56.1962 99.2801C55.4303 100.046 55 101.085 55 102.168V109.315C55 110.127 55.3227 110.906 55.8971 111.481C56.4715 112.055 57.2506 112.378 58.0629 112.378H59.0717C59.0647 116.074 58.6487 119.759 57.8312 123.364C57.7948 123.496 57.7852 123.633 57.8029 123.769C57.8206 123.904 57.8652 124.035 57.9341 124.152C58.0031 124.27 58.0949 124.373 58.2042 124.454C58.3136 124.536 58.4382 124.595 58.5706 124.628C58.7031 124.66 58.8408 124.666 58.9756 124.645C59.1104 124.623 59.2395 124.575 59.3553 124.503C59.4711 124.431 59.5713 124.336 59.6499 124.225C59.7285 124.113 59.7839 123.987 59.8129 123.854C60.6698 120.088 61.106 116.239 61.1136 112.378H63.1556C62.9841 124.313 59.9293 130.755 57.042 130.755C56.7712 130.755 56.5115 130.863 56.32 131.054C56.1286 131.246 56.021 131.506 56.021 131.776C56.021 132.047 56.1286 132.307 56.32 132.498C56.5115 132.69 56.7712 132.797 57.042 132.797C61.7946 132.797 65.0209 124.629 65.1935 112.378H68.2564C68.089 124.313 65.0342 130.755 62.1469 130.755C61.8761 130.755 61.6164 130.863 61.4249 131.054C61.2335 131.246 61.1259 131.506 61.1259 131.776C61.1259 132.047 61.2335 132.307 61.4249 132.498C61.6164 132.69 61.8761 132.797 62.1469 132.797C66.8996 132.797 70.1259 124.629 70.2984 112.378H73.3613C73.1939 124.313 70.1391 130.755 67.2518 130.755C66.981 130.755 66.7213 130.863 66.5298 131.054C66.3384 131.246 66.2308 131.506 66.2308 131.776C66.2308 132.047 66.3384 132.307 66.5298 132.498C66.7213 132.69 66.981 132.797 67.2518 132.797C72.0045 132.797 75.2308 124.629 75.4033 112.378H77.0532L76.4488 116.306C76.4123 116.544 76.4612 116.788 76.5867 116.993C76.7123 117.199 76.9065 117.353 77.1349 117.43L80.4684 118.54C81.0791 118.743 81.6105 119.133 81.9871 119.655C82.3637 120.176 82.5665 120.804 82.5665 121.447V129.734H74.8489C74.2069 129.736 73.5814 129.938 73.0609 130.314C72.5404 130.69 72.1512 131.22 71.9483 131.829L71.3929 133.496C71.3419 133.649 71.3279 133.812 71.3521 133.971C71.3763 134.131 71.4379 134.282 71.5319 134.413C71.626 134.545 71.7498 134.651 71.8931 134.726C72.0365 134.8 72.1954 134.839 72.3567 134.839H104.007C104.169 134.839 104.328 134.801 104.472 134.727C104.616 134.654 104.741 134.547 104.836 134.415C104.93 134.284 104.992 134.132 105.017 133.973C105.041 133.813 105.027 133.649 104.976 133.496L104.416 131.828C104.212 131.219 103.823 130.69 103.303 130.314C102.782 129.938 102.157 129.735 101.515 129.734H95.8393V121.851C95.8408 121.144 96.0867 120.458 96.5354 119.911C96.9842 119.363 97.6082 118.988 98.3019 118.848V118.848ZM98.9022 96.042H102.986C103.257 96.042 103.517 96.1495 103.708 96.341C103.9 96.5325 104.007 96.7922 104.007 97.0629C104.007 97.3337 103.9 97.5934 103.708 97.7849C103.517 97.9764 103.257 98.0839 102.986 98.0839H98.9022C98.6315 98.0839 98.3718 97.9764 98.1803 97.7849C97.9888 97.5934 97.8813 97.3337 97.8813 97.0629C97.8813 96.7922 97.9888 96.5325 98.1803 96.341C98.3718 96.1495 98.6315 96.042 98.9022 96.042ZM82.2827 102.168H79.5036C79.4923 102.168 79.4832 102.173 79.4719 102.174L78.8563 101.147H80.5246C80.8814 101.148 81.2317 101.243 81.5403 101.422C81.8489 101.601 82.1049 101.858 82.2827 102.168ZM57.042 109.315V102.168C57.042 101.626 57.2571 101.107 57.64 100.724C58.023 100.341 58.5424 100.126 59.0839 100.126H74.705C75.0574 100.127 75.4036 100.219 75.7103 100.392C76.017 100.566 76.2738 100.816 76.4559 101.117L78.3131 104.21L77.3707 110.336H58.0629C57.7922 110.336 57.5325 110.228 57.341 110.037C57.1495 109.845 57.042 109.586 57.042 109.315ZM102.483 132.475L102.59 132.797H73.7728L73.88 132.475C73.9478 132.271 74.0778 132.094 74.2517 131.969C74.4256 131.844 74.6346 131.776 74.8489 131.776H101.515C101.729 131.777 101.938 131.844 102.112 131.969C102.285 132.095 102.415 132.271 102.483 132.475ZM84.6085 129.734V121.447C84.6094 120.376 84.2727 119.331 83.6463 118.462C83.0199 117.593 82.1355 116.943 81.1188 116.605L78.6021 115.766L80.3796 104.21H100.358C100.847 104.209 101.319 104.383 101.689 104.702C102.059 105.021 102.302 105.462 102.374 105.945L103.57 113.726C103.65 114.246 103.527 114.777 103.225 115.208C102.924 115.639 102.468 115.937 101.952 116.04L97.8966 116.851C96.7423 117.085 95.7042 117.711 94.9575 118.622C94.2107 119.533 93.801 120.673 93.7973 121.851V129.734H84.6085Z" fill="#3CAA90" fill-opacity="0.7"/>
<path d="M98.3019 118.848L102.356 118.037C103.388 117.832 104.301 117.237 104.904 116.375C105.507 115.513 105.753 114.451 105.592 113.412L104.395 105.631C104.251 104.665 103.764 103.783 103.022 103.147C102.281 102.511 101.335 102.163 100.358 102.168H90.8722L93.6636 98.819C93.8548 98.5887 94.0945 98.4034 94.3656 98.2763C94.6367 98.1492 94.9324 98.0835 95.2318 98.0839H96.0272C96.2376 98.6791 96.6267 99.1947 97.1414 99.5602C97.656 99.9257 98.271 100.123 98.9022 100.126H102.986C103.799 100.126 104.578 99.8032 105.152 99.2288C105.726 98.6544 106.049 97.8753 106.049 97.0629C106.049 96.2506 105.726 95.4715 105.152 94.8971C104.578 94.3227 103.799 94 102.986 94H98.9022C98.271 94.0026 97.656 94.2002 97.1414 94.5657C96.6267 94.9312 96.2376 95.4468 96.0272 96.042H95.2318C94.633 96.0411 94.0413 96.1723 93.499 96.4262C92.9567 96.6802 92.4771 97.0506 92.0943 97.5112L88.2146 102.168H84.4635C84.2378 101.294 83.7289 100.519 83.0162 99.9649C82.3035 99.4107 81.4273 99.1083 80.5246 99.1049H77.4616C77.4422 99.1049 77.4249 99.1151 77.4055 99.1161C76.6606 98.4554 75.7006 98.0885 74.705 98.0839H59.0839C58.0008 98.0839 56.962 98.5142 56.1962 99.2801C55.4303 100.046 55 101.085 55 102.168V109.315C55 110.127 55.3227 110.906 55.8971 111.481C56.4715 112.055 57.2506 112.378 58.0629 112.378H59.0717C59.0647 116.074 58.6487 119.759 57.8312 123.364C57.7948 123.496 57.7852 123.633 57.8029 123.769C57.8206 123.904 57.8652 124.035 57.9341 124.152C58.0031 124.27 58.0949 124.373 58.2042 124.454C58.3136 124.536 58.4382 124.595 58.5706 124.628C58.7031 124.66 58.8408 124.666 58.9756 124.645C59.1104 124.623 59.2395 124.575 59.3553 124.503C59.4711 124.431 59.5713 124.336 59.6499 124.225C59.7285 124.113 59.7839 123.987 59.8129 123.854C60.6698 120.088 61.106 116.239 61.1136 112.378H63.1556C62.9841 124.313 59.9293 130.755 57.042 130.755C56.7712 130.755 56.5115 130.863 56.32 131.054C56.1286 131.246 56.021 131.506 56.021 131.776C56.021 132.047 56.1286 132.307 56.32 132.498C56.5115 132.69 56.7712 132.797 57.042 132.797C61.7946 132.797 65.0209 124.629 65.1935 112.378H68.2564C68.089 124.313 65.0342 130.755 62.1469 130.755C61.8761 130.755 61.6164 130.863 61.4249 131.054C61.2335 131.246 61.1259 131.506 61.1259 131.776C61.1259 132.047 61.2335 132.307 61.4249 132.498C61.6164 132.69 61.8761 132.797 62.1469 132.797C66.8996 132.797 70.1259 124.629 70.2984 112.378H73.3613C73.1939 124.313 70.1391 130.755 67.2518 130.755C66.981 130.755 66.7213 130.863 66.5298 131.054C66.3384 131.246 66.2308 131.506 66.2308 131.776C66.2308 132.047 66.3384 132.307 66.5298 132.498C66.7213 132.69 66.981 132.797 67.2518 132.797C72.0045 132.797 75.2308 124.629 75.4033 112.378H77.0532L76.4488 116.306C76.4123 116.544 76.4612 116.788 76.5868 116.993C76.7123 117.199 76.9065 117.353 77.1349 117.43L80.4684 118.54C81.0791 118.743 81.6105 119.133 81.9871 119.655C82.3637 120.176 82.5665 120.804 82.5665 121.447V129.734H74.8489C74.2069 129.736 73.5814 129.938 73.0609 130.314C72.5404 130.69 72.1512 131.22 71.9483 131.829L71.3929 133.496C71.3419 133.649 71.3279 133.812 71.3521 133.971C71.3763 134.131 71.4379 134.282 71.5319 134.413C71.626 134.545 71.7498 134.651 71.8931 134.726C72.0365 134.8 72.1954 134.839 72.3567 134.839H104.007C104.169 134.839 104.328 134.801 104.472 134.727C104.616 134.654 104.741 134.547 104.836 134.415C104.93 134.284 104.992 134.132 105.017 133.973C105.041 133.813 105.027 133.649 104.976 133.496L104.416 131.828C104.212 131.219 103.823 130.69 103.303 130.314C102.782 129.938 102.157 129.735 101.515 129.734H95.8393V121.851C95.8408 121.144 96.0867 120.458 96.5354 119.911C96.9842 119.363 97.6082 118.988 98.3019 118.848ZM98.9022 96.042H102.986C103.257 96.042 103.517 96.1495 103.708 96.341C103.9 96.5325 104.007 96.7922 104.007 97.0629C104.007 97.3337 103.9 97.5934 103.708 97.7849C103.517 97.9764 103.257 98.0839 102.986 98.0839H98.9022C98.6315 98.0839 98.3718 97.9764 98.1803 97.7849C97.9888 97.5934 97.8813 97.3337 97.8813 97.0629C97.8813 96.7922 97.9888 96.5325 98.1803 96.341C98.3718 96.1495 98.6315 96.042 98.9022 96.042ZM82.2827 102.168H79.5036C79.4923 102.168 79.4832 102.173 79.4719 102.174L78.8563 101.147H80.5246C80.8814 101.148 81.2317 101.243 81.5403 101.422C81.8489 101.601 82.1049 101.858 82.2827 102.168ZM57.042 109.315V102.168C57.042 101.626 57.2571 101.107 57.64 100.724C58.023 100.341 58.5424 100.126 59.0839 100.126H74.705C75.0574 100.127 75.4036 100.219 75.7103 100.392C76.017 100.566 76.2738 100.816 76.4559 101.117L78.3131 104.21L77.3707 110.336H58.0629C57.7922 110.336 57.5325 110.228 57.341 110.037C57.1495 109.845 57.042 109.586 57.042 109.315ZM102.483 132.475L102.59 132.797H73.7728L73.88 132.475C73.9477 132.271 74.0778 132.094 74.2517 131.969C74.4256 131.844 74.6346 131.776 74.8489 131.776H101.515C101.729 131.777 101.938 131.844 102.112 131.969C102.285 132.095 102.415 132.271 102.483 132.475ZM84.6085 129.734V121.447C84.6094 120.376 84.2727 119.331 83.6463 118.462C83.0199 117.593 82.1355 116.943 81.1188 116.605L78.6021 115.766L80.3796 104.21H100.358C100.847 104.209 101.319 104.383 101.689 104.702C102.059 105.021 102.302 105.462 102.374 105.945L103.57 113.726C103.65 114.246 103.527 114.777 103.225 115.208C102.924 115.639 102.468 115.937 101.952 116.04L97.8966 116.851C96.7423 117.085 95.7042 117.711 94.9575 118.622C94.2107 119.533 93.801 120.673 93.7973 121.851V129.734H84.6085Z" fill="#3CAA90" fill-opacity="0.7"/>
<path d="M65.2099 102.168C65.2099 101.897 65.1023 101.637 64.9108 101.446C64.7194 101.254 64.4597 101.147 64.1889 101.147H60.105C59.8342 101.147 59.5745 101.254 59.383 101.446C59.1916 101.637 59.084 101.897 59.084 102.168C59.084 102.439 59.1916 102.698 59.383 102.89C59.5745 103.081 59.8342 103.189 60.105 103.189H64.1889C64.4597 103.189 64.7194 103.081 64.9108 102.89C65.1023 102.698 65.2099 102.439 65.2099 102.168Z" fill="#3CAA90" fill-opacity="0.7"/>
<path d="M88.6925 107.273C87.8847 107.273 87.0951 107.512 86.4235 107.961C85.7519 108.41 85.2285 109.048 84.9194 109.794C84.6103 110.54 84.5294 111.361 84.687 112.153C84.8446 112.946 85.2335 113.673 85.8047 114.244C86.3758 114.816 87.1035 115.205 87.8957 115.362C88.6879 115.52 89.5091 115.439 90.2553 115.13C91.0015 114.821 91.6394 114.297 92.0881 113.626C92.5369 112.954 92.7764 112.164 92.7764 111.357C92.7764 110.274 92.3461 109.235 91.5802 108.469C90.8143 107.703 89.7756 107.273 88.6925 107.273ZM88.6925 113.399C88.2886 113.399 87.8938 113.279 87.558 113.055C87.2222 112.83 86.9605 112.511 86.8059 112.138C86.6514 111.765 86.6109 111.354 86.6897 110.958C86.7685 110.562 86.963 110.198 87.2486 109.913C87.5341 109.627 87.898 109.433 88.2941 109.354C88.6902 109.275 89.1008 109.316 89.4739 109.47C89.847 109.625 90.1659 109.886 90.3903 110.222C90.6147 110.558 90.7344 110.953 90.7344 111.357C90.7344 111.898 90.5193 112.418 90.1363 112.801C89.7534 113.184 89.234 113.399 88.6925 113.399Z" fill="#3CAA90" fill-opacity="0.7"/>
</svg>
