<svg width="165" height="167" viewBox="0 0 165 167" fill="none" xmlns="http://www.w3.org/2000/svg">
<path d="M50.5212 97.271C64.4006 97.271 78.1251 91.445 90.2881 80.3789C90.9689 80.0384 91.6003 79.6069 92.1648 79.0964V79.0961C94.7979 76.6938 95.7238 72.7621 94.706 68.3099C93.8298 64.4778 91.601 60.4532 88.43 56.9775C85.2587 53.5018 81.4549 50.9143 77.7191 49.6913C73.3781 48.2705 69.3785 48.8334 66.7454 51.236C66.5011 51.4619 66.2705 51.7021 66.055 51.9556C65.7313 52.1026 65.4325 52.2994 65.1697 52.5389C61.1422 56.2138 56.3169 58.4755 51.5829 58.9082C47.1976 59.3062 43.4512 58.0646 41.0255 55.4055C38.5996 52.7467 37.7037 48.8993 38.503 44.5723C39.3666 39.8973 42.0603 35.2992 46.0883 31.6246C46.3507 31.385 46.5741 31.1057 46.7502 30.797C47.0222 30.6054 47.2825 30.3976 47.5297 30.1749L47.53 30.1745C50.1631 27.7722 51.089 23.8409 50.0712 19.3884C49.195 15.5563 46.9662 11.5317 43.7952 8.05598C40.6239 4.58027 36.8201 1.99279 33.0843 0.769823C28.743 -0.650625 24.7437 -0.0881142 22.1106 2.31451C21.5476 2.83153 21.0578 3.42299 20.6547 4.07252C8.20788 15.4629 1.10565 28.9945 0.115907 43.2128C-0.821964 56.6911 3.95598 69.9175 13.5702 80.4552C23.1843 90.993 35.9182 96.9606 49.4261 97.2587C49.7914 97.2667 50.1565 97.2708 50.5212 97.271ZM25.8454 24.4328C26.2216 24.8451 26.6065 25.2444 27.0002 25.6305C24.3505 29.5262 22.3134 33.8049 20.9599 38.3177C17.7549 49.2927 19.9258 59.3298 27.2376 67.344C32.977 73.6347 40.2729 76.859 48.6138 76.8586C51.0021 76.8495 53.3835 76.6032 55.7231 76.1233C60.2848 75.1698 64.6795 73.5441 68.7635 71.2994C69.2994 72.001 69.8716 72.6861 70.4802 73.3546C71.0636 73.994 71.667 74.6021 72.2905 75.179C67.8181 77.6457 62.985 79.3922 57.9688 80.3543C45.4841 82.6331 34.645 78.8483 25.7525 69.1012C16.863 59.3582 14.1277 48.181 17.6227 35.8797C19.0466 31.032 21.206 26.4315 24.0255 22.2388C24.5912 22.9885 25.1975 23.7225 25.8454 24.4328ZM73.1533 55.7302C73.986 55.7506 74.8105 55.9002 75.5972 56.1738C78.1944 57.0241 81.035 58.9924 83.391 61.5749C88.3431 67.0023 89.1721 72.5932 87.5674 74.0577C86.8131 74.7454 85.2224 74.7834 83.313 74.1583C80.7159 73.308 77.8753 71.3396 75.5193 68.7572C70.5672 63.3298 69.7382 57.7388 71.3428 56.2748C71.8591 55.8773 72.5035 55.6835 73.1533 55.7302ZM49.9706 65.804C50.703 65.804 51.4473 65.7696 52.2034 65.7008C56.4274 65.2704 60.5045 63.9143 64.1448 61.729C64.1654 61.827 64.1818 61.9238 64.2042 62.0222C64.475 63.1814 64.8453 64.315 65.3111 65.4105C61.8236 67.3057 58.0752 68.6749 54.1874 69.4739C45.3039 71.2094 37.9315 68.9447 32.2766 62.7466C26.6168 56.5435 24.9938 49.0312 27.4527 40.4185C28.5664 36.6579 30.2359 33.0848 32.4059 29.8176C33.7173 30.5981 35.1088 31.2355 36.5563 31.7189C36.6518 31.7502 36.7464 31.7774 36.8415 31.8067C34.3332 35.2315 32.6104 39.1669 31.7957 43.3331C30.5994 49.8096 32.0878 55.7296 35.9865 60.003C39.4369 63.7844 44.3424 65.804 49.9706 65.804H49.9706ZM28.5185 6.8087C29.3512 6.82908 30.1757 6.97874 30.9624 7.25235C33.5595 8.10262 36.4001 10.071 38.7561 12.6534C43.7083 18.0808 44.5372 23.6718 42.9326 25.1362C41.327 26.6009 35.8356 25.2627 30.8845 19.8353C25.9323 14.4079 25.1034 8.81733 26.708 7.35324C27.2243 6.9558 27.8686 6.762 28.5185 6.8087ZM18.6092 75.8578C10.2643 66.7116 6.11315 55.2859 6.92047 43.6864C7.63744 33.3852 12.1122 23.4167 19.9499 14.5087C20.0705 14.8973 20.2071 15.2869 20.3535 15.6767C16.1962 21.0905 13.0705 27.2229 11.1326 33.7678C8.17973 43.9569 7.44469 59.1556 20.7134 73.6987C30.7669 84.7173 41.8875 87.803 51.1903 87.8027C53.9623 87.7971 56.7279 87.5339 59.4513 87.0164C66.1818 85.7151 72.6068 83.1571 78.3899 79.4763C78.8664 79.716 79.3441 79.9349 79.8231 80.1328C70.2341 87.1222 59.8937 90.6648 49.5766 90.4395C37.9518 90.1827 26.9538 85.0044 18.6092 75.8578Z" fill="#E0D6D6"/>
<path d="M156.113 68.6029C155.948 67.7203 155.648 66.8686 155.222 66.0781C151.543 59.2725 139.824 58.9751 127.963 65.387C122.749 68.2056 118.363 71.9238 115.614 75.8568C112.386 80.4749 111.674 84.9904 113.61 88.571C113.8 88.9181 114.014 89.2518 114.25 89.5697C114.305 89.9731 114.432 90.3634 114.625 90.7219C120.796 102.139 118.079 115.61 108.568 120.752C104.051 123.193 98.6455 123.412 93.3463 121.367C87.8583 119.249 83.1636 114.988 80.1265 109.37C79.9325 109.012 79.676 108.693 79.3691 108.426C79.2316 108.054 79.0692 107.693 78.8829 107.343C76.9475 103.762 72.7764 101.889 67.1478 102.055C62.3516 102.2 56.8386 103.833 51.6243 106.652C46.4098 109.47 42.0242 113.188 39.2748 117.121C36.0469 121.739 35.3355 126.255 37.2712 129.835C37.7014 130.629 38.2514 131.351 38.9017 131.976C48.2261 149.143 62.0839 160.533 78.9885 164.917C83.9898 166.205 89.1347 166.852 94.2992 166.842C105.733 166.842 117.513 163.773 128.587 157.787C144.706 149.074 156.473 135.724 161.721 120.197C167.314 103.648 165.373 85.8108 156.113 68.6029ZM146.068 105.433C144.292 121.096 135.423 133.346 119.705 141.842C104.084 150.287 89.0253 150.977 74.9492 143.894C69.3574 141.034 64.304 137.227 60.0136 132.64C61.5585 132.023 63.0664 131.317 64.5297 130.526C65.4442 130.032 66.3312 129.511 67.1906 128.963C71.0964 133.185 75.7051 136.697 80.8116 139.343C86.2952 142.213 92.3835 143.736 98.5725 143.785C104.318 143.785 110.733 142.416 117.574 138.718C132.863 130.453 137.194 117.504 138.136 108.096C138.674 102.422 138.254 96.6981 136.893 91.1637C138.209 90.6129 139.538 89.9815 140.869 89.2621C142.224 88.5302 143.54 87.7283 144.811 86.8594C146.319 92.9287 146.744 99.2163 146.068 105.433ZM121.204 79.7645C123.325 76.7304 126.971 73.677 131.207 71.3873C136.255 68.6582 140.876 67.5781 144.2 67.5781C146.827 67.5781 148.644 68.2529 149.222 69.3213C150.53 71.7423 146.663 78.3763 137.625 83.2619C128.587 88.1467 120.919 87.7487 119.61 85.3274C118.993 84.1857 119.604 82.0542 121.204 79.7645ZM90.8904 127.73C93.9655 128.938 97.2378 129.568 100.542 129.586C104.476 129.597 108.35 128.623 111.811 126.752C122.828 120.797 127.289 106.949 123.276 93.8255C123.749 93.8583 124.228 93.8798 124.721 93.8798C126.625 93.8663 128.522 93.6518 130.381 93.2398C131.47 97.8819 131.797 102.67 131.349 107.417C130.219 118.712 124.493 127.224 114.33 132.718C104.232 138.176 94.0703 138.398 84.1278 133.378C79.8514 131.179 75.9709 128.283 72.6457 124.81C74.2256 123.384 75.6451 121.791 76.8789 120.057C77.2862 119.474 77.6531 118.894 77.9797 118.316C81.4084 122.505 85.8533 125.746 90.8904 127.73ZM44.8654 121.029C46.9866 117.995 50.6322 114.941 54.8679 112.652C59.103 110.363 63.6545 108.985 67.355 108.872C67.5165 108.867 67.6751 108.865 67.8319 108.865C70.3868 108.865 72.3011 109.51 72.8826 110.586C73.4998 111.728 72.889 113.859 71.2883 116.149C69.1675 119.183 65.5219 122.237 61.2865 124.526C57.0507 126.816 52.4993 128.193 48.7991 128.306C45.9991 128.393 43.8886 127.734 43.2714 126.592C42.6543 125.45 43.2651 123.319 44.8654 121.029ZM155.259 118.013C150.565 131.902 139.941 143.896 125.344 151.787C110.747 159.677 94.8923 161.995 80.701 158.315C67.8568 154.983 56.9505 147.023 48.8071 135.127C48.8737 135.125 48.9389 135.126 49.0059 135.124C50.2772 135.08 51.5439 134.948 52.7964 134.726C54.0515 136.323 60.6208 144.245 71.619 149.853C78.7882 153.549 86.7336 155.487 94.7994 155.507C103.081 155.507 112.554 153.461 122.949 147.843C145.115 135.861 151.442 118.585 152.846 106.202C154.31 93.2894 150.874 83.102 150.514 82.0806C151.548 81.0143 152.492 79.864 153.335 78.6415C158.822 91.9665 159.506 105.447 155.259 118.013Z" fill="#E0D6D6"/>
</svg>
