<svg width="38" height="29" viewBox="0 0 38 29" fill="none" xmlns="http://www.w3.org/2000/svg">
<path d="M16.1613 22.8095L21.7538 28.1225C23.3969 29.6825 24.74 29.1058 24.74 26.8412V25.1141V20.9857C24.74 20.0419 25.2998 19.8011 25.9834 20.4506L30.8927 25.1141L34.06 28.1229C35.701 29.6825 37.0437 29.1058 37.0437 26.8412V2.47783C37.0437 0.214821 35.701 -0.362249 34.0596 1.19732L30.8923 4.20657L25.983 8.86841C25.2998 9.51752 24.7396 9.27714 24.7396 8.33497L24.7396 4.20575V2.47742C24.7396 0.21441 23.3965 -0.362249 21.7534 1.19732L16.1605 6.51115L9.07592 13.2421C8.25395 14.0225 8.25395 15.2981 9.07592 16.0781L16.1613 22.8095Z" fill="#025EA1"/>
<path d="M2.15354 28.9995H4.73801C5.9222 28.9995 6.89111 28.0302 6.89111 26.8456L6.89111 2.47401C6.89111 1.289 5.9222 0.320081 4.73801 0.320081H2.15354C0.968523 0.320081 1.42144e-05 1.289 1.42144e-05 2.47401L1.42144e-05 26.8456C1.42144e-05 28.0302 0.968935 28.9995 2.15354 28.9995Z" fill="#025EA1"/>
</svg>
