<svg width="158" height="224" viewBox="0 0 158 224" fill="none" xmlns="http://www.w3.org/2000/svg">
<rect width="158" height="224" rx="5" fill="#FFD300"/>
<mask id="path-2-inside-1" fill="white">
<rect x="9" y="9" width="140" height="207" rx="2"/>
</mask>
<rect x="9" y="9" width="140" height="207" rx="2" fill="white" stroke="#2179B9" stroke-width="14" mask="url(#path-2-inside-1)"/>
<path d="M68.0332 172.096C67.3292 172.096 66.7812 171.896 66.3892 171.496C65.9972 171.088 65.8012 170.528 65.8012 169.816V167.476H65.0332V165.988H65.9812L67.0972 163.72H68.3092V165.988H69.7012V167.476H68.3092V169.516C68.3092 169.716 68.3732 169.872 68.5012 169.984C68.6292 170.096 68.8092 170.152 69.0412 170.152C69.2572 170.152 69.4532 170.104 69.6292 170.008L69.7252 171.688C69.5252 171.808 69.2652 171.908 68.9452 171.988C68.6332 172.06 68.3292 172.096 68.0332 172.096ZM73.8988 172.096C73.2268 172.096 72.6268 171.964 72.0988 171.7C71.5788 171.436 71.1708 171.072 70.8748 170.608C70.5868 170.136 70.4428 169.596 70.4428 168.988C70.4428 168.38 70.5908 167.844 70.8868 167.38C71.1828 166.908 71.5908 166.544 72.1108 166.288C72.6388 166.032 73.2388 165.904 73.9108 165.904C74.5908 165.904 75.1908 166.036 75.7108 166.3C76.2388 166.556 76.6468 166.916 76.9348 167.38C77.2228 167.844 77.3668 168.38 77.3668 168.988C77.3668 169.604 77.2188 170.148 76.9228 170.62C76.6348 171.084 76.2268 171.448 75.6988 171.712C75.1788 171.968 74.5788 172.096 73.8988 172.096ZM73.9228 170.296C74.2508 170.296 74.5188 170.176 74.7268 169.936C74.9428 169.688 75.0508 169.372 75.0508 168.988C75.0508 168.604 74.9428 168.292 74.7268 168.052C74.5188 167.804 74.2508 167.68 73.9228 167.68C73.5948 167.68 73.3228 167.804 73.1068 168.052C72.8988 168.292 72.7948 168.604 72.7948 168.988C72.7948 169.372 72.8988 169.688 73.1068 169.936C73.3228 170.176 73.5948 170.296 73.9228 170.296ZM78.5063 166.072H81.0383V167.296C81.2223 166.824 81.4703 166.476 81.7823 166.252C82.1023 166.02 82.4743 165.904 82.8983 165.904L83.2463 167.86C82.4863 167.86 81.9263 167.944 81.5663 168.112C81.2143 168.272 81.0383 168.528 81.0383 168.88V172H78.5063V166.072ZM86.7297 172.096C86.0257 172.096 85.4777 171.896 85.0857 171.496C84.6937 171.088 84.4977 170.528 84.4977 169.816V167.476H83.7297V165.988H84.6777L85.7937 163.72H87.0057V165.988H88.3977V167.476H87.0057V169.516C87.0057 169.716 87.0697 169.872 87.1977 169.984C87.3257 170.096 87.5057 170.152 87.7377 170.152C87.9537 170.152 88.1497 170.104 88.3257 170.008L88.4217 171.688C88.2217 171.808 87.9617 171.908 87.6417 171.988C87.3297 172.06 87.0257 172.096 86.7297 172.096ZM92.0914 172.096C91.5714 172.096 91.0834 171.96 90.6274 171.688C90.1794 171.408 89.8194 171.032 89.5474 170.56C89.2754 170.08 89.1394 169.548 89.1394 168.964C89.1394 168.388 89.2754 167.868 89.5474 167.404C89.8194 166.932 90.1834 166.564 90.6394 166.3C91.0954 166.036 91.5794 165.904 92.0914 165.904C92.5074 165.904 92.8914 166.02 93.2434 166.252C93.6034 166.484 93.8754 166.832 94.0594 167.296V165.904H96.5794V172H94.0594V170.884C93.6594 171.692 93.0034 172.096 92.0914 172.096ZM92.8714 170.2C93.1914 170.2 93.4634 170.088 93.6874 169.864C93.9194 169.632 94.0434 169.36 94.0594 169.048V168.952C94.0434 168.632 93.9154 168.36 93.6754 168.136C93.4434 167.912 93.1754 167.8 92.8714 167.8C92.5354 167.8 92.2474 167.92 92.0074 168.16C91.7754 168.392 91.6594 168.672 91.6594 169C91.6594 169.336 91.7794 169.62 92.0194 169.852C92.2594 170.084 92.5434 170.2 92.8714 170.2Z" fill="#2179B9"/>
<path d="M44.1918 187.672C44.1918 186.752 44.2438 186.092 44.3478 185.692C44.4598 185.284 44.6798 185.004 45.0078 184.852C45.3438 184.7 45.8918 184.624 46.6518 184.624V186.028C46.2438 186.028 45.9758 186.036 45.8478 186.052C45.7198 186.068 45.6358 186.116 45.5958 186.196C45.5558 186.276 45.5358 186.428 45.5358 186.652H46.6518V188.896H44.1918V187.672ZM47.3118 187.672C47.3118 186.752 47.3638 186.092 47.4678 185.692C47.5798 185.284 47.7998 185.004 48.1278 184.852C48.4638 184.7 49.0118 184.624 49.7718 184.624V186.028C49.3638 186.028 49.0958 186.036 48.9678 186.052C48.8398 186.068 48.7558 186.116 48.7158 186.196C48.6758 186.276 48.6558 186.428 48.6558 186.652H49.7718V188.896H47.3118V187.672ZM53.26 193.096C52.58 193.096 52.052 192.884 51.676 192.46C51.308 192.028 51.124 191.44 51.124 190.696V185.092L53.656 184.72V190.516C53.656 190.74 53.708 190.904 53.812 191.008C53.924 191.104 54.116 191.152 54.388 191.152C54.588 191.152 54.784 191.104 54.976 191.008L55.06 192.688C54.524 192.96 53.924 193.096 53.26 193.096ZM58.0352 193.096C57.3632 193.096 56.8392 192.88 56.4632 192.448C56.0872 192.016 55.8992 191.428 55.8992 190.684V186.988H58.4432V190.576C58.4432 190.76 58.4912 190.904 58.5872 191.008C58.6912 191.104 58.8232 191.152 58.9832 191.152C59.1432 191.152 59.3072 191.104 59.4752 191.008L59.6072 192.676C59.4312 192.812 59.1992 192.916 58.9112 192.988C58.6312 193.06 58.3392 193.096 58.0352 193.096ZM57.1712 186.088C56.7952 186.088 56.4752 185.972 56.2112 185.74C55.9552 185.5 55.8272 185.208 55.8272 184.864C55.8272 184.52 55.9632 184.232 56.2352 184C56.5072 183.768 56.8192 183.652 57.1712 183.652C57.5392 183.652 57.8552 183.772 58.1192 184.012C58.3912 184.252 58.5272 184.536 58.5272 184.864C58.5272 185.216 58.3912 185.508 58.1192 185.74C57.8472 185.972 57.5312 186.088 57.1712 186.088ZM63.0451 193.096C62.3411 193.096 61.7931 192.896 61.4011 192.496C61.0091 192.088 60.8131 191.528 60.8131 190.816V188.476H60.0451V186.988H60.9931L62.1091 184.72H63.3211V186.988H64.7131V188.476H63.3211V190.516C63.3211 190.716 63.3851 190.872 63.5131 190.984C63.6411 191.096 63.8211 191.152 64.0531 191.152C64.2691 191.152 64.4651 191.104 64.6411 191.008L64.7371 192.688C64.5371 192.808 64.2771 192.908 63.9571 192.988C63.6451 193.06 63.3411 193.096 63.0451 193.096ZM68.5 193.096C67.796 193.096 67.248 192.896 66.856 192.496C66.464 192.088 66.268 191.528 66.268 190.816V188.476H65.5V186.988H66.448L67.564 184.72H68.776V186.988H70.168V188.476H68.776V190.516C68.776 190.716 68.84 190.872 68.968 190.984C69.096 191.096 69.276 191.152 69.508 191.152C69.724 191.152 69.92 191.104 70.096 191.008L70.192 192.688C69.992 192.808 69.732 192.908 69.412 192.988C69.1 193.06 68.796 193.096 68.5 193.096ZM73.4388 193.096C72.7588 193.096 72.2308 192.884 71.8548 192.46C71.4868 192.028 71.3028 191.44 71.3028 190.696V185.092L73.8348 184.72V190.516C73.8348 190.74 73.8868 190.904 73.9908 191.008C74.1028 191.104 74.2948 191.152 74.5668 191.152C74.7668 191.152 74.9628 191.104 75.1548 191.008L75.2388 192.688C74.7028 192.96 74.1028 193.096 73.4388 193.096ZM79.21 193.096C78.546 193.096 77.954 192.964 77.434 192.7C76.922 192.428 76.522 192.06 76.234 191.596C75.946 191.124 75.802 190.592 75.802 190C75.802 189.392 75.95 188.852 76.246 188.38C76.542 187.908 76.942 187.544 77.446 187.288C77.95 187.032 78.51 186.904 79.126 186.904C79.718 186.904 80.222 187.036 80.638 187.3C81.062 187.556 81.378 187.908 81.586 188.356C81.794 188.796 81.898 189.292 81.898 189.844C81.898 189.988 81.89 190.092 81.874 190.156L78.274 190.624C78.37 190.904 78.526 191.108 78.742 191.236C78.958 191.356 79.242 191.416 79.594 191.416C80.138 191.416 80.726 191.276 81.358 190.996L81.658 192.604C80.914 192.932 80.098 193.096 79.21 193.096ZM80.038 189.112C79.91 188.608 79.606 188.356 79.126 188.356C78.838 188.356 78.61 188.464 78.442 188.68C78.274 188.896 78.186 189.176 78.178 189.52L80.038 189.112ZM85.4882 187.072H88.0202V188.116C88.4042 187.308 89.0562 186.904 89.9762 186.904C90.5122 186.904 91.0042 187.04 91.4522 187.312C91.9082 187.576 92.2642 187.944 92.5202 188.416C92.7842 188.888 92.9162 189.416 92.9162 190C92.9162 190.584 92.7802 191.112 92.5082 191.584C92.2442 192.056 91.8842 192.428 91.4282 192.7C90.9802 192.964 90.5002 193.096 89.9882 193.096C89.0762 193.096 88.4202 192.692 88.0202 191.884V194.56L85.4882 195.04V187.072ZM89.2202 191.2C89.5482 191.2 89.8282 191.08 90.0602 190.84C90.2922 190.6 90.4082 190.32 90.4082 190C90.4082 189.664 90.2882 189.38 90.0482 189.148C89.8162 188.916 89.5402 188.8 89.2202 188.8C88.8922 188.8 88.6122 188.916 88.3802 189.148C88.1482 189.372 88.0322 189.64 88.0322 189.952V190C88.0322 190.336 88.1482 190.62 88.3802 190.852C88.6202 191.084 88.9002 191.2 89.2202 191.2ZM96.184 193.096C95.512 193.096 94.988 192.88 94.612 192.448C94.236 192.016 94.048 191.428 94.048 190.684V186.988H96.592V190.576C96.592 190.76 96.64 190.904 96.736 191.008C96.84 191.104 96.972 191.152 97.132 191.152C97.292 191.152 97.456 191.104 97.624 191.008L97.756 192.676C97.58 192.812 97.348 192.916 97.06 192.988C96.78 193.06 96.488 193.096 96.184 193.096ZM95.32 186.088C94.944 186.088 94.624 185.972 94.36 185.74C94.104 185.5 93.976 185.208 93.976 184.864C93.976 184.52 94.112 184.232 94.384 184C94.656 183.768 94.968 183.652 95.32 183.652C95.688 183.652 96.004 183.772 96.268 184.012C96.54 184.252 96.676 184.536 96.676 184.864C96.676 185.216 96.54 185.508 96.268 185.74C95.996 185.972 95.68 186.088 95.32 186.088ZM101.803 193.096C101.139 193.096 100.547 192.964 100.027 192.7C99.5148 192.428 99.1148 192.06 98.8268 191.596C98.5388 191.124 98.3948 190.592 98.3948 190C98.3948 189.392 98.5428 188.852 98.8388 188.38C99.1348 187.908 99.5348 187.544 100.039 187.288C100.543 187.032 101.103 186.904 101.719 186.904C102.311 186.904 102.815 187.036 103.231 187.3C103.655 187.556 103.971 187.908 104.179 188.356C104.387 188.796 104.491 189.292 104.491 189.844C104.491 189.988 104.483 190.092 104.467 190.156L100.867 190.624C100.963 190.904 101.119 191.108 101.335 191.236C101.551 191.356 101.835 191.416 102.187 191.416C102.731 191.416 103.319 191.276 103.951 190.996L104.251 192.604C103.507 192.932 102.691 193.096 101.803 193.096ZM102.631 189.112C102.503 188.608 102.199 188.356 101.719 188.356C101.431 188.356 101.203 188.464 101.035 188.68C100.867 188.896 100.779 189.176 100.771 189.52L102.631 189.112ZM107.679 193.096C106.839 193.096 106.103 192.972 105.471 192.724L105.747 191.296C106.323 191.504 106.883 191.608 107.427 191.608C107.827 191.608 108.027 191.496 108.027 191.272C108.027 191.16 107.967 191.068 107.847 190.996C107.735 190.924 107.519 190.86 107.199 190.804C106.535 190.676 106.055 190.46 105.759 190.156C105.471 189.852 105.327 189.42 105.327 188.86C105.359 188.228 105.611 187.744 106.083 187.408C106.555 187.072 107.199 186.904 108.015 186.904C108.431 186.904 108.787 186.932 109.083 186.988C109.387 187.036 109.663 187.12 109.911 187.24L109.659 188.668C109.427 188.58 109.171 188.512 108.891 188.464C108.619 188.416 108.391 188.392 108.207 188.392C107.935 188.392 107.747 188.42 107.643 188.476C107.539 188.532 107.487 188.608 107.487 188.704C107.487 188.88 107.687 189.004 108.087 189.076C108.815 189.204 109.359 189.428 109.719 189.748C110.079 190.068 110.259 190.504 110.259 191.056C110.259 191.688 110.035 192.188 109.587 192.556C109.147 192.916 108.511 193.096 107.679 193.096ZM111.232 187.612C111.64 187.612 111.908 187.604 112.036 187.588C112.164 187.572 112.248 187.524 112.288 187.444C112.328 187.364 112.348 187.212 112.348 186.988H111.232V184.744H113.692V185.968C113.692 186.888 113.636 187.552 113.524 187.96C113.42 188.36 113.2 188.636 112.864 188.788C112.536 188.94 111.992 189.016 111.232 189.016V187.612ZM114.352 187.612C114.76 187.612 115.028 187.604 115.156 187.588C115.284 187.572 115.368 187.524 115.408 187.444C115.448 187.364 115.468 187.212 115.468 186.988H114.352V184.744H116.812V185.968C116.812 186.888 116.756 187.552 116.644 187.96C116.54 188.36 116.32 188.636 115.984 188.788C115.656 188.94 115.112 189.016 114.352 189.016V187.612Z" fill="#393A32"/>
<path d="M35.0212 124.352H32.4472V121.616H41.7892V124.352H39.2152V134H35.0212V124.352ZM47.9907 134.144C46.9827 134.144 46.0827 133.946 45.2907 133.55C44.5107 133.154 43.8987 132.608 43.4547 131.912C43.0227 131.204 42.8067 130.394 42.8067 129.482C42.8067 128.57 43.0287 127.766 43.4727 127.07C43.9167 126.362 44.5287 125.816 45.3087 125.432C46.1007 125.048 47.0007 124.856 48.0087 124.856C49.0287 124.856 49.9287 125.054 50.7087 125.45C51.5007 125.834 52.1127 126.374 52.5447 127.07C52.9767 127.766 53.1927 128.57 53.1927 129.482C53.1927 130.406 52.9707 131.222 52.5267 131.93C52.0947 132.626 51.4827 133.172 50.6907 133.568C49.9107 133.952 49.0107 134.144 47.9907 134.144ZM48.0267 131.444C48.5187 131.444 48.9207 131.264 49.2327 130.904C49.5567 130.532 49.7187 130.058 49.7187 129.482C49.7187 128.906 49.5567 128.438 49.2327 128.078C48.9207 127.706 48.5187 127.52 48.0267 127.52C47.5347 127.52 47.1267 127.706 46.8027 128.078C46.4907 128.438 46.3347 128.906 46.3347 129.482C46.3347 130.058 46.4907 130.532 46.8027 130.904C47.1267 131.264 47.5347 131.444 48.0267 131.444ZM55.6219 125.108H59.4199V126.944C59.6959 126.236 60.0679 125.714 60.5359 125.378C61.0159 125.03 61.5739 124.856 62.2099 124.856L62.7319 127.79C61.5919 127.79 60.7519 127.916 60.2119 128.168C59.6839 128.408 59.4199 128.792 59.4199 129.32V134H55.6219V125.108ZM68.6771 134.144C67.6211 134.144 66.7991 133.844 66.2111 133.244C65.6231 132.632 65.3291 131.792 65.3291 130.724V127.214H64.1771V124.982H65.5991L67.2731 121.58H69.0911V124.982H71.1791V127.214H69.0911V130.274C69.0911 130.574 69.1871 130.808 69.3791 130.976C69.5711 131.144 69.8411 131.228 70.1891 131.228C70.5131 131.228 70.8071 131.156 71.0711 131.012L71.2151 133.532C70.9151 133.712 70.5251 133.862 70.0451 133.982C69.5771 134.09 69.1211 134.144 68.6771 134.144ZM78.1236 134.144C77.1276 134.144 76.2396 133.946 75.4596 133.55C74.6916 133.142 74.0916 132.59 73.6596 131.894C73.2276 131.186 73.0116 130.388 73.0116 129.5C73.0116 128.588 73.2336 127.778 73.6776 127.07C74.1216 126.362 74.7216 125.816 75.4776 125.432C76.2336 125.048 77.0736 124.856 77.9976 124.856C78.8856 124.856 79.6416 125.054 80.2656 125.45C80.9016 125.834 81.3756 126.362 81.6876 127.034C81.9996 127.694 82.1556 128.438 82.1556 129.266C82.1556 129.482 82.1436 129.638 82.1196 129.734L76.7196 130.436C76.8636 130.856 77.0976 131.162 77.4216 131.354C77.7456 131.534 78.1716 131.624 78.6996 131.624C79.5156 131.624 80.3976 131.414 81.3456 130.994L81.7956 133.406C80.6796 133.898 79.4556 134.144 78.1236 134.144ZM79.3656 128.168C79.1736 127.412 78.7176 127.034 77.9976 127.034C77.5656 127.034 77.2236 127.196 76.9716 127.52C76.7196 127.844 76.5876 128.264 76.5756 128.78L79.3656 128.168ZM87.7115 134.144C86.6915 134.144 85.8995 133.826 85.3355 133.19C84.7835 132.542 84.5075 131.66 84.5075 130.544V122.138L88.3055 121.58V130.274C88.3055 130.61 88.3835 130.856 88.5395 131.012C88.7075 131.156 88.9955 131.228 89.4035 131.228C89.7035 131.228 89.9975 131.156 90.2855 131.012L90.4115 133.532C89.6075 133.94 88.7075 134.144 87.7115 134.144ZM95.5942 134.144C94.5742 134.144 93.7822 133.826 93.2182 133.19C92.6662 132.542 92.3902 131.66 92.3902 130.544V122.138L96.1882 121.58V130.274C96.1882 130.61 96.2662 130.856 96.4222 131.012C96.5902 131.156 96.8782 131.228 97.2862 131.228C97.5862 131.228 97.8802 131.156 98.1682 131.012L98.2942 133.532C97.4902 133.94 96.5902 134.144 95.5942 134.144ZM103.477 134.144C102.469 134.144 101.683 133.82 101.119 133.172C100.555 132.524 100.273 131.642 100.273 130.526V124.982H104.089V130.364C104.089 130.64 104.161 130.856 104.305 131.012C104.461 131.156 104.659 131.228 104.899 131.228C105.139 131.228 105.385 131.156 105.637 131.012L105.835 133.514C105.571 133.718 105.223 133.874 104.791 133.982C104.371 134.09 103.933 134.144 103.477 134.144ZM102.181 123.632C101.617 123.632 101.137 123.458 100.741 123.11C100.357 122.75 100.165 122.312 100.165 121.796C100.165 121.28 100.369 120.848 100.777 120.5C101.185 120.152 101.653 119.978 102.181 119.978C102.733 119.978 103.207 120.158 103.603 120.518C104.011 120.878 104.215 121.304 104.215 121.796C104.215 122.324 104.011 122.762 103.603 123.11C103.195 123.458 102.721 123.632 102.181 123.632ZM107.963 125.108H111.581V126.944C112.277 125.552 113.381 124.856 114.893 124.856C116.045 124.856 116.945 125.27 117.593 126.098C118.253 126.914 118.583 128.048 118.583 129.5V134H114.803V129.122C114.803 128.606 114.689 128.21 114.461 127.934C114.245 127.658 113.939 127.52 113.543 127.52C113.255 127.52 112.973 127.616 112.697 127.808C112.421 127.988 112.193 128.252 112.013 128.6C111.845 128.948 111.761 129.344 111.761 129.788V134H107.963V125.108ZM124.569 134.144C123.561 134.144 122.775 133.82 122.211 133.172C121.647 132.524 121.365 131.642 121.365 130.526V124.982H125.181V130.364C125.181 130.64 125.253 130.856 125.397 131.012C125.553 131.156 125.751 131.228 125.991 131.228C126.231 131.228 126.477 131.156 126.729 131.012L126.927 133.514C126.663 133.718 126.315 133.874 125.883 133.982C125.463 134.09 125.025 134.144 124.569 134.144ZM123.273 123.632C122.709 123.632 122.229 123.458 121.833 123.11C121.449 122.75 121.257 122.312 121.257 121.796C121.257 121.28 121.461 120.848 121.869 120.5C122.277 120.152 122.745 119.978 123.273 119.978C123.825 119.978 124.299 120.158 124.695 120.518C125.103 120.878 125.307 121.304 125.307 121.796C125.307 122.324 125.103 122.762 124.695 123.11C124.287 123.458 123.813 123.632 123.273 123.632Z" fill="#393A32"/>
<rect x="46" y="145.901" width="65.45" height="0.897773" fill="#082D74"/>
<rect x="57.7808" y="145" width="13.9627" height="3.1422" fill="#3F8D43"/>
<rect x="71.7454" y="145" width="13.9627" height="3.1422" fill="white"/>
<rect x="85.7046" y="145" width="13.9627" height="3.1422" fill="#D12C29"/>
<path d="M99.1675 75.649C93.0304 73.0448 86.6252 73.447 83.5423 76.8554C80.4593 80.2638 81.0721 85.8935 81.6274 90.8913C81.8955 93.2657 82.0295 94.4529 82.6997 95.6784C83.2455 96.7029 83.8774 97.3444 83.6572 97.9475C83.2933 98.905 81.2636 98.905 80.67 98.905C73.1733 98.905 63.4363 90.6232 63.4363 90.6232C59.6347 87.5695 56.3108 83.9649 53.5748 79.9287C50.578 75.4097 46.643 69.4832 47.026 61.4887C47.1252 58.477 47.8524 55.5192 49.161 52.8048C54.4843 42.0433 68.166 39.4008 75.2126 38.1083C79.9998 37.2083 85.9167 36.1456 93.2506 38.1083C98.4638 39.3217 103.231 41.9758 107.009 45.7677C110.256 48.9379 112.528 52.971 113.558 57.3909C114.879 63.595 112.993 68.5162 111.154 73.2938C111.154 73.2938 106.109 86.4297 89.9092 96.3869C88.9996 97.0058 87.9161 97.3178 86.8167 97.2773C84.3561 97.0954 82.6806 94.7402 81.9817 93.6104" stroke="#1A1A1A" stroke-width="3" stroke-linecap="round" stroke-linejoin="round"/>
<path d="M97.5686 79.1914C96.9942 79.1914 91.0198 79.5744 88.2241 84.3423C87.7646 85.1274 85.8018 88.488 87.3529 91.9156C88.1392 93.5361 89.4714 94.8277 91.1156 95.5634C91.3052 93.6054 91.8571 91.6996 92.7432 89.9433C94.5623 86.3817 97.0708 85.0125 100.403 81.9296C103.114 79.6005 105.423 76.8414 107.239 73.7628C108.984 70.3146 109.804 66.4722 109.618 62.6119C109.431 58.7516 108.245 55.0059 106.176 51.7419C104.904 49.6714 103.12 47.9634 100.996 46.7824C96.5729 44.4463 91.8911 45.4229 89.0667 46.0069C84.6912 46.9643 83.9636 48.0941 81.9147 48.8792C81.1356 49.1577 80.3351 49.3723 79.5211 49.5207C75.4903 50.2292 68.9894 47.3856 63.9342 47.8165C60.5114 48.2472 57.3475 49.863 54.9918 52.3834C50.0323 57.4961 49.9749 65.3853 51.9472 70.8235C52.838 73.2725 54.2194 75.514 56.0067 77.4106C55.8056 75.2181 55.5471 72.0873 55.3652 68.315C55.0971 62.9343 55.0014 60.2056 55.5567 58.128C56.0354 56.3471 57.3854 52.01 63.9055 47.9122" stroke="#1A1A1A" stroke-width="3" stroke-linecap="round" stroke-linejoin="round"/>
<path d="M82.6999 95.6978C80.9286 96.0904 80.0095 95.6978 79.5116 95.3436C77.2329 93.6106 79.8563 88.9575 77.3 85.5874C76.2755 84.2278 74.8107 83.6725 73.183 83.0981C70.9526 82.2806 68.5516 82.0402 66.2034 82.3992" stroke="#1A1A1A" stroke-width="3" stroke-linecap="round" stroke-linejoin="round"/>
<path d="M80.8039 81.1065C79.9942 80.1442 79.0569 79.297 78.0178 78.5885C76.1096 77.3082 73.9533 76.4438 71.6892 76.0513" stroke="#1A1A1A" stroke-width="3" stroke-linecap="round" stroke-linejoin="round"/>
<path d="M55.8726 76.0607C55.8726 76.3288 55.8726 79.3734 57.7204 80.2638C58.0938 80.4457 58.6778 80.618 60.3533 80.2638C62.0309 79.8861 63.6309 79.2222 65.083 78.3011C67.5021 76.9372 70.167 76.0652 72.9244 75.7351C76.4727 75.1584 80.1108 75.5487 83.4561 76.8649" stroke="#1A1A1A" stroke-width="3" stroke-linecap="round" stroke-linejoin="round"/>
<path d="M94.074 45.356C98.6888 47.3666 100.719 49.9037 101.733 51.7899C103.648 55.4377 102.691 58.3291 103.868 64.2364C104.529 67.5685 105.653 70.7914 107.21 73.8107" stroke="#1A1A1A" stroke-width="3" stroke-linecap="round" stroke-linejoin="round"/>
<path d="M78.6976 94.1367C77.0878 94.2742 75.4664 94.1218 73.9104 93.6867C71.3828 92.9686 69.5637 91.6378 64.6425 86.8507C62.9479 85.1943 60.8128 83.021 58.4097 80.5029" stroke="#1A1A1A" stroke-width="3" stroke-linecap="round" stroke-linejoin="round"/>
</svg>
