<svg width="166" height="232" viewBox="0 0 166 232" fill="none" xmlns="http://www.w3.org/2000/svg">
<rect x="4" y="4" width="158" height="224" rx="5" fill="#FFF8F8" stroke="#F7575C" stroke-width="7"/>
<path d="M70.102 26.696C70.094 26.736 70.09 26.788 70.09 26.852C70.09 26.996 70.13 27.1 70.21 27.164C70.298 27.228 70.438 27.26 70.63 27.26H71.362L71.05 29H70.006C68.662 29 67.99 28.436 67.99 27.308C67.99 27.14 68.01 26.928 68.05 26.672L68.53 24.008H67.714L68.014 22.304H68.83L69.118 20.672H71.17L70.882 22.304H72.226L71.926 24.008H70.582L70.102 26.696ZM75.493 29.096C74.917 29.096 74.405 28.98 73.957 28.748C73.509 28.516 73.161 28.188 72.913 27.764C72.673 27.34 72.553 26.848 72.553 26.288C72.553 25.528 72.733 24.836 73.093 24.212C73.453 23.588 73.949 23.1 74.581 22.748C75.213 22.388 75.917 22.208 76.693 22.208C77.269 22.208 77.781 22.328 78.229 22.568C78.685 22.8 79.037 23.128 79.285 23.552C79.533 23.976 79.657 24.468 79.657 25.028C79.657 25.796 79.473 26.492 79.105 27.116C78.745 27.732 78.245 28.216 77.605 28.568C76.973 28.92 76.269 29.096 75.493 29.096ZM75.781 27.332C76.117 27.332 76.417 27.232 76.681 27.032C76.953 26.824 77.161 26.56 77.305 26.24C77.457 25.912 77.533 25.572 77.533 25.22C77.533 24.82 77.425 24.512 77.209 24.296C76.993 24.08 76.721 23.972 76.393 23.972C76.049 23.972 75.745 24.076 75.481 24.284C75.225 24.484 75.025 24.748 74.881 25.076C74.737 25.404 74.665 25.748 74.665 26.108C74.665 26.5 74.769 26.804 74.977 27.02C75.185 27.228 75.453 27.332 75.781 27.332ZM83.3256 23.516C83.6376 23.116 83.9936 22.804 84.3936 22.58C84.8016 22.348 85.2256 22.232 85.6656 22.232L85.2816 24.404H84.7176C84.2056 24.404 83.8016 24.516 83.5056 24.74C83.2096 24.956 83.0136 25.34 82.9176 25.892L82.3656 29H80.3136L81.4896 22.304H83.5416L83.3256 23.516ZM88.4705 26.696C88.4625 26.736 88.4585 26.788 88.4585 26.852C88.4585 26.996 88.4985 27.1 88.5785 27.164C88.6665 27.228 88.8065 27.26 88.9985 27.26H89.7305L89.4185 29H88.3745C87.0305 29 86.3585 28.436 86.3585 27.308C86.3585 27.14 86.3785 26.928 86.4185 26.672L86.8985 24.008H86.0825L86.3825 22.304H87.1985L87.4865 20.672H89.5385L89.2505 22.304H90.5945L90.2945 24.008H88.9505L88.4705 26.696ZM90.9935 25.64C91.1135 24.952 91.3495 24.348 91.7015 23.828C92.0535 23.308 92.4775 22.908 92.9735 22.628C93.4695 22.348 93.9935 22.208 94.5455 22.208C95.0175 22.208 95.4135 22.304 95.7335 22.496C96.0535 22.688 96.2855 22.94 96.4295 23.252L96.5975 22.304H98.6495L97.4615 29H95.4095L95.5895 28.052C95.3335 28.364 95.0095 28.616 94.6175 28.808C94.2255 29 93.7935 29.096 93.3215 29.096C92.8495 29.096 92.4295 28.988 92.0615 28.772C91.7015 28.556 91.4215 28.252 91.2215 27.86C91.0215 27.46 90.9215 26.992 90.9215 26.456C90.9215 26.2 90.9455 25.928 90.9935 25.64ZM96.0095 25.652C96.0335 25.508 96.0455 25.376 96.0455 25.256C96.0455 24.864 95.9295 24.556 95.6975 24.332C95.4735 24.108 95.1855 23.996 94.8335 23.996C94.4255 23.996 94.0535 24.144 93.7175 24.44C93.3815 24.728 93.1695 25.128 93.0815 25.64C93.0575 25.784 93.0455 25.916 93.0455 26.036C93.0455 26.428 93.1575 26.74 93.3815 26.972C93.6135 27.196 93.9015 27.308 94.2455 27.308C94.6535 27.308 95.0255 27.16 95.3615 26.864C95.6975 26.568 95.9135 26.164 96.0095 25.652Z" fill="#3CAA90"/>
<path d="M52.5524 44.792H50.4524L51.7964 41.576H53.1764L52.5524 44.792ZM55.2764 44.792H53.1884L54.5324 41.576H55.9004L55.2764 44.792ZM59.5246 41.12V50H57.4726V41.12H59.5246ZM62.2837 42.608C61.9237 42.608 61.6277 42.504 61.3957 42.296C61.1717 42.08 61.0597 41.816 61.0597 41.504C61.0597 41.184 61.1717 40.92 61.3957 40.712C61.6277 40.496 61.9237 40.388 62.2837 40.388C62.6357 40.388 62.9237 40.496 63.1477 40.712C63.3797 40.92 63.4957 41.184 63.4957 41.504C63.4957 41.816 63.3797 42.08 63.1477 42.296C62.9237 42.504 62.6357 42.608 62.2837 42.608ZM63.3037 43.304V50H61.2517V43.304H63.3037ZM68.7627 48.26V50H67.7187C66.9747 50 66.3947 49.82 65.9787 49.46C65.5627 49.092 65.3547 48.496 65.3547 47.672V45.008H64.5387V43.304H65.3547V41.672H67.4067V43.304H68.7507V45.008H67.4067V47.696C67.4067 47.896 67.4547 48.04 67.5507 48.128C67.6467 48.216 67.8067 48.26 68.0307 48.26H68.7627ZM73.8777 48.26V50H72.8337C72.0897 50 71.5097 49.82 71.0937 49.46C70.6777 49.092 70.4697 48.496 70.4697 47.672V45.008H69.6537V43.304H70.4697V41.672H72.5217V43.304H73.8657V45.008H72.5217V47.696C72.5217 47.896 72.5697 48.04 72.6657 48.128C72.7617 48.216 72.9217 48.26 73.1457 48.26H73.8777ZM77.3127 41.12V50H75.2607V41.12H77.3127ZM85.3518 46.544C85.3518 46.736 85.3398 46.936 85.3158 47.144H80.6718C80.7038 47.56 80.8358 47.88 81.0678 48.104C81.3078 48.32 81.5998 48.428 81.9438 48.428C82.4558 48.428 82.8118 48.212 83.0118 47.78H85.1958C85.0838 48.22 84.8798 48.616 84.5838 48.968C84.2958 49.32 83.9318 49.596 83.4918 49.796C83.0518 49.996 82.5598 50.096 82.0158 50.096C81.3598 50.096 80.7758 49.956 80.2638 49.676C79.7518 49.396 79.3518 48.996 79.0638 48.476C78.7758 47.956 78.6318 47.348 78.6318 46.652C78.6318 45.956 78.7718 45.348 79.0518 44.828C79.3398 44.308 79.7398 43.908 80.2518 43.628C80.7638 43.348 81.3518 43.208 82.0158 43.208C82.6638 43.208 83.2398 43.344 83.7438 43.616C84.2478 43.888 84.6398 44.276 84.9198 44.78C85.2078 45.284 85.3518 45.872 85.3518 46.544ZM83.2518 46.004C83.2518 45.652 83.1318 45.372 82.8918 45.164C82.6518 44.956 82.3518 44.852 81.9918 44.852C81.6478 44.852 81.3558 44.952 81.1158 45.152C80.8838 45.352 80.7398 45.636 80.6838 46.004H83.2518ZM91.5093 44.252C91.7093 43.94 91.9853 43.688 92.3373 43.496C92.6893 43.304 93.1013 43.208 93.5733 43.208C94.1253 43.208 94.6253 43.348 95.0733 43.628C95.5213 43.908 95.8733 44.308 96.1293 44.828C96.3933 45.348 96.5253 45.952 96.5253 46.64C96.5253 47.328 96.3933 47.936 96.1293 48.464C95.8733 48.984 95.5213 49.388 95.0733 49.676C94.6253 49.956 94.1253 50.096 93.5733 50.096C93.1093 50.096 92.6973 50 92.3373 49.808C91.9853 49.616 91.7093 49.368 91.5093 49.064V53.192H89.4573V43.304H91.5093V44.252ZM94.4373 46.64C94.4373 46.128 94.2933 45.728 94.0053 45.44C93.7253 45.144 93.3773 44.996 92.9613 44.996C92.5533 44.996 92.2053 45.144 91.9173 45.44C91.6373 45.736 91.4973 46.14 91.4973 46.652C91.4973 47.164 91.6373 47.568 91.9173 47.864C92.2053 48.16 92.5533 48.308 92.9613 48.308C93.3693 48.308 93.7173 48.16 94.0053 47.864C94.2933 47.56 94.4373 47.152 94.4373 46.64ZM98.8738 42.608C98.5138 42.608 98.2178 42.504 97.9858 42.296C97.7618 42.08 97.6498 41.816 97.6498 41.504C97.6498 41.184 97.7618 40.92 97.9858 40.712C98.2178 40.496 98.5138 40.388 98.8738 40.388C99.2258 40.388 99.5138 40.496 99.7378 40.712C99.9698 40.92 100.086 41.184 100.086 41.504C100.086 41.816 99.9698 42.08 99.7378 42.296C99.5138 42.504 99.2258 42.608 98.8738 42.608ZM99.8938 43.304V50H97.8418V43.304H99.8938ZM107.933 46.544C107.933 46.736 107.921 46.936 107.897 47.144H103.253C103.285 47.56 103.417 47.88 103.649 48.104C103.889 48.32 104.181 48.428 104.525 48.428C105.037 48.428 105.393 48.212 105.593 47.78H107.777C107.665 48.22 107.461 48.616 107.165 48.968C106.877 49.32 106.513 49.596 106.073 49.796C105.633 49.996 105.141 50.096 104.597 50.096C103.941 50.096 103.357 49.956 102.845 49.676C102.333 49.396 101.933 48.996 101.645 48.476C101.357 47.956 101.213 47.348 101.213 46.652C101.213 45.956 101.353 45.348 101.633 44.828C101.921 44.308 102.321 43.908 102.833 43.628C103.345 43.348 103.933 43.208 104.597 43.208C105.245 43.208 105.821 43.344 106.325 43.616C106.829 43.888 107.221 44.276 107.501 44.78C107.789 45.284 107.933 45.872 107.933 46.544ZM105.833 46.004C105.833 45.652 105.713 45.372 105.473 45.164C105.233 44.956 104.933 44.852 104.573 44.852C104.229 44.852 103.937 44.952 103.697 45.152C103.465 45.352 103.321 45.636 103.265 46.004H105.833ZM109.723 41.576H111.823L110.479 44.792H109.099L109.723 41.576ZM112.447 41.576H114.547L113.203 44.792H111.823L112.447 41.576Z" fill="#393A32"/>
<rect x="24" y="169" width="118" height="40" rx="2" fill="#3CAA90" fill-opacity="0.1"/>
<path d="M49.421 191.68V194H48.029C47.037 194 46.2637 193.76 45.709 193.28C45.1544 192.789 44.877 191.995 44.877 190.896V187.344H43.789V185.072H44.877V182.896H47.613V185.072H49.405V187.344H47.613V190.928C47.613 191.195 47.677 191.387 47.805 191.504C47.933 191.621 48.1464 191.68 48.445 191.68H49.421ZM55.969 194.128C55.0944 194.128 54.305 193.941 53.601 193.568C52.9077 193.195 52.3584 192.661 51.953 191.968C51.5584 191.275 51.361 190.464 51.361 189.536C51.361 188.619 51.5637 187.813 51.969 187.12C52.3744 186.416 52.929 185.877 53.633 185.504C54.337 185.131 55.1264 184.944 56.001 184.944C56.8757 184.944 57.665 185.131 58.369 185.504C59.073 185.877 59.6277 186.416 60.033 187.12C60.4384 187.813 60.641 188.619 60.641 189.536C60.641 190.453 60.433 191.264 60.017 191.968C59.6117 192.661 59.0517 193.195 58.337 193.568C57.633 193.941 56.8437 194.128 55.969 194.128ZM55.969 191.76C56.4917 191.76 56.9344 191.568 57.297 191.184C57.6704 190.8 57.857 190.251 57.857 189.536C57.857 188.821 57.6757 188.272 57.313 187.888C56.961 187.504 56.5237 187.312 56.001 187.312C55.4677 187.312 55.025 187.504 54.673 187.888C54.321 188.261 54.145 188.811 54.145 189.536C54.145 190.251 54.3157 190.8 54.657 191.184C55.009 191.568 55.4464 191.76 55.969 191.76ZM65.7885 186.56C66.1085 186.069 66.5085 185.685 66.9885 185.408C67.4685 185.12 68.0019 184.976 68.5885 184.976V187.872H67.8365C67.1539 187.872 66.6419 188.021 66.3005 188.32C65.9592 188.608 65.7885 189.12 65.7885 189.856V194H63.0525V185.072H65.7885V186.56ZM75.8323 191.68V194H74.4403C73.4483 194 72.6749 193.76 72.1203 193.28C71.5656 192.789 71.2883 191.995 71.2883 190.896V187.344H70.2003V185.072H71.2883V182.896H74.0243V185.072H75.8163V187.344H74.0243V190.928C74.0243 191.195 74.0883 191.387 74.2163 191.504C74.3443 191.621 74.5576 191.68 74.8563 191.68H75.8323ZM86.7323 189.392C86.7323 189.648 86.7163 189.915 86.6843 190.192H80.4923C80.5349 190.747 80.7109 191.173 81.0203 191.472C81.3403 191.76 81.7296 191.904 82.1883 191.904C82.8709 191.904 83.3456 191.616 83.6123 191.04H86.5243C86.3749 191.627 86.1029 192.155 85.7083 192.624C85.3243 193.093 84.8389 193.461 84.2523 193.728C83.6656 193.995 83.0096 194.128 82.2843 194.128C81.4096 194.128 80.6309 193.941 79.9483 193.568C79.2656 193.195 78.7323 192.661 78.3483 191.968C77.9643 191.275 77.7723 190.464 77.7723 189.536C77.7723 188.608 77.9589 187.797 78.3323 187.104C78.7163 186.411 79.2496 185.877 79.9323 185.504C80.6149 185.131 81.3989 184.944 82.2843 184.944C83.1483 184.944 83.9163 185.125 84.5883 185.488C85.2603 185.851 85.7829 186.368 86.1563 187.04C86.5403 187.712 86.7323 188.496 86.7323 189.392ZM83.9323 188.672C83.9323 188.203 83.7723 187.829 83.4523 187.552C83.1323 187.275 82.7323 187.136 82.2523 187.136C81.7936 187.136 81.4043 187.269 81.0843 187.536C80.7749 187.803 80.5829 188.181 80.5083 188.672H83.9323ZM91.8717 182.16V194H89.1357V182.16H91.8717ZM97.5504 182.16V194H94.8144V182.16H97.5504ZM101.869 184.144C101.389 184.144 100.994 184.005 100.685 183.728C100.386 183.44 100.237 183.088 100.237 182.672C100.237 182.245 100.386 181.893 100.685 181.616C100.994 181.328 101.389 181.184 101.869 181.184C102.338 181.184 102.722 181.328 103.021 181.616C103.33 181.893 103.485 182.245 103.485 182.672C103.485 183.088 103.33 183.44 103.021 183.728C102.722 184.005 102.338 184.144 101.869 184.144ZM103.229 185.072V194H100.493V185.072H103.229ZM111.612 184.976C112.657 184.976 113.489 185.317 114.108 186C114.737 186.672 115.052 187.6 115.052 188.784V194H112.332V189.152C112.332 188.555 112.177 188.091 111.868 187.76C111.559 187.429 111.143 187.264 110.62 187.264C110.097 187.264 109.681 187.429 109.372 187.76C109.063 188.091 108.908 188.555 108.908 189.152V194H106.172V185.072H108.908V186.256C109.185 185.861 109.559 185.552 110.028 185.328C110.497 185.093 111.025 184.976 111.612 184.976ZM119.289 184.144C118.809 184.144 118.414 184.005 118.105 183.728C117.806 183.44 117.657 183.088 117.657 182.672C117.657 182.245 117.806 181.893 118.105 181.616C118.414 181.328 118.809 181.184 119.289 181.184C119.758 181.184 120.142 181.328 120.441 181.616C120.75 181.893 120.905 182.245 120.905 182.672C120.905 183.088 120.75 183.44 120.441 183.728C120.142 184.005 119.758 184.144 119.289 184.144ZM120.649 185.072V194H117.913V185.072H120.649Z" fill="#393A32"/>
<path d="M102.487 117.368C96.0771 114.648 89.3871 115.068 86.1671 118.628C82.9471 122.188 83.5871 128.068 84.1671 133.288C84.4471 135.768 84.5871 137.008 85.2871 138.288C85.8571 139.358 86.5171 140.028 86.2871 140.658C85.9071 141.658 83.7871 141.658 83.1671 141.658C75.3371 141.658 65.1671 133.008 65.1671 133.008C61.1965 129.818 57.7249 126.053 54.8671 121.838C51.7371 117.118 47.6271 110.928 48.0271 102.578C48.1308 99.4319 48.8903 96.3426 50.2571 93.5076C55.8171 82.2676 70.1071 79.5076 77.4671 78.1576C82.4671 77.2176 88.6471 76.1076 96.3071 78.1576C101.752 79.425 106.731 82.197 110.677 86.1576C114.069 89.4688 116.442 93.6812 117.517 98.2976C118.897 104.778 116.927 109.918 115.007 114.908C115.007 114.908 109.737 128.628 92.8171 139.028C91.8671 139.674 90.7354 140 89.5871 139.958C87.0171 139.768 85.2671 137.308 84.5371 136.128" stroke="#393A32" stroke-width="3" stroke-linecap="round" stroke-linejoin="round"/>
<path d="M100.817 121.068C100.217 121.068 93.9771 121.468 91.0571 126.448C90.5771 127.268 88.5271 130.778 90.1471 134.358C90.9683 136.05 92.3598 137.399 94.0771 138.168C94.2751 136.122 94.8516 134.132 95.7771 132.298C97.6771 128.578 100.297 127.148 103.777 123.928C106.609 121.495 109.021 118.613 110.917 115.398C112.74 111.796 113.596 107.783 113.402 103.751C113.207 99.7189 111.969 95.8067 109.807 92.3976C108.478 90.235 106.615 88.4511 104.397 87.2176C99.7771 84.7776 94.8871 85.7976 91.9371 86.4076C87.3671 87.4076 86.6071 88.5876 84.4671 89.4076C83.6533 89.6985 82.8172 89.9225 81.9671 90.0776C77.7571 90.8176 70.9671 87.8476 65.6871 88.2976C62.1121 88.7475 58.8075 90.4352 56.3471 93.0676C51.1671 98.4076 51.1071 106.648 53.1671 112.328C54.0975 114.886 55.5403 117.227 57.4071 119.208C57.1971 116.918 56.9271 113.648 56.7371 109.708C56.4571 104.088 56.3571 101.238 56.9371 99.0676C57.4371 97.2076 58.8471 92.6776 65.6571 88.3976" stroke="#393A32" stroke-width="3" stroke-linecap="round" stroke-linejoin="round"/>
<path d="M85.2871 138.308C83.4371 138.718 82.4771 138.308 81.9571 137.938C79.5771 136.128 82.3171 131.268 79.6471 127.748C78.5771 126.328 77.0471 125.748 75.3471 125.148C73.0175 124.294 70.5098 124.043 68.0571 124.418" stroke="#393A32" stroke-width="3" stroke-linecap="round" stroke-linejoin="round"/>
<path d="M83.3071 123.068C82.4614 122.062 81.4824 121.178 80.3971 120.438C78.404 119.1 76.1519 118.198 73.7871 117.788" stroke="#393A32" stroke-width="3" stroke-linecap="round" stroke-linejoin="round"/>
<path d="M57.2671 117.798C57.2671 118.078 57.2671 121.258 59.1971 122.188C59.5871 122.378 60.1971 122.558 61.9471 122.188C63.6993 121.793 65.3704 121.1 66.8871 120.138C69.4137 118.713 72.1971 117.802 75.0771 117.458C78.7832 116.855 82.5831 117.263 86.0771 118.638" stroke="#393A32" stroke-width="3" stroke-linecap="round" stroke-linejoin="round"/>
<path d="M97.1671 85.7275C101.987 87.8275 104.107 90.4775 105.167 92.4475C107.167 96.2575 106.167 99.2775 107.397 105.448C108.087 108.928 109.261 112.294 110.887 115.448" stroke="#393A32" stroke-width="3" stroke-linecap="round" stroke-linejoin="round"/>
<path d="M81.1071 136.678C79.4258 136.821 77.7323 136.662 76.1071 136.208C73.4671 135.458 71.5671 134.068 66.4271 129.068C64.6571 127.338 62.4271 125.068 59.9171 122.438" stroke="#393A32" stroke-width="3" stroke-linecap="round" stroke-linejoin="round"/>
</svg>
