<svg width="158" height="224" viewBox="0 0 158 224" fill="none" xmlns="http://www.w3.org/2000/svg">
<rect width="158" height="224" rx="5" fill="#FFD300"/>
<mask id="path-2-inside-1" fill="white">
<rect x="9" y="9" width="140" height="207" rx="2"/>
</mask>
<rect x="9" y="9" width="140" height="207" rx="2" fill="white" stroke="#2179B9" stroke-width="14" mask="url(#path-2-inside-1)"/>
<path d="M36.0212 37.352H33.4472V34.616H42.7892V37.352H40.2152V47H36.0212V37.352ZM48.9907 47.144C47.9827 47.144 47.0827 46.946 46.2907 46.55C45.5107 46.154 44.8987 45.608 44.4547 44.912C44.0227 44.204 43.8067 43.394 43.8067 42.482C43.8067 41.57 44.0287 40.766 44.4727 40.07C44.9167 39.362 45.5287 38.816 46.3087 38.432C47.1007 38.048 48.0007 37.856 49.0087 37.856C50.0287 37.856 50.9287 38.054 51.7087 38.45C52.5007 38.834 53.1127 39.374 53.5447 40.07C53.9767 40.766 54.1927 41.57 54.1927 42.482C54.1927 43.406 53.9707 44.222 53.5267 44.93C53.0947 45.626 52.4827 46.172 51.6907 46.568C50.9107 46.952 50.0107 47.144 48.9907 47.144ZM49.0267 44.444C49.5187 44.444 49.9207 44.264 50.2327 43.904C50.5567 43.532 50.7187 43.058 50.7187 42.482C50.7187 41.906 50.5567 41.438 50.2327 41.078C49.9207 40.706 49.5187 40.52 49.0267 40.52C48.5347 40.52 48.1267 40.706 47.8027 41.078C47.4907 41.438 47.3347 41.906 47.3347 42.482C47.3347 43.058 47.4907 43.532 47.8027 43.904C48.1267 44.264 48.5347 44.444 49.0267 44.444ZM56.6219 38.108H60.4199V39.944C60.6959 39.236 61.0679 38.714 61.5359 38.378C62.0159 38.03 62.5739 37.856 63.2099 37.856L63.7319 40.79C62.5919 40.79 61.7519 40.916 61.2119 41.168C60.6839 41.408 60.4199 41.792 60.4199 42.32V47H56.6219V38.108ZM69.6771 47.144C68.6211 47.144 67.7991 46.844 67.2111 46.244C66.6231 45.632 66.3291 44.792 66.3291 43.724V40.214H65.1771V37.982H66.5991L68.2731 34.58H70.0911V37.982H72.1791V40.214H70.0911V43.274C70.0911 43.574 70.1871 43.808 70.3791 43.976C70.5711 44.144 70.8411 44.228 71.1891 44.228C71.5131 44.228 71.8071 44.156 72.0711 44.012L72.2151 46.532C71.9151 46.712 71.5251 46.862 71.0451 46.982C70.5771 47.09 70.1211 47.144 69.6771 47.144ZM79.1236 47.144C78.1276 47.144 77.2396 46.946 76.4596 46.55C75.6916 46.142 75.0916 45.59 74.6596 44.894C74.2276 44.186 74.0116 43.388 74.0116 42.5C74.0116 41.588 74.2336 40.778 74.6776 40.07C75.1216 39.362 75.7216 38.816 76.4776 38.432C77.2336 38.048 78.0736 37.856 78.9976 37.856C79.8856 37.856 80.6416 38.054 81.2656 38.45C81.9016 38.834 82.3756 39.362 82.6876 40.034C82.9996 40.694 83.1556 41.438 83.1556 42.266C83.1556 42.482 83.1436 42.638 83.1196 42.734L77.7196 43.436C77.8636 43.856 78.0976 44.162 78.4216 44.354C78.7456 44.534 79.1716 44.624 79.6996 44.624C80.5156 44.624 81.3976 44.414 82.3456 43.994L82.7956 46.406C81.6796 46.898 80.4556 47.144 79.1236 47.144ZM80.3656 41.168C80.1736 40.412 79.7176 40.034 78.9976 40.034C78.5656 40.034 78.2236 40.196 77.9716 40.52C77.7196 40.844 77.5876 41.264 77.5756 41.78L80.3656 41.168ZM88.7115 47.144C87.6915 47.144 86.8995 46.826 86.3355 46.19C85.7835 45.542 85.5075 44.66 85.5075 43.544V35.138L89.3055 34.58V43.274C89.3055 43.61 89.3835 43.856 89.5395 44.012C89.7075 44.156 89.9955 44.228 90.4035 44.228C90.7035 44.228 90.9975 44.156 91.2855 44.012L91.4115 46.532C90.6075 46.94 89.7075 47.144 88.7115 47.144ZM96.5942 47.144C95.5742 47.144 94.7822 46.826 94.2182 46.19C93.6662 45.542 93.3902 44.66 93.3902 43.544V35.138L97.1882 34.58V43.274C97.1882 43.61 97.2662 43.856 97.4222 44.012C97.5902 44.156 97.8782 44.228 98.2862 44.228C98.5862 44.228 98.8802 44.156 99.1682 44.012L99.2942 46.532C98.4902 46.94 97.5902 47.144 96.5942 47.144ZM104.477 47.144C103.469 47.144 102.683 46.82 102.119 46.172C101.555 45.524 101.273 44.642 101.273 43.526V37.982H105.089V43.364C105.089 43.64 105.161 43.856 105.305 44.012C105.461 44.156 105.659 44.228 105.899 44.228C106.139 44.228 106.385 44.156 106.637 44.012L106.835 46.514C106.571 46.718 106.223 46.874 105.791 46.982C105.371 47.09 104.933 47.144 104.477 47.144ZM103.181 36.632C102.617 36.632 102.137 36.458 101.741 36.11C101.357 35.75 101.165 35.312 101.165 34.796C101.165 34.28 101.369 33.848 101.777 33.5C102.185 33.152 102.653 32.978 103.181 32.978C103.733 32.978 104.207 33.158 104.603 33.518C105.011 33.878 105.215 34.304 105.215 34.796C105.215 35.324 105.011 35.762 104.603 36.11C104.195 36.458 103.721 36.632 103.181 36.632ZM108.963 38.108H112.581V39.944C113.277 38.552 114.381 37.856 115.893 37.856C117.045 37.856 117.945 38.27 118.593 39.098C119.253 39.914 119.583 41.048 119.583 42.5V47H115.803V42.122C115.803 41.606 115.689 41.21 115.461 40.934C115.245 40.658 114.939 40.52 114.543 40.52C114.255 40.52 113.973 40.616 113.697 40.808C113.421 40.988 113.193 41.252 113.013 41.6C112.845 41.948 112.761 42.344 112.761 42.788V47H108.963V38.108ZM125.569 47.144C124.561 47.144 123.775 46.82 123.211 46.172C122.647 45.524 122.365 44.642 122.365 43.526V37.982H126.181V43.364C126.181 43.64 126.253 43.856 126.397 44.012C126.553 44.156 126.751 44.228 126.991 44.228C127.231 44.228 127.477 44.156 127.729 44.012L127.927 46.514C127.663 46.718 127.315 46.874 126.883 46.982C126.463 47.09 126.025 47.144 125.569 47.144ZM124.273 36.632C123.709 36.632 123.229 36.458 122.833 36.11C122.449 35.75 122.257 35.312 122.257 34.796C122.257 34.28 122.461 33.848 122.869 33.5C123.277 33.152 123.745 32.978 124.273 32.978C124.825 32.978 125.299 33.158 125.695 33.518C126.103 33.878 126.307 34.304 126.307 34.796C126.307 35.324 126.103 35.762 125.695 36.11C125.287 36.458 124.813 36.632 124.273 36.632Z" fill="#393A32"/>
<path d="M68.5332 169.096C67.8292 169.096 67.2812 168.896 66.8892 168.496C66.4972 168.088 66.3012 167.528 66.3012 166.816V164.476H65.5332V162.988H66.4812L67.5972 160.72H68.8092V162.988H70.2012V164.476H68.8092V166.516C68.8092 166.716 68.8732 166.872 69.0012 166.984C69.1292 167.096 69.3092 167.152 69.5412 167.152C69.7572 167.152 69.9532 167.104 70.1292 167.008L70.2252 168.688C70.0252 168.808 69.7652 168.908 69.4452 168.988C69.1332 169.06 68.8292 169.096 68.5332 169.096ZM74.3988 169.096C73.7268 169.096 73.1268 168.964 72.5988 168.7C72.0788 168.436 71.6708 168.072 71.3748 167.608C71.0868 167.136 70.9428 166.596 70.9428 165.988C70.9428 165.38 71.0908 164.844 71.3868 164.38C71.6828 163.908 72.0908 163.544 72.6108 163.288C73.1388 163.032 73.7388 162.904 74.4108 162.904C75.0908 162.904 75.6908 163.036 76.2108 163.3C76.7388 163.556 77.1468 163.916 77.4348 164.38C77.7228 164.844 77.8668 165.38 77.8668 165.988C77.8668 166.604 77.7188 167.148 77.4228 167.62C77.1348 168.084 76.7268 168.448 76.1988 168.712C75.6788 168.968 75.0788 169.096 74.3988 169.096ZM74.4228 167.296C74.7508 167.296 75.0188 167.176 75.2268 166.936C75.4428 166.688 75.5508 166.372 75.5508 165.988C75.5508 165.604 75.4428 165.292 75.2268 165.052C75.0188 164.804 74.7508 164.68 74.4228 164.68C74.0948 164.68 73.8228 164.804 73.6068 165.052C73.3988 165.292 73.2948 165.604 73.2948 165.988C73.2948 166.372 73.3988 166.688 73.6068 166.936C73.8228 167.176 74.0948 167.296 74.4228 167.296ZM79.0063 163.072H81.5383V164.296C81.7223 163.824 81.9703 163.476 82.2823 163.252C82.6023 163.02 82.9743 162.904 83.3983 162.904L83.7463 164.86C82.9863 164.86 82.4263 164.944 82.0663 165.112C81.7143 165.272 81.5383 165.528 81.5383 165.88V169H79.0063V163.072ZM87.2297 169.096C86.5257 169.096 85.9777 168.896 85.5857 168.496C85.1937 168.088 84.9977 167.528 84.9977 166.816V164.476H84.2297V162.988H85.1777L86.2937 160.72H87.5057V162.988H88.8977V164.476H87.5057V166.516C87.5057 166.716 87.5697 166.872 87.6977 166.984C87.8257 167.096 88.0057 167.152 88.2377 167.152C88.4537 167.152 88.6497 167.104 88.8257 167.008L88.9217 168.688C88.7217 168.808 88.4617 168.908 88.1417 168.988C87.8297 169.06 87.5257 169.096 87.2297 169.096ZM92.5914 169.096C92.0714 169.096 91.5834 168.96 91.1274 168.688C90.6794 168.408 90.3194 168.032 90.0474 167.56C89.7754 167.08 89.6394 166.548 89.6394 165.964C89.6394 165.388 89.7754 164.868 90.0474 164.404C90.3194 163.932 90.6834 163.564 91.1394 163.3C91.5954 163.036 92.0794 162.904 92.5914 162.904C93.0074 162.904 93.3914 163.02 93.7434 163.252C94.1034 163.484 94.3754 163.832 94.5594 164.296V162.904H97.0794V169H94.5594V167.884C94.1594 168.692 93.5034 169.096 92.5914 169.096ZM93.3714 167.2C93.6914 167.2 93.9634 167.088 94.1874 166.864C94.4194 166.632 94.5434 166.36 94.5594 166.048V165.952C94.5434 165.632 94.4154 165.36 94.1754 165.136C93.9434 164.912 93.6754 164.8 93.3714 164.8C93.0354 164.8 92.7474 164.92 92.5074 165.16C92.2754 165.392 92.1594 165.672 92.1594 166C92.1594 166.336 92.2794 166.62 92.5194 166.852C92.7594 167.084 93.0434 167.2 93.3714 167.2Z" fill="#2179B9"/>
<path d="M47.0364 184.672C47.0364 183.752 47.0884 183.092 47.1924 182.692C47.3044 182.284 47.5244 182.004 47.8524 181.852C48.1884 181.7 48.7364 181.624 49.4964 181.624V183.028C49.0884 183.028 48.8204 183.036 48.6924 183.052C48.5644 183.068 48.4804 183.116 48.4404 183.196C48.4004 183.276 48.3804 183.428 48.3804 183.652H49.4964V185.896H47.0364V184.672ZM50.1564 184.672C50.1564 183.752 50.2084 183.092 50.3124 182.692C50.4244 182.284 50.6444 182.004 50.9724 181.852C51.3084 181.7 51.8564 181.624 52.6164 181.624V183.028C52.2084 183.028 51.9404 183.036 51.8124 183.052C51.6844 183.068 51.6004 183.116 51.5604 183.196C51.5204 183.276 51.5004 183.428 51.5004 183.652H52.6164V185.896H50.1564V184.672ZM56.1047 190.096C55.4247 190.096 54.8967 189.884 54.5207 189.46C54.1527 189.028 53.9687 188.44 53.9687 187.696V182.092L56.5007 181.72V187.516C56.5007 187.74 56.5527 187.904 56.6567 188.008C56.7687 188.104 56.9607 188.152 57.2327 188.152C57.4327 188.152 57.6287 188.104 57.8207 188.008L57.9047 189.688C57.3687 189.96 56.7687 190.096 56.1047 190.096ZM60.8798 190.096C60.2078 190.096 59.6838 189.88 59.3078 189.448C58.9318 189.016 58.7438 188.428 58.7438 187.684V183.988H61.2878V187.576C61.2878 187.76 61.3358 187.904 61.4318 188.008C61.5358 188.104 61.6678 188.152 61.8278 188.152C61.9878 188.152 62.1518 188.104 62.3198 188.008L62.4518 189.676C62.2758 189.812 62.0438 189.916 61.7558 189.988C61.4758 190.06 61.1838 190.096 60.8798 190.096ZM60.0158 183.088C59.6398 183.088 59.3198 182.972 59.0558 182.74C58.7998 182.5 58.6718 182.208 58.6718 181.864C58.6718 181.52 58.8078 181.232 59.0798 181C59.3518 180.768 59.6638 180.652 60.0158 180.652C60.3838 180.652 60.6998 180.772 60.9638 181.012C61.2358 181.252 61.3718 181.536 61.3718 181.864C61.3718 182.216 61.2358 182.508 60.9638 182.74C60.6918 182.972 60.3758 183.088 60.0158 183.088ZM65.8897 190.096C65.1857 190.096 64.6377 189.896 64.2457 189.496C63.8537 189.088 63.6577 188.528 63.6577 187.816V185.476H62.8897V183.988H63.8377L64.9537 181.72H66.1657V183.988H67.5577V185.476H66.1657V187.516C66.1657 187.716 66.2297 187.872 66.3577 187.984C66.4857 188.096 66.6657 188.152 66.8977 188.152C67.1137 188.152 67.3097 188.104 67.4857 188.008L67.5817 189.688C67.3817 189.808 67.1217 189.908 66.8017 189.988C66.4897 190.06 66.1857 190.096 65.8897 190.096ZM71.3446 190.096C70.6406 190.096 70.0926 189.896 69.7006 189.496C69.3086 189.088 69.1126 188.528 69.1126 187.816V185.476H68.3446V183.988H69.2926L70.4086 181.72H71.6206V183.988H73.0126V185.476H71.6206V187.516C71.6206 187.716 71.6846 187.872 71.8126 187.984C71.9406 188.096 72.1206 188.152 72.3526 188.152C72.5686 188.152 72.7646 188.104 72.9406 188.008L73.0366 189.688C72.8366 189.808 72.5766 189.908 72.2566 189.988C71.9446 190.06 71.6406 190.096 71.3446 190.096ZM76.2834 190.096C75.6034 190.096 75.0754 189.884 74.6994 189.46C74.3314 189.028 74.1474 188.44 74.1474 187.696V182.092L76.6794 181.72V187.516C76.6794 187.74 76.7314 187.904 76.8354 188.008C76.9474 188.104 77.1394 188.152 77.4114 188.152C77.6114 188.152 77.8074 188.104 77.9994 188.008L78.0834 189.688C77.5474 189.96 76.9474 190.096 76.2834 190.096ZM82.0546 190.096C81.3906 190.096 80.7986 189.964 80.2786 189.7C79.7666 189.428 79.3666 189.06 79.0786 188.596C78.7906 188.124 78.6466 187.592 78.6466 187C78.6466 186.392 78.7946 185.852 79.0906 185.38C79.3866 184.908 79.7866 184.544 80.2906 184.288C80.7946 184.032 81.3546 183.904 81.9706 183.904C82.5626 183.904 83.0666 184.036 83.4826 184.3C83.9066 184.556 84.2226 184.908 84.4306 185.356C84.6386 185.796 84.7426 186.292 84.7426 186.844C84.7426 186.988 84.7346 187.092 84.7186 187.156L81.1186 187.624C81.2146 187.904 81.3706 188.108 81.5866 188.236C81.8026 188.356 82.0866 188.416 82.4386 188.416C82.9826 188.416 83.5706 188.276 84.2026 187.996L84.5026 189.604C83.7586 189.932 82.9426 190.096 82.0546 190.096ZM82.8826 186.112C82.7546 185.608 82.4506 185.356 81.9706 185.356C81.6826 185.356 81.4546 185.464 81.2866 185.68C81.1186 185.896 81.0306 186.176 81.0226 186.52L82.8826 186.112ZM88.3328 184.072H90.8648V185.116C91.2488 184.308 91.9008 183.904 92.8208 183.904C93.3568 183.904 93.8488 184.04 94.2968 184.312C94.7528 184.576 95.1088 184.944 95.3648 185.416C95.6288 185.888 95.7608 186.416 95.7608 187C95.7608 187.584 95.6248 188.112 95.3528 188.584C95.0888 189.056 94.7288 189.428 94.2728 189.7C93.8248 189.964 93.3448 190.096 92.8328 190.096C91.9208 190.096 91.2648 189.692 90.8648 188.884V191.56L88.3328 192.04V184.072ZM92.0648 188.2C92.3928 188.2 92.6728 188.08 92.9048 187.84C93.1368 187.6 93.2528 187.32 93.2528 187C93.2528 186.664 93.1328 186.38 92.8928 186.148C92.6608 185.916 92.3848 185.8 92.0648 185.8C91.7368 185.8 91.4568 185.916 91.2248 186.148C90.9928 186.372 90.8768 186.64 90.8768 186.952V187C90.8768 187.336 90.9928 187.62 91.2248 187.852C91.4648 188.084 91.7448 188.2 92.0648 188.2ZM99.0286 190.096C98.3566 190.096 97.8326 189.88 97.4566 189.448C97.0806 189.016 96.8926 188.428 96.8926 187.684V183.988H99.4366V187.576C99.4366 187.76 99.4846 187.904 99.5806 188.008C99.6846 188.104 99.8166 188.152 99.9766 188.152C100.137 188.152 100.301 188.104 100.469 188.008L100.601 189.676C100.425 189.812 100.193 189.916 99.9046 189.988C99.6246 190.06 99.3326 190.096 99.0286 190.096ZM98.1646 183.088C97.7886 183.088 97.4686 182.972 97.2046 182.74C96.9486 182.5 96.8206 182.208 96.8206 181.864C96.8206 181.52 96.9566 181.232 97.2286 181C97.5006 180.768 97.8126 180.652 98.1646 180.652C98.5326 180.652 98.8486 180.772 99.1126 181.012C99.3846 181.252 99.5206 181.536 99.5206 181.864C99.5206 182.216 99.3846 182.508 99.1126 182.74C98.8406 182.972 98.5246 183.088 98.1646 183.088ZM104.647 190.096C103.983 190.096 103.391 189.964 102.871 189.7C102.359 189.428 101.959 189.06 101.671 188.596C101.383 188.124 101.239 187.592 101.239 187C101.239 186.392 101.387 185.852 101.683 185.38C101.979 184.908 102.379 184.544 102.883 184.288C103.387 184.032 103.947 183.904 104.563 183.904C105.155 183.904 105.659 184.036 106.075 184.3C106.499 184.556 106.815 184.908 107.023 185.356C107.231 185.796 107.335 186.292 107.335 186.844C107.335 186.988 107.327 187.092 107.311 187.156L103.711 187.624C103.807 187.904 103.963 188.108 104.179 188.236C104.395 188.356 104.679 188.416 105.031 188.416C105.575 188.416 106.163 188.276 106.795 187.996L107.095 189.604C106.351 189.932 105.535 190.096 104.647 190.096ZM105.475 186.112C105.347 185.608 105.043 185.356 104.563 185.356C104.275 185.356 104.047 185.464 103.879 185.68C103.711 185.896 103.623 186.176 103.615 186.52L105.475 186.112ZM108.387 184.612C108.795 184.612 109.063 184.604 109.191 184.588C109.319 184.572 109.403 184.524 109.443 184.444C109.483 184.364 109.503 184.212 109.503 183.988H108.387V181.744H110.847V182.968C110.847 183.888 110.791 184.552 110.679 184.96C110.575 185.36 110.355 185.636 110.019 185.788C109.691 185.94 109.147 186.016 108.387 186.016V184.612ZM111.507 184.612C111.915 184.612 112.183 184.604 112.311 184.588C112.439 184.572 112.523 184.524 112.563 184.444C112.603 184.364 112.623 184.212 112.623 183.988H111.507V181.744H113.967V182.968C113.967 183.888 113.911 184.552 113.799 184.96C113.695 185.36 113.475 185.636 113.139 185.788C112.811 185.94 112.267 186.016 111.507 186.016V184.612Z" fill="#393A32"/>
<rect x="48" y="59.9014" width="65.45" height="0.897773" fill="#082D74"/>
<rect x="59.7808" y="59" width="13.9627" height="3.1422" fill="#3F8D43"/>
<rect x="73.7454" y="59" width="13.9627" height="3.1422" fill="white"/>
<rect x="87.7046" y="59" width="13.9627" height="3.1422" fill="#D12C29"/>
<path d="M100.487 119.368C94.0771 116.648 87.3871 117.068 84.1671 120.628C80.9471 124.188 81.5871 130.068 82.1671 135.288C82.4471 137.768 82.5871 139.008 83.2871 140.288C83.8571 141.358 84.5171 142.028 84.2871 142.658C83.9071 143.658 81.7871 143.658 81.1671 143.658C73.3371 143.658 63.1671 135.008 63.1671 135.008C59.1965 131.818 55.7249 128.053 52.8671 123.838C49.7371 119.118 45.6271 112.928 46.0271 104.578C46.1308 101.432 46.8903 98.3426 48.2571 95.5076C53.8171 84.2676 68.1071 81.5076 75.4671 80.1576C80.4671 79.2176 86.6471 78.1076 94.3071 80.1576C99.7521 81.425 104.731 84.197 108.677 88.1576C112.069 91.4688 114.442 95.6812 115.517 100.298C116.897 106.778 114.927 111.918 113.007 116.908C113.007 116.908 107.737 130.628 90.8171 141.028C89.8671 141.674 88.7354 142 87.5871 141.958C85.0171 141.768 83.2671 139.308 82.5371 138.128" stroke="#1A1A1A" stroke-width="3" stroke-linecap="round" stroke-linejoin="round"/>
<path d="M98.8171 123.068C98.2171 123.068 91.9771 123.468 89.0571 128.448C88.5771 129.268 86.5271 132.778 88.1471 136.358C88.9683 138.05 90.3598 139.399 92.0771 140.168C92.2751 138.122 92.8516 136.132 93.7771 134.298C95.6771 130.578 98.2971 129.148 101.777 125.928C104.609 123.495 107.021 120.613 108.917 117.398C110.74 113.796 111.596 109.783 111.402 105.751C111.207 101.719 109.969 97.8067 107.807 94.3976C106.478 92.235 104.615 90.4511 102.397 89.2176C97.7771 86.7776 92.8871 87.7976 89.9371 88.4076C85.3671 89.4076 84.6071 90.5876 82.4671 91.4076C81.6533 91.6985 80.8172 91.9225 79.9671 92.0776C75.7571 92.8176 68.9671 89.8476 63.6871 90.2976C60.1121 90.7475 56.8075 92.4352 54.3471 95.0676C49.1671 100.408 49.1071 108.648 51.1671 114.328C52.0975 116.886 53.5403 119.227 55.4071 121.208C55.1971 118.918 54.9271 115.648 54.7371 111.708C54.4571 106.088 54.3571 103.238 54.9371 101.068C55.4371 99.2076 56.8471 94.6776 63.6571 90.3976" stroke="#1A1A1A" stroke-width="3" stroke-linecap="round" stroke-linejoin="round"/>
<path d="M83.2871 140.308C81.4371 140.718 80.4771 140.308 79.9571 139.938C77.5771 138.128 80.3171 133.268 77.6471 129.748C76.5771 128.328 75.0471 127.748 73.3471 127.148C71.0175 126.294 68.5098 126.043 66.0571 126.418" stroke="#1A1A1A" stroke-width="3" stroke-linecap="round" stroke-linejoin="round"/>
<path d="M81.3071 125.068C80.4614 124.062 79.4824 123.178 78.3971 122.438C76.404 121.1 74.1519 120.198 71.7871 119.788" stroke="#1A1A1A" stroke-width="3" stroke-linecap="round" stroke-linejoin="round"/>
<path d="M55.2671 119.798C55.2671 120.078 55.2671 123.258 57.1971 124.188C57.5871 124.378 58.1971 124.558 59.9471 124.188C61.6993 123.793 63.3704 123.1 64.8871 122.138C67.4137 120.713 70.1971 119.802 73.0771 119.458C76.7832 118.855 80.5831 119.263 84.0771 120.638" stroke="#1A1A1A" stroke-width="3" stroke-linecap="round" stroke-linejoin="round"/>
<path d="M95.167 87.7275C99.987 89.8275 102.107 92.4775 103.167 94.4475C105.167 98.2575 104.167 101.278 105.397 107.448C106.087 110.928 107.261 114.294 108.887 117.448" stroke="#1A1A1A" stroke-width="3" stroke-linecap="round" stroke-linejoin="round"/>
<path d="M79.107 138.678C77.4256 138.821 75.7321 138.662 74.107 138.208C71.467 137.458 69.567 136.068 64.427 131.068C62.657 129.338 60.427 127.068 57.917 124.438" stroke="#1A1A1A" stroke-width="3" stroke-linecap="round" stroke-linejoin="round"/>
</svg>
