<svg width="158" height="224" viewBox="0 0 158 224" fill="none" xmlns="http://www.w3.org/2000/svg">
<rect width="158" height="224" rx="5" fill="#2179B9"/>
<circle cx="79.5558" cy="111.784" r="58.5" fill="#FFD300" stroke="white" stroke-width="5"/>
<circle cx="79.5559" cy="111.784" r="49.1154" fill="#2179B9" stroke="white" stroke-width="5"/>
<g filter="url(#filter0_i)">
<circle cx="78.9693" cy="111.197" r="39.2981" fill="#FFF8F8" fill-opacity="0.63"/>
<circle cx="78.9693" cy="111.197" r="39.2981" fill="url(#paint0_linear)"/>
</g>
<circle cx="78.9693" cy="111.197" r="39.2981" stroke="white" stroke-width="5"/>
<path d="M77.4353 124.174L77.4278 124.174H77.4202C74.2606 124.174 71.9676 127.295 71.9676 130.955C71.9676 135.593 68.855 139.153 65.0992 139.153C64.8504 139.153 64.682 139.072 64.577 138.967C64.472 138.862 64.3912 138.693 64.3912 138.445C64.3912 138.196 64.472 138.027 64.577 137.922C64.682 137.817 64.8504 137.737 65.0992 137.737C68.2587 137.737 70.5517 134.616 70.5517 130.955C70.5517 126.318 73.6644 122.758 77.4202 122.758C80.5797 122.758 82.8727 119.638 82.8727 115.977C82.8727 111.34 85.9854 107.78 89.7412 107.78C92.9007 107.78 95.1937 104.659 95.1937 100.998C95.1937 100.75 95.2745 100.581 95.3795 100.476C95.4845 100.371 95.6529 100.291 95.9017 100.291C96.1504 100.291 96.3189 100.371 96.4239 100.476C96.5289 100.581 96.6096 100.75 96.6096 100.998C96.6096 105.636 93.497 109.196 89.7412 109.196C86.5816 109.196 84.2886 112.316 84.2886 115.977C84.2886 120.624 81.0509 124.284 77.4353 124.174Z" fill="#FEF7BA" stroke="#FEF7BA"/>
<path d="M75.8499 92.4051C72.6904 92.4051 70.3974 95.5257 70.3974 99.1864C70.3974 103.824 67.2848 107.384 63.5289 107.384C60.3694 107.384 58.0764 110.504 58.0764 114.165C58.0764 118.802 54.9638 122.362 51.2079 122.362C50.9592 122.362 50.7907 122.281 50.6857 122.176C50.5807 122.071 50.5 121.903 50.5 121.654C50.5 121.405 50.5807 121.237 50.6857 121.132C50.7907 121.027 50.9592 120.946 51.2079 120.946C54.3675 120.946 56.6605 117.826 56.6605 114.165C56.6605 109.528 59.7731 105.968 63.5289 105.968C66.6885 105.968 68.9815 102.847 68.9815 99.1864C68.9815 94.5492 72.0941 90.9892 75.8499 90.9892C79.0095 90.9892 81.3025 87.8687 81.3025 84.2079C81.3025 83.9592 81.3832 83.7907 81.4882 83.6857C81.5932 83.5807 81.7617 83.5 82.0104 83.5C82.2592 83.5 82.4276 83.5807 82.5326 83.6857C82.6376 83.7907 82.7184 83.9592 82.7184 84.2079C82.7184 88.8451 79.6058 92.4051 75.8499 92.4051Z" fill="#FEF7BA" stroke="#FEF7BA"/>
<path d="M75.1251 109.196C71.9656 109.196 69.6726 112.316 69.6726 115.977C69.6726 120.608 66.444 124.174 62.8041 124.174C62.5554 124.174 62.3869 124.093 62.2819 123.988C62.1769 123.883 62.0962 123.715 62.0962 123.466C62.0962 123.217 62.1769 123.049 62.2819 122.944C62.3869 122.839 62.5554 122.758 62.8041 122.758C65.9637 122.758 68.2567 119.638 68.2567 115.977C68.2567 111.34 71.3693 107.78 75.1251 107.78C78.2847 107.78 80.5777 104.659 80.5777 100.998C80.5777 96.3612 83.6903 92.8012 87.4461 92.8012C90.6057 92.8012 92.8987 89.6807 92.8987 86.02C92.8987 85.7712 92.9794 85.6027 93.0844 85.4977C93.1753 85.4069 93.3137 85.3342 93.5105 85.3163C93.5288 85.3249 93.5493 85.3348 93.5718 85.346C93.6706 85.3954 93.7988 85.4663 93.9239 85.5538C94.0515 85.6431 94.1584 85.7379 94.2295 85.8303C94.2999 85.9218 94.3146 85.9832 94.3146 86.02C94.3146 90.6571 91.202 94.2171 87.4461 94.2171C84.2866 94.2171 81.9936 97.3377 81.9936 100.998C81.9936 105.636 78.8809 109.196 75.1251 109.196Z" fill="#FEF7BA" stroke="#FEF7BA"/>
<path d="M106.065 101.965C106.065 101.716 106.146 101.548 106.251 101.443C106.356 101.338 106.524 101.257 106.773 101.257C107.19 101.257 107.481 101.604 107.481 101.965C107.481 106.602 104.368 110.162 100.613 110.162C97.4531 110.162 95.1601 113.283 95.1601 116.943C95.1601 121.58 92.0475 125.14 88.2916 125.14C85.1321 125.14 82.8391 128.261 82.8391 131.922C82.8391 136.559 79.7265 140.119 75.9706 140.119C75.7219 140.119 75.5534 140.038 75.4484 139.933C75.3434 139.828 75.2627 139.66 75.2627 139.411C75.2627 139.162 75.3434 138.994 75.4484 138.889C75.5534 138.784 75.7219 138.703 75.9706 138.703C79.1302 138.703 81.4232 135.582 81.4232 131.922C81.4232 127.285 84.5358 123.725 88.2916 123.725C91.4512 123.725 93.7442 120.604 93.7442 116.943C93.7442 112.306 96.8568 108.746 100.613 108.746C103.772 108.746 106.065 105.626 106.065 101.965Z" fill="#FEF7BA" stroke="#FEF7BA"/>
<path d="M92.2962 132.489L93.43 133.11C94.4655 133.678 95.3132 134.528 95.8807 135.566L96.5011 136.703C96.6006 136.886 96.7922 137 96.9997 137C97.2073 137 97.3989 136.887 97.4984 136.703L98.1187 135.567C98.6856 134.528 99.5328 133.679 100.569 133.11L101.704 132.489C101.886 132.389 102 132.197 102 131.989C102 131.781 101.887 131.589 101.704 131.489L100.57 130.868C99.5334 130.299 98.6862 129.45 98.1187 128.412L97.4984 127.275C97.2994 126.908 96.7001 126.908 96.5011 127.275L95.8807 128.411C95.3132 129.45 94.466 130.299 93.43 130.868L92.2962 131.489C92.1137 131.589 92 131.781 92 131.989C92 132.197 92.1137 132.389 92.2962 132.489Z" fill="#FEF7BA"/>
<path d="M62.2962 84.4887L63.43 85.1104C64.4655 85.6785 65.3132 86.5275 65.8807 87.5663L66.5011 88.7031C66.6006 88.886 66.7922 89 66.9997 89C67.2073 89 67.3989 88.8866 67.4984 88.7031L68.1187 87.5669C68.6856 86.5281 69.5328 85.6791 70.5694 85.1104L71.7038 84.4887C71.8863 84.389 72 84.1969 72 83.989C72 83.781 71.8868 83.5889 71.7038 83.4892L70.57 82.8675C69.5334 82.2994 68.6862 81.4504 68.1187 80.4116L67.4984 79.2748C67.2994 78.9084 66.7001 78.9084 66.5011 79.2748L65.8807 80.411C65.3132 81.4498 64.466 82.2989 63.43 82.8675L62.2962 83.4892C62.1137 83.5889 62 83.781 62 83.989C62 84.1969 62.1137 84.389 62.2962 84.4887Z" fill="#FEF7BA"/>
<path d="M57.2074 95.8421L58.001 96.2773C58.7258 96.6749 59.3193 97.2693 59.7165 97.9964L60.1507 98.7922C60.2204 98.9202 60.3545 99 60.4998 99C60.6451 99 60.7792 98.9206 60.8489 98.7922L61.2831 97.9968C61.6799 97.2697 62.273 96.6753 62.9986 96.2773L63.7926 95.8421C63.9204 95.7723 64 95.6379 64 95.4923C64 95.3467 63.9208 95.2123 63.7926 95.1425L62.999 94.7073C62.2734 94.3096 61.6803 93.7153 61.2831 92.9881L60.8489 92.1924C60.7096 91.9359 60.29 91.9359 60.1507 92.1924L59.7165 92.9877C59.3193 93.7149 58.7262 94.3092 58.001 94.7073L57.2074 95.1425C57.0796 95.2123 57 95.3467 57 95.4923C57 95.6379 57.0796 95.7723 57.2074 95.8421Z" fill="#FEF7BA"/>
<path d="M100.178 94.2932L100.858 94.6662C101.479 95.0071 101.988 95.5165 102.328 96.1398L102.701 96.8219C102.76 96.9316 102.875 97 103 97C103.124 97 103.239 96.932 103.299 96.8219L103.671 96.1401C104.011 95.5169 104.52 95.0074 105.142 94.6662L105.822 94.2932C105.932 94.2334 106 94.1182 106 93.9934C106 93.8686 105.932 93.7534 105.822 93.6935L105.142 93.3205C104.52 92.9797 104.012 92.4702 103.671 91.847L103.299 91.1649C103.18 90.945 102.82 90.945 102.701 91.1649L102.328 91.8466C101.988 92.4699 101.48 92.9793 100.858 93.3205L100.178 93.6935C100.068 93.7534 100 93.8686 100 93.9934C100 94.1182 100.068 94.2334 100.178 94.2932Z" fill="#FEF7BA"/>
<path d="M103.178 118.293L103.858 118.666C104.479 119.007 104.988 119.517 105.328 120.14L105.701 120.822C105.76 120.932 105.875 121 106 121C106.124 121 106.239 120.932 106.299 120.822L106.671 120.14C107.011 119.517 107.52 119.007 108.142 118.666L108.822 118.293C108.932 118.233 109 118.118 109 117.993C109 117.869 108.932 117.753 108.822 117.694L108.142 117.321C107.52 116.98 107.012 116.47 106.671 115.847L106.299 115.165C106.18 114.945 105.82 114.945 105.701 115.165L105.328 115.847C104.988 116.47 104.48 116.979 103.858 117.321L103.178 117.694C103.068 117.753 103 117.869 103 117.993C103 118.118 103.068 118.233 103.178 118.293Z" fill="#FEF7BA"/>
<path d="M54.2074 130.842L55.001 131.277C55.7258 131.675 56.3193 132.269 56.7165 132.996L57.1507 133.792C57.2204 133.92 57.3545 134 57.4998 134C57.6451 134 57.7792 133.921 57.8489 133.792L58.2831 132.997C58.6799 132.27 59.273 131.675 59.9986 131.277L60.7926 130.842C60.9204 130.772 61 130.638 61 130.492C61 130.347 60.9208 130.212 60.7926 130.142L59.999 129.707C59.2734 129.31 58.6803 128.715 58.2831 127.988L57.8489 127.192C57.7096 126.936 57.29 126.936 57.1507 127.192L56.7165 127.988C56.3193 128.715 55.7262 129.309 55.001 129.707L54.2074 130.142C54.0796 130.212 54 130.347 54 130.492C54 130.638 54.0796 130.772 54.2074 130.842Z" fill="#FEF7BA"/>
<defs>
<filter id="filter0_i" x="37.1713" y="69.3994" width="83.5962" height="92.5962" filterUnits="userSpaceOnUse" color-interpolation-filters="sRGB">
<feFlood flood-opacity="0" result="BackgroundImageFix"/>
<feBlend mode="normal" in="SourceGraphic" in2="BackgroundImageFix" result="shape"/>
<feColorMatrix in="SourceAlpha" type="matrix" values="0 0 0 0 0 0 0 0 0 0 0 0 0 0 0 0 0 0 127 0" result="hardAlpha"/>
<feOffset dy="9"/>
<feGaussianBlur stdDeviation="18.5"/>
<feComposite in2="hardAlpha" operator="arithmetic" k2="-1" k3="1"/>
<feColorMatrix type="matrix" values="0 0 0 0 0 0 0 0 0 0 0 0 0 0 0 0 0 0 0.25 0"/>
<feBlend mode="normal" in2="shape" result="effect1_innerShadow"/>
</filter>
<linearGradient id="paint0_linear" x1="78.9693" y1="71.8994" x2="78.9693" y2="150.496" gradientUnits="userSpaceOnUse">
<stop stop-color="white"/>
<stop offset="1" stop-color="white" stop-opacity="0"/>
</linearGradient>
</defs>
</svg>
