<svg width="38" height="29" viewBox="0 0 38 29" fill="none" xmlns="http://www.w3.org/2000/svg">
<path d="M20.8824 6.19051L15.2899 0.877505C13.6468 -0.68248 12.3037 -0.10582 12.3037 2.15883V3.88593V8.01433C12.3037 8.95814 11.7439 9.19893 11.0603 8.54942L6.15103 3.88593L2.98373 0.877093C1.34266 -0.68248 0 -0.10582 0 2.15883V26.5222C0 28.7852 1.34266 29.3622 2.98414 27.8027L6.15145 24.7934L11.0607 20.1316C11.7439 19.4825 12.3041 19.7229 12.3041 20.665V24.7943V26.5226C12.3041 28.7856 13.6472 29.3622 15.2903 27.8027L20.8832 22.4888L27.9678 15.7579C28.7898 14.9775 28.7898 13.7019 27.9678 12.9219L20.8824 6.19051Z" fill="#1A1A1A"/>
<path d="M34.8902 0.000488281H32.3057C31.1215 0.000488281 30.1526 0.969819 30.1526 2.15442V26.526C30.1526 27.711 31.1215 28.6799 32.3057 28.6799H34.8902C36.0752 28.6799 37.0437 27.711 37.0437 26.526V2.15442C37.0437 0.969819 36.0748 0.000488281 34.8902 0.000488281Z" fill="#1A1A1A"/>
</svg>
