<svg width="158" height="224" viewBox="0 0 158 224" fill="none" xmlns="http://www.w3.org/2000/svg">
<rect width="158" height="224" rx="5" fill="#FFD300"/>
<mask id="path-2-inside-1" fill="white">
<rect x="9" y="9" width="140" height="207" rx="2"/>
</mask>
<rect x="9" y="9" width="140" height="207" rx="2" fill="white" stroke="#2179B9" stroke-width="14" mask="url(#path-2-inside-1)"/>
<path d="M33.2865 45.288C31.5945 45.288 30.1665 44.976 29.0025 44.352L29.9025 41.562C31.1385 42.006 32.2425 42.228 33.2145 42.228C33.7425 42.228 34.1265 42.168 34.3665 42.048C34.6185 41.916 34.7445 41.724 34.7445 41.472C34.7445 41.304 34.6785 41.16 34.5465 41.04C34.4145 40.908 34.1505 40.764 33.7545 40.608C33.3585 40.452 32.7645 40.26 31.9725 40.032C31.0005 39.744 30.2445 39.276 29.7045 38.628C29.1645 37.968 28.8945 37.212 28.8945 36.36C28.8945 35.04 29.3265 34.044 30.1905 33.372C31.0665 32.688 32.2425 32.346 33.7185 32.346C34.4865 32.346 35.2425 32.43 35.9865 32.598C36.7305 32.754 37.3905 32.988 37.9665 33.3L36.9945 36.018C36.3225 35.79 35.7345 35.628 35.2305 35.532C34.7385 35.424 34.2585 35.37 33.7905 35.37C32.9985 35.37 32.6025 35.586 32.6025 36.018C32.6025 36.234 32.7285 36.42 32.9805 36.576C33.2445 36.72 33.7785 36.906 34.5825 37.134C35.8425 37.47 36.7965 37.986 37.4445 38.682C38.0925 39.366 38.4165 40.188 38.4165 41.148C38.4165 42.48 37.9845 43.506 37.1205 44.226C36.2565 44.934 34.9785 45.288 33.2865 45.288ZM40.9149 36.108H44.7129V37.674C45.2889 36.462 46.2669 35.856 47.6469 35.856C48.4509 35.856 49.1889 36.06 49.8609 36.468C50.5449 36.864 51.0789 37.416 51.4629 38.124C51.8589 38.832 52.0569 39.624 52.0569 40.5C52.0569 41.376 51.8529 42.168 51.4449 42.876C51.0489 43.584 50.5089 44.142 49.8249 44.55C49.1529 44.946 48.4329 45.144 47.6649 45.144C46.2969 45.144 45.3129 44.538 44.7129 43.326V47.34L40.9149 48.06V36.108ZM46.5129 42.3C47.0049 42.3 47.4249 42.12 47.7729 41.76C48.1209 41.4 48.2949 40.98 48.2949 40.5C48.2949 39.996 48.1149 39.57 47.7549 39.222C47.4069 38.874 46.9929 38.7 46.5129 38.7C46.0209 38.7 45.6009 38.874 45.2529 39.222C44.9049 39.558 44.7309 39.96 44.7309 40.428V40.5C44.7309 41.004 44.9049 41.43 45.2529 41.778C45.6129 42.126 46.0329 42.3 46.5129 42.3ZM58.4885 45.144C57.7085 45.144 56.9765 44.94 56.2925 44.532C55.6205 44.112 55.0805 43.548 54.6725 42.84C54.2645 42.12 54.0605 41.322 54.0605 40.446C54.0605 39.582 54.2645 38.802 54.6725 38.106C55.0805 37.398 55.6265 36.846 56.3105 36.45C56.9945 36.054 57.7205 35.856 58.4885 35.856C59.1125 35.856 59.6885 36.03 60.2165 36.378C60.7565 36.726 61.1645 37.248 61.4405 37.944V35.856H65.2205V45H61.4405V43.326C60.8405 44.538 59.8565 45.144 58.4885 45.144ZM59.6585 42.3C60.1385 42.3 60.5465 42.132 60.8825 41.796C61.2305 41.448 61.4165 41.04 61.4405 40.572V40.428C61.4165 39.948 61.2245 39.54 60.8645 39.204C60.5165 38.868 60.1145 38.7 59.6585 38.7C59.1545 38.7 58.7225 38.88 58.3625 39.24C58.0145 39.588 57.8405 40.008 57.8405 40.5C57.8405 41.004 58.0205 41.43 58.3805 41.778C58.7405 42.126 59.1665 42.3 59.6585 42.3ZM73.2177 49.122C72.5577 49.122 71.9277 49.056 71.3277 48.924L71.6157 46.26C72.0837 46.332 72.5157 46.368 72.9117 46.368C73.6557 46.368 74.2197 46.146 74.6037 45.702C74.9877 45.27 75.2157 44.538 75.2877 43.506C74.5797 44.502 73.4997 45 72.0477 45C71.2557 45 70.5237 44.796 69.8517 44.388C69.1917 43.98 68.6637 43.428 68.2677 42.732C67.8837 42.036 67.6917 41.274 67.6917 40.446C67.6917 39.606 67.8837 38.838 68.2677 38.142C68.6517 37.434 69.1737 36.876 69.8337 36.468C70.5057 36.06 71.2377 35.856 72.0297 35.856C72.7617 35.856 73.3977 36.048 73.9377 36.432C74.4897 36.804 74.8497 37.308 75.0177 37.944V35.856H78.8157V42.714C78.8157 44.814 78.3357 46.404 77.3757 47.484C76.4277 48.576 75.0417 49.122 73.2177 49.122ZM73.2177 42.3C73.6977 42.3 74.1117 42.132 74.4597 41.796C74.8077 41.448 74.9937 41.04 75.0177 40.572V40.428C74.9937 39.972 74.8017 39.57 74.4417 39.222C74.0937 38.874 73.6857 38.7 73.2177 38.7C72.7257 38.7 72.3057 38.88 71.9577 39.24C71.6097 39.588 71.4357 40.008 71.4357 40.5C71.4357 40.992 71.6097 41.418 71.9577 41.778C72.3057 42.126 72.7257 42.3 73.2177 42.3ZM81.7193 33.138L85.5173 32.58V37.836C85.7813 37.2 86.1773 36.714 86.7053 36.378C87.2453 36.03 87.8933 35.856 88.6493 35.856C89.8013 35.856 90.7013 36.27 91.3493 37.098C92.0093 37.914 92.3393 39.048 92.3393 40.5V45H88.5593V40.122C88.5593 39.606 88.4453 39.21 88.2173 38.934C88.0013 38.658 87.6953 38.52 87.2993 38.52C87.0113 38.52 86.7293 38.616 86.4533 38.808C86.1773 38.988 85.9493 39.252 85.7693 39.6C85.6013 39.948 85.5173 40.344 85.5173 40.788V45H81.7193V33.138ZM99.8188 45.144C98.8228 45.144 97.9348 44.946 97.1548 44.55C96.3868 44.142 95.7868 43.59 95.3548 42.894C94.9228 42.186 94.7068 41.388 94.7068 40.5C94.7068 39.588 94.9288 38.778 95.3728 38.07C95.8168 37.362 96.4168 36.816 97.1728 36.432C97.9288 36.048 98.7688 35.856 99.6928 35.856C100.581 35.856 101.337 36.054 101.961 36.45C102.597 36.834 103.071 37.362 103.383 38.034C103.695 38.694 103.851 39.438 103.851 40.266C103.851 40.482 103.839 40.638 103.815 40.734L98.4148 41.436C98.5588 41.856 98.7928 42.162 99.1168 42.354C99.4408 42.534 99.8668 42.624 100.395 42.624C101.211 42.624 102.093 42.414 103.041 41.994L103.491 44.406C102.375 44.898 101.151 45.144 99.8188 45.144ZM101.061 39.168C100.869 38.412 100.413 38.034 99.6928 38.034C99.2608 38.034 98.9188 38.196 98.6668 38.52C98.4148 38.844 98.2828 39.264 98.2708 39.78L101.061 39.168ZM110.181 45.144C109.125 45.144 108.303 44.844 107.715 44.244C107.127 43.632 106.833 42.792 106.833 41.724V38.214H105.681V35.982H107.103L108.777 32.58H110.595V35.982H112.683V38.214H110.595V41.274C110.595 41.574 110.691 41.808 110.883 41.976C111.075 42.144 111.345 42.228 111.693 42.228C112.017 42.228 112.311 42.156 112.575 42.012L112.719 44.532C112.419 44.712 112.029 44.862 111.549 44.982C111.081 45.09 110.625 45.144 110.181 45.144ZM119.083 45.144C118.027 45.144 117.205 44.844 116.617 44.244C116.029 43.632 115.735 42.792 115.735 41.724V38.214H114.583V35.982H116.005L117.679 32.58H119.497V35.982H121.585V38.214H119.497V41.274C119.497 41.574 119.593 41.808 119.785 41.976C119.977 42.144 120.247 42.228 120.595 42.228C120.919 42.228 121.213 42.156 121.477 42.012L121.621 44.532C121.321 44.712 120.931 44.862 120.451 44.982C119.983 45.09 119.527 45.144 119.083 45.144ZM127.211 45.144C126.203 45.144 125.417 44.82 124.853 44.172C124.289 43.524 124.007 42.642 124.007 41.526V35.982H127.823V41.364C127.823 41.64 127.895 41.856 128.039 42.012C128.195 42.156 128.393 42.228 128.633 42.228C128.873 42.228 129.119 42.156 129.371 42.012L129.569 44.514C129.305 44.718 128.957 44.874 128.525 44.982C128.105 45.09 127.667 45.144 127.211 45.144ZM125.915 34.632C125.351 34.632 124.871 34.458 124.475 34.11C124.091 33.75 123.899 33.312 123.899 32.796C123.899 32.28 124.103 31.848 124.511 31.5C124.919 31.152 125.387 30.978 125.915 30.978C126.467 30.978 126.941 31.158 127.337 31.518C127.745 31.878 127.949 32.304 127.949 32.796C127.949 33.324 127.745 33.762 127.337 34.11C126.929 34.458 126.455 34.632 125.915 34.632Z" fill="#393A32"/>
<path d="M63.1413 169.096C62.3013 169.096 61.5653 168.972 60.9333 168.724L61.2093 167.296C61.7853 167.504 62.3453 167.608 62.8893 167.608C63.2893 167.608 63.4893 167.496 63.4893 167.272C63.4893 167.16 63.4293 167.068 63.3093 166.996C63.1973 166.924 62.9813 166.86 62.6613 166.804C61.9973 166.676 61.5173 166.46 61.2213 166.156C60.9333 165.852 60.7893 165.42 60.7893 164.86C60.8213 164.228 61.0733 163.744 61.5453 163.408C62.0173 163.072 62.6613 162.904 63.4773 162.904C63.8933 162.904 64.2493 162.932 64.5453 162.988C64.8493 163.036 65.1253 163.12 65.3733 163.24L65.1213 164.668C64.8893 164.58 64.6333 164.512 64.3533 164.464C64.0813 164.416 63.8533 164.392 63.6693 164.392C63.3973 164.392 63.2093 164.42 63.1053 164.476C63.0013 164.532 62.9493 164.608 62.9493 164.704C62.9493 164.88 63.1493 165.004 63.5493 165.076C64.2773 165.204 64.8213 165.428 65.1813 165.748C65.5413 166.068 65.7213 166.504 65.7213 167.056C65.7213 167.688 65.4973 168.188 65.0493 168.556C64.6093 168.916 63.9733 169.096 63.1413 169.096ZM66.8483 163.072H69.3803V164.116C69.7643 163.308 70.4163 162.904 71.3363 162.904C71.8723 162.904 72.3643 163.04 72.8123 163.312C73.2683 163.576 73.6243 163.944 73.8803 164.416C74.1443 164.888 74.2763 165.416 74.2763 166C74.2763 166.584 74.1403 167.112 73.8683 167.584C73.6043 168.056 73.2443 168.428 72.7883 168.7C72.3403 168.964 71.8603 169.096 71.3483 169.096C70.4363 169.096 69.7803 168.692 69.3803 167.884V170.56L66.8483 171.04V163.072ZM70.5803 167.2C70.9083 167.2 71.1883 167.08 71.4203 166.84C71.6523 166.6 71.7683 166.32 71.7683 166C71.7683 165.664 71.6483 165.38 71.4083 165.148C71.1763 164.916 70.9003 164.8 70.5803 164.8C70.2523 164.8 69.9723 164.916 69.7403 165.148C69.5083 165.372 69.3923 165.64 69.3923 165.952V166C69.3923 166.336 69.5083 166.62 69.7403 166.852C69.9803 167.084 70.2603 167.2 70.5803 167.2ZM78.084 169.096C77.564 169.096 77.076 168.96 76.62 168.688C76.172 168.408 75.812 168.032 75.54 167.56C75.268 167.08 75.132 166.548 75.132 165.964C75.132 165.388 75.268 164.868 75.54 164.404C75.812 163.932 76.176 163.564 76.632 163.3C77.088 163.036 77.572 162.904 78.084 162.904C78.5 162.904 78.884 163.02 79.236 163.252C79.596 163.484 79.868 163.832 80.052 164.296V162.904H82.572V169H80.052V167.884C79.652 168.692 78.996 169.096 78.084 169.096ZM78.864 167.2C79.184 167.2 79.456 167.088 79.68 166.864C79.912 166.632 80.036 166.36 80.052 166.048V165.952C80.036 165.632 79.908 165.36 79.668 165.136C79.436 164.912 79.168 164.8 78.864 164.8C78.528 164.8 78.24 164.92 78 165.16C77.768 165.392 77.652 165.672 77.652 166C77.652 166.336 77.772 166.62 78.012 166.852C78.252 167.084 78.536 167.2 78.864 167.2ZM87.4235 171.748C86.9835 171.748 86.5635 171.704 86.1635 171.616L86.3555 169.84C86.6675 169.888 86.9555 169.912 87.2195 169.912C87.7155 169.912 88.0915 169.764 88.3475 169.468C88.6035 169.18 88.7555 168.692 88.8035 168.004C88.3315 168.668 87.6115 169 86.6435 169C86.1155 169 85.6275 168.864 85.1795 168.592C84.7395 168.32 84.3875 167.952 84.1235 167.488C83.8675 167.024 83.7395 166.516 83.7395 165.964C83.7395 165.404 83.8675 164.892 84.1235 164.428C84.3795 163.956 84.7275 163.584 85.1675 163.312C85.6155 163.04 86.1035 162.904 86.6315 162.904C87.1195 162.904 87.5435 163.032 87.9035 163.288C88.2715 163.536 88.5115 163.872 88.6235 164.296V162.904H91.1555V167.476C91.1555 168.876 90.8355 169.936 90.1955 170.656C89.5635 171.384 88.6395 171.748 87.4235 171.748ZM87.4235 167.2C87.7435 167.2 88.0195 167.088 88.2515 166.864C88.4835 166.632 88.6075 166.36 88.6235 166.048V165.952C88.6075 165.648 88.4795 165.38 88.2395 165.148C88.0075 164.916 87.7355 164.8 87.4235 164.8C87.0955 164.8 86.8155 164.92 86.5835 165.16C86.3515 165.392 86.2355 165.672 86.2355 166C86.2355 166.328 86.3515 166.612 86.5835 166.852C86.8155 167.084 87.0955 167.2 87.4235 167.2ZM95.7672 169.096C95.0952 169.096 94.4952 168.964 93.9672 168.7C93.4472 168.436 93.0392 168.072 92.7432 167.608C92.4552 167.136 92.3112 166.596 92.3112 165.988C92.3112 165.38 92.4592 164.844 92.7552 164.38C93.0512 163.908 93.4592 163.544 93.9792 163.288C94.5072 163.032 95.1072 162.904 95.7792 162.904C96.4592 162.904 97.0592 163.036 97.5792 163.3C98.1072 163.556 98.5152 163.916 98.8033 164.38C99.0913 164.844 99.2353 165.38 99.2353 165.988C99.2353 166.604 99.0872 167.148 98.7912 167.62C98.5032 168.084 98.0953 168.448 97.5672 168.712C97.0472 168.968 96.4472 169.096 95.7672 169.096ZM95.7912 167.296C96.1192 167.296 96.3872 167.176 96.5952 166.936C96.8112 166.688 96.9192 166.372 96.9192 165.988C96.9192 165.604 96.8112 165.292 96.5952 165.052C96.3872 164.804 96.1192 164.68 95.7912 164.68C95.4632 164.68 95.1912 164.804 94.9752 165.052C94.7672 165.292 94.6632 165.604 94.6632 165.988C94.6632 166.372 94.7672 166.688 94.9752 166.936C95.1912 167.176 95.4632 167.296 95.7912 167.296Z" fill="#2179B9"/>
<path d="M38.2437 184.672C38.2437 183.752 38.2957 183.092 38.3997 182.692C38.5117 182.284 38.7317 182.004 39.0597 181.852C39.3957 181.7 39.9437 181.624 40.7037 181.624V183.028C40.2957 183.028 40.0277 183.036 39.8997 183.052C39.7717 183.068 39.6877 183.116 39.6477 183.196C39.6077 183.276 39.5877 183.428 39.5877 183.652H40.7037V185.896H38.2437V184.672ZM41.3637 184.672C41.3637 183.752 41.4157 183.092 41.5197 182.692C41.6317 182.284 41.8517 182.004 42.1797 181.852C42.5157 181.7 43.0637 181.624 43.8237 181.624V183.028C43.4157 183.028 43.1477 183.036 43.0197 183.052C42.8917 183.068 42.8077 183.116 42.7677 183.196C42.7277 183.276 42.7077 183.428 42.7077 183.652H43.8237V185.896H41.3637V184.672ZM47.3119 190.096C46.6319 190.096 46.1039 189.884 45.7279 189.46C45.3599 189.028 45.1759 188.44 45.1759 187.696V182.092L47.7079 181.72V187.516C47.7079 187.74 47.7599 187.904 47.8639 188.008C47.9759 188.104 48.1679 188.152 48.4399 188.152C48.6399 188.152 48.8359 188.104 49.0279 188.008L49.1119 189.688C48.5759 189.96 47.9759 190.096 47.3119 190.096ZM52.0871 190.096C51.4151 190.096 50.8911 189.88 50.5151 189.448C50.1391 189.016 49.9511 188.428 49.9511 187.684V183.988H52.4951V187.576C52.4951 187.76 52.5431 187.904 52.6391 188.008C52.7431 188.104 52.8751 188.152 53.0351 188.152C53.1951 188.152 53.3591 188.104 53.5271 188.008L53.6591 189.676C53.4831 189.812 53.2511 189.916 52.9631 189.988C52.6831 190.06 52.3911 190.096 52.0871 190.096ZM51.2231 183.088C50.8471 183.088 50.5271 182.972 50.2631 182.74C50.0071 182.5 49.8791 182.208 49.8791 181.864C49.8791 181.52 50.0151 181.232 50.2871 181C50.5591 180.768 50.8711 180.652 51.2231 180.652C51.5911 180.652 51.9071 180.772 52.1711 181.012C52.4431 181.252 52.5791 181.536 52.5791 181.864C52.5791 182.216 52.4431 182.508 52.1711 182.74C51.8991 182.972 51.5831 183.088 51.2231 183.088ZM57.097 190.096C56.393 190.096 55.845 189.896 55.453 189.496C55.061 189.088 54.865 188.528 54.865 187.816V185.476H54.097V183.988H55.045L56.161 181.72H57.373V183.988H58.765V185.476H57.373V187.516C57.373 187.716 57.437 187.872 57.565 187.984C57.693 188.096 57.873 188.152 58.105 188.152C58.321 188.152 58.517 188.104 58.693 188.008L58.789 189.688C58.589 189.808 58.329 189.908 58.009 189.988C57.697 190.06 57.393 190.096 57.097 190.096ZM62.5518 190.096C61.8478 190.096 61.2998 189.896 60.9078 189.496C60.5158 189.088 60.3198 188.528 60.3198 187.816V185.476H59.5518V183.988H60.4998L61.6158 181.72H62.8278V183.988H64.2198V185.476H62.8278V187.516C62.8278 187.716 62.8918 187.872 63.0198 187.984C63.1478 188.096 63.3278 188.152 63.5598 188.152C63.7758 188.152 63.9718 188.104 64.1478 188.008L64.2438 189.688C64.0438 189.808 63.7838 189.908 63.4638 189.988C63.1518 190.06 62.8478 190.096 62.5518 190.096ZM67.4907 190.096C66.8107 190.096 66.2827 189.884 65.9067 189.46C65.5387 189.028 65.3547 188.44 65.3547 187.696V182.092L67.8867 181.72V187.516C67.8867 187.74 67.9387 187.904 68.0427 188.008C68.1547 188.104 68.3467 188.152 68.6187 188.152C68.8187 188.152 69.0147 188.104 69.2067 188.008L69.2907 189.688C68.7547 189.96 68.1547 190.096 67.4907 190.096ZM73.2618 190.096C72.5978 190.096 72.0058 189.964 71.4858 189.7C70.9738 189.428 70.5738 189.06 70.2858 188.596C69.9978 188.124 69.8538 187.592 69.8538 187C69.8538 186.392 70.0018 185.852 70.2978 185.38C70.5938 184.908 70.9938 184.544 71.4978 184.288C72.0018 184.032 72.5618 183.904 73.1778 183.904C73.7698 183.904 74.2738 184.036 74.6898 184.3C75.1138 184.556 75.4298 184.908 75.6378 185.356C75.8458 185.796 75.9498 186.292 75.9498 186.844C75.9498 186.988 75.9418 187.092 75.9258 187.156L72.3258 187.624C72.4218 187.904 72.5778 188.108 72.7938 188.236C73.0098 188.356 73.2938 188.416 73.6458 188.416C74.1898 188.416 74.7778 188.276 75.4098 187.996L75.7098 189.604C74.9658 189.932 74.1498 190.096 73.2618 190.096ZM74.0898 186.112C73.9618 185.608 73.6578 185.356 73.1778 185.356C72.8898 185.356 72.6618 185.464 72.4938 185.68C72.3258 185.896 72.2378 186.176 72.2298 186.52L74.0898 186.112ZM82.1681 190.096C81.4641 190.096 80.9161 189.896 80.5241 189.496C80.1321 189.088 79.9361 188.528 79.9361 187.816V185.476H79.1681V183.988H80.1161L81.2321 181.72H82.4441V183.988H83.8361V185.476H82.4441V187.516C82.4441 187.716 82.5081 187.872 82.6361 187.984C82.7641 188.096 82.9441 188.152 83.1761 188.152C83.3921 188.152 83.5881 188.104 83.7641 188.008L83.8601 189.688C83.6601 189.808 83.4001 189.908 83.0801 189.988C82.7681 190.06 82.4641 190.096 82.1681 190.096ZM84.6349 183.988H87.0829L87.7669 187.888L88.5949 183.988H90.6589L91.4989 187.984L92.1829 183.988H94.1509L92.9029 190H90.0349L89.3629 186.82L88.7269 190H85.9549L84.6349 183.988ZM97.343 190.096C96.671 190.096 96.147 189.88 95.771 189.448C95.395 189.016 95.207 188.428 95.207 187.684V183.988H97.751V187.576C97.751 187.76 97.799 187.904 97.895 188.008C97.999 188.104 98.131 188.152 98.291 188.152C98.451 188.152 98.615 188.104 98.783 188.008L98.915 189.676C98.739 189.812 98.507 189.916 98.219 189.988C97.939 190.06 97.647 190.096 97.343 190.096ZM96.479 183.088C96.103 183.088 95.783 182.972 95.519 182.74C95.263 182.5 95.135 182.208 95.135 181.864C95.135 181.52 95.271 181.232 95.543 181C95.815 180.768 96.127 180.652 96.479 180.652C96.847 180.652 97.163 180.772 97.427 181.012C97.699 181.252 97.835 181.536 97.835 181.864C97.835 182.216 97.699 182.508 97.427 182.74C97.155 182.972 96.839 183.088 96.479 183.088ZM99.8538 184.072H102.266V185.296C102.73 184.368 103.466 183.904 104.474 183.904C105.242 183.904 105.842 184.18 106.274 184.732C106.714 185.276 106.934 186.032 106.934 187V190H104.414V186.748C104.414 186.404 104.338 186.14 104.186 185.956C104.042 185.772 103.838 185.68 103.574 185.68C103.382 185.68 103.194 185.744 103.01 185.872C102.826 185.992 102.674 186.168 102.554 186.4C102.442 186.632 102.386 186.896 102.386 187.192V190H99.8538V184.072ZM111.44 190.096C110.776 190.096 110.184 189.964 109.664 189.7C109.152 189.428 108.752 189.06 108.464 188.596C108.176 188.124 108.032 187.592 108.032 187C108.032 186.392 108.18 185.852 108.476 185.38C108.772 184.908 109.172 184.544 109.676 184.288C110.18 184.032 110.74 183.904 111.356 183.904C111.948 183.904 112.452 184.036 112.868 184.3C113.292 184.556 113.608 184.908 113.816 185.356C114.024 185.796 114.128 186.292 114.128 186.844C114.128 186.988 114.12 187.092 114.104 187.156L110.504 187.624C110.6 187.904 110.756 188.108 110.972 188.236C111.188 188.356 111.472 188.416 111.824 188.416C112.368 188.416 112.956 188.276 113.588 187.996L113.888 189.604C113.144 189.932 112.328 190.096 111.44 190.096ZM112.268 186.112C112.14 185.608 111.836 185.356 111.356 185.356C111.068 185.356 110.84 185.464 110.672 185.68C110.504 185.896 110.416 186.176 110.408 186.52L112.268 186.112ZM115.18 184.612C115.588 184.612 115.856 184.604 115.984 184.588C116.112 184.572 116.196 184.524 116.236 184.444C116.276 184.364 116.296 184.212 116.296 183.988H115.18V181.744H117.64V182.968C117.64 183.888 117.584 184.552 117.472 184.96C117.368 185.36 117.148 185.636 116.812 185.788C116.484 185.94 115.94 186.016 115.18 186.016V184.612ZM118.3 184.612C118.708 184.612 118.976 184.604 119.104 184.588C119.232 184.572 119.316 184.524 119.356 184.444C119.396 184.364 119.416 184.212 119.416 183.988H118.3V181.744H120.76V182.968C120.76 183.888 120.704 184.552 120.592 184.96C120.488 185.36 120.268 185.636 119.932 185.788C119.604 185.94 119.06 186.016 118.3 186.016V184.612Z" fill="#393A32"/>
<rect x="46" y="59.9014" width="65.45" height="0.897773" fill="#082D74"/>
<rect x="57.7809" y="59" width="13.9627" height="3.1422" fill="#3F8D43"/>
<rect x="71.7454" y="59" width="13.9627" height="3.1422" fill="white"/>
<rect x="85.7046" y="59" width="13.9627" height="3.1422" fill="#D12C29"/>
<path d="M113.491 128.331C111.258 126.432 108.888 125.207 106.246 124.583C103.009 123.819 99.3836 123.988 95.4455 125.077C95.6716 124.809 95.8959 124.533 96.1184 124.249C96.4607 123.812 96.8618 123.272 97.2864 122.646C97.7841 122.708 98.2852 122.739 98.7867 122.739C100.669 122.739 103.43 122.293 104.691 119.897C105.701 117.978 105.773 115.716 104.883 113.847C104.545 113.118 104.05 112.473 103.435 111.956C102.819 111.44 102.097 111.066 101.32 110.86C101.218 106.622 99.1597 102.988 95.2613 100.235C95.2354 100.217 95.2086 100.201 95.182 100.185C94.5781 98.4673 93.6523 96.8804 92.4543 95.5093C89.7054 92.3873 85.955 91.0182 82.6664 91.9358C82.4143 92.0062 82.1865 92.1449 82.0083 92.3367C80.8178 91.7919 79.5485 91.4394 78.2476 91.292C75.6992 90.9821 72.7415 91.3149 69.4381 92.2761C69.3978 90.0097 69.767 88.3439 70.0792 86.9361C70.651 84.3573 71.1449 82.1302 67.8644 79.7244C67.8584 79.72 67.8523 79.7156 67.8462 79.7113C67.1536 79.2199 65.3225 79.0803 63.686 80.0963C61.0039 81.7612 59.7129 85.7038 59.8191 91.8505C59.4253 90.6587 59.0945 89.447 58.8283 88.2204C57.8385 83.5683 56.0801 80.4221 53.8769 79.3612C52.9234 78.9021 51.9366 78.8799 51.0984 79.2991C50.2741 79.7113 48.5587 80.5689 48.1137 83.6101C47.6727 86.6234 48.5118 91.3142 50.6788 97.9506C51.1381 99.3554 51.6704 100.735 52.2735 102.085C51.2593 104.189 45.3793 117.081 49.4858 125.059C51.1045 128.203 54.0118 130.166 58.1238 130.904C58.1979 131.014 58.2708 131.125 58.3469 131.234C62.633 137.38 69.9484 141.423 77.4382 141.784C89.2027 142.351 96.5431 143.828 99.8792 146.299C101.694 147.644 103.841 148.356 105.753 148.356C106.911 148.356 107.983 148.094 108.843 147.554C109.491 147.165 110.002 146.583 110.304 145.889C110.605 145.195 110.682 144.425 110.523 143.685C109.727 139.502 105.881 136.224 99.6417 134.373C102.641 133.667 104.892 133.554 107.101 134.727C108.594 135.52 109.902 135.837 111.007 135.837C112.755 135.837 113.995 135.041 114.653 134.072C115.839 132.325 115.35 129.911 113.491 128.331ZM102.303 115.076C102.8 116.119 102.746 117.457 102.162 118.566C101.602 119.63 100.112 119.87 98.9453 119.882C99.8703 118.116 100.702 116.041 101.091 113.811L101.091 113.808C101.627 114.081 102.054 114.528 102.303 115.076ZM98.2758 113.319C97.0954 120.079 90.8401 126.367 89.1131 126.843C89.0914 126.849 89.071 126.857 89.0499 126.864C86.5754 127.36 84.0756 127.719 81.5617 127.94L81.5643 127.939C87.7096 123.935 92.1499 118.992 94.4053 113.644C95.6761 110.63 96.2375 107.659 96.0866 104.789C98.1161 107.162 98.852 110.019 98.2758 113.319ZM90.3095 97.3978C91.5539 98.8111 95.3371 104.079 91.7721 112.533C88.2531 120.878 79.7309 126.038 75.0818 128.329C74.878 128.377 74.6874 128.47 74.5235 128.6C73.1563 129.251 72.2156 129.616 71.9845 129.703C71.9381 129.68 71.8921 129.659 71.8456 129.636C70.9494 129.198 70.1001 128.671 69.3107 128.062C73.459 126.075 84.4358 120.233 87.2967 112.821C89.4913 107.135 89.452 99.0366 85.1308 94.5598C85.1221 94.5508 85.1129 94.5424 85.1041 94.5334C86.8939 94.6657 88.8054 95.6896 90.3095 97.3978ZM83.0746 96.5445C86.5272 100.121 86.4532 107.07 84.6307 111.792C81.9255 118.801 69.8777 124.662 67.1544 125.912C66.4993 125.067 65.9634 124.135 65.5615 123.143C67.4699 122.312 74.1119 119.087 79.613 112.344C81.9915 109.428 82.7132 105.768 81.7002 101.759C81.2397 99.949 80.4921 98.2246 79.486 96.6511C79.3722 96.4846 79.2245 96.3441 79.0525 96.2388C78.8805 96.1334 78.6882 96.0657 78.4881 96.04C78.2677 96.0115 73.7085 95.4622 70.4437 97.7453C70.1005 96.9208 69.8512 96.0602 69.7007 95.1799C75.7808 93.2992 80.3907 93.7639 83.0746 96.5445ZM66.1312 119.687C65.5849 119.975 65.124 120.198 64.7728 120.361C64.6659 119.724 64.6019 119.082 64.5811 118.437C65.1684 118.935 65.6913 119.351 66.1312 119.687ZM73.9831 102.739C73.191 101.986 72.4745 101.157 71.8438 100.265C73.5873 98.8685 76.2447 98.7835 77.4673 98.8293C77.9384 99.6702 78.3301 100.553 78.6373 101.467C76.6874 101.319 75.0016 102.104 73.9831 102.739ZM79.2611 104.489C79.3108 105.138 79.2922 105.79 79.2056 106.435C78.2187 105.93 77.2702 105.353 76.3679 104.709C77.1707 104.367 78.2072 104.138 79.2611 104.489ZM63.4864 100.13C61.5482 87.915 63.4676 84.0528 64.7843 82.8378C65.4591 82.2148 66.119 82.1793 66.4004 82.1987C67.9391 83.3866 67.8003 84.0125 67.2892 86.3175C66.8832 88.1484 66.34 90.6026 66.6904 94.1908C66.6901 94.2916 66.7004 94.3921 66.7214 94.4907C66.7452 94.7073 66.7716 94.9272 66.8021 95.1521C67.9907 103.918 76.6012 108.377 78.3092 109.18C78.0492 109.66 77.7444 110.115 77.3987 110.537C76.8443 111.217 76.2756 111.858 75.7002 112.463C71.2922 110.331 67.2783 106.43 64.0833 101.167C63.8813 100.834 63.6838 100.493 63.4885 100.149C63.4876 100.143 63.4875 100.136 63.4864 100.13ZM50.9414 84.0239C51.1705 82.4581 51.7563 82.1652 52.3661 81.8589C52.4574 81.8411 52.9921 81.9757 53.7171 82.9287C54.3907 83.8141 55.3393 85.5539 56.0331 88.8151C56.9761 93.247 59.0723 98.4188 61.6403 102.65C64.9009 108.021 68.9912 112.113 73.5265 114.56C72.053 115.865 70.4808 117.053 68.8238 118.115C68.003 117.544 65.6599 115.817 62.9728 112.974C59.9182 109.742 55.7772 104.358 53.3954 97.0636C51.3966 90.9423 50.5709 86.5551 50.9414 84.0239ZM52.0282 123.754C49.2457 118.354 52.2201 109.567 53.9309 105.411C54.5091 106.459 55.1092 107.448 55.7181 108.378C55.6777 108.453 55.6443 108.533 55.6181 108.615C54.2465 112.976 53.8389 117.209 54.407 121.195C54.7093 123.343 55.31 125.438 56.1918 127.42C54.2753 126.659 52.901 125.448 52.0282 123.754ZM107.716 144.22C107.797 144.643 107.683 144.908 107.323 145.134C106.376 145.729 103.968 145.771 101.58 144.003C97.7223 141.145 90.0947 139.533 77.5758 138.929C70.9515 138.61 64.4815 135.035 60.6909 129.599C58.1438 125.947 55.6901 119.891 57.8203 111.333C58.8048 112.611 59.854 113.838 60.9638 115.009C61.2652 115.326 61.5616 115.63 61.853 115.92C61.5866 117.966 61.706 120.044 62.205 122.046C62.9784 125.177 65.0596 129.48 70.5833 132.2C76.5837 135.154 81.7275 135.344 86.702 135.527C90.1391 135.654 93.6933 135.785 97.6814 136.797C103.523 138.28 107.087 140.916 107.716 144.22V144.22ZM112.289 132.467C111.861 133.096 110.475 133.283 108.441 132.203C104.279 129.992 100.22 131.164 94.6024 132.786L93.8921 132.991C93.7792 133.023 93.6709 133.07 93.5695 133.13C91.2037 132.835 88.9826 132.752 86.8074 132.672C83.1204 132.535 79.5874 132.404 75.7349 131.198C75.7746 131.179 75.8134 131.161 75.8538 131.141C78.0051 131.098 87.4636 130.773 94.4515 128.374C104.907 124.785 109.975 129.093 111.64 130.508C112.502 131.241 112.58 132.037 112.289 132.467V132.467Z" fill="#393A32"/>
</svg>
