<svg width="166" height="232" viewBox="0 0 166 232" fill="none" xmlns="http://www.w3.org/2000/svg">
<rect x="4" y="4" width="158" height="224" rx="5" fill="#FFF8F8" stroke="#F7575C" stroke-width="7"/>
<path d="M119.587 126.182C117.044 124.02 114.344 122.624 111.335 121.914C107.65 121.044 103.52 121.236 99.0353 122.476C99.2928 122.171 99.5482 121.857 99.8016 121.534C100.191 121.036 100.648 120.421 101.132 119.708C101.699 119.779 102.269 119.814 102.841 119.814C104.984 119.814 108.129 119.306 109.565 116.577C110.715 114.391 110.797 111.815 109.784 109.687C109.399 108.857 108.835 108.122 108.134 107.534C107.433 106.946 106.61 106.52 105.726 106.285C105.61 101.458 103.265 97.3197 98.8255 94.1847C98.796 94.1639 98.7655 94.1461 98.7352 94.1275C98.0474 92.1712 96.9931 90.3639 95.6286 88.8023C92.4979 85.2467 88.2266 83.6874 84.4813 84.7325C84.1941 84.8127 83.9347 84.9707 83.7318 85.189C82.3759 84.5686 80.9303 84.1671 79.4487 83.9993C76.5464 83.6463 73.1779 84.0254 69.4157 85.1201C69.3698 82.5389 69.7903 80.6417 70.1458 79.0384C70.7971 76.1014 71.3595 73.565 67.6234 70.8251C67.6165 70.8201 67.6096 70.815 67.6027 70.8101C66.8138 70.2504 64.7285 70.0914 62.8646 71.2486C59.8101 73.1447 58.3397 77.6349 58.4607 84.6353C58.0121 83.278 57.6355 81.898 57.3323 80.501C56.205 75.2028 54.2023 71.6196 51.6931 70.4113C50.6072 69.8885 49.4834 69.8632 48.5288 70.3406C47.5899 70.81 45.6363 71.7868 45.1295 75.2504C44.6273 78.6823 45.5829 84.0246 48.0509 91.5827C48.574 93.1826 49.1802 94.7542 49.867 96.291C48.712 98.6871 42.0153 113.37 46.6922 122.456C48.5357 126.037 51.8468 128.272 56.5299 129.113C56.6143 129.238 56.6973 129.364 56.784 129.489C61.6654 136.489 69.9968 141.093 78.527 141.504C91.9254 142.15 100.285 143.832 104.085 146.646C106.152 148.178 108.597 148.988 110.775 148.988C112.093 148.988 113.314 148.691 114.293 148.076C115.032 147.633 115.614 146.97 115.957 146.18C116.3 145.389 116.388 144.512 116.207 143.669C115.3 138.905 110.92 135.172 103.814 133.064C107.23 132.259 109.794 132.131 112.31 133.467C114.01 134.37 115.5 134.732 116.758 134.732C118.749 134.731 120.161 133.825 120.911 132.72C122.261 130.731 121.704 127.982 119.587 126.182ZM106.845 111.087C107.411 112.275 107.35 113.798 106.685 115.061C106.047 116.274 104.35 116.547 103.021 116.56C104.075 114.548 105.021 112.185 105.465 109.645L105.465 109.642C106.076 109.953 106.562 110.463 106.845 111.087V111.087ZM102.259 109.086C100.914 116.784 93.7902 123.946 91.8233 124.488C91.7987 124.495 91.7754 124.504 91.7514 124.512C88.9332 125.076 86.0861 125.486 83.2231 125.738L83.2261 125.736C90.2249 121.176 95.282 115.547 97.8506 109.456C99.2979 106.023 99.9373 102.64 99.7655 99.3712C102.077 102.074 102.915 105.328 102.259 109.086ZM93.1859 90.9531C94.6031 92.5627 98.9118 98.5627 94.8516 108.191C90.8439 117.695 81.138 123.571 75.8432 126.181C75.6111 126.235 75.394 126.341 75.2074 126.489C73.6503 127.23 72.5789 127.646 72.3157 127.745C72.2629 127.719 72.2105 127.695 72.1576 127.669C71.1369 127.171 70.1696 126.57 69.2706 125.876C73.9951 123.614 86.4965 116.96 89.7547 108.518C92.2541 102.043 92.2093 92.8195 87.2879 87.7209C87.278 87.7107 87.2675 87.7011 87.2576 87.6909C89.2959 87.8415 91.4729 89.0076 93.1859 90.9531ZM84.9462 89.9813C88.8783 94.055 88.794 101.969 86.7184 107.346C83.6375 115.329 69.9164 122.005 66.8148 123.428C66.0687 122.465 65.4583 121.404 65.0007 120.274C67.1741 119.328 74.7386 115.655 81.0038 107.975C83.7126 104.655 84.5346 100.486 83.3808 95.92C82.8564 93.8587 82.005 91.8947 80.8591 90.1027C80.7295 89.9131 80.5613 89.753 80.3654 89.6331C80.1695 89.5131 79.9505 89.4359 79.7227 89.4067C79.4716 89.3742 74.2792 88.7486 70.5609 91.3489C70.17 90.4098 69.8862 89.4298 69.7148 88.4272C76.6393 86.2853 81.8895 86.8145 84.9462 89.9813ZM65.6495 116.338C65.0273 116.666 64.5024 116.92 64.1024 117.105C63.9807 116.381 63.9077 115.649 63.8841 114.914C64.5529 115.481 65.1484 115.955 65.6495 116.338ZM74.592 97.0358C73.6898 96.1783 72.8738 95.2345 72.1555 94.218C74.1411 92.6281 77.1677 92.5313 78.56 92.5835C79.0966 93.5412 79.5427 94.5468 79.8925 95.5874C77.6718 95.4195 75.7519 96.3132 74.592 97.0358ZM80.603 99.0297C80.6596 99.7684 80.6384 100.511 80.5398 101.245C79.4158 100.67 78.3356 100.013 77.308 99.2792C78.2222 98.8898 79.4027 98.6295 80.603 99.0297V99.0297ZM62.6374 94.0645C60.43 80.1532 62.6159 75.7546 64.1155 74.3708C64.8841 73.6613 65.6355 73.6208 65.9561 73.643C67.7085 74.9959 67.5504 75.7086 66.9683 78.3338C66.5059 80.419 65.8873 83.2141 66.2864 87.3007C66.286 87.4154 66.2978 87.5299 66.3216 87.6422C66.3487 87.8889 66.3788 88.1394 66.4135 88.3955C67.7672 98.3785 77.5737 103.457 79.5188 104.371C79.2228 104.918 78.8756 105.436 78.4819 105.918C77.8505 106.692 77.2028 107.422 76.5476 108.111C71.5273 105.683 66.9559 101.24 63.3171 95.2455C63.0871 94.8666 62.8622 94.4786 62.6397 94.0868C62.6387 94.0794 62.6385 94.072 62.6374 94.0645ZM48.3499 75.7217C48.6108 73.9384 49.278 73.6048 49.9725 73.256C50.0765 73.2357 50.6854 73.389 51.5112 74.4744C52.2784 75.4827 53.3586 77.4642 54.1488 81.1783C55.2228 86.2258 57.6101 92.1159 60.5349 96.9343C64.2483 103.052 68.9066 107.712 74.0719 110.499C72.3938 111.985 70.6032 113.338 68.7161 114.548C67.7812 113.897 65.1127 111.931 62.0524 108.693C58.5736 105.012 53.8574 98.8799 51.1447 90.5724C48.8684 83.601 47.928 78.6045 48.3499 75.7217ZM49.5877 120.97C46.4187 114.82 49.8062 104.812 51.7547 100.079C52.4131 101.273 53.0966 102.399 53.7901 103.458C53.7441 103.544 53.706 103.635 53.6762 103.728C52.114 108.695 51.6499 113.516 52.2969 118.055C52.6411 120.502 53.3253 122.888 54.3295 125.145C52.1469 124.279 50.5818 122.899 49.5877 120.97V120.97ZM113.01 144.278C113.102 144.761 112.972 145.062 112.562 145.32C111.484 145.997 108.741 146.045 106.022 144.031C101.628 140.777 92.9413 138.941 78.6837 138.253C71.1392 137.889 63.7707 133.818 59.4536 127.627C56.5527 123.467 53.7582 116.571 56.1842 106.823C57.3055 108.279 58.5005 109.676 59.7644 111.01C60.1077 111.372 60.4452 111.718 60.7771 112.048C60.4736 114.379 60.6096 116.745 61.178 119.025C62.0587 122.591 64.4291 127.492 70.72 130.589C77.5537 133.953 83.412 134.169 89.0774 134.378C92.9919 134.523 97.0397 134.672 101.582 135.825C108.235 137.513 112.293 140.515 113.01 144.278V144.278ZM118.218 130.893C117.731 131.61 116.152 131.822 113.836 130.592C109.095 128.075 104.473 129.409 98.0751 131.256L97.2661 131.489C97.1376 131.527 97.0142 131.58 96.8987 131.648C94.2043 131.312 91.6748 131.218 89.1974 131.126C84.9983 130.971 80.9746 130.822 76.587 129.447C76.6323 129.426 76.6764 129.405 76.7224 129.383C79.1725 129.334 89.9448 128.963 97.9033 126.231C109.811 122.144 115.583 127.05 117.479 128.662C118.461 129.496 118.55 130.403 118.218 130.893V130.893Z" fill="#393A32"/>
<path d="M66.0532 29.096C65.5252 29.096 65.0492 29.012 64.6252 28.844C64.2092 28.676 63.8812 28.444 63.6412 28.148C63.4012 27.844 63.2812 27.496 63.2812 27.104C63.2812 27.048 63.2892 26.948 63.3052 26.804H65.2852C65.2692 27.052 65.3412 27.252 65.5012 27.404C65.6692 27.548 65.9052 27.62 66.2092 27.62C66.4652 27.62 66.6772 27.572 66.8452 27.476C67.0132 27.38 67.0972 27.244 67.0972 27.068C67.0972 26.9 67.0052 26.768 66.8212 26.672C66.6452 26.568 66.3492 26.444 65.9332 26.3C65.5012 26.156 65.1372 26.016 64.8412 25.88C64.5532 25.736 64.3052 25.532 64.0972 25.268C63.8892 25.004 63.7852 24.672 63.7852 24.272C63.7852 23.88 63.9012 23.528 64.1332 23.216C64.3652 22.896 64.6892 22.648 65.1052 22.472C65.5292 22.296 66.0172 22.208 66.5692 22.208C67.1212 22.208 67.6012 22.3 68.0092 22.484C68.4172 22.66 68.7332 22.908 68.9572 23.228C69.1812 23.548 69.2932 23.908 69.2932 24.308L69.2812 24.488H67.4212C67.4372 24.248 67.3652 24.056 67.2052 23.912C67.0452 23.768 66.8172 23.696 66.5212 23.696C66.2892 23.696 66.0972 23.744 65.9452 23.84C65.8012 23.936 65.7292 24.068 65.7292 24.236C65.7292 24.412 65.8252 24.56 66.0172 24.68C66.2172 24.792 66.5252 24.92 66.9412 25.064C67.3732 25.208 67.7292 25.352 68.0092 25.496C68.2972 25.632 68.5412 25.828 68.7412 26.084C68.9492 26.332 69.0532 26.644 69.0532 27.02C69.0532 27.452 68.9212 27.824 68.6572 28.136C68.4012 28.448 68.0452 28.688 67.5892 28.856C67.1412 29.016 66.6292 29.096 66.0532 29.096ZM73.2606 23.252C73.5166 22.94 73.8366 22.688 74.2206 22.496C74.6126 22.304 75.0446 22.208 75.5166 22.208C76.2366 22.208 76.8166 22.444 77.2566 22.916C77.7046 23.388 77.9286 24.028 77.9286 24.836C77.9286 25.084 77.9046 25.352 77.8566 25.64C77.7366 26.328 77.5006 26.936 77.1486 27.464C76.7966 27.984 76.3726 28.388 75.8766 28.676C75.3806 28.956 74.8566 29.096 74.3046 29.096C73.8406 29.096 73.4486 29 73.1286 28.808C72.8086 28.616 72.5726 28.368 72.4206 28.064L71.6886 32.192H69.6366L71.3766 22.304H73.4286L73.2606 23.252ZM75.7806 25.64C75.8046 25.504 75.8166 25.38 75.8166 25.268C75.8166 24.868 75.7006 24.556 75.4686 24.332C75.2446 24.108 74.9566 23.996 74.6046 23.996C74.1966 23.996 73.8246 24.144 73.4886 24.44C73.1526 24.736 72.9366 25.14 72.8406 25.652C72.8166 25.796 72.8046 25.928 72.8046 26.048C72.8046 26.44 72.9166 26.748 73.1406 26.972C73.3646 27.196 73.6526 27.308 74.0046 27.308C74.4126 27.308 74.7846 27.16 75.1206 26.864C75.4646 26.56 75.6846 26.152 75.7806 25.64ZM78.7771 25.64C78.8971 24.952 79.1331 24.348 79.4851 23.828C79.8371 23.308 80.2611 22.908 80.7571 22.628C81.2531 22.348 81.7771 22.208 82.3291 22.208C82.8011 22.208 83.1971 22.304 83.5171 22.496C83.8371 22.688 84.0691 22.94 84.2131 23.252L84.3811 22.304H86.4331L85.2451 29H83.1931L83.3731 28.052C83.1171 28.364 82.7931 28.616 82.4011 28.808C82.0091 29 81.5771 29.096 81.1051 29.096C80.6331 29.096 80.2131 28.988 79.8451 28.772C79.4851 28.556 79.2051 28.252 79.0051 27.86C78.8051 27.46 78.7051 26.992 78.7051 26.456C78.7051 26.2 78.7291 25.928 78.7771 25.64ZM83.7931 25.652C83.8171 25.508 83.8291 25.376 83.8291 25.256C83.8291 24.864 83.7131 24.556 83.4811 24.332C83.2571 24.108 82.9691 23.996 82.6171 23.996C82.2091 23.996 81.8371 24.144 81.5011 24.44C81.1651 24.728 80.9531 25.128 80.8651 25.64C80.8411 25.784 80.8291 25.916 80.8291 26.036C80.8291 26.428 80.9411 26.74 81.1651 26.972C81.3971 27.196 81.6851 27.308 82.0291 27.308C82.4371 27.308 82.8091 27.16 83.1451 26.864C83.4811 26.568 83.6971 26.164 83.7931 25.652ZM90.7137 22.208C91.1857 22.208 91.5857 22.304 91.9137 22.496C92.2417 22.688 92.4697 22.94 92.5977 23.252L92.7657 22.304H94.8177L93.6417 28.988C93.5297 29.604 93.3057 30.16 92.9697 30.656C92.6417 31.16 92.1977 31.56 91.6377 31.856C91.0857 32.152 90.4417 32.3 89.7057 32.3C88.7137 32.3 87.9497 32.064 87.4137 31.592C86.8777 31.128 86.6377 30.496 86.6937 29.696H88.7217C88.7457 29.952 88.8617 30.152 89.0697 30.296C89.2857 30.448 89.5697 30.524 89.9217 30.524C90.3457 30.524 90.7057 30.4 91.0017 30.152C91.2977 29.912 91.4937 29.524 91.5897 28.988L91.7577 28.04C91.5017 28.352 91.1777 28.608 90.7857 28.808C90.4017 29 89.9737 29.096 89.5017 29.096C89.0297 29.096 88.6097 28.988 88.2417 28.772C87.8817 28.556 87.5977 28.248 87.3897 27.848C87.1897 27.448 87.0897 26.98 87.0897 26.444C87.0897 26.196 87.1137 25.928 87.1617 25.64C87.2817 24.952 87.5177 24.348 87.8697 23.828C88.2217 23.308 88.6457 22.908 89.1417 22.628C89.6377 22.348 90.1617 22.208 90.7137 22.208ZM92.1777 25.652C92.2017 25.508 92.2137 25.376 92.2137 25.256C92.2137 24.864 92.0977 24.556 91.8657 24.332C91.6417 24.108 91.3537 23.996 91.0017 23.996C90.5937 23.996 90.2217 24.144 89.8857 24.44C89.5497 24.728 89.3377 25.128 89.2497 25.64C89.2257 25.784 89.2137 25.916 89.2137 26.036C89.2137 26.428 89.3257 26.74 89.5497 26.972C89.7817 27.196 90.0697 27.308 90.4137 27.308C90.8217 27.308 91.1937 27.16 91.5297 26.864C91.8657 26.568 92.0817 26.164 92.1777 25.652ZM98.4142 29.096C97.8382 29.096 97.3262 28.98 96.8782 28.748C96.4302 28.516 96.0822 28.188 95.8342 27.764C95.5942 27.34 95.4742 26.848 95.4742 26.288C95.4742 25.528 95.6542 24.836 96.0142 24.212C96.3742 23.588 96.8702 23.1 97.5022 22.748C98.1342 22.388 98.8382 22.208 99.6142 22.208C100.19 22.208 100.702 22.328 101.15 22.568C101.606 22.8 101.958 23.128 102.206 23.552C102.454 23.976 102.578 24.468 102.578 25.028C102.578 25.796 102.394 26.492 102.026 27.116C101.666 27.732 101.166 28.216 100.526 28.568C99.8942 28.92 99.1902 29.096 98.4142 29.096ZM98.7022 27.332C99.0382 27.332 99.3382 27.232 99.6022 27.032C99.8742 26.824 100.082 26.56 100.226 26.24C100.378 25.912 100.454 25.572 100.454 25.22C100.454 24.82 100.346 24.512 100.13 24.296C99.9142 24.08 99.6422 23.972 99.3142 23.972C98.9702 23.972 98.6662 24.076 98.4022 24.284C98.1462 24.484 97.9462 24.748 97.8022 25.076C97.6582 25.404 97.5862 25.748 97.5862 26.108C97.5862 26.5 97.6902 26.804 97.8982 27.02C98.1062 27.228 98.3742 27.332 98.7022 27.332Z" fill="#3CAA90"/>
<path d="M44.7069 44.792H42.6069L43.9509 41.576H45.3309L44.7069 44.792ZM47.4309 44.792H45.3429L46.6869 41.576H48.0549L47.4309 44.792ZM51.6791 41.12V50H49.6271V41.12H51.6791ZM54.4382 42.608C54.0782 42.608 53.7822 42.504 53.5502 42.296C53.3262 42.08 53.2142 41.816 53.2142 41.504C53.2142 41.184 53.3262 40.92 53.5502 40.712C53.7822 40.496 54.0782 40.388 54.4382 40.388C54.7902 40.388 55.0782 40.496 55.3022 40.712C55.5342 40.92 55.6502 41.184 55.6502 41.504C55.6502 41.816 55.5342 42.08 55.3022 42.296C55.0782 42.504 54.7902 42.608 54.4382 42.608ZM55.4582 43.304V50H53.4062V43.304H55.4582ZM60.9173 48.26V50H59.8733C59.1292 50 58.5492 49.82 58.1332 49.46C57.7172 49.092 57.5092 48.496 57.5092 47.672V45.008H56.6932V43.304H57.5092V41.672H59.5613V43.304H60.9052V45.008H59.5613V47.696C59.5613 47.896 59.6093 48.04 59.7053 48.128C59.8012 48.216 59.9612 48.26 60.1852 48.26H60.9173ZM66.0322 48.26V50H64.9882C64.2442 50 63.6642 49.82 63.2482 49.46C62.8322 49.092 62.6242 48.496 62.6242 47.672V45.008H61.8082V43.304H62.6242V41.672H64.6762V43.304H66.0202V45.008H64.6762V47.696C64.6762 47.896 64.7242 48.04 64.8202 48.128C64.9162 48.216 65.0762 48.26 65.3002 48.26H66.0322ZM69.4672 41.12V50H67.4152V41.12H69.4672ZM77.5063 46.544C77.5063 46.736 77.4943 46.936 77.4703 47.144H72.8263C72.8583 47.56 72.9903 47.88 73.2223 48.104C73.4623 48.32 73.7543 48.428 74.0983 48.428C74.6103 48.428 74.9663 48.212 75.1663 47.78H77.3503C77.2383 48.22 77.0343 48.616 76.7383 48.968C76.4503 49.32 76.0863 49.596 75.6463 49.796C75.2063 49.996 74.7143 50.096 74.1703 50.096C73.5143 50.096 72.9303 49.956 72.4183 49.676C71.9063 49.396 71.5063 48.996 71.2183 48.476C70.9303 47.956 70.7863 47.348 70.7863 46.652C70.7863 45.956 70.9263 45.348 71.2063 44.828C71.4943 44.308 71.8943 43.908 72.4063 43.628C72.9183 43.348 73.5063 43.208 74.1703 43.208C74.8183 43.208 75.3943 43.344 75.8983 43.616C76.4023 43.888 76.7943 44.276 77.0743 44.78C77.3623 45.284 77.5063 45.872 77.5063 46.544ZM75.4063 46.004C75.4063 45.652 75.2863 45.372 75.0463 45.164C74.8063 44.956 74.5063 44.852 74.1463 44.852C73.8023 44.852 73.5103 44.952 73.2703 45.152C73.0383 45.352 72.8943 45.636 72.8383 46.004H75.4063ZM85.3438 48.26V50H84.2998C83.5558 50 82.9758 49.82 82.5598 49.46C82.1438 49.092 81.9358 48.496 81.9358 47.672V45.008H81.1198V43.304H81.9358V41.672H83.9878V43.304H85.3318V45.008H83.9878V47.696C83.9878 47.896 84.0358 48.04 84.1318 48.128C84.2278 48.216 84.3878 48.26 84.6118 48.26H85.3438ZM96.3388 43.304L94.5268 50H92.2588L91.2028 45.656L90.1108 50H87.8548L86.0308 43.304H88.0828L89.0308 48.092L90.1588 43.304H92.3308L93.4708 48.068L94.4068 43.304H96.3388ZM98.3933 42.608C98.0333 42.608 97.7373 42.504 97.5053 42.296C97.2813 42.08 97.1693 41.816 97.1693 41.504C97.1693 41.184 97.2813 40.92 97.5053 40.712C97.7373 40.496 98.0333 40.388 98.3933 40.388C98.7453 40.388 99.0333 40.496 99.2573 40.712C99.4893 40.92 99.6053 41.184 99.6053 41.504C99.6053 41.816 99.4893 42.08 99.2573 42.296C99.0333 42.504 98.7453 42.608 98.3933 42.608ZM99.4133 43.304V50H97.3613V43.304H99.4133ZM105.22 43.232C106.004 43.232 106.628 43.488 107.092 44C107.564 44.504 107.8 45.2 107.8 46.088V50H105.76V46.364C105.76 45.916 105.644 45.568 105.412 45.32C105.18 45.072 104.868 44.948 104.476 44.948C104.084 44.948 103.772 45.072 103.54 45.32C103.308 45.568 103.192 45.916 103.192 46.364V50H101.14V43.304H103.192V44.192C103.4 43.896 103.68 43.664 104.032 43.496C104.384 43.32 104.78 43.232 105.22 43.232ZM115.778 46.544C115.778 46.736 115.766 46.936 115.742 47.144H111.098C111.13 47.56 111.262 47.88 111.494 48.104C111.734 48.32 112.026 48.428 112.37 48.428C112.882 48.428 113.238 48.212 113.438 47.78H115.622C115.51 48.22 115.306 48.616 115.01 48.968C114.722 49.32 114.358 49.596 113.918 49.796C113.478 49.996 112.986 50.096 112.442 50.096C111.786 50.096 111.202 49.956 110.69 49.676C110.178 49.396 109.778 48.996 109.49 48.476C109.202 47.956 109.058 47.348 109.058 46.652C109.058 45.956 109.198 45.348 109.478 44.828C109.766 44.308 110.166 43.908 110.678 43.628C111.19 43.348 111.778 43.208 112.442 43.208C113.09 43.208 113.666 43.344 114.17 43.616C114.674 43.888 115.066 44.276 115.346 44.78C115.634 45.284 115.778 45.872 115.778 46.544ZM113.678 46.004C113.678 45.652 113.558 45.372 113.318 45.164C113.078 44.956 112.778 44.852 112.418 44.852C112.074 44.852 111.782 44.952 111.542 45.152C111.31 45.352 111.166 45.636 111.11 46.004H113.678ZM117.569 41.576H119.669L118.325 44.792H116.945L117.569 41.576ZM120.293 41.576H122.393L121.049 44.792H119.669L120.293 41.576Z" fill="#393A32"/>
<rect x="24" y="169" width="118" height="40" rx="2" fill="#3CAA90" fill-opacity="0.1"/>
<path d="M43.4007 194.128C42.6221 194.128 41.9287 193.995 41.3207 193.728C40.7127 193.461 40.2327 193.099 39.8807 192.64C39.5287 192.171 39.3314 191.648 39.2887 191.072H41.9927C42.0247 191.381 42.1687 191.632 42.4247 191.824C42.6807 192.016 42.9954 192.112 43.3687 192.112C43.7101 192.112 43.9714 192.048 44.1527 191.92C44.3447 191.781 44.4407 191.605 44.4407 191.392C44.4407 191.136 44.3074 190.949 44.0407 190.832C43.7741 190.704 43.3421 190.565 42.7447 190.416C42.1047 190.267 41.5714 190.112 41.1447 189.952C40.7181 189.781 40.3501 189.52 40.0407 189.168C39.7314 188.805 39.5767 188.32 39.5767 187.712C39.5767 187.2 39.7154 186.736 39.9927 186.32C40.2807 185.893 40.6967 185.557 41.2407 185.312C41.7954 185.067 42.4514 184.944 43.2087 184.944C44.3287 184.944 45.2087 185.221 45.8487 185.776C46.4994 186.331 46.8727 187.067 46.9687 187.984H44.4407C44.3981 187.675 44.2594 187.429 44.0247 187.248C43.8007 187.067 43.5021 186.976 43.1287 186.976C42.8087 186.976 42.5634 187.04 42.3927 187.168C42.2221 187.285 42.1367 187.451 42.1367 187.664C42.1367 187.92 42.2701 188.112 42.5367 188.24C42.8141 188.368 43.2407 188.496 43.8167 188.624C44.4781 188.795 45.0167 188.965 45.4327 189.136C45.8487 189.296 46.2114 189.563 46.5207 189.936C46.8407 190.299 47.0061 190.789 47.0167 191.408C47.0167 191.931 46.8674 192.4 46.5687 192.816C46.2807 193.221 45.8594 193.541 45.3047 193.776C44.7607 194.011 44.1261 194.128 43.4007 194.128ZM52.3866 186.336C52.6533 185.92 53.0213 185.584 53.4906 185.328C53.96 185.072 54.5093 184.944 55.1386 184.944C55.8746 184.944 56.5413 185.131 57.1386 185.504C57.736 185.877 58.2053 186.411 58.5466 187.104C58.8986 187.797 59.0746 188.603 59.0746 189.52C59.0746 190.437 58.8986 191.248 58.5466 191.952C58.2053 192.645 57.736 193.184 57.1386 193.568C56.5413 193.941 55.8746 194.128 55.1386 194.128C54.52 194.128 53.9706 194 53.4906 193.744C53.0213 193.488 52.6533 193.157 52.3866 192.752V198.256H49.6506V185.072H52.3866V186.336ZM56.2906 189.52C56.2906 188.837 56.0986 188.304 55.7146 187.92C55.3413 187.525 54.8773 187.328 54.3226 187.328C53.7786 187.328 53.3146 187.525 52.9306 187.92C52.5573 188.315 52.3706 188.853 52.3706 189.536C52.3706 190.219 52.5573 190.757 52.9306 191.152C53.3146 191.547 53.7786 191.744 54.3226 191.744C54.8666 191.744 55.3306 191.547 55.7146 191.152C56.0986 190.747 56.2906 190.203 56.2906 189.52ZM60.926 189.52C60.926 188.603 61.0967 187.797 61.438 187.104C61.79 186.411 62.2647 185.877 62.862 185.504C63.4593 185.131 64.126 184.944 64.862 184.944C65.4913 184.944 66.0407 185.072 66.51 185.328C66.99 185.584 67.358 185.92 67.614 186.336V185.072H70.35V194H67.614V192.736C67.3473 193.152 66.974 193.488 66.494 193.744C66.0247 194 65.4753 194.128 64.846 194.128C64.1207 194.128 63.4593 193.941 62.862 193.568C62.2647 193.184 61.79 192.645 61.438 191.952C61.0967 191.248 60.926 190.437 60.926 189.52ZM67.614 189.536C67.614 188.853 67.422 188.315 67.038 187.92C66.6647 187.525 66.206 187.328 65.662 187.328C65.118 187.328 64.654 187.525 64.27 187.92C63.8967 188.304 63.71 188.837 63.71 189.52C63.71 190.203 63.8967 190.747 64.27 191.152C64.654 191.547 65.118 191.744 65.662 191.744C66.206 191.744 66.6647 191.547 67.038 191.152C67.422 190.757 67.614 190.219 67.614 189.536ZM76.6814 184.944C77.3107 184.944 77.86 185.072 78.3294 185.328C78.8094 185.584 79.1774 185.92 79.4334 186.336V185.072H82.1694V193.984C82.1694 194.805 82.004 195.547 81.6734 196.208C81.3534 196.88 80.8574 197.413 80.1854 197.808C79.524 198.203 78.6974 198.4 77.7054 198.4C76.3827 198.4 75.3107 198.085 74.4894 197.456C73.668 196.837 73.1987 195.995 73.0814 194.928H75.7854C75.8707 195.269 76.0734 195.536 76.3934 195.728C76.7134 195.931 77.108 196.032 77.5774 196.032C78.1427 196.032 78.5907 195.867 78.9214 195.536C79.2627 195.216 79.4334 194.699 79.4334 193.984V192.72C79.1667 193.136 78.7987 193.477 78.3294 193.744C77.86 194 77.3107 194.128 76.6814 194.128C75.9454 194.128 75.2787 193.941 74.6814 193.568C74.084 193.184 73.6094 192.645 73.2574 191.952C72.916 191.248 72.7454 190.437 72.7454 189.52C72.7454 188.603 72.916 187.797 73.2574 187.104C73.6094 186.411 74.084 185.877 74.6814 185.504C75.2787 185.131 75.9454 184.944 76.6814 184.944ZM79.4334 189.536C79.4334 188.853 79.2414 188.315 78.8574 187.92C78.484 187.525 78.0254 187.328 77.4814 187.328C76.9374 187.328 76.4734 187.525 76.0894 187.92C75.716 188.304 75.5294 188.837 75.5294 189.52C75.5294 190.203 75.716 190.747 76.0894 191.152C76.4734 191.547 76.9374 191.744 77.4814 191.744C78.0254 191.744 78.484 191.547 78.8574 191.152C79.2414 190.757 79.4334 190.219 79.4334 189.536ZM90.5967 184.976C91.6207 184.976 92.4421 185.317 93.0607 186C93.6794 186.672 93.9887 187.6 93.9887 188.784V194H91.2687V189.152C91.2687 188.555 91.1141 188.091 90.8047 187.76C90.4954 187.429 90.0794 187.264 89.5567 187.264C89.0341 187.264 88.6181 187.429 88.3087 187.76C87.9994 188.091 87.8447 188.555 87.8447 189.152V194H85.1087V182.16H87.8447V186.272C88.1221 185.877 88.5007 185.563 88.9807 185.328C89.4607 185.093 89.9994 184.976 90.5967 184.976ZM105.266 189.392C105.266 189.648 105.25 189.915 105.218 190.192H99.026C99.0687 190.747 99.2447 191.173 99.554 191.472C99.874 191.76 100.263 191.904 100.722 191.904C101.405 191.904 101.879 191.616 102.146 191.04H105.058C104.909 191.627 104.637 192.155 104.242 192.624C103.858 193.093 103.373 193.461 102.786 193.728C102.199 193.995 101.543 194.128 100.818 194.128C99.9433 194.128 99.1647 193.941 98.482 193.568C97.7993 193.195 97.266 192.661 96.882 191.968C96.498 191.275 96.306 190.464 96.306 189.536C96.306 188.608 96.4927 187.797 96.866 187.104C97.25 186.411 97.7833 185.877 98.466 185.504C99.1487 185.131 99.9327 184.944 100.818 184.944C101.682 184.944 102.45 185.125 103.122 185.488C103.794 185.851 104.317 186.368 104.69 187.04C105.074 187.712 105.266 188.496 105.266 189.392ZM102.466 188.672C102.466 188.203 102.306 187.829 101.986 187.552C101.666 187.275 101.266 187.136 100.786 187.136C100.327 187.136 99.938 187.269 99.618 187.536C99.3087 187.803 99.1167 188.181 99.042 188.672H102.466ZM112.645 191.68V194H111.253C110.261 194 109.488 193.76 108.933 193.28C108.379 192.789 108.101 191.995 108.101 190.896V187.344H107.013V185.072H108.101V182.896H110.837V185.072H112.629V187.344H110.837V190.928C110.837 191.195 110.901 191.387 111.029 191.504C111.157 191.621 111.371 191.68 111.669 191.68H112.645ZM120.105 191.68V194H118.713C117.721 194 116.948 193.76 116.393 193.28C115.839 192.789 115.561 191.995 115.561 190.896V187.344H114.473V185.072H115.561V182.896H118.297V185.072H120.089V187.344H118.297V190.928C118.297 191.195 118.361 191.387 118.489 191.504C118.617 191.621 118.831 191.68 119.129 191.68H120.105ZM123.965 184.144C123.485 184.144 123.091 184.005 122.781 183.728C122.483 183.44 122.333 183.088 122.333 182.672C122.333 182.245 122.483 181.893 122.781 181.616C123.091 181.328 123.485 181.184 123.965 181.184C124.435 181.184 124.819 181.328 125.117 181.616C125.427 181.893 125.581 182.245 125.581 182.672C125.581 183.088 125.427 183.44 125.117 183.728C124.819 184.005 124.435 184.144 123.965 184.144ZM125.325 185.072V194H122.589V185.072H125.325Z" fill="#393A32"/>
</svg>
