<svg width="158" height="224" viewBox="0 0 158 224" fill="none" xmlns="http://www.w3.org/2000/svg">
<rect width="158" height="224" rx="5" fill="#FFD300"/>
<mask id="path-2-inside-1" fill="white">
<rect x="9" y="9" width="140" height="207" rx="2"/>
</mask>
<rect x="9" y="9" width="140" height="207" rx="2" fill="white" stroke="#2179B9" stroke-width="14" mask="url(#path-2-inside-1)"/>
<path d="M64.1413 172.096C63.3013 172.096 62.5653 171.972 61.9333 171.724L62.2093 170.296C62.7853 170.504 63.3453 170.608 63.8893 170.608C64.2893 170.608 64.4893 170.496 64.4893 170.272C64.4893 170.16 64.4293 170.068 64.3093 169.996C64.1973 169.924 63.9813 169.86 63.6613 169.804C62.9973 169.676 62.5173 169.46 62.2213 169.156C61.9333 168.852 61.7893 168.42 61.7893 167.86C61.8213 167.228 62.0733 166.744 62.5453 166.408C63.0173 166.072 63.6613 165.904 64.4773 165.904C64.8933 165.904 65.2493 165.932 65.5453 165.988C65.8493 166.036 66.1253 166.12 66.3733 166.24L66.1213 167.668C65.8893 167.58 65.6333 167.512 65.3533 167.464C65.0813 167.416 64.8533 167.392 64.6693 167.392C64.3973 167.392 64.2093 167.42 64.1053 167.476C64.0013 167.532 63.9493 167.608 63.9493 167.704C63.9493 167.88 64.1493 168.004 64.5493 168.076C65.2773 168.204 65.8213 168.428 66.1813 168.748C66.5413 169.068 66.7213 169.504 66.7213 170.056C66.7213 170.688 66.4973 171.188 66.0493 171.556C65.6093 171.916 64.9733 172.096 64.1413 172.096ZM67.8483 166.072H70.3803V167.116C70.7643 166.308 71.4163 165.904 72.3363 165.904C72.8723 165.904 73.3643 166.04 73.8123 166.312C74.2683 166.576 74.6243 166.944 74.8803 167.416C75.1443 167.888 75.2763 168.416 75.2763 169C75.2763 169.584 75.1403 170.112 74.8683 170.584C74.6043 171.056 74.2443 171.428 73.7883 171.7C73.3403 171.964 72.8603 172.096 72.3483 172.096C71.4363 172.096 70.7803 171.692 70.3803 170.884V173.56L67.8483 174.04V166.072ZM71.5803 170.2C71.9083 170.2 72.1883 170.08 72.4203 169.84C72.6523 169.6 72.7683 169.32 72.7683 169C72.7683 168.664 72.6483 168.38 72.4083 168.148C72.1763 167.916 71.9003 167.8 71.5803 167.8C71.2523 167.8 70.9723 167.916 70.7403 168.148C70.5083 168.372 70.3923 168.64 70.3923 168.952V169C70.3923 169.336 70.5083 169.62 70.7403 169.852C70.9803 170.084 71.2603 170.2 71.5803 170.2ZM79.084 172.096C78.564 172.096 78.076 171.96 77.62 171.688C77.172 171.408 76.812 171.032 76.54 170.56C76.268 170.08 76.132 169.548 76.132 168.964C76.132 168.388 76.268 167.868 76.54 167.404C76.812 166.932 77.176 166.564 77.632 166.3C78.088 166.036 78.572 165.904 79.084 165.904C79.5 165.904 79.884 166.02 80.236 166.252C80.596 166.484 80.868 166.832 81.052 167.296V165.904H83.572V172H81.052V170.884C80.652 171.692 79.996 172.096 79.084 172.096ZM79.864 170.2C80.184 170.2 80.456 170.088 80.68 169.864C80.912 169.632 81.036 169.36 81.052 169.048V168.952C81.036 168.632 80.908 168.36 80.668 168.136C80.436 167.912 80.168 167.8 79.864 167.8C79.528 167.8 79.24 167.92 79 168.16C78.768 168.392 78.652 168.672 78.652 169C78.652 169.336 78.772 169.62 79.012 169.852C79.252 170.084 79.536 170.2 79.864 170.2ZM88.4235 174.748C87.9835 174.748 87.5635 174.704 87.1635 174.616L87.3555 172.84C87.6675 172.888 87.9555 172.912 88.2195 172.912C88.7155 172.912 89.0915 172.764 89.3475 172.468C89.6035 172.18 89.7555 171.692 89.8035 171.004C89.3315 171.668 88.6115 172 87.6435 172C87.1155 172 86.6275 171.864 86.1795 171.592C85.7395 171.32 85.3875 170.952 85.1235 170.488C84.8675 170.024 84.7395 169.516 84.7395 168.964C84.7395 168.404 84.8675 167.892 85.1235 167.428C85.3795 166.956 85.7275 166.584 86.1675 166.312C86.6155 166.04 87.1035 165.904 87.6315 165.904C88.1195 165.904 88.5435 166.032 88.9035 166.288C89.2715 166.536 89.5115 166.872 89.6235 167.296V165.904H92.1555V170.476C92.1555 171.876 91.8355 172.936 91.1955 173.656C90.5635 174.384 89.6395 174.748 88.4235 174.748ZM88.4235 170.2C88.7435 170.2 89.0195 170.088 89.2515 169.864C89.4835 169.632 89.6075 169.36 89.6235 169.048V168.952C89.6075 168.648 89.4795 168.38 89.2395 168.148C89.0075 167.916 88.7355 167.8 88.4235 167.8C88.0955 167.8 87.8155 167.92 87.5835 168.16C87.3515 168.392 87.2355 168.672 87.2355 169C87.2355 169.328 87.3515 169.612 87.5835 169.852C87.8155 170.084 88.0955 170.2 88.4235 170.2ZM96.7672 172.096C96.0952 172.096 95.4952 171.964 94.9672 171.7C94.4472 171.436 94.0392 171.072 93.7432 170.608C93.4552 170.136 93.3112 169.596 93.3112 168.988C93.3112 168.38 93.4592 167.844 93.7552 167.38C94.0512 166.908 94.4592 166.544 94.9792 166.288C95.5072 166.032 96.1072 165.904 96.7792 165.904C97.4592 165.904 98.0592 166.036 98.5792 166.3C99.1072 166.556 99.5152 166.916 99.8033 167.38C100.091 167.844 100.235 168.38 100.235 168.988C100.235 169.604 100.087 170.148 99.7912 170.62C99.5032 171.084 99.0953 171.448 98.5672 171.712C98.0472 171.968 97.4472 172.096 96.7672 172.096ZM96.7912 170.296C97.1192 170.296 97.3872 170.176 97.5952 169.936C97.8112 169.688 97.9192 169.372 97.9192 168.988C97.9192 168.604 97.8112 168.292 97.5952 168.052C97.3872 167.804 97.1192 167.68 96.7912 167.68C96.4632 167.68 96.1912 167.804 95.9752 168.052C95.7672 168.292 95.6632 168.604 95.6632 168.988C95.6632 169.372 95.7672 169.688 95.9752 169.936C96.1912 170.176 96.4632 170.296 96.7912 170.296Z" fill="#2179B9"/>
<path d="M39.2437 187.672C39.2437 186.752 39.2957 186.092 39.3997 185.692C39.5117 185.284 39.7317 185.004 40.0597 184.852C40.3957 184.7 40.9437 184.624 41.7037 184.624V186.028C41.2957 186.028 41.0277 186.036 40.8997 186.052C40.7717 186.068 40.6877 186.116 40.6477 186.196C40.6077 186.276 40.5877 186.428 40.5877 186.652H41.7037V188.896H39.2437V187.672ZM42.3637 187.672C42.3637 186.752 42.4157 186.092 42.5197 185.692C42.6317 185.284 42.8517 185.004 43.1797 184.852C43.5157 184.7 44.0637 184.624 44.8237 184.624V186.028C44.4157 186.028 44.1477 186.036 44.0197 186.052C43.8917 186.068 43.8077 186.116 43.7677 186.196C43.7277 186.276 43.7077 186.428 43.7077 186.652H44.8237V188.896H42.3637V187.672ZM48.3119 193.096C47.6319 193.096 47.1039 192.884 46.7279 192.46C46.3599 192.028 46.1759 191.44 46.1759 190.696V185.092L48.7079 184.72V190.516C48.7079 190.74 48.7599 190.904 48.8639 191.008C48.9759 191.104 49.1679 191.152 49.4399 191.152C49.6399 191.152 49.8359 191.104 50.0279 191.008L50.1119 192.688C49.5759 192.96 48.9759 193.096 48.3119 193.096ZM53.0871 193.096C52.4151 193.096 51.8911 192.88 51.5151 192.448C51.1391 192.016 50.9511 191.428 50.9511 190.684V186.988H53.4951V190.576C53.4951 190.76 53.5431 190.904 53.6391 191.008C53.7431 191.104 53.8751 191.152 54.0351 191.152C54.1951 191.152 54.3591 191.104 54.5271 191.008L54.6591 192.676C54.4831 192.812 54.2511 192.916 53.9631 192.988C53.6831 193.06 53.3911 193.096 53.0871 193.096ZM52.2231 186.088C51.8471 186.088 51.5271 185.972 51.2631 185.74C51.0071 185.5 50.8791 185.208 50.8791 184.864C50.8791 184.52 51.0151 184.232 51.2871 184C51.5591 183.768 51.8711 183.652 52.2231 183.652C52.5911 183.652 52.9071 183.772 53.1711 184.012C53.4431 184.252 53.5791 184.536 53.5791 184.864C53.5791 185.216 53.4431 185.508 53.1711 185.74C52.8991 185.972 52.5831 186.088 52.2231 186.088ZM58.097 193.096C57.393 193.096 56.845 192.896 56.453 192.496C56.061 192.088 55.865 191.528 55.865 190.816V188.476H55.097V186.988H56.045L57.161 184.72H58.373V186.988H59.765V188.476H58.373V190.516C58.373 190.716 58.437 190.872 58.565 190.984C58.693 191.096 58.873 191.152 59.105 191.152C59.321 191.152 59.517 191.104 59.693 191.008L59.789 192.688C59.589 192.808 59.329 192.908 59.009 192.988C58.697 193.06 58.393 193.096 58.097 193.096ZM63.5518 193.096C62.8478 193.096 62.2998 192.896 61.9078 192.496C61.5158 192.088 61.3198 191.528 61.3198 190.816V188.476H60.5518V186.988H61.4998L62.6158 184.72H63.8278V186.988H65.2198V188.476H63.8278V190.516C63.8278 190.716 63.8918 190.872 64.0198 190.984C64.1478 191.096 64.3278 191.152 64.5598 191.152C64.7758 191.152 64.9718 191.104 65.1478 191.008L65.2438 192.688C65.0438 192.808 64.7838 192.908 64.4638 192.988C64.1518 193.06 63.8478 193.096 63.5518 193.096ZM68.4907 193.096C67.8107 193.096 67.2827 192.884 66.9067 192.46C66.5387 192.028 66.3547 191.44 66.3547 190.696V185.092L68.8867 184.72V190.516C68.8867 190.74 68.9387 190.904 69.0427 191.008C69.1547 191.104 69.3467 191.152 69.6187 191.152C69.8187 191.152 70.0147 191.104 70.2067 191.008L70.2907 192.688C69.7547 192.96 69.1547 193.096 68.4907 193.096ZM74.2618 193.096C73.5978 193.096 73.0058 192.964 72.4858 192.7C71.9738 192.428 71.5738 192.06 71.2858 191.596C70.9978 191.124 70.8538 190.592 70.8538 190C70.8538 189.392 71.0018 188.852 71.2978 188.38C71.5938 187.908 71.9938 187.544 72.4978 187.288C73.0018 187.032 73.5618 186.904 74.1778 186.904C74.7698 186.904 75.2738 187.036 75.6898 187.3C76.1138 187.556 76.4298 187.908 76.6378 188.356C76.8458 188.796 76.9498 189.292 76.9498 189.844C76.9498 189.988 76.9418 190.092 76.9258 190.156L73.3258 190.624C73.4218 190.904 73.5778 191.108 73.7938 191.236C74.0098 191.356 74.2938 191.416 74.6458 191.416C75.1898 191.416 75.7778 191.276 76.4098 190.996L76.7098 192.604C75.9658 192.932 75.1498 193.096 74.2618 193.096ZM75.0898 189.112C74.9618 188.608 74.6578 188.356 74.1778 188.356C73.8898 188.356 73.6618 188.464 73.4938 188.68C73.3258 188.896 73.2378 189.176 73.2298 189.52L75.0898 189.112ZM83.1681 193.096C82.4641 193.096 81.9161 192.896 81.5241 192.496C81.1321 192.088 80.9361 191.528 80.9361 190.816V188.476H80.1681V186.988H81.1161L82.2321 184.72H83.4441V186.988H84.8361V188.476H83.4441V190.516C83.4441 190.716 83.5081 190.872 83.6361 190.984C83.7641 191.096 83.9441 191.152 84.1761 191.152C84.3921 191.152 84.5881 191.104 84.7641 191.008L84.8601 192.688C84.6601 192.808 84.4001 192.908 84.0801 192.988C83.7681 193.06 83.4641 193.096 83.1681 193.096ZM85.6349 186.988H88.0829L88.7669 190.888L89.5949 186.988H91.6589L92.4989 190.984L93.1829 186.988H95.1509L93.9029 193H91.0349L90.3629 189.82L89.7269 193H86.9549L85.6349 186.988ZM98.343 193.096C97.671 193.096 97.147 192.88 96.771 192.448C96.395 192.016 96.207 191.428 96.207 190.684V186.988H98.751V190.576C98.751 190.76 98.799 190.904 98.895 191.008C98.999 191.104 99.131 191.152 99.291 191.152C99.451 191.152 99.615 191.104 99.783 191.008L99.915 192.676C99.739 192.812 99.507 192.916 99.219 192.988C98.939 193.06 98.647 193.096 98.343 193.096ZM97.479 186.088C97.103 186.088 96.783 185.972 96.519 185.74C96.263 185.5 96.135 185.208 96.135 184.864C96.135 184.52 96.271 184.232 96.543 184C96.815 183.768 97.127 183.652 97.479 183.652C97.847 183.652 98.163 183.772 98.427 184.012C98.699 184.252 98.835 184.536 98.835 184.864C98.835 185.216 98.699 185.508 98.427 185.74C98.155 185.972 97.839 186.088 97.479 186.088ZM100.854 187.072H103.266V188.296C103.73 187.368 104.466 186.904 105.474 186.904C106.242 186.904 106.842 187.18 107.274 187.732C107.714 188.276 107.934 189.032 107.934 190V193H105.414V189.748C105.414 189.404 105.338 189.14 105.186 188.956C105.042 188.772 104.838 188.68 104.574 188.68C104.382 188.68 104.194 188.744 104.01 188.872C103.826 188.992 103.674 189.168 103.554 189.4C103.442 189.632 103.386 189.896 103.386 190.192V193H100.854V187.072ZM112.44 193.096C111.776 193.096 111.184 192.964 110.664 192.7C110.152 192.428 109.752 192.06 109.464 191.596C109.176 191.124 109.032 190.592 109.032 190C109.032 189.392 109.18 188.852 109.476 188.38C109.772 187.908 110.172 187.544 110.676 187.288C111.18 187.032 111.74 186.904 112.356 186.904C112.948 186.904 113.452 187.036 113.868 187.3C114.292 187.556 114.608 187.908 114.816 188.356C115.024 188.796 115.128 189.292 115.128 189.844C115.128 189.988 115.12 190.092 115.104 190.156L111.504 190.624C111.6 190.904 111.756 191.108 111.972 191.236C112.188 191.356 112.472 191.416 112.824 191.416C113.368 191.416 113.956 191.276 114.588 190.996L114.888 192.604C114.144 192.932 113.328 193.096 112.44 193.096ZM113.268 189.112C113.14 188.608 112.836 188.356 112.356 188.356C112.068 188.356 111.84 188.464 111.672 188.68C111.504 188.896 111.416 189.176 111.408 189.52L113.268 189.112ZM116.18 187.612C116.588 187.612 116.856 187.604 116.984 187.588C117.112 187.572 117.196 187.524 117.236 187.444C117.276 187.364 117.296 187.212 117.296 186.988H116.18V184.744H118.64V185.968C118.64 186.888 118.584 187.552 118.472 187.96C118.368 188.36 118.148 188.636 117.812 188.788C117.484 188.94 116.94 189.016 116.18 189.016V187.612ZM119.3 187.612C119.708 187.612 119.976 187.604 120.104 187.588C120.232 187.572 120.316 187.524 120.356 187.444C120.396 187.364 120.416 187.212 120.416 186.988H119.3V184.744H121.76V185.968C121.76 186.888 121.704 187.552 121.592 187.96C121.488 188.36 121.268 188.636 120.932 188.788C120.604 188.94 120.06 189.016 119.3 189.016V187.612Z" fill="#393A32"/>
<path d="M33.2865 134.288C31.5945 134.288 30.1665 133.976 29.0025 133.352L29.9025 130.562C31.1385 131.006 32.2425 131.228 33.2145 131.228C33.7425 131.228 34.1265 131.168 34.3665 131.048C34.6185 130.916 34.7445 130.724 34.7445 130.472C34.7445 130.304 34.6785 130.16 34.5465 130.04C34.4145 129.908 34.1505 129.764 33.7545 129.608C33.3585 129.452 32.7645 129.26 31.9725 129.032C31.0005 128.744 30.2445 128.276 29.7045 127.628C29.1645 126.968 28.8945 126.212 28.8945 125.36C28.8945 124.04 29.3265 123.044 30.1905 122.372C31.0665 121.688 32.2425 121.346 33.7185 121.346C34.4865 121.346 35.2425 121.43 35.9865 121.598C36.7305 121.754 37.3905 121.988 37.9665 122.3L36.9945 125.018C36.3225 124.79 35.7345 124.628 35.2305 124.532C34.7385 124.424 34.2585 124.37 33.7905 124.37C32.9985 124.37 32.6025 124.586 32.6025 125.018C32.6025 125.234 32.7285 125.42 32.9805 125.576C33.2445 125.72 33.7785 125.906 34.5825 126.134C35.8425 126.47 36.7965 126.986 37.4445 127.682C38.0925 128.366 38.4165 129.188 38.4165 130.148C38.4165 131.48 37.9845 132.506 37.1205 133.226C36.2565 133.934 34.9785 134.288 33.2865 134.288ZM40.9149 125.108H44.7129V126.674C45.2889 125.462 46.2669 124.856 47.6469 124.856C48.4509 124.856 49.1889 125.06 49.8609 125.468C50.5449 125.864 51.0789 126.416 51.4629 127.124C51.8589 127.832 52.0569 128.624 52.0569 129.5C52.0569 130.376 51.8529 131.168 51.4449 131.876C51.0489 132.584 50.5089 133.142 49.8249 133.55C49.1529 133.946 48.4329 134.144 47.6649 134.144C46.2969 134.144 45.3129 133.538 44.7129 132.326V136.34L40.9149 137.06V125.108ZM46.5129 131.3C47.0049 131.3 47.4249 131.12 47.7729 130.76C48.1209 130.4 48.2949 129.98 48.2949 129.5C48.2949 128.996 48.1149 128.57 47.7549 128.222C47.4069 127.874 46.9929 127.7 46.5129 127.7C46.0209 127.7 45.6009 127.874 45.2529 128.222C44.9049 128.558 44.7309 128.96 44.7309 129.428V129.5C44.7309 130.004 44.9049 130.43 45.2529 130.778C45.6129 131.126 46.0329 131.3 46.5129 131.3ZM58.4885 134.144C57.7085 134.144 56.9765 133.94 56.2925 133.532C55.6205 133.112 55.0805 132.548 54.6725 131.84C54.2645 131.12 54.0605 130.322 54.0605 129.446C54.0605 128.582 54.2645 127.802 54.6725 127.106C55.0805 126.398 55.6265 125.846 56.3105 125.45C56.9945 125.054 57.7205 124.856 58.4885 124.856C59.1125 124.856 59.6885 125.03 60.2165 125.378C60.7565 125.726 61.1645 126.248 61.4405 126.944V124.856H65.2205V134H61.4405V132.326C60.8405 133.538 59.8565 134.144 58.4885 134.144ZM59.6585 131.3C60.1385 131.3 60.5465 131.132 60.8825 130.796C61.2305 130.448 61.4165 130.04 61.4405 129.572V129.428C61.4165 128.948 61.2245 128.54 60.8645 128.204C60.5165 127.868 60.1145 127.7 59.6585 127.7C59.1545 127.7 58.7225 127.88 58.3625 128.24C58.0145 128.588 57.8405 129.008 57.8405 129.5C57.8405 130.004 58.0205 130.43 58.3805 130.778C58.7405 131.126 59.1665 131.3 59.6585 131.3ZM73.2177 138.122C72.5577 138.122 71.9277 138.056 71.3277 137.924L71.6157 135.26C72.0837 135.332 72.5157 135.368 72.9117 135.368C73.6557 135.368 74.2197 135.146 74.6037 134.702C74.9877 134.27 75.2157 133.538 75.2877 132.506C74.5797 133.502 73.4997 134 72.0477 134C71.2557 134 70.5237 133.796 69.8517 133.388C69.1917 132.98 68.6637 132.428 68.2677 131.732C67.8837 131.036 67.6917 130.274 67.6917 129.446C67.6917 128.606 67.8837 127.838 68.2677 127.142C68.6517 126.434 69.1737 125.876 69.8337 125.468C70.5057 125.06 71.2377 124.856 72.0297 124.856C72.7617 124.856 73.3977 125.048 73.9377 125.432C74.4897 125.804 74.8497 126.308 75.0177 126.944V124.856H78.8157V131.714C78.8157 133.814 78.3357 135.404 77.3757 136.484C76.4277 137.576 75.0417 138.122 73.2177 138.122ZM73.2177 131.3C73.6977 131.3 74.1117 131.132 74.4597 130.796C74.8077 130.448 74.9937 130.04 75.0177 129.572V129.428C74.9937 128.972 74.8017 128.57 74.4417 128.222C74.0937 127.874 73.6857 127.7 73.2177 127.7C72.7257 127.7 72.3057 127.88 71.9577 128.24C71.6097 128.588 71.4357 129.008 71.4357 129.5C71.4357 129.992 71.6097 130.418 71.9577 130.778C72.3057 131.126 72.7257 131.3 73.2177 131.3ZM81.7193 122.138L85.5173 121.58V126.836C85.7813 126.2 86.1773 125.714 86.7053 125.378C87.2453 125.03 87.8933 124.856 88.6493 124.856C89.8013 124.856 90.7013 125.27 91.3493 126.098C92.0093 126.914 92.3393 128.048 92.3393 129.5V134H88.5593V129.122C88.5593 128.606 88.4453 128.21 88.2173 127.934C88.0013 127.658 87.6953 127.52 87.2993 127.52C87.0113 127.52 86.7293 127.616 86.4533 127.808C86.1773 127.988 85.9493 128.252 85.7693 128.6C85.6013 128.948 85.5173 129.344 85.5173 129.788V134H81.7193V122.138ZM99.8188 134.144C98.8228 134.144 97.9348 133.946 97.1548 133.55C96.3868 133.142 95.7868 132.59 95.3548 131.894C94.9228 131.186 94.7068 130.388 94.7068 129.5C94.7068 128.588 94.9288 127.778 95.3728 127.07C95.8168 126.362 96.4168 125.816 97.1728 125.432C97.9288 125.048 98.7688 124.856 99.6928 124.856C100.581 124.856 101.337 125.054 101.961 125.45C102.597 125.834 103.071 126.362 103.383 127.034C103.695 127.694 103.851 128.438 103.851 129.266C103.851 129.482 103.839 129.638 103.815 129.734L98.4148 130.436C98.5588 130.856 98.7928 131.162 99.1168 131.354C99.4408 131.534 99.8668 131.624 100.395 131.624C101.211 131.624 102.093 131.414 103.041 130.994L103.491 133.406C102.375 133.898 101.151 134.144 99.8188 134.144ZM101.061 128.168C100.869 127.412 100.413 127.034 99.6928 127.034C99.2608 127.034 98.9188 127.196 98.6668 127.52C98.4148 127.844 98.2828 128.264 98.2708 128.78L101.061 128.168ZM110.181 134.144C109.125 134.144 108.303 133.844 107.715 133.244C107.127 132.632 106.833 131.792 106.833 130.724V127.214H105.681V124.982H107.103L108.777 121.58H110.595V124.982H112.683V127.214H110.595V130.274C110.595 130.574 110.691 130.808 110.883 130.976C111.075 131.144 111.345 131.228 111.693 131.228C112.017 131.228 112.311 131.156 112.575 131.012L112.719 133.532C112.419 133.712 112.029 133.862 111.549 133.982C111.081 134.09 110.625 134.144 110.181 134.144ZM119.083 134.144C118.027 134.144 117.205 133.844 116.617 133.244C116.029 132.632 115.735 131.792 115.735 130.724V127.214H114.583V124.982H116.005L117.679 121.58H119.497V124.982H121.585V127.214H119.497V130.274C119.497 130.574 119.593 130.808 119.785 130.976C119.977 131.144 120.247 131.228 120.595 131.228C120.919 131.228 121.213 131.156 121.477 131.012L121.621 133.532C121.321 133.712 120.931 133.862 120.451 133.982C119.983 134.09 119.527 134.144 119.083 134.144ZM127.211 134.144C126.203 134.144 125.417 133.82 124.853 133.172C124.289 132.524 124.007 131.642 124.007 130.526V124.982H127.823V130.364C127.823 130.64 127.895 130.856 128.039 131.012C128.195 131.156 128.393 131.228 128.633 131.228C128.873 131.228 129.119 131.156 129.371 131.012L129.569 133.514C129.305 133.718 128.957 133.874 128.525 133.982C128.105 134.09 127.667 134.144 127.211 134.144ZM125.915 123.632C125.351 123.632 124.871 123.458 124.475 123.11C124.091 122.75 123.899 122.312 123.899 121.796C123.899 121.28 124.103 120.848 124.511 120.5C124.919 120.152 125.387 119.978 125.915 119.978C126.467 119.978 126.941 120.158 127.337 120.518C127.745 120.878 127.949 121.304 127.949 121.796C127.949 122.324 127.745 122.762 127.337 123.11C126.929 123.458 126.455 123.632 125.915 123.632Z" fill="#393A32"/>
<rect x="46" y="145.901" width="65.45" height="0.897773" fill="#082D74"/>
<rect x="57.7809" y="145" width="13.9627" height="3.1422" fill="#3F8D43"/>
<rect x="71.7455" y="145" width="13.9627" height="3.1422" fill="white"/>
<rect x="85.7046" y="145" width="13.9627" height="3.1422" fill="#D12C29"/>
<path d="M113.068 85.8393C110.679 83.8084 108.143 82.4968 105.316 81.8295C101.854 81.0125 97.9746 81.1927 93.7613 82.3579C94.0032 82.071 94.2432 81.7757 94.4812 81.4722C94.8474 81.0045 95.2765 80.4267 95.7309 79.7576C96.2633 79.824 96.7994 79.8573 97.336 79.8572C99.3494 79.8572 102.304 79.3797 103.653 76.8162C104.734 74.7626 104.811 72.3429 103.858 70.3436C103.497 69.5636 102.968 68.873 102.309 68.3207C101.65 67.7684 100.878 67.368 100.046 67.1479C99.9374 62.6133 97.7351 58.7254 93.5642 55.7804C93.5366 55.7608 93.5079 55.7441 93.4794 55.7267C92.8333 53.8889 91.8428 52.1911 90.561 50.7241C87.6201 47.3839 83.6075 45.9191 80.0891 46.9009C79.8194 46.9762 79.5757 47.1246 79.385 47.3298C78.1113 46.747 76.7533 46.3697 75.3615 46.2121C72.635 45.8805 69.4706 46.2366 65.9363 47.265C65.8932 44.8402 66.2882 43.0579 66.6222 41.5518C67.234 38.7928 67.7624 36.41 64.2526 33.8361C64.2462 33.8314 64.2397 33.8267 64.2332 33.8221C63.4921 33.2963 61.5332 33.1469 59.7822 34.234C56.9128 36.0152 55.5315 40.2334 55.6451 46.8096C55.2238 45.5345 54.8699 44.2381 54.5851 42.9258C53.5261 37.9486 51.6448 34.5825 49.2876 33.4474C48.2674 32.9563 47.2117 32.9325 46.3149 33.381C45.433 33.822 43.5978 34.7395 43.1216 37.9933C42.6499 41.2172 43.5476 46.2359 45.866 53.336C46.3575 54.839 46.9269 56.3154 47.5721 57.7591C46.4871 60.01 40.1961 73.8035 44.5897 82.3387C46.3214 85.7031 49.432 87.8027 53.8313 88.5923C53.9106 88.7102 53.9886 88.8286 54.07 88.9454C58.6557 95.5212 66.4823 99.8462 74.4956 100.233C87.0822 100.839 94.9357 102.42 98.5048 105.063C100.447 106.502 102.744 107.264 104.789 107.264C106.028 107.264 107.175 106.984 108.095 106.407C108.789 105.99 109.335 105.367 109.658 104.625C109.98 103.883 110.062 103.058 109.893 102.267C109.041 97.7915 104.926 94.2846 98.2508 92.304C101.459 91.5483 103.868 91.4271 106.232 92.6823C107.829 93.5306 109.228 93.8706 110.41 93.8705C112.281 93.8705 113.607 93.0185 114.311 91.9813C115.58 90.1127 115.057 87.5297 113.068 85.8393ZM101.098 71.6582C101.63 72.7745 101.572 74.2053 100.947 75.3922C100.348 76.5309 98.7541 76.7875 97.5057 76.8C98.4953 74.9104 99.3847 72.6904 99.8014 70.3044L99.8018 70.3013C100.375 70.5937 100.832 71.0721 101.098 71.6582V71.6582ZM96.7894 69.7784C95.5265 77.0109 88.834 83.7386 86.9863 84.2481C86.9632 84.2545 86.9413 84.2631 86.9187 84.2705C84.2713 84.8004 81.5968 85.1847 78.9072 85.4216L78.91 85.4198C85.4848 81.1367 90.2354 75.8482 92.6484 70.1261C94.008 66.9017 94.6087 63.7232 94.4473 60.6527C96.6185 63.1913 97.4059 66.2482 96.7894 69.7784ZM88.2664 52.7446C89.5977 54.2566 93.6453 59.8932 89.8311 68.9381C86.0663 77.8661 76.9484 83.3863 71.9744 85.8378C71.7564 85.8892 71.5525 85.988 71.3771 86.1273C69.9144 86.8239 68.9079 87.2139 68.6607 87.307C68.6111 87.2829 68.5619 87.2601 68.5121 87.2356C67.5533 86.7677 66.6446 86.2035 65.8001 85.5515C70.2383 83.4263 81.9822 77.1759 85.043 69.2455C87.391 63.1623 87.349 54.498 82.7257 49.7083C82.7164 49.6986 82.7066 49.6896 82.6972 49.68C84.612 49.8215 86.6572 50.917 88.2664 52.7446ZM80.5259 51.8317C84.2198 55.6585 84.1406 63.0926 82.1907 68.1446C79.2965 75.6431 66.4067 81.9147 63.4931 83.2521C62.7922 82.347 62.2188 81.3501 61.7889 80.2891C63.8306 79.4004 70.9368 75.9498 76.8224 68.7353C79.367 65.616 80.1392 61.7 79.0554 57.4105C78.5627 55.4741 77.7629 53.6291 76.6864 51.9458C76.5647 51.7676 76.4066 51.6173 76.2226 51.5046C76.0386 51.3919 75.8329 51.3194 75.6189 51.2919C75.383 51.2614 70.5052 50.6737 67.0122 53.1164C66.645 52.2343 66.3784 51.3136 66.2173 50.3717C72.7223 48.3596 77.6544 48.8567 80.5259 51.8317ZM62.3984 76.5914C61.8139 76.8993 61.3208 77.1385 60.945 77.3124C60.8306 76.6316 60.7621 75.9439 60.7399 75.2539C61.3682 75.7868 61.9276 76.2319 62.3984 76.5914ZM70.799 58.4588C69.9515 57.6532 69.1849 56.7666 68.5101 55.8117C70.3755 54.3181 73.2186 54.2271 74.5266 54.2762C75.0307 55.1759 75.4498 56.1206 75.7784 57.0981C73.6922 56.9404 71.8886 57.7799 70.799 58.4588ZM76.4458 60.3319C76.499 61.0258 76.4791 61.7234 76.3865 62.4131C75.3306 61.8728 74.3158 61.2555 73.3505 60.5663C74.2093 60.2004 75.3183 59.9559 76.4458 60.3319V60.3319ZM59.5687 55.6675C57.4951 42.5991 59.5486 38.4669 60.9573 37.167C61.6793 36.5005 62.3852 36.4625 62.6863 36.4833C64.3326 37.7542 64.1841 38.4238 63.6373 40.8899C63.2029 42.8487 62.6217 45.4745 62.9966 49.3135C62.9963 49.4213 63.0074 49.5288 63.0298 49.6343C63.0552 49.8661 63.0835 50.1014 63.1161 50.3419C64.3877 59.7201 73.6001 64.4907 75.4274 65.3497C75.1493 65.8637 74.8231 66.3501 74.4533 66.8025C73.8601 67.5296 73.2517 68.2159 72.6361 68.863C67.92 66.5821 63.6256 62.4083 60.2073 56.7769C59.9912 56.421 59.7799 56.0565 59.571 55.6885C59.57 55.6815 59.5698 55.6745 59.5687 55.6675ZM46.1469 38.436C46.3921 36.7608 47.0188 36.4474 47.6712 36.1197C47.769 36.1007 48.341 36.2447 49.1167 37.2643C49.8374 38.2116 50.8522 40.073 51.5945 43.5621C52.6034 48.3038 54.8461 53.837 57.5936 58.3634C61.082 64.1103 65.4582 68.4884 70.3104 71.1066C68.734 72.5022 67.0519 73.7736 65.2791 74.9095C64.4009 74.2985 61.8941 72.4514 59.0192 69.4093C55.7511 65.9513 51.3207 60.1911 48.7724 52.387C46.634 45.8379 45.7506 41.1442 46.1469 38.436ZM47.3097 80.9427C44.3327 75.165 47.515 65.7639 49.3454 61.3176C49.9639 62.4389 50.6061 63.4969 51.2575 64.4917C51.2143 64.5729 51.1785 64.6578 51.1505 64.7455C49.683 69.4116 49.247 73.94 49.8548 78.2047C50.1782 80.5027 50.8209 82.7443 51.7643 84.8645C49.7139 84.0512 48.2436 82.7549 47.3097 80.9427V80.9427ZM106.89 102.839C106.976 103.292 106.854 103.576 106.469 103.817C105.456 104.454 102.879 104.499 100.325 102.607C96.1972 99.5492 88.0366 97.8245 74.6428 97.1787C67.5555 96.837 60.6334 93.012 56.5778 87.1964C53.8527 83.2886 51.2276 76.8102 53.5066 67.6534C54.5599 69.0208 55.6825 70.3335 56.8698 71.5863C57.1923 71.9261 57.5094 72.2512 57.8212 72.5617C57.5361 74.7507 57.6638 76.9737 58.1978 79.1156C59.0252 82.4654 61.2519 87.0692 67.1616 89.9787C73.5813 93.1392 79.0846 93.3423 84.4068 93.5389C88.0841 93.6747 91.8866 93.8151 96.1535 94.8977C102.403 96.4835 106.216 99.3037 106.89 102.839V102.839ZM111.782 90.2643C111.324 90.938 109.841 91.1372 107.666 89.982C103.212 87.6169 98.8694 88.8705 92.8593 90.6056L92.0993 90.8248C91.9786 90.86 91.8627 90.9101 91.7542 90.9738C89.2231 90.6586 86.8468 90.5694 84.5195 90.4835C80.5749 90.3378 76.795 90.1976 72.6732 88.9066C72.7157 88.8864 72.7572 88.867 72.8004 88.8464C75.102 88.8 85.2216 88.4519 92.6979 85.8854C103.884 82.0457 109.306 86.6544 111.088 88.1689C112.01 88.9525 112.094 89.8044 111.782 90.2643V90.2643Z" fill="#393A32"/>
</svg>
