<svg width="255" height="263" viewBox="0 0 255 263" fill="none" xmlns="http://www.w3.org/2000/svg">
<path d="M248.158 186.923C239.695 179.73 230.715 175.085 220.703 172.722C208.441 169.828 194.702 170.466 179.78 174.593C180.636 173.577 181.486 172.531 182.329 171.456C183.626 169.8 185.146 167.754 186.755 165.383C188.641 165.619 190.54 165.737 192.44 165.737C199.571 165.737 210.034 164.045 214.812 154.966C218.64 147.693 218.912 139.123 215.54 132.042C214.259 129.28 212.385 126.834 210.052 124.878C207.719 122.922 204.983 121.504 202.039 120.724C201.653 104.664 193.853 90.8947 179.082 80.4643C178.984 80.3952 178.882 80.3359 178.781 80.2741C176.493 73.7653 172.985 67.7522 168.445 62.5568C158.029 50.7268 143.818 45.5391 131.357 49.0161C130.402 49.2829 129.539 49.8086 128.864 50.5351C124.353 48.471 119.543 47.135 114.614 46.5768C104.957 45.4022 93.7502 46.6635 81.2329 50.3057C81.0801 41.7179 82.4792 35.4057 83.6621 30.0715C85.8289 20.2999 87.7003 11.861 75.2697 2.74503C75.247 2.72837 75.224 2.71172 75.201 2.69533C72.5763 0.833121 65.6382 0.304115 59.437 4.15411C49.2743 10.4627 44.3823 25.402 44.7849 48.6928C43.2924 44.177 42.0393 39.5855 41.0306 34.9377C37.28 17.3101 30.6169 5.38845 22.2686 1.36847C18.6555 -0.37107 14.9166 -0.455149 11.7404 1.13317C8.61692 2.69506 2.11716 5.94467 0.430755 17.4685C-1.24005 28.8866 1.93925 46.6608 10.1505 71.8073C11.891 77.1304 13.9079 82.3592 16.193 87.4723C12.3501 95.4443 -9.93037 144.296 5.63009 174.525C11.7634 186.441 22.7798 193.877 38.3609 196.673C38.6416 197.091 38.9178 197.51 39.2062 197.924C55.4471 221.213 83.1664 236.531 111.547 237.899C156.124 240.049 183.939 245.645 196.58 255.009C203.457 260.103 211.592 262.801 218.837 262.801C223.225 262.801 227.287 261.811 230.544 259.765C233.002 258.291 234.938 256.085 236.079 253.455C237.221 250.826 237.513 247.906 236.912 245.103C233.894 229.254 219.32 216.833 195.68 209.819C207.043 207.142 215.574 206.713 223.945 211.159C229.603 214.163 234.558 215.367 238.745 215.367C245.37 215.367 250.067 212.349 252.561 208.676C257.053 202.058 255.201 192.91 248.158 186.923ZM205.764 136.698C207.647 140.652 207.442 145.719 205.23 149.923C203.107 153.956 197.463 154.864 193.041 154.909C196.546 148.216 199.696 140.354 201.171 131.903L201.173 131.892C203.204 132.928 204.822 134.623 205.764 136.698V136.698ZM190.504 130.041C186.031 155.656 162.329 179.483 155.785 181.287C155.703 181.31 155.626 181.341 155.546 181.367C146.169 183.244 136.697 184.605 127.171 185.444L127.181 185.437C150.467 170.268 167.292 151.538 175.838 131.272C180.653 119.852 182.781 108.595 182.209 97.7205C189.899 106.711 192.688 117.538 190.504 130.041ZM160.318 69.7127C165.034 75.0677 179.369 95.0305 165.86 127.064C152.526 158.685 120.234 178.235 102.618 186.918C101.846 187.1 101.123 187.45 100.502 187.943C95.3219 190.41 91.7572 191.791 90.8816 192.121C90.7058 192.036 90.5316 191.955 90.3554 191.868C86.9595 190.211 83.7412 188.213 80.7502 185.904C96.4689 178.377 138.062 156.24 148.902 128.153C157.218 106.608 157.069 75.9224 140.695 58.959C140.662 58.9248 140.627 58.893 140.594 58.8589C147.376 59.3601 154.619 63.2399 160.318 69.7127ZM132.904 66.4795C145.987 80.0328 145.706 106.362 138.8 124.254C128.55 150.812 82.8988 173.024 72.5797 177.76C70.0973 174.555 68.0664 171.024 66.5439 167.266C73.775 164.118 98.9427 151.898 119.788 126.346C128.8 115.299 131.535 101.429 127.696 86.2378C125.951 79.3796 123.119 72.8453 119.306 66.8834C118.875 66.2525 118.315 65.7199 117.663 65.3208C117.012 64.9216 116.283 64.6649 115.525 64.5676C114.69 64.4595 97.4144 62.3781 85.0431 71.0293C83.7427 67.9051 82.7984 64.6444 82.228 61.3087C105.267 54.1824 122.734 55.9431 132.904 66.4795ZM68.7026 154.17C66.6326 155.26 64.8861 156.108 63.5553 156.724C63.1502 154.312 62.9075 151.877 62.8287 149.433C65.0542 151.321 67.0354 152.897 68.7026 154.17ZM98.4548 89.9503C95.4533 87.0972 92.7382 83.9571 90.3484 80.5751C96.9549 75.2854 107.024 74.9633 111.657 75.137C113.442 78.3233 114.926 81.6692 116.09 85.1311C108.702 84.5726 102.314 87.546 98.4548 89.9503ZM118.454 96.5842C118.642 99.0418 118.572 101.512 118.244 103.955C114.504 102.042 110.91 99.8553 107.491 97.4143C110.533 96.1186 114.461 95.2526 118.454 96.5842V96.5842ZM58.6809 80.0646C51.3367 33.7805 58.6095 19.1459 63.5987 14.5419C66.1559 12.1814 68.656 12.0468 69.7225 12.1206C75.5529 16.6217 75.027 18.9931 73.0903 27.7273C71.5519 34.6648 69.4936 43.9644 70.8214 57.5607C70.8201 57.9425 70.8594 58.3234 70.9388 58.6969C71.0289 59.5178 71.1289 60.3512 71.2445 61.2032C75.7482 94.4175 108.375 111.313 114.847 114.356C113.862 116.176 112.707 117.899 111.397 119.501C109.296 122.076 107.141 124.507 104.961 126.799C88.2584 118.721 73.0489 103.938 60.9425 83.9939C60.1773 82.7331 59.4289 81.4421 58.6888 80.1388C58.6852 80.114 58.6848 80.0894 58.6809 80.0646ZM11.1453 19.0365C12.0135 13.1032 14.2332 11.9934 16.544 10.8328C16.8901 10.7654 18.9159 11.2754 21.6632 14.8867C24.2157 18.2415 27.8098 24.8341 30.4389 37.1912C34.0121 53.9846 41.9548 73.5815 51.6857 89.6125C64.0405 109.966 79.5393 125.472 96.7244 134.745C91.1413 139.687 85.1837 144.19 78.9053 148.213C75.7949 146.049 66.9166 139.507 56.7346 128.733C45.1603 116.486 29.4692 96.0856 20.444 68.4461C12.8703 45.2515 9.74155 28.6277 11.1453 19.0365ZM15.2637 169.581C4.72003 149.118 15.9907 115.823 22.4734 100.075C24.664 104.047 26.9382 107.794 29.2453 111.317C29.0923 111.605 28.9655 111.905 28.8665 112.216C23.669 128.742 22.1248 144.78 24.2773 159.884C25.4227 168.023 27.6989 175.961 31.0401 183.471C23.7784 180.59 18.571 175.999 15.2637 169.581V169.581ZM226.275 247.129C226.581 248.735 226.15 249.739 224.786 250.595C221.197 252.849 212.073 253.009 203.025 246.307C188.407 235.479 159.505 229.371 112.068 227.084C86.9672 225.873 62.4516 212.326 48.0882 191.73C38.4366 177.889 29.1392 154.945 37.2108 122.515C40.9414 127.357 44.9172 132.006 49.1224 136.444C50.2644 137.647 51.3875 138.799 52.4917 139.898C51.482 147.651 51.9344 155.524 53.8255 163.11C56.7557 174.974 64.6421 191.279 85.5724 201.583C108.309 212.777 127.8 213.496 146.649 214.192C159.673 214.673 173.14 215.171 188.252 219.005C210.387 224.621 223.89 234.609 226.275 247.129V247.129ZM243.601 202.595C241.981 204.981 236.728 205.686 229.024 201.595C213.25 193.219 197.871 197.659 176.585 203.804L173.893 204.58C173.466 204.705 173.055 204.882 172.671 205.108C163.707 203.992 155.291 203.676 147.048 203.371C133.078 202.855 119.691 202.359 105.093 197.786C105.243 197.715 105.39 197.646 105.543 197.573C113.695 197.409 149.535 196.176 176.013 187.086C215.63 173.487 234.834 189.81 241.145 195.174C244.41 197.949 244.707 200.966 243.601 202.595V202.595Z" fill="#E0D6D6"/>
</svg>
