<svg width="158" height="224" viewBox="0 0 158 224" fill="none" xmlns="http://www.w3.org/2000/svg">
<rect width="158" height="224" rx="5" fill="#FFD300"/>
<mask id="path-2-inside-1" fill="white">
<rect x="9" y="9" width="140" height="207" rx="2"/>
</mask>
<rect x="9" y="9" width="140" height="207" rx="2" fill="white" stroke="#2179B9" stroke-width="14" mask="url(#path-2-inside-1)"/>
<path d="M71.8636 94.5066C71.1327 94.521 70.0732 94.5757 69.4241 94.196C68.9967 93.9464 68.8522 93.6626 68.2865 93.6994C67.8026 93.7309 67.3797 94.0155 67.1669 94.4518C66.7179 95.3748 67.7478 95.9647 67.3904 96.8536C66.9909 97.8484 65.6181 97.8655 64.7714 97.553C63.8044 97.1957 63.0116 95.8749 61.9342 96.0051C61.0219 96.1156 60.5281 96.9802 60.5622 97.8296C60.5847 98.3943 60.8442 98.5218 60.4006 98.8334C59.8933 99.1898 59.1499 98.9717 58.595 99.0561C58.2879 99.1028 58.0581 99.3838 57.8085 99.435C57.5355 99.4906 57.2249 99.3245 56.9035 99.224C56.2965 99.0327 55.6716 98.9079 55.0584 98.7391C56.2049 97.9104 55.2729 96.683 54.7019 95.8462C53.9396 94.7302 53.1127 93.6608 52.2624 92.6112C50.5125 90.451 48.6485 88.3742 47.0683 86.0811C46.7047 85.5541 46.368 85.0504 46.1597 84.4695C45.9442 83.8652 45.4997 83.5465 45.2178 82.9799C44.6333 81.8028 44.1592 80.5656 43.8809 79.2789C43.6771 78.3398 43.3584 76.8601 44.5552 76.4686C45.2053 76.2558 45.3462 76.5432 45.6335 77.0666C45.972 77.6834 46.3375 78.2859 46.7137 78.8803C49.6721 83.5447 53.567 87.5383 56.4536 92.2512C56.784 92.7908 57.1001 93.3394 57.3982 93.897C57.699 94.4599 57.9108 95.1603 58.5591 95.409C59.6724 95.8354 60.6403 94.7257 60.2938 93.6716C59.879 92.4119 58.9703 91.1693 58.2565 90.0631C57.5337 88.9426 56.7589 87.8571 55.9598 86.7904C54.2979 84.5709 52.5264 82.434 50.8869 80.1974C50.0294 79.0275 49.207 77.8307 48.4636 76.5836C47.8198 75.5043 46.9794 74.2159 47.0719 72.9023C47.15 71.7854 48.0254 70.8103 49.1325 70.6415C49.5554 70.5769 50.3742 70.5796 50.7118 70.9037C51.044 71.2216 51.2586 72.0844 51.5037 72.5019C52.855 74.8076 54.9075 76.0601 56.8469 77.7903C58.7593 79.4971 59.9472 81.8711 61.153 84.0915C61.8219 85.3233 62.4774 86.5633 63.1211 87.8086C63.588 88.7127 64.0657 90.5336 65.3317 90.521C65.909 90.5147 66.4261 90.1385 66.6057 89.5926C66.8068 88.9812 66.4872 88.4748 66.2169 87.9424C65.5831 86.697 64.9393 85.4562 64.2821 84.2225C63.0412 81.8917 61.8399 79.4486 60.1681 77.388C58.5214 75.358 56.0541 74.2033 54.4855 72.1311C53.2842 70.5446 51.7408 67.6238 54.3437 66.6272C55.0036 66.3749 56.0765 65.8955 56.7086 66.4557C57.1324 66.8319 57.4431 67.5861 57.7816 68.053C58.1865 68.6115 58.613 69.1547 59.0502 69.688C60.7822 71.7971 62.7225 73.7266 64.432 75.8554C65.3128 76.9526 66.1263 78.1036 66.8822 79.2897C66.9936 78.4053 67.2827 77.555 67.9265 76.9158C67.9839 76.8583 68.3152 76.6437 68.3224 76.5782C68.3341 76.4758 68.0019 76.1212 67.9381 76.0314C67.6463 75.622 67.3482 75.2179 67.0421 74.8193C65.812 73.2157 64.4392 71.7324 63.0879 70.2321C61.8587 68.8674 60.6394 67.4838 59.5979 65.9682C59.3196 65.5624 58.4379 64.5918 58.5358 64.0557C58.6112 63.6427 59.334 63.7648 59.7506 63.7684C59.1355 63.5287 58.6184 63.1139 58.1811 62.6264C57.9917 62.4154 57.8166 62.1882 57.6585 61.953C57.365 61.5157 57.3443 61.4062 56.8837 61.7518C56.4339 62.0894 56.1205 62.5509 55.958 63.087C55.7973 63.6176 55.7443 63.4982 55.2307 63.5772C54.8581 63.6346 54.4909 63.7334 54.1327 63.8474C53.0023 64.2084 51.8494 64.6681 51.1078 65.6405C50.745 66.1154 50.4945 66.6721 50.35 67.2512C50.3213 67.3679 50.3186 67.5673 50.262 67.6705C50.0716 68.0207 50.4829 67.8528 49.9334 67.9264C49.603 67.9704 49.2483 67.9094 48.9116 67.9498C46.2926 68.2613 44.2832 70.6074 44.3819 73.2435C44.4026 73.7939 44.434 73.7149 43.9078 73.8604C43.6555 73.9304 43.4068 74.0247 43.1716 74.1405C42.5826 74.4314 42.0627 74.8633 41.6883 75.4047C40.9 76.5441 40.9036 77.9654 41.1353 79.278C41.3903 80.7245 41.8625 82.1278 42.4659 83.4638C42.5117 83.5653 42.7388 83.9487 42.7254 84.0169C42.7119 84.087 42.4632 84.1992 42.4156 84.2638C42.2351 84.5072 41.9766 84.6912 41.7979 84.9462C41.4441 85.4526 41.2206 86.0524 41.1828 86.671C41.0176 89.3439 43.1465 92.2835 44.812 94.1753C46.7316 96.3553 49.0768 98.142 51.4095 99.8561C52.6207 100.746 53.8489 101.222 55.2999 101.577C55.9077 101.726 56.4913 102.033 57.0938 102.162C57.3901 102.225 57.6918 102.192 57.9629 102.06C58.3319 101.882 58.3427 101.762 58.7539 101.743C60.2148 101.676 61.7923 101.562 62.8194 100.357C62.8877 100.277 62.9469 100.152 63.0233 100.084C63.3303 99.8067 62.9263 99.7914 63.4955 99.9405C63.8628 100.037 64.2048 100.214 64.5801 100.3C65.3361 100.472 66.1236 100.485 66.8805 100.31C68.2874 99.9862 69.5103 99.03 69.9763 97.6365C70.128 97.184 69.9853 97.1751 70.4315 97.1373C70.8239 97.1041 71.2611 97.2029 71.6571 97.2047C72.484 97.2092 73.3199 97.1113 74.093 96.8033C73.2184 96.147 72.4606 95.4305 71.8636 94.5066C72.0916 94.8604 71.4012 94.5156 71.8636 94.5066ZM47.4382 93.0512C46.4739 92.0537 45.6012 90.9511 44.9287 89.7354C44.5274 89.009 43.4383 87.2088 44.0578 86.4178C46.4775 90.2678 49.7673 93.4606 52.3477 97.1921C50.6382 95.9028 48.9296 94.5937 47.4382 93.0512C48.9206 94.5847 45.7449 91.2977 47.4382 93.0512Z" fill="#393A32"/>
<path d="M88.3268 77.7867C89.2264 80.4704 89.3216 83.436 89.5497 86.2364C89.6673 87.682 89.5865 89.2721 89.8765 90.6898C90.0866 91.7179 91.3256 92.2359 92.1337 91.4647C92.9804 90.6566 92.4381 88.6912 92.3627 87.6658C92.2513 86.1538 92.1247 84.6418 91.9793 83.1325C91.841 81.6996 91.6991 80.2612 91.4073 78.8498C91.3463 78.5526 91.3184 77.9654 91.1353 77.7203C90.9404 77.459 90.5723 77.5155 90.2105 77.4311C90.0345 77.3898 89.5551 77.1519 89.3881 77.1609C89.1366 77.1735 88.5773 77.6637 88.3268 77.7867C88.6832 77.6125 88.7569 79.0688 88.3268 77.7867Z" fill="#393A32"/>
<path d="M100.311 71.9707C101.381 75.3332 102.358 78.7342 103.01 82.2045C103.329 83.9014 103.564 85.6127 103.707 87.333C103.757 87.9463 103.743 88.5757 104.269 88.9905C104.726 89.3505 105.38 89.3739 105.86 89.0471C106.979 88.2857 106.292 85.9315 106.153 84.8352C105.938 83.1481 105.636 81.4727 105.27 79.8126C104.528 76.4393 103.526 73.1307 102.457 69.8481C101.947 70.5413 101.209 71.7732 100.311 71.9707C100.56 71.9159 101.556 75.8862 100.311 71.9707Z" fill="#393A32"/>
<path d="M95.1998 76.4781C96.2 79.6484 96.8178 82.9148 96.9991 86.2369C97.0853 87.8109 97.0781 89.3902 96.974 90.9632C96.9273 91.6743 96.7145 92.468 97.2748 93.0373C97.6339 93.4027 98.1897 93.5329 98.6745 93.3659C100.038 92.8945 99.7089 90.622 99.7403 89.5123C99.7852 87.9401 99.7412 86.3653 99.6065 84.7985C99.3156 81.401 98.5758 78.0826 97.5118 74.8467C96.8241 75.4689 95.9989 76.0094 95.1998 76.4781C96.0187 75.9986 95.3174 76.8489 95.1998 76.4781Z" fill="#393A32"/>
<path d="M108.694 63.5891C108.164 63.3063 107.542 63.1608 106.953 63.3278C106.764 63.3817 106.526 63.5999 106.357 63.6205C106.095 63.6529 105.733 63.3341 105.454 63.1797C105.311 63.8333 105.128 64.478 104.913 65.111C104.803 65.4315 104.634 65.6802 104.775 65.9289C104.937 66.2118 105.463 66.4991 105.7 66.7648C106.412 67.5648 106.639 68.9107 106.947 69.9298C107.834 72.8658 108.533 75.8583 109.041 78.8832C109.284 80.3333 109.357 81.8318 109.642 83.2702C109.844 84.2919 111.008 84.8899 111.866 84.1375C112.795 83.3231 112.135 81.3425 111.988 80.3045C111.773 78.7979 111.513 77.2985 111.208 75.8081C110.582 72.7491 109.712 69.7745 108.783 66.7972C110.938 68.3011 112.658 70.4075 113.777 72.7796C114.338 73.9675 114.751 75.2272 114.989 76.5192C115.103 77.1405 115.178 77.7681 115.209 78.3984C115.239 79.0134 115.077 79.7685 115.256 80.3575C115.629 81.5849 117.401 81.5984 117.815 80.3997C118.191 79.3133 117.903 77.7043 117.741 76.5946C117.372 74.0635 116.437 71.6214 115.047 69.4764C113.458 67.0279 111.271 64.9664 108.694 63.5891C114.602 66.7478 107.679 63.0477 108.694 63.5891Z" fill="#393A32"/>
<path d="M72.5675 74.0142C72.5191 74.5834 72.4804 75.1535 72.4643 75.7246C72.458 75.9598 72.5262 76.3477 72.4589 76.5695C72.3413 76.9573 72.3808 76.8236 71.9543 76.978C70.7637 77.4117 69.9611 78.3706 69.6764 79.5961C69.0982 82.0922 69.6576 84.9061 70.4728 87.28C71.3662 89.8838 72.7336 92.3089 74.1172 94.6784C74.77 95.7962 75.5143 96.7174 76.5406 97.5138C76.9931 97.8649 77.4761 98.1845 77.8981 98.5733C78.3273 98.9692 78.6559 99.4424 79.3042 99.4334C79.6534 99.428 79.7746 99.3203 80.0772 99.3823C80.3502 99.4388 80.6644 99.6669 80.9338 99.7629C81.5201 99.9712 82.1459 100.098 82.769 100.112C83.3302 100.125 83.8976 100.046 84.4103 99.8078C84.5126 99.7603 84.9625 99.4002 85.0442 99.4065C85.1824 99.4173 85.6861 100.072 85.8235 100.187C87.6156 101.683 90.4726 101.956 92.131 100.1C92.1507 100.078 92.4731 99.675 92.4793 99.6741C92.6041 99.648 93.1447 100.032 93.2695 100.094C93.8073 100.363 94.3622 100.604 94.944 100.761C96.1893 101.097 97.4993 101.023 98.6027 100.312C98.8371 100.162 99.0571 99.9874 99.2555 99.7908C99.5841 99.4649 99.4512 99.4478 99.8615 99.4864C100.363 99.5331 100.881 99.833 101.403 99.8967C102.551 100.036 103.744 99.8303 104.756 99.2628C105.755 98.7017 106.516 97.8047 107.046 96.8009C107.158 96.5908 107.244 96.2317 107.395 96.0539C107.661 95.7378 107.553 95.8429 108.011 95.8806C108.666 95.9345 109.332 95.8258 109.935 95.5646C110.905 95.1435 111.65 94.3435 112.134 93.4169C112.336 93.0299 112.442 92.1096 112.715 91.8295C112.829 91.7127 113.265 91.631 113.423 91.5556C113.735 91.4066 114.032 91.2243 114.31 91.0178C116.149 89.6477 117.121 87.104 117.361 84.88C117.467 83.8942 116.646 82.9811 115.607 83.3339C114.454 83.7263 114.527 85.4699 114.216 86.4387C113.884 87.4731 113.349 88.5487 112.344 89.0766C111.918 89.3011 111.461 89.249 111.032 89.4295C110.454 89.6728 110.293 90.1621 110.188 90.7269C110.023 91.6149 109.722 92.8135 108.742 93.1278C107.649 93.4788 107.091 91.9471 105.938 92.7192C105.145 93.2508 105.112 94.6703 104.693 95.4829C104.185 96.466 103.383 97.1906 102.238 97.2453C101.295 97.2902 100.606 96.9078 99.945 96.2963C99.0229 95.4442 97.6537 95.8258 97.5513 97.1619C97.431 98.7349 95.673 98.2599 94.6504 97.7751C94.1772 97.5506 93.4454 97.2813 93.0962 96.8691C92.8977 96.6357 92.8502 96.3349 92.6176 96.1114C91.7081 95.2359 90.2984 96.009 90.3415 97.1978C90.3586 97.6638 90.4511 97.9798 90.0641 98.3614C89.6556 98.7645 89.0414 98.7843 88.5153 98.6406C87.1245 98.259 86.857 97.0263 86.1369 95.9901C85.4904 95.06 84.1562 95.2692 83.5959 96.1652C83.367 96.5316 83.3804 97.2498 83.0617 97.4133C82.5032 97.6997 81.6197 97.0451 81.1134 96.9131C80.8296 96.8386 80.6294 96.9221 80.3574 96.9051C80.1688 97.0595 80.0225 97.0209 79.9183 96.7883C79.7827 96.6564 79.6436 96.5298 79.499 96.4076C79.0133 95.9919 78.4871 95.6256 77.9879 95.227C78.8938 95.0249 79.0968 94.1899 78.9747 93.3917C78.8059 92.2847 78.541 91.1848 78.2662 90.1002C77.688 87.8214 76.9545 85.5858 76.3349 83.3187C75.7989 81.3577 75.3832 79.3771 75.2036 77.3497C75.1821 77.1109 75.1947 76.8496 75.1516 76.6144C75.0618 76.1223 74.9496 76.0882 74.48 75.8476C73.6378 75.4148 73.0937 74.7962 72.5675 74.0142C73.0865 74.7854 72.493 74.8869 72.5675 74.0142ZM75.4712 90.0598C75.7082 90.9451 75.9273 91.8358 76.1087 92.7354C74.8256 90.4881 73.5417 88.1985 72.7956 85.707C72.4706 84.6233 72.2488 83.5027 72.1895 82.3714C72.15 81.628 71.9588 79.9912 72.7453 79.5656C73.3065 83.1472 74.5374 86.568 75.4712 90.0598C75.1983 89.0389 75.71 90.9523 75.4712 90.0598Z" fill="#393A32"/>
<path d="M78.9846 77.6691C79.6894 80.6132 80.5469 83.5204 81.2041 86.4762C81.5534 88.0483 81.8389 89.6349 82.0032 91.2375C82.1119 92.2979 82.0284 94.1358 83.6481 93.9105C85.1215 93.7057 84.7884 92.0214 84.6833 90.9798C84.5316 89.4822 84.2793 87.9981 83.9677 86.5256C83.3114 83.4208 82.3992 80.3779 81.6611 77.292C80.7974 77.608 79.9013 77.7634 78.9846 77.6691C79.0933 77.6799 79.0376 77.8927 78.9846 77.6691Z" fill="#393A32"/>
<path d="M103.842 51.3235C103.621 50.7543 103.229 50.2218 102.657 49.9713C102.502 49.904 102.042 49.9067 101.941 49.8187C101.757 49.6589 101.629 48.8158 101.525 48.5644C100.985 47.2625 100.055 45.772 98.7545 45.1094C98.416 44.937 98.047 44.8284 97.6681 44.7988C97.4274 44.7799 96.7119 45.0107 96.5404 44.9317C96.4066 44.8697 96.2728 44.0383 96.2019 43.8452C96.034 43.3873 95.8373 42.9402 95.6066 42.511C95.0715 41.5153 94.2921 40.5681 93.0971 40.4235C92.7981 40.3876 92.3231 40.569 92.0699 40.507C91.7889 40.4388 91.6138 40.0231 91.3902 39.7366C90.9934 39.2285 90.5193 38.7616 90.0354 38.336C89.4805 37.8484 88.8619 37.4462 88.1409 37.2577C87.7593 37.158 87.3598 37.1221 86.9665 37.1329C86.5562 37.1445 85.9833 37.4265 85.6071 37.3843C85.3261 37.3528 85.3055 37.0063 85.1447 36.6938C84.9804 36.376 84.7838 36.0734 84.5584 35.7959C84.0413 35.1585 83.3706 34.6503 82.6155 34.3261C81.2714 33.7488 79.6902 33.7623 78.3668 34.3926C78.268 34.4393 78.0346 34.6135 77.9125 34.6386C77.4223 34.7401 77.8703 34.7742 77.539 34.5614C77.2687 34.3872 77.0568 34.0227 76.7902 33.8162C76.2012 33.3609 75.4901 33.0638 74.7457 33.0099C73.1296 32.8914 71.7191 33.8584 70.533 34.8415C69.9269 35.3434 69.3604 35.8911 68.828 36.4702C68.5496 36.7728 68.2812 37.0844 68.0217 37.4031C67.852 37.6114 67.8367 37.7003 67.6069 37.6967C67.4147 37.6931 67.1418 37.4911 66.9371 37.4345C65.3326 36.9856 64.0136 37.738 62.912 38.8451C60.6215 41.1472 59.2945 44.2035 58.4577 47.2975C57.9926 49.0169 57.6433 50.7722 57.3282 52.5248C57.0121 54.2837 57.3659 55.7715 57.5832 57.5053C57.6783 58.2613 57.8732 58.6186 58.3464 59.2022C58.7908 59.7499 59.009 60.3443 59.3807 60.936C59.7542 61.5322 60.2471 62.0987 60.8325 62.4947C61.1288 62.6949 61.4592 62.8583 61.8031 62.9607C61.9118 62.993 62.2009 63.0082 62.3122 63.0675C62.5349 62.9966 62.6193 63.0576 62.5663 63.2498C62.5654 63.4168 62.5735 63.5829 62.5905 63.7481C62.7207 65.1694 63.3887 66.5458 64.5389 67.4167C65.0992 67.8405 65.7591 68.1287 66.4567 68.2248C66.894 68.285 67.2926 68.1808 67.72 68.1871C68.1851 68.1943 68.0549 68.2212 68.265 68.7429C68.8037 70.0789 69.566 71.4813 70.9038 72.1619C71.5592 72.495 72.3359 72.6683 73.0703 72.6306C73.5704 72.6054 73.5758 72.4815 73.8452 72.9673C74.0562 73.348 74.3103 73.708 74.5985 74.0339C75.6014 75.1679 77.0488 75.8808 78.5697 75.9105C79.3724 75.9266 80.1697 75.7228 80.9149 75.4382C81.2615 75.3062 81.7419 74.9929 82.0175 75.0871C82.2994 75.1841 82.6631 75.73 82.9495 75.9123C84.2388 76.7338 85.7705 76.7105 87.1452 76.1206C87.5214 75.9589 87.8563 75.704 88.2271 75.5432C88.6697 75.3511 88.8179 75.5199 89.3126 75.633C90.1566 75.8261 91.0491 75.827 91.8966 75.6582C93.5218 75.334 95.0481 74.3311 96.3141 73.295C96.8151 72.8847 97.2084 72.3792 97.0117 71.6842C96.7963 70.9211 95.9514 70.5359 95.2259 70.8079C94.5812 71.0495 94.012 71.6816 93.4392 72.0604C92.6823 72.5597 91.8499 73.0068 90.9305 73.0876C90.1988 73.1522 89.7274 72.9323 89.1088 72.6135C88.386 72.2409 87.876 72.425 87.2601 72.908C86.6585 73.3794 85.9169 73.9271 85.1052 73.8696C84.237 73.8086 84.1059 73.3085 83.9084 72.6243C83.3041 70.5251 81.2337 72.3648 80.1814 72.8281C78.7574 73.4557 77.2068 73.2627 76.3197 71.8755C75.7163 70.9309 76.0467 68.6917 74.2618 69.0796C73.5642 69.2313 73.4322 70.0008 72.6798 69.9343C72.0037 69.8742 71.5646 69.3166 71.2459 68.7707C70.7144 67.8612 70.2969 66.8933 70.4351 65.8742C70.515 65.2834 70.2484 64.6774 69.6863 64.4215C68.8773 64.0533 68.3656 64.5229 67.8888 65.085C66.7539 66.421 65.3963 64.7106 65.2742 63.5119C65.1414 62.2073 66.4235 60.1387 64.4886 59.6431C64.1456 59.5551 63.8323 59.5928 63.501 59.7077C63.1975 59.8137 62.9021 60.1872 62.622 60.2437C62.1102 60.3479 61.6756 59.5739 61.4314 59.1017C61.2644 58.7784 61.1692 58.4749 60.8595 58.2523C60.4913 57.9874 60.4186 58.0727 60.3683 57.5915C60.2875 56.8175 60.0801 56.0669 59.9365 55.3037C61.0678 55.9098 61.7277 54.8395 62.2161 53.9991C62.8689 52.8759 63.4534 51.715 64.0074 50.5406C65.1288 48.163 66.1137 45.72 67.342 43.3936C67.6401 42.8298 67.9508 42.2731 68.2812 41.7272C68.5523 41.2774 68.9842 41.0403 69.2275 40.5968C69.4753 40.1452 69.584 39.7672 69.9224 39.338C70.3489 38.7957 70.8041 38.2749 71.2926 37.7883C72.0145 37.0709 72.9204 36.173 73.9062 35.8193C74.4315 35.6307 74.9388 35.6756 75.3392 36.0994C75.9318 36.7261 75.3778 37.1311 74.9909 37.7021C72.1159 41.9481 70.2681 46.7615 67.8224 51.2454C67.2145 52.3596 66.568 53.4541 65.8569 54.5064C65.3191 55.3019 64.1349 56.3201 64.5577 57.3742C64.9339 58.3106 66.0985 58.4489 66.7844 57.7899C67.6329 56.9746 68.2776 55.7589 68.8926 54.7641C71.5655 50.44 73.3747 45.6571 75.9336 41.2702C76.9114 39.593 78.3749 36.4613 80.7111 36.6094C81.8478 36.6812 82.7744 37.5117 82.9827 38.6323C83.0895 39.2069 82.8157 39.3856 82.4871 39.8085C82.0507 40.3696 81.661 40.9712 81.3226 41.597C80.0898 43.8785 80.106 46.4769 79.147 48.84C78.1747 51.2346 76.4975 53.3446 74.9953 55.4231C74.2663 56.4323 73.5291 57.4352 72.7839 58.4327C72.1644 59.2624 71.0241 60.4942 72.2299 61.4047C73.2813 62.1984 74.0813 61.1901 74.6622 60.4152C75.4371 59.3809 76.2066 58.3421 76.9653 57.2952C78.4772 55.2085 80.0925 53.1147 81.2247 50.7884C82.374 48.427 82.3542 45.7514 83.4334 43.3945C84.1706 41.7856 86.2132 38.6152 88.2495 40.3544C88.7389 40.7728 89.494 41.4129 89.6475 42.063C89.775 42.6017 89.3862 43.0201 89.1348 43.4574C88.7478 44.1299 88.3923 44.8212 88.0592 45.5215C86.9764 47.794 86.1396 50.1698 85.1412 52.4782C84.1158 54.8512 82.8651 57.1174 81.3971 59.2453C80.6294 60.3578 79.7989 61.4253 78.9244 62.4552C78.5536 62.8915 78.1756 63.3207 77.7859 63.7391C77.3002 64.2616 76.5899 64.7707 76.2146 65.3759C75.6634 66.2648 76.2568 67.4742 77.3316 67.4742C78.4745 67.4742 79.6014 65.7656 80.2936 64.9952C83.7405 61.1587 86.3254 56.7555 88.263 51.9906C89.2246 49.6248 90.1045 47.2095 91.3615 44.9783C91.5438 44.6542 92.2872 43.0453 92.7541 43.0982C92.9489 43.1207 93.2048 43.7348 93.2668 43.8506C93.6062 44.4863 93.854 45.1741 94.0084 45.878C94.1574 46.5604 94.2095 47.0021 93.9258 47.6351C93.7247 48.0849 93.546 48.5464 93.3592 49.0016C92.8295 50.2919 92.2953 51.5794 91.7431 52.8597C90.6818 55.3226 89.5568 57.762 88.2854 60.1243C87.7198 61.1757 87.1308 62.2154 86.5014 63.23C85.7777 64.3954 84.8628 65.4648 84.1706 66.6419C83.6417 67.5397 84.0682 68.7949 85.2489 68.7949C86.3694 68.7949 87.1146 67.1725 87.6543 66.3851C90.6387 62.0385 92.8502 57.2081 94.8829 52.3605C95.3291 51.2957 95.7619 50.2245 96.2055 49.1579C96.508 48.4306 97.027 46.9563 97.906 47.8344C98.6333 48.5599 99.1208 49.57 99.3489 50.5603C99.4701 51.0856 99.5724 51.7096 99.488 52.2483C99.4198 52.6847 99.1881 53.1067 99.0122 53.5233C98.0182 55.8801 96.9237 58.1939 95.691 60.4368C94.4771 62.6473 92.9561 64.6774 91.7296 66.8672C91.3049 67.625 91.5141 68.6019 92.4039 68.9018C93.7058 69.3408 94.337 67.801 94.9027 66.9373C96.3859 64.6693 97.774 62.3348 99.0104 59.9223C100.035 57.9237 100.925 55.873 101.813 53.8124C102.697 57.244 102.27 60.989 100.74 64.1755C100.385 64.9144 99.9693 65.6255 99.4952 66.2944C99.0481 66.9247 98.4052 67.4616 98.0003 68.1108C97.1895 69.4109 98.7778 70.8061 99.9836 69.8849C101.195 68.9583 102.15 67.3054 102.858 65.981C103.629 64.5364 104.202 62.9822 104.554 61.3831C105.29 58.053 105.077 54.5109 103.842 51.3235C105.088 54.5378 103.425 50.2515 103.842 51.3235ZM64.2462 43.5507C62.8536 46.4221 61.6954 49.4075 60.134 52.1953C60.626 49.6427 61.1468 47.0596 62.2152 44.6749C62.6579 43.6872 63.1921 42.7364 63.8457 41.8717C64.3108 41.2567 65.276 39.8228 66.164 40.015C65.4574 41.1562 64.8307 42.344 64.2462 43.5507C64.7822 42.4446 63.7218 44.6309 64.2462 43.5507Z" fill="#393A32"/>
<path d="M57.3019 166.072H59.7139V167.296C60.1779 166.368 60.9139 165.904 61.9219 165.904C62.6899 165.904 63.2899 166.18 63.7219 166.732C64.1619 167.276 64.3819 168.032 64.3819 169V172H61.8619V168.748C61.8619 168.404 61.7859 168.14 61.6339 167.956C61.4899 167.772 61.2859 167.68 61.0219 167.68C60.8299 167.68 60.6419 167.744 60.4579 167.872C60.2739 167.992 60.1219 168.168 60.0019 168.4C59.8899 168.632 59.8339 168.896 59.8339 169.192V172H57.3019V166.072ZM68.9362 172.096C68.2642 172.096 67.6642 171.964 67.1362 171.7C66.6162 171.436 66.2082 171.072 65.9122 170.608C65.6242 170.136 65.4802 169.596 65.4802 168.988C65.4802 168.38 65.6282 167.844 65.9242 167.38C66.2202 166.908 66.6282 166.544 67.1482 166.288C67.6762 166.032 68.2762 165.904 68.9482 165.904C69.6282 165.904 70.2282 166.036 70.7482 166.3C71.2762 166.556 71.6842 166.916 71.9722 167.38C72.2602 167.844 72.4042 168.38 72.4042 168.988C72.4042 169.604 72.2562 170.148 71.9602 170.62C71.6722 171.084 71.2642 171.448 70.7362 171.712C70.2162 171.968 69.6162 172.096 68.9362 172.096ZM68.9602 170.296C69.2882 170.296 69.5562 170.176 69.7642 169.936C69.9802 169.688 70.0882 169.372 70.0882 168.988C70.0882 168.604 69.9802 168.292 69.7642 168.052C69.5562 167.804 69.2882 167.68 68.9602 167.68C68.6322 167.68 68.3602 167.804 68.1442 168.052C67.9362 168.292 67.8322 168.604 67.8322 168.988C67.8322 169.372 67.9362 169.688 68.1442 169.936C68.3602 170.176 68.6322 170.296 68.9602 170.296ZM76.5076 172.096C75.8676 172.096 75.2996 171.968 74.8036 171.712C74.3156 171.448 73.9316 171.08 73.6516 170.608C73.3796 170.136 73.2436 169.6 73.2436 169C73.2436 168.424 73.3876 167.9 73.6756 167.428C73.9636 166.956 74.3556 166.584 74.8516 166.312C75.3476 166.04 75.8996 165.904 76.5076 165.904C77.2836 165.904 77.8956 166.064 78.3436 166.384L78.1156 167.98C77.6596 167.844 77.2836 167.776 76.9876 167.776C76.6036 167.776 76.2996 167.888 76.0756 168.112C75.8516 168.328 75.7396 168.624 75.7396 169C75.7396 169.376 75.8516 169.676 76.0756 169.9C76.2996 170.124 76.5956 170.236 76.9636 170.236C77.2836 170.236 77.6596 170.168 78.0916 170.032L78.3196 171.712C78.0476 171.848 77.7716 171.944 77.4916 172C77.2116 172.064 76.8836 172.096 76.5076 172.096ZM82.3374 172.096C81.6974 172.096 81.1294 171.968 80.6334 171.712C80.1454 171.448 79.7614 171.08 79.4814 170.608C79.2094 170.136 79.0734 169.6 79.0734 169C79.0734 168.424 79.2174 167.9 79.5054 167.428C79.7934 166.956 80.1854 166.584 80.6814 166.312C81.1774 166.04 81.7294 165.904 82.3374 165.904C83.1134 165.904 83.7254 166.064 84.1734 166.384L83.9454 167.98C83.4894 167.844 83.1134 167.776 82.8174 167.776C82.4334 167.776 82.1294 167.888 81.9054 168.112C81.6814 168.328 81.5694 168.624 81.5694 169C81.5694 169.376 81.6814 169.676 81.9054 169.9C82.1294 170.124 82.4254 170.236 82.7934 170.236C83.1134 170.236 83.4894 170.168 83.9214 170.032L84.1494 171.712C83.8774 171.848 83.6014 171.944 83.3214 172C83.0414 172.064 82.7134 172.096 82.3374 172.096ZM85.2736 164.092L87.8056 163.72V167.224C87.9816 166.8 88.2456 166.476 88.5976 166.252C88.9576 166.02 89.3896 165.904 89.8936 165.904C90.6616 165.904 91.2616 166.18 91.6936 166.732C92.1336 167.276 92.3536 168.032 92.3536 169V172H89.8336V168.748C89.8336 168.404 89.7576 168.14 89.6056 167.956C89.4616 167.772 89.2576 167.68 88.9936 167.68C88.8016 167.68 88.6136 167.744 88.4296 167.872C88.2456 167.992 88.0936 168.168 87.9736 168.4C87.8616 168.632 87.8056 168.896 87.8056 169.192V172H85.2736V164.092ZM95.8639 172.096C95.1919 172.096 94.6679 171.88 94.2919 171.448C93.9159 171.016 93.7279 170.428 93.7279 169.684V165.988H96.2719V169.576C96.2719 169.76 96.3199 169.904 96.4159 170.008C96.5199 170.104 96.6519 170.152 96.8119 170.152C96.9719 170.152 97.1359 170.104 97.3039 170.008L97.4359 171.676C97.2599 171.812 97.0279 171.916 96.7399 171.988C96.4599 172.06 96.1679 172.096 95.8639 172.096ZM94.9999 165.088C94.6239 165.088 94.3039 164.972 94.0399 164.74C93.7839 164.5 93.6559 164.208 93.6559 163.864C93.6559 163.52 93.7919 163.232 94.0639 163C94.3359 162.768 94.6479 162.652 94.9999 162.652C95.3679 162.652 95.6839 162.772 95.9479 163.012C96.2199 163.252 96.3559 163.536 96.3559 163.864C96.3559 164.216 96.2199 164.508 95.9479 164.74C95.6759 164.972 95.3599 165.088 94.9999 165.088ZM101.531 172.096C100.859 172.096 100.259 171.964 99.7307 171.7C99.2107 171.436 98.8027 171.072 98.5067 170.608C98.2187 170.136 98.0747 169.596 98.0747 168.988C98.0747 168.38 98.2227 167.844 98.5187 167.38C98.8147 166.908 99.2227 166.544 99.7427 166.288C100.271 166.032 100.871 165.904 101.543 165.904C102.223 165.904 102.823 166.036 103.343 166.3C103.871 166.556 104.279 166.916 104.567 167.38C104.855 167.844 104.999 168.38 104.999 168.988C104.999 169.604 104.851 170.148 104.555 170.62C104.267 171.084 103.859 171.448 103.331 171.712C102.811 171.968 102.211 172.096 101.531 172.096ZM101.555 170.296C101.883 170.296 102.151 170.176 102.359 169.936C102.575 169.688 102.683 169.372 102.683 168.988C102.683 168.604 102.575 168.292 102.359 168.052C102.151 167.804 101.883 167.68 101.555 167.68C101.227 167.68 100.955 167.804 100.739 168.052C100.531 168.292 100.427 168.604 100.427 168.988C100.427 169.372 100.531 169.688 100.739 169.936C100.955 170.176 101.227 170.296 101.555 170.296Z" fill="#2179B9"/>
<path d="M33.2905 187.672C33.2905 186.752 33.3425 186.092 33.4465 185.692C33.5585 185.284 33.7785 185.004 34.1065 184.852C34.4425 184.7 34.9905 184.624 35.7505 184.624V186.028C35.3425 186.028 35.0745 186.036 34.9465 186.052C34.8185 186.068 34.7345 186.116 34.6945 186.196C34.6545 186.276 34.6345 186.428 34.6345 186.652H35.7505V188.896H33.2905V187.672ZM36.4105 187.672C36.4105 186.752 36.4625 186.092 36.5665 185.692C36.6785 185.284 36.8985 185.004 37.2265 184.852C37.5625 184.7 38.1105 184.624 38.8705 184.624V186.028C38.4625 186.028 38.1945 186.036 38.0665 186.052C37.9385 186.068 37.8545 186.116 37.8145 186.196C37.7745 186.276 37.7545 186.428 37.7545 186.652H38.8705V188.896H36.4105V187.672ZM46.1628 193.096C45.6268 193.096 45.1948 193.028 44.8668 192.892C44.5468 192.748 44.2828 192.512 44.0748 192.184C43.8668 191.856 43.6828 191.388 43.5228 190.78L42.8148 191.344V193H40.2708L40.2828 185.092L42.8268 184.72L42.8148 188.824L45.8988 186.304L47.2788 188.188L45.3468 189.532C45.4428 190.14 45.5788 190.564 45.7548 190.804C45.9388 191.044 46.2068 191.164 46.5588 191.164C46.7028 191.164 46.8748 191.14 47.0748 191.092L46.8348 193.06C46.5948 193.084 46.3708 193.096 46.1628 193.096ZM48.186 187.072H50.598V188.296C51.062 187.368 51.798 186.904 52.806 186.904C53.574 186.904 54.174 187.18 54.606 187.732C55.046 188.276 55.266 189.032 55.266 190V193H52.746V189.748C52.746 189.404 52.67 189.14 52.518 188.956C52.374 188.772 52.17 188.68 51.906 188.68C51.714 188.68 51.526 188.744 51.342 188.872C51.158 188.992 51.006 189.168 50.886 189.4C50.774 189.632 50.718 189.896 50.718 190.192V193H48.186V187.072ZM59.8203 193.096C59.1483 193.096 58.5483 192.964 58.0203 192.7C57.5003 192.436 57.0923 192.072 56.7963 191.608C56.5083 191.136 56.3643 190.596 56.3643 189.988C56.3643 189.38 56.5123 188.844 56.8083 188.38C57.1043 187.908 57.5123 187.544 58.0323 187.288C58.5603 187.032 59.1603 186.904 59.8323 186.904C60.5123 186.904 61.1123 187.036 61.6323 187.3C62.1603 187.556 62.5683 187.916 62.8563 188.38C63.1443 188.844 63.2883 189.38 63.2883 189.988C63.2883 190.604 63.1403 191.148 62.8443 191.62C62.5563 192.084 62.1483 192.448 61.6203 192.712C61.1003 192.968 60.5003 193.096 59.8203 193.096ZM59.8443 191.296C60.1723 191.296 60.4403 191.176 60.6483 190.936C60.8643 190.688 60.9723 190.372 60.9723 189.988C60.9723 189.604 60.8643 189.292 60.6483 189.052C60.4403 188.804 60.1723 188.68 59.8443 188.68C59.5163 188.68 59.2443 188.804 59.0283 189.052C58.8203 189.292 58.7163 189.604 58.7163 189.988C58.7163 190.372 58.8203 190.688 59.0283 190.936C59.2443 191.176 59.5163 191.296 59.8443 191.296ZM67.0089 193.096C66.3049 193.096 65.7569 192.896 65.3649 192.496C64.9729 192.088 64.7769 191.528 64.7769 190.816V188.476H64.0089V186.988H64.9569L66.0729 184.72H67.2849V186.988H68.6769V188.476H67.2849V190.516C67.2849 190.716 67.3489 190.872 67.4769 190.984C67.6049 191.096 67.7849 191.152 68.0169 191.152C68.2329 191.152 68.4289 191.104 68.6049 191.008L68.7009 192.688C68.5009 192.808 68.2409 192.908 67.9209 192.988C67.6089 193.06 67.3049 193.096 67.0089 193.096ZM74.426 193.096C73.754 193.096 73.23 192.88 72.854 192.448C72.478 192.016 72.29 191.428 72.29 190.684V186.988H74.834V190.576C74.834 190.76 74.882 190.904 74.978 191.008C75.082 191.104 75.214 191.152 75.374 191.152C75.534 191.152 75.698 191.104 75.866 191.008L75.998 192.676C75.822 192.812 75.59 192.916 75.302 192.988C75.022 193.06 74.73 193.096 74.426 193.096ZM73.562 186.088C73.186 186.088 72.866 185.972 72.602 185.74C72.346 185.5 72.218 185.208 72.218 184.864C72.218 184.52 72.354 184.232 72.626 184C72.898 183.768 73.21 183.652 73.562 183.652C73.93 183.652 74.246 183.772 74.51 184.012C74.782 184.252 74.918 184.536 74.918 184.864C74.918 185.216 74.782 185.508 74.51 185.74C74.238 185.972 73.922 186.088 73.562 186.088ZM76.9368 187.072H79.3488V188.296C79.8128 187.368 80.5488 186.904 81.5568 186.904C82.3248 186.904 82.9248 187.18 83.3568 187.732C83.7968 188.276 84.0168 189.032 84.0168 190V193H81.4968V189.748C81.4968 189.404 81.4208 189.14 81.2688 188.956C81.1248 188.772 80.9208 188.68 80.6568 188.68C80.4648 188.68 80.2768 188.744 80.0928 188.872C79.9088 188.992 79.7568 189.168 79.6368 189.4C79.5248 189.632 79.4688 189.896 79.4688 190.192V193H76.9368V187.072ZM87.5334 186.988H89.9814L90.6654 190.888L91.4934 186.988H93.5574L94.3974 190.984L95.0814 186.988H97.0494L95.8014 193H92.9334L92.2614 189.82L91.6254 193H88.8534L87.5334 186.988ZM101.215 193.096C100.543 193.096 99.9431 192.964 99.4151 192.7C98.8951 192.436 98.4871 192.072 98.1911 191.608C97.9031 191.136 97.7591 190.596 97.7591 189.988C97.7591 189.38 97.9071 188.844 98.2031 188.38C98.4991 187.908 98.9071 187.544 99.4271 187.288C99.9551 187.032 100.555 186.904 101.227 186.904C101.907 186.904 102.507 187.036 103.027 187.3C103.555 187.556 103.963 187.916 104.251 188.38C104.539 188.844 104.683 189.38 104.683 189.988C104.683 190.604 104.535 191.148 104.239 191.62C103.951 192.084 103.543 192.448 103.015 192.712C102.495 192.968 101.895 193.096 101.215 193.096ZM101.239 191.296C101.567 191.296 101.835 191.176 102.043 190.936C102.259 190.688 102.367 190.372 102.367 189.988C102.367 189.604 102.259 189.292 102.043 189.052C101.835 188.804 101.567 188.68 101.239 188.68C100.911 188.68 100.639 188.804 100.423 189.052C100.215 189.292 100.111 189.604 100.111 189.988C100.111 190.372 100.215 190.688 100.423 190.936C100.639 191.176 100.911 191.296 101.239 191.296ZM108.979 193.096C108.307 193.096 107.707 192.964 107.179 192.7C106.659 192.436 106.251 192.072 105.955 191.608C105.667 191.136 105.523 190.596 105.523 189.988C105.523 189.38 105.671 188.844 105.967 188.38C106.263 187.908 106.671 187.544 107.191 187.288C107.719 187.032 108.319 186.904 108.991 186.904C109.671 186.904 110.271 187.036 110.791 187.3C111.319 187.556 111.727 187.916 112.015 188.38C112.303 188.844 112.447 189.38 112.447 189.988C112.447 190.604 112.299 191.148 112.003 191.62C111.715 192.084 111.307 192.448 110.779 192.712C110.259 192.968 109.659 193.096 108.979 193.096ZM109.003 191.296C109.331 191.296 109.599 191.176 109.807 190.936C110.023 190.688 110.131 190.372 110.131 189.988C110.131 189.604 110.023 189.292 109.807 189.052C109.599 188.804 109.331 188.68 109.003 188.68C108.675 188.68 108.403 188.804 108.187 189.052C107.979 189.292 107.875 189.604 107.875 189.988C107.875 190.372 107.979 190.688 108.187 190.936C108.403 191.176 108.675 191.296 109.003 191.296ZM116.214 193.096C115.67 193.096 115.174 192.952 114.726 192.664C114.286 192.376 113.938 191.996 113.682 191.524C113.426 191.044 113.298 190.536 113.298 190C113.298 189.432 113.43 188.912 113.694 188.44C113.966 187.96 114.326 187.584 114.774 187.312C115.23 187.04 115.714 186.904 116.226 186.904C116.69 186.904 117.082 187 117.402 187.192C117.73 187.384 117.994 187.692 118.194 188.116V185.092L120.726 184.72V193H118.194V191.884C117.818 192.692 117.158 193.096 116.214 193.096ZM117.006 191.2C117.342 191.2 117.622 191.08 117.846 190.84C118.078 190.6 118.194 190.32 118.194 190V189.952C118.194 189.64 118.074 189.372 117.834 189.148C117.594 188.916 117.318 188.8 117.006 188.8C116.67 188.8 116.386 188.92 116.154 189.16C115.93 189.392 115.818 189.672 115.818 190C115.818 190.336 115.934 190.62 116.166 190.852C116.406 191.084 116.686 191.2 117.006 191.2ZM122.133 187.612C122.541 187.612 122.809 187.604 122.937 187.588C123.065 187.572 123.149 187.524 123.189 187.444C123.229 187.364 123.249 187.212 123.249 186.988H122.133V184.744H124.593V185.968C124.593 186.888 124.537 187.552 124.425 187.96C124.321 188.36 124.101 188.636 123.765 188.788C123.437 188.94 122.893 189.016 122.133 189.016V187.612ZM125.253 187.612C125.661 187.612 125.929 187.604 126.057 187.588C126.185 187.572 126.269 187.524 126.309 187.444C126.349 187.364 126.369 187.212 126.369 186.988H125.253V184.744H127.713V185.968C127.713 186.888 127.657 187.552 127.545 187.96C127.441 188.36 127.221 188.636 126.885 188.788C126.557 188.94 126.013 189.016 125.253 189.016V187.612Z" fill="#393A32"/>
<path d="M47.2874 134.288C46.0754 134.288 44.9834 134 44.0114 133.424C43.0394 132.836 42.2774 132.038 41.7254 131.03C41.1734 130.022 40.8974 128.912 40.8974 127.7C40.8974 126.536 41.1734 125.468 41.7254 124.496C42.2894 123.524 43.0694 122.756 44.0654 122.192C45.0614 121.628 46.1954 121.346 47.4674 121.346C48.1634 121.346 48.8354 121.424 49.4834 121.58C50.1434 121.736 50.7374 121.958 51.2654 122.246L50.0774 125.036C49.2614 124.7 48.4994 124.532 47.7914 124.532C46.8674 124.532 46.1534 124.832 45.6494 125.432C45.1454 126.02 44.8934 126.794 44.8934 127.754C44.8934 128.378 45.0074 128.942 45.2354 129.446C45.4634 129.938 45.7814 130.328 46.1894 130.616C46.6094 130.904 47.0834 131.048 47.6114 131.048C47.8994 131.048 48.1394 131.024 48.3314 130.976V128.078L51.4454 127.718V133.352C50.0894 133.976 48.7034 134.288 47.2874 134.288ZM54.2026 125.108H57.8206V126.944C58.5166 125.552 59.6206 124.856 61.1326 124.856C62.2846 124.856 63.1846 125.27 63.8326 126.098C64.4926 126.914 64.8226 128.048 64.8226 129.5V134H61.0426V129.122C61.0426 128.606 60.9286 128.21 60.7006 127.934C60.4846 127.658 60.1786 127.52 59.7826 127.52C59.4946 127.52 59.2126 127.616 58.9366 127.808C58.6606 127.988 58.4326 128.252 58.2526 128.6C58.0846 128.948 58.0006 129.344 58.0006 129.788V134H54.2026V125.108ZM72.374 134.144C71.366 134.144 70.466 133.946 69.674 133.55C68.894 133.154 68.282 132.608 67.838 131.912C67.406 131.204 67.19 130.394 67.19 129.482C67.19 128.57 67.412 127.766 67.856 127.07C68.3 126.362 68.912 125.816 69.692 125.432C70.484 125.048 71.384 124.856 72.392 124.856C73.412 124.856 74.312 125.054 75.092 125.45C75.884 125.834 76.496 126.374 76.928 127.07C77.36 127.766 77.576 128.57 77.576 129.482C77.576 130.406 77.354 131.222 76.91 131.93C76.478 132.626 75.866 133.172 75.074 133.568C74.294 133.952 73.394 134.144 72.374 134.144ZM72.41 131.444C72.902 131.444 73.304 131.264 73.616 130.904C73.94 130.532 74.102 130.058 74.102 129.482C74.102 128.906 73.94 128.438 73.616 128.078C73.304 127.706 72.902 127.52 72.41 127.52C71.918 127.52 71.51 127.706 71.186 128.078C70.874 128.438 70.718 128.906 70.718 129.482C70.718 130.058 70.874 130.532 71.186 130.904C71.51 131.264 71.918 131.444 72.41 131.444ZM84.4512 134.144C83.4912 134.144 82.6392 133.952 81.8952 133.568C81.1632 133.172 80.5872 132.62 80.1672 131.912C79.7592 131.204 79.5552 130.4 79.5552 129.5C79.5552 128.636 79.7712 127.85 80.2032 127.142C80.6352 126.434 81.2232 125.876 81.9672 125.468C82.7112 125.06 83.5392 124.856 84.4512 124.856C85.6152 124.856 86.5332 125.096 87.2052 125.576L86.8632 127.97C86.1792 127.766 85.6152 127.664 85.1712 127.664C84.5952 127.664 84.1392 127.832 83.8032 128.168C83.4672 128.492 83.2992 128.936 83.2992 129.5C83.2992 130.064 83.4672 130.514 83.8032 130.85C84.1392 131.186 84.5832 131.354 85.1352 131.354C85.6152 131.354 86.1792 131.252 86.8272 131.048L87.1692 133.568C86.7612 133.772 86.3472 133.916 85.9272 134C85.5072 134.096 85.0152 134.144 84.4512 134.144ZM93.916 134.144C92.956 134.144 92.104 133.952 91.36 133.568C90.628 133.172 90.052 132.62 89.632 131.912C89.224 131.204 89.02 130.4 89.02 129.5C89.02 128.636 89.236 127.85 89.668 127.142C90.1 126.434 90.688 125.876 91.432 125.468C92.176 125.06 93.004 124.856 93.916 124.856C95.08 124.856 95.998 125.096 96.67 125.576L96.328 127.97C95.644 127.766 95.08 127.664 94.636 127.664C94.06 127.664 93.604 127.832 93.268 128.168C92.932 128.492 92.764 128.936 92.764 129.5C92.764 130.064 92.932 130.514 93.268 130.85C93.604 131.186 94.048 131.354 94.6 131.354C95.08 131.354 95.644 131.252 96.292 131.048L96.634 133.568C96.226 133.772 95.812 133.916 95.392 134C94.972 134.096 94.48 134.144 93.916 134.144ZM99.0402 122.138L102.838 121.58V126.836C103.102 126.2 103.498 125.714 104.026 125.378C104.566 125.03 105.214 124.856 105.97 124.856C107.122 124.856 108.022 125.27 108.67 126.098C109.33 126.914 109.66 128.048 109.66 129.5V134H105.88V129.122C105.88 128.606 105.766 128.21 105.538 127.934C105.322 127.658 105.016 127.52 104.62 127.52C104.332 127.52 104.05 127.616 103.774 127.808C103.498 127.988 103.27 128.252 103.09 128.6C102.922 128.948 102.838 129.344 102.838 129.788V134H99.0402V122.138ZM115.646 134.144C114.638 134.144 113.852 133.82 113.288 133.172C112.724 132.524 112.442 131.642 112.442 130.526V124.982H116.258V130.364C116.258 130.64 116.33 130.856 116.474 131.012C116.63 131.156 116.828 131.228 117.068 131.228C117.308 131.228 117.554 131.156 117.806 131.012L118.004 133.514C117.74 133.718 117.392 133.874 116.96 133.982C116.54 134.09 116.102 134.144 115.646 134.144ZM114.35 123.632C113.786 123.632 113.306 123.458 112.91 123.11C112.526 122.75 112.334 122.312 112.334 121.796C112.334 121.28 112.538 120.848 112.946 120.5C113.354 120.152 113.822 119.978 114.35 119.978C114.902 119.978 115.376 120.158 115.772 120.518C116.18 120.878 116.384 121.304 116.384 121.796C116.384 122.324 116.18 122.762 115.772 123.11C115.364 123.458 114.89 123.632 114.35 123.632Z" fill="#393A32"/>
<rect x="46" y="145.901" width="65.45" height="0.897773" fill="#082D74"/>
<rect x="57.7809" y="145" width="13.9627" height="3.1422" fill="#3F8D43"/>
<rect x="71.7455" y="145" width="13.9627" height="3.1422" fill="white"/>
<rect x="85.7046" y="145" width="13.9627" height="3.1422" fill="#D12C29"/>
<rect width="158" height="224" rx="5" fill="#FFD300"/>
<mask id="path-19-inside-2" fill="white">
<rect x="9" y="9" width="140" height="207" rx="2"/>
</mask>
<rect x="9" y="9" width="140" height="207" rx="2" fill="white" stroke="#2179B9" stroke-width="14" mask="url(#path-19-inside-2)"/>
<path d="M71.8636 94.5066C71.1327 94.521 70.0732 94.5757 69.4241 94.196C68.9967 93.9464 68.8522 93.6626 68.2865 93.6994C67.8026 93.7309 67.3797 94.0155 67.1669 94.4518C66.7179 95.3748 67.7478 95.9647 67.3904 96.8536C66.9909 97.8484 65.6181 97.8655 64.7714 97.553C63.8044 97.1957 63.0116 95.8749 61.9342 96.0051C61.0219 96.1156 60.5281 96.9802 60.5622 97.8296C60.5847 98.3943 60.8442 98.5218 60.4006 98.8334C59.8933 99.1898 59.1499 98.9717 58.595 99.0561C58.2879 99.1028 58.0581 99.3838 57.8085 99.435C57.5355 99.4906 57.2249 99.3245 56.9035 99.224C56.2965 99.0327 55.6716 98.9079 55.0584 98.7391C56.2049 97.9104 55.2729 96.683 54.7019 95.8462C53.9396 94.7302 53.1127 93.6608 52.2624 92.6112C50.5125 90.451 48.6485 88.3742 47.0683 86.0811C46.7047 85.5541 46.368 85.0504 46.1597 84.4695C45.9442 83.8652 45.4997 83.5465 45.2178 82.9799C44.6333 81.8028 44.1592 80.5656 43.8809 79.2789C43.6771 78.3398 43.3584 76.8601 44.5552 76.4686C45.2053 76.2558 45.3462 76.5432 45.6335 77.0666C45.972 77.6834 46.3375 78.2859 46.7137 78.8803C49.6721 83.5447 53.567 87.5383 56.4536 92.2512C56.784 92.7908 57.1001 93.3394 57.3982 93.897C57.699 94.4599 57.9108 95.1603 58.5591 95.409C59.6724 95.8354 60.6403 94.7257 60.2938 93.6716C59.879 92.4119 58.9703 91.1693 58.2565 90.0631C57.5337 88.9426 56.7589 87.8571 55.9598 86.7904C54.2979 84.5709 52.5264 82.434 50.8869 80.1974C50.0294 79.0275 49.207 77.8307 48.4636 76.5836C47.8198 75.5043 46.9794 74.2159 47.0719 72.9023C47.15 71.7854 48.0254 70.8103 49.1325 70.6415C49.5554 70.5769 50.3742 70.5796 50.7118 70.9037C51.044 71.2216 51.2586 72.0844 51.5037 72.5019C52.855 74.8076 54.9075 76.0601 56.8469 77.7903C58.7593 79.4971 59.9472 81.8711 61.153 84.0915C61.8219 85.3233 62.4774 86.5633 63.1211 87.8086C63.588 88.7127 64.0657 90.5336 65.3317 90.521C65.909 90.5147 66.4261 90.1385 66.6057 89.5926C66.8068 88.9812 66.4872 88.4748 66.2169 87.9424C65.5831 86.697 64.9393 85.4562 64.2821 84.2225C63.0412 81.8917 61.8399 79.4486 60.1681 77.388C58.5214 75.358 56.0541 74.2033 54.4855 72.1311C53.2842 70.5446 51.7408 67.6238 54.3437 66.6272C55.0036 66.3749 56.0765 65.8955 56.7086 66.4557C57.1324 66.8319 57.4431 67.5861 57.7816 68.053C58.1865 68.6115 58.613 69.1547 59.0502 69.688C60.7822 71.7971 62.7225 73.7266 64.432 75.8554C65.3128 76.9526 66.1263 78.1036 66.8822 79.2897C66.9936 78.4053 67.2827 77.555 67.9265 76.9158C67.9839 76.8583 68.3152 76.6437 68.3224 76.5782C68.3341 76.4758 68.0019 76.1212 67.9381 76.0314C67.6463 75.622 67.3482 75.2179 67.0421 74.8193C65.812 73.2157 64.4392 71.7324 63.0879 70.2321C61.8587 68.8674 60.6394 67.4838 59.5979 65.9682C59.3196 65.5624 58.4379 64.5918 58.5358 64.0557C58.6112 63.6427 59.334 63.7648 59.7506 63.7684C59.1355 63.5287 58.6184 63.1139 58.1811 62.6264C57.9917 62.4154 57.8166 62.1882 57.6585 61.953C57.365 61.5157 57.3443 61.4062 56.8837 61.7518C56.4339 62.0894 56.1205 62.5509 55.958 63.087C55.7973 63.6176 55.7443 63.4982 55.2307 63.5772C54.8581 63.6346 54.4909 63.7334 54.1327 63.8474C53.0023 64.2084 51.8494 64.6681 51.1078 65.6405C50.745 66.1154 50.4945 66.6721 50.35 67.2512C50.3213 67.3679 50.3186 67.5673 50.262 67.6705C50.0716 68.0207 50.4829 67.8528 49.9334 67.9264C49.603 67.9704 49.2483 67.9094 48.9116 67.9498C46.2926 68.2613 44.2832 70.6074 44.3819 73.2435C44.4026 73.7939 44.434 73.7149 43.9078 73.8604C43.6555 73.9304 43.4068 74.0247 43.1716 74.1405C42.5826 74.4314 42.0627 74.8633 41.6883 75.4047C40.9 76.5441 40.9036 77.9654 41.1353 79.278C41.3903 80.7245 41.8625 82.1278 42.4659 83.4638C42.5117 83.5653 42.7388 83.9487 42.7254 84.0169C42.7119 84.087 42.4632 84.1992 42.4156 84.2638C42.2351 84.5072 41.9766 84.6912 41.7979 84.9462C41.4441 85.4526 41.2206 86.0524 41.1828 86.671C41.0176 89.3439 43.1465 92.2835 44.812 94.1753C46.7316 96.3553 49.0768 98.142 51.4095 99.8561C52.6207 100.746 53.8489 101.222 55.2999 101.577C55.9077 101.726 56.4913 102.033 57.0938 102.162C57.3901 102.225 57.6918 102.192 57.9629 102.06C58.3319 101.882 58.3427 101.762 58.7539 101.743C60.2148 101.676 61.7923 101.562 62.8194 100.357C62.8877 100.277 62.9469 100.152 63.0233 100.084C63.3303 99.8067 62.9263 99.7914 63.4955 99.9405C63.8628 100.037 64.2048 100.214 64.5801 100.3C65.3361 100.472 66.1236 100.485 66.8805 100.31C68.2874 99.9862 69.5103 99.03 69.9763 97.6365C70.128 97.184 69.9853 97.1751 70.4315 97.1373C70.8239 97.1041 71.2611 97.2029 71.6571 97.2047C72.484 97.2092 73.3199 97.1113 74.093 96.8033C73.2184 96.147 72.4606 95.4305 71.8636 94.5066C72.0916 94.8604 71.4012 94.5156 71.8636 94.5066ZM47.4382 93.0512C46.4739 92.0537 45.6012 90.9511 44.9287 89.7354C44.5274 89.009 43.4383 87.2088 44.0578 86.4178C46.4775 90.2678 49.7673 93.4606 52.3477 97.1921C50.6382 95.9028 48.9296 94.5937 47.4382 93.0512C48.9206 94.5847 45.7449 91.2977 47.4382 93.0512Z" fill="#393A32"/>
<path d="M88.3268 77.7867C89.2264 80.4704 89.3216 83.436 89.5497 86.2364C89.6673 87.682 89.5865 89.2721 89.8765 90.6898C90.0866 91.7179 91.3256 92.2359 92.1337 91.4647C92.9804 90.6566 92.4381 88.6912 92.3627 87.6658C92.2513 86.1538 92.1247 84.6418 91.9793 83.1325C91.841 81.6996 91.6991 80.2612 91.4073 78.8498C91.3463 78.5526 91.3184 77.9654 91.1353 77.7203C90.9404 77.459 90.5723 77.5155 90.2105 77.4311C90.0345 77.3898 89.5551 77.1519 89.3881 77.1609C89.1366 77.1735 88.5773 77.6637 88.3268 77.7867C88.6832 77.6125 88.7569 79.0688 88.3268 77.7867Z" fill="#393A32"/>
<path d="M100.311 71.9707C101.381 75.3332 102.358 78.7342 103.01 82.2045C103.329 83.9014 103.564 85.6127 103.707 87.333C103.757 87.9463 103.743 88.5757 104.269 88.9905C104.726 89.3505 105.38 89.3739 105.86 89.0471C106.979 88.2857 106.292 85.9315 106.153 84.8352C105.938 83.1481 105.636 81.4727 105.27 79.8126C104.528 76.4393 103.526 73.1307 102.457 69.8481C101.947 70.5413 101.209 71.7732 100.311 71.9707C100.56 71.9159 101.556 75.8862 100.311 71.9707Z" fill="#393A32"/>
<path d="M95.1998 76.4781C96.2 79.6484 96.8178 82.9148 96.9991 86.2369C97.0853 87.8109 97.0781 89.3902 96.974 90.9632C96.9273 91.6743 96.7145 92.468 97.2748 93.0373C97.6339 93.4027 98.1897 93.5329 98.6745 93.3659C100.038 92.8945 99.7089 90.622 99.7403 89.5123C99.7852 87.9401 99.7412 86.3653 99.6065 84.7985C99.3156 81.401 98.5758 78.0826 97.5118 74.8467C96.8241 75.4689 95.9989 76.0094 95.1998 76.4781C96.0187 75.9986 95.3174 76.8489 95.1998 76.4781Z" fill="#393A32"/>
<path d="M108.694 63.5891C108.164 63.3063 107.542 63.1608 106.953 63.3278C106.764 63.3817 106.526 63.5999 106.357 63.6205C106.095 63.6529 105.733 63.3341 105.454 63.1797C105.311 63.8333 105.128 64.478 104.913 65.111C104.803 65.4315 104.634 65.6802 104.775 65.9289C104.937 66.2118 105.463 66.4991 105.7 66.7648C106.412 67.5648 106.639 68.9107 106.947 69.9298C107.834 72.8658 108.533 75.8583 109.041 78.8832C109.284 80.3333 109.357 81.8318 109.642 83.2702C109.844 84.2919 111.008 84.8899 111.866 84.1375C112.795 83.3231 112.135 81.3425 111.988 80.3045C111.773 78.7979 111.513 77.2985 111.208 75.8081C110.582 72.7491 109.712 69.7745 108.783 66.7972C110.938 68.3011 112.658 70.4075 113.777 72.7796C114.338 73.9675 114.751 75.2272 114.989 76.5192C115.103 77.1405 115.178 77.7681 115.209 78.3984C115.239 79.0134 115.077 79.7685 115.256 80.3575C115.629 81.5849 117.401 81.5984 117.815 80.3997C118.191 79.3133 117.903 77.7043 117.741 76.5946C117.372 74.0635 116.437 71.6214 115.047 69.4764C113.458 67.0279 111.271 64.9664 108.694 63.5891C114.602 66.7478 107.679 63.0477 108.694 63.5891Z" fill="#393A32"/>
<path d="M72.5675 74.0142C72.5191 74.5834 72.4804 75.1535 72.4643 75.7246C72.458 75.9598 72.5262 76.3477 72.4589 76.5695C72.3413 76.9573 72.3808 76.8236 71.9543 76.978C70.7637 77.4117 69.9611 78.3706 69.6764 79.5961C69.0982 82.0922 69.6576 84.9061 70.4728 87.28C71.3662 89.8838 72.7336 92.3089 74.1172 94.6784C74.77 95.7962 75.5143 96.7174 76.5406 97.5138C76.9931 97.8649 77.4761 98.1845 77.8981 98.5733C78.3273 98.9692 78.6559 99.4424 79.3042 99.4334C79.6534 99.428 79.7746 99.3203 80.0772 99.3823C80.3502 99.4388 80.6644 99.6669 80.9338 99.7629C81.5201 99.9712 82.1459 100.098 82.769 100.112C83.3302 100.125 83.8976 100.046 84.4103 99.8078C84.5126 99.7603 84.9625 99.4002 85.0442 99.4065C85.1824 99.4173 85.6861 100.072 85.8235 100.187C87.6156 101.683 90.4726 101.956 92.131 100.1C92.1507 100.078 92.4731 99.675 92.4793 99.6741C92.6041 99.648 93.1447 100.032 93.2695 100.094C93.8073 100.363 94.3622 100.604 94.944 100.761C96.1893 101.097 97.4993 101.023 98.6027 100.312C98.8371 100.162 99.0571 99.9874 99.2555 99.7908C99.5841 99.4649 99.4512 99.4478 99.8615 99.4864C100.363 99.5331 100.881 99.833 101.403 99.8967C102.551 100.036 103.744 99.8303 104.756 99.2628C105.755 98.7017 106.516 97.8047 107.046 96.8009C107.158 96.5908 107.244 96.2317 107.395 96.0539C107.661 95.7378 107.553 95.8429 108.011 95.8806C108.666 95.9345 109.332 95.8258 109.935 95.5646C110.905 95.1435 111.65 94.3435 112.134 93.4169C112.336 93.0299 112.442 92.1096 112.715 91.8295C112.829 91.7127 113.265 91.631 113.423 91.5556C113.735 91.4066 114.032 91.2243 114.31 91.0178C116.149 89.6477 117.121 87.104 117.361 84.88C117.467 83.8942 116.646 82.9811 115.607 83.3339C114.454 83.7263 114.527 85.4699 114.216 86.4387C113.884 87.4731 113.349 88.5487 112.344 89.0766C111.918 89.3011 111.461 89.249 111.032 89.4295C110.454 89.6728 110.293 90.1621 110.188 90.7269C110.023 91.6149 109.722 92.8135 108.742 93.1278C107.649 93.4788 107.091 91.9471 105.938 92.7192C105.145 93.2508 105.112 94.6703 104.693 95.4829C104.185 96.466 103.383 97.1906 102.238 97.2453C101.295 97.2902 100.606 96.9078 99.945 96.2963C99.0229 95.4442 97.6537 95.8258 97.5513 97.1619C97.431 98.7349 95.673 98.2599 94.6504 97.7751C94.1772 97.5506 93.4454 97.2813 93.0962 96.8691C92.8977 96.6357 92.8502 96.3349 92.6176 96.1114C91.7081 95.2359 90.2984 96.009 90.3415 97.1978C90.3586 97.6638 90.4511 97.9798 90.0641 98.3614C89.6556 98.7645 89.0414 98.7843 88.5153 98.6406C87.1245 98.259 86.857 97.0263 86.1369 95.9901C85.4904 95.06 84.1562 95.2692 83.5959 96.1652C83.367 96.5316 83.3804 97.2498 83.0617 97.4133C82.5032 97.6997 81.6197 97.0451 81.1134 96.9131C80.8296 96.8386 80.6294 96.9221 80.3574 96.9051C80.1688 97.0595 80.0225 97.0209 79.9183 96.7883C79.7827 96.6564 79.6436 96.5298 79.499 96.4076C79.0133 95.9919 78.4871 95.6256 77.9879 95.227C78.8938 95.0249 79.0968 94.1899 78.9747 93.3917C78.8059 92.2847 78.541 91.1848 78.2662 90.1002C77.688 87.8214 76.9545 85.5858 76.3349 83.3187C75.7989 81.3577 75.3832 79.3771 75.2036 77.3497C75.1821 77.1109 75.1947 76.8496 75.1516 76.6144C75.0618 76.1223 74.9496 76.0882 74.48 75.8476C73.6378 75.4148 73.0937 74.7962 72.5675 74.0142C73.0865 74.7854 72.493 74.8869 72.5675 74.0142ZM75.4712 90.0598C75.7082 90.9451 75.9273 91.8358 76.1087 92.7354C74.8256 90.4881 73.5417 88.1985 72.7956 85.707C72.4706 84.6233 72.2488 83.5027 72.1895 82.3714C72.15 81.628 71.9588 79.9912 72.7453 79.5656C73.3065 83.1472 74.5374 86.568 75.4712 90.0598C75.1983 89.0389 75.71 90.9523 75.4712 90.0598Z" fill="#393A32"/>
<path d="M78.9846 77.6691C79.6894 80.6132 80.5469 83.5204 81.2041 86.4762C81.5534 88.0483 81.8389 89.6349 82.0032 91.2375C82.1119 92.2979 82.0284 94.1358 83.6481 93.9105C85.1215 93.7057 84.7884 92.0214 84.6833 90.9798C84.5316 89.4822 84.2793 87.9981 83.9677 86.5256C83.3114 83.4208 82.3992 80.3779 81.6611 77.292C80.7974 77.608 79.9013 77.7634 78.9846 77.6691C79.0933 77.6799 79.0376 77.8927 78.9846 77.6691Z" fill="#393A32"/>
<path d="M103.842 51.3235C103.621 50.7543 103.229 50.2218 102.657 49.9713C102.502 49.904 102.042 49.9067 101.941 49.8187C101.757 49.6589 101.629 48.8158 101.525 48.5644C100.985 47.2625 100.055 45.772 98.7545 45.1094C98.416 44.937 98.047 44.8284 97.6681 44.7988C97.4274 44.7799 96.7119 45.0107 96.5404 44.9317C96.4066 44.8697 96.2728 44.0383 96.2019 43.8452C96.034 43.3873 95.8373 42.9402 95.6066 42.511C95.0715 41.5153 94.2921 40.5681 93.0971 40.4235C92.7981 40.3876 92.3231 40.569 92.0699 40.507C91.7889 40.4388 91.6138 40.0231 91.3902 39.7366C90.9934 39.2285 90.5193 38.7616 90.0354 38.336C89.4805 37.8484 88.8619 37.4462 88.1409 37.2577C87.7593 37.158 87.3598 37.1221 86.9665 37.1329C86.5562 37.1445 85.9833 37.4265 85.6071 37.3843C85.3261 37.3528 85.3055 37.0063 85.1447 36.6938C84.9804 36.376 84.7838 36.0734 84.5584 35.7959C84.0413 35.1585 83.3706 34.6503 82.6155 34.3261C81.2714 33.7488 79.6902 33.7623 78.3668 34.3926C78.268 34.4393 78.0346 34.6135 77.9125 34.6386C77.4223 34.7401 77.8703 34.7742 77.539 34.5614C77.2687 34.3872 77.0568 34.0227 76.7902 33.8162C76.2012 33.3609 75.4901 33.0638 74.7457 33.0099C73.1296 32.8914 71.7191 33.8584 70.533 34.8415C69.9269 35.3434 69.3604 35.8911 68.828 36.4702C68.5496 36.7728 68.2812 37.0844 68.0217 37.4031C67.852 37.6114 67.8367 37.7003 67.6069 37.6967C67.4147 37.6931 67.1418 37.4911 66.9371 37.4345C65.3326 36.9856 64.0136 37.738 62.912 38.8451C60.6215 41.1472 59.2945 44.2035 58.4577 47.2975C57.9926 49.0169 57.6433 50.7722 57.3282 52.5248C57.0121 54.2837 57.3659 55.7715 57.5832 57.5053C57.6783 58.2613 57.8732 58.6186 58.3464 59.2022C58.7908 59.7499 59.009 60.3443 59.3807 60.936C59.7542 61.5322 60.2471 62.0987 60.8325 62.4947C61.1288 62.6949 61.4592 62.8583 61.8031 62.9607C61.9118 62.993 62.2009 63.0082 62.3122 63.0675C62.5349 62.9966 62.6193 63.0576 62.5663 63.2498C62.5654 63.4168 62.5735 63.5829 62.5905 63.7481C62.7207 65.1694 63.3887 66.5458 64.5389 67.4167C65.0992 67.8405 65.7591 68.1287 66.4567 68.2248C66.894 68.285 67.2926 68.1808 67.72 68.1871C68.1851 68.1943 68.0549 68.2212 68.265 68.7429C68.8037 70.0789 69.566 71.4813 70.9038 72.1619C71.5592 72.495 72.3359 72.6683 73.0703 72.6306C73.5704 72.6054 73.5758 72.4815 73.8452 72.9673C74.0562 73.348 74.3103 73.708 74.5985 74.0339C75.6014 75.1679 77.0488 75.8808 78.5697 75.9105C79.3724 75.9266 80.1697 75.7228 80.9149 75.4382C81.2615 75.3062 81.7419 74.9929 82.0175 75.0871C82.2994 75.1841 82.6631 75.73 82.9495 75.9123C84.2388 76.7338 85.7705 76.7105 87.1452 76.1206C87.5214 75.9589 87.8563 75.704 88.2271 75.5432C88.6697 75.3511 88.8179 75.5199 89.3126 75.633C90.1566 75.8261 91.0491 75.827 91.8966 75.6582C93.5218 75.334 95.0481 74.3311 96.3141 73.295C96.8151 72.8847 97.2084 72.3792 97.0117 71.6842C96.7963 70.9211 95.9514 70.5359 95.2259 70.8079C94.5812 71.0495 94.012 71.6816 93.4392 72.0604C92.6823 72.5597 91.8499 73.0068 90.9305 73.0876C90.1988 73.1522 89.7274 72.9323 89.1088 72.6135C88.386 72.2409 87.876 72.425 87.2601 72.908C86.6585 73.3794 85.9169 73.9271 85.1052 73.8696C84.237 73.8086 84.1059 73.3085 83.9084 72.6243C83.3041 70.5251 81.2337 72.3648 80.1814 72.8281C78.7574 73.4557 77.2068 73.2627 76.3197 71.8755C75.7163 70.9309 76.0467 68.6917 74.2618 69.0796C73.5642 69.2313 73.4322 70.0008 72.6798 69.9343C72.0037 69.8742 71.5646 69.3166 71.2459 68.7707C70.7144 67.8612 70.2969 66.8933 70.4351 65.8742C70.515 65.2834 70.2484 64.6774 69.6863 64.4215C68.8773 64.0533 68.3656 64.5229 67.8888 65.085C66.7539 66.421 65.3963 64.7106 65.2742 63.5119C65.1414 62.2073 66.4235 60.1387 64.4886 59.6431C64.1456 59.5551 63.8323 59.5928 63.501 59.7077C63.1975 59.8137 62.9021 60.1872 62.622 60.2437C62.1102 60.3479 61.6756 59.5739 61.4314 59.1017C61.2644 58.7784 61.1692 58.4749 60.8595 58.2523C60.4913 57.9874 60.4186 58.0727 60.3683 57.5915C60.2875 56.8175 60.0801 56.0669 59.9365 55.3037C61.0678 55.9098 61.7277 54.8395 62.2161 53.9991C62.8689 52.8759 63.4534 51.715 64.0074 50.5406C65.1288 48.163 66.1137 45.72 67.342 43.3936C67.6401 42.8298 67.9508 42.2731 68.2812 41.7272C68.5523 41.2774 68.9842 41.0403 69.2275 40.5968C69.4753 40.1452 69.584 39.7672 69.9224 39.338C70.3489 38.7957 70.8041 38.2749 71.2926 37.7883C72.0145 37.0709 72.9204 36.173 73.9062 35.8193C74.4315 35.6307 74.9388 35.6756 75.3392 36.0994C75.9318 36.7261 75.3778 37.1311 74.9909 37.7021C72.1159 41.9481 70.2681 46.7615 67.8224 51.2454C67.2145 52.3596 66.568 53.4541 65.8569 54.5064C65.3191 55.3019 64.1349 56.3201 64.5577 57.3742C64.9339 58.3106 66.0985 58.4489 66.7844 57.7899C67.6329 56.9746 68.2776 55.7589 68.8926 54.7641C71.5655 50.44 73.3747 45.6571 75.9336 41.2702C76.9114 39.593 78.3749 36.4613 80.7111 36.6094C81.8478 36.6812 82.7744 37.5117 82.9827 38.6323C83.0895 39.2069 82.8157 39.3856 82.4871 39.8085C82.0507 40.3696 81.661 40.9712 81.3226 41.597C80.0898 43.8785 80.106 46.4769 79.147 48.84C78.1747 51.2346 76.4975 53.3446 74.9953 55.4231C74.2663 56.4323 73.5291 57.4352 72.7839 58.4327C72.1644 59.2624 71.0241 60.4942 72.2299 61.4047C73.2813 62.1984 74.0813 61.1901 74.6622 60.4152C75.4371 59.3809 76.2066 58.3421 76.9653 57.2952C78.4772 55.2085 80.0925 53.1147 81.2247 50.7884C82.374 48.427 82.3542 45.7514 83.4334 43.3945C84.1706 41.7856 86.2132 38.6152 88.2495 40.3544C88.7389 40.7728 89.494 41.4129 89.6475 42.063C89.775 42.6017 89.3862 43.0201 89.1348 43.4574C88.7478 44.1299 88.3923 44.8212 88.0592 45.5215C86.9764 47.794 86.1396 50.1698 85.1412 52.4782C84.1158 54.8512 82.8651 57.1174 81.3971 59.2453C80.6294 60.3578 79.7989 61.4253 78.9244 62.4552C78.5536 62.8915 78.1756 63.3207 77.7859 63.7391C77.3002 64.2616 76.5899 64.7707 76.2146 65.3759C75.6634 66.2648 76.2568 67.4742 77.3316 67.4742C78.4745 67.4742 79.6014 65.7656 80.2936 64.9952C83.7405 61.1587 86.3254 56.7555 88.263 51.9906C89.2246 49.6248 90.1045 47.2095 91.3615 44.9783C91.5438 44.6542 92.2872 43.0453 92.7541 43.0982C92.9489 43.1207 93.2048 43.7348 93.2668 43.8506C93.6062 44.4863 93.854 45.1741 94.0084 45.878C94.1574 46.5604 94.2095 47.0021 93.9258 47.6351C93.7247 48.0849 93.546 48.5464 93.3592 49.0016C92.8295 50.2919 92.2953 51.5794 91.7431 52.8597C90.6818 55.3226 89.5568 57.762 88.2854 60.1243C87.7198 61.1757 87.1308 62.2154 86.5014 63.23C85.7777 64.3954 84.8628 65.4648 84.1706 66.6419C83.6417 67.5397 84.0682 68.7949 85.2489 68.7949C86.3694 68.7949 87.1146 67.1725 87.6543 66.3851C90.6387 62.0385 92.8502 57.2081 94.8829 52.3605C95.3291 51.2957 95.7619 50.2245 96.2055 49.1579C96.508 48.4306 97.027 46.9563 97.906 47.8344C98.6333 48.5599 99.1208 49.57 99.3489 50.5603C99.4701 51.0856 99.5724 51.7096 99.488 52.2483C99.4198 52.6847 99.1881 53.1067 99.0122 53.5233C98.0182 55.8801 96.9237 58.1939 95.691 60.4368C94.4771 62.6473 92.9561 64.6774 91.7296 66.8672C91.3049 67.625 91.5141 68.6019 92.4039 68.9018C93.7058 69.3408 94.337 67.801 94.9027 66.9373C96.3859 64.6693 97.774 62.3348 99.0104 59.9223C100.035 57.9237 100.925 55.873 101.813 53.8124C102.697 57.244 102.27 60.989 100.74 64.1755C100.385 64.9144 99.9693 65.6255 99.4952 66.2944C99.0481 66.9247 98.4052 67.4616 98.0003 68.1108C97.1895 69.4109 98.7778 70.8061 99.9836 69.8849C101.195 68.9583 102.15 67.3054 102.858 65.981C103.629 64.5364 104.202 62.9822 104.554 61.3831C105.29 58.053 105.077 54.5109 103.842 51.3235C105.088 54.5378 103.425 50.2515 103.842 51.3235ZM64.2462 43.5507C62.8536 46.4221 61.6954 49.4075 60.134 52.1953C60.626 49.6427 61.1468 47.0596 62.2152 44.6749C62.6579 43.6872 63.1921 42.7364 63.8457 41.8717C64.3108 41.2567 65.276 39.8228 66.164 40.015C65.4574 41.1562 64.8307 42.344 64.2462 43.5507C64.7822 42.4446 63.7218 44.6309 64.2462 43.5507Z" fill="#393A32"/>
<path d="M57.3019 166.072H59.7139V167.296C60.1779 166.368 60.9139 165.904 61.9219 165.904C62.6899 165.904 63.2899 166.18 63.7219 166.732C64.1619 167.276 64.3819 168.032 64.3819 169V172H61.8619V168.748C61.8619 168.404 61.7859 168.14 61.6339 167.956C61.4899 167.772 61.2859 167.68 61.0219 167.68C60.8299 167.68 60.6419 167.744 60.4579 167.872C60.2739 167.992 60.1219 168.168 60.0019 168.4C59.8899 168.632 59.8339 168.896 59.8339 169.192V172H57.3019V166.072ZM68.9362 172.096C68.2642 172.096 67.6642 171.964 67.1362 171.7C66.6162 171.436 66.2082 171.072 65.9122 170.608C65.6242 170.136 65.4802 169.596 65.4802 168.988C65.4802 168.38 65.6282 167.844 65.9242 167.38C66.2202 166.908 66.6282 166.544 67.1482 166.288C67.6762 166.032 68.2762 165.904 68.9482 165.904C69.6282 165.904 70.2282 166.036 70.7482 166.3C71.2762 166.556 71.6842 166.916 71.9722 167.38C72.2602 167.844 72.4042 168.38 72.4042 168.988C72.4042 169.604 72.2562 170.148 71.9602 170.62C71.6722 171.084 71.2642 171.448 70.7362 171.712C70.2162 171.968 69.6162 172.096 68.9362 172.096ZM68.9602 170.296C69.2882 170.296 69.5562 170.176 69.7642 169.936C69.9802 169.688 70.0882 169.372 70.0882 168.988C70.0882 168.604 69.9802 168.292 69.7642 168.052C69.5562 167.804 69.2882 167.68 68.9602 167.68C68.6322 167.68 68.3602 167.804 68.1442 168.052C67.9362 168.292 67.8322 168.604 67.8322 168.988C67.8322 169.372 67.9362 169.688 68.1442 169.936C68.3602 170.176 68.6322 170.296 68.9602 170.296ZM76.5076 172.096C75.8676 172.096 75.2996 171.968 74.8036 171.712C74.3156 171.448 73.9316 171.08 73.6516 170.608C73.3796 170.136 73.2436 169.6 73.2436 169C73.2436 168.424 73.3876 167.9 73.6756 167.428C73.9636 166.956 74.3556 166.584 74.8516 166.312C75.3476 166.04 75.8996 165.904 76.5076 165.904C77.2836 165.904 77.8956 166.064 78.3436 166.384L78.1156 167.98C77.6596 167.844 77.2836 167.776 76.9876 167.776C76.6036 167.776 76.2996 167.888 76.0756 168.112C75.8516 168.328 75.7396 168.624 75.7396 169C75.7396 169.376 75.8516 169.676 76.0756 169.9C76.2996 170.124 76.5956 170.236 76.9636 170.236C77.2836 170.236 77.6596 170.168 78.0916 170.032L78.3196 171.712C78.0476 171.848 77.7716 171.944 77.4916 172C77.2116 172.064 76.8836 172.096 76.5076 172.096ZM82.3374 172.096C81.6974 172.096 81.1294 171.968 80.6334 171.712C80.1454 171.448 79.7614 171.08 79.4814 170.608C79.2094 170.136 79.0734 169.6 79.0734 169C79.0734 168.424 79.2174 167.9 79.5054 167.428C79.7934 166.956 80.1854 166.584 80.6814 166.312C81.1774 166.04 81.7294 165.904 82.3374 165.904C83.1134 165.904 83.7254 166.064 84.1734 166.384L83.9454 167.98C83.4894 167.844 83.1134 167.776 82.8174 167.776C82.4334 167.776 82.1294 167.888 81.9054 168.112C81.6814 168.328 81.5694 168.624 81.5694 169C81.5694 169.376 81.6814 169.676 81.9054 169.9C82.1294 170.124 82.4254 170.236 82.7934 170.236C83.1134 170.236 83.4894 170.168 83.9214 170.032L84.1494 171.712C83.8774 171.848 83.6014 171.944 83.3214 172C83.0414 172.064 82.7134 172.096 82.3374 172.096ZM85.2736 164.092L87.8056 163.72V167.224C87.9816 166.8 88.2456 166.476 88.5976 166.252C88.9576 166.02 89.3896 165.904 89.8936 165.904C90.6616 165.904 91.2616 166.18 91.6936 166.732C92.1336 167.276 92.3536 168.032 92.3536 169V172H89.8336V168.748C89.8336 168.404 89.7576 168.14 89.6056 167.956C89.4616 167.772 89.2576 167.68 88.9936 167.68C88.8016 167.68 88.6136 167.744 88.4296 167.872C88.2456 167.992 88.0936 168.168 87.9736 168.4C87.8616 168.632 87.8056 168.896 87.8056 169.192V172H85.2736V164.092ZM95.8639 172.096C95.1919 172.096 94.6679 171.88 94.2919 171.448C93.9159 171.016 93.7279 170.428 93.7279 169.684V165.988H96.2719V169.576C96.2719 169.76 96.3199 169.904 96.4159 170.008C96.5199 170.104 96.6519 170.152 96.8119 170.152C96.9719 170.152 97.1359 170.104 97.3039 170.008L97.4359 171.676C97.2599 171.812 97.0279 171.916 96.7399 171.988C96.4599 172.06 96.1679 172.096 95.8639 172.096ZM94.9999 165.088C94.6239 165.088 94.3039 164.972 94.0399 164.74C93.7839 164.5 93.6559 164.208 93.6559 163.864C93.6559 163.52 93.7919 163.232 94.0639 163C94.3359 162.768 94.6479 162.652 94.9999 162.652C95.3679 162.652 95.6839 162.772 95.9479 163.012C96.2199 163.252 96.3559 163.536 96.3559 163.864C96.3559 164.216 96.2199 164.508 95.9479 164.74C95.6759 164.972 95.3599 165.088 94.9999 165.088ZM101.531 172.096C100.859 172.096 100.259 171.964 99.7307 171.7C99.2107 171.436 98.8027 171.072 98.5067 170.608C98.2187 170.136 98.0747 169.596 98.0747 168.988C98.0747 168.38 98.2227 167.844 98.5187 167.38C98.8147 166.908 99.2227 166.544 99.7427 166.288C100.271 166.032 100.871 165.904 101.543 165.904C102.223 165.904 102.823 166.036 103.343 166.3C103.871 166.556 104.279 166.916 104.567 167.38C104.855 167.844 104.999 168.38 104.999 168.988C104.999 169.604 104.851 170.148 104.555 170.62C104.267 171.084 103.859 171.448 103.331 171.712C102.811 171.968 102.211 172.096 101.531 172.096ZM101.555 170.296C101.883 170.296 102.151 170.176 102.359 169.936C102.575 169.688 102.683 169.372 102.683 168.988C102.683 168.604 102.575 168.292 102.359 168.052C102.151 167.804 101.883 167.68 101.555 167.68C101.227 167.68 100.955 167.804 100.739 168.052C100.531 168.292 100.427 168.604 100.427 168.988C100.427 169.372 100.531 169.688 100.739 169.936C100.955 170.176 101.227 170.296 101.555 170.296Z" fill="#2179B9"/>
<path d="M33.2905 187.672C33.2905 186.752 33.3425 186.092 33.4465 185.692C33.5585 185.284 33.7785 185.004 34.1065 184.852C34.4425 184.7 34.9905 184.624 35.7505 184.624V186.028C35.3425 186.028 35.0745 186.036 34.9465 186.052C34.8185 186.068 34.7345 186.116 34.6945 186.196C34.6545 186.276 34.6345 186.428 34.6345 186.652H35.7505V188.896H33.2905V187.672ZM36.4105 187.672C36.4105 186.752 36.4625 186.092 36.5665 185.692C36.6785 185.284 36.8985 185.004 37.2265 184.852C37.5625 184.7 38.1105 184.624 38.8705 184.624V186.028C38.4625 186.028 38.1945 186.036 38.0665 186.052C37.9385 186.068 37.8545 186.116 37.8145 186.196C37.7745 186.276 37.7545 186.428 37.7545 186.652H38.8705V188.896H36.4105V187.672ZM46.1628 193.096C45.6268 193.096 45.1948 193.028 44.8668 192.892C44.5468 192.748 44.2828 192.512 44.0748 192.184C43.8668 191.856 43.6828 191.388 43.5228 190.78L42.8148 191.344V193H40.2708L40.2828 185.092L42.8268 184.72L42.8148 188.824L45.8988 186.304L47.2788 188.188L45.3468 189.532C45.4428 190.14 45.5788 190.564 45.7548 190.804C45.9388 191.044 46.2068 191.164 46.5588 191.164C46.7028 191.164 46.8748 191.14 47.0748 191.092L46.8348 193.06C46.5948 193.084 46.3708 193.096 46.1628 193.096ZM48.186 187.072H50.598V188.296C51.062 187.368 51.798 186.904 52.806 186.904C53.574 186.904 54.174 187.18 54.606 187.732C55.046 188.276 55.266 189.032 55.266 190V193H52.746V189.748C52.746 189.404 52.67 189.14 52.518 188.956C52.374 188.772 52.17 188.68 51.906 188.68C51.714 188.68 51.526 188.744 51.342 188.872C51.158 188.992 51.006 189.168 50.886 189.4C50.774 189.632 50.718 189.896 50.718 190.192V193H48.186V187.072ZM59.8203 193.096C59.1483 193.096 58.5483 192.964 58.0203 192.7C57.5003 192.436 57.0923 192.072 56.7963 191.608C56.5083 191.136 56.3643 190.596 56.3643 189.988C56.3643 189.38 56.5123 188.844 56.8083 188.38C57.1043 187.908 57.5123 187.544 58.0323 187.288C58.5603 187.032 59.1603 186.904 59.8323 186.904C60.5123 186.904 61.1123 187.036 61.6323 187.3C62.1603 187.556 62.5683 187.916 62.8563 188.38C63.1443 188.844 63.2883 189.38 63.2883 189.988C63.2883 190.604 63.1403 191.148 62.8443 191.62C62.5563 192.084 62.1483 192.448 61.6203 192.712C61.1003 192.968 60.5003 193.096 59.8203 193.096ZM59.8443 191.296C60.1723 191.296 60.4403 191.176 60.6483 190.936C60.8643 190.688 60.9723 190.372 60.9723 189.988C60.9723 189.604 60.8643 189.292 60.6483 189.052C60.4403 188.804 60.1723 188.68 59.8443 188.68C59.5163 188.68 59.2443 188.804 59.0283 189.052C58.8203 189.292 58.7163 189.604 58.7163 189.988C58.7163 190.372 58.8203 190.688 59.0283 190.936C59.2443 191.176 59.5163 191.296 59.8443 191.296ZM67.0089 193.096C66.3049 193.096 65.7569 192.896 65.3649 192.496C64.9729 192.088 64.7769 191.528 64.7769 190.816V188.476H64.0089V186.988H64.9569L66.0729 184.72H67.2849V186.988H68.6769V188.476H67.2849V190.516C67.2849 190.716 67.3489 190.872 67.4769 190.984C67.6049 191.096 67.7849 191.152 68.0169 191.152C68.2329 191.152 68.4289 191.104 68.6049 191.008L68.7009 192.688C68.5009 192.808 68.2409 192.908 67.9209 192.988C67.6089 193.06 67.3049 193.096 67.0089 193.096ZM74.426 193.096C73.754 193.096 73.23 192.88 72.854 192.448C72.478 192.016 72.29 191.428 72.29 190.684V186.988H74.834V190.576C74.834 190.76 74.882 190.904 74.978 191.008C75.082 191.104 75.214 191.152 75.374 191.152C75.534 191.152 75.698 191.104 75.866 191.008L75.998 192.676C75.822 192.812 75.59 192.916 75.302 192.988C75.022 193.06 74.73 193.096 74.426 193.096ZM73.562 186.088C73.186 186.088 72.866 185.972 72.602 185.74C72.346 185.5 72.218 185.208 72.218 184.864C72.218 184.52 72.354 184.232 72.626 184C72.898 183.768 73.21 183.652 73.562 183.652C73.93 183.652 74.246 183.772 74.51 184.012C74.782 184.252 74.918 184.536 74.918 184.864C74.918 185.216 74.782 185.508 74.51 185.74C74.238 185.972 73.922 186.088 73.562 186.088ZM76.9368 187.072H79.3488V188.296C79.8128 187.368 80.5488 186.904 81.5568 186.904C82.3248 186.904 82.9248 187.18 83.3568 187.732C83.7968 188.276 84.0168 189.032 84.0168 190V193H81.4968V189.748C81.4968 189.404 81.4208 189.14 81.2688 188.956C81.1248 188.772 80.9208 188.68 80.6568 188.68C80.4648 188.68 80.2768 188.744 80.0928 188.872C79.9088 188.992 79.7568 189.168 79.6368 189.4C79.5248 189.632 79.4688 189.896 79.4688 190.192V193H76.9368V187.072ZM87.5334 186.988H89.9814L90.6654 190.888L91.4934 186.988H93.5574L94.3974 190.984L95.0814 186.988H97.0494L95.8014 193H92.9334L92.2614 189.82L91.6254 193H88.8534L87.5334 186.988ZM101.215 193.096C100.543 193.096 99.9431 192.964 99.4151 192.7C98.8951 192.436 98.4871 192.072 98.1911 191.608C97.9031 191.136 97.7591 190.596 97.7591 189.988C97.7591 189.38 97.9071 188.844 98.2031 188.38C98.4991 187.908 98.9071 187.544 99.4271 187.288C99.9551 187.032 100.555 186.904 101.227 186.904C101.907 186.904 102.507 187.036 103.027 187.3C103.555 187.556 103.963 187.916 104.251 188.38C104.539 188.844 104.683 189.38 104.683 189.988C104.683 190.604 104.535 191.148 104.239 191.62C103.951 192.084 103.543 192.448 103.015 192.712C102.495 192.968 101.895 193.096 101.215 193.096ZM101.239 191.296C101.567 191.296 101.835 191.176 102.043 190.936C102.259 190.688 102.367 190.372 102.367 189.988C102.367 189.604 102.259 189.292 102.043 189.052C101.835 188.804 101.567 188.68 101.239 188.68C100.911 188.68 100.639 188.804 100.423 189.052C100.215 189.292 100.111 189.604 100.111 189.988C100.111 190.372 100.215 190.688 100.423 190.936C100.639 191.176 100.911 191.296 101.239 191.296ZM108.979 193.096C108.307 193.096 107.707 192.964 107.179 192.7C106.659 192.436 106.251 192.072 105.955 191.608C105.667 191.136 105.523 190.596 105.523 189.988C105.523 189.38 105.671 188.844 105.967 188.38C106.263 187.908 106.671 187.544 107.191 187.288C107.719 187.032 108.319 186.904 108.991 186.904C109.671 186.904 110.271 187.036 110.791 187.3C111.319 187.556 111.727 187.916 112.015 188.38C112.303 188.844 112.447 189.38 112.447 189.988C112.447 190.604 112.299 191.148 112.003 191.62C111.715 192.084 111.307 192.448 110.779 192.712C110.259 192.968 109.659 193.096 108.979 193.096ZM109.003 191.296C109.331 191.296 109.599 191.176 109.807 190.936C110.023 190.688 110.131 190.372 110.131 189.988C110.131 189.604 110.023 189.292 109.807 189.052C109.599 188.804 109.331 188.68 109.003 188.68C108.675 188.68 108.403 188.804 108.187 189.052C107.979 189.292 107.875 189.604 107.875 189.988C107.875 190.372 107.979 190.688 108.187 190.936C108.403 191.176 108.675 191.296 109.003 191.296ZM116.214 193.096C115.67 193.096 115.174 192.952 114.726 192.664C114.286 192.376 113.938 191.996 113.682 191.524C113.426 191.044 113.298 190.536 113.298 190C113.298 189.432 113.43 188.912 113.694 188.44C113.966 187.96 114.326 187.584 114.774 187.312C115.23 187.04 115.714 186.904 116.226 186.904C116.69 186.904 117.082 187 117.402 187.192C117.73 187.384 117.994 187.692 118.194 188.116V185.092L120.726 184.72V193H118.194V191.884C117.818 192.692 117.158 193.096 116.214 193.096ZM117.006 191.2C117.342 191.2 117.622 191.08 117.846 190.84C118.078 190.6 118.194 190.32 118.194 190V189.952C118.194 189.64 118.074 189.372 117.834 189.148C117.594 188.916 117.318 188.8 117.006 188.8C116.67 188.8 116.386 188.92 116.154 189.16C115.93 189.392 115.818 189.672 115.818 190C115.818 190.336 115.934 190.62 116.166 190.852C116.406 191.084 116.686 191.2 117.006 191.2ZM122.133 187.612C122.541 187.612 122.809 187.604 122.937 187.588C123.065 187.572 123.149 187.524 123.189 187.444C123.229 187.364 123.249 187.212 123.249 186.988H122.133V184.744H124.593V185.968C124.593 186.888 124.537 187.552 124.425 187.96C124.321 188.36 124.101 188.636 123.765 188.788C123.437 188.94 122.893 189.016 122.133 189.016V187.612ZM125.253 187.612C125.661 187.612 125.929 187.604 126.057 187.588C126.185 187.572 126.269 187.524 126.309 187.444C126.349 187.364 126.369 187.212 126.369 186.988H125.253V184.744H127.713V185.968C127.713 186.888 127.657 187.552 127.545 187.96C127.441 188.36 127.221 188.636 126.885 188.788C126.557 188.94 126.013 189.016 125.253 189.016V187.612Z" fill="#393A32"/>
<path d="M47.2874 134.288C46.0754 134.288 44.9834 134 44.0114 133.424C43.0394 132.836 42.2774 132.038 41.7254 131.03C41.1734 130.022 40.8974 128.912 40.8974 127.7C40.8974 126.536 41.1734 125.468 41.7254 124.496C42.2894 123.524 43.0694 122.756 44.0654 122.192C45.0614 121.628 46.1954 121.346 47.4674 121.346C48.1634 121.346 48.8354 121.424 49.4834 121.58C50.1434 121.736 50.7374 121.958 51.2654 122.246L50.0774 125.036C49.2614 124.7 48.4994 124.532 47.7914 124.532C46.8674 124.532 46.1534 124.832 45.6494 125.432C45.1454 126.02 44.8934 126.794 44.8934 127.754C44.8934 128.378 45.0074 128.942 45.2354 129.446C45.4634 129.938 45.7814 130.328 46.1894 130.616C46.6094 130.904 47.0834 131.048 47.6114 131.048C47.8994 131.048 48.1394 131.024 48.3314 130.976V128.078L51.4454 127.718V133.352C50.0894 133.976 48.7034 134.288 47.2874 134.288ZM54.2026 125.108H57.8206V126.944C58.5166 125.552 59.6206 124.856 61.1326 124.856C62.2846 124.856 63.1846 125.27 63.8326 126.098C64.4926 126.914 64.8226 128.048 64.8226 129.5V134H61.0426V129.122C61.0426 128.606 60.9286 128.21 60.7006 127.934C60.4846 127.658 60.1786 127.52 59.7826 127.52C59.4946 127.52 59.2126 127.616 58.9366 127.808C58.6606 127.988 58.4326 128.252 58.2526 128.6C58.0846 128.948 58.0006 129.344 58.0006 129.788V134H54.2026V125.108ZM72.374 134.144C71.366 134.144 70.466 133.946 69.674 133.55C68.894 133.154 68.282 132.608 67.838 131.912C67.406 131.204 67.19 130.394 67.19 129.482C67.19 128.57 67.412 127.766 67.856 127.07C68.3 126.362 68.912 125.816 69.692 125.432C70.484 125.048 71.384 124.856 72.392 124.856C73.412 124.856 74.312 125.054 75.092 125.45C75.884 125.834 76.496 126.374 76.928 127.07C77.36 127.766 77.576 128.57 77.576 129.482C77.576 130.406 77.354 131.222 76.91 131.93C76.478 132.626 75.866 133.172 75.074 133.568C74.294 133.952 73.394 134.144 72.374 134.144ZM72.41 131.444C72.902 131.444 73.304 131.264 73.616 130.904C73.94 130.532 74.102 130.058 74.102 129.482C74.102 128.906 73.94 128.438 73.616 128.078C73.304 127.706 72.902 127.52 72.41 127.52C71.918 127.52 71.51 127.706 71.186 128.078C70.874 128.438 70.718 128.906 70.718 129.482C70.718 130.058 70.874 130.532 71.186 130.904C71.51 131.264 71.918 131.444 72.41 131.444ZM84.4512 134.144C83.4912 134.144 82.6392 133.952 81.8952 133.568C81.1632 133.172 80.5872 132.62 80.1672 131.912C79.7592 131.204 79.5552 130.4 79.5552 129.5C79.5552 128.636 79.7712 127.85 80.2032 127.142C80.6352 126.434 81.2232 125.876 81.9672 125.468C82.7112 125.06 83.5392 124.856 84.4512 124.856C85.6152 124.856 86.5332 125.096 87.2052 125.576L86.8632 127.97C86.1792 127.766 85.6152 127.664 85.1712 127.664C84.5952 127.664 84.1392 127.832 83.8032 128.168C83.4672 128.492 83.2992 128.936 83.2992 129.5C83.2992 130.064 83.4672 130.514 83.8032 130.85C84.1392 131.186 84.5832 131.354 85.1352 131.354C85.6152 131.354 86.1792 131.252 86.8272 131.048L87.1692 133.568C86.7612 133.772 86.3472 133.916 85.9272 134C85.5072 134.096 85.0152 134.144 84.4512 134.144ZM93.916 134.144C92.956 134.144 92.104 133.952 91.36 133.568C90.628 133.172 90.052 132.62 89.632 131.912C89.224 131.204 89.02 130.4 89.02 129.5C89.02 128.636 89.236 127.85 89.668 127.142C90.1 126.434 90.688 125.876 91.432 125.468C92.176 125.06 93.004 124.856 93.916 124.856C95.08 124.856 95.998 125.096 96.67 125.576L96.328 127.97C95.644 127.766 95.08 127.664 94.636 127.664C94.06 127.664 93.604 127.832 93.268 128.168C92.932 128.492 92.764 128.936 92.764 129.5C92.764 130.064 92.932 130.514 93.268 130.85C93.604 131.186 94.048 131.354 94.6 131.354C95.08 131.354 95.644 131.252 96.292 131.048L96.634 133.568C96.226 133.772 95.812 133.916 95.392 134C94.972 134.096 94.48 134.144 93.916 134.144ZM99.0402 122.138L102.838 121.58V126.836C103.102 126.2 103.498 125.714 104.026 125.378C104.566 125.03 105.214 124.856 105.97 124.856C107.122 124.856 108.022 125.27 108.67 126.098C109.33 126.914 109.66 128.048 109.66 129.5V134H105.88V129.122C105.88 128.606 105.766 128.21 105.538 127.934C105.322 127.658 105.016 127.52 104.62 127.52C104.332 127.52 104.05 127.616 103.774 127.808C103.498 127.988 103.27 128.252 103.09 128.6C102.922 128.948 102.838 129.344 102.838 129.788V134H99.0402V122.138ZM115.646 134.144C114.638 134.144 113.852 133.82 113.288 133.172C112.724 132.524 112.442 131.642 112.442 130.526V124.982H116.258V130.364C116.258 130.64 116.33 130.856 116.474 131.012C116.63 131.156 116.828 131.228 117.068 131.228C117.308 131.228 117.554 131.156 117.806 131.012L118.004 133.514C117.74 133.718 117.392 133.874 116.96 133.982C116.54 134.09 116.102 134.144 115.646 134.144ZM114.35 123.632C113.786 123.632 113.306 123.458 112.91 123.11C112.526 122.75 112.334 122.312 112.334 121.796C112.334 121.28 112.538 120.848 112.946 120.5C113.354 120.152 113.822 119.978 114.35 119.978C114.902 119.978 115.376 120.158 115.772 120.518C116.18 120.878 116.384 121.304 116.384 121.796C116.384 122.324 116.18 122.762 115.772 123.11C115.364 123.458 114.89 123.632 114.35 123.632Z" fill="#393A32"/>
<rect x="46" y="145.901" width="65.45" height="0.897773" fill="#082D74"/>
<rect x="57.7809" y="145" width="13.9627" height="3.1422" fill="#3F8D43"/>
<rect x="71.7455" y="145" width="13.9627" height="3.1422" fill="white"/>
<rect x="85.7046" y="145" width="13.9627" height="3.1422" fill="#D12C29"/>
</svg>
