<svg width="166" height="232" viewBox="0 0 166 232" fill="none" xmlns="http://www.w3.org/2000/svg">
<rect x="4" y="4" width="158" height="224" rx="5" fill="#FFF8F8" stroke="#F7575C" stroke-width="7"/>
<path d="M62.9183 22.232C63.5903 22.232 64.1183 22.42 64.5023 22.796C64.8863 23.172 65.0783 23.696 65.0783 24.368C65.0783 24.592 65.0543 24.832 65.0063 25.088L64.3103 29H62.2703L62.9183 25.364C62.9423 25.228 62.9543 25.108 62.9543 25.004C62.9543 24.668 62.8583 24.408 62.6663 24.224C62.4823 24.04 62.2223 23.948 61.8863 23.948C61.4863 23.948 61.1503 24.072 60.8783 24.32C60.6063 24.568 60.4303 24.916 60.3503 25.364V25.304L59.7023 29H57.6503L58.8263 22.304H60.8783L60.7223 23.204C60.9863 22.908 61.3063 22.672 61.6823 22.496C62.0663 22.32 62.4783 22.232 62.9183 22.232ZM69.0362 29.096C68.4602 29.096 67.9482 28.98 67.5002 28.748C67.0522 28.516 66.7042 28.188 66.4562 27.764C66.2162 27.34 66.0962 26.848 66.0962 26.288C66.0962 25.528 66.2762 24.836 66.6362 24.212C66.9962 23.588 67.4922 23.1 68.1242 22.748C68.7562 22.388 69.4602 22.208 70.2362 22.208C70.8122 22.208 71.3242 22.328 71.7722 22.568C72.2282 22.8 72.5802 23.128 72.8282 23.552C73.0762 23.976 73.2002 24.468 73.2002 25.028C73.2002 25.796 73.0162 26.492 72.6482 27.116C72.2882 27.732 71.7882 28.216 71.1482 28.568C70.5162 28.92 69.8122 29.096 69.0362 29.096ZM69.3242 27.332C69.6602 27.332 69.9602 27.232 70.2242 27.032C70.4962 26.824 70.7042 26.56 70.8482 26.24C71.0002 25.912 71.0762 25.572 71.0762 25.22C71.0762 24.82 70.9682 24.512 70.7522 24.296C70.5362 24.08 70.2642 23.972 69.9362 23.972C69.5922 23.972 69.2882 24.076 69.0242 24.284C68.7682 24.484 68.5682 24.748 68.4242 25.076C68.2802 25.404 68.2082 25.748 68.2082 26.108C68.2082 26.5 68.3122 26.804 68.5202 27.02C68.7282 27.228 68.9962 27.332 69.3242 27.332ZM74.0488 25.652C74.1688 24.956 74.4168 24.348 74.7928 23.828C75.1688 23.308 75.6328 22.908 76.1848 22.628C76.7448 22.348 77.3528 22.208 78.0088 22.208C78.8488 22.208 79.5128 22.428 80.0008 22.868C80.4888 23.308 80.7488 23.928 80.7808 24.728H78.5968C78.5088 24.216 78.1968 23.96 77.6608 23.96C77.2848 23.96 76.9608 24.108 76.6888 24.404C76.4168 24.692 76.2328 25.108 76.1368 25.652C76.1048 25.82 76.0888 25.996 76.0888 26.18C76.0888 26.556 76.1768 26.844 76.3528 27.044C76.5288 27.244 76.7688 27.344 77.0728 27.344C77.6008 27.344 77.9968 27.088 78.2608 26.576H80.4568C80.1448 27.36 79.6648 27.976 79.0168 28.424C78.3688 28.872 77.6288 29.096 76.7968 29.096C75.9328 29.096 75.2448 28.86 74.7328 28.388C74.2288 27.908 73.9768 27.256 73.9768 26.432C73.9768 26.184 74.0008 25.924 74.0488 25.652ZM81.5545 25.652C81.6745 24.956 81.9225 24.348 82.2985 23.828C82.6745 23.308 83.1385 22.908 83.6905 22.628C84.2505 22.348 84.8585 22.208 85.5145 22.208C86.3545 22.208 87.0185 22.428 87.5065 22.868C87.9945 23.308 88.2545 23.928 88.2865 24.728H86.1025C86.0145 24.216 85.7025 23.96 85.1665 23.96C84.7905 23.96 84.4665 24.108 84.1945 24.404C83.9225 24.692 83.7385 25.108 83.6425 25.652C83.6105 25.82 83.5945 25.996 83.5945 26.18C83.5945 26.556 83.6825 26.844 83.8585 27.044C84.0345 27.244 84.2745 27.344 84.5785 27.344C85.1065 27.344 85.5025 27.088 85.7665 26.576H87.9625C87.6505 27.36 87.1705 27.976 86.5225 28.424C85.8745 28.872 85.1345 29.096 84.3025 29.096C83.4385 29.096 82.7505 28.86 82.2385 28.388C81.7345 27.908 81.4825 27.256 81.4825 26.432C81.4825 26.184 81.5065 25.924 81.5545 25.652ZM94.1721 22.232C94.8281 22.232 95.3441 22.42 95.7201 22.796C96.1041 23.172 96.2961 23.696 96.2961 24.368C96.2961 24.592 96.2721 24.832 96.2241 25.088L95.5281 29H93.4881L94.1361 25.364C94.1601 25.228 94.1721 25.108 94.1721 25.004C94.1721 24.668 94.0761 24.408 93.8841 24.224C93.7001 24.04 93.4401 23.948 93.1041 23.948C92.7041 23.948 92.3681 24.072 92.0961 24.32C91.8241 24.568 91.6481 24.916 91.5681 25.364V25.34L90.9201 29H88.8681L90.4401 20.12H92.4921L91.9521 23.192C92.2161 22.896 92.5401 22.664 92.9241 22.496C93.3081 22.32 93.7241 22.232 94.1721 22.232ZM99.534 21.608C99.214 21.608 98.958 21.524 98.766 21.356C98.582 21.18 98.49 20.96 98.49 20.696C98.49 20.336 98.63 20.028 98.91 19.772C99.19 19.516 99.53 19.388 99.93 19.388C100.25 19.388 100.502 19.476 100.686 19.652C100.87 19.82 100.962 20.04 100.962 20.312C100.962 20.664 100.822 20.968 100.542 21.224C100.262 21.48 99.926 21.608 99.534 21.608ZM100.422 22.304L99.246 29H97.194L98.37 22.304H100.422ZM104.033 29.096C103.457 29.096 102.945 28.98 102.497 28.748C102.049 28.516 101.701 28.188 101.453 27.764C101.213 27.34 101.093 26.848 101.093 26.288C101.093 25.528 101.273 24.836 101.633 24.212C101.993 23.588 102.489 23.1 103.121 22.748C103.753 22.388 104.457 22.208 105.233 22.208C105.809 22.208 106.321 22.328 106.769 22.568C107.225 22.8 107.577 23.128 107.825 23.552C108.073 23.976 108.197 24.468 108.197 25.028C108.197 25.796 108.013 26.492 107.645 27.116C107.285 27.732 106.785 28.216 106.145 28.568C105.513 28.92 104.809 29.096 104.033 29.096ZM104.321 27.332C104.657 27.332 104.957 27.232 105.221 27.032C105.493 26.824 105.701 26.56 105.845 26.24C105.997 25.912 106.073 25.572 106.073 25.22C106.073 24.82 105.965 24.512 105.749 24.296C105.533 24.08 105.261 23.972 104.933 23.972C104.589 23.972 104.285 24.076 104.021 24.284C103.765 24.484 103.565 24.748 103.421 25.076C103.277 25.404 103.205 25.748 103.205 26.108C103.205 26.5 103.309 26.804 103.517 27.02C103.725 27.228 103.993 27.332 104.321 27.332Z" fill="#3CAA90"/>
<path d="M37.7284 44.792H35.6284L36.9724 41.576H38.3524L37.7284 44.792ZM40.4524 44.792H38.3644L39.7084 41.576H41.0764L40.4524 44.792ZM46.7406 50L44.7006 47.192V50H42.6486V41.12H44.7006V46.028L46.7286 43.304H49.2606L46.4766 46.664L49.2846 50H46.7406ZM54.3866 43.232C55.1706 43.232 55.7946 43.488 56.2586 44C56.7306 44.504 56.9666 45.2 56.9666 46.088V50H54.9266V46.364C54.9266 45.916 54.8106 45.568 54.5786 45.32C54.3466 45.072 54.0346 44.948 53.6426 44.948C53.2506 44.948 52.9386 45.072 52.7066 45.32C52.4746 45.568 52.3586 45.916 52.3586 46.364V50H50.3066V43.304H52.3586V44.192C52.5666 43.896 52.8466 43.664 53.1986 43.496C53.5506 43.32 53.9466 43.232 54.3866 43.232ZM61.6805 50.096C61.0245 50.096 60.4325 49.956 59.9045 49.676C59.3845 49.396 58.9725 48.996 58.6685 48.476C58.3725 47.956 58.2245 47.348 58.2245 46.652C58.2245 45.964 58.3765 45.36 58.6805 44.84C58.9845 44.312 59.4005 43.908 59.9285 43.628C60.4565 43.348 61.0485 43.208 61.7045 43.208C62.3605 43.208 62.9525 43.348 63.4805 43.628C64.0085 43.908 64.4245 44.312 64.7285 44.84C65.0325 45.36 65.1845 45.964 65.1845 46.652C65.1845 47.34 65.0285 47.948 64.7165 48.476C64.4125 48.996 63.9925 49.396 63.4565 49.676C62.9285 49.956 62.3365 50.096 61.6805 50.096ZM61.6805 48.32C62.0725 48.32 62.4045 48.176 62.6765 47.888C62.9565 47.6 63.0965 47.188 63.0965 46.652C63.0965 46.116 62.9605 45.704 62.6885 45.416C62.4245 45.128 62.0965 44.984 61.7045 44.984C61.3045 44.984 60.9725 45.128 60.7085 45.416C60.4445 45.696 60.3125 46.108 60.3125 46.652C60.3125 47.188 60.4405 47.6 60.6965 47.888C60.9605 48.176 61.2885 48.32 61.6805 48.32ZM70.2451 48.26V50H69.2011C68.4571 50 67.8771 49.82 67.4611 49.46C67.0451 49.092 66.8371 48.496 66.8371 47.672V45.008H66.0211V43.304H66.8371V41.672H68.8891V43.304H70.2331V45.008H68.8891V47.696C68.8891 47.896 68.9371 48.04 69.0331 48.128C69.1291 48.216 69.2891 48.26 69.5131 48.26H70.2451ZM75.4431 42.608C75.0831 42.608 74.7871 42.504 74.5551 42.296C74.3311 42.08 74.2191 41.816 74.2191 41.504C74.2191 41.184 74.3311 40.92 74.5551 40.712C74.7871 40.496 75.0831 40.388 75.4431 40.388C75.7951 40.388 76.0831 40.496 76.3071 40.712C76.5391 40.92 76.6551 41.184 76.6551 41.504C76.6551 41.816 76.5391 42.08 76.3071 42.296C76.0831 42.504 75.7951 42.608 75.4431 42.608ZM76.4631 43.304V50H74.4111V43.304H76.4631ZM82.2702 43.232C83.0542 43.232 83.6782 43.488 84.1422 44C84.6142 44.504 84.8502 45.2 84.8502 46.088V50H82.8102V46.364C82.8102 45.916 82.6942 45.568 82.4622 45.32C82.2302 45.072 81.9182 44.948 81.5262 44.948C81.1342 44.948 80.8222 45.072 80.5902 45.32C80.3582 45.568 80.2422 45.916 80.2422 46.364V50H78.1902V43.304H80.2422V44.192C80.4502 43.896 80.7302 43.664 81.0822 43.496C81.4342 43.32 81.8302 43.232 82.2702 43.232ZM98.9111 43.304L97.0991 50H94.8311L93.7751 45.656L92.6831 50H90.4271L88.6031 43.304H90.6551L91.6031 48.092L92.7311 43.304H94.9031L96.0431 48.068L96.9791 43.304H98.9111ZM102.982 50.096C102.326 50.096 101.734 49.956 101.206 49.676C100.686 49.396 100.274 48.996 99.9696 48.476C99.6736 47.956 99.5256 47.348 99.5256 46.652C99.5256 45.964 99.6776 45.36 99.9816 44.84C100.286 44.312 100.702 43.908 101.23 43.628C101.758 43.348 102.35 43.208 103.006 43.208C103.662 43.208 104.254 43.348 104.782 43.628C105.31 43.908 105.726 44.312 106.03 44.84C106.334 45.36 106.486 45.964 106.486 46.652C106.486 47.34 106.33 47.948 106.018 48.476C105.714 48.996 105.294 49.396 104.758 49.676C104.23 49.956 103.638 50.096 102.982 50.096ZM102.982 48.32C103.374 48.32 103.706 48.176 103.978 47.888C104.258 47.6 104.398 47.188 104.398 46.652C104.398 46.116 104.262 45.704 103.99 45.416C103.726 45.128 103.398 44.984 103.006 44.984C102.606 44.984 102.274 45.128 102.01 45.416C101.746 45.696 101.614 46.108 101.614 46.652C101.614 47.188 101.742 47.6 101.998 47.888C102.262 48.176 102.59 48.32 102.982 48.32ZM110.862 50.096C110.206 50.096 109.614 49.956 109.086 49.676C108.566 49.396 108.154 48.996 107.85 48.476C107.554 47.956 107.406 47.348 107.406 46.652C107.406 45.964 107.558 45.36 107.862 44.84C108.166 44.312 108.582 43.908 109.11 43.628C109.638 43.348 110.23 43.208 110.886 43.208C111.542 43.208 112.134 43.348 112.662 43.628C113.19 43.908 113.606 44.312 113.91 44.84C114.214 45.36 114.366 45.964 114.366 46.652C114.366 47.34 114.21 47.948 113.898 48.476C113.594 48.996 113.174 49.396 112.638 49.676C112.11 49.956 111.518 50.096 110.862 50.096ZM110.862 48.32C111.254 48.32 111.586 48.176 111.858 47.888C112.138 47.6 112.278 47.188 112.278 46.652C112.278 46.116 112.142 45.704 111.87 45.416C111.606 45.128 111.278 44.984 110.886 44.984C110.486 44.984 110.154 45.128 109.89 45.416C109.626 45.696 109.494 46.108 109.494 46.652C109.494 47.188 109.622 47.6 109.878 47.888C110.142 48.176 110.47 48.32 110.862 48.32ZM115.287 46.64C115.287 45.952 115.415 45.348 115.671 44.828C115.935 44.308 116.291 43.908 116.739 43.628C117.187 43.348 117.687 43.208 118.239 43.208C118.679 43.208 119.079 43.3 119.439 43.484C119.807 43.668 120.095 43.916 120.303 44.228V41.12H122.355V50H120.303V49.04C120.111 49.36 119.835 49.616 119.475 49.808C119.123 50 118.711 50.096 118.239 50.096C117.687 50.096 117.187 49.956 116.739 49.676C116.291 49.388 115.935 48.984 115.671 48.464C115.415 47.936 115.287 47.328 115.287 46.64ZM120.303 46.652C120.303 46.14 120.159 45.736 119.871 45.44C119.591 45.144 119.247 44.996 118.839 44.996C118.431 44.996 118.083 45.144 117.795 45.44C117.515 45.728 117.375 46.128 117.375 46.64C117.375 47.152 117.515 47.56 117.795 47.864C118.083 48.16 118.431 48.308 118.839 48.308C119.247 48.308 119.591 48.16 119.871 47.864C120.159 47.568 120.303 47.164 120.303 46.652ZM124.547 41.576H126.647L125.303 44.792H123.923L124.547 41.576ZM127.271 41.576H129.371L128.027 44.792H126.647L127.271 41.576Z" fill="#393A32"/>
<rect x="24" y="169" width="118" height="40" rx="2" fill="#3CAA90" fill-opacity="0.1"/>
<path d="M50.6989 184.944C51.3282 184.944 51.8775 185.072 52.3469 185.328C52.8269 185.584 53.1949 185.92 53.4509 186.336V185.072H56.1869V193.984C56.1869 194.805 56.0215 195.547 55.6909 196.208C55.3709 196.88 54.8749 197.413 54.2029 197.808C53.5415 198.203 52.7149 198.4 51.7229 198.4C50.4002 198.4 49.3282 198.085 48.5069 197.456C47.6855 196.837 47.2162 195.995 47.0989 194.928H49.8029C49.8882 195.269 50.0909 195.536 50.4109 195.728C50.7309 195.931 51.1255 196.032 51.5949 196.032C52.1602 196.032 52.6082 195.867 52.9389 195.536C53.2802 195.216 53.4509 194.699 53.4509 193.984V192.72C53.1842 193.136 52.8162 193.477 52.3469 193.744C51.8775 194 51.3282 194.128 50.6989 194.128C49.9629 194.128 49.2962 193.941 48.6989 193.568C48.1015 193.184 47.6269 192.645 47.2749 191.952C46.9335 191.248 46.7629 190.437 46.7629 189.52C46.7629 188.603 46.9335 187.797 47.2749 187.104C47.6269 186.411 48.1015 185.877 48.6989 185.504C49.2962 185.131 49.9629 184.944 50.6989 184.944ZM53.4509 189.536C53.4509 188.853 53.2589 188.315 52.8749 187.92C52.5015 187.525 52.0429 187.328 51.4989 187.328C50.9549 187.328 50.4909 187.525 50.1069 187.92C49.7335 188.304 49.5469 188.837 49.5469 189.52C49.5469 190.203 49.7335 190.747 50.1069 191.152C50.4909 191.547 50.9549 191.744 51.4989 191.744C52.0429 191.744 52.5015 191.547 52.8749 191.152C53.2589 190.757 53.4509 190.219 53.4509 189.536ZM64.5662 184.976C65.6116 184.976 66.4436 185.317 67.0622 186C67.6916 186.672 68.0062 187.6 68.0062 188.784V194H65.2862V189.152C65.2862 188.555 65.1316 188.091 64.8222 187.76C64.5129 187.429 64.0969 187.264 63.5742 187.264C63.0516 187.264 62.6356 187.429 62.3262 187.76C62.0169 188.091 61.8622 188.555 61.8622 189.152V194H59.1262V185.072H61.8622V186.256C62.1396 185.861 62.5129 185.552 62.9822 185.328C63.4516 185.093 63.9796 184.976 64.5662 184.976ZM74.9315 194.128C74.0568 194.128 73.2675 193.941 72.5635 193.568C71.8702 193.195 71.3208 192.661 70.9155 191.968C70.5208 191.275 70.3235 190.464 70.3235 189.536C70.3235 188.619 70.5262 187.813 70.9315 187.12C71.3368 186.416 71.8915 185.877 72.5955 185.504C73.2995 185.131 74.0888 184.944 74.9635 184.944C75.8382 184.944 76.6275 185.131 77.3315 185.504C78.0355 185.877 78.5902 186.416 78.9955 187.12C79.4008 187.813 79.6035 188.619 79.6035 189.536C79.6035 190.453 79.3955 191.264 78.9795 191.968C78.5742 192.661 78.0142 193.195 77.2995 193.568C76.5955 193.941 75.8062 194.128 74.9315 194.128ZM74.9315 191.76C75.4542 191.76 75.8968 191.568 76.2595 191.184C76.6328 190.8 76.8195 190.251 76.8195 189.536C76.8195 188.821 76.6382 188.272 76.2755 187.888C75.9235 187.504 75.4862 187.312 74.9635 187.312C74.4302 187.312 73.9875 187.504 73.6355 187.888C73.2835 188.261 73.1075 188.811 73.1075 189.536C73.1075 190.251 73.2782 190.8 73.6195 191.184C73.9715 191.568 74.4088 191.76 74.9315 191.76ZM81.471 189.536C81.471 188.608 81.6577 187.797 82.031 187.104C82.415 186.411 82.943 185.877 83.615 185.504C84.2977 185.131 85.0763 184.944 85.951 184.944C87.071 184.944 88.0043 185.237 88.751 185.824C89.5083 186.411 90.0043 187.237 90.239 188.304H87.327C87.0817 187.621 86.607 187.28 85.903 187.28C85.4017 187.28 85.0017 187.477 84.703 187.872C84.4043 188.256 84.255 188.811 84.255 189.536C84.255 190.261 84.4043 190.821 84.703 191.216C85.0017 191.6 85.4017 191.792 85.903 191.792C86.607 191.792 87.0817 191.451 87.327 190.768H90.239C90.0043 191.813 89.5083 192.635 88.751 193.232C87.9937 193.829 87.0603 194.128 85.951 194.128C85.0763 194.128 84.2977 193.941 83.615 193.568C82.943 193.195 82.415 192.661 82.031 191.968C81.6577 191.275 81.471 190.464 81.471 189.536ZM92.1185 189.536C92.1185 188.608 92.3052 187.797 92.6785 187.104C93.0625 186.411 93.5905 185.877 94.2625 185.504C94.9452 185.131 95.7238 184.944 96.5985 184.944C97.7185 184.944 98.6518 185.237 99.3985 185.824C100.156 186.411 100.652 187.237 100.886 188.304H97.9745C97.7292 187.621 97.2545 187.28 96.5505 187.28C96.0492 187.28 95.6492 187.477 95.3505 187.872C95.0518 188.256 94.9025 188.811 94.9025 189.536C94.9025 190.261 95.0518 190.821 95.3505 191.216C95.6492 191.6 96.0492 191.792 96.5505 191.792C97.2545 191.792 97.7292 191.451 97.9745 190.768H100.886C100.652 191.813 100.156 192.635 99.3985 193.232C98.6412 193.829 97.7078 194.128 96.5985 194.128C95.7238 194.128 94.9452 193.941 94.2625 193.568C93.5905 193.195 93.0625 192.661 92.6785 191.968C92.3052 191.275 92.1185 190.464 92.1185 189.536ZM108.798 184.976C109.822 184.976 110.643 185.317 111.262 186C111.881 186.672 112.19 187.6 112.19 188.784V194H109.47V189.152C109.47 188.555 109.315 188.091 109.006 187.76C108.697 187.429 108.281 187.264 107.758 187.264C107.235 187.264 106.819 187.429 106.51 187.76C106.201 188.091 106.046 188.555 106.046 189.152V194H103.31V182.16H106.046V186.272C106.323 185.877 106.702 185.563 107.182 185.328C107.662 185.093 108.201 184.976 108.798 184.976ZM116.427 184.144C115.947 184.144 115.553 184.005 115.243 183.728C114.945 183.44 114.795 183.088 114.795 182.672C114.795 182.245 114.945 181.893 115.243 181.616C115.553 181.328 115.947 181.184 116.427 181.184C116.897 181.184 117.281 181.328 117.579 181.616C117.889 181.893 118.043 182.245 118.043 182.672C118.043 183.088 117.889 183.44 117.579 183.728C117.281 184.005 116.897 184.144 116.427 184.144ZM117.787 185.072V194H115.051V185.072H117.787Z" fill="#393A32"/>
<path d="M74.3746 140.504C73.5606 140.52 72.3806 140.581 71.6576 140.158C71.1816 139.88 71.0206 139.564 70.3906 139.605C69.8516 139.64 69.3806 139.957 69.1436 140.443C68.6436 141.471 69.7906 142.128 69.3926 143.118C68.9476 144.226 67.4186 144.245 66.4756 143.897C65.3986 143.499 64.5156 142.028 63.3156 142.173C62.2996 142.296 61.7496 143.259 61.7876 144.205C61.8126 144.834 62.1016 144.976 61.6076 145.323C61.0426 145.72 60.2146 145.477 59.5966 145.571C59.2546 145.623 58.9986 145.936 58.7206 145.993C58.4166 146.055 58.0706 145.87 57.7126 145.758C57.0366 145.545 56.3406 145.406 55.6576 145.218C56.9346 144.295 55.8966 142.928 55.2606 141.996C54.4116 140.753 53.4906 139.562 52.5436 138.393C50.5946 135.987 48.5186 133.674 46.7586 131.12C46.3536 130.533 45.9786 129.972 45.7466 129.325C45.5066 128.652 45.0116 128.297 44.6976 127.666C44.0466 126.355 43.5186 124.977 43.2086 123.544C42.9816 122.498 42.6266 120.85 43.9596 120.414C44.6836 120.177 44.8406 120.497 45.1606 121.08C45.5376 121.767 45.9446 122.438 46.3636 123.1C49.6586 128.295 53.9966 132.743 57.2116 137.992C57.5796 138.593 57.9316 139.204 58.2636 139.825C58.5986 140.452 58.8346 141.232 59.5566 141.509C60.7966 141.984 61.8746 140.748 61.4886 139.574C61.0266 138.171 60.0146 136.787 59.2196 135.555C58.4146 134.307 57.5516 133.098 56.6616 131.91C54.8106 129.438 52.8376 127.058 51.0116 124.567C50.0566 123.264 49.1406 121.931 48.3126 120.542C47.5956 119.34 46.6596 117.905 46.7626 116.442C46.8496 115.198 47.8246 114.112 49.0576 113.924C49.5286 113.852 50.4406 113.855 50.8166 114.216C51.1866 114.57 51.4256 115.531 51.6986 115.996C53.2036 118.564 55.4896 119.959 57.6496 121.886C59.7796 123.787 61.1026 126.431 62.4456 128.904C63.1906 130.276 63.9206 131.657 64.6376 133.044C65.1576 134.051 65.6896 136.079 67.0996 136.065C67.7426 136.058 68.3186 135.639 68.5186 135.031C68.7426 134.35 68.3866 133.786 68.0856 133.193C67.3796 131.806 66.6626 130.424 65.9306 129.05C64.5486 126.454 63.2106 123.733 61.3486 121.438C59.5146 119.177 56.7666 117.891 55.0196 115.583C53.6816 113.816 51.9626 110.563 54.8616 109.453C55.5966 109.172 56.7916 108.638 57.4956 109.262C57.9676 109.681 58.3136 110.521 58.6906 111.041C59.1416 111.663 59.6166 112.268 60.1036 112.862C62.0326 115.211 64.1936 117.36 66.0976 119.731C67.0786 120.953 67.9846 122.235 68.8266 123.556C68.9506 122.571 69.2726 121.624 69.9896 120.912C70.0536 120.848 70.4226 120.609 70.4306 120.536C70.4436 120.422 70.0736 120.027 70.0026 119.927C69.6776 119.471 69.3456 119.021 69.0046 118.577C67.6346 116.791 66.1056 115.139 64.6006 113.468C63.2316 111.948 61.8736 110.407 60.7136 108.719C60.4036 108.267 59.4216 107.186 59.5306 106.589C59.6146 106.129 60.4196 106.265 60.8836 106.269C60.1986 106.002 59.6226 105.54 59.1356 104.997C58.9246 104.762 58.7296 104.509 58.5536 104.247C58.2266 103.76 58.2036 103.638 57.6906 104.023C57.1896 104.399 56.8406 104.913 56.6596 105.51C56.4806 106.101 56.4216 105.968 55.8496 106.056C55.4346 106.12 55.0256 106.23 54.6266 106.357C53.3676 106.759 52.0836 107.271 51.2576 108.354C50.8536 108.883 50.5746 109.503 50.4136 110.148C50.3816 110.278 50.3786 110.5 50.3156 110.615C50.1036 111.005 50.5616 110.818 49.9496 110.9C49.5816 110.949 49.1866 110.881 48.8116 110.926C45.8946 111.273 43.6566 113.886 43.7666 116.822C43.7896 117.435 43.8246 117.347 43.2386 117.509C42.9576 117.587 42.6806 117.692 42.4186 117.821C41.7626 118.145 41.1836 118.626 40.7666 119.229C39.8886 120.498 39.8926 122.081 40.1506 123.543C40.4346 125.154 40.9606 126.717 41.6326 128.205C41.6836 128.318 41.9366 128.745 41.9216 128.821C41.9066 128.899 41.6296 129.024 41.5766 129.096C41.3756 129.367 41.0876 129.572 40.8886 129.856C40.4946 130.42 40.2456 131.088 40.2036 131.777C40.0196 134.754 42.3906 138.028 44.2456 140.135C46.3836 142.563 48.9956 144.553 51.5936 146.462C52.9426 147.453 54.3106 147.983 55.9266 148.379C56.6036 148.545 57.2536 148.887 57.9246 149.03C58.2546 149.1 58.5906 149.064 58.8926 148.917C59.3036 148.718 59.3156 148.585 59.7736 148.564C61.4006 148.489 63.1576 148.362 64.3016 147.02C64.3776 146.931 64.4436 146.792 64.5286 146.716C64.8706 146.407 64.4206 146.39 65.0546 146.556C65.4636 146.663 65.8446 146.861 66.2626 146.956C67.1046 147.148 67.9816 147.162 68.8246 146.968C70.3916 146.607 71.7536 145.542 72.2726 143.99C72.4416 143.486 72.2826 143.476 72.7796 143.434C73.2166 143.397 73.7036 143.507 74.1446 143.509C75.0656 143.514 75.9966 143.405 76.8576 143.062C75.8836 142.331 75.0396 141.533 74.3746 140.504C74.6286 140.898 73.8596 140.514 74.3746 140.504ZM47.1706 138.883C46.0966 137.772 45.1246 136.544 44.3756 135.19C43.9286 134.381 42.7156 132.376 43.4056 131.495C46.1006 135.783 49.7646 139.339 52.6386 143.495C50.7346 142.059 48.8316 140.601 47.1706 138.883C48.8216 140.591 45.2846 136.93 47.1706 138.883Z" fill="#393A32"/>
<path d="M92.7106 121.882C93.7126 124.871 93.8186 128.174 94.0726 131.293C94.2036 132.903 94.1136 134.674 94.4366 136.253C94.6706 137.398 96.0506 137.975 96.9506 137.116C97.8936 136.216 97.2896 134.027 97.2056 132.885C97.0816 131.201 96.9406 129.517 96.7786 127.836C96.6246 126.24 96.4666 124.638 96.1416 123.066C96.0736 122.735 96.0426 122.081 95.8386 121.808C95.6216 121.517 95.2116 121.58 94.8086 121.486C94.6126 121.44 94.0786 121.175 93.8926 121.185C93.6126 121.199 92.9896 121.745 92.7106 121.882C93.1076 121.688 93.1896 123.31 92.7106 121.882Z" fill="#393A32"/>
<path d="M106.059 115.404C107.25 119.149 108.338 122.937 109.065 126.802C109.42 128.692 109.682 130.598 109.841 132.514C109.897 133.197 109.881 133.898 110.467 134.36C110.976 134.761 111.704 134.787 112.239 134.423C113.485 133.575 112.72 130.953 112.565 129.732C112.326 127.853 111.99 125.987 111.582 124.138C110.755 120.381 109.639 116.696 108.449 113.04C107.881 113.812 107.059 115.184 106.059 115.404C106.336 115.343 107.445 119.765 106.059 115.404Z" fill="#393A32"/>
<path d="M100.366 120.424C101.48 123.955 102.168 127.593 102.37 131.293C102.466 133.046 102.458 134.805 102.342 136.557C102.29 137.349 102.053 138.233 102.677 138.867C103.077 139.274 103.696 139.419 104.236 139.233C105.755 138.708 105.388 136.177 105.423 134.941C105.473 133.19 105.424 131.436 105.274 129.691C104.95 125.907 104.126 122.211 102.941 118.607C102.175 119.3 101.256 119.902 100.366 120.424C101.278 119.89 100.497 120.837 100.366 120.424Z" fill="#393A32"/>
<path d="M115.395 106.069C114.805 105.754 114.112 105.592 113.456 105.778C113.246 105.838 112.981 106.081 112.792 106.104C112.501 106.14 112.097 105.785 111.787 105.613C111.627 106.341 111.424 107.059 111.184 107.764C111.062 108.121 110.873 108.398 111.031 108.675C111.211 108.99 111.797 109.31 112.061 109.606C112.854 110.497 113.107 111.996 113.45 113.131C114.437 116.401 115.216 119.734 115.782 123.103C116.053 124.718 116.134 126.387 116.451 127.989C116.676 129.127 117.973 129.793 118.928 128.955C119.963 128.048 119.228 125.842 119.064 124.686C118.825 123.008 118.535 121.338 118.195 119.678C117.498 116.271 116.529 112.958 115.494 109.642C117.895 111.317 119.81 113.663 121.057 116.305C121.681 117.628 122.141 119.031 122.406 120.47C122.533 121.162 122.617 121.861 122.651 122.563C122.685 123.248 122.505 124.089 122.704 124.745C123.119 126.112 125.093 126.127 125.554 124.792C125.973 123.582 125.652 121.79 125.472 120.554C125.061 117.735 124.019 115.015 122.471 112.626C120.701 109.899 118.265 107.603 115.395 106.069C121.975 109.587 114.265 105.466 115.395 106.069Z" fill="#393A32"/>
<path d="M75.1586 117.68C75.1046 118.314 75.0616 118.949 75.0436 119.585C75.0366 119.847 75.1126 120.279 75.0376 120.526C74.9066 120.958 74.9506 120.809 74.4756 120.981C73.1496 121.464 72.2556 122.532 71.9386 123.897C71.2946 126.677 71.9176 129.811 72.8256 132.455C73.8206 135.355 75.3436 138.056 76.8846 140.695C77.6116 141.94 78.4406 142.966 79.5836 143.853C80.0876 144.244 80.6256 144.6 81.0956 145.033C81.5736 145.474 81.9396 146.001 82.6616 145.991C83.0506 145.985 83.1856 145.865 83.5226 145.934C83.8266 145.997 84.1766 146.251 84.4766 146.358C85.1296 146.59 85.8266 146.731 86.5206 146.747C87.1456 146.761 87.7776 146.673 88.3486 146.408C88.4626 146.355 88.9636 145.954 89.0546 145.961C89.2086 145.973 89.7696 146.702 89.9226 146.83C91.9186 148.496 95.1006 148.8 96.9476 146.733C96.9696 146.709 97.3286 146.26 97.3356 146.259C97.4746 146.23 98.0766 146.658 98.2156 146.727C98.8146 147.026 99.4326 147.295 100.081 147.47C101.468 147.844 102.927 147.761 104.156 146.97C104.417 146.802 104.662 146.608 104.883 146.389C105.249 146.026 105.101 146.007 105.558 146.05C106.116 146.102 106.693 146.436 107.275 146.507C108.553 146.662 109.882 146.433 111.009 145.801C112.122 145.176 112.969 144.177 113.56 143.059C113.684 142.825 113.78 142.425 113.948 142.227C114.245 141.875 114.124 141.992 114.635 142.034C115.364 142.094 116.106 141.973 116.777 141.682C117.858 141.213 118.687 140.322 119.227 139.29C119.452 138.859 119.57 137.834 119.874 137.522C120.001 137.392 120.486 137.301 120.662 137.217C121.01 137.051 121.341 136.848 121.65 136.618C123.698 135.092 124.781 132.259 125.048 129.782C125.166 128.684 124.252 127.667 123.095 128.06C121.81 128.497 121.892 130.439 121.546 131.518C121.176 132.67 120.58 133.868 119.461 134.456C118.986 134.706 118.477 134.648 117.999 134.849C117.355 135.12 117.176 135.665 117.059 136.294C116.875 137.283 116.54 138.618 115.449 138.968C114.231 139.359 113.61 137.653 112.326 138.513C111.443 139.105 111.406 140.686 110.939 141.591C110.373 142.686 109.48 143.493 108.205 143.554C107.155 143.604 106.387 143.178 105.651 142.497C104.624 141.548 103.099 141.973 102.985 143.461C102.851 145.213 100.893 144.684 99.7536 144.144C99.2266 143.894 98.4116 143.594 98.0226 143.135C97.8016 142.875 97.7486 142.54 97.4896 142.291C96.4766 141.316 94.9066 142.177 94.9546 143.501C94.9736 144.02 95.0766 144.372 94.6456 144.797C94.1906 145.246 93.5066 145.268 92.9206 145.108C91.3716 144.683 91.0736 143.31 90.2716 142.156C89.5516 141.12 88.0656 141.353 87.4416 142.351C87.1866 142.759 87.2016 143.559 86.8466 143.741C86.2246 144.06 85.2406 143.331 84.6766 143.184C84.3606 143.101 84.1376 143.194 83.8346 143.175C83.6246 143.347 83.4616 143.304 83.3456 143.045C83.1946 142.898 83.0396 142.757 82.8786 142.621C82.3376 142.158 81.7516 141.75 81.1956 141.306C82.2046 141.081 82.4306 140.151 82.2946 139.262C82.1066 138.029 81.8116 136.804 81.5056 135.596C80.8616 133.058 80.0446 130.568 79.3546 128.043C78.7576 125.859 78.2946 123.653 78.0946 121.395C78.0706 121.129 78.0846 120.838 78.0366 120.576C77.9366 120.028 77.8116 119.99 77.2886 119.722C76.3506 119.24 75.7446 118.551 75.1586 117.68C75.7366 118.539 75.0756 118.652 75.1586 117.68ZM78.3926 135.551C78.6566 136.537 78.9006 137.529 79.1026 138.531C77.6736 136.028 76.2436 133.478 75.4126 130.703C75.0506 129.496 74.8036 128.248 74.7376 126.988C74.6936 126.16 74.4806 124.337 75.3566 123.863C75.9816 127.852 77.3526 131.662 78.3926 135.551C78.0886 134.414 78.6586 136.545 78.3926 135.551Z" fill="#393A32"/>
<path d="M82.3056 121.751C83.0906 125.03 84.0456 128.268 84.7776 131.56C85.1666 133.311 85.4846 135.078 85.6676 136.863C85.7886 138.044 85.6956 140.091 87.4996 139.84C89.1406 139.612 88.7696 137.736 88.6526 136.576C88.4836 134.908 88.2026 133.255 87.8556 131.615C87.1246 128.157 86.1086 124.768 85.2866 121.331C84.3246 121.683 83.3266 121.856 82.3056 121.751C82.4266 121.763 82.3646 122 82.3056 121.751Z" fill="#393A32"/>
<path d="M109.991 92.408C109.745 91.774 109.308 91.181 108.671 90.902C108.499 90.827 107.987 90.83 107.874 90.732C107.669 90.554 107.527 89.615 107.411 89.335C106.809 87.885 105.774 86.225 104.325 85.487C103.948 85.295 103.537 85.174 103.115 85.141C102.847 85.12 102.05 85.377 101.859 85.289C101.71 85.22 101.561 84.294 101.482 84.079C101.295 83.569 101.076 83.071 100.819 82.593C100.223 81.484 99.3546 80.429 98.0236 80.268C97.6906 80.228 97.1616 80.43 96.8796 80.361C96.5666 80.285 96.3716 79.822 96.1226 79.503C95.6806 78.937 95.1526 78.417 94.6136 77.943C93.9956 77.4 93.3066 76.952 92.5036 76.742C92.0786 76.631 91.6336 76.591 91.1956 76.603C90.7386 76.616 90.1006 76.93 89.6816 76.883C89.3686 76.848 89.3456 76.462 89.1666 76.114C88.9836 75.76 88.7646 75.423 88.5136 75.114C87.9376 74.404 87.1906 73.838 86.3496 73.477C84.8526 72.834 83.0916 72.849 81.6176 73.551C81.5076 73.603 81.2476 73.797 81.1116 73.825C80.5656 73.938 81.0646 73.976 80.6956 73.739C80.3946 73.545 80.1586 73.139 79.8616 72.909C79.2056 72.402 78.4136 72.071 77.5846 72.011C75.7846 71.879 74.2136 72.956 72.8926 74.051C72.2176 74.61 71.5866 75.22 70.9936 75.865C70.6836 76.202 70.3846 76.549 70.0956 76.904C69.9066 77.136 69.8896 77.235 69.6336 77.231C69.4196 77.227 69.1156 77.002 68.8876 76.939C67.1006 76.439 65.6316 77.277 64.4046 78.51C61.8536 81.074 60.3756 84.478 59.4436 87.924C58.9256 89.839 58.5366 91.794 58.1856 93.746C57.8336 95.705 58.2276 97.362 58.4696 99.293C58.5756 100.135 58.7926 100.533 59.3196 101.183C59.8146 101.793 60.0576 102.455 60.4716 103.114C60.8876 103.778 61.4366 104.409 62.0886 104.85C62.4186 105.073 62.7866 105.255 63.1696 105.369C63.2906 105.405 63.6126 105.422 63.7366 105.488C63.9846 105.409 64.0786 105.477 64.0196 105.691C64.0186 105.877 64.0276 106.062 64.0466 106.246C64.1916 107.829 64.9356 109.362 66.2166 110.332C66.8406 110.804 67.5756 111.125 68.3526 111.232C68.8396 111.299 69.2836 111.183 69.7596 111.19C70.2776 111.198 70.1326 111.228 70.3666 111.809C70.9666 113.297 71.8156 114.859 73.3056 115.617C74.0356 115.988 74.9006 116.181 75.7186 116.139C76.2756 116.111 76.2816 115.973 76.5816 116.514C76.8166 116.938 77.0996 117.339 77.4206 117.702C78.5376 118.965 80.1496 119.759 81.8436 119.792C82.7376 119.81 83.6256 119.583 84.4556 119.266C84.8416 119.119 85.3766 118.77 85.6836 118.875C85.9976 118.983 86.4026 119.591 86.7216 119.794C88.1576 120.709 89.8636 120.683 91.3946 120.026C91.8136 119.846 92.1866 119.562 92.5996 119.383C93.0926 119.169 93.2576 119.357 93.8086 119.483C94.7486 119.698 95.7426 119.699 96.6866 119.511C98.4966 119.15 100.197 118.033 101.607 116.879C102.165 116.422 102.603 115.859 102.384 115.085C102.144 114.235 101.203 113.806 100.395 114.109C99.6766 114.378 99.0426 115.082 98.4046 115.504C97.5616 116.06 96.6346 116.558 95.6106 116.648C94.7956 116.72 94.2706 116.475 93.5816 116.12C92.7766 115.705 92.2086 115.91 91.5226 116.448C90.8526 116.973 90.0266 117.583 89.1226 117.519C88.1556 117.451 88.0096 116.894 87.7896 116.132C87.1166 113.794 84.8106 115.843 83.6386 116.359C82.0526 117.058 80.3256 116.843 79.3376 115.298C78.6656 114.246 79.0336 111.752 77.0456 112.184C76.2686 112.353 76.1216 113.21 75.2836 113.136C74.5306 113.069 74.0416 112.448 73.6866 111.84C73.0946 110.827 72.6296 109.749 72.7836 108.614C72.8726 107.956 72.5756 107.281 71.9496 106.996C71.0486 106.586 70.4786 107.109 69.9476 107.735C68.6836 109.223 67.1716 107.318 67.0356 105.983C66.8876 104.53 68.3156 102.226 66.1606 101.674C65.7786 101.576 65.4296 101.618 65.0606 101.746C64.7226 101.864 64.3936 102.28 64.0816 102.343C63.5116 102.459 63.0276 101.597 62.7556 101.071C62.5696 100.711 62.4636 100.373 62.1186 100.125C61.7086 99.83 61.6276 99.925 61.5716 99.389C61.4816 98.527 61.2506 97.691 61.0906 96.841C62.3506 97.516 63.0856 96.324 63.6296 95.388C64.3566 94.137 65.0076 92.844 65.6246 91.536C66.8736 88.888 67.9706 86.167 69.3386 83.576C69.6706 82.948 70.0166 82.328 70.3846 81.72C70.6866 81.219 71.1676 80.955 71.4386 80.461C71.7146 79.958 71.8356 79.537 72.2126 79.059C72.6876 78.455 73.1946 77.875 73.7386 77.333C74.5426 76.534 75.5516 75.534 76.6496 75.14C77.2346 74.93 77.7996 74.98 78.2456 75.452C78.9056 76.15 78.2886 76.601 77.8576 77.237C74.6556 81.966 72.5976 87.327 69.8736 92.321C69.1966 93.562 68.4766 94.781 67.6846 95.953C67.0856 96.839 65.7666 97.973 66.2376 99.147C66.6566 100.19 67.9536 100.344 68.7176 99.61C69.6626 98.702 70.3806 97.348 71.0656 96.24C74.0426 91.424 76.0576 86.097 78.9076 81.211C79.9966 79.343 81.6266 75.855 84.2286 76.02C85.4946 76.1 86.5266 77.025 86.7586 78.273C86.8776 78.913 86.5726 79.112 86.2066 79.583C85.7206 80.208 85.2866 80.878 84.9096 81.575C83.5366 84.116 83.5546 87.01 82.4866 89.642C81.4036 92.309 79.5356 94.659 77.8626 96.974C77.0506 98.098 76.2296 99.215 75.3996 100.326C74.7096 101.25 73.4396 102.622 74.7826 103.636C75.9536 104.52 76.8446 103.397 77.4916 102.534C78.3546 101.382 79.2116 100.225 80.0566 99.059C81.7406 96.735 83.5396 94.403 84.8006 91.812C86.0806 89.182 86.0586 86.202 87.2606 83.577C88.0816 81.785 90.3566 78.254 92.6246 80.191C93.1696 80.657 94.0106 81.37 94.1816 82.094C94.3236 82.694 93.8906 83.16 93.6106 83.647C93.1796 84.396 92.7836 85.166 92.4126 85.946C91.2066 88.477 90.2746 91.123 89.1626 93.694C88.0206 96.337 86.6276 98.861 84.9926 101.231C84.1376 102.47 83.2126 103.659 82.2386 104.806C81.8256 105.292 81.4046 105.77 80.9706 106.236C80.4296 106.818 79.6386 107.385 79.2206 108.059C78.6066 109.049 79.2676 110.396 80.4646 110.396C81.7376 110.396 82.9926 108.493 83.7636 107.635C87.6026 103.362 90.4816 98.458 92.6396 93.151C93.7106 90.516 94.6906 87.826 96.0906 85.341C96.2936 84.98 97.1216 83.188 97.6416 83.247C97.8586 83.272 98.1436 83.956 98.2126 84.085C98.5906 84.793 98.8666 85.559 99.0386 86.343C99.2046 87.103 99.2626 87.595 98.9466 88.3C98.7226 88.801 98.5236 89.315 98.3156 89.822C97.7256 91.259 97.1306 92.693 96.5156 94.119C95.3336 96.862 94.0806 99.579 92.6646 102.21C92.0346 103.381 91.3786 104.539 90.6776 105.669C89.8716 106.967 88.8526 108.158 88.0816 109.469C87.4926 110.469 87.9676 111.867 89.2826 111.867C90.5306 111.867 91.3606 110.06 91.9616 109.183C95.2856 104.342 97.7486 98.962 100.013 93.563C100.51 92.377 100.992 91.184 101.486 89.996C101.823 89.186 102.401 87.544 103.38 88.522C104.19 89.33 104.733 90.455 104.987 91.558C105.122 92.143 105.236 92.838 105.142 93.438C105.066 93.924 104.808 94.394 104.612 94.858C103.505 97.483 102.286 100.06 100.913 102.558C99.5606 105.02 97.8666 107.281 96.5006 109.72C96.0276 110.564 96.2606 111.652 97.2516 111.986C98.7016 112.475 99.4046 110.76 100.035 109.798C101.687 107.272 103.233 104.672 104.61 101.985C105.751 99.759 106.742 97.475 107.732 95.18C108.716 99.002 108.24 103.173 106.536 106.722C106.141 107.545 105.678 108.337 105.15 109.082C104.652 109.784 103.936 110.382 103.485 111.105C102.582 112.553 104.351 114.107 105.694 113.081C107.043 112.049 108.107 110.208 108.895 108.733C109.754 107.124 110.392 105.393 110.784 103.612C111.604 99.903 111.367 95.958 109.991 92.408C111.379 95.988 109.527 91.214 109.991 92.408ZM65.8906 83.751C64.3396 86.949 63.0496 90.274 61.3106 93.379C61.8586 90.536 62.4386 87.659 63.6286 85.003C64.1216 83.903 64.7166 82.844 65.4446 81.881C65.9626 81.196 67.0376 79.599 68.0266 79.813C67.2396 81.084 66.5416 82.407 65.8906 83.751C66.4876 82.519 65.3066 84.954 65.8906 83.751Z" fill="#393A32"/>
</svg>
