<svg width="158" height="224" viewBox="0 0 158 224" fill="none" xmlns="http://www.w3.org/2000/svg">
<rect width="158" height="224" rx="5" fill="#FFD300"/>
<mask id="path-2-inside-1" fill="white">
<rect x="9" y="9" width="140" height="207" rx="2"/>
</mask>
<rect x="9" y="9" width="140" height="207" rx="2" fill="white" stroke="#2179B9" stroke-width="14" mask="url(#path-2-inside-1)"/>
<path d="M47.5328 45.288C46.3208 45.288 45.2288 45 44.2568 44.424C43.2848 43.836 42.5228 43.038 41.9708 42.03C41.4188 41.022 41.1428 39.912 41.1428 38.7C41.1428 37.536 41.4188 36.468 41.9708 35.496C42.5348 34.524 43.3148 33.756 44.3108 33.192C45.3068 32.628 46.4408 32.346 47.7128 32.346C48.4088 32.346 49.0808 32.424 49.7288 32.58C50.3888 32.736 50.9828 32.958 51.5108 33.246L50.3228 36.036C49.5068 35.7 48.7448 35.532 48.0368 35.532C47.1128 35.532 46.3988 35.832 45.8948 36.432C45.3908 37.02 45.1388 37.794 45.1388 38.754C45.1388 39.378 45.2528 39.942 45.4808 40.446C45.7088 40.938 46.0268 41.328 46.4348 41.616C46.8548 41.904 47.3288 42.048 47.8568 42.048C48.1448 42.048 48.3848 42.024 48.5768 41.976V39.078L51.6908 38.718V44.352C50.3348 44.976 48.9488 45.288 47.5328 45.288ZM54.448 36.108H58.066V37.944C58.762 36.552 59.866 35.856 61.378 35.856C62.53 35.856 63.43 36.27 64.078 37.098C64.738 37.914 65.068 39.048 65.068 40.5V45H61.288V40.122C61.288 39.606 61.174 39.21 60.946 38.934C60.73 38.658 60.424 38.52 60.028 38.52C59.74 38.52 59.458 38.616 59.182 38.808C58.906 38.988 58.678 39.252 58.498 39.6C58.33 39.948 58.246 40.344 58.246 40.788V45H54.448V36.108ZM72.6194 45.144C71.6114 45.144 70.7114 44.946 69.9194 44.55C69.1394 44.154 68.5274 43.608 68.0834 42.912C67.6514 42.204 67.4354 41.394 67.4354 40.482C67.4354 39.57 67.6574 38.766 68.1014 38.07C68.5454 37.362 69.1574 36.816 69.9374 36.432C70.7294 36.048 71.6294 35.856 72.6374 35.856C73.6574 35.856 74.5574 36.054 75.3374 36.45C76.1294 36.834 76.7414 37.374 77.1734 38.07C77.6054 38.766 77.8214 39.57 77.8214 40.482C77.8214 41.406 77.5994 42.222 77.1554 42.93C76.7234 43.626 76.1114 44.172 75.3194 44.568C74.5394 44.952 73.6394 45.144 72.6194 45.144ZM72.6554 42.444C73.1474 42.444 73.5494 42.264 73.8614 41.904C74.1854 41.532 74.3474 41.058 74.3474 40.482C74.3474 39.906 74.1854 39.438 73.8614 39.078C73.5494 38.706 73.1474 38.52 72.6554 38.52C72.1634 38.52 71.7554 38.706 71.4314 39.078C71.1194 39.438 70.9634 39.906 70.9634 40.482C70.9634 41.058 71.1194 41.532 71.4314 41.904C71.7554 42.264 72.1634 42.444 72.6554 42.444ZM84.6966 45.144C83.7366 45.144 82.8846 44.952 82.1406 44.568C81.4086 44.172 80.8326 43.62 80.4126 42.912C80.0046 42.204 79.8006 41.4 79.8006 40.5C79.8006 39.636 80.0166 38.85 80.4486 38.142C80.8806 37.434 81.4686 36.876 82.2126 36.468C82.9566 36.06 83.7846 35.856 84.6966 35.856C85.8606 35.856 86.7786 36.096 87.4506 36.576L87.1086 38.97C86.4246 38.766 85.8606 38.664 85.4166 38.664C84.8406 38.664 84.3846 38.832 84.0486 39.168C83.7126 39.492 83.5446 39.936 83.5446 40.5C83.5446 41.064 83.7126 41.514 84.0486 41.85C84.3846 42.186 84.8286 42.354 85.3806 42.354C85.8606 42.354 86.4246 42.252 87.0726 42.048L87.4146 44.568C87.0066 44.772 86.5926 44.916 86.1726 45C85.7526 45.096 85.2606 45.144 84.6966 45.144ZM94.1613 45.144C93.2013 45.144 92.3493 44.952 91.6053 44.568C90.8733 44.172 90.2973 43.62 89.8773 42.912C89.4693 42.204 89.2653 41.4 89.2653 40.5C89.2653 39.636 89.4813 38.85 89.9133 38.142C90.3453 37.434 90.9333 36.876 91.6773 36.468C92.4213 36.06 93.2493 35.856 94.1613 35.856C95.3253 35.856 96.2433 36.096 96.9153 36.576L96.5734 38.97C95.8893 38.766 95.3253 38.664 94.8813 38.664C94.3053 38.664 93.8493 38.832 93.5133 39.168C93.1773 39.492 93.0093 39.936 93.0093 40.5C93.0093 41.064 93.1773 41.514 93.5133 41.85C93.8493 42.186 94.2933 42.354 94.8453 42.354C95.3253 42.354 95.8894 42.252 96.5373 42.048L96.8793 44.568C96.4714 44.772 96.0574 44.916 95.6373 45C95.2173 45.096 94.7253 45.144 94.1613 45.144ZM99.2856 33.138L103.084 32.58V37.836C103.348 37.2 103.744 36.714 104.272 36.378C104.812 36.03 105.46 35.856 106.216 35.856C107.368 35.856 108.268 36.27 108.916 37.098C109.576 37.914 109.906 39.048 109.906 40.5V45H106.126V40.122C106.126 39.606 106.012 39.21 105.784 38.934C105.568 38.658 105.262 38.52 104.866 38.52C104.578 38.52 104.296 38.616 104.02 38.808C103.744 38.988 103.516 39.252 103.336 39.6C103.168 39.948 103.084 40.344 103.084 40.788V45H99.2856V33.138ZM115.891 45.144C114.883 45.144 114.097 44.82 113.533 44.172C112.969 43.524 112.687 42.642 112.687 41.526V35.982H116.503V41.364C116.503 41.64 116.575 41.856 116.719 42.012C116.875 42.156 117.073 42.228 117.313 42.228C117.553 42.228 117.799 42.156 118.051 42.012L118.249 44.514C117.985 44.718 117.637 44.874 117.205 44.982C116.785 45.09 116.347 45.144 115.891 45.144ZM114.595 34.632C114.031 34.632 113.551 34.458 113.155 34.11C112.771 33.75 112.579 33.312 112.579 32.796C112.579 32.28 112.783 31.848 113.191 31.5C113.599 31.152 114.067 30.978 114.595 30.978C115.147 30.978 115.621 31.158 116.017 31.518C116.425 31.878 116.629 32.304 116.629 32.796C116.629 33.324 116.425 33.762 116.017 34.11C115.609 34.458 115.135 34.632 114.595 34.632Z" fill="#393A32"/>
<path d="M56.8019 163.072H59.2139V164.296C59.6779 163.368 60.4139 162.904 61.4219 162.904C62.1899 162.904 62.7899 163.18 63.2219 163.732C63.6619 164.276 63.8819 165.032 63.8819 166V169H61.3619V165.748C61.3619 165.404 61.2859 165.14 61.1339 164.956C60.9899 164.772 60.7859 164.68 60.5219 164.68C60.3299 164.68 60.1419 164.744 59.9579 164.872C59.7739 164.992 59.6219 165.168 59.5019 165.4C59.3899 165.632 59.3339 165.896 59.3339 166.192V169H56.8019V163.072ZM68.4362 169.096C67.7642 169.096 67.1642 168.964 66.6362 168.7C66.1162 168.436 65.7082 168.072 65.4122 167.608C65.1242 167.136 64.9802 166.596 64.9802 165.988C64.9802 165.38 65.1282 164.844 65.4242 164.38C65.7202 163.908 66.1282 163.544 66.6482 163.288C67.1762 163.032 67.7762 162.904 68.4482 162.904C69.1282 162.904 69.7282 163.036 70.2482 163.3C70.7762 163.556 71.1842 163.916 71.4722 164.38C71.7602 164.844 71.9042 165.38 71.9042 165.988C71.9042 166.604 71.7562 167.148 71.4602 167.62C71.1722 168.084 70.7642 168.448 70.2362 168.712C69.7162 168.968 69.1162 169.096 68.4362 169.096ZM68.4602 167.296C68.7882 167.296 69.0562 167.176 69.2642 166.936C69.4802 166.688 69.5882 166.372 69.5882 165.988C69.5882 165.604 69.4802 165.292 69.2642 165.052C69.0562 164.804 68.7882 164.68 68.4602 164.68C68.1322 164.68 67.8602 164.804 67.6442 165.052C67.4362 165.292 67.3322 165.604 67.3322 165.988C67.3322 166.372 67.4362 166.688 67.6442 166.936C67.8602 167.176 68.1322 167.296 68.4602 167.296ZM76.0076 169.096C75.3676 169.096 74.7996 168.968 74.3036 168.712C73.8156 168.448 73.4316 168.08 73.1516 167.608C72.8796 167.136 72.7436 166.6 72.7436 166C72.7436 165.424 72.8876 164.9 73.1756 164.428C73.4636 163.956 73.8556 163.584 74.3516 163.312C74.8476 163.04 75.3996 162.904 76.0076 162.904C76.7836 162.904 77.3956 163.064 77.8436 163.384L77.6156 164.98C77.1596 164.844 76.7836 164.776 76.4876 164.776C76.1036 164.776 75.7996 164.888 75.5756 165.112C75.3516 165.328 75.2396 165.624 75.2396 166C75.2396 166.376 75.3516 166.676 75.5756 166.9C75.7996 167.124 76.0956 167.236 76.4636 167.236C76.7836 167.236 77.1596 167.168 77.5916 167.032L77.8196 168.712C77.5476 168.848 77.2716 168.944 76.9916 169C76.7116 169.064 76.3836 169.096 76.0076 169.096ZM81.8374 169.096C81.1974 169.096 80.6294 168.968 80.1334 168.712C79.6454 168.448 79.2614 168.08 78.9814 167.608C78.7094 167.136 78.5734 166.6 78.5734 166C78.5734 165.424 78.7174 164.9 79.0054 164.428C79.2934 163.956 79.6854 163.584 80.1814 163.312C80.6774 163.04 81.2294 162.904 81.8374 162.904C82.6134 162.904 83.2254 163.064 83.6734 163.384L83.4454 164.98C82.9894 164.844 82.6134 164.776 82.3174 164.776C81.9334 164.776 81.6294 164.888 81.4054 165.112C81.1814 165.328 81.0694 165.624 81.0694 166C81.0694 166.376 81.1814 166.676 81.4054 166.9C81.6294 167.124 81.9254 167.236 82.2934 167.236C82.6134 167.236 82.9894 167.168 83.4214 167.032L83.6494 168.712C83.3774 168.848 83.1014 168.944 82.8214 169C82.5414 169.064 82.2134 169.096 81.8374 169.096ZM84.7736 161.092L87.3056 160.72V164.224C87.4816 163.8 87.7456 163.476 88.0976 163.252C88.4576 163.02 88.8896 162.904 89.3936 162.904C90.1616 162.904 90.7616 163.18 91.1936 163.732C91.6336 164.276 91.8536 165.032 91.8536 166V169H89.3336V165.748C89.3336 165.404 89.2576 165.14 89.1056 164.956C88.9616 164.772 88.7576 164.68 88.4936 164.68C88.3016 164.68 88.1136 164.744 87.9296 164.872C87.7456 164.992 87.5936 165.168 87.4736 165.4C87.3616 165.632 87.3056 165.896 87.3056 166.192V169H84.7736V161.092ZM95.3639 169.096C94.6919 169.096 94.1679 168.88 93.7919 168.448C93.4159 168.016 93.2279 167.428 93.2279 166.684V162.988H95.7719V166.576C95.7719 166.76 95.8199 166.904 95.9159 167.008C96.0199 167.104 96.1519 167.152 96.3119 167.152C96.4719 167.152 96.6359 167.104 96.8039 167.008L96.9359 168.676C96.7599 168.812 96.5279 168.916 96.2399 168.988C95.9599 169.06 95.6679 169.096 95.3639 169.096ZM94.4999 162.088C94.1239 162.088 93.8039 161.972 93.5399 161.74C93.2839 161.5 93.1559 161.208 93.1559 160.864C93.1559 160.52 93.2919 160.232 93.5639 160C93.8359 159.768 94.1479 159.652 94.4999 159.652C94.8679 159.652 95.1839 159.772 95.4479 160.012C95.7199 160.252 95.8559 160.536 95.8559 160.864C95.8559 161.216 95.7199 161.508 95.4479 161.74C95.1759 161.972 94.8599 162.088 94.4999 162.088ZM101.031 169.096C100.359 169.096 99.7587 168.964 99.2307 168.7C98.7107 168.436 98.3027 168.072 98.0067 167.608C97.7187 167.136 97.5747 166.596 97.5747 165.988C97.5747 165.38 97.7227 164.844 98.0187 164.38C98.3147 163.908 98.7227 163.544 99.2427 163.288C99.7707 163.032 100.371 162.904 101.043 162.904C101.723 162.904 102.323 163.036 102.843 163.3C103.371 163.556 103.779 163.916 104.067 164.38C104.355 164.844 104.499 165.38 104.499 165.988C104.499 166.604 104.351 167.148 104.055 167.62C103.767 168.084 103.359 168.448 102.831 168.712C102.311 168.968 101.711 169.096 101.031 169.096ZM101.055 167.296C101.383 167.296 101.651 167.176 101.859 166.936C102.075 166.688 102.183 166.372 102.183 165.988C102.183 165.604 102.075 165.292 101.859 165.052C101.651 164.804 101.383 164.68 101.055 164.68C100.727 164.68 100.455 164.804 100.239 165.052C100.031 165.292 99.9267 165.604 99.9267 165.988C99.9267 166.372 100.031 166.688 100.239 166.936C100.455 167.176 100.727 167.296 101.055 167.296Z" fill="#2179B9"/>
<path d="M32.2905 184.672C32.2905 183.752 32.3425 183.092 32.4465 182.692C32.5585 182.284 32.7785 182.004 33.1065 181.852C33.4425 181.7 33.9905 181.624 34.7505 181.624V183.028C34.3425 183.028 34.0745 183.036 33.9465 183.052C33.8185 183.068 33.7345 183.116 33.6945 183.196C33.6545 183.276 33.6345 183.428 33.6345 183.652H34.7505V185.896H32.2905V184.672ZM35.4105 184.672C35.4105 183.752 35.4625 183.092 35.5665 182.692C35.6785 182.284 35.8985 182.004 36.2265 181.852C36.5625 181.7 37.1105 181.624 37.8705 181.624V183.028C37.4625 183.028 37.1945 183.036 37.0665 183.052C36.9385 183.068 36.8545 183.116 36.8145 183.196C36.7745 183.276 36.7545 183.428 36.7545 183.652H37.8705V185.896H35.4105V184.672ZM45.1628 190.096C44.6268 190.096 44.1948 190.028 43.8668 189.892C43.5468 189.748 43.2828 189.512 43.0748 189.184C42.8668 188.856 42.6828 188.388 42.5228 187.78L41.8148 188.344V190H39.2708L39.2828 182.092L41.8268 181.72L41.8148 185.824L44.8988 183.304L46.2788 185.188L44.3468 186.532C44.4428 187.14 44.5788 187.564 44.7548 187.804C44.9388 188.044 45.2068 188.164 45.5588 188.164C45.7028 188.164 45.8748 188.14 46.0748 188.092L45.8348 190.06C45.5948 190.084 45.3708 190.096 45.1628 190.096ZM47.186 184.072H49.598V185.296C50.062 184.368 50.798 183.904 51.806 183.904C52.574 183.904 53.174 184.18 53.606 184.732C54.046 185.276 54.266 186.032 54.266 187V190H51.746V186.748C51.746 186.404 51.67 186.14 51.518 185.956C51.374 185.772 51.17 185.68 50.906 185.68C50.714 185.68 50.526 185.744 50.342 185.872C50.158 185.992 50.006 186.168 49.886 186.4C49.774 186.632 49.718 186.896 49.718 187.192V190H47.186V184.072ZM58.8203 190.096C58.1483 190.096 57.5483 189.964 57.0203 189.7C56.5003 189.436 56.0923 189.072 55.7963 188.608C55.5083 188.136 55.3643 187.596 55.3643 186.988C55.3643 186.38 55.5123 185.844 55.8083 185.38C56.1043 184.908 56.5123 184.544 57.0323 184.288C57.5603 184.032 58.1603 183.904 58.8323 183.904C59.5123 183.904 60.1123 184.036 60.6323 184.3C61.1603 184.556 61.5683 184.916 61.8563 185.38C62.1443 185.844 62.2883 186.38 62.2883 186.988C62.2883 187.604 62.1403 188.148 61.8443 188.62C61.5563 189.084 61.1483 189.448 60.6203 189.712C60.1003 189.968 59.5003 190.096 58.8203 190.096ZM58.8443 188.296C59.1723 188.296 59.4403 188.176 59.6483 187.936C59.8643 187.688 59.9723 187.372 59.9723 186.988C59.9723 186.604 59.8643 186.292 59.6483 186.052C59.4403 185.804 59.1723 185.68 58.8443 185.68C58.5163 185.68 58.2443 185.804 58.0283 186.052C57.8203 186.292 57.7163 186.604 57.7163 186.988C57.7163 187.372 57.8203 187.688 58.0283 187.936C58.2443 188.176 58.5163 188.296 58.8443 188.296ZM66.0089 190.096C65.3049 190.096 64.7569 189.896 64.3649 189.496C63.9729 189.088 63.7769 188.528 63.7769 187.816V185.476H63.0089V183.988H63.9569L65.0729 181.72H66.2849V183.988H67.6769V185.476H66.2849V187.516C66.2849 187.716 66.3489 187.872 66.4769 187.984C66.6049 188.096 66.7849 188.152 67.0169 188.152C67.2329 188.152 67.4289 188.104 67.6049 188.008L67.7009 189.688C67.5009 189.808 67.2409 189.908 66.9209 189.988C66.6089 190.06 66.3049 190.096 66.0089 190.096ZM73.426 190.096C72.754 190.096 72.23 189.88 71.854 189.448C71.478 189.016 71.29 188.428 71.29 187.684V183.988H73.834V187.576C73.834 187.76 73.882 187.904 73.978 188.008C74.082 188.104 74.214 188.152 74.374 188.152C74.534 188.152 74.698 188.104 74.866 188.008L74.998 189.676C74.822 189.812 74.59 189.916 74.302 189.988C74.022 190.06 73.73 190.096 73.426 190.096ZM72.562 183.088C72.186 183.088 71.866 182.972 71.602 182.74C71.346 182.5 71.218 182.208 71.218 181.864C71.218 181.52 71.354 181.232 71.626 181C71.898 180.768 72.21 180.652 72.562 180.652C72.93 180.652 73.246 180.772 73.51 181.012C73.782 181.252 73.918 181.536 73.918 181.864C73.918 182.216 73.782 182.508 73.51 182.74C73.238 182.972 72.922 183.088 72.562 183.088ZM75.9368 184.072H78.3488V185.296C78.8128 184.368 79.5488 183.904 80.5568 183.904C81.3248 183.904 81.9248 184.18 82.3568 184.732C82.7968 185.276 83.0168 186.032 83.0168 187V190H80.4968V186.748C80.4968 186.404 80.4208 186.14 80.2688 185.956C80.1248 185.772 79.9208 185.68 79.6568 185.68C79.4648 185.68 79.2768 185.744 79.0928 185.872C78.9088 185.992 78.7568 186.168 78.6368 186.4C78.5248 186.632 78.4688 186.896 78.4688 187.192V190H75.9368V184.072ZM86.5334 183.988H88.9814L89.6654 187.888L90.4934 183.988H92.5574L93.3974 187.984L94.0814 183.988H96.0494L94.8014 190H91.9334L91.2614 186.82L90.6254 190H87.8534L86.5334 183.988ZM100.215 190.096C99.5431 190.096 98.9431 189.964 98.4151 189.7C97.8951 189.436 97.4871 189.072 97.1911 188.608C96.9031 188.136 96.7591 187.596 96.7591 186.988C96.7591 186.38 96.9071 185.844 97.2031 185.38C97.4991 184.908 97.9071 184.544 98.4271 184.288C98.9551 184.032 99.5551 183.904 100.227 183.904C100.907 183.904 101.507 184.036 102.027 184.3C102.555 184.556 102.963 184.916 103.251 185.38C103.539 185.844 103.683 186.38 103.683 186.988C103.683 187.604 103.535 188.148 103.239 188.62C102.951 189.084 102.543 189.448 102.015 189.712C101.495 189.968 100.895 190.096 100.215 190.096ZM100.239 188.296C100.567 188.296 100.835 188.176 101.043 187.936C101.259 187.688 101.367 187.372 101.367 186.988C101.367 186.604 101.259 186.292 101.043 186.052C100.835 185.804 100.567 185.68 100.239 185.68C99.9111 185.68 99.6391 185.804 99.4231 186.052C99.2151 186.292 99.1111 186.604 99.1111 186.988C99.1111 187.372 99.2151 187.688 99.4231 187.936C99.6391 188.176 99.9111 188.296 100.239 188.296ZM107.979 190.096C107.307 190.096 106.707 189.964 106.179 189.7C105.659 189.436 105.251 189.072 104.955 188.608C104.667 188.136 104.523 187.596 104.523 186.988C104.523 186.38 104.671 185.844 104.967 185.38C105.263 184.908 105.671 184.544 106.191 184.288C106.719 184.032 107.319 183.904 107.991 183.904C108.671 183.904 109.271 184.036 109.791 184.3C110.319 184.556 110.727 184.916 111.015 185.38C111.303 185.844 111.447 186.38 111.447 186.988C111.447 187.604 111.299 188.148 111.003 188.62C110.715 189.084 110.307 189.448 109.779 189.712C109.259 189.968 108.659 190.096 107.979 190.096ZM108.003 188.296C108.331 188.296 108.599 188.176 108.807 187.936C109.023 187.688 109.131 187.372 109.131 186.988C109.131 186.604 109.023 186.292 108.807 186.052C108.599 185.804 108.331 185.68 108.003 185.68C107.675 185.68 107.403 185.804 107.187 186.052C106.979 186.292 106.875 186.604 106.875 186.988C106.875 187.372 106.979 187.688 107.187 187.936C107.403 188.176 107.675 188.296 108.003 188.296ZM115.214 190.096C114.67 190.096 114.174 189.952 113.726 189.664C113.286 189.376 112.938 188.996 112.682 188.524C112.426 188.044 112.298 187.536 112.298 187C112.298 186.432 112.43 185.912 112.694 185.44C112.966 184.96 113.326 184.584 113.774 184.312C114.23 184.04 114.714 183.904 115.226 183.904C115.69 183.904 116.082 184 116.402 184.192C116.73 184.384 116.994 184.692 117.194 185.116V182.092L119.726 181.72V190H117.194V188.884C116.818 189.692 116.158 190.096 115.214 190.096ZM116.006 188.2C116.342 188.2 116.622 188.08 116.846 187.84C117.078 187.6 117.194 187.32 117.194 187V186.952C117.194 186.64 117.074 186.372 116.834 186.148C116.594 185.916 116.318 185.8 116.006 185.8C115.67 185.8 115.386 185.92 115.154 186.16C114.93 186.392 114.818 186.672 114.818 187C114.818 187.336 114.934 187.62 115.166 187.852C115.406 188.084 115.686 188.2 116.006 188.2ZM121.133 184.612C121.541 184.612 121.809 184.604 121.937 184.588C122.065 184.572 122.149 184.524 122.189 184.444C122.229 184.364 122.249 184.212 122.249 183.988H121.133V181.744H123.593V182.968C123.593 183.888 123.537 184.552 123.425 184.96C123.321 185.36 123.101 185.636 122.765 185.788C122.437 185.94 121.893 186.016 121.133 186.016V184.612ZM124.253 184.612C124.661 184.612 124.929 184.604 125.057 184.588C125.185 184.572 125.269 184.524 125.309 184.444C125.349 184.364 125.369 184.212 125.369 183.988H124.253V181.744H126.713V182.968C126.713 183.888 126.657 184.552 126.545 184.96C126.441 185.36 126.221 185.636 125.885 185.788C125.557 185.94 125.013 186.016 124.253 186.016V184.612Z" fill="#393A32"/>
<rect x="46" y="59.9014" width="65.45" height="0.897773" fill="#082D74"/>
<rect x="57.7809" y="59" width="13.9627" height="3.1422" fill="#3F8D43"/>
<rect x="71.7455" y="59" width="13.9627" height="3.1422" fill="white"/>
<rect x="85.7046" y="59" width="13.9627" height="3.1422" fill="#D12C29"/>
<path d="M71.8636 137.507C71.1327 137.521 70.0732 137.576 69.4241 137.196C68.9967 136.946 68.8522 136.663 68.2865 136.699C67.8026 136.731 67.3797 137.015 67.1669 137.452C66.7179 138.375 67.7478 138.965 67.3904 139.854C66.9909 140.848 65.6181 140.866 64.7714 140.553C63.8044 140.196 63.0116 138.875 61.9342 139.005C61.0219 139.116 60.5281 139.98 60.5622 140.83C60.5847 141.394 60.8442 141.522 60.4006 141.833C59.8933 142.19 59.1499 141.972 58.595 142.056C58.288 142.103 58.0581 142.384 57.8085 142.435C57.5355 142.491 57.2249 142.325 56.9035 142.224C56.2965 142.033 55.6716 141.908 55.0584 141.739C56.2049 140.91 55.2729 139.683 54.7019 138.846C53.9396 137.73 53.1127 136.661 52.2624 135.611C50.5125 133.451 48.6485 131.374 47.0683 129.081C46.7047 128.554 46.368 128.05 46.1597 127.469C45.9442 126.865 45.4997 126.546 45.2178 125.98C44.6333 124.803 44.1592 123.566 43.8809 122.279C43.6771 121.34 43.3584 119.86 44.5552 119.469C45.2053 119.256 45.3462 119.543 45.6335 120.067C45.972 120.683 46.3375 121.286 46.7137 121.88C49.6721 126.545 53.567 130.538 56.4536 135.251C56.784 135.791 57.1001 136.339 57.3982 136.897C57.699 137.46 57.9108 138.16 58.5591 138.409C59.6724 138.835 60.6403 137.726 60.2938 136.672C59.879 135.412 58.9703 134.169 58.2565 133.063C57.5337 131.943 56.7589 130.857 55.9598 129.79C54.2979 127.571 52.5264 125.434 50.8869 123.197C50.0294 122.028 49.207 120.831 48.4636 119.584C47.8198 118.504 46.9794 117.216 47.0719 115.902C47.15 114.785 48.0254 113.81 49.1325 113.642C49.5554 113.577 50.3742 113.58 50.7118 113.904C51.044 114.222 51.2586 115.084 51.5037 115.502C52.855 117.808 54.9075 119.06 56.8469 120.79C58.7593 122.497 59.9472 124.871 61.153 127.091C61.8219 128.323 62.4774 129.563 63.1211 130.809C63.588 131.713 64.0657 133.534 65.3316 133.521C65.909 133.515 66.4261 133.139 66.6057 132.593C66.8068 131.981 66.4872 131.475 66.2169 130.942C65.5831 129.697 64.9393 128.456 64.2821 127.223C63.0412 124.892 61.8399 122.449 60.1681 120.388C58.5214 118.358 56.0541 117.203 54.4855 115.131C53.2842 113.545 51.7408 110.624 54.3437 109.627C55.0036 109.375 56.0765 108.895 56.7086 109.456C57.1324 109.832 57.4431 110.586 57.7816 111.053C58.1865 111.611 58.613 112.155 59.0502 112.688C60.7822 114.797 62.7225 116.727 64.432 118.855C65.3128 119.953 66.1263 121.104 66.8822 122.29C66.9936 121.405 67.2827 120.555 67.9265 119.916C67.9839 119.858 68.3152 119.644 68.3224 119.578C68.3341 119.476 68.0019 119.121 67.9381 119.031C67.6463 118.622 67.3482 118.218 67.0421 117.819C65.812 116.216 64.4392 114.732 63.0879 113.232C61.8587 111.867 60.6394 110.484 59.5979 108.968C59.3196 108.562 58.4379 107.592 58.5358 107.056C58.6112 106.643 59.334 106.765 59.7506 106.768C59.1355 106.529 58.6184 106.114 58.1811 105.626C57.9917 105.415 57.8166 105.188 57.6586 104.953C57.365 104.516 57.3443 104.406 56.8837 104.752C56.4339 105.089 56.1205 105.551 55.958 106.087C55.7973 106.618 55.7443 106.498 55.2307 106.577C54.8581 106.635 54.4909 106.733 54.1327 106.847C53.0023 107.208 51.8494 107.668 51.1078 108.64C50.745 109.115 50.4945 109.672 50.35 110.251C50.3212 110.368 50.3186 110.567 50.262 110.671C50.0716 111.021 50.4829 110.853 49.9334 110.926C49.603 110.97 49.2483 110.909 48.9116 110.95C46.2926 111.261 44.2832 113.607 44.3819 116.244C44.4026 116.794 44.434 116.715 43.9078 116.86C43.6555 116.93 43.4068 117.025 43.1716 117.14C42.5826 117.431 42.0627 117.863 41.6883 118.405C40.9 119.544 40.9036 120.965 41.1353 122.278C41.3903 123.724 41.8625 125.128 42.4659 126.464C42.5117 126.565 42.7388 126.949 42.7254 127.017C42.7119 127.087 42.4632 127.199 42.4156 127.264C42.2351 127.507 41.9766 127.691 41.7979 127.946C41.4441 128.453 41.2206 129.052 41.1828 129.671C41.0176 132.344 43.1465 135.284 44.812 137.175C46.7316 139.355 49.0768 141.142 51.4095 142.856C52.6207 143.746 53.8489 144.222 55.2999 144.577C55.9077 144.726 56.4913 145.033 57.0938 145.162C57.3901 145.225 57.6918 145.192 57.9629 145.06C58.3319 144.882 58.3427 144.762 58.7539 144.743C60.2148 144.676 61.7923 144.562 62.8194 143.357C62.8877 143.277 62.9469 143.152 63.0233 143.084C63.3303 142.807 62.9263 142.791 63.4955 142.94C63.8628 143.037 64.2048 143.214 64.5801 143.3C65.3361 143.472 66.1236 143.485 66.8805 143.31C68.2874 142.986 69.5103 142.03 69.9763 140.637C70.128 140.184 69.9853 140.175 70.4315 140.137C70.8239 140.104 71.2611 140.203 71.6571 140.205C72.484 140.209 73.3199 140.111 74.093 139.803C73.2184 139.147 72.4606 138.431 71.8636 137.507C71.4012 137.516 72.0916 137.86 71.8636 137.507ZM47.4382 136.051C46.4739 135.054 45.6012 133.951 44.9287 132.735C44.5274 132.009 43.4383 130.209 44.0578 129.418C46.4775 133.268 49.7673 136.461 52.3477 140.192C50.6382 138.903 48.9296 137.594 47.4382 136.051C45.7449 134.298 48.9206 137.585 47.4382 136.051Z" fill="#393A32"/>
<path d="M88.3268 120.787C89.2264 123.47 89.3216 126.436 89.5497 129.236C89.6673 130.682 89.5865 132.272 89.8765 133.69C90.0866 134.718 91.3256 135.236 92.1337 134.465C92.9804 133.657 92.4381 131.691 92.3627 130.666C92.2513 129.154 92.1247 127.642 91.9793 126.133C91.841 124.7 91.6991 123.261 91.4073 121.85C91.3463 121.553 91.3184 120.965 91.1353 120.72C90.9404 120.459 90.5723 120.516 90.2105 120.431C90.0345 120.39 89.5551 120.152 89.3881 120.161C89.1366 120.173 88.5773 120.664 88.3268 120.787C88.7569 122.069 88.6832 120.613 88.3268 120.787Z" fill="#393A32"/>
<path d="M100.311 114.971C101.381 118.333 102.358 121.734 103.01 125.204C103.329 126.901 103.564 128.613 103.707 130.333C103.757 130.946 103.743 131.576 104.269 131.99C104.726 132.351 105.38 132.374 105.86 132.047C106.979 131.286 106.292 128.931 106.153 127.835C105.938 126.148 105.636 124.473 105.27 122.813C104.528 119.439 103.526 116.131 102.457 112.848C101.947 113.541 101.209 114.773 100.311 114.971C101.556 118.886 100.56 114.916 100.311 114.971Z" fill="#393A32"/>
<path d="M95.1998 119.478C96.2 122.648 96.8178 125.915 96.9991 129.237C97.0853 130.811 97.0781 132.39 96.974 133.963C96.9273 134.674 96.7145 135.468 97.2748 136.037C97.6339 136.403 98.1897 136.533 98.6745 136.366C100.038 135.895 99.7089 133.622 99.7403 132.512C99.7852 130.94 99.7412 129.365 99.6065 127.799C99.3156 124.401 98.5758 121.083 97.5118 117.847C96.8241 118.469 95.9989 119.009 95.1998 119.478C95.3174 119.849 96.0187 118.999 95.1998 119.478Z" fill="#393A32"/>
<path d="M108.694 106.589C108.164 106.306 107.542 106.161 106.953 106.328C106.764 106.382 106.526 106.6 106.357 106.621C106.095 106.653 105.733 106.334 105.454 106.18C105.311 106.833 105.128 107.478 104.913 108.111C104.803 108.432 104.634 108.68 104.775 108.929C104.937 109.212 105.463 109.499 105.7 109.765C106.412 110.565 106.639 111.911 106.947 112.93C107.834 115.866 108.533 118.858 109.041 121.883C109.284 123.333 109.357 124.832 109.642 126.27C109.844 127.292 111.008 127.89 111.866 127.138C112.795 126.323 112.135 124.342 111.988 123.305C111.773 121.798 111.513 120.299 111.208 118.808C110.582 115.749 109.712 112.774 108.783 109.797C110.938 111.301 112.658 113.407 113.777 115.78C114.338 116.967 114.751 118.227 114.989 119.519C115.103 120.14 115.178 120.768 115.209 121.398C115.239 122.013 115.077 122.769 115.256 123.358C115.629 124.585 117.401 124.598 117.815 123.4C118.191 122.313 117.903 120.704 117.741 119.595C117.372 117.064 116.437 114.621 115.047 112.476C113.458 110.028 111.271 107.966 108.694 106.589C107.679 106.048 114.602 109.748 108.694 106.589Z" fill="#393A32"/>
<path d="M72.5675 117.014C72.5191 117.583 72.4804 118.154 72.4643 118.725C72.458 118.96 72.5262 119.348 72.4589 119.569C72.3413 119.957 72.3808 119.824 71.9543 119.978C70.7637 120.412 69.9611 121.371 69.6764 122.596C69.0982 125.092 69.6576 127.906 70.4728 130.28C71.3662 132.884 72.7336 135.309 74.1172 137.678C74.77 138.796 75.5143 139.717 76.5406 140.514C76.9931 140.865 77.4761 141.185 77.8981 141.573C78.3273 141.969 78.6559 142.442 79.3042 142.433C79.6534 142.428 79.7746 142.32 80.0772 142.382C80.3502 142.439 80.6644 142.667 80.9338 142.763C81.5201 142.971 82.1459 143.098 82.769 143.112C83.3302 143.125 83.8976 143.046 84.4103 142.808C84.5126 142.76 84.9625 142.4 85.0442 142.406C85.1824 142.417 85.6861 143.072 85.8235 143.187C87.6156 144.683 90.4726 144.956 92.131 143.1C92.1507 143.078 92.4731 142.675 92.4793 142.674C92.6041 142.648 93.1447 143.032 93.2695 143.094C93.8073 143.363 94.3622 143.604 94.944 143.761C96.1893 144.097 97.4993 144.023 98.6027 143.312C98.8371 143.162 99.0571 142.987 99.2555 142.791C99.5841 142.465 99.4512 142.448 99.8615 142.486C100.363 142.533 100.881 142.833 101.403 142.897C102.551 143.036 103.744 142.83 104.756 142.263C105.755 141.702 106.516 140.805 107.046 139.801C107.158 139.591 107.244 139.232 107.395 139.054C107.661 138.738 107.553 138.843 108.011 138.881C108.666 138.934 109.332 138.826 109.935 138.565C110.905 138.143 111.65 137.343 112.134 136.417C112.336 136.03 112.442 135.11 112.715 134.829C112.829 134.713 113.265 134.631 113.423 134.556C113.735 134.407 114.032 134.224 114.31 134.018C116.149 132.648 117.121 130.104 117.361 127.88C117.467 126.894 116.646 125.981 115.607 126.334C114.454 126.726 114.527 128.47 114.216 129.439C113.884 130.473 113.349 131.549 112.344 132.077C111.918 132.301 111.461 132.249 111.032 132.429C110.454 132.673 110.293 133.162 110.188 133.727C110.023 134.615 109.722 135.814 108.742 136.128C107.649 136.479 107.091 134.947 105.938 135.719C105.145 136.251 105.112 137.67 104.693 138.483C104.185 139.466 103.383 140.191 102.238 140.245C101.295 140.29 100.606 139.908 99.945 139.296C99.0229 138.444 97.6537 138.826 97.5513 140.162C97.431 141.735 95.673 141.26 94.6504 140.775C94.1772 140.551 93.4454 140.281 93.0962 139.869C92.8977 139.636 92.8502 139.335 92.6176 139.111C91.7081 138.236 90.2984 139.009 90.3415 140.198C90.3586 140.664 90.4511 140.98 90.0641 141.361C89.6556 141.765 89.0414 141.784 88.5153 141.641C87.1245 141.259 86.857 140.026 86.1369 138.99C85.4904 138.06 84.1562 138.269 83.5959 139.165C83.367 139.532 83.3804 140.25 83.0617 140.413C82.5032 140.7 81.6197 140.045 81.1134 139.913C80.8296 139.839 80.6294 139.922 80.3574 139.905C80.1688 140.059 80.0225 140.021 79.9183 139.788C79.7827 139.656 79.6436 139.53 79.499 139.408C79.0133 138.992 78.4871 138.626 77.9879 138.227C78.8938 138.025 79.0968 137.19 78.9747 136.392C78.8059 135.285 78.541 134.185 78.2662 133.1C77.688 130.821 76.9545 128.586 76.3349 126.319C75.7989 124.358 75.3832 122.377 75.2036 120.35C75.1821 120.111 75.1947 119.85 75.1516 119.614C75.0618 119.122 74.9496 119.088 74.48 118.848C73.6378 118.415 73.0937 117.796 72.5675 117.014C72.493 117.887 73.0865 117.785 72.5675 117.014ZM75.4712 133.06C75.7082 133.945 75.9273 134.836 76.1087 135.735C74.8256 133.488 73.5417 131.199 72.7956 128.707C72.4706 127.623 72.2488 126.503 72.1895 125.371C72.15 124.628 71.9588 122.991 72.7453 122.566C73.3065 126.147 74.5374 129.568 75.4712 133.06C75.71 133.952 75.1983 132.039 75.4712 133.06Z" fill="#393A32"/>
<path d="M78.9846 120.669C79.6894 123.613 80.5469 126.52 81.2041 129.476C81.5534 131.048 81.8389 132.635 82.0032 134.238C82.1119 135.298 82.0284 137.136 83.6481 136.91C85.1215 136.706 84.7884 135.021 84.6833 133.98C84.5316 132.482 84.2793 130.998 83.9677 129.526C83.3114 126.421 82.3992 123.378 81.6611 120.292C80.7974 120.608 79.9013 120.763 78.9846 120.669C79.0376 120.893 79.0933 120.68 78.9846 120.669Z" fill="#393A32"/>
<path d="M103.842 94.3235C103.621 93.7543 103.229 93.2218 102.657 92.9713C102.502 92.904 102.042 92.9067 101.941 92.8187C101.757 92.6589 101.629 91.8158 101.525 91.5644C100.985 90.2625 100.055 88.772 98.7545 88.1094C98.416 87.937 98.047 87.8284 97.6681 87.7988C97.4274 87.7799 96.7119 88.0107 96.5404 87.9317C96.4066 87.8697 96.2728 87.0383 96.2019 86.8452C96.034 86.3873 95.8373 85.9402 95.6066 85.511C95.0715 84.5153 94.2921 83.5681 93.0971 83.4235C92.7981 83.3876 92.3231 83.569 92.0699 83.507C91.7889 83.4388 91.6138 83.0231 91.3902 82.7366C90.9934 82.2285 90.5193 81.7616 90.0354 81.336C89.4805 80.8484 88.8619 80.4462 88.1409 80.2577C87.7593 80.158 87.3598 80.1221 86.9665 80.1329C86.5562 80.1445 85.9833 80.4265 85.6071 80.3843C85.3261 80.3528 85.3055 80.0063 85.1447 79.6938C84.9804 79.376 84.7838 79.0734 84.5584 78.7959C84.0413 78.1585 83.3706 77.6503 82.6155 77.3261C81.2714 76.7488 79.6903 76.7623 78.3668 77.3926C78.268 77.4393 78.0346 77.6135 77.9125 77.6386C77.4223 77.7401 77.8703 77.7742 77.539 77.5614C77.2687 77.3872 77.0568 77.0227 76.7902 76.8162C76.2012 76.3609 75.4901 76.0638 74.7457 76.0099C73.1296 75.8914 71.7191 76.8584 70.533 77.8415C69.9269 78.3434 69.3604 78.8911 68.828 79.4702C68.5496 79.7728 68.2812 80.0844 68.0217 80.4031C67.852 80.6114 67.8367 80.7003 67.6069 80.6967C67.4147 80.6931 67.1418 80.4911 66.9371 80.4345C65.3326 79.9856 64.0136 80.738 62.912 81.8451C60.6215 84.1472 59.2945 87.2035 58.4577 90.2975C57.9926 92.0169 57.6433 93.7722 57.3282 95.5248C57.0121 97.2837 57.3659 98.7715 57.5832 100.505C57.6783 101.261 57.8732 101.619 58.3464 102.202C58.7908 102.75 59.009 103.344 59.3807 103.936C59.7542 104.532 60.2471 105.099 60.8325 105.495C61.1288 105.695 61.4592 105.858 61.8031 105.961C61.9118 105.993 62.2009 106.008 62.3122 106.067C62.5349 105.997 62.6193 106.058 62.5663 106.25C62.5654 106.417 62.5735 106.583 62.5905 106.748C62.7207 108.169 63.3887 109.546 64.5389 110.417C65.0992 110.841 65.7591 111.129 66.4567 111.225C66.894 111.285 67.2926 111.181 67.72 111.187C68.1851 111.194 68.0549 111.221 68.265 111.743C68.8037 113.079 69.566 114.481 70.9038 115.162C71.5592 115.495 72.3359 115.668 73.0703 115.631C73.5704 115.605 73.5758 115.482 73.8452 115.967C74.0562 116.348 74.3103 116.708 74.5985 117.034C75.6014 118.168 77.0488 118.881 78.5697 118.91C79.3724 118.927 80.1697 118.723 80.9149 118.438C81.2615 118.306 81.7419 117.993 82.0175 118.087C82.2994 118.184 82.6631 118.73 82.9495 118.912C84.2388 119.734 85.7705 119.71 87.1452 119.121C87.5214 118.959 87.8563 118.704 88.2271 118.543C88.6697 118.351 88.8179 118.52 89.3126 118.633C90.1566 118.826 91.0491 118.827 91.8966 118.658C93.5218 118.334 95.0481 117.331 96.3141 116.295C96.8151 115.885 97.2084 115.379 97.0117 114.684C96.7963 113.921 95.9514 113.536 95.2259 113.808C94.5812 114.049 94.012 114.682 93.4392 115.06C92.6823 115.56 91.8499 116.007 90.9305 116.088C90.1988 116.152 89.7274 115.932 89.1088 115.614C88.386 115.241 87.876 115.425 87.2601 115.908C86.6585 116.379 85.9169 116.927 85.1052 116.87C84.237 116.809 84.1059 116.308 83.9084 115.624C83.3041 113.525 81.2337 115.365 80.1814 115.828C78.7574 116.456 77.2068 116.263 76.3197 114.875C75.7163 113.931 76.0467 111.692 74.2618 112.08C73.5642 112.231 73.4322 113.001 72.6798 112.934C72.0037 112.874 71.5646 112.317 71.2459 111.771C70.7144 110.861 70.2969 109.893 70.4351 108.874C70.515 108.283 70.2484 107.677 69.6863 107.421C68.8773 107.053 68.3656 107.523 67.8888 108.085C66.7539 109.421 65.3963 107.711 65.2742 106.512C65.1414 105.207 66.4235 103.139 64.4886 102.643C64.1456 102.555 63.8323 102.593 63.501 102.708C63.1975 102.814 62.9021 103.187 62.622 103.244C62.1102 103.348 61.6756 102.574 61.4314 102.102C61.2644 101.778 61.1692 101.475 60.8595 101.252C60.4913 100.987 60.4186 101.073 60.3683 100.591C60.2875 99.8175 60.0801 99.0669 59.9365 98.3037C61.0678 98.9098 61.7277 97.8395 62.2161 96.9991C62.8689 95.8759 63.4534 94.715 64.0074 93.5406C65.1288 91.163 66.1137 88.72 67.342 86.3936C67.6401 85.8298 67.9508 85.2731 68.2812 84.7272C68.5523 84.2774 68.9842 84.0403 69.2275 83.5968C69.4753 83.1452 69.584 82.7672 69.9224 82.338C70.3489 81.7957 70.8041 81.2749 71.2926 80.7883C72.0145 80.0709 72.9204 79.173 73.9062 78.8193C74.4315 78.6307 74.9388 78.6756 75.3392 79.0994C75.9318 79.7261 75.3778 80.1311 74.9909 80.7021C72.1159 84.9481 70.2681 89.7615 67.8224 94.2454C67.2145 95.3596 66.568 96.4541 65.8569 97.5064C65.3191 98.3019 64.1349 99.3201 64.5577 100.374C64.9339 101.311 66.0985 101.449 66.7844 100.79C67.6329 99.9746 68.2776 98.7589 68.8926 97.7641C71.5655 93.44 73.3747 88.6571 75.9336 84.2702C76.9114 82.593 78.3749 79.4613 80.7111 79.6094C81.8478 79.6812 82.7744 80.5117 82.9827 81.6323C83.0895 82.2069 82.8157 82.3856 82.4871 82.8085C82.0507 83.3696 81.661 83.9712 81.3226 84.597C80.0898 86.8785 80.106 89.4769 79.147 91.84C78.1747 94.2346 76.4975 96.3446 74.9953 98.4231C74.2663 99.4323 73.5291 100.435 72.7839 101.433C72.1644 102.262 71.0241 103.494 72.2299 104.405C73.2813 105.198 74.0813 104.19 74.6622 103.415C75.4371 102.381 76.2066 101.342 76.9653 100.295C78.4772 98.2085 80.0925 96.1147 81.2247 93.7884C82.374 91.427 82.3542 88.7514 83.4334 86.3945C84.1706 84.7856 86.2132 81.6152 88.2495 83.3544C88.7389 83.7728 89.494 84.4129 89.6475 85.063C89.775 85.6017 89.3862 86.0201 89.1348 86.4574C88.7478 87.1299 88.3923 87.8212 88.0592 88.5215C86.9764 90.794 86.1396 93.1698 85.1412 95.4782C84.1158 97.8512 82.8651 100.117 81.3971 102.245C80.6294 103.358 79.7989 104.425 78.9244 105.455C78.5536 105.892 78.1756 106.321 77.7859 106.739C77.3001 107.262 76.5899 107.771 76.2146 108.376C75.6634 109.265 76.2568 110.474 77.3316 110.474C78.4746 110.474 79.6014 108.766 80.2936 107.995C83.7405 104.159 86.3254 99.7556 88.263 94.9906C89.2246 92.6248 90.1045 90.2095 91.3615 87.9783C91.5438 87.6542 92.2872 86.0452 92.7541 86.0982C92.9489 86.1207 93.2048 86.7348 93.2668 86.8506C93.6062 87.4863 93.854 88.1741 94.0084 88.878C94.1574 89.5604 94.2095 90.0021 93.9258 90.6351C93.7247 91.0849 93.546 91.5464 93.3592 92.0016C92.8295 93.2919 92.2953 94.5794 91.7431 95.8597C90.6818 98.3226 89.5568 100.762 88.2854 103.124C87.7198 104.176 87.1308 105.215 86.5014 106.23C85.7777 107.395 84.8628 108.465 84.1706 109.642C83.6417 110.54 84.0682 111.795 85.2489 111.795C86.3694 111.795 87.1146 110.173 87.6543 109.385C90.6387 105.039 92.8502 100.208 94.8829 95.3605C95.3291 94.2957 95.7619 93.2245 96.2055 92.1579C96.508 91.4306 97.027 89.9563 97.906 90.8344C98.6333 91.5599 99.1208 92.57 99.3489 93.5603C99.4701 94.0856 99.5724 94.7096 99.488 95.2483C99.4198 95.6847 99.1881 96.1067 99.0122 96.5233C98.0182 98.8801 96.9237 101.194 95.691 103.437C94.4771 105.647 92.9561 107.677 91.7296 109.867C91.3049 110.625 91.5141 111.602 92.4039 111.902C93.7058 112.341 94.337 110.801 94.9027 109.937C96.3859 107.669 97.774 105.335 99.0104 102.922C100.035 100.924 100.925 98.873 101.813 96.8124C102.697 100.244 102.27 103.989 100.74 107.175C100.385 107.914 99.9693 108.625 99.4952 109.294C99.0481 109.925 98.4052 110.462 98.0003 111.111C97.1895 112.411 98.7778 113.806 99.9836 112.885C101.195 111.958 102.15 110.305 102.858 108.981C103.629 107.536 104.202 105.982 104.554 104.383C105.29 101.053 105.077 97.5109 103.842 94.3235C103.425 93.2515 105.088 97.5378 103.842 94.3235ZM64.2462 86.5507C62.8536 89.4221 61.6954 92.4075 60.134 95.1953C60.626 92.6427 61.1468 90.0596 62.2152 87.6749C62.6579 86.6872 63.1921 85.7364 63.8457 84.8717C64.3108 84.2567 65.276 82.8228 66.164 83.015C65.4574 84.1562 64.8307 85.344 64.2462 86.5507C63.7218 87.6309 64.7822 85.4446 64.2462 86.5507Z" fill="#393A32"/>
</svg>
