<svg width="162" height="230" viewBox="0 0 162 230" fill="none" xmlns="http://www.w3.org/2000/svg">
<rect width="161.782" height="229.362" rx="5" fill="#F7575C"/>
<circle cx="80.891" cy="114.681" r="62.4601" fill="#E0D6D6"/>
<circle cx="80.891" cy="114.681" r="52.8509" fill="#3CAA90"/>
<circle cx="80.2904" cy="114.08" r="40.2387" fill="#E0D6D6"/>
<path d="M98.9685 119.109L103.023 118.298C104.055 118.094 104.967 117.498 105.57 116.636C106.173 115.774 106.42 114.713 106.258 113.673L105.062 105.892C104.918 104.926 104.43 104.044 103.689 103.408C102.947 102.772 102.002 102.425 101.025 102.429H91.5388L94.3302 99.0802C94.5214 98.8499 94.7611 98.6646 95.0322 98.5375C95.3033 98.4104 95.5991 98.3447 95.8984 98.3451H96.6938C96.9042 98.9403 97.2933 99.4559 97.808 99.8214C98.3226 100.187 98.9376 100.384 99.5689 100.387H103.653C104.465 100.387 105.244 100.064 105.819 99.49C106.393 98.9156 106.716 98.1365 106.716 97.3241C106.716 96.5118 106.393 95.7327 105.819 95.1583C105.244 94.5839 104.465 94.2612 103.653 94.2612H99.5689C98.9376 94.2638 98.3226 94.4614 97.808 94.8269C97.2933 95.1924 96.9042 95.708 96.6938 96.3032H95.8984C95.2996 96.3023 94.708 96.4335 94.1656 96.6874C93.6233 96.9414 93.1437 97.3118 92.761 97.7724L88.8812 102.429H85.1301C84.9045 101.555 84.3955 100.78 83.6828 100.226C82.9702 99.6719 82.094 99.3695 81.1912 99.3661H78.1282C78.1088 99.3661 78.0915 99.3763 78.0721 99.3773C77.3272 98.7166 76.3673 98.3497 75.3716 98.3451H59.7506C58.6674 98.3451 57.6287 98.7754 56.8628 99.5413C56.0969 100.307 55.6666 101.346 55.6666 102.429V109.576C55.6666 110.388 55.9893 111.167 56.5637 111.742C57.1382 112.316 57.9172 112.639 58.7296 112.639H59.7383C59.7313 116.336 59.3153 120.02 58.4978 123.626C58.4615 123.757 58.4518 123.895 58.4695 124.03C58.4872 124.165 58.5318 124.296 58.6008 124.413C58.6697 124.531 58.7615 124.634 58.8709 124.716C58.9802 124.797 59.1048 124.856 59.2373 124.889C59.3698 124.922 59.5075 124.927 59.6422 124.906C59.777 124.885 59.9061 124.836 60.0219 124.764C60.1377 124.692 60.2379 124.597 60.3165 124.486C60.3951 124.374 60.4505 124.248 60.4795 124.115C61.3364 120.349 61.7726 116.501 61.7803 112.639H63.8222C63.6507 124.574 60.5959 131.017 57.7086 131.017C57.4378 131.017 57.1781 131.124 56.9866 131.316C56.7952 131.507 56.6876 131.767 56.6876 132.038C56.6876 132.308 56.7952 132.568 56.9866 132.759C57.1781 132.951 57.4378 133.059 57.7086 133.059C62.4613 133.059 65.6876 124.891 65.8601 112.639H68.9231C68.7556 124.574 65.7008 131.017 62.8135 131.017C62.5427 131.017 62.283 131.124 62.0916 131.316C61.9001 131.507 61.7925 131.767 61.7925 132.038C61.7925 132.308 61.9001 132.568 62.0916 132.759C62.283 132.951 62.5427 133.059 62.8135 133.059C67.5662 133.059 70.7925 124.891 70.965 112.639H74.028C73.8605 124.574 70.8058 131.017 67.9184 131.017C67.6476 131.017 67.3879 131.124 67.1965 131.316C67.005 131.507 66.8974 131.767 66.8974 132.038C66.8974 132.308 67.005 132.568 67.1965 132.759C67.3879 132.951 67.6476 133.059 67.9184 133.059C72.6711 133.059 75.8974 124.891 76.0699 112.639H77.7198L77.1154 116.568C77.079 116.806 77.1278 117.049 77.2534 117.254C77.3789 117.46 77.5731 117.614 77.8015 117.691L81.135 118.802C81.7458 119.004 82.2771 119.394 82.6538 119.916C83.0304 120.438 83.2331 121.065 83.2332 121.708V129.996H75.5155C74.8735 129.997 74.248 130.2 73.7275 130.576C73.207 130.951 72.8178 131.481 72.6149 132.091L72.0595 133.757C72.0085 133.91 71.9946 134.073 72.0187 134.232C72.0429 134.392 72.1045 134.544 72.1986 134.675C72.2926 134.806 72.4164 134.913 72.5598 134.987C72.7031 135.061 72.862 135.1 73.0233 135.101H104.674C104.836 135.101 104.995 135.062 105.139 134.988C105.283 134.915 105.408 134.808 105.502 134.677C105.597 134.545 105.659 134.394 105.683 134.234C105.708 134.074 105.694 133.91 105.643 133.757L105.082 132.09C104.879 131.481 104.49 130.951 103.969 130.575C103.449 130.199 102.824 129.997 102.182 129.996H96.5059V122.113C96.5074 121.405 96.7533 120.719 97.2021 120.172C97.6508 119.625 98.2748 119.249 98.9685 119.109V119.109ZM99.5689 96.3032H103.653C103.924 96.3032 104.183 96.4107 104.375 96.6022C104.566 96.7937 104.674 97.0534 104.674 97.3241C104.674 97.5949 104.566 97.8546 104.375 98.0461C104.183 98.2376 103.924 98.3451 103.653 98.3451H99.5689C99.2981 98.3451 99.0384 98.2376 98.8469 98.0461C98.6555 97.8546 98.5479 97.5949 98.5479 97.3241C98.5479 97.0534 98.6555 96.7937 98.8469 96.6022C99.0384 96.4107 99.2981 96.3032 99.5689 96.3032ZM82.9493 102.429H80.1702C80.159 102.429 80.1498 102.434 80.1386 102.435L79.5229 101.408H81.1912C81.548 101.409 81.8983 101.504 82.2069 101.683C82.5155 101.862 82.7715 102.12 82.9493 102.429ZM57.7086 109.576V102.429C57.7086 101.887 57.9237 101.368 58.3067 100.985C58.6896 100.602 59.209 100.387 59.7506 100.387H75.3716C75.724 100.388 76.0702 100.48 76.3769 100.653C76.6836 100.827 76.9404 101.077 77.1226 101.378L78.9797 104.471L78.0374 110.597H58.7296C58.4588 110.597 58.1991 110.489 58.0076 110.298C57.8162 110.106 57.7086 109.847 57.7086 109.576ZM103.149 132.736L103.257 133.059H74.4394L74.5466 132.736C74.6144 132.533 74.7444 132.356 74.9183 132.23C75.0922 132.105 75.3012 132.038 75.5155 132.038H102.182C102.396 132.038 102.604 132.105 102.778 132.231C102.952 132.356 103.082 132.533 103.149 132.736ZM85.2751 129.996V121.708C85.276 120.637 84.9393 119.592 84.3129 118.723C83.6865 117.854 82.8021 117.204 81.7854 116.866L79.2687 116.028L81.0462 104.471H101.025C101.513 104.47 101.986 104.644 102.356 104.963C102.726 105.282 102.969 105.723 103.04 106.207L104.237 113.988C104.317 114.507 104.193 115.038 103.892 115.469C103.59 115.9 103.134 116.198 102.619 116.301L98.5632 117.112C97.4089 117.346 96.3708 117.972 95.6241 118.883C94.8773 119.794 94.4676 120.935 94.464 122.113V129.996H85.2751Z" fill="#393A32"/>
<path d="M98.9685 119.109L103.023 118.298C104.055 118.094 104.967 117.498 105.57 116.636C106.173 115.774 106.42 114.713 106.258 113.673L105.062 105.892C104.918 104.926 104.43 104.044 103.689 103.408C102.947 102.772 102.002 102.425 101.025 102.429H91.5388L94.3302 99.0802C94.5214 98.8499 94.7611 98.6646 95.0322 98.5375C95.3033 98.4104 95.5991 98.3447 95.8984 98.3451H96.6938C96.9042 98.9403 97.2933 99.4559 97.808 99.8214C98.3226 100.187 98.9376 100.384 99.5689 100.387H103.653C104.465 100.387 105.244 100.064 105.819 99.49C106.393 98.9156 106.716 98.1365 106.716 97.3241C106.716 96.5118 106.393 95.7327 105.819 95.1583C105.244 94.5839 104.465 94.2612 103.653 94.2612H99.5689C98.9376 94.2638 98.3226 94.4614 97.808 94.8269C97.2933 95.1924 96.9042 95.708 96.6938 96.3032H95.8984C95.2996 96.3023 94.708 96.4335 94.1656 96.6874C93.6233 96.9414 93.1437 97.3118 92.761 97.7724L88.8812 102.429H85.1301C84.9045 101.555 84.3955 100.78 83.6828 100.226C82.9702 99.6719 82.094 99.3695 81.1912 99.3661H78.1282C78.1088 99.3661 78.0915 99.3763 78.0721 99.3773C77.3272 98.7166 76.3673 98.3497 75.3716 98.3451H59.7506C58.6674 98.3451 57.6287 98.7754 56.8628 99.5413C56.0969 100.307 55.6666 101.346 55.6666 102.429V109.576C55.6666 110.388 55.9893 111.167 56.5637 111.742C57.1382 112.316 57.9172 112.639 58.7296 112.639H59.7383C59.7313 116.336 59.3153 120.02 58.4978 123.626C58.4615 123.757 58.4518 123.895 58.4695 124.03C58.4872 124.165 58.5318 124.296 58.6008 124.413C58.6697 124.531 58.7615 124.634 58.8709 124.716C58.9802 124.797 59.1048 124.856 59.2373 124.889C59.3698 124.922 59.5075 124.927 59.6422 124.906C59.777 124.885 59.9061 124.836 60.0219 124.764C60.1377 124.692 60.2379 124.597 60.3165 124.486C60.3951 124.374 60.4505 124.248 60.4795 124.115C61.3364 120.349 61.7726 116.501 61.7803 112.639H63.8222C63.6507 124.574 60.5959 131.017 57.7086 131.017C57.4378 131.017 57.1781 131.124 56.9866 131.316C56.7952 131.507 56.6876 131.767 56.6876 132.038C56.6876 132.308 56.7952 132.568 56.9866 132.759C57.1781 132.951 57.4378 133.059 57.7086 133.059C62.4613 133.059 65.6876 124.891 65.8601 112.639H68.9231C68.7556 124.574 65.7008 131.017 62.8135 131.017C62.5427 131.017 62.283 131.124 62.0916 131.316C61.9001 131.507 61.7925 131.767 61.7925 132.038C61.7925 132.308 61.9001 132.568 62.0916 132.759C62.283 132.951 62.5427 133.059 62.8135 133.059C67.5662 133.059 70.7925 124.891 70.965 112.639H74.028C73.8605 124.574 70.8058 131.017 67.9184 131.017C67.6476 131.017 67.3879 131.124 67.1965 131.316C67.005 131.507 66.8974 131.767 66.8974 132.038C66.8974 132.308 67.005 132.568 67.1965 132.759C67.3879 132.951 67.6476 133.059 67.9184 133.059C72.6711 133.059 75.8974 124.891 76.0699 112.639H77.7198L77.1154 116.568C77.079 116.806 77.1278 117.049 77.2534 117.254C77.3789 117.46 77.5731 117.614 77.8015 117.691L81.135 118.802C81.7458 119.004 82.2771 119.394 82.6538 119.916C83.0304 120.438 83.2331 121.065 83.2332 121.708V129.996H75.5155C74.8735 129.997 74.248 130.2 73.7275 130.576C73.207 130.951 72.8178 131.481 72.6149 132.091L72.0595 133.757C72.0085 133.91 71.9946 134.073 72.0187 134.232C72.0429 134.392 72.1045 134.544 72.1986 134.675C72.2926 134.806 72.4164 134.913 72.5598 134.987C72.7031 135.061 72.862 135.1 73.0233 135.101H104.674C104.836 135.101 104.995 135.062 105.139 134.988C105.283 134.915 105.408 134.808 105.502 134.677C105.597 134.545 105.659 134.394 105.683 134.234C105.708 134.074 105.694 133.91 105.643 133.757L105.082 132.09C104.879 131.481 104.49 130.951 103.969 130.575C103.449 130.199 102.824 129.997 102.182 129.996H96.5059V122.113C96.5074 121.405 96.7533 120.719 97.2021 120.172C97.6508 119.625 98.2748 119.249 98.9685 119.109V119.109ZM99.5689 96.3032H103.653C103.924 96.3032 104.183 96.4107 104.375 96.6022C104.566 96.7937 104.674 97.0534 104.674 97.3241C104.674 97.5949 104.566 97.8546 104.375 98.0461C104.183 98.2376 103.924 98.3451 103.653 98.3451H99.5689C99.2981 98.3451 99.0384 98.2376 98.8469 98.0461C98.6555 97.8546 98.5479 97.5949 98.5479 97.3241C98.5479 97.0534 98.6555 96.7937 98.8469 96.6022C99.0384 96.4107 99.2981 96.3032 99.5689 96.3032ZM82.9493 102.429H80.1702C80.159 102.429 80.1498 102.434 80.1386 102.435L79.5229 101.408H81.1912C81.548 101.409 81.8983 101.504 82.2069 101.683C82.5155 101.862 82.7715 102.12 82.9493 102.429ZM57.7086 109.576V102.429C57.7086 101.887 57.9237 101.368 58.3067 100.985C58.6896 100.602 59.209 100.387 59.7506 100.387H75.3716C75.724 100.388 76.0702 100.48 76.3769 100.653C76.6836 100.827 76.9404 101.077 77.1226 101.378L78.9797 104.471L78.0374 110.597H58.7296C58.4588 110.597 58.1991 110.489 58.0076 110.298C57.8162 110.106 57.7086 109.847 57.7086 109.576ZM103.149 132.736L103.257 133.059H74.4394L74.5466 132.736C74.6144 132.533 74.7444 132.356 74.9183 132.23C75.0922 132.105 75.3012 132.038 75.5155 132.038H102.182C102.396 132.038 102.604 132.105 102.778 132.231C102.952 132.356 103.082 132.533 103.149 132.736ZM85.2751 129.996V121.708C85.276 120.637 84.9393 119.592 84.3129 118.723C83.6865 117.854 82.8021 117.204 81.7854 116.866L79.2687 116.028L81.0462 104.471H101.025C101.513 104.47 101.986 104.644 102.356 104.963C102.726 105.282 102.969 105.723 103.04 106.207L104.237 113.988C104.317 114.507 104.193 115.038 103.892 115.469C103.59 115.9 103.134 116.198 102.619 116.301L98.5632 117.112C97.4089 117.346 96.3708 117.972 95.6241 118.883C94.8773 119.794 94.4676 120.935 94.464 122.113V129.996H85.2751Z" fill="#393A32"/>
<path d="M65.8765 102.429C65.8765 102.158 65.7689 101.899 65.5775 101.707C65.386 101.516 65.1263 101.408 64.8555 101.408H60.7716C60.5008 101.408 60.2411 101.516 60.0496 101.707C59.8582 101.899 59.7506 102.158 59.7506 102.429C59.7506 102.7 59.8582 102.96 60.0496 103.151C60.2411 103.343 60.5008 103.45 60.7716 103.45H64.8555C65.1263 103.45 65.386 103.343 65.5775 103.151C65.7689 102.96 65.8765 102.7 65.8765 102.429Z" fill="#393A32"/>
<path d="M89.3591 107.534C88.5514 107.534 87.7618 107.773 87.0902 108.222C86.4186 108.671 85.8951 109.309 85.586 110.055C85.2769 110.801 85.196 111.622 85.3536 112.415C85.5112 113.207 85.9002 113.935 86.4713 114.506C87.0425 115.077 87.7701 115.466 88.5623 115.623C89.3545 115.781 90.1757 115.7 90.9219 115.391C91.6682 115.082 92.306 114.558 92.7547 113.887C93.2035 113.215 93.443 112.426 93.443 111.618C93.443 110.535 93.0127 109.496 92.2469 108.73C91.481 107.964 90.4422 107.534 89.3591 107.534ZM89.3591 113.66C88.9552 113.66 88.5604 113.54 88.2246 113.316C87.8888 113.091 87.6271 112.772 87.4725 112.399C87.318 112.026 87.2776 111.616 87.3563 111.22C87.4351 110.823 87.6296 110.46 87.9152 110.174C88.2008 109.888 88.5646 109.694 88.9607 109.615C89.3568 109.536 89.7674 109.577 90.1405 109.731C90.5136 109.886 90.8325 110.148 91.0569 110.483C91.2813 110.819 91.401 111.214 91.401 111.618C91.401 112.159 91.1859 112.679 90.803 113.062C90.42 113.445 89.9006 113.66 89.3591 113.66Z" fill="#393A32"/>
</svg>
